M48
; DRILL file {KiCad 5.1.7-a382d34a8~88~ubuntu20.04.1} date Wed Mar 24 14:30:33 2021
; FORMAT={-:-/ absolute / inch / decimal}
; #@! TF.CreationDate,2021-03-24T14:30:33-03:00
; #@! TF.GenerationSoftware,Kicad,Pcbnew,5.1.7-a382d34a8~88~ubuntu20.04.1
; #@! TF.FileFunction,Plated,1,4,PTH
FMAT,2
INCH
T1C0.0079
T2C0.0098
T3C0.0118
T4C0.0197
T5C0.0390
T6C0.0394
T7C0.0400
T8C0.0402
T9C0.0453
T10C0.0512
T11C0.0551
T12C0.1200
%
G90
G05
T1
X5.3977Y-3.4372
X5.3977Y-3.4785
X5.3977Y-3.5198
X5.439Y-3.4372
X5.439Y-3.4785
X5.439Y-3.5198
X5.4803Y-3.4372
X5.4803Y-3.4785
X5.4803Y-3.5198
T2
X5.8803Y-4.486
X5.9197Y-4.486
X5.6821Y-4.486
X5.7214Y-4.486
T3
X4.218Y-3.206
X4.253Y-2.823
X4.2536Y-2.865
X4.255Y-2.78
X4.257Y-2.908
X4.258Y-2.996
X4.26Y-3.04
X4.265Y-3.08
X4.3085Y-4.053
X4.31Y-4.202
X4.35Y-3.208
X4.3692Y-4.5835
X4.3728Y-4.556
X4.3735Y-4.099
X4.3828Y-2.7324
X4.3975Y-4.099
X4.4008Y-3.1516
X4.4122Y-2.7324
X4.418Y-4.2425
X4.422Y-4.099
X4.43Y-3.1516
X4.431Y-4.0118
X4.4475Y-4.099
X4.4588Y-2.772
X4.4588Y-2.8424
X4.4588Y-2.9214
X4.4588Y-2.994
X4.4588Y-3.0823
X4.4703Y-3.1165
X4.5261Y-4.5402
X4.5261Y-4.5658
X4.5364Y-4.0731
X4.5447Y-4.1194
X4.546Y-3.06
X4.59Y-2.87
X4.615Y-4.4955
X4.644Y-4.2546
X4.645Y-3.1
X4.715Y-3.0375
X4.72Y-3.135
X4.73Y-2.895
X4.774Y-4.1008
X4.791Y-4.429
X4.8151Y-4.1941
X5.0191Y-4.2126
X5.1Y-3.172
X5.1005Y-4.2126
X5.1329Y-3.6691
X5.1329Y-3.7485
X5.1596Y-4.3316
X5.195Y-3.276
X5.197Y-3.5225
X5.2331Y-4.2276
X5.304Y-3.251
X5.366Y-3.251
X5.376Y-3.193
X5.376Y-3.3698
X5.3895Y-4.4775
X5.408Y-3.366
X5.426Y-4.2495
X5.426Y-4.2235
X5.426Y-4.2745
X5.428Y-3.251
X5.429Y-3.763
X5.4485Y-3.3516
X5.4606Y-3.9668
X5.469Y-3.367
X5.476Y-3.626
X5.483Y-3.599
X5.49Y-3.764
X5.498Y-4.394
X5.499Y-4.25
X5.4995Y-4.5375
X5.502Y-3.364
X5.5907Y-3.9538
X5.6205Y-3.6085
X5.6215Y-3.5475
X5.6588Y-3.9387
X5.685Y-3.668
X5.686Y-3.729
X5.6894Y-3.3684
X5.6922Y-3.306
X5.727Y-3.534
X5.7712Y-3.5016
X5.7773Y-3.9421
X5.784Y-4.364
X5.784Y-4.392
X5.784Y-4.42
X5.7988Y-3.357
X5.8258Y-3.3614
X5.9Y-3.974
X5.968Y-4.582
X5.9982Y-3.5034
X6.0282Y-3.4748
X6.0294Y-3.5048
X6.0301Y-3.774
X6.0367Y-3.923
X6.05Y-4.348
X6.0564Y-3.4736
X6.07Y-2.906
X6.099Y-2.925
X6.194Y-3.974
X6.202Y-3.8031
X6.2838Y-3.8774
X6.3121Y-3.8789
X6.327Y-3.041
X6.3587Y-3.8078
X6.3592Y-3.6683
X6.3596Y-3.0186
X6.3738Y-2.956
X6.39Y-3.4384
X6.3937Y-3.9538
X6.3995Y-2.956
X6.437Y-3.262
X6.4547Y-3.9548
X6.4704Y-3.3882
X6.4843Y-3.6684
X6.4864Y-3.4715
X6.5062Y-4.1669
X6.5705Y-4.4403
X6.5714Y-3.4522
X6.5732Y-3.649
X6.577Y-4.29
X6.5802Y-3.8084
X6.5905Y-3.886
X6.5917Y-3.1058
X6.6097Y-4.0536
X6.6227Y-3.0096
X6.6249Y-3.278
X6.6297Y-3.1978
X6.6432Y-3.8353
X6.649Y-3.287
X6.6499Y-4.0775
X6.6622Y-3.8165
X6.6854Y-3.269
X6.6944Y-4.0635
X6.7087Y-3.9648
X6.7174Y-4.087
X6.7879Y-3.7831
X6.802Y-3.954
X6.808Y-3.393
X6.8104Y-3.7707
X6.8208Y-3.6296
X6.8502Y-4.2898
X6.8667Y-2.9728
X6.8667Y-3.1118
X6.8802Y-3.65
X6.883Y-4.383
X6.8857Y-3.1978
X6.9047Y-3.9618
X6.9252Y-4.0503
X6.926Y-2.9298
X6.926Y-2.957
X6.9272Y-4.181
X6.9342Y-3.6696
X6.945Y-2.982
X6.965Y-3.004
X6.9791Y-3.7064
X6.984Y-3.026
X7.003Y-3.05
X7.016Y-3.315
X7.0245Y-3.07
X7.0377Y-3.8581
X7.0384Y-3.728
X7.0533Y-3.5046
X7.0827Y-3.1118
X7.0837Y-2.9718
X7.0851Y-3.342
X7.09Y-4.246
X7.09Y-4.518
X7.1017Y-3.1978
X7.1064Y-3.4775
X7.137Y-3.543
X7.1822Y-3.9668
X7.2Y-4.046
X7.2Y-4.138
X7.2066Y-3.8194
X7.3115Y-4.3465
X7.312Y-4.408
X7.325Y-3.5708
X7.333Y-3.257
X7.335Y-3.328
X7.3357Y-3.4518
X7.3367Y-3.6488
X7.337Y-3.53
X7.3377Y-3.9048
X7.3582Y-4.1378
X7.385Y-3.0323
X7.386Y-3.1081
X7.387Y-3.07
X7.4074Y-3.0892
X7.409Y-3.0138
X7.409Y-3.0515
X7.4177Y-3.9888
X7.418Y-3.629
X7.421Y-4.114
X7.423Y-3.4321
X7.4237Y-3.1728
X7.424Y-3.293
X7.4257Y-3.8848
X7.429Y-3.55
X7.449Y-3.59
X7.483Y-3.69
X7.517Y-3.621
X7.5197Y-3.2018
X7.5487Y-3.4318
X7.5512Y-4.1712
X7.5703Y-3.8522
X7.666Y-3.819
X7.978Y-3.948
T5
X4.8188Y-4.684
X4.996Y-4.684
T6
X7.9755Y-4.388
X7.9755Y-4.488
X5.0413Y-4.1036
X5.1413Y-4.1036
X6.1689Y-3.3
X6.1689Y-3.4
X6.1689Y-3.5
X6.2689Y-3.3
X6.2689Y-3.4
X6.2689Y-3.5
T7
X4.81Y-2.79
X4.91Y-2.79
X5.01Y-2.79
X5.11Y-2.79
X5.21Y-2.79
X5.31Y-2.79
X5.41Y-2.79
X5.51Y-2.79
X5.61Y-2.79
X5.71Y-2.79
X6.97Y-4.69
X7.07Y-4.69
X7.17Y-4.69
X7.27Y-4.69
X7.37Y-4.69
X7.47Y-4.69
X7.57Y-4.69
X7.67Y-4.69
X6.07Y-4.69
X6.17Y-4.69
X6.27Y-4.69
X6.37Y-4.69
X6.47Y-4.69
X6.57Y-4.69
X6.67Y-4.69
X6.77Y-4.69
X6.77Y-2.79
X6.87Y-2.79
X6.97Y-2.79
X7.07Y-2.79
X7.17Y-2.79
X7.27Y-2.79
X7.37Y-2.79
X7.47Y-2.79
X7.77Y-2.79
X7.77Y-2.89
X7.77Y-2.99
X7.77Y-3.09
X7.77Y-3.19
X7.77Y-3.29
X7.77Y-3.39
X7.77Y-3.49
X7.77Y-3.59
X7.77Y-3.69
X7.77Y-3.79
X7.77Y-3.89
X7.77Y-3.99
X7.77Y-4.09
X7.77Y-4.19
X7.77Y-4.29
X7.77Y-4.39
X7.77Y-4.49
X7.87Y-2.79
X7.87Y-2.89
X7.87Y-2.99
X7.87Y-3.09
X7.87Y-3.19
X7.87Y-3.29
X7.87Y-3.39
X7.87Y-3.49
X7.87Y-3.59
X7.87Y-3.69
X7.87Y-3.79
X7.87Y-3.89
X7.87Y-3.99
X7.87Y-4.09
X7.87Y-4.19
X7.87Y-4.29
X7.87Y-4.39
X7.87Y-4.49
X5.87Y-2.79
X5.97Y-2.79
X6.07Y-2.79
X6.17Y-2.79
X6.27Y-2.79
X6.37Y-2.79
X6.47Y-2.79
X6.57Y-2.79
X5.17Y-4.69
X5.27Y-4.69
X5.37Y-4.69
X5.47Y-4.69
X5.57Y-4.69
X5.67Y-4.69
X5.77Y-4.69
X5.87Y-4.69
T8
X4.931Y-3.3715
X4.931Y-3.4515
X4.931Y-3.5315
X5.031Y-3.3315
X5.031Y-3.4115
X5.031Y-3.4915
T9
X4.281Y-3.2949
X4.281Y-3.8481
X4.381Y-3.2949
X4.381Y-3.8481
T10
X4.7692Y-4.586
X5.0452Y-4.586
T11
X4.666Y-3.8926
X4.7211Y-3.2504
T12
X4.62Y-4.69
X7.87Y-4.69
X4.67Y-2.79
X7.62Y-2.79
T4
G00X4.186Y-4.3762
M15
G01X4.1624Y-4.3762
M16
G05
G00X4.186Y-4.7298
M15
G01X4.1624Y-4.7298
M16
G05
G00X4.4203Y-4.3904
M15
G01X4.3966Y-4.3904
M16
G05
G00X4.4203Y-4.7156
M15
G01X4.3966Y-4.7156
M16
G05
T0
M30
