G04 #@! TF.GenerationSoftware,KiCad,Pcbnew,5.1.7-a382d34a8~88~ubuntu20.04.1*
G04 #@! TF.CreationDate,2021-02-21T10:13:38-03:00*
G04 #@! TF.ProjectId,h730duino,68373330-6475-4696-9e6f-2e6b69636164,rev?*
G04 #@! TF.SameCoordinates,Original*
G04 #@! TF.FileFunction,Soldermask,Top*
G04 #@! TF.FilePolarity,Negative*
%FSLAX46Y46*%
G04 Gerber Fmt 4.6, Leading zero omitted, Abs format (unit mm)*
G04 Created by KiCad (PCBNEW 5.1.7-a382d34a8~88~ubuntu20.04.1) date 2021-02-21 10:13:38*
%MOMM*%
%LPD*%
G01*
G04 APERTURE LIST*
%ADD10C,0.787400*%
%ADD11C,0.990600*%
%ADD12R,2.400000X0.740000*%
%ADD13O,1.700000X1.700000*%
%ADD14R,1.700000X1.700000*%
%ADD15O,1.727200X2.032000*%
%ADD16R,0.279400X1.358900*%
%ADD17R,1.358900X0.279400*%
%ADD18R,1.060000X0.650000*%
%ADD19O,1.400000X0.800000*%
%ADD20R,0.700000X0.300000*%
%ADD21O,0.650000X0.950000*%
%ADD22C,0.650000*%
%ADD23R,0.900000X0.800000*%
%ADD24R,0.550000X2.910000*%
%ADD25R,2.390000X1.050000*%
%ADD26R,1.200000X1.050000*%
%ADD27R,1.080000X1.050000*%
%ADD28R,0.780000X0.720000*%
%ADD29R,1.000000X0.500000*%
%ADD30R,1.900000X1.000000*%
%ADD31R,1.900000X1.800000*%
%ADD32R,1.300000X1.650000*%
%ADD33R,1.550000X1.425000*%
%ADD34R,1.380000X0.450000*%
%ADD35R,1.000000X1.800000*%
%ADD36R,1.800000X1.000000*%
%ADD37C,2.100000*%
%ADD38C,1.750000*%
%ADD39R,2.600000X2.600000*%
%ADD40C,1.530000*%
%ADD41C,1.725000*%
%ADD42C,2.310000*%
%ADD43R,0.800000X0.900000*%
%ADD44R,0.650000X1.220000*%
%ADD45O,1.727200X1.727200*%
%ADD46C,1.727200*%
%ADD47C,4.064000*%
G04 APERTURE END LIST*
D10*
X139801600Y-100355400D03*
X141071600Y-100355400D03*
X142341600Y-100355400D03*
X143611600Y-100355400D03*
X144881600Y-100355400D03*
X144881600Y-101625400D03*
X143611600Y-101625400D03*
X142341600Y-101625400D03*
X141071600Y-101625400D03*
X139801600Y-101625400D03*
D11*
X138531600Y-100990400D03*
X146151600Y-102006400D03*
X146151600Y-99974400D03*
D12*
X151567600Y-95859600D03*
X155467600Y-95859600D03*
X151567600Y-97129600D03*
X155467600Y-97129600D03*
X151567600Y-98399600D03*
X155467600Y-98399600D03*
X151567600Y-99669600D03*
X155467600Y-99669600D03*
X151567600Y-100939600D03*
X155467600Y-100939600D03*
D13*
X134112000Y-101955600D03*
D14*
X131572000Y-101955600D03*
G36*
G01*
X147199800Y-84307000D02*
X147199800Y-84857000D01*
G75*
G02*
X146999800Y-85057000I-200000J0D01*
G01*
X146599800Y-85057000D01*
G75*
G02*
X146399800Y-84857000I0J200000D01*
G01*
X146399800Y-84307000D01*
G75*
G02*
X146599800Y-84107000I200000J0D01*
G01*
X146999800Y-84107000D01*
G75*
G02*
X147199800Y-84307000I0J-200000D01*
G01*
G37*
G36*
G01*
X148849800Y-84307000D02*
X148849800Y-84857000D01*
G75*
G02*
X148649800Y-85057000I-200000J0D01*
G01*
X148249800Y-85057000D01*
G75*
G02*
X148049800Y-84857000I0J200000D01*
G01*
X148049800Y-84307000D01*
G75*
G02*
X148249800Y-84107000I200000J0D01*
G01*
X148649800Y-84107000D01*
G75*
G02*
X148849800Y-84307000I0J-200000D01*
G01*
G37*
G36*
G01*
X147199800Y-87355000D02*
X147199800Y-87905000D01*
G75*
G02*
X146999800Y-88105000I-200000J0D01*
G01*
X146599800Y-88105000D01*
G75*
G02*
X146399800Y-87905000I0J200000D01*
G01*
X146399800Y-87355000D01*
G75*
G02*
X146599800Y-87155000I200000J0D01*
G01*
X146999800Y-87155000D01*
G75*
G02*
X147199800Y-87355000I0J-200000D01*
G01*
G37*
G36*
G01*
X148849800Y-87355000D02*
X148849800Y-87905000D01*
G75*
G02*
X148649800Y-88105000I-200000J0D01*
G01*
X148249800Y-88105000D01*
G75*
G02*
X148049800Y-87905000I0J200000D01*
G01*
X148049800Y-87355000D01*
G75*
G02*
X148249800Y-87155000I200000J0D01*
G01*
X148649800Y-87155000D01*
G75*
G02*
X148849800Y-87355000I0J-200000D01*
G01*
G37*
G36*
G01*
X147199800Y-93451000D02*
X147199800Y-94001000D01*
G75*
G02*
X146999800Y-94201000I-200000J0D01*
G01*
X146599800Y-94201000D01*
G75*
G02*
X146399800Y-94001000I0J200000D01*
G01*
X146399800Y-93451000D01*
G75*
G02*
X146599800Y-93251000I200000J0D01*
G01*
X146999800Y-93251000D01*
G75*
G02*
X147199800Y-93451000I0J-200000D01*
G01*
G37*
G36*
G01*
X148849800Y-93451000D02*
X148849800Y-94001000D01*
G75*
G02*
X148649800Y-94201000I-200000J0D01*
G01*
X148249800Y-94201000D01*
G75*
G02*
X148049800Y-94001000I0J200000D01*
G01*
X148049800Y-93451000D01*
G75*
G02*
X148249800Y-93251000I200000J0D01*
G01*
X148649800Y-93251000D01*
G75*
G02*
X148849800Y-93451000I0J-200000D01*
G01*
G37*
G36*
G01*
X147199800Y-88879000D02*
X147199800Y-89429000D01*
G75*
G02*
X146999800Y-89629000I-200000J0D01*
G01*
X146599800Y-89629000D01*
G75*
G02*
X146399800Y-89429000I0J200000D01*
G01*
X146399800Y-88879000D01*
G75*
G02*
X146599800Y-88679000I200000J0D01*
G01*
X146999800Y-88679000D01*
G75*
G02*
X147199800Y-88879000I0J-200000D01*
G01*
G37*
G36*
G01*
X148849800Y-88879000D02*
X148849800Y-89429000D01*
G75*
G02*
X148649800Y-89629000I-200000J0D01*
G01*
X148249800Y-89629000D01*
G75*
G02*
X148049800Y-89429000I0J200000D01*
G01*
X148049800Y-88879000D01*
G75*
G02*
X148249800Y-88679000I200000J0D01*
G01*
X148649800Y-88679000D01*
G75*
G02*
X148849800Y-88879000I0J-200000D01*
G01*
G37*
G36*
G01*
X148049800Y-83333000D02*
X148049800Y-82783000D01*
G75*
G02*
X148249800Y-82583000I200000J0D01*
G01*
X148649800Y-82583000D01*
G75*
G02*
X148849800Y-82783000I0J-200000D01*
G01*
X148849800Y-83333000D01*
G75*
G02*
X148649800Y-83533000I-200000J0D01*
G01*
X148249800Y-83533000D01*
G75*
G02*
X148049800Y-83333000I0J200000D01*
G01*
G37*
G36*
G01*
X146399800Y-83333000D02*
X146399800Y-82783000D01*
G75*
G02*
X146599800Y-82583000I200000J0D01*
G01*
X146999800Y-82583000D01*
G75*
G02*
X147199800Y-82783000I0J-200000D01*
G01*
X147199800Y-83333000D01*
G75*
G02*
X146999800Y-83533000I-200000J0D01*
G01*
X146599800Y-83533000D01*
G75*
G02*
X146399800Y-83333000I0J200000D01*
G01*
G37*
G36*
G01*
X148049800Y-86381000D02*
X148049800Y-85831000D01*
G75*
G02*
X148249800Y-85631000I200000J0D01*
G01*
X148649800Y-85631000D01*
G75*
G02*
X148849800Y-85831000I0J-200000D01*
G01*
X148849800Y-86381000D01*
G75*
G02*
X148649800Y-86581000I-200000J0D01*
G01*
X148249800Y-86581000D01*
G75*
G02*
X148049800Y-86381000I0J200000D01*
G01*
G37*
G36*
G01*
X146399800Y-86381000D02*
X146399800Y-85831000D01*
G75*
G02*
X146599800Y-85631000I200000J0D01*
G01*
X146999800Y-85631000D01*
G75*
G02*
X147199800Y-85831000I0J-200000D01*
G01*
X147199800Y-86381000D01*
G75*
G02*
X146999800Y-86581000I-200000J0D01*
G01*
X146599800Y-86581000D01*
G75*
G02*
X146399800Y-86381000I0J200000D01*
G01*
G37*
G36*
G01*
X148049800Y-92477000D02*
X148049800Y-91927000D01*
G75*
G02*
X148249800Y-91727000I200000J0D01*
G01*
X148649800Y-91727000D01*
G75*
G02*
X148849800Y-91927000I0J-200000D01*
G01*
X148849800Y-92477000D01*
G75*
G02*
X148649800Y-92677000I-200000J0D01*
G01*
X148249800Y-92677000D01*
G75*
G02*
X148049800Y-92477000I0J200000D01*
G01*
G37*
G36*
G01*
X146399800Y-92477000D02*
X146399800Y-91927000D01*
G75*
G02*
X146599800Y-91727000I200000J0D01*
G01*
X146999800Y-91727000D01*
G75*
G02*
X147199800Y-91927000I0J-200000D01*
G01*
X147199800Y-92477000D01*
G75*
G02*
X146999800Y-92677000I-200000J0D01*
G01*
X146599800Y-92677000D01*
G75*
G02*
X146399800Y-92477000I0J200000D01*
G01*
G37*
G36*
G01*
X148049800Y-90953000D02*
X148049800Y-90403000D01*
G75*
G02*
X148249800Y-90203000I200000J0D01*
G01*
X148649800Y-90203000D01*
G75*
G02*
X148849800Y-90403000I0J-200000D01*
G01*
X148849800Y-90953000D01*
G75*
G02*
X148649800Y-91153000I-200000J0D01*
G01*
X148249800Y-91153000D01*
G75*
G02*
X148049800Y-90953000I0J200000D01*
G01*
G37*
G36*
G01*
X146399800Y-90953000D02*
X146399800Y-90403000D01*
G75*
G02*
X146599800Y-90203000I200000J0D01*
G01*
X146999800Y-90203000D01*
G75*
G02*
X147199800Y-90403000I0J-200000D01*
G01*
X147199800Y-90953000D01*
G75*
G02*
X146999800Y-91153000I-200000J0D01*
G01*
X146599800Y-91153000D01*
G75*
G02*
X146399800Y-90953000I0J200000D01*
G01*
G37*
D15*
X145034000Y-75946000D03*
X142494000Y-75946000D03*
X139954000Y-75946000D03*
X137414000Y-75946000D03*
X134874000Y-75946000D03*
X132334000Y-75946000D03*
X129794000Y-75946000D03*
X127254000Y-75946000D03*
X124714000Y-75946000D03*
X122174000Y-75946000D03*
G36*
G01*
X161875600Y-109192200D02*
X161875600Y-108892200D01*
G75*
G02*
X162025600Y-108742200I150000J0D01*
G01*
X163675600Y-108742200D01*
G75*
G02*
X163825600Y-108892200I0J-150000D01*
G01*
X163825600Y-109192200D01*
G75*
G02*
X163675600Y-109342200I-150000J0D01*
G01*
X162025600Y-109342200D01*
G75*
G02*
X161875600Y-109192200I0J150000D01*
G01*
G37*
G36*
G01*
X161875600Y-110462200D02*
X161875600Y-110162200D01*
G75*
G02*
X162025600Y-110012200I150000J0D01*
G01*
X163675600Y-110012200D01*
G75*
G02*
X163825600Y-110162200I0J-150000D01*
G01*
X163825600Y-110462200D01*
G75*
G02*
X163675600Y-110612200I-150000J0D01*
G01*
X162025600Y-110612200D01*
G75*
G02*
X161875600Y-110462200I0J150000D01*
G01*
G37*
G36*
G01*
X161875600Y-111732200D02*
X161875600Y-111432200D01*
G75*
G02*
X162025600Y-111282200I150000J0D01*
G01*
X163675600Y-111282200D01*
G75*
G02*
X163825600Y-111432200I0J-150000D01*
G01*
X163825600Y-111732200D01*
G75*
G02*
X163675600Y-111882200I-150000J0D01*
G01*
X162025600Y-111882200D01*
G75*
G02*
X161875600Y-111732200I0J150000D01*
G01*
G37*
G36*
G01*
X161875600Y-113002200D02*
X161875600Y-112702200D01*
G75*
G02*
X162025600Y-112552200I150000J0D01*
G01*
X163675600Y-112552200D01*
G75*
G02*
X163825600Y-112702200I0J-150000D01*
G01*
X163825600Y-113002200D01*
G75*
G02*
X163675600Y-113152200I-150000J0D01*
G01*
X162025600Y-113152200D01*
G75*
G02*
X161875600Y-113002200I0J150000D01*
G01*
G37*
G36*
G01*
X156925600Y-113002200D02*
X156925600Y-112702200D01*
G75*
G02*
X157075600Y-112552200I150000J0D01*
G01*
X158725600Y-112552200D01*
G75*
G02*
X158875600Y-112702200I0J-150000D01*
G01*
X158875600Y-113002200D01*
G75*
G02*
X158725600Y-113152200I-150000J0D01*
G01*
X157075600Y-113152200D01*
G75*
G02*
X156925600Y-113002200I0J150000D01*
G01*
G37*
G36*
G01*
X156925600Y-111732200D02*
X156925600Y-111432200D01*
G75*
G02*
X157075600Y-111282200I150000J0D01*
G01*
X158725600Y-111282200D01*
G75*
G02*
X158875600Y-111432200I0J-150000D01*
G01*
X158875600Y-111732200D01*
G75*
G02*
X158725600Y-111882200I-150000J0D01*
G01*
X157075600Y-111882200D01*
G75*
G02*
X156925600Y-111732200I0J150000D01*
G01*
G37*
G36*
G01*
X156925600Y-110462200D02*
X156925600Y-110162200D01*
G75*
G02*
X157075600Y-110012200I150000J0D01*
G01*
X158725600Y-110012200D01*
G75*
G02*
X158875600Y-110162200I0J-150000D01*
G01*
X158875600Y-110462200D01*
G75*
G02*
X158725600Y-110612200I-150000J0D01*
G01*
X157075600Y-110612200D01*
G75*
G02*
X156925600Y-110462200I0J150000D01*
G01*
G37*
G36*
G01*
X156925600Y-109192200D02*
X156925600Y-108892200D01*
G75*
G02*
X157075600Y-108742200I150000J0D01*
G01*
X158725600Y-108742200D01*
G75*
G02*
X158875600Y-108892200I0J-150000D01*
G01*
X158875600Y-109192200D01*
G75*
G02*
X158725600Y-109342200I-150000J0D01*
G01*
X157075600Y-109342200D01*
G75*
G02*
X156925600Y-109192200I0J150000D01*
G01*
G37*
G36*
G01*
X160766880Y-107186920D02*
X160766880Y-107686920D01*
G75*
G02*
X160541880Y-107911920I-225000J0D01*
G01*
X160091880Y-107911920D01*
G75*
G02*
X159866880Y-107686920I0J225000D01*
G01*
X159866880Y-107186920D01*
G75*
G02*
X160091880Y-106961920I225000J0D01*
G01*
X160541880Y-106961920D01*
G75*
G02*
X160766880Y-107186920I0J-225000D01*
G01*
G37*
G36*
G01*
X162316880Y-107186920D02*
X162316880Y-107686920D01*
G75*
G02*
X162091880Y-107911920I-225000J0D01*
G01*
X161641880Y-107911920D01*
G75*
G02*
X161416880Y-107686920I0J225000D01*
G01*
X161416880Y-107186920D01*
G75*
G02*
X161641880Y-106961920I225000J0D01*
G01*
X162091880Y-106961920D01*
G75*
G02*
X162316880Y-107186920I0J-225000D01*
G01*
G37*
D16*
X167897175Y-101702870D03*
X168397301Y-101702870D03*
X168897427Y-101702870D03*
X169397553Y-101702870D03*
X169897679Y-101702870D03*
X170397805Y-101702870D03*
X170897931Y-101702870D03*
X171398057Y-101702870D03*
X171898183Y-101702870D03*
X172398309Y-101702870D03*
X172898435Y-101702870D03*
X173398561Y-101702870D03*
X173898687Y-101702870D03*
X174398813Y-101702870D03*
X174898939Y-101702870D03*
X175399065Y-101702870D03*
X175899191Y-101702870D03*
X176399317Y-101702870D03*
X176899443Y-101702870D03*
X177399569Y-101702870D03*
X177899695Y-101702870D03*
X178399821Y-101702870D03*
X178899947Y-101702870D03*
X179400073Y-101702870D03*
X179900199Y-101702870D03*
X180400325Y-101702870D03*
X180900451Y-101702870D03*
X181400577Y-101702870D03*
X181900703Y-101702870D03*
X182400829Y-101702870D03*
X182900955Y-101702870D03*
X183401081Y-101702870D03*
X183901207Y-101702870D03*
X184401333Y-101702870D03*
X184901459Y-101702870D03*
X185401585Y-101702870D03*
D17*
X187425330Y-99679125D03*
X187425330Y-99178999D03*
X187425330Y-98678873D03*
X187425330Y-98178747D03*
X187425330Y-97678621D03*
X187425330Y-97178495D03*
X187425330Y-96678369D03*
X187425330Y-96178243D03*
X187425330Y-95678117D03*
X187425330Y-95177991D03*
X187425330Y-94677865D03*
X187425330Y-94177739D03*
X187425330Y-93677613D03*
X187425330Y-93177487D03*
X187425330Y-92677361D03*
X187425330Y-92177235D03*
X187425330Y-91677109D03*
X187425330Y-91176983D03*
X187425330Y-90676857D03*
X187425330Y-90176731D03*
X187425330Y-89676605D03*
X187425330Y-89176479D03*
X187425330Y-88676353D03*
X187425330Y-88176227D03*
X187425330Y-87676101D03*
X187425330Y-87175975D03*
X187425330Y-86675849D03*
X187425330Y-86175723D03*
X187425330Y-85675597D03*
X187425330Y-85175471D03*
X187425330Y-84675345D03*
X187425330Y-84175219D03*
X187425330Y-83675093D03*
X187425330Y-83174967D03*
X187425330Y-82674841D03*
X187425330Y-82174715D03*
D16*
X185401585Y-80150970D03*
X184901459Y-80150970D03*
X184401333Y-80150970D03*
X183901207Y-80150970D03*
X183401081Y-80150970D03*
X182900955Y-80150970D03*
X182400829Y-80150970D03*
X181900703Y-80150970D03*
X181400577Y-80150970D03*
X180900451Y-80150970D03*
X180400325Y-80150970D03*
X179900199Y-80150970D03*
X179400073Y-80150970D03*
X178899947Y-80150970D03*
X178399821Y-80150970D03*
X177899695Y-80150970D03*
X177399569Y-80150970D03*
X176899443Y-80150970D03*
X176399317Y-80150970D03*
X175899191Y-80150970D03*
X175399065Y-80150970D03*
X174898939Y-80150970D03*
X174398813Y-80150970D03*
X173898687Y-80150970D03*
X173398561Y-80150970D03*
X172898435Y-80150970D03*
X172398309Y-80150970D03*
X171898183Y-80150970D03*
X171398057Y-80150970D03*
X170897931Y-80150970D03*
X170397805Y-80150970D03*
X169897679Y-80150970D03*
X169397553Y-80150970D03*
X168897427Y-80150970D03*
X168397301Y-80150970D03*
X167897175Y-80150970D03*
D17*
X165873430Y-82174715D03*
X165873430Y-82674841D03*
X165873430Y-83174967D03*
X165873430Y-83675093D03*
X165873430Y-84175219D03*
X165873430Y-84675345D03*
X165873430Y-85175471D03*
X165873430Y-85675597D03*
X165873430Y-86175723D03*
X165873430Y-86675849D03*
X165873430Y-87175975D03*
X165873430Y-87676101D03*
X165873430Y-88176227D03*
X165873430Y-88676353D03*
X165873430Y-89176479D03*
X165873430Y-89676605D03*
X165873430Y-90176731D03*
X165873430Y-90676857D03*
X165873430Y-91176983D03*
X165873430Y-91677109D03*
X165873430Y-92177235D03*
X165873430Y-92677361D03*
X165873430Y-93177487D03*
X165873430Y-93677613D03*
X165873430Y-94177739D03*
X165873430Y-94677865D03*
X165873430Y-95177991D03*
X165873430Y-95678117D03*
X165873430Y-96178243D03*
X165873430Y-96678369D03*
X165873430Y-97178495D03*
X165873430Y-97678621D03*
X165873430Y-98178747D03*
X165873430Y-98678873D03*
X165873430Y-99178999D03*
X165873430Y-99679125D03*
G36*
G01*
X164814800Y-109110920D02*
X164814800Y-108810920D01*
G75*
G02*
X164964800Y-108660920I150000J0D01*
G01*
X166264800Y-108660920D01*
G75*
G02*
X166414800Y-108810920I0J-150000D01*
G01*
X166414800Y-109110920D01*
G75*
G02*
X166264800Y-109260920I-150000J0D01*
G01*
X164964800Y-109260920D01*
G75*
G02*
X164814800Y-109110920I0J150000D01*
G01*
G37*
G36*
G01*
X164814800Y-110380920D02*
X164814800Y-110080920D01*
G75*
G02*
X164964800Y-109930920I150000J0D01*
G01*
X166264800Y-109930920D01*
G75*
G02*
X166414800Y-110080920I0J-150000D01*
G01*
X166414800Y-110380920D01*
G75*
G02*
X166264800Y-110530920I-150000J0D01*
G01*
X164964800Y-110530920D01*
G75*
G02*
X164814800Y-110380920I0J150000D01*
G01*
G37*
G36*
G01*
X164814800Y-111650920D02*
X164814800Y-111350920D01*
G75*
G02*
X164964800Y-111200920I150000J0D01*
G01*
X166264800Y-111200920D01*
G75*
G02*
X166414800Y-111350920I0J-150000D01*
G01*
X166414800Y-111650920D01*
G75*
G02*
X166264800Y-111800920I-150000J0D01*
G01*
X164964800Y-111800920D01*
G75*
G02*
X164814800Y-111650920I0J150000D01*
G01*
G37*
G36*
G01*
X164814800Y-112920920D02*
X164814800Y-112620920D01*
G75*
G02*
X164964800Y-112470920I150000J0D01*
G01*
X166264800Y-112470920D01*
G75*
G02*
X166414800Y-112620920I0J-150000D01*
G01*
X166414800Y-112920920D01*
G75*
G02*
X166264800Y-113070920I-150000J0D01*
G01*
X164964800Y-113070920D01*
G75*
G02*
X164814800Y-112920920I0J150000D01*
G01*
G37*
G36*
G01*
X172014800Y-112920920D02*
X172014800Y-112620920D01*
G75*
G02*
X172164800Y-112470920I150000J0D01*
G01*
X173464800Y-112470920D01*
G75*
G02*
X173614800Y-112620920I0J-150000D01*
G01*
X173614800Y-112920920D01*
G75*
G02*
X173464800Y-113070920I-150000J0D01*
G01*
X172164800Y-113070920D01*
G75*
G02*
X172014800Y-112920920I0J150000D01*
G01*
G37*
G36*
G01*
X172014800Y-111650920D02*
X172014800Y-111350920D01*
G75*
G02*
X172164800Y-111200920I150000J0D01*
G01*
X173464800Y-111200920D01*
G75*
G02*
X173614800Y-111350920I0J-150000D01*
G01*
X173614800Y-111650920D01*
G75*
G02*
X173464800Y-111800920I-150000J0D01*
G01*
X172164800Y-111800920D01*
G75*
G02*
X172014800Y-111650920I0J150000D01*
G01*
G37*
G36*
G01*
X172014800Y-110380920D02*
X172014800Y-110080920D01*
G75*
G02*
X172164800Y-109930920I150000J0D01*
G01*
X173464800Y-109930920D01*
G75*
G02*
X173614800Y-110080920I0J-150000D01*
G01*
X173614800Y-110380920D01*
G75*
G02*
X173464800Y-110530920I-150000J0D01*
G01*
X172164800Y-110530920D01*
G75*
G02*
X172014800Y-110380920I0J150000D01*
G01*
G37*
G36*
G01*
X172014800Y-109110920D02*
X172014800Y-108810920D01*
G75*
G02*
X172164800Y-108660920I150000J0D01*
G01*
X173464800Y-108660920D01*
G75*
G02*
X173614800Y-108810920I0J-150000D01*
G01*
X173614800Y-109110920D01*
G75*
G02*
X173464800Y-109260920I-150000J0D01*
G01*
X172164800Y-109260920D01*
G75*
G02*
X172014800Y-109110920I0J150000D01*
G01*
G37*
G36*
G01*
X181860380Y-103113120D02*
X182360380Y-103113120D01*
G75*
G02*
X182585380Y-103338120I0J-225000D01*
G01*
X182585380Y-103788120D01*
G75*
G02*
X182360380Y-104013120I-225000J0D01*
G01*
X181860380Y-104013120D01*
G75*
G02*
X181635380Y-103788120I0J225000D01*
G01*
X181635380Y-103338120D01*
G75*
G02*
X181860380Y-103113120I225000J0D01*
G01*
G37*
G36*
G01*
X181860380Y-104663120D02*
X182360380Y-104663120D01*
G75*
G02*
X182585380Y-104888120I0J-225000D01*
G01*
X182585380Y-105338120D01*
G75*
G02*
X182360380Y-105563120I-225000J0D01*
G01*
X181860380Y-105563120D01*
G75*
G02*
X181635380Y-105338120I0J225000D01*
G01*
X181635380Y-104888120D01*
G75*
G02*
X181860380Y-104663120I225000J0D01*
G01*
G37*
G36*
G01*
X180175980Y-78334320D02*
X179675980Y-78334320D01*
G75*
G02*
X179450980Y-78109320I0J225000D01*
G01*
X179450980Y-77659320D01*
G75*
G02*
X179675980Y-77434320I225000J0D01*
G01*
X180175980Y-77434320D01*
G75*
G02*
X180400980Y-77659320I0J-225000D01*
G01*
X180400980Y-78109320D01*
G75*
G02*
X180175980Y-78334320I-225000J0D01*
G01*
G37*
G36*
G01*
X180175980Y-76784320D02*
X179675980Y-76784320D01*
G75*
G02*
X179450980Y-76559320I0J225000D01*
G01*
X179450980Y-76109320D01*
G75*
G02*
X179675980Y-75884320I225000J0D01*
G01*
X180175980Y-75884320D01*
G75*
G02*
X180400980Y-76109320I0J-225000D01*
G01*
X180400980Y-76559320D01*
G75*
G02*
X180175980Y-76784320I-225000J0D01*
G01*
G37*
G36*
G01*
X174664180Y-78359720D02*
X174164180Y-78359720D01*
G75*
G02*
X173939180Y-78134720I0J225000D01*
G01*
X173939180Y-77684720D01*
G75*
G02*
X174164180Y-77459720I225000J0D01*
G01*
X174664180Y-77459720D01*
G75*
G02*
X174889180Y-77684720I0J-225000D01*
G01*
X174889180Y-78134720D01*
G75*
G02*
X174664180Y-78359720I-225000J0D01*
G01*
G37*
G36*
G01*
X174664180Y-76809720D02*
X174164180Y-76809720D01*
G75*
G02*
X173939180Y-76584720I0J225000D01*
G01*
X173939180Y-76134720D01*
G75*
G02*
X174164180Y-75909720I225000J0D01*
G01*
X174664180Y-75909720D01*
G75*
G02*
X174889180Y-76134720I0J-225000D01*
G01*
X174889180Y-76584720D01*
G75*
G02*
X174664180Y-76809720I-225000J0D01*
G01*
G37*
G36*
G01*
X188962580Y-87417720D02*
X188962580Y-86917720D01*
G75*
G02*
X189187580Y-86692720I225000J0D01*
G01*
X189637580Y-86692720D01*
G75*
G02*
X189862580Y-86917720I0J-225000D01*
G01*
X189862580Y-87417720D01*
G75*
G02*
X189637580Y-87642720I-225000J0D01*
G01*
X189187580Y-87642720D01*
G75*
G02*
X188962580Y-87417720I0J225000D01*
G01*
G37*
G36*
G01*
X190512580Y-87417720D02*
X190512580Y-86917720D01*
G75*
G02*
X190737580Y-86692720I225000J0D01*
G01*
X191187580Y-86692720D01*
G75*
G02*
X191412580Y-86917720I0J-225000D01*
G01*
X191412580Y-87417720D01*
G75*
G02*
X191187580Y-87642720I-225000J0D01*
G01*
X190737580Y-87642720D01*
G75*
G02*
X190512580Y-87417720I0J225000D01*
G01*
G37*
G36*
G01*
X164310780Y-87959120D02*
X164310780Y-88459120D01*
G75*
G02*
X164085780Y-88684120I-225000J0D01*
G01*
X163635780Y-88684120D01*
G75*
G02*
X163410780Y-88459120I0J225000D01*
G01*
X163410780Y-87959120D01*
G75*
G02*
X163635780Y-87734120I225000J0D01*
G01*
X164085780Y-87734120D01*
G75*
G02*
X164310780Y-87959120I0J-225000D01*
G01*
G37*
G36*
G01*
X162760780Y-87959120D02*
X162760780Y-88459120D01*
G75*
G02*
X162535780Y-88684120I-225000J0D01*
G01*
X162085780Y-88684120D01*
G75*
G02*
X161860780Y-88459120I0J225000D01*
G01*
X161860780Y-87959120D01*
G75*
G02*
X162085780Y-87734120I225000J0D01*
G01*
X162535780Y-87734120D01*
G75*
G02*
X162760780Y-87959120I0J-225000D01*
G01*
G37*
G36*
G01*
X188975580Y-92396120D02*
X188975580Y-91896120D01*
G75*
G02*
X189200580Y-91671120I225000J0D01*
G01*
X189650580Y-91671120D01*
G75*
G02*
X189875580Y-91896120I0J-225000D01*
G01*
X189875580Y-92396120D01*
G75*
G02*
X189650580Y-92621120I-225000J0D01*
G01*
X189200580Y-92621120D01*
G75*
G02*
X188975580Y-92396120I0J225000D01*
G01*
G37*
G36*
G01*
X190525580Y-92396120D02*
X190525580Y-91896120D01*
G75*
G02*
X190750580Y-91671120I225000J0D01*
G01*
X191200580Y-91671120D01*
G75*
G02*
X191425580Y-91896120I0J-225000D01*
G01*
X191425580Y-92396120D01*
G75*
G02*
X191200580Y-92621120I-225000J0D01*
G01*
X190750580Y-92621120D01*
G75*
G02*
X190525580Y-92396120I0J225000D01*
G01*
G37*
G36*
G01*
X164323180Y-92962920D02*
X164323180Y-93462920D01*
G75*
G02*
X164098180Y-93687920I-225000J0D01*
G01*
X163648180Y-93687920D01*
G75*
G02*
X163423180Y-93462920I0J225000D01*
G01*
X163423180Y-92962920D01*
G75*
G02*
X163648180Y-92737920I225000J0D01*
G01*
X164098180Y-92737920D01*
G75*
G02*
X164323180Y-92962920I0J-225000D01*
G01*
G37*
G36*
G01*
X162773180Y-92962920D02*
X162773180Y-93462920D01*
G75*
G02*
X162548180Y-93687920I-225000J0D01*
G01*
X162098180Y-93687920D01*
G75*
G02*
X161873180Y-93462920I0J225000D01*
G01*
X161873180Y-92962920D01*
G75*
G02*
X162098180Y-92737920I225000J0D01*
G01*
X162548180Y-92737920D01*
G75*
G02*
X162773180Y-92962920I0J-225000D01*
G01*
G37*
G36*
G01*
X161911580Y-96993120D02*
X161911580Y-96443120D01*
G75*
G02*
X162111580Y-96243120I200000J0D01*
G01*
X162511580Y-96243120D01*
G75*
G02*
X162711580Y-96443120I0J-200000D01*
G01*
X162711580Y-96993120D01*
G75*
G02*
X162511580Y-97193120I-200000J0D01*
G01*
X162111580Y-97193120D01*
G75*
G02*
X161911580Y-96993120I0J200000D01*
G01*
G37*
G36*
G01*
X163561580Y-96993120D02*
X163561580Y-96443120D01*
G75*
G02*
X163761580Y-96243120I200000J0D01*
G01*
X164161580Y-96243120D01*
G75*
G02*
X164361580Y-96443120I0J-200000D01*
G01*
X164361580Y-96993120D01*
G75*
G02*
X164161580Y-97193120I-200000J0D01*
G01*
X163761580Y-97193120D01*
G75*
G02*
X163561580Y-96993120I0J200000D01*
G01*
G37*
D13*
X202577700Y-113995200D03*
D14*
X202577700Y-111455200D03*
G36*
G01*
X153538600Y-115081500D02*
X152988600Y-115081500D01*
G75*
G02*
X152788600Y-114881500I0J200000D01*
G01*
X152788600Y-114481500D01*
G75*
G02*
X152988600Y-114281500I200000J0D01*
G01*
X153538600Y-114281500D01*
G75*
G02*
X153738600Y-114481500I0J-200000D01*
G01*
X153738600Y-114881500D01*
G75*
G02*
X153538600Y-115081500I-200000J0D01*
G01*
G37*
G36*
G01*
X153538600Y-116731500D02*
X152988600Y-116731500D01*
G75*
G02*
X152788600Y-116531500I0J200000D01*
G01*
X152788600Y-116131500D01*
G75*
G02*
X152988600Y-115931500I200000J0D01*
G01*
X153538600Y-115931500D01*
G75*
G02*
X153738600Y-116131500I0J-200000D01*
G01*
X153738600Y-116531500D01*
G75*
G02*
X153538600Y-116731500I-200000J0D01*
G01*
G37*
G36*
G01*
X151894250Y-115156500D02*
X151381750Y-115156500D01*
G75*
G02*
X151163000Y-114937750I0J218750D01*
G01*
X151163000Y-114500250D01*
G75*
G02*
X151381750Y-114281500I218750J0D01*
G01*
X151894250Y-114281500D01*
G75*
G02*
X152113000Y-114500250I0J-218750D01*
G01*
X152113000Y-114937750D01*
G75*
G02*
X151894250Y-115156500I-218750J0D01*
G01*
G37*
G36*
G01*
X151894250Y-116731500D02*
X151381750Y-116731500D01*
G75*
G02*
X151163000Y-116512750I0J218750D01*
G01*
X151163000Y-116075250D01*
G75*
G02*
X151381750Y-115856500I218750J0D01*
G01*
X151894250Y-115856500D01*
G75*
G02*
X152113000Y-116075250I0J-218750D01*
G01*
X152113000Y-116512750D01*
G75*
G02*
X151894250Y-116731500I-218750J0D01*
G01*
G37*
D18*
X133383200Y-109108200D03*
X133383200Y-111008200D03*
X131183200Y-111008200D03*
X131183200Y-110058200D03*
X131183200Y-109108200D03*
G36*
G01*
X128405700Y-112654200D02*
X127905700Y-112654200D01*
G75*
G02*
X127680700Y-112429200I0J225000D01*
G01*
X127680700Y-111979200D01*
G75*
G02*
X127905700Y-111754200I225000J0D01*
G01*
X128405700Y-111754200D01*
G75*
G02*
X128630700Y-111979200I0J-225000D01*
G01*
X128630700Y-112429200D01*
G75*
G02*
X128405700Y-112654200I-225000J0D01*
G01*
G37*
G36*
G01*
X128405700Y-114204200D02*
X127905700Y-114204200D01*
G75*
G02*
X127680700Y-113979200I0J225000D01*
G01*
X127680700Y-113529200D01*
G75*
G02*
X127905700Y-113304200I225000J0D01*
G01*
X128405700Y-113304200D01*
G75*
G02*
X128630700Y-113529200I0J-225000D01*
G01*
X128630700Y-113979200D01*
G75*
G02*
X128405700Y-114204200I-225000J0D01*
G01*
G37*
G36*
G01*
X115212150Y-70860400D02*
X115724650Y-70860400D01*
G75*
G02*
X115943400Y-71079150I0J-218750D01*
G01*
X115943400Y-71516650D01*
G75*
G02*
X115724650Y-71735400I-218750J0D01*
G01*
X115212150Y-71735400D01*
G75*
G02*
X114993400Y-71516650I0J218750D01*
G01*
X114993400Y-71079150D01*
G75*
G02*
X115212150Y-70860400I218750J0D01*
G01*
G37*
G36*
G01*
X115212150Y-69285400D02*
X115724650Y-69285400D01*
G75*
G02*
X115943400Y-69504150I0J-218750D01*
G01*
X115943400Y-69941650D01*
G75*
G02*
X115724650Y-70160400I-218750J0D01*
G01*
X115212150Y-70160400D01*
G75*
G02*
X114993400Y-69941650I0J218750D01*
G01*
X114993400Y-69504150D01*
G75*
G02*
X115212150Y-69285400I218750J0D01*
G01*
G37*
G36*
G01*
X116971400Y-112794600D02*
X117521400Y-112794600D01*
G75*
G02*
X117721400Y-112994600I0J-200000D01*
G01*
X117721400Y-113394600D01*
G75*
G02*
X117521400Y-113594600I-200000J0D01*
G01*
X116971400Y-113594600D01*
G75*
G02*
X116771400Y-113394600I0J200000D01*
G01*
X116771400Y-112994600D01*
G75*
G02*
X116971400Y-112794600I200000J0D01*
G01*
G37*
G36*
G01*
X116971400Y-111144600D02*
X117521400Y-111144600D01*
G75*
G02*
X117721400Y-111344600I0J-200000D01*
G01*
X117721400Y-111744600D01*
G75*
G02*
X117521400Y-111944600I-200000J0D01*
G01*
X116971400Y-111944600D01*
G75*
G02*
X116771400Y-111744600I0J200000D01*
G01*
X116771400Y-111344600D01*
G75*
G02*
X116971400Y-111144600I200000J0D01*
G01*
G37*
G36*
G01*
X115472800Y-112794600D02*
X116022800Y-112794600D01*
G75*
G02*
X116222800Y-112994600I0J-200000D01*
G01*
X116222800Y-113394600D01*
G75*
G02*
X116022800Y-113594600I-200000J0D01*
G01*
X115472800Y-113594600D01*
G75*
G02*
X115272800Y-113394600I0J200000D01*
G01*
X115272800Y-112994600D01*
G75*
G02*
X115472800Y-112794600I200000J0D01*
G01*
G37*
G36*
G01*
X115472800Y-111144600D02*
X116022800Y-111144600D01*
G75*
G02*
X116222800Y-111344600I0J-200000D01*
G01*
X116222800Y-111744600D01*
G75*
G02*
X116022800Y-111944600I-200000J0D01*
G01*
X115472800Y-111944600D01*
G75*
G02*
X115272800Y-111744600I0J200000D01*
G01*
X115272800Y-111344600D01*
G75*
G02*
X115472800Y-111144600I200000J0D01*
G01*
G37*
D19*
X111974400Y-111516200D03*
D20*
X113884400Y-112896200D03*
X113884400Y-113396200D03*
X113884400Y-113896200D03*
X113884400Y-114396200D03*
X113884400Y-114896200D03*
X113884400Y-115396200D03*
X113884400Y-115896200D03*
X113884400Y-118396200D03*
X113884400Y-117396200D03*
X113884400Y-116896200D03*
X113884400Y-116396200D03*
X113884400Y-117896200D03*
X112184400Y-118146200D03*
D19*
X111974400Y-119776200D03*
X106024400Y-120136200D03*
X106024400Y-111156200D03*
D21*
X113224400Y-119246200D03*
D22*
X113224400Y-112046200D03*
D20*
X112184400Y-117646200D03*
X112184400Y-117146200D03*
X112184400Y-116646200D03*
X112184400Y-116146200D03*
X112184400Y-115646200D03*
X112184400Y-115146200D03*
X112184400Y-114646200D03*
X112184400Y-114146200D03*
X112184400Y-113646200D03*
X112184400Y-113146200D03*
X112184400Y-112646200D03*
D23*
X122539000Y-112471200D03*
X120539000Y-113421200D03*
X120539000Y-111521200D03*
D24*
X114220400Y-72522800D03*
X114220400Y-76712800D03*
D25*
X109790400Y-69401800D03*
D26*
X112975400Y-69401800D03*
X113545400Y-80051800D03*
D27*
X110935400Y-80051800D03*
D28*
X109665400Y-80036800D03*
D29*
X106985400Y-70576800D03*
X106985400Y-71676800D03*
X106985400Y-72776800D03*
X106985400Y-73876800D03*
X106985400Y-74976800D03*
X106985400Y-76076800D03*
X106985400Y-77176800D03*
X106985400Y-78276800D03*
G36*
G01*
X109138600Y-81733200D02*
X109138600Y-81233200D01*
G75*
G02*
X109363600Y-81008200I225000J0D01*
G01*
X109813600Y-81008200D01*
G75*
G02*
X110038600Y-81233200I0J-225000D01*
G01*
X110038600Y-81733200D01*
G75*
G02*
X109813600Y-81958200I-225000J0D01*
G01*
X109363600Y-81958200D01*
G75*
G02*
X109138600Y-81733200I0J225000D01*
G01*
G37*
G36*
G01*
X107588600Y-81733200D02*
X107588600Y-81233200D01*
G75*
G02*
X107813600Y-81008200I225000J0D01*
G01*
X108263600Y-81008200D01*
G75*
G02*
X108488600Y-81233200I0J-225000D01*
G01*
X108488600Y-81733200D01*
G75*
G02*
X108263600Y-81958200I-225000J0D01*
G01*
X107813600Y-81958200D01*
G75*
G02*
X107588600Y-81733200I0J225000D01*
G01*
G37*
D30*
X105708600Y-106960000D03*
D31*
X105708600Y-104260000D03*
D32*
X105708600Y-108785000D03*
X105708600Y-102035000D03*
D33*
X108283600Y-107897500D03*
X108283600Y-102922500D03*
D34*
X108368600Y-106710000D03*
X108368600Y-106060000D03*
X108368600Y-105410000D03*
X108368600Y-104760000D03*
X108368600Y-104110000D03*
G36*
G01*
X145563000Y-88068600D02*
X145013000Y-88068600D01*
G75*
G02*
X144813000Y-87868600I0J200000D01*
G01*
X144813000Y-87468600D01*
G75*
G02*
X145013000Y-87268600I200000J0D01*
G01*
X145563000Y-87268600D01*
G75*
G02*
X145763000Y-87468600I0J-200000D01*
G01*
X145763000Y-87868600D01*
G75*
G02*
X145563000Y-88068600I-200000J0D01*
G01*
G37*
G36*
G01*
X145563000Y-89718600D02*
X145013000Y-89718600D01*
G75*
G02*
X144813000Y-89518600I0J200000D01*
G01*
X144813000Y-89118600D01*
G75*
G02*
X145013000Y-88918600I200000J0D01*
G01*
X145563000Y-88918600D01*
G75*
G02*
X145763000Y-89118600I0J-200000D01*
G01*
X145763000Y-89518600D01*
G75*
G02*
X145563000Y-89718600I-200000J0D01*
G01*
G37*
D35*
X137497500Y-93218000D03*
X139997500Y-93218000D03*
D36*
X180700680Y-109361920D03*
X180700680Y-111861920D03*
X168762680Y-107127360D03*
X168762680Y-104627360D03*
D37*
X128148400Y-116483600D03*
D38*
X126898400Y-118973600D03*
X122398400Y-118973600D03*
D37*
X121138400Y-116483600D03*
G36*
G01*
X115193400Y-76371000D02*
X115743400Y-76371000D01*
G75*
G02*
X115943400Y-76571000I0J-200000D01*
G01*
X115943400Y-76971000D01*
G75*
G02*
X115743400Y-77171000I-200000J0D01*
G01*
X115193400Y-77171000D01*
G75*
G02*
X114993400Y-76971000I0J200000D01*
G01*
X114993400Y-76571000D01*
G75*
G02*
X115193400Y-76371000I200000J0D01*
G01*
G37*
G36*
G01*
X115193400Y-74721000D02*
X115743400Y-74721000D01*
G75*
G02*
X115943400Y-74921000I0J-200000D01*
G01*
X115943400Y-75321000D01*
G75*
G02*
X115743400Y-75521000I-200000J0D01*
G01*
X115193400Y-75521000D01*
G75*
G02*
X114993400Y-75321000I0J200000D01*
G01*
X114993400Y-74921000D01*
G75*
G02*
X115193400Y-74721000I200000J0D01*
G01*
G37*
G36*
G01*
X136900600Y-90728900D02*
X136900600Y-90728900D01*
G75*
G02*
X136750600Y-90578900I0J150000D01*
G01*
X136750600Y-90028900D01*
G75*
G02*
X136900600Y-89878900I150000J0D01*
G01*
X136900600Y-89878900D01*
G75*
G02*
X137050600Y-90028900I0J-150000D01*
G01*
X137050600Y-90578900D01*
G75*
G02*
X136900600Y-90728900I-150000J0D01*
G01*
G37*
G36*
G01*
X137400600Y-90728900D02*
X137400600Y-90728900D01*
G75*
G02*
X137250600Y-90578900I0J150000D01*
G01*
X137250600Y-90028900D01*
G75*
G02*
X137400600Y-89878900I150000J0D01*
G01*
X137400600Y-89878900D01*
G75*
G02*
X137550600Y-90028900I0J-150000D01*
G01*
X137550600Y-90578900D01*
G75*
G02*
X137400600Y-90728900I-150000J0D01*
G01*
G37*
G36*
G01*
X137900600Y-90728900D02*
X137900600Y-90728900D01*
G75*
G02*
X137750600Y-90578900I0J150000D01*
G01*
X137750600Y-90028900D01*
G75*
G02*
X137900600Y-89878900I150000J0D01*
G01*
X137900600Y-89878900D01*
G75*
G02*
X138050600Y-90028900I0J-150000D01*
G01*
X138050600Y-90578900D01*
G75*
G02*
X137900600Y-90728900I-150000J0D01*
G01*
G37*
G36*
G01*
X138400600Y-90728900D02*
X138400600Y-90728900D01*
G75*
G02*
X138250600Y-90578900I0J150000D01*
G01*
X138250600Y-90028900D01*
G75*
G02*
X138400600Y-89878900I150000J0D01*
G01*
X138400600Y-89878900D01*
G75*
G02*
X138550600Y-90028900I0J-150000D01*
G01*
X138550600Y-90578900D01*
G75*
G02*
X138400600Y-90728900I-150000J0D01*
G01*
G37*
G36*
G01*
X138900600Y-90728900D02*
X138900600Y-90728900D01*
G75*
G02*
X138750600Y-90578900I0J150000D01*
G01*
X138750600Y-90028900D01*
G75*
G02*
X138900600Y-89878900I150000J0D01*
G01*
X138900600Y-89878900D01*
G75*
G02*
X139050600Y-90028900I0J-150000D01*
G01*
X139050600Y-90578900D01*
G75*
G02*
X138900600Y-90728900I-150000J0D01*
G01*
G37*
G36*
G01*
X139400600Y-90728900D02*
X139400600Y-90728900D01*
G75*
G02*
X139250600Y-90578900I0J150000D01*
G01*
X139250600Y-90028900D01*
G75*
G02*
X139400600Y-89878900I150000J0D01*
G01*
X139400600Y-89878900D01*
G75*
G02*
X139550600Y-90028900I0J-150000D01*
G01*
X139550600Y-90578900D01*
G75*
G02*
X139400600Y-90728900I-150000J0D01*
G01*
G37*
G36*
G01*
X140375600Y-89753900D02*
X139825600Y-89753900D01*
G75*
G02*
X139675600Y-89603900I0J150000D01*
G01*
X139675600Y-89603900D01*
G75*
G02*
X139825600Y-89453900I150000J0D01*
G01*
X140375600Y-89453900D01*
G75*
G02*
X140525600Y-89603900I0J-150000D01*
G01*
X140525600Y-89603900D01*
G75*
G02*
X140375600Y-89753900I-150000J0D01*
G01*
G37*
G36*
G01*
X140375600Y-89253900D02*
X139825600Y-89253900D01*
G75*
G02*
X139675600Y-89103900I0J150000D01*
G01*
X139675600Y-89103900D01*
G75*
G02*
X139825600Y-88953900I150000J0D01*
G01*
X140375600Y-88953900D01*
G75*
G02*
X140525600Y-89103900I0J-150000D01*
G01*
X140525600Y-89103900D01*
G75*
G02*
X140375600Y-89253900I-150000J0D01*
G01*
G37*
G36*
G01*
X140375600Y-88753900D02*
X139825600Y-88753900D01*
G75*
G02*
X139675600Y-88603900I0J150000D01*
G01*
X139675600Y-88603900D01*
G75*
G02*
X139825600Y-88453900I150000J0D01*
G01*
X140375600Y-88453900D01*
G75*
G02*
X140525600Y-88603900I0J-150000D01*
G01*
X140525600Y-88603900D01*
G75*
G02*
X140375600Y-88753900I-150000J0D01*
G01*
G37*
G36*
G01*
X140375600Y-88253900D02*
X139825600Y-88253900D01*
G75*
G02*
X139675600Y-88103900I0J150000D01*
G01*
X139675600Y-88103900D01*
G75*
G02*
X139825600Y-87953900I150000J0D01*
G01*
X140375600Y-87953900D01*
G75*
G02*
X140525600Y-88103900I0J-150000D01*
G01*
X140525600Y-88103900D01*
G75*
G02*
X140375600Y-88253900I-150000J0D01*
G01*
G37*
G36*
G01*
X140375600Y-87753900D02*
X139825600Y-87753900D01*
G75*
G02*
X139675600Y-87603900I0J150000D01*
G01*
X139675600Y-87603900D01*
G75*
G02*
X139825600Y-87453900I150000J0D01*
G01*
X140375600Y-87453900D01*
G75*
G02*
X140525600Y-87603900I0J-150000D01*
G01*
X140525600Y-87603900D01*
G75*
G02*
X140375600Y-87753900I-150000J0D01*
G01*
G37*
G36*
G01*
X140375600Y-87253900D02*
X139825600Y-87253900D01*
G75*
G02*
X139675600Y-87103900I0J150000D01*
G01*
X139675600Y-87103900D01*
G75*
G02*
X139825600Y-86953900I150000J0D01*
G01*
X140375600Y-86953900D01*
G75*
G02*
X140525600Y-87103900I0J-150000D01*
G01*
X140525600Y-87103900D01*
G75*
G02*
X140375600Y-87253900I-150000J0D01*
G01*
G37*
G36*
G01*
X139400600Y-86828900D02*
X139400600Y-86828900D01*
G75*
G02*
X139250600Y-86678900I0J150000D01*
G01*
X139250600Y-86128900D01*
G75*
G02*
X139400600Y-85978900I150000J0D01*
G01*
X139400600Y-85978900D01*
G75*
G02*
X139550600Y-86128900I0J-150000D01*
G01*
X139550600Y-86678900D01*
G75*
G02*
X139400600Y-86828900I-150000J0D01*
G01*
G37*
G36*
G01*
X138900600Y-86828900D02*
X138900600Y-86828900D01*
G75*
G02*
X138750600Y-86678900I0J150000D01*
G01*
X138750600Y-86128900D01*
G75*
G02*
X138900600Y-85978900I150000J0D01*
G01*
X138900600Y-85978900D01*
G75*
G02*
X139050600Y-86128900I0J-150000D01*
G01*
X139050600Y-86678900D01*
G75*
G02*
X138900600Y-86828900I-150000J0D01*
G01*
G37*
G36*
G01*
X138400600Y-86828900D02*
X138400600Y-86828900D01*
G75*
G02*
X138250600Y-86678900I0J150000D01*
G01*
X138250600Y-86128900D01*
G75*
G02*
X138400600Y-85978900I150000J0D01*
G01*
X138400600Y-85978900D01*
G75*
G02*
X138550600Y-86128900I0J-150000D01*
G01*
X138550600Y-86678900D01*
G75*
G02*
X138400600Y-86828900I-150000J0D01*
G01*
G37*
G36*
G01*
X137900600Y-86828900D02*
X137900600Y-86828900D01*
G75*
G02*
X137750600Y-86678900I0J150000D01*
G01*
X137750600Y-86128900D01*
G75*
G02*
X137900600Y-85978900I150000J0D01*
G01*
X137900600Y-85978900D01*
G75*
G02*
X138050600Y-86128900I0J-150000D01*
G01*
X138050600Y-86678900D01*
G75*
G02*
X137900600Y-86828900I-150000J0D01*
G01*
G37*
G36*
G01*
X137400600Y-86828900D02*
X137400600Y-86828900D01*
G75*
G02*
X137250600Y-86678900I0J150000D01*
G01*
X137250600Y-86128900D01*
G75*
G02*
X137400600Y-85978900I150000J0D01*
G01*
X137400600Y-85978900D01*
G75*
G02*
X137550600Y-86128900I0J-150000D01*
G01*
X137550600Y-86678900D01*
G75*
G02*
X137400600Y-86828900I-150000J0D01*
G01*
G37*
G36*
G01*
X136900600Y-86828900D02*
X136900600Y-86828900D01*
G75*
G02*
X136750600Y-86678900I0J150000D01*
G01*
X136750600Y-86128900D01*
G75*
G02*
X136900600Y-85978900I150000J0D01*
G01*
X136900600Y-85978900D01*
G75*
G02*
X137050600Y-86128900I0J-150000D01*
G01*
X137050600Y-86678900D01*
G75*
G02*
X136900600Y-86828900I-150000J0D01*
G01*
G37*
G36*
G01*
X136475600Y-87253900D02*
X135925600Y-87253900D01*
G75*
G02*
X135775600Y-87103900I0J150000D01*
G01*
X135775600Y-87103900D01*
G75*
G02*
X135925600Y-86953900I150000J0D01*
G01*
X136475600Y-86953900D01*
G75*
G02*
X136625600Y-87103900I0J-150000D01*
G01*
X136625600Y-87103900D01*
G75*
G02*
X136475600Y-87253900I-150000J0D01*
G01*
G37*
G36*
G01*
X136475600Y-87753900D02*
X135925600Y-87753900D01*
G75*
G02*
X135775600Y-87603900I0J150000D01*
G01*
X135775600Y-87603900D01*
G75*
G02*
X135925600Y-87453900I150000J0D01*
G01*
X136475600Y-87453900D01*
G75*
G02*
X136625600Y-87603900I0J-150000D01*
G01*
X136625600Y-87603900D01*
G75*
G02*
X136475600Y-87753900I-150000J0D01*
G01*
G37*
G36*
G01*
X136475600Y-88253900D02*
X135925600Y-88253900D01*
G75*
G02*
X135775600Y-88103900I0J150000D01*
G01*
X135775600Y-88103900D01*
G75*
G02*
X135925600Y-87953900I150000J0D01*
G01*
X136475600Y-87953900D01*
G75*
G02*
X136625600Y-88103900I0J-150000D01*
G01*
X136625600Y-88103900D01*
G75*
G02*
X136475600Y-88253900I-150000J0D01*
G01*
G37*
G36*
G01*
X136475600Y-88753900D02*
X135925600Y-88753900D01*
G75*
G02*
X135775600Y-88603900I0J150000D01*
G01*
X135775600Y-88603900D01*
G75*
G02*
X135925600Y-88453900I150000J0D01*
G01*
X136475600Y-88453900D01*
G75*
G02*
X136625600Y-88603900I0J-150000D01*
G01*
X136625600Y-88603900D01*
G75*
G02*
X136475600Y-88753900I-150000J0D01*
G01*
G37*
G36*
G01*
X136475600Y-89253900D02*
X135925600Y-89253900D01*
G75*
G02*
X135775600Y-89103900I0J150000D01*
G01*
X135775600Y-89103900D01*
G75*
G02*
X135925600Y-88953900I150000J0D01*
G01*
X136475600Y-88953900D01*
G75*
G02*
X136625600Y-89103900I0J-150000D01*
G01*
X136625600Y-89103900D01*
G75*
G02*
X136475600Y-89253900I-150000J0D01*
G01*
G37*
G36*
G01*
X136475600Y-89753900D02*
X135925600Y-89753900D01*
G75*
G02*
X135775600Y-89603900I0J150000D01*
G01*
X135775600Y-89603900D01*
G75*
G02*
X135925600Y-89453900I150000J0D01*
G01*
X136475600Y-89453900D01*
G75*
G02*
X136625600Y-89603900I0J-150000D01*
G01*
X136625600Y-89603900D01*
G75*
G02*
X136475600Y-89753900I-150000J0D01*
G01*
G37*
D39*
X138150600Y-88353900D03*
D37*
X119916400Y-82561100D03*
X118516400Y-98871100D03*
D40*
X125246400Y-85636100D03*
X127786400Y-86652100D03*
X125246400Y-87668100D03*
X127786400Y-88684100D03*
X125246400Y-89700100D03*
D41*
X111276400Y-97741100D03*
X108736400Y-97741100D03*
X111276400Y-83691100D03*
X108736400Y-83691100D03*
D42*
X116616400Y-82561100D03*
X114198400Y-98871100D03*
D40*
X127786400Y-84620100D03*
D42*
X124236400Y-82561100D03*
X121816400Y-98871100D03*
G36*
G01*
X130943800Y-94797200D02*
X130943800Y-95347200D01*
G75*
G02*
X130743800Y-95547200I-200000J0D01*
G01*
X130343800Y-95547200D01*
G75*
G02*
X130143800Y-95347200I0J200000D01*
G01*
X130143800Y-94797200D01*
G75*
G02*
X130343800Y-94597200I200000J0D01*
G01*
X130743800Y-94597200D01*
G75*
G02*
X130943800Y-94797200I0J-200000D01*
G01*
G37*
G36*
G01*
X132593800Y-94797200D02*
X132593800Y-95347200D01*
G75*
G02*
X132393800Y-95547200I-200000J0D01*
G01*
X131993800Y-95547200D01*
G75*
G02*
X131793800Y-95347200I0J200000D01*
G01*
X131793800Y-94797200D01*
G75*
G02*
X131993800Y-94597200I200000J0D01*
G01*
X132393800Y-94597200D01*
G75*
G02*
X132593800Y-94797200I0J-200000D01*
G01*
G37*
G36*
G01*
X130943800Y-97870600D02*
X130943800Y-98420600D01*
G75*
G02*
X130743800Y-98620600I-200000J0D01*
G01*
X130343800Y-98620600D01*
G75*
G02*
X130143800Y-98420600I0J200000D01*
G01*
X130143800Y-97870600D01*
G75*
G02*
X130343800Y-97670600I200000J0D01*
G01*
X130743800Y-97670600D01*
G75*
G02*
X130943800Y-97870600I0J-200000D01*
G01*
G37*
G36*
G01*
X132593800Y-97870600D02*
X132593800Y-98420600D01*
G75*
G02*
X132393800Y-98620600I-200000J0D01*
G01*
X131993800Y-98620600D01*
G75*
G02*
X131793800Y-98420600I0J200000D01*
G01*
X131793800Y-97870600D01*
G75*
G02*
X131993800Y-97670600I200000J0D01*
G01*
X132393800Y-97670600D01*
G75*
G02*
X132593800Y-97870600I0J-200000D01*
G01*
G37*
G36*
G01*
X130943800Y-96397400D02*
X130943800Y-96947400D01*
G75*
G02*
X130743800Y-97147400I-200000J0D01*
G01*
X130343800Y-97147400D01*
G75*
G02*
X130143800Y-96947400I0J200000D01*
G01*
X130143800Y-96397400D01*
G75*
G02*
X130343800Y-96197400I200000J0D01*
G01*
X130743800Y-96197400D01*
G75*
G02*
X130943800Y-96397400I0J-200000D01*
G01*
G37*
G36*
G01*
X132593800Y-96397400D02*
X132593800Y-96947400D01*
G75*
G02*
X132393800Y-97147400I-200000J0D01*
G01*
X131993800Y-97147400D01*
G75*
G02*
X131793800Y-96947400I0J200000D01*
G01*
X131793800Y-96397400D01*
G75*
G02*
X131993800Y-96197400I200000J0D01*
G01*
X132393800Y-96197400D01*
G75*
G02*
X132593800Y-96397400I0J-200000D01*
G01*
G37*
G36*
G01*
X132174800Y-89708400D02*
X132174800Y-89158400D01*
G75*
G02*
X132374800Y-88958400I200000J0D01*
G01*
X132774800Y-88958400D01*
G75*
G02*
X132974800Y-89158400I0J-200000D01*
G01*
X132974800Y-89708400D01*
G75*
G02*
X132774800Y-89908400I-200000J0D01*
G01*
X132374800Y-89908400D01*
G75*
G02*
X132174800Y-89708400I0J200000D01*
G01*
G37*
G36*
G01*
X130524800Y-89708400D02*
X130524800Y-89158400D01*
G75*
G02*
X130724800Y-88958400I200000J0D01*
G01*
X131124800Y-88958400D01*
G75*
G02*
X131324800Y-89158400I0J-200000D01*
G01*
X131324800Y-89708400D01*
G75*
G02*
X131124800Y-89908400I-200000J0D01*
G01*
X130724800Y-89908400D01*
G75*
G02*
X130524800Y-89708400I0J200000D01*
G01*
G37*
G36*
G01*
X132098600Y-91689600D02*
X132098600Y-91139600D01*
G75*
G02*
X132298600Y-90939600I200000J0D01*
G01*
X132698600Y-90939600D01*
G75*
G02*
X132898600Y-91139600I0J-200000D01*
G01*
X132898600Y-91689600D01*
G75*
G02*
X132698600Y-91889600I-200000J0D01*
G01*
X132298600Y-91889600D01*
G75*
G02*
X132098600Y-91689600I0J200000D01*
G01*
G37*
G36*
G01*
X130448600Y-91689600D02*
X130448600Y-91139600D01*
G75*
G02*
X130648600Y-90939600I200000J0D01*
G01*
X131048600Y-90939600D01*
G75*
G02*
X131248600Y-91139600I0J-200000D01*
G01*
X131248600Y-91689600D01*
G75*
G02*
X131048600Y-91889600I-200000J0D01*
G01*
X130648600Y-91889600D01*
G75*
G02*
X130448600Y-91689600I0J200000D01*
G01*
G37*
G36*
G01*
X132174800Y-82799600D02*
X132174800Y-82249600D01*
G75*
G02*
X132374800Y-82049600I200000J0D01*
G01*
X132774800Y-82049600D01*
G75*
G02*
X132974800Y-82249600I0J-200000D01*
G01*
X132974800Y-82799600D01*
G75*
G02*
X132774800Y-82999600I-200000J0D01*
G01*
X132374800Y-82999600D01*
G75*
G02*
X132174800Y-82799600I0J200000D01*
G01*
G37*
G36*
G01*
X130524800Y-82799600D02*
X130524800Y-82249600D01*
G75*
G02*
X130724800Y-82049600I200000J0D01*
G01*
X131124800Y-82049600D01*
G75*
G02*
X131324800Y-82249600I0J-200000D01*
G01*
X131324800Y-82799600D01*
G75*
G02*
X131124800Y-82999600I-200000J0D01*
G01*
X130724800Y-82999600D01*
G75*
G02*
X130524800Y-82799600I0J200000D01*
G01*
G37*
G36*
G01*
X133875100Y-93223900D02*
X134425100Y-93223900D01*
G75*
G02*
X134625100Y-93423900I0J-200000D01*
G01*
X134625100Y-93823900D01*
G75*
G02*
X134425100Y-94023900I-200000J0D01*
G01*
X133875100Y-94023900D01*
G75*
G02*
X133675100Y-93823900I0J200000D01*
G01*
X133675100Y-93423900D01*
G75*
G02*
X133875100Y-93223900I200000J0D01*
G01*
G37*
G36*
G01*
X133875100Y-91573900D02*
X134425100Y-91573900D01*
G75*
G02*
X134625100Y-91773900I0J-200000D01*
G01*
X134625100Y-92173900D01*
G75*
G02*
X134425100Y-92373900I-200000J0D01*
G01*
X133875100Y-92373900D01*
G75*
G02*
X133675100Y-92173900I0J200000D01*
G01*
X133675100Y-91773900D01*
G75*
G02*
X133875100Y-91573900I200000J0D01*
G01*
G37*
G36*
G01*
X132174800Y-84780800D02*
X132174800Y-84230800D01*
G75*
G02*
X132374800Y-84030800I200000J0D01*
G01*
X132774800Y-84030800D01*
G75*
G02*
X132974800Y-84230800I0J-200000D01*
G01*
X132974800Y-84780800D01*
G75*
G02*
X132774800Y-84980800I-200000J0D01*
G01*
X132374800Y-84980800D01*
G75*
G02*
X132174800Y-84780800I0J200000D01*
G01*
G37*
G36*
G01*
X130524800Y-84780800D02*
X130524800Y-84230800D01*
G75*
G02*
X130724800Y-84030800I200000J0D01*
G01*
X131124800Y-84030800D01*
G75*
G02*
X131324800Y-84230800I0J-200000D01*
G01*
X131324800Y-84780800D01*
G75*
G02*
X131124800Y-84980800I-200000J0D01*
G01*
X130724800Y-84980800D01*
G75*
G02*
X130524800Y-84780800I0J200000D01*
G01*
G37*
G36*
G01*
X139138950Y-83877900D02*
X139651450Y-83877900D01*
G75*
G02*
X139870200Y-84096650I0J-218750D01*
G01*
X139870200Y-84534150D01*
G75*
G02*
X139651450Y-84752900I-218750J0D01*
G01*
X139138950Y-84752900D01*
G75*
G02*
X138920200Y-84534150I0J218750D01*
G01*
X138920200Y-84096650D01*
G75*
G02*
X139138950Y-83877900I218750J0D01*
G01*
G37*
G36*
G01*
X139138950Y-82302900D02*
X139651450Y-82302900D01*
G75*
G02*
X139870200Y-82521650I0J-218750D01*
G01*
X139870200Y-82959150D01*
G75*
G02*
X139651450Y-83177900I-218750J0D01*
G01*
X139138950Y-83177900D01*
G75*
G02*
X138920200Y-82959150I0J218750D01*
G01*
X138920200Y-82521650D01*
G75*
G02*
X139138950Y-82302900I218750J0D01*
G01*
G37*
G36*
G01*
X132074800Y-86419500D02*
X132074800Y-85919500D01*
G75*
G02*
X132299800Y-85694500I225000J0D01*
G01*
X132749800Y-85694500D01*
G75*
G02*
X132974800Y-85919500I0J-225000D01*
G01*
X132974800Y-86419500D01*
G75*
G02*
X132749800Y-86644500I-225000J0D01*
G01*
X132299800Y-86644500D01*
G75*
G02*
X132074800Y-86419500I0J225000D01*
G01*
G37*
G36*
G01*
X130524800Y-86419500D02*
X130524800Y-85919500D01*
G75*
G02*
X130749800Y-85694500I225000J0D01*
G01*
X131199800Y-85694500D01*
G75*
G02*
X131424800Y-85919500I0J-225000D01*
G01*
X131424800Y-86419500D01*
G75*
G02*
X131199800Y-86644500I-225000J0D01*
G01*
X130749800Y-86644500D01*
G75*
G02*
X130524800Y-86419500I0J225000D01*
G01*
G37*
G36*
G01*
X132074800Y-87943500D02*
X132074800Y-87443500D01*
G75*
G02*
X132299800Y-87218500I225000J0D01*
G01*
X132749800Y-87218500D01*
G75*
G02*
X132974800Y-87443500I0J-225000D01*
G01*
X132974800Y-87943500D01*
G75*
G02*
X132749800Y-88168500I-225000J0D01*
G01*
X132299800Y-88168500D01*
G75*
G02*
X132074800Y-87943500I0J225000D01*
G01*
G37*
G36*
G01*
X130524800Y-87943500D02*
X130524800Y-87443500D01*
G75*
G02*
X130749800Y-87218500I225000J0D01*
G01*
X131199800Y-87218500D01*
G75*
G02*
X131424800Y-87443500I0J-225000D01*
G01*
X131424800Y-87943500D01*
G75*
G02*
X131199800Y-88168500I-225000J0D01*
G01*
X130749800Y-88168500D01*
G75*
G02*
X130524800Y-87943500I0J225000D01*
G01*
G37*
G36*
G01*
X136597200Y-83202900D02*
X136097200Y-83202900D01*
G75*
G02*
X135872200Y-82977900I0J225000D01*
G01*
X135872200Y-82527900D01*
G75*
G02*
X136097200Y-82302900I225000J0D01*
G01*
X136597200Y-82302900D01*
G75*
G02*
X136822200Y-82527900I0J-225000D01*
G01*
X136822200Y-82977900D01*
G75*
G02*
X136597200Y-83202900I-225000J0D01*
G01*
G37*
G36*
G01*
X136597200Y-84752900D02*
X136097200Y-84752900D01*
G75*
G02*
X135872200Y-84527900I0J225000D01*
G01*
X135872200Y-84077900D01*
G75*
G02*
X136097200Y-83852900I225000J0D01*
G01*
X136597200Y-83852900D01*
G75*
G02*
X136822200Y-84077900I0J-225000D01*
G01*
X136822200Y-84527900D01*
G75*
G02*
X136597200Y-84752900I-225000J0D01*
G01*
G37*
G36*
G01*
X135449500Y-93123900D02*
X135949500Y-93123900D01*
G75*
G02*
X136174500Y-93348900I0J-225000D01*
G01*
X136174500Y-93798900D01*
G75*
G02*
X135949500Y-94023900I-225000J0D01*
G01*
X135449500Y-94023900D01*
G75*
G02*
X135224500Y-93798900I0J225000D01*
G01*
X135224500Y-93348900D01*
G75*
G02*
X135449500Y-93123900I225000J0D01*
G01*
G37*
G36*
G01*
X135449500Y-91573900D02*
X135949500Y-91573900D01*
G75*
G02*
X136174500Y-91798900I0J-225000D01*
G01*
X136174500Y-92248900D01*
G75*
G02*
X135949500Y-92473900I-225000J0D01*
G01*
X135449500Y-92473900D01*
G75*
G02*
X135224500Y-92248900I0J225000D01*
G01*
X135224500Y-91798900D01*
G75*
G02*
X135449500Y-91573900I225000J0D01*
G01*
G37*
G36*
G01*
X142828200Y-93860500D02*
X143328200Y-93860500D01*
G75*
G02*
X143553200Y-94085500I0J-225000D01*
G01*
X143553200Y-94535500D01*
G75*
G02*
X143328200Y-94760500I-225000J0D01*
G01*
X142828200Y-94760500D01*
G75*
G02*
X142603200Y-94535500I0J225000D01*
G01*
X142603200Y-94085500D01*
G75*
G02*
X142828200Y-93860500I225000J0D01*
G01*
G37*
G36*
G01*
X142828200Y-92310500D02*
X143328200Y-92310500D01*
G75*
G02*
X143553200Y-92535500I0J-225000D01*
G01*
X143553200Y-92985500D01*
G75*
G02*
X143328200Y-93210500I-225000J0D01*
G01*
X142828200Y-93210500D01*
G75*
G02*
X142603200Y-92985500I0J225000D01*
G01*
X142603200Y-92535500D01*
G75*
G02*
X142828200Y-92310500I225000J0D01*
G01*
G37*
G36*
G01*
X138121200Y-83202900D02*
X137621200Y-83202900D01*
G75*
G02*
X137396200Y-82977900I0J225000D01*
G01*
X137396200Y-82527900D01*
G75*
G02*
X137621200Y-82302900I225000J0D01*
G01*
X138121200Y-82302900D01*
G75*
G02*
X138346200Y-82527900I0J-225000D01*
G01*
X138346200Y-82977900D01*
G75*
G02*
X138121200Y-83202900I-225000J0D01*
G01*
G37*
G36*
G01*
X138121200Y-84752900D02*
X137621200Y-84752900D01*
G75*
G02*
X137396200Y-84527900I0J225000D01*
G01*
X137396200Y-84077900D01*
G75*
G02*
X137621200Y-83852900I225000J0D01*
G01*
X138121200Y-83852900D01*
G75*
G02*
X138346200Y-84077900I0J-225000D01*
G01*
X138346200Y-84527900D01*
G75*
G02*
X138121200Y-84752900I-225000J0D01*
G01*
G37*
G36*
G01*
X141266100Y-93860500D02*
X141766100Y-93860500D01*
G75*
G02*
X141991100Y-94085500I0J-225000D01*
G01*
X141991100Y-94535500D01*
G75*
G02*
X141766100Y-94760500I-225000J0D01*
G01*
X141266100Y-94760500D01*
G75*
G02*
X141041100Y-94535500I0J225000D01*
G01*
X141041100Y-94085500D01*
G75*
G02*
X141266100Y-93860500I225000J0D01*
G01*
G37*
G36*
G01*
X141266100Y-92310500D02*
X141766100Y-92310500D01*
G75*
G02*
X141991100Y-92535500I0J-225000D01*
G01*
X141991100Y-92985500D01*
G75*
G02*
X141766100Y-93210500I-225000J0D01*
G01*
X141266100Y-93210500D01*
G75*
G02*
X141041100Y-92985500I0J225000D01*
G01*
X141041100Y-92535500D01*
G75*
G02*
X141266100Y-92310500I225000J0D01*
G01*
G37*
G36*
G01*
X143327000Y-88045100D02*
X143327000Y-87545100D01*
G75*
G02*
X143552000Y-87320100I225000J0D01*
G01*
X144002000Y-87320100D01*
G75*
G02*
X144227000Y-87545100I0J-225000D01*
G01*
X144227000Y-88045100D01*
G75*
G02*
X144002000Y-88270100I-225000J0D01*
G01*
X143552000Y-88270100D01*
G75*
G02*
X143327000Y-88045100I0J225000D01*
G01*
G37*
G36*
G01*
X141777000Y-88045100D02*
X141777000Y-87545100D01*
G75*
G02*
X142002000Y-87320100I225000J0D01*
G01*
X142452000Y-87320100D01*
G75*
G02*
X142677000Y-87545100I0J-225000D01*
G01*
X142677000Y-88045100D01*
G75*
G02*
X142452000Y-88270100I-225000J0D01*
G01*
X142002000Y-88270100D01*
G75*
G02*
X141777000Y-88045100I0J225000D01*
G01*
G37*
G36*
G01*
X143327000Y-89569100D02*
X143327000Y-89069100D01*
G75*
G02*
X143552000Y-88844100I225000J0D01*
G01*
X144002000Y-88844100D01*
G75*
G02*
X144227000Y-89069100I0J-225000D01*
G01*
X144227000Y-89569100D01*
G75*
G02*
X144002000Y-89794100I-225000J0D01*
G01*
X143552000Y-89794100D01*
G75*
G02*
X143327000Y-89569100I0J225000D01*
G01*
G37*
G36*
G01*
X141777000Y-89569100D02*
X141777000Y-89069100D01*
G75*
G02*
X142002000Y-88844100I225000J0D01*
G01*
X142452000Y-88844100D01*
G75*
G02*
X142677000Y-89069100I0J-225000D01*
G01*
X142677000Y-89569100D01*
G75*
G02*
X142452000Y-89794100I-225000J0D01*
G01*
X142002000Y-89794100D01*
G75*
G02*
X141777000Y-89569100I0J225000D01*
G01*
G37*
G36*
G01*
X137740200Y-95585400D02*
X137240200Y-95585400D01*
G75*
G02*
X137015200Y-95360400I0J225000D01*
G01*
X137015200Y-94910400D01*
G75*
G02*
X137240200Y-94685400I225000J0D01*
G01*
X137740200Y-94685400D01*
G75*
G02*
X137965200Y-94910400I0J-225000D01*
G01*
X137965200Y-95360400D01*
G75*
G02*
X137740200Y-95585400I-225000J0D01*
G01*
G37*
G36*
G01*
X137740200Y-97135400D02*
X137240200Y-97135400D01*
G75*
G02*
X137015200Y-96910400I0J225000D01*
G01*
X137015200Y-96460400D01*
G75*
G02*
X137240200Y-96235400I225000J0D01*
G01*
X137740200Y-96235400D01*
G75*
G02*
X137965200Y-96460400I0J-225000D01*
G01*
X137965200Y-96910400D01*
G75*
G02*
X137740200Y-97135400I-225000J0D01*
G01*
G37*
G36*
G01*
X140280200Y-95585400D02*
X139780200Y-95585400D01*
G75*
G02*
X139555200Y-95360400I0J225000D01*
G01*
X139555200Y-94910400D01*
G75*
G02*
X139780200Y-94685400I225000J0D01*
G01*
X140280200Y-94685400D01*
G75*
G02*
X140505200Y-94910400I0J-225000D01*
G01*
X140505200Y-95360400D01*
G75*
G02*
X140280200Y-95585400I-225000J0D01*
G01*
G37*
G36*
G01*
X140280200Y-97135400D02*
X139780200Y-97135400D01*
G75*
G02*
X139555200Y-96910400I0J225000D01*
G01*
X139555200Y-96460400D01*
G75*
G02*
X139780200Y-96235400I225000J0D01*
G01*
X140280200Y-96235400D01*
G75*
G02*
X140505200Y-96460400I0J-225000D01*
G01*
X140505200Y-96910400D01*
G75*
G02*
X140280200Y-97135400I-225000J0D01*
G01*
G37*
D18*
X133383200Y-105450600D03*
X133383200Y-107350600D03*
X131183200Y-107350600D03*
X131183200Y-106400600D03*
X131183200Y-105450600D03*
G36*
G01*
X117305800Y-108031800D02*
X117305800Y-108231800D01*
G75*
G02*
X117205800Y-108331800I-100000J0D01*
G01*
X115930800Y-108331800D01*
G75*
G02*
X115830800Y-108231800I0J100000D01*
G01*
X115830800Y-108031800D01*
G75*
G02*
X115930800Y-107931800I100000J0D01*
G01*
X117205800Y-107931800D01*
G75*
G02*
X117305800Y-108031800I0J-100000D01*
G01*
G37*
G36*
G01*
X117305800Y-107381800D02*
X117305800Y-107581800D01*
G75*
G02*
X117205800Y-107681800I-100000J0D01*
G01*
X115930800Y-107681800D01*
G75*
G02*
X115830800Y-107581800I0J100000D01*
G01*
X115830800Y-107381800D01*
G75*
G02*
X115930800Y-107281800I100000J0D01*
G01*
X117205800Y-107281800D01*
G75*
G02*
X117305800Y-107381800I0J-100000D01*
G01*
G37*
G36*
G01*
X117305800Y-106731800D02*
X117305800Y-106931800D01*
G75*
G02*
X117205800Y-107031800I-100000J0D01*
G01*
X115930800Y-107031800D01*
G75*
G02*
X115830800Y-106931800I0J100000D01*
G01*
X115830800Y-106731800D01*
G75*
G02*
X115930800Y-106631800I100000J0D01*
G01*
X117205800Y-106631800D01*
G75*
G02*
X117305800Y-106731800I0J-100000D01*
G01*
G37*
G36*
G01*
X117305800Y-106081800D02*
X117305800Y-106281800D01*
G75*
G02*
X117205800Y-106381800I-100000J0D01*
G01*
X115930800Y-106381800D01*
G75*
G02*
X115830800Y-106281800I0J100000D01*
G01*
X115830800Y-106081800D01*
G75*
G02*
X115930800Y-105981800I100000J0D01*
G01*
X117205800Y-105981800D01*
G75*
G02*
X117305800Y-106081800I0J-100000D01*
G01*
G37*
G36*
G01*
X117305800Y-105431800D02*
X117305800Y-105631800D01*
G75*
G02*
X117205800Y-105731800I-100000J0D01*
G01*
X115930800Y-105731800D01*
G75*
G02*
X115830800Y-105631800I0J100000D01*
G01*
X115830800Y-105431800D01*
G75*
G02*
X115930800Y-105331800I100000J0D01*
G01*
X117205800Y-105331800D01*
G75*
G02*
X117305800Y-105431800I0J-100000D01*
G01*
G37*
G36*
G01*
X117305800Y-104781800D02*
X117305800Y-104981800D01*
G75*
G02*
X117205800Y-105081800I-100000J0D01*
G01*
X115930800Y-105081800D01*
G75*
G02*
X115830800Y-104981800I0J100000D01*
G01*
X115830800Y-104781800D01*
G75*
G02*
X115930800Y-104681800I100000J0D01*
G01*
X117205800Y-104681800D01*
G75*
G02*
X117305800Y-104781800I0J-100000D01*
G01*
G37*
G36*
G01*
X117305800Y-104131800D02*
X117305800Y-104331800D01*
G75*
G02*
X117205800Y-104431800I-100000J0D01*
G01*
X115930800Y-104431800D01*
G75*
G02*
X115830800Y-104331800I0J100000D01*
G01*
X115830800Y-104131800D01*
G75*
G02*
X115930800Y-104031800I100000J0D01*
G01*
X117205800Y-104031800D01*
G75*
G02*
X117305800Y-104131800I0J-100000D01*
G01*
G37*
G36*
G01*
X117305800Y-103481800D02*
X117305800Y-103681800D01*
G75*
G02*
X117205800Y-103781800I-100000J0D01*
G01*
X115930800Y-103781800D01*
G75*
G02*
X115830800Y-103681800I0J100000D01*
G01*
X115830800Y-103481800D01*
G75*
G02*
X115930800Y-103381800I100000J0D01*
G01*
X117205800Y-103381800D01*
G75*
G02*
X117305800Y-103481800I0J-100000D01*
G01*
G37*
G36*
G01*
X117305800Y-102831800D02*
X117305800Y-103031800D01*
G75*
G02*
X117205800Y-103131800I-100000J0D01*
G01*
X115930800Y-103131800D01*
G75*
G02*
X115830800Y-103031800I0J100000D01*
G01*
X115830800Y-102831800D01*
G75*
G02*
X115930800Y-102731800I100000J0D01*
G01*
X117205800Y-102731800D01*
G75*
G02*
X117305800Y-102831800I0J-100000D01*
G01*
G37*
G36*
G01*
X117305800Y-102181800D02*
X117305800Y-102381800D01*
G75*
G02*
X117205800Y-102481800I-100000J0D01*
G01*
X115930800Y-102481800D01*
G75*
G02*
X115830800Y-102381800I0J100000D01*
G01*
X115830800Y-102181800D01*
G75*
G02*
X115930800Y-102081800I100000J0D01*
G01*
X117205800Y-102081800D01*
G75*
G02*
X117305800Y-102181800I0J-100000D01*
G01*
G37*
G36*
G01*
X123030800Y-102181800D02*
X123030800Y-102381800D01*
G75*
G02*
X122930800Y-102481800I-100000J0D01*
G01*
X121655800Y-102481800D01*
G75*
G02*
X121555800Y-102381800I0J100000D01*
G01*
X121555800Y-102181800D01*
G75*
G02*
X121655800Y-102081800I100000J0D01*
G01*
X122930800Y-102081800D01*
G75*
G02*
X123030800Y-102181800I0J-100000D01*
G01*
G37*
G36*
G01*
X123030800Y-102831800D02*
X123030800Y-103031800D01*
G75*
G02*
X122930800Y-103131800I-100000J0D01*
G01*
X121655800Y-103131800D01*
G75*
G02*
X121555800Y-103031800I0J100000D01*
G01*
X121555800Y-102831800D01*
G75*
G02*
X121655800Y-102731800I100000J0D01*
G01*
X122930800Y-102731800D01*
G75*
G02*
X123030800Y-102831800I0J-100000D01*
G01*
G37*
G36*
G01*
X123030800Y-103481800D02*
X123030800Y-103681800D01*
G75*
G02*
X122930800Y-103781800I-100000J0D01*
G01*
X121655800Y-103781800D01*
G75*
G02*
X121555800Y-103681800I0J100000D01*
G01*
X121555800Y-103481800D01*
G75*
G02*
X121655800Y-103381800I100000J0D01*
G01*
X122930800Y-103381800D01*
G75*
G02*
X123030800Y-103481800I0J-100000D01*
G01*
G37*
G36*
G01*
X123030800Y-104131800D02*
X123030800Y-104331800D01*
G75*
G02*
X122930800Y-104431800I-100000J0D01*
G01*
X121655800Y-104431800D01*
G75*
G02*
X121555800Y-104331800I0J100000D01*
G01*
X121555800Y-104131800D01*
G75*
G02*
X121655800Y-104031800I100000J0D01*
G01*
X122930800Y-104031800D01*
G75*
G02*
X123030800Y-104131800I0J-100000D01*
G01*
G37*
G36*
G01*
X123030800Y-104781800D02*
X123030800Y-104981800D01*
G75*
G02*
X122930800Y-105081800I-100000J0D01*
G01*
X121655800Y-105081800D01*
G75*
G02*
X121555800Y-104981800I0J100000D01*
G01*
X121555800Y-104781800D01*
G75*
G02*
X121655800Y-104681800I100000J0D01*
G01*
X122930800Y-104681800D01*
G75*
G02*
X123030800Y-104781800I0J-100000D01*
G01*
G37*
G36*
G01*
X123030800Y-105431800D02*
X123030800Y-105631800D01*
G75*
G02*
X122930800Y-105731800I-100000J0D01*
G01*
X121655800Y-105731800D01*
G75*
G02*
X121555800Y-105631800I0J100000D01*
G01*
X121555800Y-105431800D01*
G75*
G02*
X121655800Y-105331800I100000J0D01*
G01*
X122930800Y-105331800D01*
G75*
G02*
X123030800Y-105431800I0J-100000D01*
G01*
G37*
G36*
G01*
X123030800Y-106081800D02*
X123030800Y-106281800D01*
G75*
G02*
X122930800Y-106381800I-100000J0D01*
G01*
X121655800Y-106381800D01*
G75*
G02*
X121555800Y-106281800I0J100000D01*
G01*
X121555800Y-106081800D01*
G75*
G02*
X121655800Y-105981800I100000J0D01*
G01*
X122930800Y-105981800D01*
G75*
G02*
X123030800Y-106081800I0J-100000D01*
G01*
G37*
G36*
G01*
X123030800Y-106731800D02*
X123030800Y-106931800D01*
G75*
G02*
X122930800Y-107031800I-100000J0D01*
G01*
X121655800Y-107031800D01*
G75*
G02*
X121555800Y-106931800I0J100000D01*
G01*
X121555800Y-106731800D01*
G75*
G02*
X121655800Y-106631800I100000J0D01*
G01*
X122930800Y-106631800D01*
G75*
G02*
X123030800Y-106731800I0J-100000D01*
G01*
G37*
G36*
G01*
X123030800Y-107381800D02*
X123030800Y-107581800D01*
G75*
G02*
X122930800Y-107681800I-100000J0D01*
G01*
X121655800Y-107681800D01*
G75*
G02*
X121555800Y-107581800I0J100000D01*
G01*
X121555800Y-107381800D01*
G75*
G02*
X121655800Y-107281800I100000J0D01*
G01*
X122930800Y-107281800D01*
G75*
G02*
X123030800Y-107381800I0J-100000D01*
G01*
G37*
G36*
G01*
X123030800Y-108031800D02*
X123030800Y-108231800D01*
G75*
G02*
X122930800Y-108331800I-100000J0D01*
G01*
X121655800Y-108331800D01*
G75*
G02*
X121555800Y-108231800I0J100000D01*
G01*
X121555800Y-108031800D01*
G75*
G02*
X121655800Y-107931800I100000J0D01*
G01*
X122930800Y-107931800D01*
G75*
G02*
X123030800Y-108031800I0J-100000D01*
G01*
G37*
G36*
G01*
X125455000Y-107663800D02*
X126005000Y-107663800D01*
G75*
G02*
X126205000Y-107863800I0J-200000D01*
G01*
X126205000Y-108263800D01*
G75*
G02*
X126005000Y-108463800I-200000J0D01*
G01*
X125455000Y-108463800D01*
G75*
G02*
X125255000Y-108263800I0J200000D01*
G01*
X125255000Y-107863800D01*
G75*
G02*
X125455000Y-107663800I200000J0D01*
G01*
G37*
G36*
G01*
X125455000Y-106013800D02*
X126005000Y-106013800D01*
G75*
G02*
X126205000Y-106213800I0J-200000D01*
G01*
X126205000Y-106613800D01*
G75*
G02*
X126005000Y-106813800I-200000J0D01*
G01*
X125455000Y-106813800D01*
G75*
G02*
X125255000Y-106613800I0J200000D01*
G01*
X125255000Y-106213800D01*
G75*
G02*
X125455000Y-106013800I200000J0D01*
G01*
G37*
D43*
X112217200Y-108619800D03*
X111267200Y-106619800D03*
X113167200Y-106619800D03*
G36*
G01*
X123943300Y-107563800D02*
X124443300Y-107563800D01*
G75*
G02*
X124668300Y-107788800I0J-225000D01*
G01*
X124668300Y-108238800D01*
G75*
G02*
X124443300Y-108463800I-225000J0D01*
G01*
X123943300Y-108463800D01*
G75*
G02*
X123718300Y-108238800I0J225000D01*
G01*
X123718300Y-107788800D01*
G75*
G02*
X123943300Y-107563800I225000J0D01*
G01*
G37*
G36*
G01*
X123943300Y-106013800D02*
X124443300Y-106013800D01*
G75*
G02*
X124668300Y-106238800I0J-225000D01*
G01*
X124668300Y-106688800D01*
G75*
G02*
X124443300Y-106913800I-225000J0D01*
G01*
X123943300Y-106913800D01*
G75*
G02*
X123718300Y-106688800I0J225000D01*
G01*
X123718300Y-106238800D01*
G75*
G02*
X123943300Y-106013800I225000J0D01*
G01*
G37*
G36*
G01*
X115032600Y-103408600D02*
X114532600Y-103408600D01*
G75*
G02*
X114307600Y-103183600I0J225000D01*
G01*
X114307600Y-102733600D01*
G75*
G02*
X114532600Y-102508600I225000J0D01*
G01*
X115032600Y-102508600D01*
G75*
G02*
X115257600Y-102733600I0J-225000D01*
G01*
X115257600Y-103183600D01*
G75*
G02*
X115032600Y-103408600I-225000J0D01*
G01*
G37*
G36*
G01*
X115032600Y-104958600D02*
X114532600Y-104958600D01*
G75*
G02*
X114307600Y-104733600I0J225000D01*
G01*
X114307600Y-104283600D01*
G75*
G02*
X114532600Y-104058600I225000J0D01*
G01*
X115032600Y-104058600D01*
G75*
G02*
X115257600Y-104283600I0J-225000D01*
G01*
X115257600Y-104733600D01*
G75*
G02*
X115032600Y-104958600I-225000J0D01*
G01*
G37*
G36*
G01*
X120185300Y-109262100D02*
X120185300Y-109762100D01*
G75*
G02*
X119960300Y-109987100I-225000J0D01*
G01*
X119510300Y-109987100D01*
G75*
G02*
X119285300Y-109762100I0J225000D01*
G01*
X119285300Y-109262100D01*
G75*
G02*
X119510300Y-109037100I225000J0D01*
G01*
X119960300Y-109037100D01*
G75*
G02*
X120185300Y-109262100I0J-225000D01*
G01*
G37*
G36*
G01*
X121735300Y-109262100D02*
X121735300Y-109762100D01*
G75*
G02*
X121510300Y-109987100I-225000J0D01*
G01*
X121060300Y-109987100D01*
G75*
G02*
X120835300Y-109762100I0J225000D01*
G01*
X120835300Y-109262100D01*
G75*
G02*
X121060300Y-109037100I225000J0D01*
G01*
X121510300Y-109037100D01*
G75*
G02*
X121735300Y-109262100I0J-225000D01*
G01*
G37*
D18*
X135272600Y-114691200D03*
X135272600Y-112791200D03*
X137472600Y-112791200D03*
X137472600Y-113741200D03*
X137472600Y-114691200D03*
X133383200Y-112765800D03*
X133383200Y-114665800D03*
X131183200Y-114665800D03*
X131183200Y-113715800D03*
X131183200Y-112765800D03*
D44*
X145682600Y-112041200D03*
X146632600Y-112041200D03*
X147582600Y-112041200D03*
X147582600Y-114661200D03*
X146632600Y-114661200D03*
X145682600Y-114661200D03*
G36*
G01*
X142155600Y-114160600D02*
X144305600Y-114160600D01*
G75*
G02*
X144555600Y-114410600I0J-250000D01*
G01*
X144555600Y-115160600D01*
G75*
G02*
X144305600Y-115410600I-250000J0D01*
G01*
X142155600Y-115410600D01*
G75*
G02*
X141905600Y-115160600I0J250000D01*
G01*
X141905600Y-114410600D01*
G75*
G02*
X142155600Y-114160600I250000J0D01*
G01*
G37*
G36*
G01*
X142155600Y-111360600D02*
X144305600Y-111360600D01*
G75*
G02*
X144555600Y-111610600I0J-250000D01*
G01*
X144555600Y-112360600D01*
G75*
G02*
X144305600Y-112610600I-250000J0D01*
G01*
X142155600Y-112610600D01*
G75*
G02*
X141905600Y-112360600I0J250000D01*
G01*
X141905600Y-111610600D01*
G75*
G02*
X142155600Y-111360600I250000J0D01*
G01*
G37*
G36*
G01*
X139569000Y-113695600D02*
X139069000Y-113695600D01*
G75*
G02*
X138844000Y-113470600I0J225000D01*
G01*
X138844000Y-113020600D01*
G75*
G02*
X139069000Y-112795600I225000J0D01*
G01*
X139569000Y-112795600D01*
G75*
G02*
X139794000Y-113020600I0J-225000D01*
G01*
X139794000Y-113470600D01*
G75*
G02*
X139569000Y-113695600I-225000J0D01*
G01*
G37*
G36*
G01*
X139569000Y-115245600D02*
X139069000Y-115245600D01*
G75*
G02*
X138844000Y-115020600I0J225000D01*
G01*
X138844000Y-114570600D01*
G75*
G02*
X139069000Y-114345600I225000J0D01*
G01*
X139569000Y-114345600D01*
G75*
G02*
X139794000Y-114570600I0J-225000D01*
G01*
X139794000Y-115020600D01*
G75*
G02*
X139569000Y-115245600I-225000J0D01*
G01*
G37*
G36*
G01*
X141093000Y-113695600D02*
X140593000Y-113695600D01*
G75*
G02*
X140368000Y-113470600I0J225000D01*
G01*
X140368000Y-113020600D01*
G75*
G02*
X140593000Y-112795600I225000J0D01*
G01*
X141093000Y-112795600D01*
G75*
G02*
X141318000Y-113020600I0J-225000D01*
G01*
X141318000Y-113470600D01*
G75*
G02*
X141093000Y-113695600I-225000J0D01*
G01*
G37*
G36*
G01*
X141093000Y-115245600D02*
X140593000Y-115245600D01*
G75*
G02*
X140368000Y-115020600I0J225000D01*
G01*
X140368000Y-114570600D01*
G75*
G02*
X140593000Y-114345600I225000J0D01*
G01*
X141093000Y-114345600D01*
G75*
G02*
X141318000Y-114570600I0J-225000D01*
G01*
X141318000Y-115020600D01*
G75*
G02*
X141093000Y-115245600I-225000J0D01*
G01*
G37*
G36*
G01*
X145852000Y-110062200D02*
X145852000Y-110562200D01*
G75*
G02*
X145627000Y-110787200I-225000J0D01*
G01*
X145177000Y-110787200D01*
G75*
G02*
X144952000Y-110562200I0J225000D01*
G01*
X144952000Y-110062200D01*
G75*
G02*
X145177000Y-109837200I225000J0D01*
G01*
X145627000Y-109837200D01*
G75*
G02*
X145852000Y-110062200I0J-225000D01*
G01*
G37*
G36*
G01*
X147402000Y-110062200D02*
X147402000Y-110562200D01*
G75*
G02*
X147177000Y-110787200I-225000J0D01*
G01*
X146727000Y-110787200D01*
G75*
G02*
X146502000Y-110562200I0J225000D01*
G01*
X146502000Y-110062200D01*
G75*
G02*
X146727000Y-109837200I225000J0D01*
G01*
X147177000Y-109837200D01*
G75*
G02*
X147402000Y-110062200I0J-225000D01*
G01*
G37*
G36*
G01*
X149398800Y-112933600D02*
X148898800Y-112933600D01*
G75*
G02*
X148673800Y-112708600I0J225000D01*
G01*
X148673800Y-112258600D01*
G75*
G02*
X148898800Y-112033600I225000J0D01*
G01*
X149398800Y-112033600D01*
G75*
G02*
X149623800Y-112258600I0J-225000D01*
G01*
X149623800Y-112708600D01*
G75*
G02*
X149398800Y-112933600I-225000J0D01*
G01*
G37*
G36*
G01*
X149398800Y-114483600D02*
X148898800Y-114483600D01*
G75*
G02*
X148673800Y-114258600I0J225000D01*
G01*
X148673800Y-113808600D01*
G75*
G02*
X148898800Y-113583600I225000J0D01*
G01*
X149398800Y-113583600D01*
G75*
G02*
X149623800Y-113808600I0J-225000D01*
G01*
X149623800Y-114258600D01*
G75*
G02*
X149398800Y-114483600I-225000J0D01*
G01*
G37*
X140411200Y-109528600D03*
X139461200Y-109528600D03*
X138511200Y-109528600D03*
X138511200Y-106908600D03*
X139461200Y-106908600D03*
X140411200Y-106908600D03*
G36*
G01*
X143950000Y-107429000D02*
X141800000Y-107429000D01*
G75*
G02*
X141550000Y-107179000I0J250000D01*
G01*
X141550000Y-106429000D01*
G75*
G02*
X141800000Y-106179000I250000J0D01*
G01*
X143950000Y-106179000D01*
G75*
G02*
X144200000Y-106429000I0J-250000D01*
G01*
X144200000Y-107179000D01*
G75*
G02*
X143950000Y-107429000I-250000J0D01*
G01*
G37*
G36*
G01*
X143950000Y-110229000D02*
X141800000Y-110229000D01*
G75*
G02*
X141550000Y-109979000I0J250000D01*
G01*
X141550000Y-109229000D01*
G75*
G02*
X141800000Y-108979000I250000J0D01*
G01*
X143950000Y-108979000D01*
G75*
G02*
X144200000Y-109229000I0J-250000D01*
G01*
X144200000Y-109979000D01*
G75*
G02*
X143950000Y-110229000I-250000J0D01*
G01*
G37*
G36*
G01*
X145012600Y-107894000D02*
X145512600Y-107894000D01*
G75*
G02*
X145737600Y-108119000I0J-225000D01*
G01*
X145737600Y-108569000D01*
G75*
G02*
X145512600Y-108794000I-225000J0D01*
G01*
X145012600Y-108794000D01*
G75*
G02*
X144787600Y-108569000I0J225000D01*
G01*
X144787600Y-108119000D01*
G75*
G02*
X145012600Y-107894000I225000J0D01*
G01*
G37*
G36*
G01*
X145012600Y-106344000D02*
X145512600Y-106344000D01*
G75*
G02*
X145737600Y-106569000I0J-225000D01*
G01*
X145737600Y-107019000D01*
G75*
G02*
X145512600Y-107244000I-225000J0D01*
G01*
X145012600Y-107244000D01*
G75*
G02*
X144787600Y-107019000I0J225000D01*
G01*
X144787600Y-106569000D01*
G75*
G02*
X145012600Y-106344000I225000J0D01*
G01*
G37*
G36*
G01*
X146562000Y-107894000D02*
X147062000Y-107894000D01*
G75*
G02*
X147287000Y-108119000I0J-225000D01*
G01*
X147287000Y-108569000D01*
G75*
G02*
X147062000Y-108794000I-225000J0D01*
G01*
X146562000Y-108794000D01*
G75*
G02*
X146337000Y-108569000I0J225000D01*
G01*
X146337000Y-108119000D01*
G75*
G02*
X146562000Y-107894000I225000J0D01*
G01*
G37*
G36*
G01*
X146562000Y-106344000D02*
X147062000Y-106344000D01*
G75*
G02*
X147287000Y-106569000I0J-225000D01*
G01*
X147287000Y-107019000D01*
G75*
G02*
X147062000Y-107244000I-225000J0D01*
G01*
X146562000Y-107244000D01*
G75*
G02*
X146337000Y-107019000I0J225000D01*
G01*
X146337000Y-106569000D01*
G75*
G02*
X146562000Y-106344000I225000J0D01*
G01*
G37*
G36*
G01*
X140304400Y-111629000D02*
X140304400Y-111129000D01*
G75*
G02*
X140529400Y-110904000I225000J0D01*
G01*
X140979400Y-110904000D01*
G75*
G02*
X141204400Y-111129000I0J-225000D01*
G01*
X141204400Y-111629000D01*
G75*
G02*
X140979400Y-111854000I-225000J0D01*
G01*
X140529400Y-111854000D01*
G75*
G02*
X140304400Y-111629000I0J225000D01*
G01*
G37*
G36*
G01*
X138754400Y-111629000D02*
X138754400Y-111129000D01*
G75*
G02*
X138979400Y-110904000I225000J0D01*
G01*
X139429400Y-110904000D01*
G75*
G02*
X139654400Y-111129000I0J-225000D01*
G01*
X139654400Y-111629000D01*
G75*
G02*
X139429400Y-111854000I-225000J0D01*
G01*
X138979400Y-111854000D01*
G75*
G02*
X138754400Y-111629000I0J225000D01*
G01*
G37*
G36*
G01*
X136681400Y-108478200D02*
X137181400Y-108478200D01*
G75*
G02*
X137406400Y-108703200I0J-225000D01*
G01*
X137406400Y-109153200D01*
G75*
G02*
X137181400Y-109378200I-225000J0D01*
G01*
X136681400Y-109378200D01*
G75*
G02*
X136456400Y-109153200I0J225000D01*
G01*
X136456400Y-108703200D01*
G75*
G02*
X136681400Y-108478200I225000J0D01*
G01*
G37*
G36*
G01*
X136681400Y-106928200D02*
X137181400Y-106928200D01*
G75*
G02*
X137406400Y-107153200I0J-225000D01*
G01*
X137406400Y-107603200D01*
G75*
G02*
X137181400Y-107828200I-225000J0D01*
G01*
X136681400Y-107828200D01*
G75*
G02*
X136456400Y-107603200I0J225000D01*
G01*
X136456400Y-107153200D01*
G75*
G02*
X136681400Y-106928200I225000J0D01*
G01*
G37*
G36*
G01*
X174557880Y-108518240D02*
X175057880Y-108518240D01*
G75*
G02*
X175282880Y-108743240I0J-225000D01*
G01*
X175282880Y-109193240D01*
G75*
G02*
X175057880Y-109418240I-225000J0D01*
G01*
X174557880Y-109418240D01*
G75*
G02*
X174332880Y-109193240I0J225000D01*
G01*
X174332880Y-108743240D01*
G75*
G02*
X174557880Y-108518240I225000J0D01*
G01*
G37*
G36*
G01*
X174557880Y-110068240D02*
X175057880Y-110068240D01*
G75*
G02*
X175282880Y-110293240I0J-225000D01*
G01*
X175282880Y-110743240D01*
G75*
G02*
X175057880Y-110968240I-225000J0D01*
G01*
X174557880Y-110968240D01*
G75*
G02*
X174332880Y-110743240I0J225000D01*
G01*
X174332880Y-110293240D01*
G75*
G02*
X174557880Y-110068240I225000J0D01*
G01*
G37*
G36*
G01*
X188910680Y-104843870D02*
X188910680Y-105356370D01*
G75*
G02*
X188691930Y-105575120I-218750J0D01*
G01*
X188254430Y-105575120D01*
G75*
G02*
X188035680Y-105356370I0J218750D01*
G01*
X188035680Y-104843870D01*
G75*
G02*
X188254430Y-104625120I218750J0D01*
G01*
X188691930Y-104625120D01*
G75*
G02*
X188910680Y-104843870I0J-218750D01*
G01*
G37*
G36*
G01*
X187335680Y-104843870D02*
X187335680Y-105356370D01*
G75*
G02*
X187116930Y-105575120I-218750J0D01*
G01*
X186679430Y-105575120D01*
G75*
G02*
X186460680Y-105356370I0J218750D01*
G01*
X186460680Y-104843870D01*
G75*
G02*
X186679430Y-104625120I218750J0D01*
G01*
X187116930Y-104625120D01*
G75*
G02*
X187335680Y-104843870I0J-218750D01*
G01*
G37*
G36*
G01*
X188910680Y-103256370D02*
X188910680Y-103768870D01*
G75*
G02*
X188691930Y-103987620I-218750J0D01*
G01*
X188254430Y-103987620D01*
G75*
G02*
X188035680Y-103768870I0J218750D01*
G01*
X188035680Y-103256370D01*
G75*
G02*
X188254430Y-103037620I218750J0D01*
G01*
X188691930Y-103037620D01*
G75*
G02*
X188910680Y-103256370I0J-218750D01*
G01*
G37*
G36*
G01*
X187335680Y-103256370D02*
X187335680Y-103768870D01*
G75*
G02*
X187116930Y-103987620I-218750J0D01*
G01*
X186679430Y-103987620D01*
G75*
G02*
X186460680Y-103768870I0J218750D01*
G01*
X186460680Y-103256370D01*
G75*
G02*
X186679430Y-103037620I218750J0D01*
G01*
X187116930Y-103037620D01*
G75*
G02*
X187335680Y-103256370I0J-218750D01*
G01*
G37*
G36*
G01*
X169190480Y-78347020D02*
X168690480Y-78347020D01*
G75*
G02*
X168465480Y-78122020I0J225000D01*
G01*
X168465480Y-77672020D01*
G75*
G02*
X168690480Y-77447020I225000J0D01*
G01*
X169190480Y-77447020D01*
G75*
G02*
X169415480Y-77672020I0J-225000D01*
G01*
X169415480Y-78122020D01*
G75*
G02*
X169190480Y-78347020I-225000J0D01*
G01*
G37*
G36*
G01*
X169190480Y-76797020D02*
X168690480Y-76797020D01*
G75*
G02*
X168465480Y-76572020I0J225000D01*
G01*
X168465480Y-76122020D01*
G75*
G02*
X168690480Y-75897020I225000J0D01*
G01*
X169190480Y-75897020D01*
G75*
G02*
X169415480Y-76122020I0J-225000D01*
G01*
X169415480Y-76572020D01*
G75*
G02*
X169190480Y-76797020I-225000J0D01*
G01*
G37*
G36*
G01*
X189000680Y-82350420D02*
X189000680Y-81850420D01*
G75*
G02*
X189225680Y-81625420I225000J0D01*
G01*
X189675680Y-81625420D01*
G75*
G02*
X189900680Y-81850420I0J-225000D01*
G01*
X189900680Y-82350420D01*
G75*
G02*
X189675680Y-82575420I-225000J0D01*
G01*
X189225680Y-82575420D01*
G75*
G02*
X189000680Y-82350420I0J225000D01*
G01*
G37*
G36*
G01*
X190550680Y-82350420D02*
X190550680Y-81850420D01*
G75*
G02*
X190775680Y-81625420I225000J0D01*
G01*
X191225680Y-81625420D01*
G75*
G02*
X191450680Y-81850420I0J-225000D01*
G01*
X191450680Y-82350420D01*
G75*
G02*
X191225680Y-82575420I-225000J0D01*
G01*
X190775680Y-82575420D01*
G75*
G02*
X190550680Y-82350420I0J225000D01*
G01*
G37*
G36*
G01*
X131350600Y-116582000D02*
X131350600Y-116082000D01*
G75*
G02*
X131575600Y-115857000I225000J0D01*
G01*
X132025600Y-115857000D01*
G75*
G02*
X132250600Y-116082000I0J-225000D01*
G01*
X132250600Y-116582000D01*
G75*
G02*
X132025600Y-116807000I-225000J0D01*
G01*
X131575600Y-116807000D01*
G75*
G02*
X131350600Y-116582000I0J225000D01*
G01*
G37*
G36*
G01*
X129800600Y-116582000D02*
X129800600Y-116082000D01*
G75*
G02*
X130025600Y-115857000I225000J0D01*
G01*
X130475600Y-115857000D01*
G75*
G02*
X130700600Y-116082000I0J-225000D01*
G01*
X130700600Y-116582000D01*
G75*
G02*
X130475600Y-116807000I-225000J0D01*
G01*
X130025600Y-116807000D01*
G75*
G02*
X129800600Y-116582000I0J225000D01*
G01*
G37*
G36*
G01*
X182206180Y-109591920D02*
X182206180Y-109091920D01*
G75*
G02*
X182431180Y-108866920I225000J0D01*
G01*
X182881180Y-108866920D01*
G75*
G02*
X183106180Y-109091920I0J-225000D01*
G01*
X183106180Y-109591920D01*
G75*
G02*
X182881180Y-109816920I-225000J0D01*
G01*
X182431180Y-109816920D01*
G75*
G02*
X182206180Y-109591920I0J225000D01*
G01*
G37*
G36*
G01*
X183756180Y-109591920D02*
X183756180Y-109091920D01*
G75*
G02*
X183981180Y-108866920I225000J0D01*
G01*
X184431180Y-108866920D01*
G75*
G02*
X184656180Y-109091920I0J-225000D01*
G01*
X184656180Y-109591920D01*
G75*
G02*
X184431180Y-109816920I-225000J0D01*
G01*
X183981180Y-109816920D01*
G75*
G02*
X183756180Y-109591920I0J225000D01*
G01*
G37*
G36*
G01*
X164807180Y-104920860D02*
X164807180Y-104420860D01*
G75*
G02*
X165032180Y-104195860I225000J0D01*
G01*
X165482180Y-104195860D01*
G75*
G02*
X165707180Y-104420860I0J-225000D01*
G01*
X165707180Y-104920860D01*
G75*
G02*
X165482180Y-105145860I-225000J0D01*
G01*
X165032180Y-105145860D01*
G75*
G02*
X164807180Y-104920860I0J225000D01*
G01*
G37*
G36*
G01*
X166357180Y-104920860D02*
X166357180Y-104420860D01*
G75*
G02*
X166582180Y-104195860I225000J0D01*
G01*
X167032180Y-104195860D01*
G75*
G02*
X167257180Y-104420860I0J-225000D01*
G01*
X167257180Y-104920860D01*
G75*
G02*
X167032180Y-105145860I-225000J0D01*
G01*
X166582180Y-105145860D01*
G75*
G02*
X166357180Y-104920860I0J225000D01*
G01*
G37*
G36*
G01*
X182206180Y-112131920D02*
X182206180Y-111631920D01*
G75*
G02*
X182431180Y-111406920I225000J0D01*
G01*
X182881180Y-111406920D01*
G75*
G02*
X183106180Y-111631920I0J-225000D01*
G01*
X183106180Y-112131920D01*
G75*
G02*
X182881180Y-112356920I-225000J0D01*
G01*
X182431180Y-112356920D01*
G75*
G02*
X182206180Y-112131920I0J225000D01*
G01*
G37*
G36*
G01*
X183756180Y-112131920D02*
X183756180Y-111631920D01*
G75*
G02*
X183981180Y-111406920I225000J0D01*
G01*
X184431180Y-111406920D01*
G75*
G02*
X184656180Y-111631920I0J-225000D01*
G01*
X184656180Y-112131920D01*
G75*
G02*
X184431180Y-112356920I-225000J0D01*
G01*
X183981180Y-112356920D01*
G75*
G02*
X183756180Y-112131920I0J225000D01*
G01*
G37*
G36*
G01*
X164807180Y-107397360D02*
X164807180Y-106897360D01*
G75*
G02*
X165032180Y-106672360I225000J0D01*
G01*
X165482180Y-106672360D01*
G75*
G02*
X165707180Y-106897360I0J-225000D01*
G01*
X165707180Y-107397360D01*
G75*
G02*
X165482180Y-107622360I-225000J0D01*
G01*
X165032180Y-107622360D01*
G75*
G02*
X164807180Y-107397360I0J225000D01*
G01*
G37*
G36*
G01*
X166357180Y-107397360D02*
X166357180Y-106897360D01*
G75*
G02*
X166582180Y-106672360I225000J0D01*
G01*
X167032180Y-106672360D01*
G75*
G02*
X167257180Y-106897360I0J-225000D01*
G01*
X167257180Y-107397360D01*
G75*
G02*
X167032180Y-107622360I-225000J0D01*
G01*
X166582180Y-107622360D01*
G75*
G02*
X166357180Y-107397360I0J225000D01*
G01*
G37*
G36*
G01*
X185149680Y-103113120D02*
X185649680Y-103113120D01*
G75*
G02*
X185874680Y-103338120I0J-225000D01*
G01*
X185874680Y-103788120D01*
G75*
G02*
X185649680Y-104013120I-225000J0D01*
G01*
X185149680Y-104013120D01*
G75*
G02*
X184924680Y-103788120I0J225000D01*
G01*
X184924680Y-103338120D01*
G75*
G02*
X185149680Y-103113120I225000J0D01*
G01*
G37*
G36*
G01*
X185149680Y-104663120D02*
X185649680Y-104663120D01*
G75*
G02*
X185874680Y-104888120I0J-225000D01*
G01*
X185874680Y-105338120D01*
G75*
G02*
X185649680Y-105563120I-225000J0D01*
G01*
X185149680Y-105563120D01*
G75*
G02*
X184924680Y-105338120I0J225000D01*
G01*
X184924680Y-104888120D01*
G75*
G02*
X185149680Y-104663120I225000J0D01*
G01*
G37*
G36*
G01*
X183625680Y-103113120D02*
X184125680Y-103113120D01*
G75*
G02*
X184350680Y-103338120I0J-225000D01*
G01*
X184350680Y-103788120D01*
G75*
G02*
X184125680Y-104013120I-225000J0D01*
G01*
X183625680Y-104013120D01*
G75*
G02*
X183400680Y-103788120I0J225000D01*
G01*
X183400680Y-103338120D01*
G75*
G02*
X183625680Y-103113120I225000J0D01*
G01*
G37*
G36*
G01*
X183625680Y-104663120D02*
X184125680Y-104663120D01*
G75*
G02*
X184350680Y-104888120I0J-225000D01*
G01*
X184350680Y-105338120D01*
G75*
G02*
X184125680Y-105563120I-225000J0D01*
G01*
X183625680Y-105563120D01*
G75*
G02*
X183400680Y-105338120I0J225000D01*
G01*
X183400680Y-104888120D01*
G75*
G02*
X183625680Y-104663120I225000J0D01*
G01*
G37*
G36*
G01*
X175662780Y-103316320D02*
X176162780Y-103316320D01*
G75*
G02*
X176387780Y-103541320I0J-225000D01*
G01*
X176387780Y-103991320D01*
G75*
G02*
X176162780Y-104216320I-225000J0D01*
G01*
X175662780Y-104216320D01*
G75*
G02*
X175437780Y-103991320I0J225000D01*
G01*
X175437780Y-103541320D01*
G75*
G02*
X175662780Y-103316320I225000J0D01*
G01*
G37*
G36*
G01*
X175662780Y-104866320D02*
X176162780Y-104866320D01*
G75*
G02*
X176387780Y-105091320I0J-225000D01*
G01*
X176387780Y-105541320D01*
G75*
G02*
X176162780Y-105766320I-225000J0D01*
G01*
X175662780Y-105766320D01*
G75*
G02*
X175437780Y-105541320I0J225000D01*
G01*
X175437780Y-105091320D01*
G75*
G02*
X175662780Y-104866320I225000J0D01*
G01*
G37*
G36*
G01*
X189048580Y-99303120D02*
X189548580Y-99303120D01*
G75*
G02*
X189773580Y-99528120I0J-225000D01*
G01*
X189773580Y-99978120D01*
G75*
G02*
X189548580Y-100203120I-225000J0D01*
G01*
X189048580Y-100203120D01*
G75*
G02*
X188823580Y-99978120I0J225000D01*
G01*
X188823580Y-99528120D01*
G75*
G02*
X189048580Y-99303120I225000J0D01*
G01*
G37*
G36*
G01*
X189048580Y-100853120D02*
X189548580Y-100853120D01*
G75*
G02*
X189773580Y-101078120I0J-225000D01*
G01*
X189773580Y-101528120D01*
G75*
G02*
X189548580Y-101753120I-225000J0D01*
G01*
X189048580Y-101753120D01*
G75*
G02*
X188823580Y-101528120I0J225000D01*
G01*
X188823580Y-101078120D01*
G75*
G02*
X189048580Y-100853120I225000J0D01*
G01*
G37*
G36*
G01*
X164399680Y-99401820D02*
X164399680Y-99901820D01*
G75*
G02*
X164174680Y-100126820I-225000J0D01*
G01*
X163724680Y-100126820D01*
G75*
G02*
X163499680Y-99901820I0J225000D01*
G01*
X163499680Y-99401820D01*
G75*
G02*
X163724680Y-99176820I225000J0D01*
G01*
X164174680Y-99176820D01*
G75*
G02*
X164399680Y-99401820I0J-225000D01*
G01*
G37*
G36*
G01*
X162849680Y-99401820D02*
X162849680Y-99901820D01*
G75*
G02*
X162624680Y-100126820I-225000J0D01*
G01*
X162174680Y-100126820D01*
G75*
G02*
X161949680Y-99901820I0J225000D01*
G01*
X161949680Y-99401820D01*
G75*
G02*
X162174680Y-99176820I225000J0D01*
G01*
X162624680Y-99176820D01*
G75*
G02*
X162849680Y-99401820I0J-225000D01*
G01*
G37*
G36*
G01*
X167666480Y-78334020D02*
X167166480Y-78334020D01*
G75*
G02*
X166941480Y-78109020I0J225000D01*
G01*
X166941480Y-77659020D01*
G75*
G02*
X167166480Y-77434020I225000J0D01*
G01*
X167666480Y-77434020D01*
G75*
G02*
X167891480Y-77659020I0J-225000D01*
G01*
X167891480Y-78109020D01*
G75*
G02*
X167666480Y-78334020I-225000J0D01*
G01*
G37*
G36*
G01*
X167666480Y-76784020D02*
X167166480Y-76784020D01*
G75*
G02*
X166941480Y-76559020I0J225000D01*
G01*
X166941480Y-76109020D01*
G75*
G02*
X167166480Y-75884020I225000J0D01*
G01*
X167666480Y-75884020D01*
G75*
G02*
X167891480Y-76109020I0J-225000D01*
G01*
X167891480Y-76559020D01*
G75*
G02*
X167666480Y-76784020I-225000J0D01*
G01*
G37*
G36*
G01*
X189000680Y-80813720D02*
X189000680Y-80313720D01*
G75*
G02*
X189225680Y-80088720I225000J0D01*
G01*
X189675680Y-80088720D01*
G75*
G02*
X189900680Y-80313720I0J-225000D01*
G01*
X189900680Y-80813720D01*
G75*
G02*
X189675680Y-81038720I-225000J0D01*
G01*
X189225680Y-81038720D01*
G75*
G02*
X189000680Y-80813720I0J225000D01*
G01*
G37*
G36*
G01*
X190550680Y-80813720D02*
X190550680Y-80313720D01*
G75*
G02*
X190775680Y-80088720I225000J0D01*
G01*
X191225680Y-80088720D01*
G75*
G02*
X191450680Y-80313720I0J-225000D01*
G01*
X191450680Y-80813720D01*
G75*
G02*
X191225680Y-81038720I-225000J0D01*
G01*
X190775680Y-81038720D01*
G75*
G02*
X190550680Y-80813720I0J225000D01*
G01*
G37*
G36*
G01*
X164399680Y-100989320D02*
X164399680Y-101489320D01*
G75*
G02*
X164174680Y-101714320I-225000J0D01*
G01*
X163724680Y-101714320D01*
G75*
G02*
X163499680Y-101489320I0J225000D01*
G01*
X163499680Y-100989320D01*
G75*
G02*
X163724680Y-100764320I225000J0D01*
G01*
X164174680Y-100764320D01*
G75*
G02*
X164399680Y-100989320I0J-225000D01*
G01*
G37*
G36*
G01*
X162849680Y-100989320D02*
X162849680Y-101489320D01*
G75*
G02*
X162624680Y-101714320I-225000J0D01*
G01*
X162174680Y-101714320D01*
G75*
G02*
X161949680Y-101489320I0J225000D01*
G01*
X161949680Y-100989320D01*
G75*
G02*
X162174680Y-100764320I225000J0D01*
G01*
X162624680Y-100764320D01*
G75*
G02*
X162849680Y-100989320I0J-225000D01*
G01*
G37*
D45*
X199898000Y-70866000D03*
X197358000Y-70866000D03*
X199898000Y-73406000D03*
X197358000Y-73406000D03*
X199898000Y-75946000D03*
X197358000Y-75946000D03*
X199898000Y-78486000D03*
X197358000Y-78486000D03*
X199898000Y-81026000D03*
X197358000Y-81026000D03*
X199898000Y-83566000D03*
X197358000Y-83566000D03*
X199898000Y-86106000D03*
X197358000Y-86106000D03*
X199898000Y-88646000D03*
X197358000Y-88646000D03*
X199898000Y-91186000D03*
X197358000Y-91186000D03*
X199898000Y-93726000D03*
X197358000Y-93726000D03*
X199898000Y-96266000D03*
X197358000Y-96266000D03*
X199898000Y-98806000D03*
X197358000Y-98806000D03*
X199898000Y-101346000D03*
X197358000Y-101346000D03*
X199898000Y-103886000D03*
X197358000Y-103886000D03*
X199898000Y-106426000D03*
X197358000Y-106426000D03*
X199898000Y-108966000D03*
X197358000Y-108966000D03*
X199898000Y-111506000D03*
X197358000Y-111506000D03*
X199898000Y-114046000D03*
D46*
X197358000Y-114046000D03*
D15*
X149098000Y-119126000D03*
X146558000Y-119126000D03*
X144018000Y-119126000D03*
X141478000Y-119126000D03*
X138938000Y-119126000D03*
X136398000Y-119126000D03*
X133858000Y-119126000D03*
X131318000Y-119126000D03*
X171958000Y-119126000D03*
X169418000Y-119126000D03*
X166878000Y-119126000D03*
X164338000Y-119126000D03*
X161798000Y-119126000D03*
X159258000Y-119126000D03*
X156718000Y-119126000D03*
X154178000Y-119126000D03*
X194818000Y-119126000D03*
X192278000Y-119126000D03*
X189738000Y-119126000D03*
X187198000Y-119126000D03*
X184658000Y-119126000D03*
X182118000Y-119126000D03*
X179578000Y-119126000D03*
X177038000Y-119126000D03*
X145034000Y-70866000D03*
X142494000Y-70866000D03*
X139954000Y-70866000D03*
X137414000Y-70866000D03*
X134874000Y-70866000D03*
X132334000Y-70866000D03*
X129794000Y-70866000D03*
X127254000Y-70866000D03*
X124714000Y-70866000D03*
X122174000Y-70866000D03*
X166878000Y-70866000D03*
X164338000Y-70866000D03*
X161798000Y-70866000D03*
X159258000Y-70866000D03*
X156718000Y-70866000D03*
X154178000Y-70866000D03*
X151638000Y-70866000D03*
X149098000Y-70866000D03*
X189738000Y-70866000D03*
X187198000Y-70866000D03*
X184658000Y-70866000D03*
X182118000Y-70866000D03*
X179578000Y-70866000D03*
X177038000Y-70866000D03*
X174498000Y-70866000D03*
X171958000Y-70866000D03*
D47*
X117348000Y-119126000D03*
X199898000Y-119126000D03*
X118618000Y-70866000D03*
X193548000Y-70866000D03*
M02*
