M48
; DRILL file {KiCad 5.1.7-a382d34a8~88~ubuntu20.04.1} date Fri Feb 19 12:51:28 2021
; FORMAT={-:-/ absolute / inch / decimal}
; #@! TF.CreationDate,2021-02-19T12:51:28-03:00
; #@! TF.GenerationSoftware,Kicad,Pcbnew,5.1.7-a382d34a8~88~ubuntu20.04.1
; #@! TF.FileFunction,Plated,1,4,PTH
FMAT,2
INCH
T1C0.0118
T2C0.0197
T3C0.0390
T4C0.0394
T5C0.0400
T6C0.0402
T7C0.0453
T8C0.0512
T9C0.0551
T10C0.1200
%
G90
G05
T1
X4.218Y-3.206
X4.25Y-2.996
X4.2508Y-2.9076
X4.2536Y-2.865
X4.2546Y-2.8216
X4.3085Y-4.053
X4.31Y-4.202
X4.35Y-3.208
X4.3692Y-4.5835
X4.3728Y-4.556
X4.3735Y-4.099
X4.3828Y-2.7324
X4.3975Y-4.099
X4.4008Y-3.1516
X4.4122Y-2.7324
X4.418Y-4.2425
X4.422Y-4.099
X4.43Y-3.1516
X4.4475Y-4.099
X4.4588Y-2.772
X4.4588Y-2.8424
X4.4588Y-2.9214
X4.4588Y-2.994
X4.4588Y-3.0823
X4.4703Y-3.1165
X4.519Y-4.02
X4.519Y-4.1555
X4.5261Y-4.5402
X4.5261Y-4.5658
X4.546Y-3.06
X4.615Y-4.4955
X4.6345Y-4.1295
X4.672Y-4.356
X4.6805Y-4.3115
X4.76Y-2.88
X4.76Y-2.9075
X4.79Y-2.9108
X4.791Y-4.429
X4.8702Y-4.0262
X4.8897Y-4.1545
X4.8897Y-4.2855
X4.8998Y-4.0526
X4.8998Y-4.104
X4.925Y-4.1306
X4.9273Y-4.0763
X5.0915Y-4.4175
X5.12Y-3.25
X5.128Y-4.1895
X5.128Y-4.1635
X5.128Y-4.2145
X5.1555Y-3.64
X5.156Y-3.422
X5.2Y-4.334
X5.201Y-4.19
X5.2015Y-4.4775
X5.2175Y-3.4225
X5.2255Y-4.5785
X5.238Y-3.808
X5.2944Y-4.3717
X5.311Y-3.684
X5.337Y-3.38
X5.342Y-3.585
X5.379Y-3.363
X5.3915Y-4.324
X5.398Y-3.258
X5.409Y-3.361
X5.4209Y-4.3121
X5.441Y-3.363
X5.447Y-4.468
X5.4635Y-3.8065
X5.4677Y-3.3637
X5.488Y-3.224
X5.515Y-4.4585
X5.5463Y-3.3897
X5.561Y-4.209
X5.5995Y-3.4855
X5.605Y-3.713
X5.6605Y-3.4865
X5.6896Y-4.2049
X5.74Y-3.33
X5.749Y-4.2045
X5.75Y-4.2655
X5.838Y-4.373
X5.844Y-3.48
X5.872Y-4.373
X5.872Y-4.398
X5.876Y-3.27
X5.878Y-3.33
X5.88Y-3.39
X5.88Y-3.688
X5.882Y-3.57
X5.882Y-3.63
X6.2728Y-4.394
X6.2736Y-4.3462
X6.2758Y-4.4434
X6.2944Y-4.0203
X6.312Y-4.2692
X6.32Y-4.0225
X6.3544Y-4.3924
X6.3567Y-3.4728
X6.3572Y-4.3422
X6.3587Y-3.8078
X6.3592Y-3.6683
X6.3937Y-3.9538
X6.4052Y-4.0762
X6.412Y-4.262
X6.4444Y-4.1894
X6.4547Y-3.9548
X6.465Y-4.16
X6.4696Y-3.5696
X6.4843Y-3.6684
X6.4864Y-3.4715
X6.5062Y-4.1669
X6.5705Y-4.4403
X6.5714Y-3.4522
X6.5731Y-3.2549
X6.5732Y-3.649
X6.5802Y-3.8084
X6.5802Y-4.068
X6.5886Y-3.8997
X6.5917Y-3.1058
X6.5995Y-3.2538
X6.6076Y-3.6724
X6.6176Y-3.8808
X6.6216Y-4.066
X6.6218Y-3.0069
X6.6225Y-3.6102
X6.6256Y-4.3718
X6.6291Y-3.9564
X6.6297Y-3.1978
X6.63Y-3.6425
X6.6318Y-3.2528
X6.6325Y-3.815
X6.6338Y-4.3108
X6.6366Y-2.8469
X6.6546Y-4.065
X6.6563Y-2.8711
X6.6658Y-3.2494
X6.6824Y-4.3918
X6.6862Y-3.3202
X6.6892Y-4.3446
X6.69Y-4.0658
X6.6926Y-3.8836
X6.7032Y-3.9108
X6.7087Y-3.9648
X6.7206Y-3.3136
X6.7234Y-3.8854
X6.8492Y-4.2898
X6.8667Y-2.9728
X6.8667Y-3.1118
X6.8731Y-3.536
X6.8826Y-4.383
X6.8854Y-3.6226
X6.8857Y-3.1978
X6.8899Y-3.5835
X6.8948Y-3.3507
X6.902Y-3.452
X6.9041Y-3.4776
X6.9047Y-3.9618
X6.9054Y-3.2708
X6.906Y-3.422
X6.9086Y-3.6038
X6.91Y-3.394
X6.9109Y-3.5646
X6.9117Y-3.5028
X6.9133Y-3.3685
X6.92Y-3.6942
X6.9252Y-4.0503
X6.9258Y-3.2914
X6.9272Y-4.181
X6.9432Y-3.678
X6.9457Y-3.2674
X6.9616Y-3.2908
X6.9688Y-3.701
X6.9851Y-3.3063
X7.0028Y-3.72
X7.0258Y-3.739
X7.0277Y-3.3383
X7.0512Y-4.3866
X7.0614Y-4.4454
X7.0676Y-3.3516
X7.0676Y-3.7474
X7.0827Y-3.1118
X7.0837Y-2.9718
X7.0878Y-4.2642
X7.1017Y-3.1978
X7.1694Y-4.172
X7.1822Y-3.9668
X7.2303Y-4.2642
X7.2303Y-4.4454
X7.2532Y-4.3568
X7.3357Y-3.4518
X7.3367Y-3.6488
X7.3377Y-3.9048
X7.4177Y-3.9888
X7.423Y-3.4321
X7.4237Y-3.1728
X7.4247Y-3.6278
X7.4257Y-3.8848
X7.4527Y-4.1378
X7.4537Y-4.0758
X7.5197Y-3.2018
X7.5487Y-3.4318
X7.5517Y-3.6278
X5.3996Y-3.4391
X5.3996Y-3.4785
X5.3996Y-3.5179
X5.439Y-3.4391
X5.439Y-3.4785
X5.439Y-3.5179
X5.4784Y-3.4391
X5.4784Y-3.4785
X5.4784Y-3.5179
T3
X4.8188Y-4.684
X4.996Y-4.684
T4
X7.9755Y-4.388
X7.9755Y-4.488
T5
X4.81Y-2.99
X4.91Y-2.99
X5.01Y-2.99
X5.11Y-2.99
X5.21Y-2.99
X5.31Y-2.99
X5.41Y-2.99
X5.51Y-2.99
X5.61Y-2.99
X5.71Y-2.99
X4.81Y-2.79
X4.91Y-2.79
X5.01Y-2.79
X5.11Y-2.79
X5.21Y-2.79
X5.31Y-2.79
X5.41Y-2.79
X5.51Y-2.79
X5.61Y-2.79
X5.71Y-2.79
X5.87Y-2.79
X5.97Y-2.79
X6.07Y-2.79
X6.17Y-2.79
X6.27Y-2.79
X6.37Y-2.79
X6.47Y-2.79
X6.57Y-2.79
X6.97Y-4.69
X7.07Y-4.69
X7.17Y-4.69
X7.27Y-4.69
X7.37Y-4.69
X7.47Y-4.69
X7.57Y-4.69
X7.67Y-4.69
X6.77Y-2.79
X6.87Y-2.79
X6.97Y-2.79
X7.07Y-2.79
X7.17Y-2.79
X7.27Y-2.79
X7.37Y-2.79
X7.47Y-2.79
X7.77Y-2.79
X7.77Y-2.89
X7.77Y-2.99
X7.77Y-3.09
X7.77Y-3.19
X7.77Y-3.29
X7.77Y-3.39
X7.77Y-3.49
X7.77Y-3.59
X7.77Y-3.69
X7.77Y-3.79
X7.77Y-3.89
X7.77Y-3.99
X7.77Y-4.09
X7.77Y-4.19
X7.77Y-4.29
X7.77Y-4.39
X7.77Y-4.49
X7.87Y-2.79
X7.87Y-2.89
X7.87Y-2.99
X7.87Y-3.09
X7.87Y-3.19
X7.87Y-3.29
X7.87Y-3.39
X7.87Y-3.49
X7.87Y-3.59
X7.87Y-3.69
X7.87Y-3.79
X7.87Y-3.89
X7.87Y-3.99
X7.87Y-4.09
X7.87Y-4.19
X7.87Y-4.29
X7.87Y-4.39
X7.87Y-4.49
X5.17Y-4.69
X5.27Y-4.69
X5.37Y-4.69
X5.47Y-4.69
X5.57Y-4.69
X5.67Y-4.69
X5.77Y-4.69
X5.87Y-4.69
X6.07Y-4.69
X6.17Y-4.69
X6.27Y-4.69
X6.37Y-4.69
X6.47Y-4.69
X6.57Y-4.69
X6.67Y-4.69
X6.77Y-4.69
T6
X4.931Y-3.3715
X4.931Y-3.4515
X4.931Y-3.5315
X5.031Y-3.3315
X5.031Y-3.4115
X5.031Y-3.4915
T7
X4.281Y-3.2949
X4.281Y-3.8481
X4.381Y-3.2949
X4.381Y-3.8481
T8
X4.7692Y-4.586
X5.0452Y-4.586
T9
X4.666Y-3.8926
X4.7211Y-3.2504
T10
X7.62Y-2.79
X4.67Y-2.79
X7.87Y-4.69
X4.62Y-4.69
T2
G00X4.186Y-4.3762
M15
G01X4.1624Y-4.3762
M16
G05
G00X4.186Y-4.7298
M15
G01X4.1624Y-4.7298
M16
G05
G00X4.4203Y-4.3904
M15
G01X4.3966Y-4.3904
M16
G05
G00X4.4203Y-4.7156
M15
G01X4.3966Y-4.7156
M16
G05
T0
M30
