G04 #@! TF.GenerationSoftware,KiCad,Pcbnew,5.1.7-a382d34a8~88~ubuntu20.04.1*
G04 #@! TF.CreationDate,2021-04-18T18:19:09-03:00*
G04 #@! TF.ProjectId,h730duino,68373330-6475-4696-9e6f-2e6b69636164,rev?*
G04 #@! TF.SameCoordinates,Original*
G04 #@! TF.FileFunction,Profile,NP*
%FSLAX46Y46*%
G04 Gerber Fmt 4.6, Leading zero omitted, Abs format (unit mm)*
G04 Created by KiCad (PCBNEW 5.1.7-a382d34a8~88~ubuntu20.04.1) date 2021-04-18 18:19:09*
%MOMM*%
%LPD*%
G01*
G04 APERTURE LIST*
G04 #@! TA.AperFunction,Profile*
%ADD10C,0.150000*%
G04 #@! TD*
G04 APERTURE END LIST*
D10*
X103378000Y-82067400D02*
X103378000Y-68326000D01*
X106095800Y-99339400D02*
X103378000Y-99339400D01*
X107111800Y-98323400D02*
G75*
G02*
X106095800Y-99339400I-1016000J0D01*
G01*
X107111800Y-95783400D02*
X107111800Y-98323400D01*
X122097800Y-95783400D02*
X107111800Y-95783400D01*
X123113800Y-94767400D02*
G75*
G02*
X122097800Y-95783400I-1016000J0D01*
G01*
X123113800Y-86639400D02*
X123113800Y-94767400D01*
X122097800Y-85623400D02*
G75*
G02*
X123113800Y-86639400I0J-1016000D01*
G01*
X107111800Y-85623400D02*
X122097800Y-85623400D01*
X107111800Y-83083400D02*
X107111800Y-85623400D01*
X106095800Y-82067400D02*
G75*
G02*
X107111800Y-83083400I0J-1016000D01*
G01*
X103378000Y-82067400D02*
X106095800Y-82067400D01*
X103378000Y-121666000D02*
X103378000Y-99339400D01*
X202438000Y-121666000D02*
X103378000Y-121666000D01*
X202438000Y-120396000D02*
X202438000Y-121666000D01*
X204978000Y-117856000D02*
X202438000Y-120396000D01*
X204978000Y-83566000D02*
X204978000Y-117856000D01*
X202438000Y-81026000D02*
X204978000Y-83566000D01*
X202438000Y-70866000D02*
X202438000Y-81026000D01*
X199898000Y-68326000D02*
X202438000Y-70866000D01*
X103378000Y-68326000D02*
X199898000Y-68326000D01*
M02*
