G04 #@! TF.GenerationSoftware,KiCad,Pcbnew,5.1.7-a382d34a8~88~ubuntu20.04.1*
G04 #@! TF.CreationDate,2021-02-19T12:51:23-03:00*
G04 #@! TF.ProjectId,h730duino,68373330-6475-4696-9e6f-2e6b69636164,rev?*
G04 #@! TF.SameCoordinates,Original*
G04 #@! TF.FileFunction,Copper,L4,Bot*
G04 #@! TF.FilePolarity,Positive*
%FSLAX46Y46*%
G04 Gerber Fmt 4.6, Leading zero omitted, Abs format (unit mm)*
G04 Created by KiCad (PCBNEW 5.1.7-a382d34a8~88~ubuntu20.04.1) date 2021-02-19 12:51:23*
%MOMM*%
%LPD*%
G01*
G04 APERTURE LIST*
G04 #@! TA.AperFunction,ComponentPad*
%ADD10O,1.727200X2.032000*%
G04 #@! TD*
G04 #@! TA.AperFunction,ComponentPad*
%ADD11O,1.700000X1.700000*%
G04 #@! TD*
G04 #@! TA.AperFunction,ComponentPad*
%ADD12R,1.700000X1.700000*%
G04 #@! TD*
G04 #@! TA.AperFunction,ComponentPad*
%ADD13O,1.400000X0.800000*%
G04 #@! TD*
G04 #@! TA.AperFunction,ComponentPad*
%ADD14C,2.100000*%
G04 #@! TD*
G04 #@! TA.AperFunction,ComponentPad*
%ADD15C,1.750000*%
G04 #@! TD*
G04 #@! TA.AperFunction,ComponentPad*
%ADD16C,0.600000*%
G04 #@! TD*
G04 #@! TA.AperFunction,ComponentPad*
%ADD17C,1.530000*%
G04 #@! TD*
G04 #@! TA.AperFunction,ComponentPad*
%ADD18C,1.725000*%
G04 #@! TD*
G04 #@! TA.AperFunction,ComponentPad*
%ADD19O,1.727200X1.727200*%
G04 #@! TD*
G04 #@! TA.AperFunction,ComponentPad*
%ADD20C,1.727200*%
G04 #@! TD*
G04 #@! TA.AperFunction,ComponentPad*
%ADD21C,4.064000*%
G04 #@! TD*
G04 #@! TA.AperFunction,ViaPad*
%ADD22C,0.500000*%
G04 #@! TD*
G04 #@! TA.AperFunction,Conductor*
%ADD23C,0.800000*%
G04 #@! TD*
G04 #@! TA.AperFunction,Conductor*
%ADD24C,0.500000*%
G04 #@! TD*
G04 #@! TA.AperFunction,Conductor*
%ADD25C,0.152400*%
G04 #@! TD*
G04 #@! TA.AperFunction,Conductor*
%ADD26C,0.300000*%
G04 #@! TD*
G04 APERTURE END LIST*
D10*
X145034000Y-75946000D03*
X142494000Y-75946000D03*
X139954000Y-75946000D03*
X137414000Y-75946000D03*
X134874000Y-75946000D03*
X132334000Y-75946000D03*
X129794000Y-75946000D03*
X127254000Y-75946000D03*
X124714000Y-75946000D03*
X122174000Y-75946000D03*
D11*
X202577700Y-113995200D03*
D12*
X202577700Y-111455200D03*
D13*
X111974400Y-111516200D03*
X111974400Y-119776200D03*
X106024400Y-120136200D03*
X106024400Y-111156200D03*
D14*
X128148400Y-116483600D03*
D15*
X126898400Y-118973600D03*
X122398400Y-118973600D03*
D14*
X121138400Y-116483600D03*
D16*
X137150600Y-89353900D03*
X138150600Y-89353900D03*
X139150600Y-89353900D03*
X137150600Y-88353900D03*
X138150600Y-88353900D03*
X139150600Y-88353900D03*
X137150600Y-87353900D03*
X138150600Y-87353900D03*
X139150600Y-87353900D03*
D14*
X119916400Y-82561100D03*
X118516400Y-98871100D03*
D17*
X125246400Y-85636100D03*
X127786400Y-86652100D03*
X125246400Y-87668100D03*
X127786400Y-88684100D03*
X125246400Y-89700100D03*
D18*
X111276400Y-97741100D03*
X108736400Y-97741100D03*
X111276400Y-83691100D03*
X108736400Y-83691100D03*
D17*
X127786400Y-84620100D03*
D19*
X199898000Y-70866000D03*
X197358000Y-70866000D03*
X199898000Y-73406000D03*
X197358000Y-73406000D03*
X199898000Y-75946000D03*
X197358000Y-75946000D03*
X199898000Y-78486000D03*
X197358000Y-78486000D03*
X199898000Y-81026000D03*
X197358000Y-81026000D03*
X199898000Y-83566000D03*
X197358000Y-83566000D03*
X199898000Y-86106000D03*
X197358000Y-86106000D03*
X199898000Y-88646000D03*
X197358000Y-88646000D03*
X199898000Y-91186000D03*
X197358000Y-91186000D03*
X199898000Y-93726000D03*
X197358000Y-93726000D03*
X199898000Y-96266000D03*
X197358000Y-96266000D03*
X199898000Y-98806000D03*
X197358000Y-98806000D03*
X199898000Y-101346000D03*
X197358000Y-101346000D03*
X199898000Y-103886000D03*
X197358000Y-103886000D03*
X199898000Y-106426000D03*
X197358000Y-106426000D03*
X199898000Y-108966000D03*
X197358000Y-108966000D03*
X199898000Y-111506000D03*
X197358000Y-111506000D03*
X199898000Y-114046000D03*
D20*
X197358000Y-114046000D03*
D10*
X149098000Y-119126000D03*
X146558000Y-119126000D03*
X144018000Y-119126000D03*
X141478000Y-119126000D03*
X138938000Y-119126000D03*
X136398000Y-119126000D03*
X133858000Y-119126000D03*
X131318000Y-119126000D03*
X171958000Y-119126000D03*
X169418000Y-119126000D03*
X166878000Y-119126000D03*
X164338000Y-119126000D03*
X161798000Y-119126000D03*
X159258000Y-119126000D03*
X156718000Y-119126000D03*
X154178000Y-119126000D03*
X194818000Y-119126000D03*
X192278000Y-119126000D03*
X189738000Y-119126000D03*
X187198000Y-119126000D03*
X184658000Y-119126000D03*
X182118000Y-119126000D03*
X179578000Y-119126000D03*
X177038000Y-119126000D03*
X145034000Y-70866000D03*
X142494000Y-70866000D03*
X139954000Y-70866000D03*
X137414000Y-70866000D03*
X134874000Y-70866000D03*
X132334000Y-70866000D03*
X129794000Y-70866000D03*
X127254000Y-70866000D03*
X124714000Y-70866000D03*
X122174000Y-70866000D03*
X166878000Y-70866000D03*
X164338000Y-70866000D03*
X161798000Y-70866000D03*
X159258000Y-70866000D03*
X156718000Y-70866000D03*
X154178000Y-70866000D03*
X151638000Y-70866000D03*
X149098000Y-70866000D03*
X189738000Y-70866000D03*
X187198000Y-70866000D03*
X184658000Y-70866000D03*
X182118000Y-70866000D03*
X179578000Y-70866000D03*
X177038000Y-70866000D03*
X174498000Y-70866000D03*
X171958000Y-70866000D03*
D21*
X117348000Y-119126000D03*
X199898000Y-119126000D03*
X118618000Y-70866000D03*
X193548000Y-70866000D03*
D22*
X189298580Y-105100120D03*
X161510980Y-96718120D03*
X161460180Y-88209120D03*
X174414180Y-75509120D03*
X179925980Y-75483720D03*
X191736980Y-87167720D03*
X191813180Y-92146120D03*
X188409580Y-101315520D03*
X186326780Y-87675720D03*
X186352180Y-92679520D03*
X186377580Y-99181920D03*
X175379380Y-100629720D03*
X168394380Y-81224120D03*
X162399680Y-100426220D03*
X174896780Y-81224120D03*
X180383180Y-81224120D03*
X184231280Y-110662720D03*
X165257480Y-105839260D03*
X191000680Y-81326020D03*
X143777000Y-88556800D03*
X142367300Y-94310500D03*
X138772600Y-96685400D03*
X134899100Y-93573900D03*
X137109500Y-82752900D03*
X132524800Y-86931200D03*
X112217200Y-107759500D03*
X121691400Y-112496600D03*
X132080000Y-110083600D03*
X132118100Y-113728500D03*
X132105400Y-106426000D03*
X117716300Y-104889300D03*
X124198000Y-108851700D03*
X118884700Y-109512100D03*
X114782600Y-102108000D03*
X129324100Y-112204500D03*
X136944100Y-109829600D03*
X149148800Y-111074200D03*
X148285200Y-111074200D03*
X149148800Y-111709200D03*
X146049700Y-108344000D03*
X137689600Y-109528600D03*
X140081300Y-113245600D03*
X138353800Y-113487200D03*
X132727700Y-116293900D03*
X109474000Y-106730800D03*
X109435900Y-102946200D03*
X166890700Y-112783620D03*
X174818040Y-111328200D03*
X160324800Y-108437680D03*
X159405320Y-112862360D03*
X166959280Y-92684600D03*
X175950880Y-106197400D03*
X182102760Y-105968800D03*
X180030120Y-108309519D03*
X179100480Y-111419640D03*
X179358759Y-112914321D03*
X183648779Y-112914321D03*
X183648779Y-108309519D03*
X166913560Y-87685880D03*
X111321960Y-69401800D03*
X112068720Y-69401800D03*
X113253810Y-70409090D03*
X113253810Y-78290532D03*
X113253810Y-74203850D03*
X113253810Y-72197250D03*
X113253810Y-76047890D03*
X111781480Y-80051800D03*
X112523160Y-80051800D03*
X113545400Y-79158880D03*
X108041440Y-72771000D03*
X161524625Y-93173871D03*
X168193059Y-76374599D03*
X133045200Y-96723200D03*
X110490000Y-81483200D03*
X174414180Y-79039720D03*
X167429180Y-78887320D03*
X164701347Y-93177487D03*
X164754687Y-88176227D03*
X175899191Y-102876731D03*
X170400980Y-100705920D03*
X188561980Y-80589120D03*
X188544835Y-87175975D03*
X188587380Y-92146120D03*
X179900199Y-79039339D03*
X189323980Y-103525320D03*
X188612780Y-98673920D03*
X163949680Y-100452220D03*
X142227000Y-88532000D03*
X114782600Y-105549700D03*
X124198000Y-105524300D03*
X182427880Y-100756720D03*
X146024900Y-106794000D03*
X144516300Y-106804000D03*
X141249400Y-106908600D03*
X173969680Y-108960920D03*
X162864800Y-108254800D03*
X139395198Y-81889600D03*
X149352000Y-93675200D03*
X148437600Y-88392000D03*
X149301200Y-84582000D03*
X107137200Y-81432400D03*
X115468400Y-77724000D03*
X118668800Y-110642400D03*
X123703080Y-102265480D03*
X170261280Y-99334320D03*
X162692080Y-103535480D03*
X163687760Y-106410760D03*
X111067855Y-115722400D03*
X114963002Y-115320000D03*
X114963002Y-115972400D03*
X130250799Y-105753679D03*
X130250799Y-107047521D03*
X130250798Y-106413300D03*
X112966500Y-104114600D03*
X111086900Y-104114600D03*
X111696500Y-104114600D03*
X112318800Y-104114600D03*
X125095000Y-104917240D03*
X167350440Y-99052031D03*
X124454920Y-104241600D03*
X168087040Y-98573421D03*
X169992040Y-98643440D03*
X125153178Y-103537778D03*
X124454920Y-102936040D03*
X170774360Y-98689160D03*
X140874898Y-86097232D03*
X175768000Y-93831590D03*
X176357280Y-93421200D03*
X149250400Y-83058000D03*
X177007520Y-94005400D03*
X145796000Y-84582000D03*
X177871120Y-94488000D03*
X149352000Y-86106000D03*
X178455320Y-94970600D03*
X149402800Y-90678000D03*
X179517649Y-95183351D03*
X149402800Y-92202000D03*
X138201400Y-85420200D03*
X164327853Y-90667853D03*
X137388600Y-85369400D03*
X168211500Y-91699080D03*
X136626600Y-85420200D03*
X168402000Y-92519500D03*
X135686800Y-91059000D03*
X135559800Y-85852000D03*
X130962400Y-86918800D03*
X130949700Y-92456000D03*
X130048000Y-82550000D03*
X138879402Y-85437802D03*
X167833040Y-93278960D03*
X160528000Y-102171500D03*
X159877967Y-102115835D03*
X120904000Y-73152000D03*
X108066840Y-71668640D03*
X120904000Y-73850500D03*
X107970320Y-73853040D03*
X121666000Y-73935410D03*
X107950000Y-76098400D03*
X110978900Y-116420900D03*
X117221000Y-114185700D03*
X167137080Y-96733360D03*
X161401760Y-111566960D03*
X169732960Y-111550930D03*
X161472880Y-110291880D03*
X169905680Y-110352840D03*
X159329120Y-111607600D03*
X168290607Y-111044087D03*
X159349440Y-110393480D03*
X168498520Y-109494320D03*
X167627447Y-82645714D03*
X166956359Y-82674841D03*
X169311320Y-82534762D03*
X168447720Y-82621120D03*
X175915320Y-83601560D03*
X175397160Y-83078320D03*
X176824640Y-83586320D03*
X176420843Y-82991960D03*
X178502978Y-84793422D03*
X177421095Y-83980021D03*
X179517040Y-85130640D03*
X169926000Y-103271320D03*
X169026840Y-103251000D03*
X168188640Y-103275310D03*
X167137080Y-103327200D03*
X175558224Y-88972261D03*
X174577873Y-89814400D03*
X175536164Y-90542065D03*
X175003695Y-91020665D03*
X175478440Y-91535440D03*
X174889160Y-92014040D03*
X175126983Y-85107921D03*
X175596913Y-85560478D03*
X175514000Y-86207600D03*
X175412400Y-86918800D03*
X175310800Y-87680804D03*
X175364977Y-88330960D03*
X170703240Y-84165440D03*
X169829480Y-84333078D03*
X168465500Y-96901000D03*
X164211000Y-105664000D03*
X134477760Y-111041180D03*
X168379140Y-100492560D03*
X168569638Y-72311260D03*
X169070020Y-72925940D03*
D23*
X197358000Y-70866000D02*
X199898000Y-70866000D01*
X141478000Y-120421400D02*
X141478000Y-119126000D01*
X196811900Y-120065800D02*
X196088000Y-120789700D01*
X197592901Y-116541599D02*
X196811900Y-117322600D01*
X202634801Y-116541599D02*
X197592901Y-116541599D01*
X204165200Y-115011200D02*
X202634801Y-116541599D01*
X201655680Y-107203240D02*
X204165200Y-109712760D01*
X196811900Y-117322600D02*
X196811900Y-120065800D01*
X204165200Y-109712760D02*
X204165200Y-115011200D01*
X201655680Y-72623680D02*
X201655680Y-107203240D01*
X141846300Y-120789700D02*
X141478000Y-120421400D01*
X196088000Y-120789700D02*
X141846300Y-120789700D01*
X199898000Y-70866000D02*
X201655680Y-72623680D01*
D24*
X118668800Y-116481436D02*
X118668800Y-110642400D01*
X121160964Y-118973600D02*
X118668800Y-116481436D01*
X122398400Y-118973600D02*
X121160964Y-118973600D01*
D25*
X123703080Y-104233650D02*
X124865271Y-105395841D01*
X130074098Y-105222050D02*
X130487017Y-105222049D01*
X123703080Y-102265480D02*
X123703080Y-104233650D01*
X124865271Y-105395841D02*
X129900307Y-105395841D01*
X129900307Y-105395841D02*
X130074098Y-105222050D01*
X130487017Y-105222049D02*
X135963223Y-99745843D01*
X135963223Y-99745843D02*
X169849757Y-99745843D01*
X169849757Y-99745843D02*
X170261280Y-99334320D01*
X162692080Y-105415080D02*
X163687760Y-106410760D01*
X162692080Y-103535480D02*
X162692080Y-105415080D01*
X114963002Y-115320000D02*
X113437480Y-115320000D01*
X113035080Y-115722400D02*
X111067855Y-115722400D01*
X113437480Y-115320000D02*
X113035080Y-115722400D01*
D24*
X130250799Y-105753679D02*
X130250799Y-107047521D01*
X111086900Y-104114600D02*
X112903000Y-104114600D01*
X120637300Y-104114600D02*
X122936000Y-106413300D01*
X112966500Y-104114600D02*
X120637300Y-104114600D01*
X122936000Y-106413300D02*
X130250798Y-106413300D01*
D25*
X166961438Y-99441033D02*
X167350440Y-99052031D01*
X125095000Y-104917240D02*
X130360760Y-104917240D01*
X135836967Y-99441033D02*
X166961438Y-99441033D01*
X130360760Y-104917240D02*
X135836967Y-99441033D01*
X165767993Y-98573421D02*
X168087040Y-98573421D01*
X130605333Y-104241600D02*
X135710711Y-99136222D01*
X124454920Y-104241600D02*
X130605333Y-104241600D01*
X135710711Y-99136222D02*
X165205192Y-99136222D01*
X165205192Y-99136222D02*
X165767993Y-98573421D01*
X169443411Y-98094811D02*
X165815536Y-98094811D01*
X165815536Y-98094811D02*
X165078936Y-98831411D01*
X169992040Y-98643440D02*
X169443411Y-98094811D01*
X130878088Y-103537778D02*
X125153178Y-103537778D01*
X135584455Y-98831411D02*
X130878088Y-103537778D01*
X165078936Y-98831411D02*
X135584455Y-98831411D01*
X169875200Y-97790000D02*
X170774360Y-98689160D01*
X165689280Y-97790000D02*
X169875200Y-97790000D01*
X164952680Y-98526600D02*
X165689280Y-97790000D01*
X131048760Y-102936040D02*
X135458200Y-98526600D01*
X124454920Y-102936040D02*
X131048760Y-102936040D01*
X135458200Y-98526600D02*
X164952680Y-98526600D01*
X175172550Y-94427040D02*
X175768000Y-93831590D01*
X161238804Y-94427040D02*
X175172550Y-94427040D01*
X150682564Y-83870800D02*
X161238804Y-94427040D01*
X143101330Y-83870800D02*
X150682564Y-83870800D01*
X140874898Y-86097232D02*
X143101330Y-83870800D01*
X174437040Y-94091760D02*
X161334590Y-94091760D01*
X175357599Y-93171201D02*
X174437040Y-94091760D01*
X150300830Y-83058000D02*
X149250400Y-83058000D01*
X161334590Y-94091760D02*
X150300830Y-83058000D01*
X176107281Y-93171201D02*
X175357599Y-93171201D01*
X176357280Y-93421200D02*
X176107281Y-93171201D01*
X146540051Y-85326051D02*
X145796000Y-84582000D01*
X151706749Y-85326051D02*
X146540051Y-85326051D01*
X161168418Y-94787720D02*
X151706749Y-85326051D01*
X176225200Y-94787720D02*
X161168418Y-94787720D01*
X177007520Y-94005400D02*
X176225200Y-94787720D01*
X152055632Y-86106000D02*
X149352000Y-86106000D01*
X161042163Y-95092531D02*
X152055632Y-86106000D01*
X176351456Y-95092531D02*
X161042163Y-95092531D01*
X176955987Y-94488000D02*
X176351456Y-95092531D01*
X177871120Y-94488000D02*
X176955987Y-94488000D01*
X150672800Y-90678000D02*
X149402800Y-90678000D01*
X156196566Y-90678000D02*
X150672800Y-90678000D01*
X176477712Y-95397342D02*
X160915908Y-95397342D01*
X176904454Y-94970600D02*
X176477712Y-95397342D01*
X160915908Y-95397342D02*
X156196566Y-90678000D01*
X178455320Y-94970600D02*
X176904454Y-94970600D01*
X150825200Y-92202000D02*
X149402800Y-92202000D01*
X157289500Y-92202000D02*
X150825200Y-92202000D01*
X160789653Y-95702153D02*
X157289500Y-92202000D01*
X176603968Y-95702153D02*
X160789653Y-95702153D01*
X176644608Y-95661513D02*
X176603968Y-95702153D01*
X179039487Y-95661513D02*
X176644608Y-95661513D01*
X179517649Y-95183351D02*
X179039487Y-95661513D01*
X150197756Y-82092789D02*
X158772820Y-90667853D01*
X141528811Y-82092789D02*
X150197756Y-82092789D01*
X158772820Y-90667853D02*
X164327853Y-90667853D01*
X138201400Y-85420200D02*
X141528811Y-82092789D01*
X166701663Y-90189243D02*
X168211500Y-91699080D01*
X150324012Y-81787978D02*
X158725277Y-90189243D01*
X140970022Y-81787978D02*
X150324012Y-81787978D01*
X137388600Y-85369400D02*
X140970022Y-81787978D01*
X158725277Y-90189243D02*
X166701663Y-90189243D01*
X168960800Y-91960700D02*
X168402000Y-92519500D01*
X168960800Y-91490800D02*
X168960800Y-91960700D01*
X167354432Y-89884432D02*
X168960800Y-91490800D01*
X158851533Y-89884432D02*
X167354432Y-89884432D01*
X150450268Y-81483167D02*
X158851533Y-89884432D01*
X140563633Y-81483167D02*
X150450268Y-81483167D01*
X136626600Y-85420200D02*
X140563633Y-81483167D01*
D24*
X135559800Y-90932000D02*
X135686800Y-91059000D01*
X125246400Y-87668100D02*
X126123700Y-87668100D01*
X127139700Y-86652100D02*
X127786400Y-86652100D01*
X126123700Y-87668100D02*
X127139700Y-86652100D01*
X127786400Y-86652100D02*
X129273300Y-86652100D01*
X129540000Y-86918800D02*
X130962400Y-86918800D01*
X129273300Y-86652100D02*
X129540000Y-86918800D01*
X135559800Y-85852000D02*
X135559800Y-90932000D01*
X131445000Y-85852000D02*
X135559800Y-85852000D01*
X130962400Y-86334600D02*
X131445000Y-85852000D01*
X130962400Y-86626700D02*
X130962400Y-86334600D01*
X130962400Y-86918800D02*
X130962400Y-86626700D01*
X130962400Y-92443300D02*
X130949700Y-92456000D01*
X130962400Y-86918800D02*
X130962400Y-92443300D01*
X131000500Y-83502500D02*
X130048000Y-82550000D01*
X131000500Y-86588600D02*
X131000500Y-83502500D01*
X130962400Y-86626700D02*
X131000500Y-86588600D01*
D25*
X161433998Y-93760101D02*
X167351899Y-93760101D01*
X141919604Y-82397600D02*
X150071497Y-82397600D01*
X138879402Y-85437802D02*
X141919604Y-82397600D01*
X150071497Y-82397600D02*
X161433998Y-93760101D01*
X167351899Y-93760101D02*
X167833040Y-93278960D01*
X177921920Y-110287534D02*
X175811895Y-108177509D01*
X194818000Y-119126000D02*
X191632830Y-115940830D01*
X160528000Y-104364254D02*
X160528000Y-102171500D01*
X175811895Y-108177509D02*
X164341255Y-108177509D01*
X191632830Y-115940830D02*
X180207910Y-115940830D01*
X180207910Y-115940830D02*
X177921920Y-113654840D01*
X164341255Y-108177509D02*
X160528000Y-104364254D01*
X177921920Y-113654840D02*
X177921920Y-110287534D01*
X159877967Y-104145287D02*
X159877967Y-102115835D01*
X192278000Y-119126000D02*
X189397640Y-116245640D01*
X177617110Y-110413790D02*
X175685639Y-108482319D01*
X175685639Y-108482319D02*
X164214999Y-108482319D01*
X177617110Y-113781096D02*
X177617110Y-110413790D01*
X189397640Y-116245640D02*
X180081654Y-116245640D01*
X180081654Y-116245640D02*
X177617110Y-113781096D01*
X164214999Y-108482319D02*
X159877967Y-104145287D01*
X108066840Y-71668640D02*
X110937040Y-71668640D01*
X110937040Y-71668640D02*
X112420390Y-73151990D01*
X120548400Y-73152000D02*
X120904000Y-73152000D01*
X120548390Y-73151990D02*
X120548400Y-73152000D01*
X112420390Y-73151990D02*
X120548390Y-73151990D01*
X115963700Y-73850500D02*
X120904000Y-73850500D01*
X115773200Y-73660000D02*
X115963700Y-73850500D01*
X111770160Y-73853040D02*
X111963200Y-73660000D01*
X111963200Y-73660000D02*
X115773200Y-73660000D01*
X107970320Y-73853040D02*
X111770160Y-73853040D01*
X121027010Y-74574400D02*
X121666000Y-73935410D01*
X113591590Y-74574400D02*
X121027010Y-74574400D01*
X112067590Y-76098400D02*
X113591590Y-74574400D01*
X107950000Y-76098400D02*
X112067590Y-76098400D01*
D26*
X110604300Y-114185700D02*
X117221000Y-114185700D01*
X110096300Y-114693700D02*
X110604300Y-114185700D01*
X110096300Y-115891853D02*
X110096300Y-114693700D01*
X110625347Y-116420900D02*
X110096300Y-115891853D01*
X110978900Y-116420900D02*
X110625347Y-116420900D01*
D25*
X193126360Y-102479170D02*
X186722690Y-96075500D01*
X186722690Y-96075500D02*
X167794940Y-96075500D01*
X193126360Y-106207560D02*
X193126360Y-102479170D01*
X194614800Y-107696000D02*
X193126360Y-106207560D01*
X167794940Y-96075500D02*
X167137080Y-96733360D01*
X201269600Y-112687100D02*
X201269600Y-108305600D01*
X200660000Y-107696000D02*
X194614800Y-107696000D01*
X201269600Y-108305600D02*
X200660000Y-107696000D01*
X202577700Y-113995200D02*
X201269600Y-112687100D01*
X169716930Y-111566960D02*
X169732960Y-111550930D01*
X161401760Y-111566960D02*
X169716930Y-111566960D01*
X169844720Y-110291880D02*
X169905680Y-110352840D01*
X161472880Y-110291880D02*
X169844720Y-110291880D01*
X159329120Y-111607600D02*
X159928560Y-111008160D01*
X168254680Y-111008160D02*
X168290607Y-111044087D01*
X159928560Y-111008160D02*
X168254680Y-111008160D01*
X167777160Y-109494320D02*
X168498520Y-109494320D01*
X167675560Y-109595920D02*
X167777160Y-109494320D01*
X160147000Y-109595920D02*
X167675560Y-109595920D01*
X159349440Y-110393480D02*
X160147000Y-109595920D01*
X198633080Y-74670920D02*
X174040800Y-74670920D01*
X167627447Y-81084273D02*
X167627447Y-82645714D01*
X174040800Y-74670920D02*
X167627447Y-81084273D01*
X199898000Y-73406000D02*
X198633080Y-74670920D01*
X197358000Y-73406000D02*
X174274480Y-73406000D01*
X174274480Y-73406000D02*
X166956359Y-80724121D01*
X166956359Y-80724121D02*
X166956359Y-82674841D01*
X174685962Y-77160120D02*
X169311320Y-82534762D01*
X199898000Y-75946000D02*
X198683880Y-77160120D01*
X198683880Y-77160120D02*
X174685962Y-77160120D01*
X197358000Y-75946000D02*
X196494401Y-76809599D01*
X196494401Y-76809599D02*
X173905688Y-76809599D01*
X173905688Y-76809599D02*
X168447720Y-82267567D01*
X168447720Y-82267567D02*
X168447720Y-82621120D01*
X177270599Y-82513359D02*
X177337700Y-82580460D01*
X176191114Y-82513359D02*
X177270599Y-82513359D01*
X175915320Y-82789153D02*
X176191114Y-82513359D01*
X175915320Y-83601560D02*
X175915320Y-82789153D01*
X177337700Y-82580460D02*
X193227980Y-82580460D01*
X193227980Y-82580460D02*
X196042280Y-79766160D01*
X198617840Y-79766160D02*
X199898000Y-78486000D01*
X196042280Y-79766160D02*
X198617840Y-79766160D01*
X196230240Y-78486000D02*
X197358000Y-78486000D01*
X192507691Y-82208549D02*
X196230240Y-78486000D01*
X175913378Y-82208549D02*
X192507691Y-82208549D01*
X175397160Y-82724767D02*
X175913378Y-82208549D01*
X175397160Y-83078320D02*
X175397160Y-82724767D01*
X176824640Y-83586320D02*
X177220880Y-83190080D01*
X177220880Y-83190080D02*
X195478400Y-83190080D01*
X195478400Y-83190080D02*
X196392800Y-82275680D01*
X198648320Y-82275680D02*
X199898000Y-81026000D01*
X196392800Y-82275680D02*
X198648320Y-82275680D01*
X196098160Y-81026000D02*
X197358000Y-81026000D01*
X194238890Y-82885270D02*
X196098160Y-81026000D01*
X176987934Y-82991960D02*
X177068470Y-82911424D01*
X177068470Y-82911424D02*
X177068470Y-82885270D01*
X176420843Y-82991960D02*
X176987934Y-82991960D01*
X177068470Y-82885270D02*
X194238890Y-82885270D01*
X180055520Y-84820760D02*
X198643240Y-84820760D01*
X179778183Y-84543423D02*
X180055520Y-84820760D01*
X198643240Y-84820760D02*
X199898000Y-83566000D01*
X179310823Y-84543423D02*
X179778183Y-84543423D01*
X179060824Y-84793422D02*
X179310823Y-84543423D01*
X178502978Y-84793422D02*
X179060824Y-84793422D01*
X177835116Y-83566000D02*
X197358000Y-83566000D01*
X177421095Y-83980021D02*
X177835116Y-83566000D01*
X179517040Y-85130640D02*
X194081400Y-85130640D01*
X195056760Y-86106000D02*
X197358000Y-86106000D01*
X194081400Y-85130640D02*
X195056760Y-86106000D01*
X193101569Y-108163969D02*
X195173600Y-110236000D01*
X188712449Y-108163969D02*
X193101569Y-108163969D01*
X184739280Y-104190800D02*
X188712449Y-108163969D01*
X170845480Y-104190800D02*
X184739280Y-104190800D01*
X198628000Y-110236000D02*
X199898000Y-108966000D01*
X195173600Y-110236000D02*
X198628000Y-110236000D01*
X169926000Y-103271320D02*
X170845480Y-104190800D01*
X194716400Y-108966000D02*
X197358000Y-108966000D01*
X193197480Y-107447080D02*
X194716400Y-108966000D01*
X188493400Y-107447080D02*
X193197480Y-107447080D01*
X171193652Y-103355332D02*
X184401652Y-103355332D01*
X184401652Y-103355332D02*
X188493400Y-107447080D01*
X170631039Y-102792719D02*
X171193652Y-103355332D01*
X169485121Y-102792719D02*
X170631039Y-102792719D01*
X169026840Y-103251000D02*
X169485121Y-102792719D01*
X196037200Y-112776000D02*
X198628000Y-112776000D01*
X184038240Y-105059480D02*
X188455872Y-109477112D01*
X168161030Y-105059480D02*
X184038240Y-105059480D01*
X166658479Y-103556929D02*
X168161030Y-105059480D01*
X188455872Y-109477112D02*
X192738312Y-109477112D01*
X166907351Y-102848599D02*
X166658479Y-103097471D01*
X198628000Y-112776000D02*
X199898000Y-111506000D01*
X166658479Y-103097471D02*
X166658479Y-103556929D01*
X167761929Y-102848599D02*
X166907351Y-102848599D01*
X192738312Y-109477112D02*
X196037200Y-112776000D01*
X168188640Y-103275310D02*
X167761929Y-102848599D01*
X195529200Y-111506000D02*
X197358000Y-111506000D01*
X192848178Y-108824978D02*
X195529200Y-111506000D01*
X188580978Y-108824978D02*
X192848178Y-108824978D01*
X184470040Y-104714040D02*
X188580978Y-108824978D01*
X168523920Y-104714040D02*
X184470040Y-104714040D01*
X167137080Y-103327200D02*
X168523920Y-104714040D01*
X146050000Y-70866000D02*
X145034000Y-70866000D01*
X146304000Y-71120000D02*
X146050000Y-70866000D01*
X146304000Y-76708000D02*
X146304000Y-71120000D01*
X147002445Y-77406445D02*
X146304000Y-76708000D01*
X152459780Y-77406445D02*
X147002445Y-77406445D01*
X167249985Y-86884385D02*
X161937720Y-86884385D01*
X169337861Y-88972261D02*
X167249985Y-86884385D01*
X161937720Y-86884385D02*
X152459780Y-77406445D01*
X175558224Y-88972261D02*
X169337861Y-88972261D01*
X143764000Y-77063600D02*
X143764000Y-71018400D01*
X144411656Y-77711256D02*
X143764000Y-77063600D01*
X161811464Y-87189196D02*
X152333524Y-77711256D01*
X143611600Y-70866000D02*
X142494000Y-70866000D01*
X152333524Y-77711256D02*
X144411656Y-77711256D01*
X164918328Y-87189196D02*
X161811464Y-87189196D01*
X166070332Y-88341200D02*
X164918328Y-87189196D01*
X167967321Y-88341200D02*
X166070332Y-88341200D01*
X143764000Y-71018400D02*
X143611600Y-70866000D01*
X174577873Y-89814400D02*
X169440521Y-89814400D01*
X169440521Y-89814400D02*
X167967321Y-88341200D01*
X169737119Y-90542065D02*
X175536164Y-90542065D01*
X167841065Y-88646011D02*
X169737119Y-90542065D01*
X165944076Y-88646011D02*
X167841065Y-88646011D01*
X164792072Y-87494007D02*
X165944076Y-88646011D01*
X161685208Y-87494007D02*
X164792072Y-87494007D01*
X152296201Y-78105000D02*
X161685208Y-87494007D01*
X141986000Y-78105000D02*
X152296201Y-78105000D01*
X141287500Y-71183500D02*
X141287500Y-77406500D01*
X140970000Y-70866000D02*
X141287500Y-71183500D01*
X141287500Y-77406500D02*
X141986000Y-78105000D01*
X139954000Y-70866000D02*
X140970000Y-70866000D01*
X138684000Y-71120000D02*
X138430000Y-70866000D01*
X138684000Y-76835000D02*
X138684000Y-71120000D01*
X140335000Y-78486000D02*
X138684000Y-76835000D01*
X152246134Y-78486000D02*
X140335000Y-78486000D01*
X160718500Y-86958366D02*
X152246134Y-78486000D01*
X160969950Y-88960950D02*
X160718500Y-88709500D01*
X167724937Y-88960950D02*
X160969950Y-88960950D01*
X138430000Y-70866000D02*
X137414000Y-70866000D01*
X169784652Y-91020665D02*
X167724937Y-88960950D01*
X160718500Y-88709500D02*
X160718500Y-86958366D01*
X175003695Y-91020665D02*
X169784652Y-91020665D01*
X136144000Y-77216000D02*
X136144000Y-71120000D01*
X137718811Y-78790811D02*
X136144000Y-77216000D01*
X152119878Y-78790811D02*
X137718811Y-78790811D01*
X160388311Y-88900744D02*
X160388311Y-87059244D01*
X160753327Y-89265761D02*
X160388311Y-88900744D01*
X135890000Y-70866000D02*
X134874000Y-70866000D01*
X167598681Y-89265761D02*
X160753327Y-89265761D01*
X160388311Y-87059244D02*
X152119878Y-78790811D01*
X169868360Y-91535440D02*
X167598681Y-89265761D01*
X136144000Y-71120000D02*
X135890000Y-70866000D01*
X175478440Y-91535440D02*
X169868360Y-91535440D01*
X133350000Y-70866000D02*
X132334000Y-70866000D01*
X133604000Y-71120000D02*
X133350000Y-70866000D01*
X135737622Y-79095622D02*
X133604000Y-76962000D01*
X133604000Y-76962000D02*
X133604000Y-71120000D01*
X160083500Y-87185500D02*
X151993622Y-79095622D01*
X151993622Y-79095622D02*
X135737622Y-79095622D01*
X160083500Y-89027000D02*
X160083500Y-87185500D01*
X160636122Y-89579622D02*
X160083500Y-89027000D01*
X167481474Y-89579622D02*
X160636122Y-89579622D01*
X169915892Y-92014040D02*
X167481474Y-89579622D01*
X174889160Y-92014040D02*
X169915892Y-92014040D01*
X161798000Y-70866000D02*
X161798000Y-84158267D01*
X162497655Y-84857922D02*
X174876984Y-84857922D01*
X174876984Y-84857922D02*
X175126983Y-85107921D01*
X161798000Y-84158267D02*
X162497655Y-84857922D01*
X162568997Y-85360330D02*
X167881265Y-85360330D01*
X167881265Y-85360330D02*
X168135852Y-85614917D01*
X159258000Y-82049333D02*
X162568997Y-85360330D01*
X168135852Y-85614917D02*
X175542474Y-85614917D01*
X159258000Y-70866000D02*
X159258000Y-82049333D01*
X175542474Y-85614917D02*
X175596913Y-85560478D01*
X168297467Y-86207600D02*
X175514000Y-86207600D01*
X167755008Y-85665141D02*
X168297467Y-86207600D01*
X156718000Y-70866000D02*
X156718000Y-79940399D01*
X162442742Y-85665141D02*
X167755008Y-85665141D01*
X156718000Y-79940399D02*
X162442742Y-85665141D01*
X154178000Y-77831465D02*
X162316487Y-85969952D01*
X154178000Y-70866000D02*
X154178000Y-77831465D01*
X162316487Y-85969952D02*
X167628751Y-85969952D01*
X167628751Y-85969952D02*
X168577599Y-86918800D01*
X168577599Y-86918800D02*
X175412400Y-86918800D01*
X151638000Y-75722531D02*
X162190232Y-86274763D01*
X168908536Y-87680804D02*
X175310800Y-87680804D01*
X167502495Y-86274763D02*
X168908536Y-87680804D01*
X151638000Y-70866000D02*
X151638000Y-75722531D01*
X162190232Y-86274763D02*
X167502495Y-86274763D01*
X167376240Y-86579574D02*
X169127626Y-88330960D01*
X169127626Y-88330960D02*
X175364977Y-88330960D01*
X162063976Y-86579574D02*
X167376240Y-86579574D01*
X149098000Y-70866000D02*
X149098000Y-73613598D01*
X149098000Y-73613598D02*
X162063976Y-86579574D01*
X165033960Y-79923640D02*
X166928800Y-78028800D01*
X165033960Y-81772760D02*
X165033960Y-79923640D01*
X168402000Y-78028800D02*
X174498000Y-71932800D01*
X166674800Y-83413600D02*
X165033960Y-81772760D01*
X169951400Y-83413600D02*
X166674800Y-83413600D01*
X174498000Y-71932800D02*
X174498000Y-70866000D01*
X166928800Y-78028800D02*
X168402000Y-78028800D01*
X170703240Y-84165440D02*
X169951400Y-83413600D01*
X171958000Y-73812400D02*
X171958000Y-70866000D01*
X164642800Y-79654400D02*
X166725600Y-77571600D01*
X164642800Y-81991200D02*
X164642800Y-79654400D01*
X168198800Y-77571600D02*
X171958000Y-73812400D01*
X166725600Y-77571600D02*
X168198800Y-77571600D01*
X166984678Y-84333078D02*
X164642800Y-81991200D01*
X169829480Y-84333078D02*
X166984678Y-84333078D01*
X171005500Y-101600000D02*
X165989000Y-101600000D01*
X172021500Y-100584000D02*
X171005500Y-101600000D01*
X172021500Y-98298000D02*
X172021500Y-100584000D01*
X164211000Y-103378000D02*
X164211000Y-105664000D01*
X165989000Y-101600000D02*
X164211000Y-103378000D01*
X170624500Y-96901000D02*
X172021500Y-98298000D01*
X168465500Y-96901000D02*
X170624500Y-96901000D01*
X134477760Y-111041180D02*
X134477760Y-106771440D01*
X134477760Y-106771440D02*
X140124180Y-101125020D01*
X140124180Y-101125020D02*
X166397940Y-101125020D01*
X167030400Y-100492560D02*
X168379140Y-100492560D01*
X166397940Y-101125020D02*
X167030400Y-100492560D01*
X124714000Y-70866000D02*
X126161800Y-69418200D01*
X126161800Y-69418200D02*
X167615334Y-69418200D01*
X167615334Y-69418200D02*
X168569638Y-70372504D01*
X168569638Y-70372504D02*
X168569638Y-72311260D01*
X123926611Y-69113389D02*
X167741589Y-69113389D01*
X169070020Y-70441820D02*
X169070020Y-72925940D01*
X122174000Y-70866000D02*
X123926611Y-69113389D01*
X167741589Y-69113389D02*
X169070020Y-70441820D01*
M02*
