G04 #@! TF.GenerationSoftware,KiCad,Pcbnew,5.1.7-a382d34a8~88~ubuntu20.04.1*
G04 #@! TF.CreationDate,2021-04-18T18:19:09-03:00*
G04 #@! TF.ProjectId,h730duino,68373330-6475-4696-9e6f-2e6b69636164,rev?*
G04 #@! TF.SameCoordinates,Original*
G04 #@! TF.FileFunction,Copper,L4,Bot*
G04 #@! TF.FilePolarity,Positive*
%FSLAX46Y46*%
G04 Gerber Fmt 4.6, Leading zero omitted, Abs format (unit mm)*
G04 Created by KiCad (PCBNEW 5.1.7-a382d34a8~88~ubuntu20.04.1) date 2021-04-18 18:19:09*
%MOMM*%
%LPD*%
G01*
G04 APERTURE LIST*
G04 #@! TA.AperFunction,ComponentPad*
%ADD10C,0.600000*%
G04 #@! TD*
G04 #@! TA.AperFunction,SMDPad,CuDef*
%ADD11R,1.600000X0.900000*%
G04 #@! TD*
G04 #@! TA.AperFunction,ComponentPad*
%ADD12O,1.700000X1.700000*%
G04 #@! TD*
G04 #@! TA.AperFunction,ComponentPad*
%ADD13R,1.700000X1.700000*%
G04 #@! TD*
G04 #@! TA.AperFunction,ComponentPad*
%ADD14O,1.400000X0.800000*%
G04 #@! TD*
G04 #@! TA.AperFunction,ComponentPad*
%ADD15C,2.100000*%
G04 #@! TD*
G04 #@! TA.AperFunction,ComponentPad*
%ADD16C,1.750000*%
G04 #@! TD*
G04 #@! TA.AperFunction,ComponentPad*
%ADD17C,1.530000*%
G04 #@! TD*
G04 #@! TA.AperFunction,ComponentPad*
%ADD18C,1.725000*%
G04 #@! TD*
G04 #@! TA.AperFunction,ComponentPad*
%ADD19O,1.727200X1.727200*%
G04 #@! TD*
G04 #@! TA.AperFunction,ComponentPad*
%ADD20C,1.727200*%
G04 #@! TD*
G04 #@! TA.AperFunction,ComponentPad*
%ADD21O,1.727200X2.032000*%
G04 #@! TD*
G04 #@! TA.AperFunction,ComponentPad*
%ADD22C,4.064000*%
G04 #@! TD*
G04 #@! TA.AperFunction,ViaPad*
%ADD23C,0.500000*%
G04 #@! TD*
G04 #@! TA.AperFunction,Conductor*
%ADD24C,0.800000*%
G04 #@! TD*
G04 #@! TA.AperFunction,Conductor*
%ADD25C,0.406400*%
G04 #@! TD*
G04 #@! TA.AperFunction,Conductor*
%ADD26C,0.203200*%
G04 #@! TD*
G04 #@! TA.AperFunction,Conductor*
%ADD27C,0.600000*%
G04 #@! TD*
G04 #@! TA.AperFunction,Conductor*
%ADD28C,0.152400*%
G04 #@! TD*
G04 #@! TA.AperFunction,Conductor*
%ADD29C,0.254000*%
G04 #@! TD*
G04 #@! TA.AperFunction,Conductor*
%ADD30C,0.500000*%
G04 #@! TD*
G04 #@! TA.AperFunction,Conductor*
%ADD31C,0.300000*%
G04 #@! TD*
G04 #@! TA.AperFunction,Conductor*
%ADD32C,0.100000*%
G04 #@! TD*
G04 APERTURE END LIST*
D10*
X137689080Y-88934800D03*
X138689080Y-88934800D03*
X139689080Y-88934800D03*
X137689080Y-87934800D03*
X138689080Y-87934800D03*
X139689080Y-87934800D03*
X137689080Y-86934800D03*
X138689080Y-86934800D03*
X139689080Y-86934800D03*
D11*
X149860000Y-113944400D03*
D10*
X150360000Y-113944400D03*
X149360000Y-113944400D03*
D11*
X144824400Y-113944400D03*
D10*
X145324400Y-113944400D03*
X144324400Y-113944400D03*
D12*
X130589020Y-104231440D03*
D13*
X128049020Y-104231440D03*
D12*
X159715200Y-99943920D03*
D13*
X159715200Y-102483920D03*
D14*
X111974400Y-111516200D03*
X111974400Y-119776200D03*
X106024400Y-120136200D03*
X106024400Y-111156200D03*
D15*
X128148400Y-116483600D03*
D16*
X126898400Y-118973600D03*
X122398400Y-118973600D03*
D15*
X121138400Y-116483600D03*
X119916400Y-82561100D03*
X118516400Y-98871100D03*
D17*
X125246400Y-85636100D03*
X127786400Y-86652100D03*
X125246400Y-87668100D03*
X127786400Y-88684100D03*
X125246400Y-89700100D03*
D18*
X111276400Y-97741100D03*
X108736400Y-97741100D03*
X111276400Y-83691100D03*
X108736400Y-83691100D03*
D17*
X127786400Y-84620100D03*
D19*
X199898000Y-70866000D03*
X197358000Y-70866000D03*
X199898000Y-73406000D03*
X197358000Y-73406000D03*
X199898000Y-75946000D03*
X197358000Y-75946000D03*
X199898000Y-78486000D03*
X197358000Y-78486000D03*
X199898000Y-81026000D03*
X197358000Y-81026000D03*
X199898000Y-83566000D03*
X197358000Y-83566000D03*
X199898000Y-86106000D03*
X197358000Y-86106000D03*
X199898000Y-88646000D03*
X197358000Y-88646000D03*
X199898000Y-91186000D03*
X197358000Y-91186000D03*
X199898000Y-93726000D03*
X197358000Y-93726000D03*
X199898000Y-96266000D03*
X197358000Y-96266000D03*
X199898000Y-98806000D03*
X197358000Y-98806000D03*
X199898000Y-101346000D03*
X197358000Y-101346000D03*
X199898000Y-103886000D03*
X197358000Y-103886000D03*
X199898000Y-106426000D03*
X197358000Y-106426000D03*
X199898000Y-108966000D03*
X197358000Y-108966000D03*
X199898000Y-111506000D03*
X197358000Y-111506000D03*
X199898000Y-114046000D03*
D20*
X197358000Y-114046000D03*
D21*
X149098000Y-119126000D03*
X146558000Y-119126000D03*
X144018000Y-119126000D03*
X141478000Y-119126000D03*
X138938000Y-119126000D03*
X136398000Y-119126000D03*
X133858000Y-119126000D03*
X131318000Y-119126000D03*
X171958000Y-119126000D03*
X169418000Y-119126000D03*
X166878000Y-119126000D03*
X164338000Y-119126000D03*
X161798000Y-119126000D03*
X159258000Y-119126000D03*
X156718000Y-119126000D03*
X154178000Y-119126000D03*
X194818000Y-119126000D03*
X192278000Y-119126000D03*
X189738000Y-119126000D03*
X187198000Y-119126000D03*
X184658000Y-119126000D03*
X182118000Y-119126000D03*
X179578000Y-119126000D03*
X177038000Y-119126000D03*
X145034000Y-70866000D03*
X142494000Y-70866000D03*
X139954000Y-70866000D03*
X137414000Y-70866000D03*
X134874000Y-70866000D03*
X132334000Y-70866000D03*
X129794000Y-70866000D03*
X127254000Y-70866000D03*
X124714000Y-70866000D03*
X122174000Y-70866000D03*
X166878000Y-70866000D03*
X164338000Y-70866000D03*
X161798000Y-70866000D03*
X159258000Y-70866000D03*
X156718000Y-70866000D03*
X154178000Y-70866000D03*
X151638000Y-70866000D03*
X149098000Y-70866000D03*
X189738000Y-70866000D03*
X187198000Y-70866000D03*
X184658000Y-70866000D03*
X182118000Y-70866000D03*
X179578000Y-70866000D03*
X177038000Y-70866000D03*
X174498000Y-70866000D03*
X171958000Y-70866000D03*
D22*
X117348000Y-119126000D03*
X199898000Y-119126000D03*
X118618000Y-70866000D03*
X193548000Y-70866000D03*
D23*
X174414180Y-75509120D03*
X179925980Y-75483720D03*
X188409580Y-101315520D03*
X186326780Y-87675720D03*
X186352180Y-92679520D03*
X186377580Y-99181920D03*
X168394380Y-81224120D03*
X162445400Y-99664220D03*
X180383180Y-81224120D03*
X165257480Y-105839260D03*
X191000680Y-81326020D03*
X112217200Y-107759500D03*
X121691400Y-112496600D03*
X139649200Y-111607600D03*
X139687300Y-115252500D03*
X139674600Y-107950000D03*
X122303160Y-106530140D03*
X109474000Y-106730800D03*
X109435900Y-102946200D03*
X166959280Y-92684600D03*
X175722280Y-106161840D03*
X166913560Y-87685880D03*
X111321960Y-69401800D03*
X112068720Y-69401800D03*
X113253810Y-70409090D03*
X113253810Y-74203850D03*
X113253810Y-72197250D03*
X113253810Y-76047890D03*
X111781480Y-80051800D03*
X112523160Y-80051800D03*
X113545400Y-79158880D03*
X108041440Y-72771000D03*
X161524625Y-93173871D03*
X118155720Y-79989680D03*
X180086000Y-107848400D03*
X185711800Y-110401400D03*
X185724800Y-111963200D03*
X180086000Y-114757200D03*
X151587200Y-116382800D03*
X153670000Y-110439200D03*
X202641200Y-100279200D03*
X182880000Y-102768400D03*
X182880000Y-105105202D03*
X165867080Y-112722660D03*
X190068200Y-93726000D03*
X162306000Y-87335360D03*
X131053840Y-110022640D03*
X127485140Y-107000040D03*
X129552700Y-107000040D03*
X115224260Y-103456440D03*
X168217009Y-76444241D03*
X192222120Y-98264980D03*
X190220600Y-89014300D03*
X185407300Y-105943400D03*
X171061380Y-114386370D03*
X174980600Y-109397800D03*
X169570400Y-111848900D03*
X174396400Y-81232832D03*
X180060600Y-106786680D03*
X136017000Y-111836200D03*
X190898780Y-87962740D03*
X136421160Y-82039160D03*
X139024360Y-98933000D03*
X135556960Y-93134480D03*
X141213540Y-92862700D03*
X131991400Y-87937040D03*
X145589760Y-85819480D03*
X145539760Y-87454440D03*
X175412400Y-100421440D03*
X132806440Y-97962720D03*
X157530800Y-96598740D03*
X117957600Y-108066840D03*
X174414180Y-79039720D03*
X167429180Y-78887320D03*
X164701347Y-93177487D03*
X164754687Y-88176227D03*
X175899191Y-102876731D03*
X170400980Y-100705920D03*
X188561980Y-80589120D03*
X188544835Y-87175975D03*
X179900199Y-79039339D03*
X188612780Y-98673920D03*
X163995400Y-99690220D03*
X146913600Y-110845600D03*
X146913600Y-112268000D03*
X146913600Y-111556800D03*
X188417200Y-92176600D03*
X121259600Y-104160320D03*
X115435380Y-104632760D03*
X112547400Y-101899720D03*
X157327598Y-100939598D03*
X132321298Y-107162600D03*
X194661600Y-97383600D03*
X186880500Y-105968800D03*
X172051984Y-114360960D03*
X174980600Y-110373158D03*
X169613579Y-110830361D03*
X164343080Y-113055400D03*
X146728031Y-100048236D03*
X146425920Y-94310200D03*
X146415760Y-91262200D03*
X146517360Y-82077560D03*
X138752580Y-79499460D03*
X138752580Y-81053940D03*
X138752580Y-80256380D03*
X143989760Y-87439800D03*
X182392320Y-100472240D03*
X114853718Y-79989678D03*
X153163270Y-95860870D03*
X178757580Y-97995740D03*
X144581880Y-100944680D03*
X179887880Y-103042720D03*
X168468040Y-109799120D03*
X111067855Y-115722400D03*
X114963002Y-115320000D03*
X114963002Y-115972400D03*
X137819999Y-107277679D03*
X137819999Y-108571521D03*
X137819998Y-107937300D03*
X112966500Y-104114600D03*
X111086900Y-104114600D03*
X111696500Y-104114600D03*
X112318800Y-104114600D03*
X153332180Y-99644200D03*
X169092742Y-97315158D03*
X149860004Y-100939600D03*
X169805350Y-96780350D03*
X172413212Y-96091448D03*
X149697440Y-97739200D03*
X172984160Y-95775780D03*
X149697440Y-97002600D03*
X177269140Y-94142560D03*
X157561280Y-93614240D03*
X183047640Y-97012760D03*
X141163040Y-80416400D03*
X178775357Y-94691197D03*
X157038040Y-94086680D03*
X176128680Y-93207840D03*
X153913840Y-91038680D03*
X174758159Y-92708919D03*
X153141680Y-91561920D03*
X173248320Y-92191840D03*
X153791922Y-92191840D03*
X138460480Y-85156040D03*
X159075120Y-89087960D03*
X158155640Y-88991440D03*
X137921125Y-84669643D03*
X158099760Y-89646760D03*
X137449560Y-85120480D03*
X138938000Y-84642960D03*
X158902400Y-88204040D03*
X190337440Y-115199160D03*
X174904400Y-107061000D03*
X164795200Y-115392200D03*
X162859720Y-102143560D03*
X161803080Y-102158800D03*
X108026200Y-71704200D03*
X172896028Y-83821865D03*
X120142000Y-73533000D03*
X108127800Y-73863200D03*
X163474400Y-83286600D03*
X108153200Y-76098400D03*
X164348160Y-86060280D03*
X119687340Y-77152500D03*
X110978900Y-116420900D03*
X117221000Y-114185700D03*
X172770800Y-100431600D03*
X193517520Y-107665520D03*
X173634400Y-107264200D03*
X170583860Y-111841280D03*
X172554900Y-109893100D03*
X172542200Y-105404920D03*
X171551600Y-110893860D03*
X171551602Y-106349800D03*
X168097200Y-86690200D03*
X167563800Y-86182200D03*
X168198800Y-89192100D03*
X168116186Y-88544950D03*
X170230800Y-89649300D03*
X169926000Y-88811100D03*
X178421347Y-76034900D03*
X177923713Y-75556300D03*
X178323891Y-77045369D03*
X177876200Y-76530200D03*
X177901600Y-78968600D03*
X177380900Y-78422500D03*
X194462400Y-86004400D03*
X178421073Y-78329405D03*
X193395600Y-86321900D03*
X193979800Y-86690200D03*
X192392300Y-85191600D03*
X192874900Y-85737700D03*
X186321700Y-84153693D03*
X191909700Y-84620100D03*
X186381171Y-85188885D03*
X185953400Y-84696300D03*
X185013600Y-89674700D03*
X185924104Y-85654414D03*
X185013600Y-90678000D03*
X184442100Y-90170000D03*
X170621960Y-103809800D03*
X170037760Y-103212900D03*
X168907460Y-103568502D03*
X167886380Y-102961440D03*
X192587880Y-115778280D03*
X185262520Y-94046040D03*
X192623440Y-104333040D03*
X185953400Y-94914720D03*
X192054480Y-116408200D03*
X192024000Y-103698040D03*
X190881000Y-116692680D03*
X190418720Y-115920520D03*
X161899600Y-77232690D03*
X162433000Y-76530200D03*
X173736000Y-81800700D03*
X174396400Y-82423000D03*
X173824900Y-82994500D03*
X174345600Y-83477100D03*
X160705798Y-78320900D03*
X161264600Y-77711300D03*
X168335960Y-111363760D03*
X168341040Y-98140520D03*
X149160383Y-75289773D03*
X149186900Y-74637900D03*
X108077000Y-70612000D03*
X115488720Y-72557640D03*
X108204000Y-77216000D03*
X117983000Y-78740000D03*
X108331000Y-78232000D03*
X119888000Y-79629000D03*
X166436040Y-108828840D03*
X167457120Y-98165920D03*
X185013600Y-91681300D03*
X184442100Y-91135200D03*
X130553460Y-82897980D03*
X136276080Y-90408760D03*
X130441400Y-87967520D03*
X135907780Y-86260940D03*
X129484120Y-92095320D03*
D24*
X197358000Y-70866000D02*
X199898000Y-70866000D01*
X141478000Y-120421400D02*
X141478000Y-119126000D01*
X141846300Y-120789700D02*
X141478000Y-120421400D01*
X196811900Y-120065800D02*
X196088000Y-120789700D01*
X196811900Y-117322600D02*
X196811900Y-120065800D01*
X198274940Y-115859560D02*
X196811900Y-117322600D01*
X200426320Y-115859560D02*
X198274940Y-115859560D01*
X201655680Y-114630200D02*
X200426320Y-115859560D01*
X201655680Y-72623680D02*
X201655680Y-114630200D01*
X196088000Y-120789700D02*
X141846300Y-120789700D01*
X199898000Y-70866000D02*
X201655680Y-72623680D01*
D25*
X136398000Y-119126000D02*
X136398000Y-117703600D01*
D26*
X175790860Y-95029020D02*
X178757580Y-97995740D01*
X153995120Y-95029020D02*
X175790860Y-95029020D01*
X153163270Y-95860870D02*
X153995120Y-95029020D01*
D27*
X126787520Y-114584480D02*
X122398400Y-118973600D01*
X133278880Y-114584480D02*
X126787520Y-114584480D01*
X136398000Y-117703600D02*
X133278880Y-114584480D01*
D25*
X138699240Y-106827320D02*
X144581880Y-100944680D01*
X138699240Y-115402360D02*
X138699240Y-106827320D01*
X136398000Y-117703600D02*
X138699240Y-115402360D01*
D28*
X178948080Y-103042720D02*
X179887880Y-103042720D01*
X177723800Y-104267000D02*
X178948080Y-103042720D01*
X172689520Y-104267000D02*
X177723800Y-104267000D01*
X168468040Y-108488480D02*
X172689520Y-104267000D01*
X168468040Y-109799120D02*
X168468040Y-108488480D01*
D29*
X144581880Y-100944680D02*
X144581880Y-98267520D01*
X146988530Y-95860870D02*
X153163270Y-95860870D01*
X144581880Y-98267520D02*
X146988530Y-95860870D01*
D28*
X114963002Y-115320000D02*
X113437480Y-115320000D01*
X113035080Y-115722400D02*
X111067855Y-115722400D01*
X113437480Y-115320000D02*
X113035080Y-115722400D01*
D30*
X137819999Y-107277679D02*
X137819999Y-108571521D01*
X111086900Y-104114600D02*
X112903000Y-104114600D01*
X137781120Y-107238800D02*
X137819999Y-107277679D01*
X112966500Y-104114600D02*
X112966500Y-105831640D01*
X112966500Y-105831640D02*
X118653560Y-111518700D01*
X134872820Y-111518700D02*
X137819999Y-108571521D01*
X118653560Y-111518700D02*
X134872820Y-111518700D01*
D28*
X165773100Y-97294700D02*
X169072284Y-97294700D01*
X164785040Y-98282760D02*
X165773100Y-97294700D01*
X169072284Y-97294700D02*
X169092742Y-97315158D01*
X154693620Y-98282760D02*
X164785040Y-98282760D01*
X153332180Y-99644200D02*
X154693620Y-98282760D01*
X149860004Y-100939600D02*
X149860004Y-100939600D01*
X165639750Y-96780350D02*
X169805350Y-96780350D01*
X164452300Y-97967800D02*
X165639750Y-96780350D01*
X153614120Y-97967800D02*
X164452300Y-97967800D01*
X150642320Y-100939600D02*
X153614120Y-97967800D01*
X149860004Y-100939600D02*
X150642320Y-100939600D01*
X155086586Y-95806260D02*
X153153646Y-97739200D01*
X172413212Y-96091448D02*
X172128024Y-95806260D01*
X172128024Y-95806260D02*
X155086586Y-95806260D01*
X153153646Y-97739200D02*
X149697440Y-97739200D01*
X172610780Y-95402400D02*
X155059380Y-95402400D01*
X153459180Y-97002600D02*
X149697440Y-97002600D01*
X172984160Y-95775780D02*
X172610780Y-95402400D01*
X155059380Y-95402400D02*
X153459180Y-97002600D01*
X158089600Y-94142560D02*
X177269140Y-94142560D01*
X157561280Y-93614240D02*
X158089600Y-94142560D01*
X149738080Y-80416400D02*
X141163040Y-80416400D01*
X183047640Y-97012760D02*
X176458880Y-90424000D01*
X156006800Y-86685120D02*
X149738080Y-80416400D01*
X176458880Y-90424000D02*
X162417760Y-90424000D01*
X162417760Y-90424000D02*
X158678880Y-86685120D01*
X158678880Y-86685120D02*
X156006800Y-86685120D01*
X157642557Y-94691197D02*
X178775357Y-94691197D01*
X157038040Y-94086680D02*
X157642557Y-94691197D01*
X173959520Y-91038680D02*
X153913840Y-91038680D01*
X176128680Y-93207840D02*
X173959520Y-91038680D01*
X174758159Y-92708919D02*
X173611160Y-91561920D01*
X173611160Y-91561920D02*
X153141680Y-91561920D01*
X173248320Y-92191840D02*
X153791922Y-92191840D01*
X139444960Y-85156040D02*
X138725764Y-85156040D01*
X139511716Y-85148518D02*
X139444960Y-85156040D01*
X139575125Y-85126330D02*
X139511716Y-85148518D01*
X139632006Y-85090589D02*
X139575125Y-85126330D01*
X139679509Y-85043086D02*
X139632006Y-85090589D01*
X139715250Y-84986205D02*
X139679509Y-85043086D01*
X139744960Y-84856040D02*
X139737438Y-84922796D01*
X139744960Y-83936944D02*
X139744960Y-84856040D01*
X139774669Y-83806778D02*
X139752481Y-83870187D01*
X139810410Y-83749897D02*
X139774669Y-83806778D01*
X139857913Y-83702394D02*
X139810410Y-83749897D01*
X139914794Y-83666653D02*
X139857913Y-83702394D01*
X140044960Y-83636944D02*
X139978203Y-83644465D01*
X140175125Y-83666653D02*
X140111716Y-83644465D01*
X140344960Y-84856040D02*
X140344960Y-83936944D01*
X140352481Y-84922796D02*
X140344960Y-84856040D01*
X139978203Y-83644465D02*
X139914794Y-83666653D01*
X140374669Y-84986205D02*
X140352481Y-84922796D01*
X140578203Y-85148518D02*
X140514794Y-85126330D01*
X140644960Y-85156040D02*
X140578203Y-85148518D01*
X140711716Y-85148518D02*
X140644960Y-85156040D01*
X140775125Y-85126330D02*
X140711716Y-85148518D01*
X140832006Y-85090589D02*
X140775125Y-85126330D01*
X140879509Y-85043086D02*
X140832006Y-85090589D01*
X140915250Y-84986205D02*
X140879509Y-85043086D01*
X140944960Y-83936944D02*
X140944960Y-84856040D01*
X140952481Y-83870187D02*
X140944960Y-83936944D01*
X140974669Y-83806778D02*
X140952481Y-83870187D01*
X141010410Y-83749897D02*
X140974669Y-83806778D01*
X141114794Y-83666653D02*
X141057913Y-83702394D01*
X141178203Y-83644465D02*
X141114794Y-83666653D01*
X141375125Y-83666653D02*
X141311716Y-83644465D01*
X141432006Y-83702394D02*
X141375125Y-83666653D01*
X146711716Y-85148518D02*
X146644960Y-85156040D01*
X144375125Y-85126330D02*
X144311716Y-85148518D01*
X146879509Y-85043086D02*
X146832006Y-85090589D01*
X142210410Y-83749897D02*
X142174669Y-83806778D01*
X150844960Y-83636944D02*
X150778203Y-83644465D01*
X147244960Y-83636944D02*
X147178203Y-83644465D01*
X145204508Y-85275136D02*
X145191257Y-85273644D01*
X147479509Y-83749897D02*
X147432006Y-83702394D01*
X143915250Y-83806778D02*
X143879509Y-83749897D01*
X147515250Y-83806778D02*
X147479509Y-83749897D01*
X147375125Y-83666653D02*
X147311716Y-83644465D01*
X140279509Y-83749897D02*
X140232006Y-83702394D01*
X144544960Y-84856040D02*
X144537438Y-84922796D01*
X147544960Y-84856040D02*
X147544960Y-83936944D01*
X150311716Y-85148518D02*
X150244960Y-85156040D01*
X140514794Y-85126330D02*
X140457913Y-85090589D01*
X148144960Y-84856040D02*
X148137438Y-84922796D01*
X141537438Y-83870187D02*
X141515250Y-83806778D01*
X148032006Y-85090589D02*
X147975125Y-85126330D01*
X147778203Y-85148518D02*
X147714794Y-85126330D01*
X149175125Y-85126330D02*
X149111716Y-85148518D01*
X148137438Y-84922796D02*
X148115250Y-84986205D01*
X147057913Y-83702394D02*
X147010410Y-83749897D01*
X145685412Y-85275136D02*
X145204508Y-85275136D01*
X148174669Y-83806778D02*
X148152481Y-83870187D01*
X143711716Y-83644465D02*
X143644960Y-83636944D01*
X140944960Y-84856040D02*
X140937438Y-84922796D01*
X148144960Y-83936944D02*
X148144960Y-84856040D01*
X148210410Y-83749897D02*
X148174669Y-83806778D01*
X148444960Y-83636944D02*
X148378203Y-83644465D01*
X148575125Y-83666653D02*
X148511716Y-83644465D01*
X147544960Y-83936944D02*
X147537438Y-83870187D01*
X148715250Y-83806778D02*
X148679509Y-83749897D01*
X142744960Y-84856040D02*
X142744960Y-83936944D01*
X140937438Y-84922796D02*
X140915250Y-84986205D01*
X146952481Y-83870187D02*
X146944960Y-83936944D01*
X148774669Y-84986205D02*
X148752481Y-84922796D01*
X148978203Y-85148518D02*
X148914794Y-85126330D01*
X150574669Y-83806778D02*
X150552481Y-83870187D01*
X146457913Y-85090589D02*
X146410410Y-85043086D01*
X148737438Y-83870187D02*
X148715250Y-83806778D01*
X142144960Y-84856040D02*
X142137438Y-84922796D01*
X145722539Y-85262145D02*
X145711248Y-85269239D01*
X142444960Y-83636944D02*
X142378203Y-83644465D01*
X147975125Y-85126330D02*
X147911716Y-85148518D01*
X148378203Y-83644465D02*
X148314794Y-83666653D01*
X150975125Y-83666653D02*
X150911716Y-83644465D01*
X144432006Y-85090589D02*
X144375125Y-85126330D01*
X149044960Y-85156040D02*
X148978203Y-85148518D01*
X149111716Y-85148518D02*
X149044960Y-85156040D01*
X148257913Y-83702394D02*
X148210410Y-83749897D01*
X146315250Y-83806778D02*
X146279509Y-83749897D01*
X146644960Y-85156040D02*
X146578203Y-85148518D01*
X149232006Y-85090589D02*
X149175125Y-85126330D01*
X146775125Y-85126330D02*
X146711716Y-85148518D01*
X143775125Y-83666653D02*
X143711716Y-83644465D01*
X149279509Y-85043086D02*
X149232006Y-85090589D01*
X144244960Y-85156040D02*
X144178203Y-85148518D01*
X147714794Y-85126330D02*
X147657913Y-85090589D01*
X145698662Y-85273644D02*
X145685412Y-85275136D01*
X144311716Y-85148518D02*
X144244960Y-85156040D01*
X149315250Y-84986205D02*
X149279509Y-85043086D01*
X148511716Y-83644465D02*
X148444960Y-83636944D01*
X139752481Y-83870187D02*
X139744960Y-83936944D01*
X149374669Y-83806778D02*
X149352481Y-83870187D01*
X146578203Y-85148518D02*
X146514794Y-85126330D01*
X146944960Y-83936944D02*
X146944960Y-84856040D01*
X149711716Y-83644465D02*
X149644960Y-83636944D01*
X148115250Y-84986205D02*
X148079509Y-85043086D01*
X149344960Y-83936944D02*
X149344960Y-84856040D01*
X150432006Y-85090589D02*
X150375125Y-85126330D01*
X139737438Y-84922796D02*
X139715250Y-84986205D01*
X150714794Y-83666653D02*
X150657913Y-83702394D01*
X149337438Y-84922796D02*
X149315250Y-84986205D01*
X145157951Y-85252716D02*
X145150857Y-85241425D01*
X141778203Y-85148518D02*
X141714794Y-85126330D01*
X142857913Y-85090589D02*
X142810410Y-85043086D01*
X151032006Y-83702394D02*
X150975125Y-83666653D01*
X151444960Y-85156040D02*
X151378203Y-85148518D01*
X143937438Y-83870187D02*
X143915250Y-83806778D01*
X159075120Y-89087960D02*
X158348680Y-88361520D01*
X150375125Y-85126330D02*
X150311716Y-85148518D01*
X151174669Y-84986205D02*
X151152481Y-84922796D01*
X149915250Y-83806778D02*
X149879509Y-83749897D01*
X158348680Y-88361520D02*
X156443680Y-88361520D01*
X147114794Y-83666653D02*
X147057913Y-83702394D01*
X147010410Y-83749897D02*
X146974669Y-83806778D01*
X149974669Y-84986205D02*
X149952481Y-84922796D01*
X141311716Y-83644465D02*
X141244960Y-83636944D01*
X150552481Y-83870187D02*
X150544960Y-83936944D01*
X151137438Y-83870187D02*
X151115250Y-83806778D01*
X145914794Y-83666653D02*
X145857913Y-83702394D01*
X156443680Y-88361520D02*
X153238200Y-85156040D01*
X142511716Y-83644465D02*
X142444960Y-83636944D01*
X150178203Y-85148518D02*
X150114794Y-85126330D01*
X147432006Y-83702394D02*
X147375125Y-83666653D01*
X149832006Y-83702394D02*
X149775125Y-83666653D01*
X145731968Y-85252716D02*
X145722539Y-85262145D01*
X150657913Y-83702394D02*
X150610410Y-83749897D01*
X144515250Y-84986205D02*
X144479509Y-85043086D01*
X146937438Y-84922796D02*
X146915250Y-84986205D01*
X140457913Y-85090589D02*
X140410410Y-85043086D01*
X151152481Y-84922796D02*
X151144960Y-84856040D01*
X147537438Y-83870187D02*
X147515250Y-83806778D01*
X141244960Y-83636944D02*
X141178203Y-83644465D01*
X145743467Y-85228839D02*
X145739062Y-85241425D01*
X140111716Y-83644465D02*
X140044960Y-83636944D01*
X151314794Y-85126330D02*
X151257913Y-85090589D01*
X153238200Y-85156040D02*
X151444960Y-85156040D01*
X145191257Y-85273644D02*
X145178671Y-85269239D01*
X147844960Y-85156040D02*
X147778203Y-85148518D01*
X148752481Y-84922796D02*
X148744960Y-84856040D01*
X150537438Y-84922796D02*
X150515250Y-84986205D01*
X151144960Y-84856040D02*
X151144960Y-83936944D01*
X150114794Y-85126330D02*
X150057913Y-85090589D01*
X149352481Y-83870187D02*
X149344960Y-83936944D01*
X148079509Y-85043086D02*
X148032006Y-85090589D01*
X141844960Y-85156040D02*
X141778203Y-85148518D01*
X150010410Y-85043086D02*
X149974669Y-84986205D01*
X141057913Y-83702394D02*
X141010410Y-83749897D01*
X151257913Y-85090589D02*
X151210410Y-85043086D01*
X145711248Y-85269239D02*
X145698662Y-85273644D01*
X147657913Y-85090589D02*
X147610410Y-85043086D01*
X144537438Y-84922796D02*
X144515250Y-84986205D01*
X142144960Y-83936944D02*
X142144960Y-84856040D01*
X150610410Y-83749897D02*
X150574669Y-83806778D01*
X145857913Y-83702394D02*
X145810410Y-83749897D01*
X145032006Y-83702394D02*
X144975125Y-83666653D01*
X142715250Y-83806778D02*
X142679509Y-83749897D01*
X151210410Y-85043086D02*
X151174669Y-84986205D01*
X143344960Y-83936944D02*
X143344960Y-84856040D01*
X149514794Y-83666653D02*
X149457913Y-83702394D01*
X144479509Y-85043086D02*
X144432006Y-85090589D01*
X148314794Y-83666653D02*
X148257913Y-83702394D01*
X142137438Y-84922796D02*
X142115250Y-84986205D01*
X143944960Y-83936944D02*
X143937438Y-83870187D01*
X151079509Y-83749897D02*
X151032006Y-83702394D01*
X149944960Y-83936944D02*
X149937438Y-83870187D01*
X144057913Y-85090589D02*
X144010410Y-85043086D01*
X150544960Y-83936944D02*
X150544960Y-84856040D01*
X146514794Y-85126330D02*
X146457913Y-85090589D01*
X143232006Y-85090589D02*
X143175125Y-85126330D01*
X142079509Y-85043086D02*
X142032006Y-85090589D01*
X150544960Y-84856040D02*
X150537438Y-84922796D01*
X146832006Y-85090589D02*
X146775125Y-85126330D01*
X146915250Y-84986205D02*
X146879509Y-85043086D01*
X143352481Y-83870187D02*
X143344960Y-83936944D01*
X150057913Y-85090589D02*
X150010410Y-85043086D01*
X140315250Y-83806778D02*
X140279509Y-83749897D01*
X144544960Y-83936944D02*
X144544960Y-84856040D01*
X148914794Y-85126330D02*
X148857913Y-85090589D01*
X149952481Y-84922796D02*
X149944960Y-84856040D01*
X149937438Y-83870187D02*
X149915250Y-83806778D01*
X149879509Y-83749897D02*
X149832006Y-83702394D01*
X149944960Y-84856040D02*
X149944960Y-83936944D01*
X149644960Y-83636944D02*
X149578203Y-83644465D01*
X149578203Y-83644465D02*
X149514794Y-83666653D01*
X151144960Y-83936944D02*
X151137438Y-83870187D01*
X149775125Y-83666653D02*
X149711716Y-83644465D01*
X150515250Y-84986205D02*
X150479509Y-85043086D01*
X149410410Y-83749897D02*
X149374669Y-83806778D01*
X149457913Y-83702394D02*
X149410410Y-83749897D01*
X144714794Y-83666653D02*
X144657913Y-83702394D01*
X143578203Y-83644465D02*
X143514794Y-83666653D01*
X147911716Y-85148518D02*
X147844960Y-85156040D01*
X146337438Y-83870187D02*
X146315250Y-83806778D01*
X149344960Y-84856040D02*
X149337438Y-84922796D01*
X146410410Y-85043086D02*
X146374669Y-84986205D01*
X145774669Y-83806778D02*
X145752481Y-83870187D01*
X148679509Y-83749897D02*
X148632006Y-83702394D01*
X151378203Y-85148518D02*
X151314794Y-85126330D01*
X146374669Y-84986205D02*
X146352481Y-84922796D01*
X146044960Y-83636944D02*
X145978203Y-83644465D01*
X146352481Y-84922796D02*
X146344960Y-84856040D01*
X145079509Y-83749897D02*
X145032006Y-83702394D01*
X142737438Y-83870187D02*
X142715250Y-83806778D01*
X144114794Y-85126330D02*
X144057913Y-85090589D01*
X146344960Y-83936944D02*
X146337438Y-83870187D01*
X142174669Y-83806778D02*
X142152481Y-83870187D01*
X146279509Y-83749897D02*
X146232006Y-83702394D01*
X146175125Y-83666653D02*
X146111716Y-83644465D01*
X146111716Y-83644465D02*
X146044960Y-83636944D01*
X140232006Y-83702394D02*
X140175125Y-83666653D01*
X145978203Y-83644465D02*
X145914794Y-83666653D01*
X145810410Y-83749897D02*
X145774669Y-83806778D01*
X148810410Y-85043086D02*
X148774669Y-84986205D01*
X144844960Y-83636944D02*
X144778203Y-83644465D01*
X145752481Y-83870187D02*
X145744960Y-83936944D01*
X145144960Y-83936944D02*
X145137438Y-83870187D01*
X141574669Y-84986205D02*
X141552481Y-84922796D01*
X145744960Y-83936944D02*
X145744960Y-85215588D01*
X138725764Y-85156040D02*
X138460480Y-85156040D01*
X144975125Y-83666653D02*
X144911716Y-83644465D01*
X142679509Y-83749897D02*
X142632006Y-83702394D01*
X145744960Y-85215588D02*
X145743467Y-85228839D01*
X142115250Y-84986205D02*
X142079509Y-85043086D01*
X145739062Y-85241425D02*
X145731968Y-85252716D01*
X145178671Y-85269239D02*
X145167380Y-85262145D01*
X145167380Y-85262145D02*
X145157951Y-85252716D01*
X145150857Y-85241425D02*
X145146452Y-85228839D01*
X147552481Y-84922796D02*
X147544960Y-84856040D01*
X141714794Y-85126330D02*
X141657913Y-85090589D01*
X146344960Y-84856040D02*
X146344960Y-83936944D01*
X145146452Y-85228839D02*
X145144960Y-85215588D01*
X142810410Y-85043086D02*
X142774669Y-84986205D01*
X145144960Y-85215588D02*
X145144960Y-83936944D01*
X145137438Y-83870187D02*
X145115250Y-83806778D01*
X146944960Y-84856040D02*
X146937438Y-84922796D01*
X147311716Y-83644465D02*
X147244960Y-83636944D01*
X148744960Y-83936944D02*
X148737438Y-83870187D01*
X141552481Y-84922796D02*
X141544960Y-84856040D01*
X145115250Y-83806778D02*
X145079509Y-83749897D01*
X150778203Y-83644465D02*
X150714794Y-83666653D01*
X141544960Y-84856040D02*
X141544960Y-83936944D01*
X144911716Y-83644465D02*
X144844960Y-83636944D01*
X140410410Y-85043086D02*
X140374669Y-84986205D01*
X147610410Y-85043086D02*
X147574669Y-84986205D01*
X148632006Y-83702394D02*
X148575125Y-83666653D01*
X144778203Y-83644465D02*
X144714794Y-83666653D01*
X148857913Y-85090589D02*
X148810410Y-85043086D01*
X148744960Y-84856040D02*
X148744960Y-83936944D01*
X143644960Y-83636944D02*
X143578203Y-83644465D01*
X146232006Y-83702394D02*
X146175125Y-83666653D01*
X144657913Y-83702394D02*
X144610410Y-83749897D01*
X147574669Y-84986205D02*
X147552481Y-84922796D01*
X150244960Y-85156040D02*
X150178203Y-85148518D01*
X144610410Y-83749897D02*
X144574669Y-83806778D01*
X142314794Y-83666653D02*
X142257913Y-83702394D01*
X140344960Y-83936944D02*
X140337438Y-83870187D01*
X144574669Y-83806778D02*
X144552481Y-83870187D01*
X143410410Y-83749897D02*
X143374669Y-83806778D01*
X140337438Y-83870187D02*
X140315250Y-83806778D01*
X148152481Y-83870187D02*
X148144960Y-83936944D01*
X144552481Y-83870187D02*
X144544960Y-83936944D01*
X143374669Y-83806778D02*
X143352481Y-83870187D01*
X144178203Y-85148518D02*
X144114794Y-85126330D01*
X143044960Y-85156040D02*
X142978203Y-85148518D01*
X141911716Y-85148518D02*
X141844960Y-85156040D01*
X144010410Y-85043086D02*
X143974669Y-84986205D01*
X143974669Y-84986205D02*
X143952481Y-84922796D01*
X141657913Y-85090589D02*
X141610410Y-85043086D01*
X146974669Y-83806778D02*
X146952481Y-83870187D01*
X143952481Y-84922796D02*
X143944960Y-84856040D01*
X141610410Y-85043086D02*
X141574669Y-84986205D01*
X143944960Y-84856040D02*
X143944960Y-83936944D01*
X143879509Y-83749897D02*
X143832006Y-83702394D01*
X143832006Y-83702394D02*
X143775125Y-83666653D01*
X151115250Y-83806778D02*
X151079509Y-83749897D01*
X150479509Y-85043086D02*
X150432006Y-85090589D01*
X143514794Y-83666653D02*
X143457913Y-83702394D01*
X143457913Y-83702394D02*
X143410410Y-83749897D01*
X143344960Y-84856040D02*
X143337438Y-84922796D01*
X143337438Y-84922796D02*
X143315250Y-84986205D01*
X143315250Y-84986205D02*
X143279509Y-85043086D01*
X143279509Y-85043086D02*
X143232006Y-85090589D01*
X143175125Y-85126330D02*
X143111716Y-85148518D01*
X142032006Y-85090589D02*
X141975125Y-85126330D01*
X150911716Y-83644465D02*
X150844960Y-83636944D01*
X143111716Y-85148518D02*
X143044960Y-85156040D01*
X141975125Y-85126330D02*
X141911716Y-85148518D01*
X142978203Y-85148518D02*
X142914794Y-85126330D01*
X142914794Y-85126330D02*
X142857913Y-85090589D01*
X142774669Y-84986205D02*
X142752481Y-84922796D01*
X142752481Y-84922796D02*
X142744960Y-84856040D01*
X142744960Y-83936944D02*
X142737438Y-83870187D01*
X142632006Y-83702394D02*
X142575125Y-83666653D01*
X142575125Y-83666653D02*
X142511716Y-83644465D01*
X142378203Y-83644465D02*
X142314794Y-83666653D01*
X142257913Y-83702394D02*
X142210410Y-83749897D01*
X142152481Y-83870187D02*
X142144960Y-83936944D01*
X141544960Y-83936944D02*
X141537438Y-83870187D01*
X141515250Y-83806778D02*
X141479509Y-83749897D01*
X147178203Y-83644465D02*
X147114794Y-83666653D01*
X141479509Y-83749897D02*
X141432006Y-83702394D01*
X146290676Y-88983918D02*
X146223920Y-88991440D01*
X146458469Y-88878486D02*
X146410966Y-88925989D01*
X146494210Y-88821605D02*
X146458469Y-88878486D01*
X146823920Y-87112758D02*
X146757163Y-87120279D01*
X147153629Y-88821605D02*
X147131441Y-88758196D01*
X147189370Y-88878486D02*
X147153629Y-88821605D01*
X147236873Y-88925989D02*
X147189370Y-88878486D01*
X147731441Y-87346001D02*
X147723920Y-87412758D01*
X140588989Y-85719909D02*
X138155942Y-85719909D01*
X147789370Y-87225711D02*
X147753629Y-87282592D01*
X147836873Y-87178208D02*
X147789370Y-87225711D01*
X148154085Y-87142467D02*
X148090676Y-87120279D01*
X148210966Y-87178208D02*
X148154085Y-87142467D01*
X148258469Y-87225711D02*
X148210966Y-87178208D01*
X146523920Y-88691440D02*
X146516398Y-88758196D01*
X148294210Y-87282592D02*
X148258469Y-87225711D01*
X146531441Y-87346001D02*
X146523920Y-87412758D01*
X148323920Y-87412758D02*
X148316398Y-87346001D01*
X146553629Y-87282592D02*
X146531441Y-87346001D01*
X148323920Y-88691440D02*
X148323920Y-87412758D01*
X146589370Y-87225711D02*
X146553629Y-87282592D01*
X148331441Y-88758196D02*
X148323920Y-88691440D01*
X146693754Y-87142467D02*
X146636873Y-87178208D01*
X148389370Y-88878486D02*
X148353629Y-88821605D01*
X148493754Y-88961730D02*
X148436873Y-88925989D01*
X146890676Y-87120279D02*
X146823920Y-87112758D01*
X148557163Y-88983918D02*
X148493754Y-88961730D01*
X146954085Y-87142467D02*
X146890676Y-87120279D01*
X148623920Y-88991440D02*
X148557163Y-88983918D01*
X147010966Y-87178208D02*
X146954085Y-87142467D01*
X148690676Y-88983918D02*
X148623920Y-88991440D01*
X147116398Y-87346001D02*
X147094210Y-87282592D01*
X148858469Y-88878486D02*
X148810966Y-88925989D01*
X147123920Y-87412758D02*
X147116398Y-87346001D01*
X148894210Y-88821605D02*
X148858469Y-88878486D01*
X147554085Y-88961730D02*
X147490676Y-88983918D01*
X149223920Y-87112758D02*
X149157163Y-87120279D01*
X149410966Y-87178208D02*
X149354085Y-87142467D01*
X149458469Y-87225711D02*
X149410966Y-87178208D01*
X149494210Y-87282592D02*
X149458469Y-87225711D01*
X149516398Y-87346001D02*
X149494210Y-87282592D01*
X149523920Y-87412758D02*
X149516398Y-87346001D01*
X149523920Y-88691440D02*
X149523920Y-87412758D01*
X149531441Y-88758196D02*
X149523920Y-88691440D01*
X149553629Y-88821605D02*
X149531441Y-88758196D01*
X149636873Y-88925989D02*
X149589370Y-88878486D01*
X149693754Y-88961730D02*
X149636873Y-88925989D01*
X149757163Y-88983918D02*
X149693754Y-88961730D01*
X149890676Y-88983918D02*
X149823920Y-88991440D01*
X149954085Y-88961730D02*
X149890676Y-88983918D01*
X147131441Y-88758196D02*
X147123920Y-88691440D01*
X150010966Y-88925989D02*
X149954085Y-88961730D01*
X150094210Y-88821605D02*
X150058469Y-88878486D01*
X150116398Y-88758196D02*
X150094210Y-88821605D01*
X150123920Y-88691440D02*
X150116398Y-88758196D01*
X147357163Y-88983918D02*
X147293754Y-88961730D01*
X150123920Y-87412758D02*
X150123920Y-88691440D01*
X150189370Y-87225711D02*
X150153629Y-87282592D01*
X150236873Y-87178208D02*
X150189370Y-87225711D01*
X150357163Y-87120279D02*
X150293754Y-87142467D01*
X150423920Y-87112758D02*
X150357163Y-87120279D01*
X150554085Y-87142467D02*
X150490676Y-87120279D01*
X150610966Y-87178208D02*
X150554085Y-87142467D01*
X150658469Y-87225711D02*
X150610966Y-87178208D01*
X150723920Y-87412758D02*
X150716398Y-87346001D01*
X150723920Y-88691440D02*
X150723920Y-87412758D01*
X147123920Y-88691440D02*
X147123920Y-87412758D01*
X148916398Y-88758196D02*
X148894210Y-88821605D01*
X150731441Y-88758196D02*
X150723920Y-88691440D01*
X153731441Y-87346001D02*
X153723920Y-87412758D01*
X147058469Y-87225711D02*
X147010966Y-87178208D01*
X148754085Y-88961730D02*
X148690676Y-88983918D01*
X153753629Y-87282592D02*
X153731441Y-87346001D01*
X149823920Y-88991440D02*
X149757163Y-88983918D01*
X153893754Y-87142467D02*
X153836873Y-87178208D01*
X147723920Y-87412758D02*
X147723920Y-88691440D01*
X154090676Y-87120279D02*
X154023920Y-87112758D01*
X153490676Y-88983918D02*
X153423920Y-88991440D01*
X148931441Y-87346001D02*
X148923920Y-87412758D01*
X150836873Y-88925989D02*
X150789370Y-88878486D01*
X154154085Y-87142467D02*
X154090676Y-87120279D01*
X150716398Y-87346001D02*
X150694210Y-87282592D01*
X153554085Y-88961730D02*
X153490676Y-88983918D01*
X153610966Y-88925989D02*
X153554085Y-88961730D01*
X146523920Y-87412758D02*
X146523920Y-88691440D01*
X148316398Y-87346001D02*
X148294210Y-87282592D01*
X153189370Y-88878486D02*
X153153629Y-88821605D01*
X146636873Y-87178208D02*
X146589370Y-87225711D01*
X148353629Y-88821605D02*
X148331441Y-88758196D01*
X154258469Y-87225711D02*
X154210966Y-87178208D01*
X153957163Y-87120279D02*
X153893754Y-87142467D01*
X137928161Y-84676679D02*
X137921125Y-84669643D01*
X152636873Y-87178208D02*
X152589370Y-87225711D01*
X149589370Y-88878486D02*
X149553629Y-88821605D01*
X153094210Y-87282592D02*
X153058469Y-87225711D01*
X152458469Y-88878486D02*
X152410966Y-88925989D01*
X150058469Y-88878486D02*
X150010966Y-88925989D01*
X153357163Y-88983918D02*
X153293754Y-88961730D01*
X153116398Y-87346001D02*
X153094210Y-87282592D01*
X154023920Y-87112758D02*
X153957163Y-87120279D01*
X153423920Y-88991440D02*
X153357163Y-88983918D01*
X153123920Y-87412758D02*
X153116398Y-87346001D01*
X153694210Y-88821605D02*
X153658469Y-88878486D01*
X147094210Y-87282592D02*
X147058469Y-87225711D01*
X154493754Y-88961730D02*
X154436873Y-88925989D01*
X153236873Y-88925989D02*
X153189370Y-88878486D01*
X150293754Y-87142467D02*
X150236873Y-87178208D01*
X154389370Y-88878486D02*
X154353629Y-88821605D01*
X153153629Y-88821605D02*
X153131441Y-88758196D01*
X154623920Y-88991440D02*
X154557163Y-88983918D01*
X151353629Y-87282592D02*
X151331441Y-87346001D01*
X154557163Y-88983918D02*
X154493754Y-88961730D01*
X147723920Y-88691440D02*
X147716398Y-88758196D01*
X153293754Y-88961730D02*
X153236873Y-88925989D01*
X148810966Y-88925989D02*
X148754085Y-88961730D01*
X155458469Y-88425711D02*
X155410966Y-88378208D01*
X146354085Y-88961730D02*
X146290676Y-88983918D01*
X148023920Y-87112758D02*
X147957163Y-87120279D01*
X153723920Y-88691440D02*
X153716398Y-88758196D01*
X155757163Y-88983918D02*
X155693754Y-88961730D01*
X155523920Y-88691440D02*
X155523920Y-88612758D01*
X154953629Y-88482592D02*
X154931441Y-88546001D01*
X151389370Y-87225711D02*
X151353629Y-87282592D01*
X146516398Y-88758196D02*
X146494210Y-88821605D01*
X155516398Y-88546001D02*
X155494210Y-88482592D01*
X153789370Y-87225711D02*
X153753629Y-87282592D01*
X154858469Y-88878486D02*
X154810966Y-88925989D01*
X152523920Y-88691440D02*
X152516398Y-88758196D01*
X149036873Y-87178208D02*
X148989370Y-87225711D01*
X151023920Y-88991440D02*
X150957163Y-88983918D01*
X154754085Y-88961730D02*
X154690676Y-88983918D01*
X151916398Y-87346001D02*
X151894210Y-87282592D01*
X153123920Y-88691440D02*
X153123920Y-87412758D01*
X158155640Y-88991440D02*
X155823920Y-88991440D01*
X147716398Y-88758196D02*
X147694210Y-88821605D01*
X152553629Y-87282592D02*
X152531441Y-87346001D01*
X151210966Y-88925989D02*
X151154085Y-88961730D01*
X147957163Y-87120279D02*
X147893754Y-87142467D01*
X155589370Y-88878486D02*
X155553629Y-88821605D01*
X149354085Y-87142467D02*
X149290676Y-87120279D01*
X151294210Y-88821605D02*
X151258469Y-88878486D01*
X155354085Y-88342467D02*
X155290676Y-88320279D01*
X154323920Y-88691440D02*
X154323920Y-87412758D01*
X155157163Y-88320279D02*
X155093754Y-88342467D01*
X147893754Y-87142467D02*
X147836873Y-87178208D01*
X154294210Y-87282592D02*
X154258469Y-87225711D01*
X154989370Y-88425711D02*
X154953629Y-88482592D01*
X150490676Y-87120279D02*
X150423920Y-87112758D01*
X154690676Y-88983918D02*
X154623920Y-88991440D01*
X151493754Y-87142467D02*
X151436873Y-87178208D01*
X147423920Y-88991440D02*
X147357163Y-88983918D01*
X150131441Y-87346001D02*
X150123920Y-87412758D01*
X155823920Y-88991440D02*
X155757163Y-88983918D01*
X155410966Y-88378208D02*
X155354085Y-88342467D01*
X150694210Y-87282592D02*
X150658469Y-87225711D01*
X155531441Y-88758196D02*
X155523920Y-88691440D01*
X146410966Y-88925989D02*
X146354085Y-88961730D01*
X148090676Y-87120279D02*
X148023920Y-87112758D01*
X154353629Y-88821605D02*
X154331441Y-88758196D01*
X155290676Y-88320279D02*
X155223920Y-88312758D01*
X155523920Y-88612758D02*
X155516398Y-88546001D01*
X155636873Y-88925989D02*
X155589370Y-88878486D01*
X152494210Y-88821605D02*
X152458469Y-88878486D01*
X146757163Y-87120279D02*
X146693754Y-87142467D01*
X148436873Y-88925989D02*
X148389370Y-88878486D01*
X154931441Y-88546001D02*
X154923920Y-88612758D01*
X154923920Y-88612758D02*
X154923920Y-88691440D01*
X148923920Y-88691440D02*
X148916398Y-88758196D01*
X150753629Y-88821605D02*
X150731441Y-88758196D01*
X154923920Y-88691440D02*
X154916398Y-88758196D01*
X151931441Y-88758196D02*
X151923920Y-88691440D01*
X147753629Y-87282592D02*
X147731441Y-87346001D01*
X154916398Y-88758196D02*
X154894210Y-88821605D01*
X151690676Y-87120279D02*
X151623920Y-87112758D01*
X154894210Y-88821605D02*
X154858469Y-88878486D01*
X153836873Y-87178208D02*
X153789370Y-87225711D01*
X152823920Y-87112758D02*
X152757163Y-87120279D01*
X154810966Y-88925989D02*
X154754085Y-88961730D01*
X152157163Y-88983918D02*
X152093754Y-88961730D01*
X153131441Y-88758196D02*
X153123920Y-88691440D01*
X153058469Y-87225711D02*
X153010966Y-87178208D01*
X151989370Y-88878486D02*
X151953629Y-88821605D01*
X147490676Y-88983918D02*
X147423920Y-88991440D01*
X150153629Y-87282592D02*
X150131441Y-87346001D01*
X153010966Y-87178208D02*
X152954085Y-87142467D01*
X153716398Y-88758196D02*
X153694210Y-88821605D01*
X151810966Y-87178208D02*
X151754085Y-87142467D01*
X146223920Y-88991440D02*
X143860520Y-88991440D01*
X152954085Y-87142467D02*
X152890676Y-87120279D01*
X143860520Y-88991440D02*
X140588989Y-85719909D01*
X155553629Y-88821605D02*
X155531441Y-88758196D01*
X152890676Y-87120279D02*
X152823920Y-87112758D01*
X138155942Y-85719909D02*
X137928161Y-85492128D01*
X152757163Y-87120279D02*
X152693754Y-87142467D01*
X151323920Y-88691440D02*
X151316398Y-88758196D01*
X137928161Y-85492128D02*
X137928161Y-84676679D01*
X152693754Y-87142467D02*
X152636873Y-87178208D01*
X151316398Y-88758196D02*
X151294210Y-88821605D01*
X152589370Y-87225711D02*
X152553629Y-87282592D01*
X147610966Y-88925989D02*
X147554085Y-88961730D01*
X149290676Y-87120279D02*
X149223920Y-87112758D01*
X153723920Y-87412758D02*
X153723920Y-88691440D01*
X151258469Y-88878486D02*
X151210966Y-88925989D01*
X147694210Y-88821605D02*
X147658469Y-88878486D01*
X152531441Y-87346001D02*
X152523920Y-87412758D01*
X149157163Y-87120279D02*
X149093754Y-87142467D01*
X154316398Y-87346001D02*
X154294210Y-87282592D01*
X155036873Y-88378208D02*
X154989370Y-88425711D01*
X151154085Y-88961730D02*
X151090676Y-88983918D01*
X147658469Y-88878486D02*
X147610966Y-88925989D01*
X152523920Y-87412758D02*
X152523920Y-88691440D01*
X149093754Y-87142467D02*
X149036873Y-87178208D01*
X151090676Y-88983918D02*
X151023920Y-88991440D01*
X154436873Y-88925989D02*
X154389370Y-88878486D01*
X155693754Y-88961730D02*
X155636873Y-88925989D01*
X152516398Y-88758196D02*
X152494210Y-88821605D01*
X147293754Y-88961730D02*
X147236873Y-88925989D01*
X148989370Y-87225711D02*
X148953629Y-87282592D01*
X150957163Y-88983918D02*
X150893754Y-88961730D01*
X154323920Y-87412758D02*
X154316398Y-87346001D01*
X155093754Y-88342467D02*
X155036873Y-88378208D01*
X152410966Y-88925989D02*
X152354085Y-88961730D01*
X153658469Y-88878486D02*
X153610966Y-88925989D01*
X152354085Y-88961730D02*
X152290676Y-88983918D01*
X152290676Y-88983918D02*
X152223920Y-88991440D01*
X152223920Y-88991440D02*
X152157163Y-88983918D01*
X154210966Y-87178208D02*
X154154085Y-87142467D01*
X152093754Y-88961730D02*
X152036873Y-88925989D01*
X152036873Y-88925989D02*
X151989370Y-88878486D01*
X151953629Y-88821605D02*
X151931441Y-88758196D01*
X151923920Y-88691440D02*
X151923920Y-87412758D01*
X155494210Y-88482592D02*
X155458469Y-88425711D01*
X151923920Y-87412758D02*
X151916398Y-87346001D01*
X151894210Y-87282592D02*
X151858469Y-87225711D01*
X154331441Y-88758196D02*
X154323920Y-88691440D01*
X155223920Y-88312758D02*
X155157163Y-88320279D01*
X151858469Y-87225711D02*
X151810966Y-87178208D01*
X151754085Y-87142467D02*
X151690676Y-87120279D01*
X151623920Y-87112758D02*
X151557163Y-87120279D01*
X151557163Y-87120279D02*
X151493754Y-87142467D01*
X151436873Y-87178208D02*
X151389370Y-87225711D01*
X151331441Y-87346001D02*
X151323920Y-87412758D01*
X151323920Y-87412758D02*
X151323920Y-88691440D01*
X148953629Y-87282592D02*
X148931441Y-87346001D01*
X150893754Y-88961730D02*
X150836873Y-88925989D01*
X148923920Y-87412758D02*
X148923920Y-88691440D01*
X150789370Y-88878486D02*
X150753629Y-88821605D01*
X152491440Y-89646760D02*
X158099760Y-89646760D01*
X152361274Y-89676470D02*
X152424683Y-89654282D01*
X152304393Y-89712211D02*
X152361274Y-89676470D01*
X152221149Y-89816595D02*
X152256890Y-89759714D01*
X152191440Y-89946760D02*
X152198961Y-89880004D01*
X152125989Y-92333807D02*
X152161730Y-92276926D01*
X152021605Y-92417051D02*
X152078486Y-92381310D01*
X151958196Y-92439239D02*
X152021605Y-92417051D01*
X151824683Y-92439239D02*
X151891440Y-92446760D01*
X151704393Y-92381310D02*
X151761274Y-92417051D01*
X151656890Y-92333807D02*
X151704393Y-92381310D01*
X151598961Y-92213517D02*
X151621149Y-92276926D01*
X151591440Y-92146760D02*
X151598961Y-92213517D01*
X151591440Y-89946760D02*
X151591440Y-92146760D01*
X151561730Y-89816595D02*
X151583918Y-89880004D01*
X151478486Y-89712211D02*
X151525989Y-89759714D01*
X151421605Y-89676470D02*
X151478486Y-89712211D01*
X151358196Y-89654282D02*
X151421605Y-89676470D01*
X148591440Y-92146760D02*
X148591440Y-89946760D01*
X150383918Y-89880004D02*
X150391440Y-89946760D01*
X148583918Y-92213517D02*
X148591440Y-92146760D01*
X148478486Y-92381310D02*
X148525989Y-92333807D01*
X150398961Y-92213517D02*
X150421149Y-92276926D01*
X148161274Y-92417051D02*
X148224683Y-92439239D01*
X144210549Y-91352754D02*
X144246290Y-91409635D01*
X148358196Y-92439239D02*
X148421605Y-92417051D01*
X147991440Y-92146760D02*
X147998961Y-92213517D01*
X147878486Y-89712211D02*
X147925989Y-89759714D01*
X148598961Y-89880004D02*
X148621149Y-89816595D01*
X147821605Y-89676470D02*
X147878486Y-89712211D01*
X147758196Y-89654282D02*
X147821605Y-89676470D01*
X149161730Y-89816595D02*
X149183918Y-89880004D01*
X147983918Y-89880004D02*
X147991440Y-89946760D01*
X137688320Y-86024720D02*
X140025120Y-86024720D01*
X148561730Y-92276926D02*
X148583918Y-92213517D01*
X147925989Y-89759714D02*
X147961730Y-89816595D01*
X144810549Y-89816594D02*
X144846290Y-89759713D01*
X144188361Y-91289345D02*
X144210549Y-91352754D01*
X150878486Y-92381310D02*
X150925989Y-92333807D01*
X144788361Y-89880003D02*
X144810549Y-89816594D01*
X144893793Y-89712210D02*
X144950674Y-89676469D01*
X149791440Y-89946760D02*
X149798961Y-89880004D01*
X148591440Y-89946760D02*
X148598961Y-89880004D01*
X144180840Y-89946760D02*
X144180840Y-91222589D01*
X152198961Y-89880004D02*
X152221149Y-89816595D01*
X151621149Y-92276926D02*
X151656890Y-92333807D01*
X144846290Y-89759713D02*
X144893793Y-89712210D01*
X144547596Y-91515067D02*
X144611005Y-91492879D01*
X147691440Y-89646760D02*
X147758196Y-89654282D01*
X150391440Y-89946760D02*
X150391440Y-92146760D01*
X144173318Y-89880003D02*
X144180840Y-89946760D01*
X150758196Y-92439239D02*
X150821605Y-92417051D01*
X150925989Y-92333807D02*
X150961730Y-92276926D01*
X143647160Y-89646760D02*
X143880840Y-89646760D01*
X147991440Y-89946760D02*
X147991440Y-92146760D01*
X148525989Y-92333807D02*
X148561730Y-92276926D01*
X149078486Y-89712211D02*
X149125989Y-89759714D01*
X151056890Y-89759714D02*
X151104393Y-89712211D01*
X147998961Y-92213517D02*
X148021149Y-92276926D01*
X144011005Y-89676469D02*
X144067886Y-89712210D01*
X148224683Y-92439239D02*
X148291440Y-92446760D01*
X144151130Y-89816594D02*
X144173318Y-89880003D01*
X144350674Y-91492879D02*
X144414083Y-91515067D01*
X148891440Y-89646760D02*
X148958196Y-89654282D01*
X145080840Y-89646760D02*
X147691440Y-89646760D01*
X149725989Y-92333807D02*
X149761730Y-92276926D01*
X144067886Y-89712210D02*
X144115389Y-89759713D01*
X144950674Y-89676469D02*
X145014083Y-89654281D01*
X148291440Y-92446760D02*
X148358196Y-92439239D01*
X140025120Y-86024720D02*
X143647160Y-89646760D01*
X150691440Y-92446760D02*
X150758196Y-92439239D01*
X151761274Y-92417051D02*
X151824683Y-92439239D01*
X148056890Y-92333807D02*
X148104393Y-92381310D01*
X144246290Y-91409635D02*
X144293793Y-91457138D01*
X151583918Y-89880004D02*
X151591440Y-89946760D01*
X147961730Y-89816595D02*
X147983918Y-89880004D01*
X143880840Y-89646760D02*
X143947596Y-89654281D01*
X144780840Y-89946760D02*
X144788361Y-89880003D01*
X143947596Y-89654281D02*
X144011005Y-89676469D01*
X137449560Y-85785960D02*
X137688320Y-86024720D01*
X149183918Y-89880004D02*
X149191440Y-89946760D01*
X144293793Y-91457138D02*
X144350674Y-91492879D01*
X149021605Y-89676470D02*
X149078486Y-89712211D01*
X152256890Y-89759714D02*
X152304393Y-89712211D01*
X144667886Y-91457138D02*
X144715389Y-91409635D01*
X149198961Y-92213517D02*
X149221149Y-92276926D01*
X150091440Y-89646760D02*
X150158196Y-89654282D01*
X148104393Y-92381310D02*
X148161274Y-92417051D01*
X137449560Y-85120480D02*
X137449560Y-85785960D01*
X144480840Y-91522589D02*
X144547596Y-91515067D01*
X144773318Y-91289345D02*
X144780840Y-91222589D01*
X151891440Y-92446760D02*
X151958196Y-92439239D01*
X144414083Y-91515067D02*
X144480840Y-91522589D01*
X151525989Y-89759714D02*
X151561730Y-89816595D01*
X144180840Y-91222589D02*
X144188361Y-91289345D01*
X144611005Y-91492879D02*
X144667886Y-91457138D01*
X150421149Y-92276926D02*
X150456890Y-92333807D01*
X144715389Y-91409635D02*
X144751130Y-91352754D01*
X149256890Y-92333807D02*
X149304393Y-92381310D01*
X149621605Y-92417051D02*
X149678486Y-92381310D01*
X144780840Y-91222589D02*
X144780840Y-89946760D01*
X145014083Y-89654281D02*
X145080840Y-89646760D01*
X148704393Y-89712211D02*
X148761274Y-89676470D01*
X151104393Y-89712211D02*
X151161274Y-89676470D01*
X152424683Y-89654282D02*
X152491440Y-89646760D01*
X144751130Y-91352754D02*
X144773318Y-91289345D01*
X148621149Y-89816595D02*
X148656890Y-89759714D01*
X148761274Y-89676470D02*
X148824683Y-89654282D01*
X151161274Y-89676470D02*
X151224683Y-89654282D01*
X148021149Y-92276926D02*
X148056890Y-92333807D01*
X148824683Y-89654282D02*
X148891440Y-89646760D01*
X148958196Y-89654282D02*
X149021605Y-89676470D01*
X149125989Y-89759714D02*
X149161730Y-89816595D01*
X152078486Y-92381310D02*
X152125989Y-92333807D01*
X149191440Y-89946760D02*
X149191440Y-92146760D01*
X149191440Y-92146760D02*
X149198961Y-92213517D01*
X150024683Y-89654282D02*
X150091440Y-89646760D01*
X149221149Y-92276926D02*
X149256890Y-92333807D01*
X149761730Y-92276926D02*
X149783918Y-92213517D01*
X148656890Y-89759714D02*
X148704393Y-89712211D01*
X149304393Y-92381310D02*
X149361274Y-92417051D01*
X150361730Y-89816595D02*
X150383918Y-89880004D01*
X150998961Y-89880004D02*
X151021149Y-89816595D01*
X149361274Y-92417051D02*
X149424683Y-92439239D01*
X149678486Y-92381310D02*
X149725989Y-92333807D01*
X150325989Y-89759714D02*
X150361730Y-89816595D01*
X152161730Y-92276926D02*
X152183918Y-92213517D01*
X149424683Y-92439239D02*
X149491440Y-92446760D01*
X152183918Y-92213517D02*
X152191440Y-92146760D01*
X149491440Y-92446760D02*
X149558196Y-92439239D01*
X152191440Y-92146760D02*
X152191440Y-89946760D01*
X149558196Y-92439239D02*
X149621605Y-92417051D01*
X150278486Y-89712211D02*
X150325989Y-89759714D01*
X149783918Y-92213517D02*
X149791440Y-92146760D01*
X148421605Y-92417051D02*
X148478486Y-92381310D01*
X149791440Y-92146760D02*
X149791440Y-89946760D01*
X150624683Y-92439239D02*
X150691440Y-92446760D01*
X144115389Y-89759713D02*
X144151130Y-89816594D01*
X149798961Y-89880004D02*
X149821149Y-89816595D01*
X149961274Y-89676470D02*
X150024683Y-89654282D01*
X149821149Y-89816595D02*
X149856890Y-89759714D01*
X149856890Y-89759714D02*
X149904393Y-89712211D01*
X149904393Y-89712211D02*
X149961274Y-89676470D01*
X150221605Y-89676470D02*
X150278486Y-89712211D01*
X150391440Y-92146760D02*
X150398961Y-92213517D01*
X150991440Y-89946760D02*
X150998961Y-89880004D01*
X150456890Y-92333807D02*
X150504393Y-92381310D01*
X150504393Y-92381310D02*
X150561274Y-92417051D01*
X150561274Y-92417051D02*
X150624683Y-92439239D01*
X151021149Y-89816595D02*
X151056890Y-89759714D01*
X150821605Y-92417051D02*
X150878486Y-92381310D01*
X150961730Y-92276926D02*
X150983918Y-92213517D01*
X150158196Y-89654282D02*
X150221605Y-89676470D01*
X150983918Y-92213517D02*
X150991440Y-92146760D01*
X150991440Y-92146760D02*
X150991440Y-89946760D01*
X151224683Y-89654282D02*
X151291440Y-89646760D01*
X151291440Y-89646760D02*
X151358196Y-89654282D01*
X158399480Y-87701120D02*
X158902400Y-88204040D01*
X138938000Y-84642960D02*
X138938000Y-83977480D01*
X138938000Y-83977480D02*
X139994640Y-82920840D01*
X151455120Y-82920840D02*
X156235400Y-87701120D01*
X139994640Y-82920840D02*
X151455120Y-82920840D01*
X156235400Y-87701120D02*
X158399480Y-87701120D01*
X188066680Y-115199160D02*
X190337440Y-115199160D01*
X178175920Y-115956080D02*
X187309760Y-115956080D01*
X173202610Y-117881390D02*
X176250610Y-117881390D01*
X187309760Y-115956080D02*
X188066680Y-115199160D01*
X176250610Y-117881390D02*
X178175920Y-115956080D01*
X171958000Y-119126000D02*
X173202610Y-117881390D01*
X172085000Y-115392200D02*
X164795200Y-115392200D01*
X174228760Y-113248440D02*
X172085000Y-115392200D01*
X174228760Y-108798360D02*
X174228760Y-113248440D01*
X174904400Y-108122720D02*
X174228760Y-108798360D01*
X174904400Y-107061000D02*
X174904400Y-108122720D01*
X162859720Y-114564160D02*
X162859720Y-102143560D01*
X165249860Y-116954300D02*
X162859720Y-114564160D01*
X174150020Y-116954300D02*
X165249860Y-116954300D01*
X193085720Y-113217960D02*
X177886360Y-113217960D01*
X177886360Y-113217960D02*
X174150020Y-116954300D01*
X194818000Y-114950240D02*
X193085720Y-113217960D01*
X194818000Y-119126000D02*
X194818000Y-114950240D01*
X161803080Y-114513360D02*
X161803080Y-102158800D01*
X192679320Y-113680240D02*
X178150520Y-113680240D01*
X193918840Y-114919760D02*
X192679320Y-113680240D01*
X193918840Y-117485160D02*
X193918840Y-114919760D01*
X164675820Y-117386100D02*
X161803080Y-114513360D01*
X174444660Y-117386100D02*
X164675820Y-117386100D01*
X178150520Y-113680240D02*
X174444660Y-117386100D01*
X192278000Y-119126000D02*
X193918840Y-117485160D01*
X120142000Y-73533000D02*
X120142000Y-73533000D01*
X108026200Y-71704200D02*
X110058200Y-71704200D01*
X111887000Y-73533000D02*
X116459000Y-73533000D01*
X110058200Y-71704200D02*
X111887000Y-73533000D01*
X116459000Y-73533000D02*
X120142000Y-73533000D01*
X146354800Y-73533000D02*
X155384500Y-82562700D01*
X120142000Y-73533000D02*
X146354800Y-73533000D01*
X155384500Y-82562700D02*
X171636863Y-82562700D01*
X171636863Y-82562700D02*
X172896028Y-83821865D01*
X120142000Y-73533000D02*
X120142000Y-73533000D01*
X154749500Y-83286600D02*
X163474400Y-83286600D01*
X143959160Y-75184000D02*
X146646900Y-75184000D01*
X143475955Y-75353080D02*
X143622900Y-75260749D01*
X143260909Y-75622740D02*
X143353240Y-75475795D01*
X143184160Y-75959000D02*
X143203590Y-75786546D01*
X146646900Y-75184000D02*
X154749500Y-83286600D01*
X143184160Y-76033331D02*
X143184160Y-75959000D01*
X143164729Y-76205784D02*
X143184160Y-76033331D01*
X142892364Y-76639250D02*
X143015079Y-76516535D01*
X142581613Y-76788900D02*
X142745419Y-76731581D01*
X142236706Y-76788900D02*
X142409160Y-76808331D01*
X142072900Y-76731581D02*
X142236706Y-76788900D01*
X141925955Y-76639250D02*
X142072900Y-76731581D01*
X141803240Y-76516535D02*
X141925955Y-76639250D01*
X141634160Y-76033331D02*
X141653590Y-76205784D01*
X141557410Y-75622740D02*
X141614729Y-75786546D01*
X141195419Y-75260749D02*
X141342364Y-75353080D01*
X141031613Y-75203430D02*
X141195419Y-75260749D01*
X140859160Y-75184000D02*
X141031613Y-75203430D01*
X140686706Y-75203430D02*
X140859160Y-75184000D01*
X140375955Y-75353080D02*
X140522900Y-75260749D01*
X140160909Y-75622740D02*
X140253240Y-75475795D01*
X140103590Y-75786546D02*
X140160909Y-75622740D01*
X143786706Y-75203430D02*
X143959160Y-75184000D01*
X140084160Y-76033331D02*
X140084160Y-75959000D01*
X142409160Y-76808331D02*
X142581613Y-76788900D01*
X140064729Y-76205784D02*
X140084160Y-76033331D01*
X140007410Y-76369590D02*
X140064729Y-76205784D01*
X141465079Y-75475795D02*
X141557410Y-75622740D01*
X139915079Y-76516535D02*
X140007410Y-76369590D01*
X139645419Y-76731581D02*
X139792364Y-76639250D01*
X143622900Y-75260749D02*
X143786706Y-75203430D01*
X139309160Y-76808331D02*
X139481613Y-76788900D01*
X140522900Y-75260749D02*
X140686706Y-75203430D01*
X139136706Y-76788900D02*
X139309160Y-76808331D01*
X138610909Y-76369590D02*
X138703240Y-76516535D01*
X138553590Y-76205784D02*
X138610909Y-76369590D01*
X138534160Y-76033331D02*
X138553590Y-76205784D01*
X138457410Y-75622740D02*
X138514729Y-75786546D01*
X130784160Y-76033331D02*
X130784160Y-75959000D01*
X125531613Y-75203430D02*
X125695419Y-75260749D01*
X130615079Y-76516535D02*
X130707410Y-76369590D01*
X138365079Y-75475795D02*
X138457410Y-75622740D01*
X129672900Y-76731581D02*
X129836706Y-76788900D01*
X135510909Y-76369590D02*
X135603240Y-76516535D01*
X128795419Y-75260749D02*
X128942364Y-75353080D01*
X141653590Y-76205784D02*
X141710909Y-76369590D01*
X136984160Y-76033331D02*
X136984160Y-75959000D01*
X138242364Y-75353080D02*
X138365079Y-75475795D01*
X129310909Y-76369590D02*
X129403240Y-76516535D01*
X129214729Y-75786546D02*
X129234160Y-75959000D01*
X129157410Y-75622740D02*
X129214729Y-75786546D01*
X126153590Y-76205784D02*
X126210909Y-76369590D01*
X143353240Y-75475795D02*
X143475955Y-75353080D01*
X138972900Y-76731581D02*
X139136706Y-76788900D01*
X126210909Y-76369590D02*
X126303240Y-76516535D01*
X130707410Y-76369590D02*
X130764729Y-76205784D01*
X128459160Y-75184000D02*
X128631613Y-75203430D01*
X129525955Y-76639250D02*
X129672900Y-76731581D01*
X138095419Y-75260749D02*
X138242364Y-75353080D01*
X137422900Y-75260749D02*
X137586706Y-75203430D01*
X129234160Y-76033331D02*
X129253590Y-76205784D01*
X127975955Y-75353080D02*
X128122900Y-75260749D01*
X127392364Y-76639250D02*
X127515079Y-76516535D01*
X125965079Y-75475795D02*
X126057410Y-75622740D01*
X128631613Y-75203430D02*
X128795419Y-75260749D01*
X138534160Y-75959000D02*
X138534160Y-76033331D01*
X125695419Y-75260749D02*
X125842364Y-75353080D01*
X130345419Y-76731581D02*
X130492364Y-76639250D01*
X126909160Y-76808331D02*
X127081613Y-76788900D01*
X141634160Y-75959000D02*
X141634160Y-76033331D01*
X139792364Y-76639250D02*
X139915079Y-76516535D01*
X136381613Y-76788900D02*
X136545419Y-76731581D01*
X126425955Y-76639250D02*
X126572900Y-76731581D01*
X127664729Y-76205784D02*
X127684160Y-76033331D01*
X134486706Y-75203430D02*
X134659160Y-75184000D01*
X126134160Y-75959000D02*
X126134160Y-76033331D01*
X130803590Y-75786546D02*
X130860909Y-75622740D01*
X143015079Y-76516535D02*
X143107410Y-76369590D01*
X127081613Y-76788900D02*
X127245419Y-76731581D01*
X128286706Y-75203430D02*
X128459160Y-75184000D01*
X125359160Y-75184000D02*
X125531613Y-75203430D01*
X134831613Y-75203430D02*
X134995419Y-75260749D01*
X126057410Y-75622740D02*
X126114729Y-75786546D01*
X126114729Y-75786546D02*
X126134160Y-75959000D01*
X130181613Y-76788900D02*
X130345419Y-76731581D01*
X135357410Y-75622740D02*
X135414729Y-75786546D01*
X143203590Y-75786546D02*
X143260909Y-75622740D01*
X110718600Y-73863200D02*
X112039400Y-75184000D01*
X128122900Y-75260749D02*
X128286706Y-75203430D01*
X129836706Y-76788900D02*
X130009160Y-76808331D01*
X130492364Y-76639250D02*
X130615079Y-76516535D01*
X129253590Y-76205784D02*
X129310909Y-76369590D01*
X131731613Y-75203430D02*
X131895419Y-75260749D01*
X133281613Y-76788900D02*
X133445419Y-76731581D01*
X133445419Y-76731581D02*
X133592364Y-76639250D01*
X132314729Y-75786546D02*
X132334160Y-75959000D01*
X133715079Y-76516535D02*
X133807410Y-76369590D01*
X129065079Y-75475795D02*
X129157410Y-75622740D01*
X134659160Y-75184000D02*
X134831613Y-75203430D01*
X138825955Y-76639250D02*
X138972900Y-76731581D01*
X130009160Y-76808331D02*
X130181613Y-76788900D01*
X127853240Y-75475795D02*
X127975955Y-75353080D01*
X127515079Y-76516535D02*
X127607410Y-76369590D01*
X126303240Y-76516535D02*
X126425955Y-76639250D01*
X131222900Y-75260749D02*
X131386706Y-75203430D01*
X127245419Y-76731581D02*
X127392364Y-76639250D01*
X132334160Y-75959000D02*
X132334160Y-76033331D01*
X130784160Y-75959000D02*
X130803590Y-75786546D01*
X132936706Y-76788900D02*
X133109160Y-76808331D01*
X140253240Y-75475795D02*
X140375955Y-75353080D01*
X127703590Y-75786546D02*
X127760909Y-75622740D01*
X130764729Y-76205784D02*
X130784160Y-76033331D01*
X127684160Y-75959000D02*
X127703590Y-75786546D01*
X126736706Y-76788900D02*
X126909160Y-76808331D01*
X143107410Y-76369590D02*
X143164729Y-76205784D01*
X141342364Y-75353080D02*
X141465079Y-75475795D01*
X136964729Y-76205784D02*
X136984160Y-76033331D01*
X112039400Y-75184000D02*
X125359160Y-75184000D01*
X127607410Y-76369590D02*
X127664729Y-76205784D01*
X134322900Y-75260749D02*
X134486706Y-75203430D01*
X132257410Y-75622740D02*
X132314729Y-75786546D01*
X127684160Y-76033331D02*
X127684160Y-75959000D01*
X133109160Y-76808331D02*
X133281613Y-76788900D01*
X136815079Y-76516535D02*
X136907410Y-76369590D01*
X136907410Y-76369590D02*
X136964729Y-76205784D01*
X127760909Y-75622740D02*
X127853240Y-75475795D01*
X131386706Y-75203430D02*
X131559160Y-75184000D01*
X125842364Y-75353080D02*
X125965079Y-75475795D01*
X137759160Y-75184000D02*
X137931613Y-75203430D01*
X130953240Y-75475795D02*
X131075955Y-75353080D01*
X132353590Y-76205784D02*
X132410909Y-76369590D01*
X131075955Y-75353080D02*
X131222900Y-75260749D01*
X129234160Y-75959000D02*
X129234160Y-76033331D01*
X130860909Y-75622740D02*
X130953240Y-75475795D01*
X133807410Y-76369590D02*
X133864729Y-76205784D01*
X126572900Y-76731581D02*
X126736706Y-76788900D01*
X131559160Y-75184000D02*
X131731613Y-75203430D01*
X126134160Y-76033331D02*
X126153590Y-76205784D01*
X132165079Y-75475795D02*
X132257410Y-75622740D01*
X134175955Y-75353080D02*
X134322900Y-75260749D01*
X131895419Y-75260749D02*
X132042364Y-75353080D01*
X138703240Y-76516535D02*
X138825955Y-76639250D01*
X132334160Y-76033331D02*
X132353590Y-76205784D01*
X142745419Y-76731581D02*
X142892364Y-76639250D01*
X132042364Y-75353080D02*
X132165079Y-75475795D01*
X132410909Y-76369590D02*
X132503240Y-76516535D01*
X140084160Y-75959000D02*
X140103590Y-75786546D01*
X132625955Y-76639250D02*
X132772900Y-76731581D01*
X132772900Y-76731581D02*
X132936706Y-76788900D01*
X133884160Y-76033331D02*
X133884160Y-75959000D01*
X133884160Y-75959000D02*
X133903590Y-75786546D01*
X135603240Y-76516535D02*
X135725955Y-76639250D01*
X133903590Y-75786546D02*
X133960909Y-75622740D01*
X136036706Y-76788900D02*
X136209160Y-76808331D01*
X133960909Y-75622740D02*
X134053240Y-75475795D01*
X141614729Y-75786546D02*
X141634160Y-75959000D01*
X135414729Y-75786546D02*
X135434160Y-75959000D01*
X137060909Y-75622740D02*
X137153240Y-75475795D01*
X139481613Y-76788900D02*
X139645419Y-76731581D01*
X135434160Y-76033331D02*
X135453590Y-76205784D01*
X134995419Y-75260749D02*
X135142364Y-75353080D01*
X108127800Y-73863200D02*
X110718600Y-73863200D01*
X132503240Y-76516535D02*
X132625955Y-76639250D01*
X133592364Y-76639250D02*
X133715079Y-76516535D01*
X135142364Y-75353080D02*
X135265079Y-75475795D01*
X138514729Y-75786546D02*
X138534160Y-75959000D01*
X135265079Y-75475795D02*
X135357410Y-75622740D01*
X135434160Y-75959000D02*
X135434160Y-76033331D01*
X136984160Y-75959000D02*
X137003590Y-75786546D01*
X134053240Y-75475795D02*
X134175955Y-75353080D01*
X137003590Y-75786546D02*
X137060909Y-75622740D01*
X133864729Y-76205784D02*
X133884160Y-76033331D01*
X135453590Y-76205784D02*
X135510909Y-76369590D01*
X135725955Y-76639250D02*
X135872900Y-76731581D01*
X135872900Y-76731581D02*
X136036706Y-76788900D01*
X136209160Y-76808331D02*
X136381613Y-76788900D01*
X136545419Y-76731581D02*
X136692364Y-76639250D01*
X141710909Y-76369590D02*
X141803240Y-76516535D01*
X136692364Y-76639250D02*
X136815079Y-76516535D01*
X128942364Y-75353080D02*
X129065079Y-75475795D01*
X137153240Y-75475795D02*
X137275955Y-75353080D01*
X129403240Y-76516535D02*
X129525955Y-76639250D01*
X137275955Y-75353080D02*
X137422900Y-75260749D01*
X137586706Y-75203430D02*
X137759160Y-75184000D01*
X137931613Y-75203430D02*
X138095419Y-75260749D01*
X156507180Y-86060280D02*
X164348160Y-86060280D01*
X127491698Y-79765817D02*
X127514890Y-79559986D01*
X123814890Y-79559986D02*
X123814890Y-79181130D01*
X126384058Y-80461794D02*
X126589890Y-80484986D01*
X135263161Y-78457935D02*
X135438547Y-78347733D01*
X126188547Y-80393382D02*
X126384058Y-80461794D01*
X126013161Y-80283180D02*
X126188547Y-80393382D01*
X126991232Y-80393382D02*
X127166618Y-80283180D01*
X125688081Y-79765817D02*
X125756493Y-79961328D01*
X121245721Y-78279321D02*
X121441232Y-78347733D01*
X124945721Y-78279321D02*
X125141232Y-78347733D01*
X127313084Y-80136714D02*
X127423286Y-79961328D01*
X123791698Y-79765817D02*
X123814890Y-79559986D01*
X124739890Y-78256130D02*
X124945721Y-78279321D01*
X129364890Y-79559986D02*
X129388081Y-79765817D01*
X131563161Y-78457935D02*
X131738547Y-78347733D01*
X133588547Y-80393382D02*
X133784058Y-80461794D01*
X134391232Y-80393382D02*
X134566618Y-80283180D01*
X127514890Y-79559986D02*
X127514890Y-79181130D01*
X125756493Y-79961328D02*
X125866695Y-80136714D01*
X125866695Y-80136714D02*
X126013161Y-80283180D01*
X134914890Y-79559986D02*
X134914890Y-79181130D01*
X124163161Y-78457935D02*
X124338547Y-78347733D01*
X121873286Y-78779787D02*
X121941698Y-78975298D01*
X131238081Y-78975298D02*
X131306493Y-78779787D01*
X124534058Y-78279321D02*
X124739890Y-78256130D01*
X123838081Y-78975298D02*
X123906493Y-78779787D01*
X125141232Y-78347733D02*
X125316618Y-78457935D01*
X108153200Y-76098400D02*
X110784640Y-76098400D01*
X125664890Y-79559986D02*
X125688081Y-79765817D01*
X134713084Y-80136714D02*
X134823286Y-79961328D01*
X125641698Y-78975298D02*
X125664890Y-79181130D01*
X122684058Y-80461794D02*
X122889890Y-80484986D01*
X128234058Y-78279321D02*
X128439890Y-78256130D01*
X133064890Y-79181130D02*
X133064890Y-79559986D01*
X121964890Y-79181130D02*
X121964890Y-79559986D01*
X134938081Y-78975298D02*
X135006493Y-78779787D01*
X127538081Y-78975298D02*
X127606493Y-78779787D01*
X122889890Y-80484986D02*
X123095721Y-80461794D01*
X132345721Y-78279321D02*
X132541232Y-78347733D01*
X135634058Y-78279321D02*
X135839890Y-78256130D01*
X133989890Y-80484986D02*
X134195721Y-80461794D01*
X127423286Y-79961328D02*
X127491698Y-79765817D01*
X123906493Y-78779787D02*
X124016695Y-78604401D01*
X121941698Y-78975298D02*
X121964890Y-79181130D01*
X124338547Y-78347733D02*
X124534058Y-78279321D01*
X121441232Y-78347733D02*
X121616618Y-78457935D01*
X121039890Y-78256130D02*
X121245721Y-78279321D01*
X134823286Y-79961328D02*
X134891698Y-79765817D01*
X125463084Y-78604401D02*
X125573286Y-78779787D01*
X121763084Y-78604401D02*
X121873286Y-78779787D01*
X133088081Y-79765817D02*
X133156493Y-79961328D01*
X132541232Y-78347733D02*
X132716618Y-78457935D01*
X110784640Y-76098400D02*
X111838740Y-77152500D01*
X122488547Y-80393382D02*
X122684058Y-80461794D01*
X129016618Y-78457935D02*
X129163084Y-78604401D01*
X127166618Y-80283180D02*
X127313084Y-80136714D01*
X119687340Y-77152500D02*
X120790970Y-78256130D01*
X120790970Y-78256130D02*
X121039890Y-78256130D01*
X125664890Y-79181130D02*
X125664890Y-79559986D01*
X130495721Y-80461794D02*
X130691232Y-80393382D01*
X132139890Y-78256130D02*
X132345721Y-78279321D01*
X134891698Y-79765817D02*
X134914890Y-79559986D01*
X122313161Y-80283180D02*
X122488547Y-80393382D01*
X128645721Y-78279321D02*
X128841232Y-78347733D01*
X127514890Y-79181130D02*
X127538081Y-78975298D01*
X126795721Y-80461794D02*
X126991232Y-80393382D01*
X121988081Y-79765817D02*
X122056493Y-79961328D01*
X123466618Y-80283180D02*
X123613084Y-80136714D01*
X121616618Y-78457935D02*
X121763084Y-78604401D01*
X123095721Y-80461794D02*
X123291232Y-80393382D01*
X125316618Y-78457935D02*
X125463084Y-78604401D01*
X129888547Y-80393382D02*
X130084058Y-80461794D01*
X129163084Y-78604401D02*
X129273286Y-78779787D01*
X126589890Y-80484986D02*
X126795721Y-80461794D01*
X131416695Y-78604401D02*
X131563161Y-78457935D01*
X132716618Y-78457935D02*
X132863084Y-78604401D01*
X111838740Y-77152500D02*
X119687340Y-77152500D01*
X124016695Y-78604401D02*
X124163161Y-78457935D01*
X121964890Y-79559986D02*
X121988081Y-79765817D01*
X125573286Y-78779787D02*
X125641698Y-78975298D01*
X122166695Y-80136714D02*
X122313161Y-80283180D01*
X131123286Y-79961328D02*
X131191698Y-79765817D01*
X123814890Y-79181130D02*
X123838081Y-78975298D01*
X123723286Y-79961328D02*
X123791698Y-79765817D01*
X127606493Y-78779787D02*
X127716695Y-78604401D01*
X127716695Y-78604401D02*
X127863161Y-78457935D01*
X127863161Y-78457935D02*
X128038547Y-78347733D01*
X128038547Y-78347733D02*
X128234058Y-78279321D01*
X133064890Y-79559986D02*
X133088081Y-79765817D01*
X128841232Y-78347733D02*
X129016618Y-78457935D01*
X129273286Y-78779787D02*
X129341698Y-78975298D01*
X129341698Y-78975298D02*
X129364890Y-79181130D01*
X129388081Y-79765817D02*
X129456493Y-79961328D01*
X129456493Y-79961328D02*
X129566695Y-80136714D01*
X123291232Y-80393382D02*
X123466618Y-80283180D01*
X133156493Y-79961328D02*
X133266695Y-80136714D01*
X123613084Y-80136714D02*
X123723286Y-79961328D01*
X133413161Y-80283180D02*
X133588547Y-80393382D01*
X128439890Y-78256130D02*
X128645721Y-78279321D01*
X129566695Y-80136714D02*
X129713161Y-80283180D01*
X130084058Y-80461794D02*
X130289890Y-80484986D01*
X131738547Y-78347733D02*
X131934058Y-78279321D01*
X129713161Y-80283180D02*
X129888547Y-80393382D01*
X130289890Y-80484986D02*
X130495721Y-80461794D01*
X130691232Y-80393382D02*
X130866618Y-80283180D01*
X131013084Y-80136714D02*
X131123286Y-79961328D01*
X130866618Y-80283180D02*
X131013084Y-80136714D01*
X131214890Y-79559986D02*
X131214890Y-79181130D01*
X131214890Y-79181130D02*
X131238081Y-78975298D01*
X131306493Y-78779787D02*
X131416695Y-78604401D01*
X131934058Y-78279321D02*
X132139890Y-78256130D01*
X132973286Y-78779787D02*
X133041698Y-78975298D01*
X133041698Y-78975298D02*
X133064890Y-79181130D01*
X134566618Y-80283180D02*
X134713084Y-80136714D01*
X133266695Y-80136714D02*
X133413161Y-80283180D01*
X133784058Y-80461794D02*
X133989890Y-80484986D01*
X134195721Y-80461794D02*
X134391232Y-80393382D01*
X134914890Y-79181130D02*
X134938081Y-78975298D01*
X131191698Y-79765817D02*
X131214890Y-79559986D01*
X129364890Y-79181130D02*
X129364890Y-79559986D01*
X132863084Y-78604401D02*
X132973286Y-78779787D01*
X135006493Y-78779787D02*
X135116695Y-78604401D01*
X135116695Y-78604401D02*
X135263161Y-78457935D01*
X135438547Y-78347733D02*
X135634058Y-78279321D01*
X135839890Y-78256130D02*
X148703030Y-78256130D01*
X122056493Y-79961328D02*
X122166695Y-80136714D01*
X148703030Y-78256130D02*
X156507180Y-86060280D01*
D31*
X110604300Y-114185700D02*
X117221000Y-114185700D01*
X110096300Y-114693700D02*
X110604300Y-114185700D01*
X110096300Y-115891853D02*
X110096300Y-114693700D01*
X110625347Y-116420900D02*
X110096300Y-115891853D01*
X110978900Y-116420900D02*
X110625347Y-116420900D01*
D26*
X192455800Y-107665520D02*
X193517520Y-107665520D01*
X184454800Y-99664520D02*
X192455800Y-107665520D01*
X173537880Y-99664520D02*
X184454800Y-99664520D01*
X172770800Y-100431600D02*
X173537880Y-99664520D01*
D28*
X173634400Y-109905800D02*
X173634400Y-107264200D01*
X171698920Y-111841280D02*
X173634400Y-109905800D01*
X170583860Y-111841280D02*
X171698920Y-111841280D01*
X172554900Y-109893100D02*
X172554900Y-105417620D01*
X172554900Y-105417620D02*
X172542200Y-105404920D01*
X171551600Y-110893860D02*
X171551600Y-106349802D01*
X171551600Y-106349802D02*
X171551602Y-106349800D01*
X191528700Y-74650600D02*
X198653400Y-74650600D01*
X190233264Y-73355164D02*
X191528700Y-74650600D01*
X175640990Y-74691646D02*
X176977472Y-73355164D01*
X175640990Y-84582010D02*
X175640990Y-74691646D01*
X174332900Y-85890100D02*
X175640990Y-84582010D01*
X198653400Y-74650600D02*
X199898000Y-73406000D01*
X176977472Y-73355164D02*
X190233264Y-73355164D01*
X170014900Y-85890100D02*
X174332900Y-85890100D01*
X169214800Y-86690200D02*
X170014900Y-85890100D01*
X168097200Y-86690200D02*
X169214800Y-86690200D01*
X190931800Y-73406000D02*
X197358000Y-73406000D01*
X190576154Y-73050354D02*
X190931800Y-73406000D01*
X176851215Y-73050355D02*
X190576154Y-73050354D01*
X175336180Y-74565390D02*
X176851215Y-73050355D01*
X174028100Y-85318600D02*
X175336180Y-84010520D01*
X169748200Y-85318600D02*
X174028100Y-85318600D01*
X168884600Y-86182200D02*
X169748200Y-85318600D01*
X175336180Y-84010520D02*
X175336180Y-74565390D01*
X167563800Y-86182200D02*
X168884600Y-86182200D01*
X174891700Y-87210900D02*
X170180000Y-87210900D01*
X176250611Y-85851989D02*
X174891700Y-87210900D01*
X170180000Y-87210900D02*
X168198800Y-89192100D01*
X176250611Y-74944157D02*
X176250611Y-85851989D01*
X177229986Y-73964782D02*
X176250611Y-74944157D01*
X189928483Y-73964782D02*
X177229986Y-73964782D01*
X193154300Y-77190600D02*
X189928483Y-73964782D01*
X198653400Y-77190600D02*
X193154300Y-77190600D01*
X199898000Y-75946000D02*
X198653400Y-77190600D01*
X175945800Y-74817902D02*
X175945800Y-85204300D01*
X197358000Y-75946000D02*
X192340766Y-75946000D01*
X190054738Y-73659972D02*
X177103729Y-73659973D01*
X192340766Y-75946000D02*
X190054738Y-73659972D01*
X177103729Y-73659973D02*
X175945800Y-74817902D01*
X175945800Y-85204300D02*
X174612300Y-86537800D01*
X170123336Y-86537800D02*
X174612300Y-86537800D01*
X168116186Y-88544950D02*
X170123336Y-86537800D01*
X176860233Y-75196667D02*
X176860233Y-86982267D01*
X177482496Y-74574404D02*
X176860233Y-75196667D01*
X189623704Y-74574404D02*
X177482496Y-74574404D01*
X194805300Y-79756000D02*
X189623704Y-74574404D01*
X198628000Y-79756000D02*
X194805300Y-79756000D01*
X199898000Y-78486000D02*
X198628000Y-79756000D01*
X174358300Y-89484200D02*
X174682150Y-89160350D01*
X176860233Y-86982267D02*
X174682150Y-89160350D01*
X174193200Y-89649300D02*
X174510700Y-89331800D01*
X174510700Y-89331800D02*
X174459900Y-89382600D01*
X170230800Y-89649300D02*
X174193200Y-89649300D01*
X174682150Y-89160350D02*
X174510700Y-89331800D01*
X189776093Y-74269593D02*
X177356241Y-74269593D01*
X176555422Y-86513112D02*
X174257434Y-88811100D01*
X177356241Y-74269593D02*
X176555422Y-75070412D01*
X193992500Y-78486000D02*
X189776093Y-74269593D01*
X176555422Y-75070412D02*
X176555422Y-86513112D01*
X174257434Y-88811100D02*
X169926000Y-88811100D01*
X197358000Y-78486000D02*
X193992500Y-78486000D01*
X198653400Y-82270600D02*
X199898000Y-81026000D01*
X195728728Y-82270600D02*
X198653400Y-82270600D01*
X189814202Y-76631802D02*
X190089930Y-76631802D01*
X189801500Y-76619100D02*
X189814202Y-76631802D01*
X179793900Y-76619100D02*
X189801500Y-76619100D01*
X179209700Y-76034900D02*
X179793900Y-76619100D01*
X190089930Y-76631802D02*
X195728728Y-82270600D01*
X178421347Y-76034900D02*
X179209700Y-76034900D01*
X179162166Y-75556300D02*
X177923713Y-75556300D01*
X179920156Y-76314290D02*
X179162166Y-75556300D01*
X190309490Y-76314290D02*
X179920156Y-76314290D01*
X195021200Y-81026000D02*
X190309490Y-76314290D01*
X197358000Y-81026000D02*
X195021200Y-81026000D01*
X179247822Y-77241422D02*
X179051769Y-77045369D01*
X195783200Y-84836000D02*
X193192414Y-82245215D01*
X198628000Y-84836000D02*
X195783200Y-84836000D01*
X199898000Y-83566000D02*
X198628000Y-84836000D01*
X179051769Y-77045369D02*
X178323891Y-77045369D01*
X193192414Y-80596420D02*
X189837416Y-77241422D01*
X189837416Y-77241422D02*
X179247822Y-77241422D01*
X193192414Y-82245215D02*
X193192414Y-80596420D01*
X179616100Y-76936612D02*
X189963672Y-76936612D01*
X179209688Y-76530200D02*
X179616100Y-76936612D01*
X177876200Y-76530200D02*
X179209688Y-76530200D01*
X197358000Y-83566000D02*
X196016880Y-83566000D01*
X195573451Y-83122571D02*
X195573451Y-82546389D01*
X196016880Y-83566000D02*
X195573451Y-83122571D01*
X189963672Y-76936612D02*
X195573451Y-82546389D01*
X195630809Y-85547943D02*
X195630810Y-86487744D01*
X192582799Y-82499934D02*
X195630809Y-85547943D01*
X178427766Y-77842300D02*
X178436510Y-77851044D01*
X178191617Y-77842300D02*
X178427766Y-77842300D01*
X178436510Y-77851044D02*
X189584906Y-77851044D01*
X196519066Y-87376000D02*
X198628000Y-87376000D01*
X198628000Y-87376000D02*
X199898000Y-86106000D01*
X189584906Y-77851044D02*
X192582799Y-80848937D01*
X195630810Y-86487744D02*
X196519066Y-87376000D01*
X177901600Y-78968600D02*
X177901600Y-78132317D01*
X192582799Y-80848937D02*
X192582799Y-82499934D01*
X177901600Y-78132317D02*
X178191617Y-77842300D01*
X192887603Y-82371471D02*
X192887603Y-80722675D01*
X177912358Y-77537489D02*
X177380900Y-78068947D01*
X178554022Y-77537489D02*
X177912358Y-77537489D01*
X178562766Y-77546233D02*
X178554022Y-77537489D01*
X177380900Y-78068947D02*
X177380900Y-78422500D01*
X189711161Y-77546233D02*
X178562766Y-77546233D01*
X192887603Y-80722675D02*
X189711161Y-77546233D01*
X197358000Y-86106000D02*
X196143880Y-86106000D01*
X195966446Y-85928566D02*
X195966446Y-85450314D01*
X196143880Y-86106000D02*
X195966446Y-85928566D01*
X195966446Y-85450314D02*
X192887603Y-82371471D01*
X199898000Y-88646000D02*
X198628000Y-89916000D01*
X198628000Y-89916000D02*
X195935600Y-89916000D01*
X195935600Y-89916000D02*
X194462400Y-88442800D01*
X194462400Y-88442800D02*
X194462400Y-86004400D01*
X195326000Y-86613999D02*
X197358000Y-88646000D01*
X195326000Y-85674201D02*
X195326000Y-86613999D01*
X192277989Y-82626191D02*
X195326000Y-85674201D01*
X189632201Y-78329405D02*
X192277989Y-80975193D01*
X192277989Y-80975193D02*
X192277989Y-82626191D01*
X178421073Y-78329405D02*
X189632201Y-78329405D01*
X193395600Y-89667080D02*
X193395600Y-86321900D01*
X196209920Y-92481400D02*
X193395600Y-89667080D01*
X198602600Y-92481400D02*
X196209920Y-92481400D01*
X199898000Y-91186000D02*
X198602600Y-92481400D01*
X197358000Y-91186000D02*
X195973700Y-91186000D01*
X195973700Y-91186000D02*
X193979800Y-89192100D01*
X193979800Y-89192100D02*
X193979800Y-86690200D01*
X192392300Y-91335860D02*
X192392300Y-85191600D01*
X196090540Y-95034100D02*
X192392300Y-91335860D01*
X198589900Y-95034100D02*
X196090540Y-95034100D01*
X199898000Y-93726000D02*
X198589900Y-95034100D01*
X196082920Y-93726000D02*
X192874900Y-90517980D01*
X192874900Y-90517980D02*
X192874900Y-85737700D01*
X197358000Y-93726000D02*
X196082920Y-93726000D01*
X187909230Y-89016532D02*
X187909229Y-85577547D01*
X187909229Y-85577547D02*
X186485375Y-84153693D01*
X186321700Y-84153693D02*
X186845893Y-84153693D01*
X186485375Y-84153693D02*
X186321700Y-84153693D01*
X196454098Y-97561400D02*
X187909230Y-89016532D01*
X198602600Y-97561400D02*
X196454098Y-97561400D01*
X199898000Y-96266000D02*
X198602600Y-97561400D01*
X197358000Y-96266000D02*
X195872100Y-96266000D01*
X195872100Y-96266000D02*
X191909700Y-92303600D01*
X191909700Y-92303600D02*
X191909700Y-84620100D01*
X187299610Y-86107324D02*
X186381171Y-85188885D01*
X193217800Y-95187234D02*
X187299610Y-89269044D01*
X193217800Y-98262440D02*
X193217800Y-95187234D01*
X195044060Y-100088700D02*
X193217800Y-98262440D01*
X198615300Y-100088700D02*
X195044060Y-100088700D01*
X187299610Y-89269044D02*
X187299610Y-86107324D01*
X199898000Y-98806000D02*
X198615300Y-100088700D01*
X186596916Y-84696300D02*
X187604420Y-85703804D01*
X185953400Y-84696300D02*
X186596916Y-84696300D01*
X187604420Y-85703804D02*
X187604420Y-89142788D01*
X187604420Y-89142788D02*
X193522600Y-95060968D01*
X193522600Y-95060968D02*
X193522600Y-97510600D01*
X194818000Y-98806000D02*
X197358000Y-98806000D01*
X193522600Y-97510600D02*
X194818000Y-98806000D01*
X194347366Y-102628700D02*
X198615300Y-102628700D01*
X191312840Y-99594174D02*
X194347366Y-102628700D01*
X191312840Y-96609829D02*
X191312840Y-99594174D01*
X198615300Y-102628700D02*
X199898000Y-101346000D01*
X187845710Y-93142699D02*
X191312840Y-96609829D01*
X187845710Y-92153257D02*
X187845710Y-93142699D01*
X185367153Y-89674700D02*
X187845710Y-92153257D01*
X185013600Y-89674700D02*
X185367153Y-89674700D01*
X195112640Y-101346000D02*
X197358000Y-101346000D01*
X192887600Y-95288100D02*
X192887600Y-99120960D01*
X192887600Y-99120960D02*
X195112640Y-101346000D01*
X186994800Y-86725110D02*
X186994800Y-89395300D01*
X186994800Y-89395300D02*
X192887600Y-95288100D01*
X185924104Y-85654414D02*
X186994800Y-86725110D01*
X190703220Y-99886988D02*
X195934132Y-105117900D01*
X190703219Y-96862341D02*
X190703220Y-99886988D01*
X198666100Y-105117900D02*
X199898000Y-103886000D01*
X187236089Y-93395211D02*
X190703219Y-96862341D01*
X195934132Y-105117900D02*
X198666100Y-105117900D01*
X187236089Y-92424033D02*
X187236089Y-93395211D01*
X185490056Y-90678000D02*
X187236089Y-92424033D01*
X185013600Y-90678000D02*
X185490056Y-90678000D01*
X191008030Y-99720430D02*
X195173600Y-103886000D01*
X187540900Y-93268955D02*
X191008030Y-96736085D01*
X187540900Y-92297778D02*
X187540900Y-93268955D01*
X185413122Y-90170000D02*
X187540900Y-92297778D01*
X195173600Y-103886000D02*
X197358000Y-103886000D01*
X191008030Y-96736085D02*
X191008030Y-99720430D01*
X184442100Y-90170000D02*
X185413122Y-90170000D01*
X173009571Y-101422189D02*
X185140590Y-101422189D01*
X198615300Y-110248700D02*
X199898000Y-108966000D01*
X170621960Y-103809800D02*
X173009571Y-101422189D01*
X193967100Y-110248700D02*
X198615300Y-110248700D01*
X185140590Y-101422189D02*
X193967100Y-110248700D01*
X172133282Y-101117378D02*
X170037760Y-103212900D01*
X193115468Y-108966000D02*
X185266846Y-101117378D01*
X197358000Y-108966000D02*
X193115468Y-108966000D01*
X185266846Y-101117378D02*
X172133282Y-101117378D01*
X198805799Y-112598201D02*
X199898000Y-111506000D01*
X195414901Y-112598201D02*
X198805799Y-112598201D01*
X184884060Y-102067360D02*
X195414901Y-112598201D01*
X174162720Y-102067360D02*
X184884060Y-102067360D01*
X171339509Y-104890571D02*
X174162720Y-102067360D01*
X170229529Y-104890571D02*
X171339509Y-104890571D01*
X168907460Y-103568502D02*
X170229529Y-104890571D01*
X185014334Y-101727000D02*
X194793334Y-111506000D01*
X173913800Y-101727000D02*
X185014334Y-101727000D01*
X171174410Y-104466390D02*
X173913800Y-101727000D01*
X170526710Y-104466390D02*
X171174410Y-104466390D01*
X194793334Y-111506000D02*
X195580000Y-111506000D01*
X169669792Y-103609472D02*
X170526710Y-104466390D01*
X195580000Y-111506000D02*
X197358000Y-111506000D01*
X169656760Y-103609472D02*
X169669792Y-103609472D01*
X169008728Y-102961440D02*
X169656760Y-103609472D01*
X167886380Y-102961440D02*
X169008728Y-102961440D01*
X184658000Y-119126000D02*
X186307909Y-117476091D01*
X192587880Y-116583130D02*
X192587880Y-115778280D01*
X191694919Y-117476091D02*
X192587880Y-116583130D01*
X186307909Y-117476091D02*
X191694919Y-117476091D01*
X186070240Y-94046040D02*
X185262520Y-94046040D01*
X186639200Y-94615000D02*
X186070240Y-94046040D01*
X186639200Y-97454720D02*
X186639200Y-94615000D01*
X192623440Y-103438960D02*
X186639200Y-97454720D01*
X192623440Y-104333040D02*
X192623440Y-103438960D01*
X191291399Y-117171281D02*
X184072719Y-117171281D01*
X184072719Y-117171281D02*
X182118000Y-119126000D01*
X192054480Y-116408200D02*
X191291399Y-117171281D01*
X185953400Y-97627440D02*
X192024000Y-103698040D01*
X185953400Y-94914720D02*
X185953400Y-97627440D01*
X182011320Y-116692680D02*
X179578000Y-119126000D01*
X190881000Y-116692680D02*
X182011320Y-116692680D01*
X177038000Y-119126000D02*
X179826920Y-116337080D01*
X190002160Y-116337080D02*
X190418720Y-115920520D01*
X179826920Y-116337080D02*
X190002160Y-116337080D01*
X162680963Y-77232690D02*
X161899600Y-77232690D01*
X166878000Y-70866000D02*
X166878000Y-73035653D01*
X166878000Y-73035653D02*
X162680963Y-77232690D01*
X164338000Y-74625200D02*
X162433000Y-76530200D01*
X164338000Y-70866000D02*
X164338000Y-74625200D01*
X173037500Y-81800700D02*
X173736000Y-81800700D01*
X170700689Y-79463889D02*
X173037500Y-81800700D01*
X160527989Y-79463889D02*
X170700689Y-79463889D01*
X159905700Y-78841600D02*
X160527989Y-79463889D01*
X159905700Y-72758300D02*
X159905700Y-78841600D01*
X161798000Y-70866000D02*
X159905700Y-72758300D01*
X173196052Y-82423000D02*
X174396400Y-82423000D01*
X170541752Y-79768700D02*
X173196052Y-82423000D01*
X160096200Y-79768700D02*
X170541752Y-79768700D01*
X159258000Y-78930500D02*
X160096200Y-79768700D01*
X159258000Y-70866000D02*
X159258000Y-78930500D01*
X173336486Y-82994500D02*
X173824900Y-82994500D01*
X170440886Y-80098900D02*
X173336486Y-82994500D01*
X158935420Y-80098900D02*
X170440886Y-80098900D01*
X151638000Y-72801480D02*
X158935420Y-80098900D01*
X151638000Y-70866000D02*
X151638000Y-72801480D01*
X173388020Y-83477100D02*
X174345600Y-83477100D01*
X170340020Y-80429100D02*
X173388020Y-83477100D01*
X158661100Y-80429100D02*
X170340020Y-80429100D01*
X149098000Y-70866000D02*
X149098000Y-72349360D01*
X149524720Y-72776080D02*
X151008080Y-72776080D01*
X149098000Y-72349360D02*
X149524720Y-72776080D01*
X151008080Y-72776080D02*
X158661100Y-80429100D01*
X172808900Y-72555100D02*
X174498000Y-70866000D01*
X168605200Y-72555100D02*
X172808900Y-72555100D01*
X162839400Y-78320900D02*
X168605200Y-72555100D01*
X160705798Y-78320900D02*
X162839400Y-78320900D01*
X171958000Y-70866000D02*
X169557700Y-70866000D01*
X169557700Y-70866000D02*
X162712400Y-77711300D01*
X162712400Y-77711300D02*
X161264600Y-77711300D01*
X166806880Y-99674680D02*
X168341040Y-98140520D01*
X167380920Y-108168440D02*
X166806880Y-107594400D01*
X167380920Y-110408720D02*
X167380920Y-108168440D01*
X166806880Y-107594400D02*
X166806880Y-99674680D01*
X168335960Y-111363760D02*
X167380920Y-110408720D01*
X148708299Y-74837689D02*
X149160383Y-75289773D01*
X146785513Y-72910700D02*
X148708299Y-74833486D01*
X125577600Y-72910700D02*
X146785513Y-72910700D01*
X124714000Y-70866000D02*
X124714000Y-72047100D01*
X148708299Y-74833486D02*
X148708299Y-74837689D01*
X124714000Y-72047100D02*
X125577600Y-72910700D01*
X126441200Y-72491600D02*
X147040600Y-72491600D01*
X147040600Y-72491600D02*
X149186900Y-74637900D01*
X122174000Y-70866000D02*
X123583700Y-69456300D01*
X125971300Y-72021700D02*
X126441200Y-72491600D01*
X123583700Y-69456300D02*
X125361700Y-69456300D01*
X125361700Y-69456300D02*
X125971300Y-70065900D01*
X125971300Y-70065900D02*
X125971300Y-72021700D01*
X108077000Y-70612000D02*
X108839000Y-71374000D01*
X108839000Y-71374000D02*
X114305080Y-71374000D01*
X114305080Y-71374000D02*
X115488720Y-72557640D01*
X115082320Y-78740000D02*
X117983000Y-78740000D01*
X114228880Y-77886560D02*
X115082320Y-78740000D01*
X109900720Y-77886560D02*
X114228880Y-77886560D01*
X109230160Y-77216000D02*
X109900720Y-77886560D01*
X108204000Y-77216000D02*
X109230160Y-77216000D01*
X119593360Y-79334360D02*
X119888000Y-79629000D01*
X115245614Y-79334360D02*
X119593360Y-79334360D01*
X114143254Y-78232000D02*
X115245614Y-79334360D01*
X108331000Y-78232000D02*
X114143254Y-78232000D01*
X166436040Y-108828840D02*
X166436040Y-99187000D01*
X166436040Y-99187000D02*
X167457120Y-98165920D01*
X195872100Y-107683300D02*
X193675000Y-105486200D01*
X198640700Y-107683300D02*
X195872100Y-107683300D01*
X199898000Y-106426000D02*
X198640700Y-107683300D01*
X185013600Y-92034853D02*
X190093600Y-97114853D01*
X185013600Y-91681300D02*
X185013600Y-92034853D01*
X190093600Y-97114853D02*
X190093600Y-100139500D01*
X190093600Y-100139500D02*
X193675000Y-103720900D01*
X193675000Y-105486200D02*
X193675000Y-103720900D01*
X186931278Y-92550288D02*
X186931278Y-93521467D01*
X196494401Y-105562401D02*
X197358000Y-106426000D01*
X190398411Y-100013245D02*
X195947567Y-105562401D01*
X190398410Y-96988598D02*
X190398411Y-100013245D01*
X184442100Y-91135200D02*
X184463501Y-91156601D01*
X186931278Y-93521467D02*
X190398410Y-96988598D01*
X185537591Y-91156601D02*
X186931278Y-92550288D01*
X184463501Y-91156601D02*
X185537591Y-91156601D01*
X195947567Y-105562401D02*
X196494401Y-105562401D01*
D29*
X146423470Y-112670239D02*
X146511361Y-112758130D01*
X146614709Y-112827185D01*
X146729544Y-112874751D01*
X146851452Y-112899000D01*
X146975748Y-112899000D01*
X147097656Y-112874751D01*
X147212491Y-112827185D01*
X147315839Y-112758130D01*
X147403730Y-112670239D01*
X147417921Y-112649000D01*
X151257000Y-112649000D01*
X151257000Y-115443000D01*
X146812000Y-115443000D01*
X146787224Y-115445440D01*
X146763399Y-115452667D01*
X146741443Y-115464403D01*
X146722197Y-115480197D01*
X146706403Y-115499443D01*
X146694667Y-115521399D01*
X146687440Y-115545224D01*
X146685000Y-115570000D01*
X146685000Y-119253000D01*
X144578606Y-119253000D01*
X144324606Y-118999000D01*
X145168644Y-118999000D01*
X145252528Y-118803787D01*
X145323472Y-118803787D01*
X145407356Y-118999000D01*
X146431000Y-118999000D01*
X146431000Y-117831288D01*
X146238882Y-117770607D01*
X146013328Y-117852784D01*
X145805133Y-117980580D01*
X145625871Y-118146538D01*
X145482430Y-118344279D01*
X145380322Y-118566205D01*
X145323472Y-118803787D01*
X145252528Y-118803787D01*
X145195678Y-118566205D01*
X145093570Y-118344279D01*
X144950129Y-118146538D01*
X144770867Y-117980580D01*
X144562672Y-117852784D01*
X144337118Y-117770607D01*
X144145000Y-117831288D01*
X144145000Y-118819394D01*
X143891000Y-118565394D01*
X143891000Y-117831288D01*
X143698882Y-117770607D01*
X143473328Y-117852784D01*
X143290571Y-117964965D01*
X143129000Y-117803394D01*
X143129000Y-113910921D01*
X143640925Y-113910921D01*
X143643400Y-113961157D01*
X143643400Y-114071402D01*
X143654167Y-114071402D01*
X143671098Y-114138952D01*
X143643400Y-114166650D01*
X143641557Y-114394400D01*
X143648913Y-114469089D01*
X143670699Y-114540908D01*
X143706078Y-114607096D01*
X143753689Y-114665111D01*
X143811704Y-114712722D01*
X143877892Y-114748101D01*
X143949711Y-114769887D01*
X144024400Y-114777243D01*
X144602150Y-114775400D01*
X144697400Y-114680150D01*
X144697400Y-114216696D01*
X144705763Y-114236886D01*
X144819185Y-114259580D01*
X144820924Y-114261319D01*
X144824400Y-114260624D01*
X144827876Y-114261319D01*
X144829615Y-114259580D01*
X144943037Y-114236886D01*
X144951400Y-114213502D01*
X144951400Y-114680150D01*
X145046650Y-114775400D01*
X145624400Y-114777243D01*
X145699089Y-114769887D01*
X145770908Y-114748101D01*
X145837096Y-114712722D01*
X145895111Y-114665111D01*
X145942722Y-114607096D01*
X145978101Y-114540908D01*
X145999887Y-114469089D01*
X146007243Y-114394400D01*
X146005400Y-114166650D01*
X145977967Y-114139217D01*
X145988211Y-114110575D01*
X145994016Y-114071402D01*
X146005400Y-114071402D01*
X146005400Y-113994581D01*
X146007875Y-113977879D01*
X146005400Y-113927643D01*
X146005400Y-113910921D01*
X148676525Y-113910921D01*
X148679000Y-113961157D01*
X148679000Y-114071402D01*
X148689767Y-114071402D01*
X148706698Y-114138952D01*
X148679000Y-114166650D01*
X148677157Y-114394400D01*
X148684513Y-114469089D01*
X148706299Y-114540908D01*
X148741678Y-114607096D01*
X148789289Y-114665111D01*
X148847304Y-114712722D01*
X148913492Y-114748101D01*
X148985311Y-114769887D01*
X149060000Y-114777243D01*
X149637750Y-114775400D01*
X149733000Y-114680150D01*
X149733000Y-114216696D01*
X149741363Y-114236886D01*
X149854785Y-114259580D01*
X149856524Y-114261319D01*
X149860000Y-114260624D01*
X149863476Y-114261319D01*
X149865215Y-114259580D01*
X149978637Y-114236886D01*
X149987000Y-114213502D01*
X149987000Y-114680150D01*
X150082250Y-114775400D01*
X150660000Y-114777243D01*
X150734689Y-114769887D01*
X150806508Y-114748101D01*
X150872696Y-114712722D01*
X150930711Y-114665111D01*
X150978322Y-114607096D01*
X151013701Y-114540908D01*
X151035487Y-114469089D01*
X151042843Y-114394400D01*
X151041000Y-114166650D01*
X151013567Y-114139217D01*
X151023811Y-114110575D01*
X151029616Y-114071402D01*
X151041000Y-114071402D01*
X151041000Y-113994581D01*
X151043475Y-113977879D01*
X151041000Y-113927643D01*
X151041000Y-113817398D01*
X151030233Y-113817398D01*
X151013302Y-113749848D01*
X151041000Y-113722150D01*
X151042843Y-113494400D01*
X151035487Y-113419711D01*
X151013701Y-113347892D01*
X150978322Y-113281704D01*
X150930711Y-113223689D01*
X150872696Y-113176078D01*
X150806508Y-113140699D01*
X150734689Y-113118913D01*
X150660000Y-113111557D01*
X150082250Y-113113400D01*
X149987000Y-113208650D01*
X149987000Y-113672104D01*
X149978637Y-113651914D01*
X149865215Y-113629220D01*
X149863476Y-113627481D01*
X149860000Y-113628176D01*
X149856524Y-113627481D01*
X149854785Y-113629220D01*
X149741363Y-113651914D01*
X149733000Y-113675298D01*
X149733000Y-113208650D01*
X149637750Y-113113400D01*
X149060000Y-113111557D01*
X148985311Y-113118913D01*
X148913492Y-113140699D01*
X148847304Y-113176078D01*
X148789289Y-113223689D01*
X148741678Y-113281704D01*
X148706299Y-113347892D01*
X148684513Y-113419711D01*
X148677157Y-113494400D01*
X148679000Y-113722150D01*
X148706433Y-113749583D01*
X148696189Y-113778225D01*
X148690384Y-113817398D01*
X148679000Y-113817398D01*
X148679000Y-113894219D01*
X148676525Y-113910921D01*
X146005400Y-113910921D01*
X146005400Y-113817398D01*
X145994633Y-113817398D01*
X145977702Y-113749848D01*
X146005400Y-113722150D01*
X146007243Y-113494400D01*
X145999887Y-113419711D01*
X145978101Y-113347892D01*
X145942722Y-113281704D01*
X145895111Y-113223689D01*
X145837096Y-113176078D01*
X145770908Y-113140699D01*
X145699089Y-113118913D01*
X145624400Y-113111557D01*
X145046650Y-113113400D01*
X144951400Y-113208650D01*
X144951400Y-113672104D01*
X144943037Y-113651914D01*
X144829615Y-113629220D01*
X144827876Y-113627481D01*
X144824400Y-113628176D01*
X144820924Y-113627481D01*
X144819185Y-113629220D01*
X144705763Y-113651914D01*
X144697400Y-113675298D01*
X144697400Y-113208650D01*
X144602150Y-113113400D01*
X144024400Y-113111557D01*
X143949711Y-113118913D01*
X143877892Y-113140699D01*
X143811704Y-113176078D01*
X143753689Y-113223689D01*
X143706078Y-113281704D01*
X143670699Y-113347892D01*
X143648913Y-113419711D01*
X143641557Y-113494400D01*
X143643400Y-113722150D01*
X143670833Y-113749583D01*
X143660589Y-113778225D01*
X143654784Y-113817398D01*
X143643400Y-113817398D01*
X143643400Y-113894219D01*
X143640925Y-113910921D01*
X143129000Y-113910921D01*
X143129000Y-112649000D01*
X146409279Y-112649000D01*
X146423470Y-112670239D01*
G04 #@! TA.AperFunction,Conductor*
D32*
G36*
X146423470Y-112670239D02*
G01*
X146511361Y-112758130D01*
X146614709Y-112827185D01*
X146729544Y-112874751D01*
X146851452Y-112899000D01*
X146975748Y-112899000D01*
X147097656Y-112874751D01*
X147212491Y-112827185D01*
X147315839Y-112758130D01*
X147403730Y-112670239D01*
X147417921Y-112649000D01*
X151257000Y-112649000D01*
X151257000Y-115443000D01*
X146812000Y-115443000D01*
X146787224Y-115445440D01*
X146763399Y-115452667D01*
X146741443Y-115464403D01*
X146722197Y-115480197D01*
X146706403Y-115499443D01*
X146694667Y-115521399D01*
X146687440Y-115545224D01*
X146685000Y-115570000D01*
X146685000Y-119253000D01*
X144578606Y-119253000D01*
X144324606Y-118999000D01*
X145168644Y-118999000D01*
X145252528Y-118803787D01*
X145323472Y-118803787D01*
X145407356Y-118999000D01*
X146431000Y-118999000D01*
X146431000Y-117831288D01*
X146238882Y-117770607D01*
X146013328Y-117852784D01*
X145805133Y-117980580D01*
X145625871Y-118146538D01*
X145482430Y-118344279D01*
X145380322Y-118566205D01*
X145323472Y-118803787D01*
X145252528Y-118803787D01*
X145195678Y-118566205D01*
X145093570Y-118344279D01*
X144950129Y-118146538D01*
X144770867Y-117980580D01*
X144562672Y-117852784D01*
X144337118Y-117770607D01*
X144145000Y-117831288D01*
X144145000Y-118819394D01*
X143891000Y-118565394D01*
X143891000Y-117831288D01*
X143698882Y-117770607D01*
X143473328Y-117852784D01*
X143290571Y-117964965D01*
X143129000Y-117803394D01*
X143129000Y-113910921D01*
X143640925Y-113910921D01*
X143643400Y-113961157D01*
X143643400Y-114071402D01*
X143654167Y-114071402D01*
X143671098Y-114138952D01*
X143643400Y-114166650D01*
X143641557Y-114394400D01*
X143648913Y-114469089D01*
X143670699Y-114540908D01*
X143706078Y-114607096D01*
X143753689Y-114665111D01*
X143811704Y-114712722D01*
X143877892Y-114748101D01*
X143949711Y-114769887D01*
X144024400Y-114777243D01*
X144602150Y-114775400D01*
X144697400Y-114680150D01*
X144697400Y-114216696D01*
X144705763Y-114236886D01*
X144819185Y-114259580D01*
X144820924Y-114261319D01*
X144824400Y-114260624D01*
X144827876Y-114261319D01*
X144829615Y-114259580D01*
X144943037Y-114236886D01*
X144951400Y-114213502D01*
X144951400Y-114680150D01*
X145046650Y-114775400D01*
X145624400Y-114777243D01*
X145699089Y-114769887D01*
X145770908Y-114748101D01*
X145837096Y-114712722D01*
X145895111Y-114665111D01*
X145942722Y-114607096D01*
X145978101Y-114540908D01*
X145999887Y-114469089D01*
X146007243Y-114394400D01*
X146005400Y-114166650D01*
X145977967Y-114139217D01*
X145988211Y-114110575D01*
X145994016Y-114071402D01*
X146005400Y-114071402D01*
X146005400Y-113994581D01*
X146007875Y-113977879D01*
X146005400Y-113927643D01*
X146005400Y-113910921D01*
X148676525Y-113910921D01*
X148679000Y-113961157D01*
X148679000Y-114071402D01*
X148689767Y-114071402D01*
X148706698Y-114138952D01*
X148679000Y-114166650D01*
X148677157Y-114394400D01*
X148684513Y-114469089D01*
X148706299Y-114540908D01*
X148741678Y-114607096D01*
X148789289Y-114665111D01*
X148847304Y-114712722D01*
X148913492Y-114748101D01*
X148985311Y-114769887D01*
X149060000Y-114777243D01*
X149637750Y-114775400D01*
X149733000Y-114680150D01*
X149733000Y-114216696D01*
X149741363Y-114236886D01*
X149854785Y-114259580D01*
X149856524Y-114261319D01*
X149860000Y-114260624D01*
X149863476Y-114261319D01*
X149865215Y-114259580D01*
X149978637Y-114236886D01*
X149987000Y-114213502D01*
X149987000Y-114680150D01*
X150082250Y-114775400D01*
X150660000Y-114777243D01*
X150734689Y-114769887D01*
X150806508Y-114748101D01*
X150872696Y-114712722D01*
X150930711Y-114665111D01*
X150978322Y-114607096D01*
X151013701Y-114540908D01*
X151035487Y-114469089D01*
X151042843Y-114394400D01*
X151041000Y-114166650D01*
X151013567Y-114139217D01*
X151023811Y-114110575D01*
X151029616Y-114071402D01*
X151041000Y-114071402D01*
X151041000Y-113994581D01*
X151043475Y-113977879D01*
X151041000Y-113927643D01*
X151041000Y-113817398D01*
X151030233Y-113817398D01*
X151013302Y-113749848D01*
X151041000Y-113722150D01*
X151042843Y-113494400D01*
X151035487Y-113419711D01*
X151013701Y-113347892D01*
X150978322Y-113281704D01*
X150930711Y-113223689D01*
X150872696Y-113176078D01*
X150806508Y-113140699D01*
X150734689Y-113118913D01*
X150660000Y-113111557D01*
X150082250Y-113113400D01*
X149987000Y-113208650D01*
X149987000Y-113672104D01*
X149978637Y-113651914D01*
X149865215Y-113629220D01*
X149863476Y-113627481D01*
X149860000Y-113628176D01*
X149856524Y-113627481D01*
X149854785Y-113629220D01*
X149741363Y-113651914D01*
X149733000Y-113675298D01*
X149733000Y-113208650D01*
X149637750Y-113113400D01*
X149060000Y-113111557D01*
X148985311Y-113118913D01*
X148913492Y-113140699D01*
X148847304Y-113176078D01*
X148789289Y-113223689D01*
X148741678Y-113281704D01*
X148706299Y-113347892D01*
X148684513Y-113419711D01*
X148677157Y-113494400D01*
X148679000Y-113722150D01*
X148706433Y-113749583D01*
X148696189Y-113778225D01*
X148690384Y-113817398D01*
X148679000Y-113817398D01*
X148679000Y-113894219D01*
X148676525Y-113910921D01*
X146005400Y-113910921D01*
X146005400Y-113817398D01*
X145994633Y-113817398D01*
X145977702Y-113749848D01*
X146005400Y-113722150D01*
X146007243Y-113494400D01*
X145999887Y-113419711D01*
X145978101Y-113347892D01*
X145942722Y-113281704D01*
X145895111Y-113223689D01*
X145837096Y-113176078D01*
X145770908Y-113140699D01*
X145699089Y-113118913D01*
X145624400Y-113111557D01*
X145046650Y-113113400D01*
X144951400Y-113208650D01*
X144951400Y-113672104D01*
X144943037Y-113651914D01*
X144829615Y-113629220D01*
X144827876Y-113627481D01*
X144824400Y-113628176D01*
X144820924Y-113627481D01*
X144819185Y-113629220D01*
X144705763Y-113651914D01*
X144697400Y-113675298D01*
X144697400Y-113208650D01*
X144602150Y-113113400D01*
X144024400Y-113111557D01*
X143949711Y-113118913D01*
X143877892Y-113140699D01*
X143811704Y-113176078D01*
X143753689Y-113223689D01*
X143706078Y-113281704D01*
X143670699Y-113347892D01*
X143648913Y-113419711D01*
X143641557Y-113494400D01*
X143643400Y-113722150D01*
X143670833Y-113749583D01*
X143660589Y-113778225D01*
X143654784Y-113817398D01*
X143643400Y-113817398D01*
X143643400Y-113894219D01*
X143640925Y-113910921D01*
X143129000Y-113910921D01*
X143129000Y-112649000D01*
X146409279Y-112649000D01*
X146423470Y-112670239D01*
G37*
G04 #@! TD.AperFunction*
M02*
