G04 #@! TF.GenerationSoftware,KiCad,Pcbnew,5.1.7-a382d34a8~88~ubuntu20.04.1*
G04 #@! TF.CreationDate,2021-04-05T16:33:11-03:00*
G04 #@! TF.ProjectId,h730duino,68373330-6475-4696-9e6f-2e6b69636164,rev?*
G04 #@! TF.SameCoordinates,Original*
G04 #@! TF.FileFunction,Soldermask,Top*
G04 #@! TF.FilePolarity,Negative*
%FSLAX46Y46*%
G04 Gerber Fmt 4.6, Leading zero omitted, Abs format (unit mm)*
G04 Created by KiCad (PCBNEW 5.1.7-a382d34a8~88~ubuntu20.04.1) date 2021-04-05 16:33:11*
%MOMM*%
%LPD*%
G01*
G04 APERTURE LIST*
%ADD10R,0.279400X1.358900*%
%ADD11R,1.358900X0.279400*%
%ADD12C,0.355600*%
%ADD13R,2.600000X2.600000*%
%ADD14C,0.100000*%
%ADD15R,0.250000X0.500000*%
%ADD16R,1.600000X0.900000*%
%ADD17R,0.800000X2.700000*%
%ADD18R,1.060000X0.650000*%
%ADD19R,2.400000X2.000000*%
%ADD20C,0.787400*%
%ADD21C,0.990600*%
%ADD22R,2.400000X0.740000*%
%ADD23O,1.700000X1.700000*%
%ADD24R,1.700000X1.700000*%
%ADD25O,1.400000X0.800000*%
%ADD26R,0.700000X0.300000*%
%ADD27O,0.650000X0.950000*%
%ADD28C,0.650000*%
%ADD29R,0.900000X0.800000*%
%ADD30R,0.550000X2.910000*%
%ADD31R,2.390000X1.050000*%
%ADD32R,1.200000X1.050000*%
%ADD33R,1.080000X1.050000*%
%ADD34R,0.780000X0.720000*%
%ADD35R,1.000000X0.500000*%
%ADD36R,1.900000X1.000000*%
%ADD37R,1.900000X1.800000*%
%ADD38R,1.300000X1.650000*%
%ADD39R,1.550000X1.425000*%
%ADD40R,1.380000X0.450000*%
%ADD41R,1.800000X1.000000*%
%ADD42C,2.100000*%
%ADD43C,1.750000*%
%ADD44C,1.530000*%
%ADD45C,1.725000*%
%ADD46C,2.310000*%
%ADD47R,0.800000X0.900000*%
%ADD48O,1.727200X1.727200*%
%ADD49C,1.727200*%
%ADD50O,1.727200X2.032000*%
%ADD51C,4.064000*%
G04 APERTURE END LIST*
G36*
G01*
X179795360Y-104673280D02*
X180295360Y-104673280D01*
G75*
G02*
X180520360Y-104898280I0J-225000D01*
G01*
X180520360Y-105348280D01*
G75*
G02*
X180295360Y-105573280I-225000J0D01*
G01*
X179795360Y-105573280D01*
G75*
G02*
X179570360Y-105348280I0J225000D01*
G01*
X179570360Y-104898280D01*
G75*
G02*
X179795360Y-104673280I225000J0D01*
G01*
G37*
G36*
G01*
X179795360Y-103123280D02*
X180295360Y-103123280D01*
G75*
G02*
X180520360Y-103348280I0J-225000D01*
G01*
X180520360Y-103798280D01*
G75*
G02*
X180295360Y-104023280I-225000J0D01*
G01*
X179795360Y-104023280D01*
G75*
G02*
X179570360Y-103798280I0J225000D01*
G01*
X179570360Y-103348280D01*
G75*
G02*
X179795360Y-103123280I225000J0D01*
G01*
G37*
G36*
G01*
X165596120Y-114214320D02*
X165596120Y-113664320D01*
G75*
G02*
X165796120Y-113464320I200000J0D01*
G01*
X166196120Y-113464320D01*
G75*
G02*
X166396120Y-113664320I0J-200000D01*
G01*
X166396120Y-114214320D01*
G75*
G02*
X166196120Y-114414320I-200000J0D01*
G01*
X165796120Y-114414320D01*
G75*
G02*
X165596120Y-114214320I0J200000D01*
G01*
G37*
G36*
G01*
X163946120Y-114214320D02*
X163946120Y-113664320D01*
G75*
G02*
X164146120Y-113464320I200000J0D01*
G01*
X164546120Y-113464320D01*
G75*
G02*
X164746120Y-113664320I0J-200000D01*
G01*
X164746120Y-114214320D01*
G75*
G02*
X164546120Y-114414320I-200000J0D01*
G01*
X164146120Y-114414320D01*
G75*
G02*
X163946120Y-114214320I0J200000D01*
G01*
G37*
D10*
X167897175Y-101702870D03*
X168397301Y-101702870D03*
X168897427Y-101702870D03*
X169397553Y-101702870D03*
X169897679Y-101702870D03*
X170397805Y-101702870D03*
X170897931Y-101702870D03*
X171398057Y-101702870D03*
X171898183Y-101702870D03*
X172398309Y-101702870D03*
X172898435Y-101702870D03*
X173398561Y-101702870D03*
X173898687Y-101702870D03*
X174398813Y-101702870D03*
X174898939Y-101702870D03*
X175399065Y-101702870D03*
X175899191Y-101702870D03*
X176399317Y-101702870D03*
X176899443Y-101702870D03*
X177399569Y-101702870D03*
X177899695Y-101702870D03*
X178399821Y-101702870D03*
X178899947Y-101702870D03*
X179400073Y-101702870D03*
X179900199Y-101702870D03*
X180400325Y-101702870D03*
X180900451Y-101702870D03*
X181400577Y-101702870D03*
X181900703Y-101702870D03*
X182400829Y-101702870D03*
X182900955Y-101702870D03*
X183401081Y-101702870D03*
X183901207Y-101702870D03*
X184401333Y-101702870D03*
X184901459Y-101702870D03*
X185401585Y-101702870D03*
D11*
X187425330Y-99679125D03*
X187425330Y-99178999D03*
X187425330Y-98678873D03*
X187425330Y-98178747D03*
X187425330Y-97678621D03*
X187425330Y-97178495D03*
X187425330Y-96678369D03*
X187425330Y-96178243D03*
X187425330Y-95678117D03*
X187425330Y-95177991D03*
X187425330Y-94677865D03*
X187425330Y-94177739D03*
X187425330Y-93677613D03*
X187425330Y-93177487D03*
X187425330Y-92677361D03*
X187425330Y-92177235D03*
X187425330Y-91677109D03*
X187425330Y-91176983D03*
X187425330Y-90676857D03*
X187425330Y-90176731D03*
X187425330Y-89676605D03*
X187425330Y-89176479D03*
X187425330Y-88676353D03*
X187425330Y-88176227D03*
X187425330Y-87676101D03*
X187425330Y-87175975D03*
X187425330Y-86675849D03*
X187425330Y-86175723D03*
X187425330Y-85675597D03*
X187425330Y-85175471D03*
X187425330Y-84675345D03*
X187425330Y-84175219D03*
X187425330Y-83675093D03*
X187425330Y-83174967D03*
X187425330Y-82674841D03*
X187425330Y-82174715D03*
D10*
X185401585Y-80150970D03*
X184901459Y-80150970D03*
X184401333Y-80150970D03*
X183901207Y-80150970D03*
X183401081Y-80150970D03*
X182900955Y-80150970D03*
X182400829Y-80150970D03*
X181900703Y-80150970D03*
X181400577Y-80150970D03*
X180900451Y-80150970D03*
X180400325Y-80150970D03*
X179900199Y-80150970D03*
X179400073Y-80150970D03*
X178899947Y-80150970D03*
X178399821Y-80150970D03*
X177899695Y-80150970D03*
X177399569Y-80150970D03*
X176899443Y-80150970D03*
X176399317Y-80150970D03*
X175899191Y-80150970D03*
X175399065Y-80150970D03*
X174898939Y-80150970D03*
X174398813Y-80150970D03*
X173898687Y-80150970D03*
X173398561Y-80150970D03*
X172898435Y-80150970D03*
X172398309Y-80150970D03*
X171898183Y-80150970D03*
X171398057Y-80150970D03*
X170897931Y-80150970D03*
X170397805Y-80150970D03*
X169897679Y-80150970D03*
X169397553Y-80150970D03*
X168897427Y-80150970D03*
X168397301Y-80150970D03*
X167897175Y-80150970D03*
D11*
X165873430Y-82174715D03*
X165873430Y-82674841D03*
X165873430Y-83174967D03*
X165873430Y-83675093D03*
X165873430Y-84175219D03*
X165873430Y-84675345D03*
X165873430Y-85175471D03*
X165873430Y-85675597D03*
X165873430Y-86175723D03*
X165873430Y-86675849D03*
X165873430Y-87175975D03*
X165873430Y-87676101D03*
X165873430Y-88176227D03*
X165873430Y-88676353D03*
X165873430Y-89176479D03*
X165873430Y-89676605D03*
X165873430Y-90176731D03*
X165873430Y-90676857D03*
X165873430Y-91176983D03*
X165873430Y-91677109D03*
X165873430Y-92177235D03*
X165873430Y-92677361D03*
X165873430Y-93177487D03*
X165873430Y-93677613D03*
X165873430Y-94177739D03*
X165873430Y-94677865D03*
X165873430Y-95177991D03*
X165873430Y-95678117D03*
X165873430Y-96178243D03*
X165873430Y-96678369D03*
X165873430Y-97178495D03*
X165873430Y-97678621D03*
X165873430Y-98178747D03*
X165873430Y-98678873D03*
X165873430Y-99178999D03*
X165873430Y-99679125D03*
D12*
X173042580Y-109382560D03*
X173042580Y-110373160D03*
X173042580Y-111363760D03*
X173042580Y-112354360D03*
X173042580Y-113344960D03*
X172051980Y-109382560D03*
X172051980Y-110373160D03*
X172051980Y-111363760D03*
X172051980Y-112354360D03*
X172051980Y-113344960D03*
X171061380Y-109382560D03*
X171061380Y-110373160D03*
X171061380Y-111363760D03*
X171061380Y-112354360D03*
X171061380Y-113344960D03*
X170070780Y-109382560D03*
X170070780Y-110373160D03*
X170070780Y-111363760D03*
X170070780Y-112354360D03*
X170070780Y-113344960D03*
X169080180Y-109382560D03*
X169080180Y-110373160D03*
X169080180Y-111363760D03*
X169080180Y-112354360D03*
G36*
G01*
X193540500Y-98009900D02*
X193540500Y-98509900D01*
G75*
G02*
X193315500Y-98734900I-225000J0D01*
G01*
X192865500Y-98734900D01*
G75*
G02*
X192640500Y-98509900I0J225000D01*
G01*
X192640500Y-98009900D01*
G75*
G02*
X192865500Y-97784900I225000J0D01*
G01*
X193315500Y-97784900D01*
G75*
G02*
X193540500Y-98009900I0J-225000D01*
G01*
G37*
G36*
G01*
X195090500Y-98009900D02*
X195090500Y-98509900D01*
G75*
G02*
X194865500Y-98734900I-225000J0D01*
G01*
X194415500Y-98734900D01*
G75*
G02*
X194190500Y-98509900I0J225000D01*
G01*
X194190500Y-98009900D01*
G75*
G02*
X194415500Y-97784900I225000J0D01*
G01*
X194865500Y-97784900D01*
G75*
G02*
X195090500Y-98009900I0J-225000D01*
G01*
G37*
G36*
G01*
X171193580Y-115215860D02*
X171193580Y-115715860D01*
G75*
G02*
X170968580Y-115940860I-225000J0D01*
G01*
X170518580Y-115940860D01*
G75*
G02*
X170293580Y-115715860I0J225000D01*
G01*
X170293580Y-115215860D01*
G75*
G02*
X170518580Y-114990860I225000J0D01*
G01*
X170968580Y-114990860D01*
G75*
G02*
X171193580Y-115215860I0J-225000D01*
G01*
G37*
G36*
G01*
X172743580Y-115215860D02*
X172743580Y-115715860D01*
G75*
G02*
X172518580Y-115940860I-225000J0D01*
G01*
X172068580Y-115940860D01*
G75*
G02*
X171843580Y-115715860I0J225000D01*
G01*
X171843580Y-115215860D01*
G75*
G02*
X172068580Y-114990860I225000J0D01*
G01*
X172518580Y-114990860D01*
G75*
G02*
X172743580Y-115215860I0J-225000D01*
G01*
G37*
G36*
G01*
X176429480Y-109641760D02*
X175929480Y-109641760D01*
G75*
G02*
X175704480Y-109416760I0J225000D01*
G01*
X175704480Y-108966760D01*
G75*
G02*
X175929480Y-108741760I225000J0D01*
G01*
X176429480Y-108741760D01*
G75*
G02*
X176654480Y-108966760I0J-225000D01*
G01*
X176654480Y-109416760D01*
G75*
G02*
X176429480Y-109641760I-225000J0D01*
G01*
G37*
G36*
G01*
X176429480Y-111191760D02*
X175929480Y-111191760D01*
G75*
G02*
X175704480Y-110966760I0J225000D01*
G01*
X175704480Y-110516760D01*
G75*
G02*
X175929480Y-110291760I225000J0D01*
G01*
X176429480Y-110291760D01*
G75*
G02*
X176654480Y-110516760I0J-225000D01*
G01*
X176654480Y-110966760D01*
G75*
G02*
X176429480Y-111191760I-225000J0D01*
G01*
G37*
G36*
G01*
X133100400Y-104831700D02*
X133650400Y-104831700D01*
G75*
G02*
X133850400Y-105031700I0J-200000D01*
G01*
X133850400Y-105431700D01*
G75*
G02*
X133650400Y-105631700I-200000J0D01*
G01*
X133100400Y-105631700D01*
G75*
G02*
X132900400Y-105431700I0J200000D01*
G01*
X132900400Y-105031700D01*
G75*
G02*
X133100400Y-104831700I200000J0D01*
G01*
G37*
G36*
G01*
X133100400Y-103181700D02*
X133650400Y-103181700D01*
G75*
G02*
X133850400Y-103381700I0J-200000D01*
G01*
X133850400Y-103781700D01*
G75*
G02*
X133650400Y-103981700I-200000J0D01*
G01*
X133100400Y-103981700D01*
G75*
G02*
X132900400Y-103781700I0J200000D01*
G01*
X132900400Y-103381700D01*
G75*
G02*
X133100400Y-103181700I200000J0D01*
G01*
G37*
D13*
X138150600Y-88353900D03*
G36*
G01*
X136775600Y-86766400D02*
X136775600Y-86066400D01*
G75*
G02*
X136838100Y-86003900I62500J0D01*
G01*
X136963100Y-86003900D01*
G75*
G02*
X137025600Y-86066400I0J-62500D01*
G01*
X137025600Y-86766400D01*
G75*
G02*
X136963100Y-86828900I-62500J0D01*
G01*
X136838100Y-86828900D01*
G75*
G02*
X136775600Y-86766400I0J62500D01*
G01*
G37*
G36*
G01*
X137275600Y-86766400D02*
X137275600Y-86066400D01*
G75*
G02*
X137338100Y-86003900I62500J0D01*
G01*
X137463100Y-86003900D01*
G75*
G02*
X137525600Y-86066400I0J-62500D01*
G01*
X137525600Y-86766400D01*
G75*
G02*
X137463100Y-86828900I-62500J0D01*
G01*
X137338100Y-86828900D01*
G75*
G02*
X137275600Y-86766400I0J62500D01*
G01*
G37*
G36*
G01*
X137775600Y-86766400D02*
X137775600Y-86066400D01*
G75*
G02*
X137838100Y-86003900I62500J0D01*
G01*
X137963100Y-86003900D01*
G75*
G02*
X138025600Y-86066400I0J-62500D01*
G01*
X138025600Y-86766400D01*
G75*
G02*
X137963100Y-86828900I-62500J0D01*
G01*
X137838100Y-86828900D01*
G75*
G02*
X137775600Y-86766400I0J62500D01*
G01*
G37*
G36*
G01*
X138275600Y-86766400D02*
X138275600Y-86066400D01*
G75*
G02*
X138338100Y-86003900I62500J0D01*
G01*
X138463100Y-86003900D01*
G75*
G02*
X138525600Y-86066400I0J-62500D01*
G01*
X138525600Y-86766400D01*
G75*
G02*
X138463100Y-86828900I-62500J0D01*
G01*
X138338100Y-86828900D01*
G75*
G02*
X138275600Y-86766400I0J62500D01*
G01*
G37*
G36*
G01*
X138775600Y-86766400D02*
X138775600Y-86066400D01*
G75*
G02*
X138838100Y-86003900I62500J0D01*
G01*
X138963100Y-86003900D01*
G75*
G02*
X139025600Y-86066400I0J-62500D01*
G01*
X139025600Y-86766400D01*
G75*
G02*
X138963100Y-86828900I-62500J0D01*
G01*
X138838100Y-86828900D01*
G75*
G02*
X138775600Y-86766400I0J62500D01*
G01*
G37*
G36*
G01*
X139275600Y-86766400D02*
X139275600Y-86066400D01*
G75*
G02*
X139338100Y-86003900I62500J0D01*
G01*
X139463100Y-86003900D01*
G75*
G02*
X139525600Y-86066400I0J-62500D01*
G01*
X139525600Y-86766400D01*
G75*
G02*
X139463100Y-86828900I-62500J0D01*
G01*
X139338100Y-86828900D01*
G75*
G02*
X139275600Y-86766400I0J62500D01*
G01*
G37*
G36*
G01*
X139675600Y-87166400D02*
X139675600Y-87041400D01*
G75*
G02*
X139738100Y-86978900I62500J0D01*
G01*
X140438100Y-86978900D01*
G75*
G02*
X140500600Y-87041400I0J-62500D01*
G01*
X140500600Y-87166400D01*
G75*
G02*
X140438100Y-87228900I-62500J0D01*
G01*
X139738100Y-87228900D01*
G75*
G02*
X139675600Y-87166400I0J62500D01*
G01*
G37*
G36*
G01*
X139675600Y-87666400D02*
X139675600Y-87541400D01*
G75*
G02*
X139738100Y-87478900I62500J0D01*
G01*
X140438100Y-87478900D01*
G75*
G02*
X140500600Y-87541400I0J-62500D01*
G01*
X140500600Y-87666400D01*
G75*
G02*
X140438100Y-87728900I-62500J0D01*
G01*
X139738100Y-87728900D01*
G75*
G02*
X139675600Y-87666400I0J62500D01*
G01*
G37*
G36*
G01*
X139675600Y-88166400D02*
X139675600Y-88041400D01*
G75*
G02*
X139738100Y-87978900I62500J0D01*
G01*
X140438100Y-87978900D01*
G75*
G02*
X140500600Y-88041400I0J-62500D01*
G01*
X140500600Y-88166400D01*
G75*
G02*
X140438100Y-88228900I-62500J0D01*
G01*
X139738100Y-88228900D01*
G75*
G02*
X139675600Y-88166400I0J62500D01*
G01*
G37*
G36*
G01*
X139675600Y-88666400D02*
X139675600Y-88541400D01*
G75*
G02*
X139738100Y-88478900I62500J0D01*
G01*
X140438100Y-88478900D01*
G75*
G02*
X140500600Y-88541400I0J-62500D01*
G01*
X140500600Y-88666400D01*
G75*
G02*
X140438100Y-88728900I-62500J0D01*
G01*
X139738100Y-88728900D01*
G75*
G02*
X139675600Y-88666400I0J62500D01*
G01*
G37*
G36*
G01*
X139675600Y-89166400D02*
X139675600Y-89041400D01*
G75*
G02*
X139738100Y-88978900I62500J0D01*
G01*
X140438100Y-88978900D01*
G75*
G02*
X140500600Y-89041400I0J-62500D01*
G01*
X140500600Y-89166400D01*
G75*
G02*
X140438100Y-89228900I-62500J0D01*
G01*
X139738100Y-89228900D01*
G75*
G02*
X139675600Y-89166400I0J62500D01*
G01*
G37*
G36*
G01*
X139675600Y-89666400D02*
X139675600Y-89541400D01*
G75*
G02*
X139738100Y-89478900I62500J0D01*
G01*
X140438100Y-89478900D01*
G75*
G02*
X140500600Y-89541400I0J-62500D01*
G01*
X140500600Y-89666400D01*
G75*
G02*
X140438100Y-89728900I-62500J0D01*
G01*
X139738100Y-89728900D01*
G75*
G02*
X139675600Y-89666400I0J62500D01*
G01*
G37*
G36*
G01*
X139275600Y-90641400D02*
X139275600Y-89941400D01*
G75*
G02*
X139338100Y-89878900I62500J0D01*
G01*
X139463100Y-89878900D01*
G75*
G02*
X139525600Y-89941400I0J-62500D01*
G01*
X139525600Y-90641400D01*
G75*
G02*
X139463100Y-90703900I-62500J0D01*
G01*
X139338100Y-90703900D01*
G75*
G02*
X139275600Y-90641400I0J62500D01*
G01*
G37*
G36*
G01*
X138775600Y-90641400D02*
X138775600Y-89941400D01*
G75*
G02*
X138838100Y-89878900I62500J0D01*
G01*
X138963100Y-89878900D01*
G75*
G02*
X139025600Y-89941400I0J-62500D01*
G01*
X139025600Y-90641400D01*
G75*
G02*
X138963100Y-90703900I-62500J0D01*
G01*
X138838100Y-90703900D01*
G75*
G02*
X138775600Y-90641400I0J62500D01*
G01*
G37*
G36*
G01*
X138275600Y-90641400D02*
X138275600Y-89941400D01*
G75*
G02*
X138338100Y-89878900I62500J0D01*
G01*
X138463100Y-89878900D01*
G75*
G02*
X138525600Y-89941400I0J-62500D01*
G01*
X138525600Y-90641400D01*
G75*
G02*
X138463100Y-90703900I-62500J0D01*
G01*
X138338100Y-90703900D01*
G75*
G02*
X138275600Y-90641400I0J62500D01*
G01*
G37*
G36*
G01*
X137775600Y-90641400D02*
X137775600Y-89941400D01*
G75*
G02*
X137838100Y-89878900I62500J0D01*
G01*
X137963100Y-89878900D01*
G75*
G02*
X138025600Y-89941400I0J-62500D01*
G01*
X138025600Y-90641400D01*
G75*
G02*
X137963100Y-90703900I-62500J0D01*
G01*
X137838100Y-90703900D01*
G75*
G02*
X137775600Y-90641400I0J62500D01*
G01*
G37*
G36*
G01*
X137275600Y-90641400D02*
X137275600Y-89941400D01*
G75*
G02*
X137338100Y-89878900I62500J0D01*
G01*
X137463100Y-89878900D01*
G75*
G02*
X137525600Y-89941400I0J-62500D01*
G01*
X137525600Y-90641400D01*
G75*
G02*
X137463100Y-90703900I-62500J0D01*
G01*
X137338100Y-90703900D01*
G75*
G02*
X137275600Y-90641400I0J62500D01*
G01*
G37*
G36*
G01*
X136775600Y-90641400D02*
X136775600Y-89941400D01*
G75*
G02*
X136838100Y-89878900I62500J0D01*
G01*
X136963100Y-89878900D01*
G75*
G02*
X137025600Y-89941400I0J-62500D01*
G01*
X137025600Y-90641400D01*
G75*
G02*
X136963100Y-90703900I-62500J0D01*
G01*
X136838100Y-90703900D01*
G75*
G02*
X136775600Y-90641400I0J62500D01*
G01*
G37*
G36*
G01*
X135800600Y-89666400D02*
X135800600Y-89541400D01*
G75*
G02*
X135863100Y-89478900I62500J0D01*
G01*
X136563100Y-89478900D01*
G75*
G02*
X136625600Y-89541400I0J-62500D01*
G01*
X136625600Y-89666400D01*
G75*
G02*
X136563100Y-89728900I-62500J0D01*
G01*
X135863100Y-89728900D01*
G75*
G02*
X135800600Y-89666400I0J62500D01*
G01*
G37*
G36*
G01*
X135800600Y-89166400D02*
X135800600Y-89041400D01*
G75*
G02*
X135863100Y-88978900I62500J0D01*
G01*
X136563100Y-88978900D01*
G75*
G02*
X136625600Y-89041400I0J-62500D01*
G01*
X136625600Y-89166400D01*
G75*
G02*
X136563100Y-89228900I-62500J0D01*
G01*
X135863100Y-89228900D01*
G75*
G02*
X135800600Y-89166400I0J62500D01*
G01*
G37*
G36*
G01*
X135800600Y-88666400D02*
X135800600Y-88541400D01*
G75*
G02*
X135863100Y-88478900I62500J0D01*
G01*
X136563100Y-88478900D01*
G75*
G02*
X136625600Y-88541400I0J-62500D01*
G01*
X136625600Y-88666400D01*
G75*
G02*
X136563100Y-88728900I-62500J0D01*
G01*
X135863100Y-88728900D01*
G75*
G02*
X135800600Y-88666400I0J62500D01*
G01*
G37*
G36*
G01*
X135800600Y-88166400D02*
X135800600Y-88041400D01*
G75*
G02*
X135863100Y-87978900I62500J0D01*
G01*
X136563100Y-87978900D01*
G75*
G02*
X136625600Y-88041400I0J-62500D01*
G01*
X136625600Y-88166400D01*
G75*
G02*
X136563100Y-88228900I-62500J0D01*
G01*
X135863100Y-88228900D01*
G75*
G02*
X135800600Y-88166400I0J62500D01*
G01*
G37*
G36*
G01*
X135800600Y-87666400D02*
X135800600Y-87541400D01*
G75*
G02*
X135863100Y-87478900I62500J0D01*
G01*
X136563100Y-87478900D01*
G75*
G02*
X136625600Y-87541400I0J-62500D01*
G01*
X136625600Y-87666400D01*
G75*
G02*
X136563100Y-87728900I-62500J0D01*
G01*
X135863100Y-87728900D01*
G75*
G02*
X135800600Y-87666400I0J62500D01*
G01*
G37*
G36*
G01*
X135800600Y-87166400D02*
X135800600Y-87041400D01*
G75*
G02*
X135863100Y-86978900I62500J0D01*
G01*
X136563100Y-86978900D01*
G75*
G02*
X136625600Y-87041400I0J-62500D01*
G01*
X136625600Y-87166400D01*
G75*
G02*
X136563100Y-87228900I-62500J0D01*
G01*
X135863100Y-87228900D01*
G75*
G02*
X135800600Y-87166400I0J62500D01*
G01*
G37*
G36*
G01*
X114575140Y-102197580D02*
X114575140Y-101647580D01*
G75*
G02*
X114775140Y-101447580I200000J0D01*
G01*
X115175140Y-101447580D01*
G75*
G02*
X115375140Y-101647580I0J-200000D01*
G01*
X115375140Y-102197580D01*
G75*
G02*
X115175140Y-102397580I-200000J0D01*
G01*
X114775140Y-102397580D01*
G75*
G02*
X114575140Y-102197580I0J200000D01*
G01*
G37*
G36*
G01*
X112925140Y-102197580D02*
X112925140Y-101647580D01*
G75*
G02*
X113125140Y-101447580I200000J0D01*
G01*
X113525140Y-101447580D01*
G75*
G02*
X113725140Y-101647580I0J-200000D01*
G01*
X113725140Y-102197580D01*
G75*
G02*
X113525140Y-102397580I-200000J0D01*
G01*
X113125140Y-102397580D01*
G75*
G02*
X112925140Y-102197580I0J200000D01*
G01*
G37*
D14*
G36*
X119775221Y-107017055D02*
G01*
X119766779Y-107014495D01*
X119758999Y-107010336D01*
X119752180Y-107004740D01*
X119746584Y-106997921D01*
X119742425Y-106990141D01*
X119739865Y-106981699D01*
X119739000Y-106972920D01*
X119739000Y-106307920D01*
X119739865Y-106299141D01*
X119742425Y-106290699D01*
X119746584Y-106282919D01*
X119752180Y-106276100D01*
X119758999Y-106270504D01*
X119766779Y-106266345D01*
X119775221Y-106263785D01*
X119784000Y-106262920D01*
X119810360Y-106262920D01*
X119819139Y-106263785D01*
X119827581Y-106266345D01*
X119835361Y-106270504D01*
X119842180Y-106276100D01*
X119975820Y-106409740D01*
X119981416Y-106416559D01*
X119985575Y-106424339D01*
X119988135Y-106432781D01*
X119989000Y-106441560D01*
X119989000Y-106972920D01*
X119988135Y-106981699D01*
X119985575Y-106990141D01*
X119981416Y-106997921D01*
X119975820Y-107004740D01*
X119969001Y-107010336D01*
X119961221Y-107014495D01*
X119952779Y-107017055D01*
X119944000Y-107017920D01*
X119784000Y-107017920D01*
X119775221Y-107017055D01*
G37*
G36*
G01*
X119489000Y-106205420D02*
X119489000Y-106955420D01*
G75*
G02*
X119426500Y-107017920I-62500J0D01*
G01*
X119301500Y-107017920D01*
G75*
G02*
X119239000Y-106955420I0J62500D01*
G01*
X119239000Y-106205420D01*
G75*
G02*
X119301500Y-106142920I62500J0D01*
G01*
X119426500Y-106142920D01*
G75*
G02*
X119489000Y-106205420I0J-62500D01*
G01*
G37*
G36*
G01*
X118989000Y-106205420D02*
X118989000Y-106955420D01*
G75*
G02*
X118926500Y-107017920I-62500J0D01*
G01*
X118801500Y-107017920D01*
G75*
G02*
X118739000Y-106955420I0J62500D01*
G01*
X118739000Y-106205420D01*
G75*
G02*
X118801500Y-106142920I62500J0D01*
G01*
X118926500Y-106142920D01*
G75*
G02*
X118989000Y-106205420I0J-62500D01*
G01*
G37*
G36*
G01*
X118489000Y-106205420D02*
X118489000Y-106955420D01*
G75*
G02*
X118426500Y-107017920I-62500J0D01*
G01*
X118301500Y-107017920D01*
G75*
G02*
X118239000Y-106955420I0J62500D01*
G01*
X118239000Y-106205420D01*
G75*
G02*
X118301500Y-106142920I62500J0D01*
G01*
X118426500Y-106142920D01*
G75*
G02*
X118489000Y-106205420I0J-62500D01*
G01*
G37*
G36*
G01*
X117989000Y-106205420D02*
X117989000Y-106955420D01*
G75*
G02*
X117926500Y-107017920I-62500J0D01*
G01*
X117801500Y-107017920D01*
G75*
G02*
X117739000Y-106955420I0J62500D01*
G01*
X117739000Y-106205420D01*
G75*
G02*
X117801500Y-106142920I62500J0D01*
G01*
X117926500Y-106142920D01*
G75*
G02*
X117989000Y-106205420I0J-62500D01*
G01*
G37*
G36*
G01*
X117489000Y-106205420D02*
X117489000Y-106955420D01*
G75*
G02*
X117426500Y-107017920I-62500J0D01*
G01*
X117301500Y-107017920D01*
G75*
G02*
X117239000Y-106955420I0J62500D01*
G01*
X117239000Y-106205420D01*
G75*
G02*
X117301500Y-106142920I62500J0D01*
G01*
X117426500Y-106142920D01*
G75*
G02*
X117489000Y-106205420I0J-62500D01*
G01*
G37*
G36*
X116775221Y-107017055D02*
G01*
X116766779Y-107014495D01*
X116758999Y-107010336D01*
X116752180Y-107004740D01*
X116746584Y-106997921D01*
X116742425Y-106990141D01*
X116739865Y-106981699D01*
X116739000Y-106972920D01*
X116739000Y-106441560D01*
X116739865Y-106432781D01*
X116742425Y-106424339D01*
X116746584Y-106416559D01*
X116752180Y-106409740D01*
X116885820Y-106276100D01*
X116892639Y-106270504D01*
X116900419Y-106266345D01*
X116908861Y-106263785D01*
X116917640Y-106262920D01*
X116944000Y-106262920D01*
X116952779Y-106263785D01*
X116961221Y-106266345D01*
X116969001Y-106270504D01*
X116975820Y-106276100D01*
X116981416Y-106282919D01*
X116985575Y-106290699D01*
X116988135Y-106299141D01*
X116989000Y-106307920D01*
X116989000Y-106972920D01*
X116988135Y-106981699D01*
X116985575Y-106990141D01*
X116981416Y-106997921D01*
X116975820Y-107004740D01*
X116969001Y-107010336D01*
X116961221Y-107014495D01*
X116952779Y-107017055D01*
X116944000Y-107017920D01*
X116784000Y-107017920D01*
X116775221Y-107017055D01*
G37*
G36*
X116025221Y-106267055D02*
G01*
X116016779Y-106264495D01*
X116008999Y-106260336D01*
X116002180Y-106254740D01*
X115996584Y-106247921D01*
X115992425Y-106240141D01*
X115989865Y-106231699D01*
X115989000Y-106222920D01*
X115989000Y-106062920D01*
X115989865Y-106054141D01*
X115992425Y-106045699D01*
X115996584Y-106037919D01*
X116002180Y-106031100D01*
X116008999Y-106025504D01*
X116016779Y-106021345D01*
X116025221Y-106018785D01*
X116034000Y-106017920D01*
X116699000Y-106017920D01*
X116707779Y-106018785D01*
X116716221Y-106021345D01*
X116724001Y-106025504D01*
X116730820Y-106031100D01*
X116736416Y-106037919D01*
X116740575Y-106045699D01*
X116743135Y-106054141D01*
X116744000Y-106062920D01*
X116744000Y-106089280D01*
X116743135Y-106098059D01*
X116740575Y-106106501D01*
X116736416Y-106114281D01*
X116730820Y-106121100D01*
X116597180Y-106254740D01*
X116590361Y-106260336D01*
X116582581Y-106264495D01*
X116574139Y-106267055D01*
X116565360Y-106267920D01*
X116034000Y-106267920D01*
X116025221Y-106267055D01*
G37*
G36*
G01*
X116864000Y-105580420D02*
X116864000Y-105705420D01*
G75*
G02*
X116801500Y-105767920I-62500J0D01*
G01*
X116051500Y-105767920D01*
G75*
G02*
X115989000Y-105705420I0J62500D01*
G01*
X115989000Y-105580420D01*
G75*
G02*
X116051500Y-105517920I62500J0D01*
G01*
X116801500Y-105517920D01*
G75*
G02*
X116864000Y-105580420I0J-62500D01*
G01*
G37*
G36*
G01*
X116864000Y-105080420D02*
X116864000Y-105205420D01*
G75*
G02*
X116801500Y-105267920I-62500J0D01*
G01*
X116051500Y-105267920D01*
G75*
G02*
X115989000Y-105205420I0J62500D01*
G01*
X115989000Y-105080420D01*
G75*
G02*
X116051500Y-105017920I62500J0D01*
G01*
X116801500Y-105017920D01*
G75*
G02*
X116864000Y-105080420I0J-62500D01*
G01*
G37*
G36*
G01*
X116864000Y-104580420D02*
X116864000Y-104705420D01*
G75*
G02*
X116801500Y-104767920I-62500J0D01*
G01*
X116051500Y-104767920D01*
G75*
G02*
X115989000Y-104705420I0J62500D01*
G01*
X115989000Y-104580420D01*
G75*
G02*
X116051500Y-104517920I62500J0D01*
G01*
X116801500Y-104517920D01*
G75*
G02*
X116864000Y-104580420I0J-62500D01*
G01*
G37*
G36*
G01*
X116864000Y-104080420D02*
X116864000Y-104205420D01*
G75*
G02*
X116801500Y-104267920I-62500J0D01*
G01*
X116051500Y-104267920D01*
G75*
G02*
X115989000Y-104205420I0J62500D01*
G01*
X115989000Y-104080420D01*
G75*
G02*
X116051500Y-104017920I62500J0D01*
G01*
X116801500Y-104017920D01*
G75*
G02*
X116864000Y-104080420I0J-62500D01*
G01*
G37*
G36*
G01*
X116864000Y-103580420D02*
X116864000Y-103705420D01*
G75*
G02*
X116801500Y-103767920I-62500J0D01*
G01*
X116051500Y-103767920D01*
G75*
G02*
X115989000Y-103705420I0J62500D01*
G01*
X115989000Y-103580420D01*
G75*
G02*
X116051500Y-103517920I62500J0D01*
G01*
X116801500Y-103517920D01*
G75*
G02*
X116864000Y-103580420I0J-62500D01*
G01*
G37*
G36*
X116025221Y-103267055D02*
G01*
X116016779Y-103264495D01*
X116008999Y-103260336D01*
X116002180Y-103254740D01*
X115996584Y-103247921D01*
X115992425Y-103240141D01*
X115989865Y-103231699D01*
X115989000Y-103222920D01*
X115989000Y-103062920D01*
X115989865Y-103054141D01*
X115992425Y-103045699D01*
X115996584Y-103037919D01*
X116002180Y-103031100D01*
X116008999Y-103025504D01*
X116016779Y-103021345D01*
X116025221Y-103018785D01*
X116034000Y-103017920D01*
X116565360Y-103017920D01*
X116574139Y-103018785D01*
X116582581Y-103021345D01*
X116590361Y-103025504D01*
X116597180Y-103031100D01*
X116730820Y-103164740D01*
X116736416Y-103171559D01*
X116740575Y-103179339D01*
X116743135Y-103187781D01*
X116744000Y-103196560D01*
X116744000Y-103222920D01*
X116743135Y-103231699D01*
X116740575Y-103240141D01*
X116736416Y-103247921D01*
X116730820Y-103254740D01*
X116724001Y-103260336D01*
X116716221Y-103264495D01*
X116707779Y-103267055D01*
X116699000Y-103267920D01*
X116034000Y-103267920D01*
X116025221Y-103267055D01*
G37*
G36*
X116908861Y-103022055D02*
G01*
X116900419Y-103019495D01*
X116892639Y-103015336D01*
X116885820Y-103009740D01*
X116752180Y-102876100D01*
X116746584Y-102869281D01*
X116742425Y-102861501D01*
X116739865Y-102853059D01*
X116739000Y-102844280D01*
X116739000Y-102312920D01*
X116739865Y-102304141D01*
X116742425Y-102295699D01*
X116746584Y-102287919D01*
X116752180Y-102281100D01*
X116758999Y-102275504D01*
X116766779Y-102271345D01*
X116775221Y-102268785D01*
X116784000Y-102267920D01*
X116944000Y-102267920D01*
X116952779Y-102268785D01*
X116961221Y-102271345D01*
X116969001Y-102275504D01*
X116975820Y-102281100D01*
X116981416Y-102287919D01*
X116985575Y-102295699D01*
X116988135Y-102304141D01*
X116989000Y-102312920D01*
X116989000Y-102977920D01*
X116988135Y-102986699D01*
X116985575Y-102995141D01*
X116981416Y-103002921D01*
X116975820Y-103009740D01*
X116969001Y-103015336D01*
X116961221Y-103019495D01*
X116952779Y-103022055D01*
X116944000Y-103022920D01*
X116917640Y-103022920D01*
X116908861Y-103022055D01*
G37*
G36*
G01*
X117489000Y-102330420D02*
X117489000Y-103080420D01*
G75*
G02*
X117426500Y-103142920I-62500J0D01*
G01*
X117301500Y-103142920D01*
G75*
G02*
X117239000Y-103080420I0J62500D01*
G01*
X117239000Y-102330420D01*
G75*
G02*
X117301500Y-102267920I62500J0D01*
G01*
X117426500Y-102267920D01*
G75*
G02*
X117489000Y-102330420I0J-62500D01*
G01*
G37*
G36*
G01*
X117989000Y-102330420D02*
X117989000Y-103080420D01*
G75*
G02*
X117926500Y-103142920I-62500J0D01*
G01*
X117801500Y-103142920D01*
G75*
G02*
X117739000Y-103080420I0J62500D01*
G01*
X117739000Y-102330420D01*
G75*
G02*
X117801500Y-102267920I62500J0D01*
G01*
X117926500Y-102267920D01*
G75*
G02*
X117989000Y-102330420I0J-62500D01*
G01*
G37*
G36*
G01*
X118489000Y-102330420D02*
X118489000Y-103080420D01*
G75*
G02*
X118426500Y-103142920I-62500J0D01*
G01*
X118301500Y-103142920D01*
G75*
G02*
X118239000Y-103080420I0J62500D01*
G01*
X118239000Y-102330420D01*
G75*
G02*
X118301500Y-102267920I62500J0D01*
G01*
X118426500Y-102267920D01*
G75*
G02*
X118489000Y-102330420I0J-62500D01*
G01*
G37*
G36*
G01*
X118989000Y-102330420D02*
X118989000Y-103080420D01*
G75*
G02*
X118926500Y-103142920I-62500J0D01*
G01*
X118801500Y-103142920D01*
G75*
G02*
X118739000Y-103080420I0J62500D01*
G01*
X118739000Y-102330420D01*
G75*
G02*
X118801500Y-102267920I62500J0D01*
G01*
X118926500Y-102267920D01*
G75*
G02*
X118989000Y-102330420I0J-62500D01*
G01*
G37*
G36*
G01*
X119489000Y-102330420D02*
X119489000Y-103080420D01*
G75*
G02*
X119426500Y-103142920I-62500J0D01*
G01*
X119301500Y-103142920D01*
G75*
G02*
X119239000Y-103080420I0J62500D01*
G01*
X119239000Y-102330420D01*
G75*
G02*
X119301500Y-102267920I62500J0D01*
G01*
X119426500Y-102267920D01*
G75*
G02*
X119489000Y-102330420I0J-62500D01*
G01*
G37*
G36*
X119775221Y-103022055D02*
G01*
X119766779Y-103019495D01*
X119758999Y-103015336D01*
X119752180Y-103009740D01*
X119746584Y-103002921D01*
X119742425Y-102995141D01*
X119739865Y-102986699D01*
X119739000Y-102977920D01*
X119739000Y-102312920D01*
X119739865Y-102304141D01*
X119742425Y-102295699D01*
X119746584Y-102287919D01*
X119752180Y-102281100D01*
X119758999Y-102275504D01*
X119766779Y-102271345D01*
X119775221Y-102268785D01*
X119784000Y-102267920D01*
X119944000Y-102267920D01*
X119952779Y-102268785D01*
X119961221Y-102271345D01*
X119969001Y-102275504D01*
X119975820Y-102281100D01*
X119981416Y-102287919D01*
X119985575Y-102295699D01*
X119988135Y-102304141D01*
X119989000Y-102312920D01*
X119989000Y-102844280D01*
X119988135Y-102853059D01*
X119985575Y-102861501D01*
X119981416Y-102869281D01*
X119975820Y-102876100D01*
X119842180Y-103009740D01*
X119835361Y-103015336D01*
X119827581Y-103019495D01*
X119819139Y-103022055D01*
X119810360Y-103022920D01*
X119784000Y-103022920D01*
X119775221Y-103022055D01*
G37*
G36*
X120020221Y-103267055D02*
G01*
X120011779Y-103264495D01*
X120003999Y-103260336D01*
X119997180Y-103254740D01*
X119991584Y-103247921D01*
X119987425Y-103240141D01*
X119984865Y-103231699D01*
X119984000Y-103222920D01*
X119984000Y-103196560D01*
X119984865Y-103187781D01*
X119987425Y-103179339D01*
X119991584Y-103171559D01*
X119997180Y-103164740D01*
X120130820Y-103031100D01*
X120137639Y-103025504D01*
X120145419Y-103021345D01*
X120153861Y-103018785D01*
X120162640Y-103017920D01*
X120694000Y-103017920D01*
X120702779Y-103018785D01*
X120711221Y-103021345D01*
X120719001Y-103025504D01*
X120725820Y-103031100D01*
X120731416Y-103037919D01*
X120735575Y-103045699D01*
X120738135Y-103054141D01*
X120739000Y-103062920D01*
X120739000Y-103222920D01*
X120738135Y-103231699D01*
X120735575Y-103240141D01*
X120731416Y-103247921D01*
X120725820Y-103254740D01*
X120719001Y-103260336D01*
X120711221Y-103264495D01*
X120702779Y-103267055D01*
X120694000Y-103267920D01*
X120029000Y-103267920D01*
X120020221Y-103267055D01*
G37*
G36*
G01*
X120739000Y-103580420D02*
X120739000Y-103705420D01*
G75*
G02*
X120676500Y-103767920I-62500J0D01*
G01*
X119926500Y-103767920D01*
G75*
G02*
X119864000Y-103705420I0J62500D01*
G01*
X119864000Y-103580420D01*
G75*
G02*
X119926500Y-103517920I62500J0D01*
G01*
X120676500Y-103517920D01*
G75*
G02*
X120739000Y-103580420I0J-62500D01*
G01*
G37*
G36*
G01*
X120739000Y-104080420D02*
X120739000Y-104205420D01*
G75*
G02*
X120676500Y-104267920I-62500J0D01*
G01*
X119926500Y-104267920D01*
G75*
G02*
X119864000Y-104205420I0J62500D01*
G01*
X119864000Y-104080420D01*
G75*
G02*
X119926500Y-104017920I62500J0D01*
G01*
X120676500Y-104017920D01*
G75*
G02*
X120739000Y-104080420I0J-62500D01*
G01*
G37*
G36*
G01*
X120739000Y-104580420D02*
X120739000Y-104705420D01*
G75*
G02*
X120676500Y-104767920I-62500J0D01*
G01*
X119926500Y-104767920D01*
G75*
G02*
X119864000Y-104705420I0J62500D01*
G01*
X119864000Y-104580420D01*
G75*
G02*
X119926500Y-104517920I62500J0D01*
G01*
X120676500Y-104517920D01*
G75*
G02*
X120739000Y-104580420I0J-62500D01*
G01*
G37*
G36*
G01*
X120739000Y-105080420D02*
X120739000Y-105205420D01*
G75*
G02*
X120676500Y-105267920I-62500J0D01*
G01*
X119926500Y-105267920D01*
G75*
G02*
X119864000Y-105205420I0J62500D01*
G01*
X119864000Y-105080420D01*
G75*
G02*
X119926500Y-105017920I62500J0D01*
G01*
X120676500Y-105017920D01*
G75*
G02*
X120739000Y-105080420I0J-62500D01*
G01*
G37*
G36*
G01*
X120739000Y-105580420D02*
X120739000Y-105705420D01*
G75*
G02*
X120676500Y-105767920I-62500J0D01*
G01*
X119926500Y-105767920D01*
G75*
G02*
X119864000Y-105705420I0J62500D01*
G01*
X119864000Y-105580420D01*
G75*
G02*
X119926500Y-105517920I62500J0D01*
G01*
X120676500Y-105517920D01*
G75*
G02*
X120739000Y-105580420I0J-62500D01*
G01*
G37*
G36*
X120153861Y-106267055D02*
G01*
X120145419Y-106264495D01*
X120137639Y-106260336D01*
X120130820Y-106254740D01*
X119997180Y-106121100D01*
X119991584Y-106114281D01*
X119987425Y-106106501D01*
X119984865Y-106098059D01*
X119984000Y-106089280D01*
X119984000Y-106062920D01*
X119984865Y-106054141D01*
X119987425Y-106045699D01*
X119991584Y-106037919D01*
X119997180Y-106031100D01*
X120003999Y-106025504D01*
X120011779Y-106021345D01*
X120020221Y-106018785D01*
X120029000Y-106017920D01*
X120694000Y-106017920D01*
X120702779Y-106018785D01*
X120711221Y-106021345D01*
X120719001Y-106025504D01*
X120725820Y-106031100D01*
X120731416Y-106037919D01*
X120735575Y-106045699D01*
X120738135Y-106054141D01*
X120739000Y-106062920D01*
X120739000Y-106222920D01*
X120738135Y-106231699D01*
X120735575Y-106240141D01*
X120731416Y-106247921D01*
X120725820Y-106254740D01*
X120719001Y-106260336D01*
X120711221Y-106264495D01*
X120702779Y-106267055D01*
X120694000Y-106267920D01*
X120162640Y-106267920D01*
X120153861Y-106267055D01*
G37*
G36*
G01*
X121495000Y-79354000D02*
X121495000Y-79904000D01*
G75*
G02*
X121295000Y-80104000I-200000J0D01*
G01*
X120895000Y-80104000D01*
G75*
G02*
X120695000Y-79904000I0J200000D01*
G01*
X120695000Y-79354000D01*
G75*
G02*
X120895000Y-79154000I200000J0D01*
G01*
X121295000Y-79154000D01*
G75*
G02*
X121495000Y-79354000I0J-200000D01*
G01*
G37*
G36*
G01*
X123145000Y-79354000D02*
X123145000Y-79904000D01*
G75*
G02*
X122945000Y-80104000I-200000J0D01*
G01*
X122545000Y-80104000D01*
G75*
G02*
X122345000Y-79904000I0J200000D01*
G01*
X122345000Y-79354000D01*
G75*
G02*
X122545000Y-79154000I200000J0D01*
G01*
X122945000Y-79154000D01*
G75*
G02*
X123145000Y-79354000I0J-200000D01*
G01*
G37*
G36*
G01*
X121495000Y-77830000D02*
X121495000Y-78380000D01*
G75*
G02*
X121295000Y-78580000I-200000J0D01*
G01*
X120895000Y-78580000D01*
G75*
G02*
X120695000Y-78380000I0J200000D01*
G01*
X120695000Y-77830000D01*
G75*
G02*
X120895000Y-77630000I200000J0D01*
G01*
X121295000Y-77630000D01*
G75*
G02*
X121495000Y-77830000I0J-200000D01*
G01*
G37*
G36*
G01*
X123145000Y-77830000D02*
X123145000Y-78380000D01*
G75*
G02*
X122945000Y-78580000I-200000J0D01*
G01*
X122545000Y-78580000D01*
G75*
G02*
X122345000Y-78380000I0J200000D01*
G01*
X122345000Y-77830000D01*
G75*
G02*
X122545000Y-77630000I200000J0D01*
G01*
X122945000Y-77630000D01*
G75*
G02*
X123145000Y-77830000I0J-200000D01*
G01*
G37*
G36*
G01*
X121495000Y-76306000D02*
X121495000Y-76856000D01*
G75*
G02*
X121295000Y-77056000I-200000J0D01*
G01*
X120895000Y-77056000D01*
G75*
G02*
X120695000Y-76856000I0J200000D01*
G01*
X120695000Y-76306000D01*
G75*
G02*
X120895000Y-76106000I200000J0D01*
G01*
X121295000Y-76106000D01*
G75*
G02*
X121495000Y-76306000I0J-200000D01*
G01*
G37*
G36*
G01*
X123145000Y-76306000D02*
X123145000Y-76856000D01*
G75*
G02*
X122945000Y-77056000I-200000J0D01*
G01*
X122545000Y-77056000D01*
G75*
G02*
X122345000Y-76856000I0J200000D01*
G01*
X122345000Y-76306000D01*
G75*
G02*
X122545000Y-76106000I200000J0D01*
G01*
X122945000Y-76106000D01*
G75*
G02*
X123145000Y-76306000I0J-200000D01*
G01*
G37*
G36*
G01*
X121510240Y-73273240D02*
X121510240Y-73823240D01*
G75*
G02*
X121310240Y-74023240I-200000J0D01*
G01*
X120910240Y-74023240D01*
G75*
G02*
X120710240Y-73823240I0J200000D01*
G01*
X120710240Y-73273240D01*
G75*
G02*
X120910240Y-73073240I200000J0D01*
G01*
X121310240Y-73073240D01*
G75*
G02*
X121510240Y-73273240I0J-200000D01*
G01*
G37*
G36*
G01*
X123160240Y-73273240D02*
X123160240Y-73823240D01*
G75*
G02*
X122960240Y-74023240I-200000J0D01*
G01*
X122560240Y-74023240D01*
G75*
G02*
X122360240Y-73823240I0J200000D01*
G01*
X122360240Y-73273240D01*
G75*
G02*
X122560240Y-73073240I200000J0D01*
G01*
X122960240Y-73073240D01*
G75*
G02*
X123160240Y-73273240I0J-200000D01*
G01*
G37*
G36*
G01*
X121495000Y-74782000D02*
X121495000Y-75332000D01*
G75*
G02*
X121295000Y-75532000I-200000J0D01*
G01*
X120895000Y-75532000D01*
G75*
G02*
X120695000Y-75332000I0J200000D01*
G01*
X120695000Y-74782000D01*
G75*
G02*
X120895000Y-74582000I200000J0D01*
G01*
X121295000Y-74582000D01*
G75*
G02*
X121495000Y-74782000I0J-200000D01*
G01*
G37*
G36*
G01*
X123145000Y-74782000D02*
X123145000Y-75332000D01*
G75*
G02*
X122945000Y-75532000I-200000J0D01*
G01*
X122545000Y-75532000D01*
G75*
G02*
X122345000Y-75332000I0J200000D01*
G01*
X122345000Y-74782000D01*
G75*
G02*
X122545000Y-74582000I200000J0D01*
G01*
X122945000Y-74582000D01*
G75*
G02*
X123145000Y-74782000I0J-200000D01*
G01*
G37*
G36*
G01*
X164807180Y-107397360D02*
X164807180Y-106897360D01*
G75*
G02*
X165032180Y-106672360I225000J0D01*
G01*
X165482180Y-106672360D01*
G75*
G02*
X165707180Y-106897360I0J-225000D01*
G01*
X165707180Y-107397360D01*
G75*
G02*
X165482180Y-107622360I-225000J0D01*
G01*
X165032180Y-107622360D01*
G75*
G02*
X164807180Y-107397360I0J225000D01*
G01*
G37*
G36*
G01*
X166357180Y-107397360D02*
X166357180Y-106897360D01*
G75*
G02*
X166582180Y-106672360I225000J0D01*
G01*
X167032180Y-106672360D01*
G75*
G02*
X167257180Y-106897360I0J-225000D01*
G01*
X167257180Y-107397360D01*
G75*
G02*
X167032180Y-107622360I-225000J0D01*
G01*
X166582180Y-107622360D01*
G75*
G02*
X166357180Y-107397360I0J225000D01*
G01*
G37*
G36*
G01*
X147993920Y-101161260D02*
X147993920Y-100611260D01*
G75*
G02*
X148193920Y-100411260I200000J0D01*
G01*
X148593920Y-100411260D01*
G75*
G02*
X148793920Y-100611260I0J-200000D01*
G01*
X148793920Y-101161260D01*
G75*
G02*
X148593920Y-101361260I-200000J0D01*
G01*
X148193920Y-101361260D01*
G75*
G02*
X147993920Y-101161260I0J200000D01*
G01*
G37*
G36*
G01*
X146343920Y-101161260D02*
X146343920Y-100611260D01*
G75*
G02*
X146543920Y-100411260I200000J0D01*
G01*
X146943920Y-100411260D01*
G75*
G02*
X147143920Y-100611260I0J-200000D01*
G01*
X147143920Y-101161260D01*
G75*
G02*
X146943920Y-101361260I-200000J0D01*
G01*
X146543920Y-101361260D01*
G75*
G02*
X146343920Y-101161260I0J200000D01*
G01*
G37*
G36*
G01*
X147993920Y-99677900D02*
X147993920Y-99127900D01*
G75*
G02*
X148193920Y-98927900I200000J0D01*
G01*
X148593920Y-98927900D01*
G75*
G02*
X148793920Y-99127900I0J-200000D01*
G01*
X148793920Y-99677900D01*
G75*
G02*
X148593920Y-99877900I-200000J0D01*
G01*
X148193920Y-99877900D01*
G75*
G02*
X147993920Y-99677900I0J200000D01*
G01*
G37*
G36*
G01*
X146343920Y-99677900D02*
X146343920Y-99127900D01*
G75*
G02*
X146543920Y-98927900I200000J0D01*
G01*
X146943920Y-98927900D01*
G75*
G02*
X147143920Y-99127900I0J-200000D01*
G01*
X147143920Y-99677900D01*
G75*
G02*
X146943920Y-99877900I-200000J0D01*
G01*
X146543920Y-99877900D01*
G75*
G02*
X146343920Y-99677900I0J200000D01*
G01*
G37*
G36*
G01*
X134626800Y-116305920D02*
X134626800Y-116855920D01*
G75*
G02*
X134426800Y-117055920I-200000J0D01*
G01*
X134026800Y-117055920D01*
G75*
G02*
X133826800Y-116855920I0J200000D01*
G01*
X133826800Y-116305920D01*
G75*
G02*
X134026800Y-116105920I200000J0D01*
G01*
X134426800Y-116105920D01*
G75*
G02*
X134626800Y-116305920I0J-200000D01*
G01*
G37*
G36*
G01*
X136276800Y-116305920D02*
X136276800Y-116855920D01*
G75*
G02*
X136076800Y-117055920I-200000J0D01*
G01*
X135676800Y-117055920D01*
G75*
G02*
X135476800Y-116855920I0J200000D01*
G01*
X135476800Y-116305920D01*
G75*
G02*
X135676800Y-116105920I200000J0D01*
G01*
X136076800Y-116105920D01*
G75*
G02*
X136276800Y-116305920I0J-200000D01*
G01*
G37*
D15*
X150110000Y-112994400D03*
X150610000Y-112994400D03*
X150610000Y-114894400D03*
X149610000Y-114894400D03*
X149110000Y-114894400D03*
D16*
X149860000Y-113944400D03*
D15*
X149110000Y-112994400D03*
X149610000Y-112994400D03*
X150110000Y-114894400D03*
X145074400Y-112994400D03*
X145574400Y-112994400D03*
X145574400Y-114894400D03*
X144574400Y-114894400D03*
X144074400Y-114894400D03*
D16*
X144824400Y-113944400D03*
D15*
X144074400Y-112994400D03*
X144574400Y-112994400D03*
X145074400Y-114894400D03*
D17*
X150960000Y-110490000D03*
X148760000Y-110490000D03*
X145930800Y-110490000D03*
X143730800Y-110490000D03*
D18*
X140952400Y-106974600D03*
X140952400Y-108874600D03*
X138752400Y-108874600D03*
X138752400Y-107924600D03*
X138752400Y-106974600D03*
D19*
X134594600Y-92333200D03*
X134594600Y-96033200D03*
X181864000Y-113000400D03*
X181864000Y-109300400D03*
D20*
X132323840Y-109204760D03*
X131053840Y-109204760D03*
X129783840Y-109204760D03*
X128513840Y-109204760D03*
X127243840Y-109204760D03*
X127243840Y-107934760D03*
X128513840Y-107934760D03*
X129783840Y-107934760D03*
X131053840Y-107934760D03*
X132323840Y-107934760D03*
D21*
X133593840Y-108569760D03*
X125973840Y-107553760D03*
X125973840Y-109585760D03*
D22*
X151567600Y-95859600D03*
X155467600Y-95859600D03*
X151567600Y-97129600D03*
X155467600Y-97129600D03*
X151567600Y-98399600D03*
X155467600Y-98399600D03*
X151567600Y-99669600D03*
X155467600Y-99669600D03*
X151567600Y-100939600D03*
X155467600Y-100939600D03*
D23*
X130589020Y-104231440D03*
D24*
X128049020Y-104231440D03*
G36*
G01*
X139171000Y-94303400D02*
X139721000Y-94303400D01*
G75*
G02*
X139921000Y-94503400I0J-200000D01*
G01*
X139921000Y-94903400D01*
G75*
G02*
X139721000Y-95103400I-200000J0D01*
G01*
X139171000Y-95103400D01*
G75*
G02*
X138971000Y-94903400I0J200000D01*
G01*
X138971000Y-94503400D01*
G75*
G02*
X139171000Y-94303400I200000J0D01*
G01*
G37*
G36*
G01*
X139171000Y-92653400D02*
X139721000Y-92653400D01*
G75*
G02*
X139921000Y-92853400I0J-200000D01*
G01*
X139921000Y-93253400D01*
G75*
G02*
X139721000Y-93453400I-200000J0D01*
G01*
X139171000Y-93453400D01*
G75*
G02*
X138971000Y-93253400I0J200000D01*
G01*
X138971000Y-92853400D01*
G75*
G02*
X139171000Y-92653400I200000J0D01*
G01*
G37*
G36*
G01*
X142323000Y-83697400D02*
X142323000Y-84247400D01*
G75*
G02*
X142123000Y-84447400I-200000J0D01*
G01*
X141723000Y-84447400D01*
G75*
G02*
X141523000Y-84247400I0J200000D01*
G01*
X141523000Y-83697400D01*
G75*
G02*
X141723000Y-83497400I200000J0D01*
G01*
X142123000Y-83497400D01*
G75*
G02*
X142323000Y-83697400I0J-200000D01*
G01*
G37*
G36*
G01*
X143973000Y-83697400D02*
X143973000Y-84247400D01*
G75*
G02*
X143773000Y-84447400I-200000J0D01*
G01*
X143373000Y-84447400D01*
G75*
G02*
X143173000Y-84247400I0J200000D01*
G01*
X143173000Y-83697400D01*
G75*
G02*
X143373000Y-83497400I200000J0D01*
G01*
X143773000Y-83497400D01*
G75*
G02*
X143973000Y-83697400I0J-200000D01*
G01*
G37*
G36*
G01*
X143173000Y-87371600D02*
X143173000Y-86821600D01*
G75*
G02*
X143373000Y-86621600I200000J0D01*
G01*
X143773000Y-86621600D01*
G75*
G02*
X143973000Y-86821600I0J-200000D01*
G01*
X143973000Y-87371600D01*
G75*
G02*
X143773000Y-87571600I-200000J0D01*
G01*
X143373000Y-87571600D01*
G75*
G02*
X143173000Y-87371600I0J200000D01*
G01*
G37*
G36*
G01*
X141523000Y-87371600D02*
X141523000Y-86821600D01*
G75*
G02*
X141723000Y-86621600I200000J0D01*
G01*
X142123000Y-86621600D01*
G75*
G02*
X142323000Y-86821600I0J-200000D01*
G01*
X142323000Y-87371600D01*
G75*
G02*
X142123000Y-87571600I-200000J0D01*
G01*
X141723000Y-87571600D01*
G75*
G02*
X141523000Y-87371600I0J200000D01*
G01*
G37*
G36*
G01*
X143173000Y-88895600D02*
X143173000Y-88345600D01*
G75*
G02*
X143373000Y-88145600I200000J0D01*
G01*
X143773000Y-88145600D01*
G75*
G02*
X143973000Y-88345600I0J-200000D01*
G01*
X143973000Y-88895600D01*
G75*
G02*
X143773000Y-89095600I-200000J0D01*
G01*
X143373000Y-89095600D01*
G75*
G02*
X143173000Y-88895600I0J200000D01*
G01*
G37*
G36*
G01*
X141523000Y-88895600D02*
X141523000Y-88345600D01*
G75*
G02*
X141723000Y-88145600I200000J0D01*
G01*
X142123000Y-88145600D01*
G75*
G02*
X142323000Y-88345600I0J-200000D01*
G01*
X142323000Y-88895600D01*
G75*
G02*
X142123000Y-89095600I-200000J0D01*
G01*
X141723000Y-89095600D01*
G75*
G02*
X141523000Y-88895600I0J200000D01*
G01*
G37*
G36*
G01*
X143198400Y-94991600D02*
X143198400Y-94441600D01*
G75*
G02*
X143398400Y-94241600I200000J0D01*
G01*
X143798400Y-94241600D01*
G75*
G02*
X143998400Y-94441600I0J-200000D01*
G01*
X143998400Y-94991600D01*
G75*
G02*
X143798400Y-95191600I-200000J0D01*
G01*
X143398400Y-95191600D01*
G75*
G02*
X143198400Y-94991600I0J200000D01*
G01*
G37*
G36*
G01*
X141548400Y-94991600D02*
X141548400Y-94441600D01*
G75*
G02*
X141748400Y-94241600I200000J0D01*
G01*
X142148400Y-94241600D01*
G75*
G02*
X142348400Y-94441600I0J-200000D01*
G01*
X142348400Y-94991600D01*
G75*
G02*
X142148400Y-95191600I-200000J0D01*
G01*
X141748400Y-95191600D01*
G75*
G02*
X141548400Y-94991600I0J200000D01*
G01*
G37*
G36*
G01*
X143185200Y-93442200D02*
X143185200Y-92892200D01*
G75*
G02*
X143385200Y-92692200I200000J0D01*
G01*
X143785200Y-92692200D01*
G75*
G02*
X143985200Y-92892200I0J-200000D01*
G01*
X143985200Y-93442200D01*
G75*
G02*
X143785200Y-93642200I-200000J0D01*
G01*
X143385200Y-93642200D01*
G75*
G02*
X143185200Y-93442200I0J200000D01*
G01*
G37*
G36*
G01*
X141535200Y-93442200D02*
X141535200Y-92892200D01*
G75*
G02*
X141735200Y-92692200I200000J0D01*
G01*
X142135200Y-92692200D01*
G75*
G02*
X142335200Y-92892200I0J-200000D01*
G01*
X142335200Y-93442200D01*
G75*
G02*
X142135200Y-93642200I-200000J0D01*
G01*
X141735200Y-93642200D01*
G75*
G02*
X141535200Y-93442200I0J200000D01*
G01*
G37*
G36*
G01*
X194502900Y-88195700D02*
X194802900Y-88195700D01*
G75*
G02*
X194952900Y-88345700I0J-150000D01*
G01*
X194952900Y-89645700D01*
G75*
G02*
X194802900Y-89795700I-150000J0D01*
G01*
X194502900Y-89795700D01*
G75*
G02*
X194352900Y-89645700I0J150000D01*
G01*
X194352900Y-88345700D01*
G75*
G02*
X194502900Y-88195700I150000J0D01*
G01*
G37*
G36*
G01*
X193232900Y-88195700D02*
X193532900Y-88195700D01*
G75*
G02*
X193682900Y-88345700I0J-150000D01*
G01*
X193682900Y-89645700D01*
G75*
G02*
X193532900Y-89795700I-150000J0D01*
G01*
X193232900Y-89795700D01*
G75*
G02*
X193082900Y-89645700I0J150000D01*
G01*
X193082900Y-88345700D01*
G75*
G02*
X193232900Y-88195700I150000J0D01*
G01*
G37*
G36*
G01*
X191962900Y-88195700D02*
X192262900Y-88195700D01*
G75*
G02*
X192412900Y-88345700I0J-150000D01*
G01*
X192412900Y-89645700D01*
G75*
G02*
X192262900Y-89795700I-150000J0D01*
G01*
X191962900Y-89795700D01*
G75*
G02*
X191812900Y-89645700I0J150000D01*
G01*
X191812900Y-88345700D01*
G75*
G02*
X191962900Y-88195700I150000J0D01*
G01*
G37*
G36*
G01*
X190692900Y-88195700D02*
X190992900Y-88195700D01*
G75*
G02*
X191142900Y-88345700I0J-150000D01*
G01*
X191142900Y-89645700D01*
G75*
G02*
X190992900Y-89795700I-150000J0D01*
G01*
X190692900Y-89795700D01*
G75*
G02*
X190542900Y-89645700I0J150000D01*
G01*
X190542900Y-88345700D01*
G75*
G02*
X190692900Y-88195700I150000J0D01*
G01*
G37*
G36*
G01*
X190692900Y-95395700D02*
X190992900Y-95395700D01*
G75*
G02*
X191142900Y-95545700I0J-150000D01*
G01*
X191142900Y-96845700D01*
G75*
G02*
X190992900Y-96995700I-150000J0D01*
G01*
X190692900Y-96995700D01*
G75*
G02*
X190542900Y-96845700I0J150000D01*
G01*
X190542900Y-95545700D01*
G75*
G02*
X190692900Y-95395700I150000J0D01*
G01*
G37*
G36*
G01*
X191962900Y-95395700D02*
X192262900Y-95395700D01*
G75*
G02*
X192412900Y-95545700I0J-150000D01*
G01*
X192412900Y-96845700D01*
G75*
G02*
X192262900Y-96995700I-150000J0D01*
G01*
X191962900Y-96995700D01*
G75*
G02*
X191812900Y-96845700I0J150000D01*
G01*
X191812900Y-95545700D01*
G75*
G02*
X191962900Y-95395700I150000J0D01*
G01*
G37*
G36*
G01*
X193232900Y-95395700D02*
X193532900Y-95395700D01*
G75*
G02*
X193682900Y-95545700I0J-150000D01*
G01*
X193682900Y-96845700D01*
G75*
G02*
X193532900Y-96995700I-150000J0D01*
G01*
X193232900Y-96995700D01*
G75*
G02*
X193082900Y-96845700I0J150000D01*
G01*
X193082900Y-95545700D01*
G75*
G02*
X193232900Y-95395700I150000J0D01*
G01*
G37*
G36*
G01*
X194502900Y-95395700D02*
X194802900Y-95395700D01*
G75*
G02*
X194952900Y-95545700I0J-150000D01*
G01*
X194952900Y-96845700D01*
G75*
G02*
X194802900Y-96995700I-150000J0D01*
G01*
X194502900Y-96995700D01*
G75*
G02*
X194352900Y-96845700I0J150000D01*
G01*
X194352900Y-95545700D01*
G75*
G02*
X194502900Y-95395700I150000J0D01*
G01*
G37*
G36*
G01*
X181860380Y-103113120D02*
X182360380Y-103113120D01*
G75*
G02*
X182585380Y-103338120I0J-225000D01*
G01*
X182585380Y-103788120D01*
G75*
G02*
X182360380Y-104013120I-225000J0D01*
G01*
X181860380Y-104013120D01*
G75*
G02*
X181635380Y-103788120I0J225000D01*
G01*
X181635380Y-103338120D01*
G75*
G02*
X181860380Y-103113120I225000J0D01*
G01*
G37*
G36*
G01*
X181860380Y-104663120D02*
X182360380Y-104663120D01*
G75*
G02*
X182585380Y-104888120I0J-225000D01*
G01*
X182585380Y-105338120D01*
G75*
G02*
X182360380Y-105563120I-225000J0D01*
G01*
X181860380Y-105563120D01*
G75*
G02*
X181635380Y-105338120I0J225000D01*
G01*
X181635380Y-104888120D01*
G75*
G02*
X181860380Y-104663120I225000J0D01*
G01*
G37*
G36*
G01*
X180175980Y-78334320D02*
X179675980Y-78334320D01*
G75*
G02*
X179450980Y-78109320I0J225000D01*
G01*
X179450980Y-77659320D01*
G75*
G02*
X179675980Y-77434320I225000J0D01*
G01*
X180175980Y-77434320D01*
G75*
G02*
X180400980Y-77659320I0J-225000D01*
G01*
X180400980Y-78109320D01*
G75*
G02*
X180175980Y-78334320I-225000J0D01*
G01*
G37*
G36*
G01*
X180175980Y-76784320D02*
X179675980Y-76784320D01*
G75*
G02*
X179450980Y-76559320I0J225000D01*
G01*
X179450980Y-76109320D01*
G75*
G02*
X179675980Y-75884320I225000J0D01*
G01*
X180175980Y-75884320D01*
G75*
G02*
X180400980Y-76109320I0J-225000D01*
G01*
X180400980Y-76559320D01*
G75*
G02*
X180175980Y-76784320I-225000J0D01*
G01*
G37*
G36*
G01*
X174664180Y-78359720D02*
X174164180Y-78359720D01*
G75*
G02*
X173939180Y-78134720I0J225000D01*
G01*
X173939180Y-77684720D01*
G75*
G02*
X174164180Y-77459720I225000J0D01*
G01*
X174664180Y-77459720D01*
G75*
G02*
X174889180Y-77684720I0J-225000D01*
G01*
X174889180Y-78134720D01*
G75*
G02*
X174664180Y-78359720I-225000J0D01*
G01*
G37*
G36*
G01*
X174664180Y-76809720D02*
X174164180Y-76809720D01*
G75*
G02*
X173939180Y-76584720I0J225000D01*
G01*
X173939180Y-76134720D01*
G75*
G02*
X174164180Y-75909720I225000J0D01*
G01*
X174664180Y-75909720D01*
G75*
G02*
X174889180Y-76134720I0J-225000D01*
G01*
X174889180Y-76584720D01*
G75*
G02*
X174664180Y-76809720I-225000J0D01*
G01*
G37*
G36*
G01*
X188962580Y-87417720D02*
X188962580Y-86917720D01*
G75*
G02*
X189187580Y-86692720I225000J0D01*
G01*
X189637580Y-86692720D01*
G75*
G02*
X189862580Y-86917720I0J-225000D01*
G01*
X189862580Y-87417720D01*
G75*
G02*
X189637580Y-87642720I-225000J0D01*
G01*
X189187580Y-87642720D01*
G75*
G02*
X188962580Y-87417720I0J225000D01*
G01*
G37*
G36*
G01*
X190512580Y-87417720D02*
X190512580Y-86917720D01*
G75*
G02*
X190737580Y-86692720I225000J0D01*
G01*
X191187580Y-86692720D01*
G75*
G02*
X191412580Y-86917720I0J-225000D01*
G01*
X191412580Y-87417720D01*
G75*
G02*
X191187580Y-87642720I-225000J0D01*
G01*
X190737580Y-87642720D01*
G75*
G02*
X190512580Y-87417720I0J225000D01*
G01*
G37*
G36*
G01*
X164310780Y-87959120D02*
X164310780Y-88459120D01*
G75*
G02*
X164085780Y-88684120I-225000J0D01*
G01*
X163635780Y-88684120D01*
G75*
G02*
X163410780Y-88459120I0J225000D01*
G01*
X163410780Y-87959120D01*
G75*
G02*
X163635780Y-87734120I225000J0D01*
G01*
X164085780Y-87734120D01*
G75*
G02*
X164310780Y-87959120I0J-225000D01*
G01*
G37*
G36*
G01*
X162760780Y-87959120D02*
X162760780Y-88459120D01*
G75*
G02*
X162535780Y-88684120I-225000J0D01*
G01*
X162085780Y-88684120D01*
G75*
G02*
X161860780Y-88459120I0J225000D01*
G01*
X161860780Y-87959120D01*
G75*
G02*
X162085780Y-87734120I225000J0D01*
G01*
X162535780Y-87734120D01*
G75*
G02*
X162760780Y-87959120I0J-225000D01*
G01*
G37*
G36*
G01*
X188878400Y-91739000D02*
X189378400Y-91739000D01*
G75*
G02*
X189603400Y-91964000I0J-225000D01*
G01*
X189603400Y-92414000D01*
G75*
G02*
X189378400Y-92639000I-225000J0D01*
G01*
X188878400Y-92639000D01*
G75*
G02*
X188653400Y-92414000I0J225000D01*
G01*
X188653400Y-91964000D01*
G75*
G02*
X188878400Y-91739000I225000J0D01*
G01*
G37*
G36*
G01*
X188878400Y-93289000D02*
X189378400Y-93289000D01*
G75*
G02*
X189603400Y-93514000I0J-225000D01*
G01*
X189603400Y-93964000D01*
G75*
G02*
X189378400Y-94189000I-225000J0D01*
G01*
X188878400Y-94189000D01*
G75*
G02*
X188653400Y-93964000I0J225000D01*
G01*
X188653400Y-93514000D01*
G75*
G02*
X188878400Y-93289000I225000J0D01*
G01*
G37*
G36*
G01*
X164323180Y-92962920D02*
X164323180Y-93462920D01*
G75*
G02*
X164098180Y-93687920I-225000J0D01*
G01*
X163648180Y-93687920D01*
G75*
G02*
X163423180Y-93462920I0J225000D01*
G01*
X163423180Y-92962920D01*
G75*
G02*
X163648180Y-92737920I225000J0D01*
G01*
X164098180Y-92737920D01*
G75*
G02*
X164323180Y-92962920I0J-225000D01*
G01*
G37*
G36*
G01*
X162773180Y-92962920D02*
X162773180Y-93462920D01*
G75*
G02*
X162548180Y-93687920I-225000J0D01*
G01*
X162098180Y-93687920D01*
G75*
G02*
X161873180Y-93462920I0J225000D01*
G01*
X161873180Y-92962920D01*
G75*
G02*
X162098180Y-92737920I225000J0D01*
G01*
X162548180Y-92737920D01*
G75*
G02*
X162773180Y-92962920I0J-225000D01*
G01*
G37*
G36*
G01*
X160877800Y-97384280D02*
X160877800Y-96834280D01*
G75*
G02*
X161077800Y-96634280I200000J0D01*
G01*
X161477800Y-96634280D01*
G75*
G02*
X161677800Y-96834280I0J-200000D01*
G01*
X161677800Y-97384280D01*
G75*
G02*
X161477800Y-97584280I-200000J0D01*
G01*
X161077800Y-97584280D01*
G75*
G02*
X160877800Y-97384280I0J200000D01*
G01*
G37*
G36*
G01*
X162527800Y-97384280D02*
X162527800Y-96834280D01*
G75*
G02*
X162727800Y-96634280I200000J0D01*
G01*
X163127800Y-96634280D01*
G75*
G02*
X163327800Y-96834280I0J-200000D01*
G01*
X163327800Y-97384280D01*
G75*
G02*
X163127800Y-97584280I-200000J0D01*
G01*
X162727800Y-97584280D01*
G75*
G02*
X162527800Y-97384280I0J200000D01*
G01*
G37*
D23*
X202577700Y-113995200D03*
D24*
X202577700Y-111455200D03*
G36*
G01*
X202366200Y-105936600D02*
X202916200Y-105936600D01*
G75*
G02*
X203116200Y-106136600I0J-200000D01*
G01*
X203116200Y-106536600D01*
G75*
G02*
X202916200Y-106736600I-200000J0D01*
G01*
X202366200Y-106736600D01*
G75*
G02*
X202166200Y-106536600I0J200000D01*
G01*
X202166200Y-106136600D01*
G75*
G02*
X202366200Y-105936600I200000J0D01*
G01*
G37*
G36*
G01*
X202366200Y-104286600D02*
X202916200Y-104286600D01*
G75*
G02*
X203116200Y-104486600I0J-200000D01*
G01*
X203116200Y-104886600D01*
G75*
G02*
X202916200Y-105086600I-200000J0D01*
G01*
X202366200Y-105086600D01*
G75*
G02*
X202166200Y-104886600I0J200000D01*
G01*
X202166200Y-104486600D01*
G75*
G02*
X202366200Y-104286600I200000J0D01*
G01*
G37*
G36*
G01*
X202384950Y-102813600D02*
X202897450Y-102813600D01*
G75*
G02*
X203116200Y-103032350I0J-218750D01*
G01*
X203116200Y-103469850D01*
G75*
G02*
X202897450Y-103688600I-218750J0D01*
G01*
X202384950Y-103688600D01*
G75*
G02*
X202166200Y-103469850I0J218750D01*
G01*
X202166200Y-103032350D01*
G75*
G02*
X202384950Y-102813600I218750J0D01*
G01*
G37*
G36*
G01*
X202384950Y-101238600D02*
X202897450Y-101238600D01*
G75*
G02*
X203116200Y-101457350I0J-218750D01*
G01*
X203116200Y-101894850D01*
G75*
G02*
X202897450Y-102113600I-218750J0D01*
G01*
X202384950Y-102113600D01*
G75*
G02*
X202166200Y-101894850I0J218750D01*
G01*
X202166200Y-101457350D01*
G75*
G02*
X202384950Y-101238600I218750J0D01*
G01*
G37*
D18*
X140952400Y-110632200D03*
X140952400Y-112532200D03*
X138752400Y-112532200D03*
X138752400Y-111582200D03*
X138752400Y-110632200D03*
G36*
G01*
X136279700Y-113162200D02*
X135779700Y-113162200D01*
G75*
G02*
X135554700Y-112937200I0J225000D01*
G01*
X135554700Y-112487200D01*
G75*
G02*
X135779700Y-112262200I225000J0D01*
G01*
X136279700Y-112262200D01*
G75*
G02*
X136504700Y-112487200I0J-225000D01*
G01*
X136504700Y-112937200D01*
G75*
G02*
X136279700Y-113162200I-225000J0D01*
G01*
G37*
G36*
G01*
X136279700Y-114712200D02*
X135779700Y-114712200D01*
G75*
G02*
X135554700Y-114487200I0J225000D01*
G01*
X135554700Y-114037200D01*
G75*
G02*
X135779700Y-113812200I225000J0D01*
G01*
X136279700Y-113812200D01*
G75*
G02*
X136504700Y-114037200I0J-225000D01*
G01*
X136504700Y-114487200D01*
G75*
G02*
X136279700Y-114712200I-225000J0D01*
G01*
G37*
G36*
G01*
X115212150Y-70860400D02*
X115724650Y-70860400D01*
G75*
G02*
X115943400Y-71079150I0J-218750D01*
G01*
X115943400Y-71516650D01*
G75*
G02*
X115724650Y-71735400I-218750J0D01*
G01*
X115212150Y-71735400D01*
G75*
G02*
X114993400Y-71516650I0J218750D01*
G01*
X114993400Y-71079150D01*
G75*
G02*
X115212150Y-70860400I218750J0D01*
G01*
G37*
G36*
G01*
X115212150Y-69285400D02*
X115724650Y-69285400D01*
G75*
G02*
X115943400Y-69504150I0J-218750D01*
G01*
X115943400Y-69941650D01*
G75*
G02*
X115724650Y-70160400I-218750J0D01*
G01*
X115212150Y-70160400D01*
G75*
G02*
X114993400Y-69941650I0J218750D01*
G01*
X114993400Y-69504150D01*
G75*
G02*
X115212150Y-69285400I218750J0D01*
G01*
G37*
G36*
G01*
X116971400Y-112794600D02*
X117521400Y-112794600D01*
G75*
G02*
X117721400Y-112994600I0J-200000D01*
G01*
X117721400Y-113394600D01*
G75*
G02*
X117521400Y-113594600I-200000J0D01*
G01*
X116971400Y-113594600D01*
G75*
G02*
X116771400Y-113394600I0J200000D01*
G01*
X116771400Y-112994600D01*
G75*
G02*
X116971400Y-112794600I200000J0D01*
G01*
G37*
G36*
G01*
X116971400Y-111144600D02*
X117521400Y-111144600D01*
G75*
G02*
X117721400Y-111344600I0J-200000D01*
G01*
X117721400Y-111744600D01*
G75*
G02*
X117521400Y-111944600I-200000J0D01*
G01*
X116971400Y-111944600D01*
G75*
G02*
X116771400Y-111744600I0J200000D01*
G01*
X116771400Y-111344600D01*
G75*
G02*
X116971400Y-111144600I200000J0D01*
G01*
G37*
G36*
G01*
X115472800Y-112794600D02*
X116022800Y-112794600D01*
G75*
G02*
X116222800Y-112994600I0J-200000D01*
G01*
X116222800Y-113394600D01*
G75*
G02*
X116022800Y-113594600I-200000J0D01*
G01*
X115472800Y-113594600D01*
G75*
G02*
X115272800Y-113394600I0J200000D01*
G01*
X115272800Y-112994600D01*
G75*
G02*
X115472800Y-112794600I200000J0D01*
G01*
G37*
G36*
G01*
X115472800Y-111144600D02*
X116022800Y-111144600D01*
G75*
G02*
X116222800Y-111344600I0J-200000D01*
G01*
X116222800Y-111744600D01*
G75*
G02*
X116022800Y-111944600I-200000J0D01*
G01*
X115472800Y-111944600D01*
G75*
G02*
X115272800Y-111744600I0J200000D01*
G01*
X115272800Y-111344600D01*
G75*
G02*
X115472800Y-111144600I200000J0D01*
G01*
G37*
D25*
X111974400Y-111516200D03*
D26*
X113884400Y-112896200D03*
X113884400Y-113396200D03*
X113884400Y-113896200D03*
X113884400Y-114396200D03*
X113884400Y-114896200D03*
X113884400Y-115396200D03*
X113884400Y-115896200D03*
X113884400Y-118396200D03*
X113884400Y-117396200D03*
X113884400Y-116896200D03*
X113884400Y-116396200D03*
X113884400Y-117896200D03*
X112184400Y-118146200D03*
D25*
X111974400Y-119776200D03*
X106024400Y-120136200D03*
X106024400Y-111156200D03*
D27*
X113224400Y-119246200D03*
D28*
X113224400Y-112046200D03*
D26*
X112184400Y-117646200D03*
X112184400Y-117146200D03*
X112184400Y-116646200D03*
X112184400Y-116146200D03*
X112184400Y-115646200D03*
X112184400Y-115146200D03*
X112184400Y-114646200D03*
X112184400Y-114146200D03*
X112184400Y-113646200D03*
X112184400Y-113146200D03*
X112184400Y-112646200D03*
D29*
X122539000Y-112471200D03*
X120539000Y-113421200D03*
X120539000Y-111521200D03*
D30*
X114220400Y-72522800D03*
X114220400Y-76712800D03*
D31*
X109790400Y-69401800D03*
D32*
X112975400Y-69401800D03*
X113545400Y-80051800D03*
D33*
X110935400Y-80051800D03*
D34*
X109665400Y-80036800D03*
D35*
X106985400Y-70576800D03*
X106985400Y-71676800D03*
X106985400Y-72776800D03*
X106985400Y-73876800D03*
X106985400Y-74976800D03*
X106985400Y-76076800D03*
X106985400Y-77176800D03*
X106985400Y-78276800D03*
G36*
G01*
X109138600Y-81733200D02*
X109138600Y-81233200D01*
G75*
G02*
X109363600Y-81008200I225000J0D01*
G01*
X109813600Y-81008200D01*
G75*
G02*
X110038600Y-81233200I0J-225000D01*
G01*
X110038600Y-81733200D01*
G75*
G02*
X109813600Y-81958200I-225000J0D01*
G01*
X109363600Y-81958200D01*
G75*
G02*
X109138600Y-81733200I0J225000D01*
G01*
G37*
G36*
G01*
X107588600Y-81733200D02*
X107588600Y-81233200D01*
G75*
G02*
X107813600Y-81008200I225000J0D01*
G01*
X108263600Y-81008200D01*
G75*
G02*
X108488600Y-81233200I0J-225000D01*
G01*
X108488600Y-81733200D01*
G75*
G02*
X108263600Y-81958200I-225000J0D01*
G01*
X107813600Y-81958200D01*
G75*
G02*
X107588600Y-81733200I0J225000D01*
G01*
G37*
D36*
X105708600Y-106960000D03*
D37*
X105708600Y-104260000D03*
D38*
X105708600Y-108785000D03*
X105708600Y-102035000D03*
D39*
X108283600Y-107897500D03*
X108283600Y-102922500D03*
D40*
X108368600Y-106710000D03*
X108368600Y-106060000D03*
X108368600Y-105410000D03*
X108368600Y-104760000D03*
X108368600Y-104110000D03*
G36*
G01*
X142323000Y-85272200D02*
X142323000Y-85822200D01*
G75*
G02*
X142123000Y-86022200I-200000J0D01*
G01*
X141723000Y-86022200D01*
G75*
G02*
X141523000Y-85822200I0J200000D01*
G01*
X141523000Y-85272200D01*
G75*
G02*
X141723000Y-85072200I200000J0D01*
G01*
X142123000Y-85072200D01*
G75*
G02*
X142323000Y-85272200I0J-200000D01*
G01*
G37*
G36*
G01*
X143973000Y-85272200D02*
X143973000Y-85822200D01*
G75*
G02*
X143773000Y-86022200I-200000J0D01*
G01*
X143373000Y-86022200D01*
G75*
G02*
X143173000Y-85822200I0J200000D01*
G01*
X143173000Y-85272200D01*
G75*
G02*
X143373000Y-85072200I200000J0D01*
G01*
X143773000Y-85072200D01*
G75*
G02*
X143973000Y-85272200I0J-200000D01*
G01*
G37*
D41*
X168762680Y-107127360D03*
X168762680Y-104627360D03*
D42*
X128148400Y-116483600D03*
D43*
X126898400Y-118973600D03*
X122398400Y-118973600D03*
D42*
X121138400Y-116483600D03*
G36*
G01*
X115193400Y-76371000D02*
X115743400Y-76371000D01*
G75*
G02*
X115943400Y-76571000I0J-200000D01*
G01*
X115943400Y-76971000D01*
G75*
G02*
X115743400Y-77171000I-200000J0D01*
G01*
X115193400Y-77171000D01*
G75*
G02*
X114993400Y-76971000I0J200000D01*
G01*
X114993400Y-76571000D01*
G75*
G02*
X115193400Y-76371000I200000J0D01*
G01*
G37*
G36*
G01*
X115193400Y-74721000D02*
X115743400Y-74721000D01*
G75*
G02*
X115943400Y-74921000I0J-200000D01*
G01*
X115943400Y-75321000D01*
G75*
G02*
X115743400Y-75521000I-200000J0D01*
G01*
X115193400Y-75521000D01*
G75*
G02*
X114993400Y-75321000I0J200000D01*
G01*
X114993400Y-74921000D01*
G75*
G02*
X115193400Y-74721000I200000J0D01*
G01*
G37*
X119916400Y-82561100D03*
X118516400Y-98871100D03*
D44*
X125246400Y-85636100D03*
X127786400Y-86652100D03*
X125246400Y-87668100D03*
X127786400Y-88684100D03*
X125246400Y-89700100D03*
D45*
X111276400Y-97741100D03*
X108736400Y-97741100D03*
X111276400Y-83691100D03*
X108736400Y-83691100D03*
D46*
X116616400Y-82561100D03*
X114198400Y-98871100D03*
D44*
X127786400Y-84620100D03*
D46*
X124236400Y-82561100D03*
X121816400Y-98871100D03*
G36*
G01*
X130740600Y-81792400D02*
X130740600Y-82342400D01*
G75*
G02*
X130540600Y-82542400I-200000J0D01*
G01*
X130140600Y-82542400D01*
G75*
G02*
X129940600Y-82342400I0J200000D01*
G01*
X129940600Y-81792400D01*
G75*
G02*
X130140600Y-81592400I200000J0D01*
G01*
X130540600Y-81592400D01*
G75*
G02*
X130740600Y-81792400I0J-200000D01*
G01*
G37*
G36*
G01*
X132390600Y-81792400D02*
X132390600Y-82342400D01*
G75*
G02*
X132190600Y-82542400I-200000J0D01*
G01*
X131790600Y-82542400D01*
G75*
G02*
X131590600Y-82342400I0J200000D01*
G01*
X131590600Y-81792400D01*
G75*
G02*
X131790600Y-81592400I200000J0D01*
G01*
X132190600Y-81592400D01*
G75*
G02*
X132390600Y-81792400I0J-200000D01*
G01*
G37*
G36*
G01*
X130740600Y-80293800D02*
X130740600Y-80843800D01*
G75*
G02*
X130540600Y-81043800I-200000J0D01*
G01*
X130140600Y-81043800D01*
G75*
G02*
X129940600Y-80843800I0J200000D01*
G01*
X129940600Y-80293800D01*
G75*
G02*
X130140600Y-80093800I200000J0D01*
G01*
X130540600Y-80093800D01*
G75*
G02*
X130740600Y-80293800I0J-200000D01*
G01*
G37*
G36*
G01*
X132390600Y-80293800D02*
X132390600Y-80843800D01*
G75*
G02*
X132190600Y-81043800I-200000J0D01*
G01*
X131790600Y-81043800D01*
G75*
G02*
X131590600Y-80843800I0J200000D01*
G01*
X131590600Y-80293800D01*
G75*
G02*
X131790600Y-80093800I200000J0D01*
G01*
X132190600Y-80093800D01*
G75*
G02*
X132390600Y-80293800I0J-200000D01*
G01*
G37*
G36*
G01*
X137621600Y-94303400D02*
X138171600Y-94303400D01*
G75*
G02*
X138371600Y-94503400I0J-200000D01*
G01*
X138371600Y-94903400D01*
G75*
G02*
X138171600Y-95103400I-200000J0D01*
G01*
X137621600Y-95103400D01*
G75*
G02*
X137421600Y-94903400I0J200000D01*
G01*
X137421600Y-94503400D01*
G75*
G02*
X137621600Y-94303400I200000J0D01*
G01*
G37*
G36*
G01*
X137621600Y-92653400D02*
X138171600Y-92653400D01*
G75*
G02*
X138371600Y-92853400I0J-200000D01*
G01*
X138371600Y-93253400D01*
G75*
G02*
X138171600Y-93453400I-200000J0D01*
G01*
X137621600Y-93453400D01*
G75*
G02*
X137421600Y-93253400I0J200000D01*
G01*
X137421600Y-92853400D01*
G75*
G02*
X137621600Y-92653400I200000J0D01*
G01*
G37*
G36*
G01*
X134512800Y-82704650D02*
X134512800Y-82192150D01*
G75*
G02*
X134731550Y-81973400I218750J0D01*
G01*
X135169050Y-81973400D01*
G75*
G02*
X135387800Y-82192150I0J-218750D01*
G01*
X135387800Y-82704650D01*
G75*
G02*
X135169050Y-82923400I-218750J0D01*
G01*
X134731550Y-82923400D01*
G75*
G02*
X134512800Y-82704650I0J218750D01*
G01*
G37*
G36*
G01*
X132937800Y-82704650D02*
X132937800Y-82192150D01*
G75*
G02*
X133156550Y-81973400I218750J0D01*
G01*
X133594050Y-81973400D01*
G75*
G02*
X133812800Y-82192150I0J-218750D01*
G01*
X133812800Y-82704650D01*
G75*
G02*
X133594050Y-82923400I-218750J0D01*
G01*
X133156550Y-82923400D01*
G75*
G02*
X132937800Y-82704650I0J218750D01*
G01*
G37*
G36*
G01*
X131554100Y-88959500D02*
X131554100Y-88459500D01*
G75*
G02*
X131779100Y-88234500I225000J0D01*
G01*
X132229100Y-88234500D01*
G75*
G02*
X132454100Y-88459500I0J-225000D01*
G01*
X132454100Y-88959500D01*
G75*
G02*
X132229100Y-89184500I-225000J0D01*
G01*
X131779100Y-89184500D01*
G75*
G02*
X131554100Y-88959500I0J225000D01*
G01*
G37*
G36*
G01*
X130004100Y-88959500D02*
X130004100Y-88459500D01*
G75*
G02*
X130229100Y-88234500I225000J0D01*
G01*
X130679100Y-88234500D01*
G75*
G02*
X130904100Y-88459500I0J-225000D01*
G01*
X130904100Y-88959500D01*
G75*
G02*
X130679100Y-89184500I-225000J0D01*
G01*
X130229100Y-89184500D01*
G75*
G02*
X130004100Y-88959500I0J225000D01*
G01*
G37*
G36*
G01*
X130904100Y-89983500D02*
X130904100Y-90483500D01*
G75*
G02*
X130679100Y-90708500I-225000J0D01*
G01*
X130229100Y-90708500D01*
G75*
G02*
X130004100Y-90483500I0J225000D01*
G01*
X130004100Y-89983500D01*
G75*
G02*
X130229100Y-89758500I225000J0D01*
G01*
X130679100Y-89758500D01*
G75*
G02*
X130904100Y-89983500I0J-225000D01*
G01*
G37*
G36*
G01*
X132454100Y-89983500D02*
X132454100Y-90483500D01*
G75*
G02*
X132229100Y-90708500I-225000J0D01*
G01*
X131779100Y-90708500D01*
G75*
G02*
X131554100Y-90483500I0J225000D01*
G01*
X131554100Y-89983500D01*
G75*
G02*
X131779100Y-89758500I225000J0D01*
G01*
X132229100Y-89758500D01*
G75*
G02*
X132454100Y-89983500I0J-225000D01*
G01*
G37*
G36*
G01*
X134616000Y-84384000D02*
X134116000Y-84384000D01*
G75*
G02*
X133891000Y-84159000I0J225000D01*
G01*
X133891000Y-83709000D01*
G75*
G02*
X134116000Y-83484000I225000J0D01*
G01*
X134616000Y-83484000D01*
G75*
G02*
X134841000Y-83709000I0J-225000D01*
G01*
X134841000Y-84159000D01*
G75*
G02*
X134616000Y-84384000I-225000J0D01*
G01*
G37*
G36*
G01*
X134616000Y-85934000D02*
X134116000Y-85934000D01*
G75*
G02*
X133891000Y-85709000I0J225000D01*
G01*
X133891000Y-85259000D01*
G75*
G02*
X134116000Y-85034000I225000J0D01*
G01*
X134616000Y-85034000D01*
G75*
G02*
X134841000Y-85259000I0J-225000D01*
G01*
X134841000Y-85709000D01*
G75*
G02*
X134616000Y-85934000I-225000J0D01*
G01*
G37*
G36*
G01*
X133066600Y-84384000D02*
X132566600Y-84384000D01*
G75*
G02*
X132341600Y-84159000I0J225000D01*
G01*
X132341600Y-83709000D01*
G75*
G02*
X132566600Y-83484000I225000J0D01*
G01*
X133066600Y-83484000D01*
G75*
G02*
X133291600Y-83709000I0J-225000D01*
G01*
X133291600Y-84159000D01*
G75*
G02*
X133066600Y-84384000I-225000J0D01*
G01*
G37*
G36*
G01*
X133066600Y-85934000D02*
X132566600Y-85934000D01*
G75*
G02*
X132341600Y-85709000I0J225000D01*
G01*
X132341600Y-85259000D01*
G75*
G02*
X132566600Y-85034000I225000J0D01*
G01*
X133066600Y-85034000D01*
G75*
G02*
X133291600Y-85259000I0J-225000D01*
G01*
X133291600Y-85709000D01*
G75*
G02*
X133066600Y-85934000I-225000J0D01*
G01*
G37*
G36*
G01*
X136673400Y-82872700D02*
X136173400Y-82872700D01*
G75*
G02*
X135948400Y-82647700I0J225000D01*
G01*
X135948400Y-82197700D01*
G75*
G02*
X136173400Y-81972700I225000J0D01*
G01*
X136673400Y-81972700D01*
G75*
G02*
X136898400Y-82197700I0J-225000D01*
G01*
X136898400Y-82647700D01*
G75*
G02*
X136673400Y-82872700I-225000J0D01*
G01*
G37*
G36*
G01*
X136673400Y-84422700D02*
X136173400Y-84422700D01*
G75*
G02*
X135948400Y-84197700I0J225000D01*
G01*
X135948400Y-83747700D01*
G75*
G02*
X136173400Y-83522700I225000J0D01*
G01*
X136673400Y-83522700D01*
G75*
G02*
X136898400Y-83747700I0J-225000D01*
G01*
X136898400Y-84197700D01*
G75*
G02*
X136673400Y-84422700I-225000J0D01*
G01*
G37*
G36*
G01*
X138235500Y-82872700D02*
X137735500Y-82872700D01*
G75*
G02*
X137510500Y-82647700I0J225000D01*
G01*
X137510500Y-82197700D01*
G75*
G02*
X137735500Y-81972700I225000J0D01*
G01*
X138235500Y-81972700D01*
G75*
G02*
X138460500Y-82197700I0J-225000D01*
G01*
X138460500Y-82647700D01*
G75*
G02*
X138235500Y-82872700I-225000J0D01*
G01*
G37*
G36*
G01*
X138235500Y-84422700D02*
X137735500Y-84422700D01*
G75*
G02*
X137510500Y-84197700I0J225000D01*
G01*
X137510500Y-83747700D01*
G75*
G02*
X137735500Y-83522700I225000J0D01*
G01*
X138235500Y-83522700D01*
G75*
G02*
X138460500Y-83747700I0J-225000D01*
G01*
X138460500Y-84197700D01*
G75*
G02*
X138235500Y-84422700I-225000J0D01*
G01*
G37*
G36*
G01*
X143272700Y-91206200D02*
X143772700Y-91206200D01*
G75*
G02*
X143997700Y-91431200I0J-225000D01*
G01*
X143997700Y-91881200D01*
G75*
G02*
X143772700Y-92106200I-225000J0D01*
G01*
X143272700Y-92106200D01*
G75*
G02*
X143047700Y-91881200I0J225000D01*
G01*
X143047700Y-91431200D01*
G75*
G02*
X143272700Y-91206200I225000J0D01*
G01*
G37*
G36*
G01*
X143272700Y-89656200D02*
X143772700Y-89656200D01*
G75*
G02*
X143997700Y-89881200I0J-225000D01*
G01*
X143997700Y-90331200D01*
G75*
G02*
X143772700Y-90556200I-225000J0D01*
G01*
X143272700Y-90556200D01*
G75*
G02*
X143047700Y-90331200I0J225000D01*
G01*
X143047700Y-89881200D01*
G75*
G02*
X143272700Y-89656200I225000J0D01*
G01*
G37*
G36*
G01*
X141748700Y-91206200D02*
X142248700Y-91206200D01*
G75*
G02*
X142473700Y-91431200I0J-225000D01*
G01*
X142473700Y-91881200D01*
G75*
G02*
X142248700Y-92106200I-225000J0D01*
G01*
X141748700Y-92106200D01*
G75*
G02*
X141523700Y-91881200I0J225000D01*
G01*
X141523700Y-91431200D01*
G75*
G02*
X141748700Y-91206200I225000J0D01*
G01*
G37*
G36*
G01*
X141748700Y-89656200D02*
X142248700Y-89656200D01*
G75*
G02*
X142473700Y-89881200I0J-225000D01*
G01*
X142473700Y-90331200D01*
G75*
G02*
X142248700Y-90556200I-225000J0D01*
G01*
X141748700Y-90556200D01*
G75*
G02*
X141523700Y-90331200I0J225000D01*
G01*
X141523700Y-89881200D01*
G75*
G02*
X141748700Y-89656200I225000J0D01*
G01*
G37*
G36*
G01*
X131475360Y-92589160D02*
X131475360Y-92089160D01*
G75*
G02*
X131700360Y-91864160I225000J0D01*
G01*
X132150360Y-91864160D01*
G75*
G02*
X132375360Y-92089160I0J-225000D01*
G01*
X132375360Y-92589160D01*
G75*
G02*
X132150360Y-92814160I-225000J0D01*
G01*
X131700360Y-92814160D01*
G75*
G02*
X131475360Y-92589160I0J225000D01*
G01*
G37*
G36*
G01*
X129925360Y-92589160D02*
X129925360Y-92089160D01*
G75*
G02*
X130150360Y-91864160I225000J0D01*
G01*
X130600360Y-91864160D01*
G75*
G02*
X130825360Y-92089160I0J-225000D01*
G01*
X130825360Y-92589160D01*
G75*
G02*
X130600360Y-92814160I-225000J0D01*
G01*
X130150360Y-92814160D01*
G75*
G02*
X129925360Y-92589160I0J225000D01*
G01*
G37*
G36*
G01*
X131480440Y-96267080D02*
X131480440Y-95767080D01*
G75*
G02*
X131705440Y-95542080I225000J0D01*
G01*
X132155440Y-95542080D01*
G75*
G02*
X132380440Y-95767080I0J-225000D01*
G01*
X132380440Y-96267080D01*
G75*
G02*
X132155440Y-96492080I-225000J0D01*
G01*
X131705440Y-96492080D01*
G75*
G02*
X131480440Y-96267080I0J225000D01*
G01*
G37*
G36*
G01*
X129930440Y-96267080D02*
X129930440Y-95767080D01*
G75*
G02*
X130155440Y-95542080I225000J0D01*
G01*
X130605440Y-95542080D01*
G75*
G02*
X130830440Y-95767080I0J-225000D01*
G01*
X130830440Y-96267080D01*
G75*
G02*
X130605440Y-96492080I-225000J0D01*
G01*
X130155440Y-96492080D01*
G75*
G02*
X129930440Y-96267080I0J225000D01*
G01*
G37*
G36*
G01*
X119947240Y-108352000D02*
X119947240Y-107802000D01*
G75*
G02*
X120147240Y-107602000I200000J0D01*
G01*
X120547240Y-107602000D01*
G75*
G02*
X120747240Y-107802000I0J-200000D01*
G01*
X120747240Y-108352000D01*
G75*
G02*
X120547240Y-108552000I-200000J0D01*
G01*
X120147240Y-108552000D01*
G75*
G02*
X119947240Y-108352000I0J200000D01*
G01*
G37*
G36*
G01*
X118297240Y-108352000D02*
X118297240Y-107802000D01*
G75*
G02*
X118497240Y-107602000I200000J0D01*
G01*
X118897240Y-107602000D01*
G75*
G02*
X119097240Y-107802000I0J-200000D01*
G01*
X119097240Y-108352000D01*
G75*
G02*
X118897240Y-108552000I-200000J0D01*
G01*
X118497240Y-108552000D01*
G75*
G02*
X118297240Y-108352000I0J200000D01*
G01*
G37*
D47*
X112217200Y-108619800D03*
X111267200Y-106619800D03*
X113167200Y-106619800D03*
G36*
G01*
X122048460Y-105242240D02*
X122548460Y-105242240D01*
G75*
G02*
X122773460Y-105467240I0J-225000D01*
G01*
X122773460Y-105917240D01*
G75*
G02*
X122548460Y-106142240I-225000J0D01*
G01*
X122048460Y-106142240D01*
G75*
G02*
X121823460Y-105917240I0J225000D01*
G01*
X121823460Y-105467240D01*
G75*
G02*
X122048460Y-105242240I225000J0D01*
G01*
G37*
G36*
G01*
X122048460Y-103692240D02*
X122548460Y-103692240D01*
G75*
G02*
X122773460Y-103917240I0J-225000D01*
G01*
X122773460Y-104367240D01*
G75*
G02*
X122548460Y-104592240I-225000J0D01*
G01*
X122048460Y-104592240D01*
G75*
G02*
X121823460Y-104367240I0J225000D01*
G01*
X121823460Y-103917240D01*
G75*
G02*
X122048460Y-103692240I225000J0D01*
G01*
G37*
G36*
G01*
X114560160Y-103906440D02*
X114060160Y-103906440D01*
G75*
G02*
X113835160Y-103681440I0J225000D01*
G01*
X113835160Y-103231440D01*
G75*
G02*
X114060160Y-103006440I225000J0D01*
G01*
X114560160Y-103006440D01*
G75*
G02*
X114785160Y-103231440I0J-225000D01*
G01*
X114785160Y-103681440D01*
G75*
G02*
X114560160Y-103906440I-225000J0D01*
G01*
G37*
G36*
G01*
X114560160Y-105456440D02*
X114060160Y-105456440D01*
G75*
G02*
X113835160Y-105231440I0J225000D01*
G01*
X113835160Y-104781440D01*
G75*
G02*
X114060160Y-104556440I225000J0D01*
G01*
X114560160Y-104556440D01*
G75*
G02*
X114785160Y-104781440I0J-225000D01*
G01*
X114785160Y-105231440D01*
G75*
G02*
X114560160Y-105456440I-225000J0D01*
G01*
G37*
G36*
G01*
X124092780Y-104579540D02*
X123592780Y-104579540D01*
G75*
G02*
X123367780Y-104354540I0J225000D01*
G01*
X123367780Y-103904540D01*
G75*
G02*
X123592780Y-103679540I225000J0D01*
G01*
X124092780Y-103679540D01*
G75*
G02*
X124317780Y-103904540I0J-225000D01*
G01*
X124317780Y-104354540D01*
G75*
G02*
X124092780Y-104579540I-225000J0D01*
G01*
G37*
G36*
G01*
X124092780Y-106129540D02*
X123592780Y-106129540D01*
G75*
G02*
X123367780Y-105904540I0J225000D01*
G01*
X123367780Y-105454540D01*
G75*
G02*
X123592780Y-105229540I225000J0D01*
G01*
X124092780Y-105229540D01*
G75*
G02*
X124317780Y-105454540I0J-225000D01*
G01*
X124317780Y-105904540D01*
G75*
G02*
X124092780Y-106129540I-225000J0D01*
G01*
G37*
D18*
X154871600Y-109489200D03*
X154871600Y-111389200D03*
X152671600Y-111389200D03*
X152671600Y-110439200D03*
X152671600Y-109489200D03*
X140952400Y-114289800D03*
X140952400Y-116189800D03*
X138752400Y-116189800D03*
X138752400Y-115239800D03*
X138752400Y-114289800D03*
G36*
G01*
X151692800Y-114269400D02*
X152192800Y-114269400D01*
G75*
G02*
X152417800Y-114494400I0J-225000D01*
G01*
X152417800Y-114944400D01*
G75*
G02*
X152192800Y-115169400I-225000J0D01*
G01*
X151692800Y-115169400D01*
G75*
G02*
X151467800Y-114944400I0J225000D01*
G01*
X151467800Y-114494400D01*
G75*
G02*
X151692800Y-114269400I225000J0D01*
G01*
G37*
G36*
G01*
X151692800Y-112719400D02*
X152192800Y-112719400D01*
G75*
G02*
X152417800Y-112944400I0J-225000D01*
G01*
X152417800Y-113394400D01*
G75*
G02*
X152192800Y-113619400I-225000J0D01*
G01*
X151692800Y-113619400D01*
G75*
G02*
X151467800Y-113394400I0J225000D01*
G01*
X151467800Y-112944400D01*
G75*
G02*
X151692800Y-112719400I225000J0D01*
G01*
G37*
G36*
G01*
X150235800Y-116632800D02*
X150235800Y-116132800D01*
G75*
G02*
X150460800Y-115907800I225000J0D01*
G01*
X150910800Y-115907800D01*
G75*
G02*
X151135800Y-116132800I0J-225000D01*
G01*
X151135800Y-116632800D01*
G75*
G02*
X150910800Y-116857800I-225000J0D01*
G01*
X150460800Y-116857800D01*
G75*
G02*
X150235800Y-116632800I0J225000D01*
G01*
G37*
G36*
G01*
X148685800Y-116632800D02*
X148685800Y-116132800D01*
G75*
G02*
X148910800Y-115907800I225000J0D01*
G01*
X149360800Y-115907800D01*
G75*
G02*
X149585800Y-116132800I0J-225000D01*
G01*
X149585800Y-116632800D01*
G75*
G02*
X149360800Y-116857800I-225000J0D01*
G01*
X148910800Y-116857800D01*
G75*
G02*
X148685800Y-116632800I0J225000D01*
G01*
G37*
G36*
G01*
X146663600Y-114269400D02*
X147163600Y-114269400D01*
G75*
G02*
X147388600Y-114494400I0J-225000D01*
G01*
X147388600Y-114944400D01*
G75*
G02*
X147163600Y-115169400I-225000J0D01*
G01*
X146663600Y-115169400D01*
G75*
G02*
X146438600Y-114944400I0J225000D01*
G01*
X146438600Y-114494400D01*
G75*
G02*
X146663600Y-114269400I225000J0D01*
G01*
G37*
G36*
G01*
X146663600Y-112719400D02*
X147163600Y-112719400D01*
G75*
G02*
X147388600Y-112944400I0J-225000D01*
G01*
X147388600Y-113394400D01*
G75*
G02*
X147163600Y-113619400I-225000J0D01*
G01*
X146663600Y-113619400D01*
G75*
G02*
X146438600Y-113394400I0J225000D01*
G01*
X146438600Y-112944400D01*
G75*
G02*
X146663600Y-112719400I225000J0D01*
G01*
G37*
G36*
G01*
X145206600Y-116582000D02*
X145206600Y-116082000D01*
G75*
G02*
X145431600Y-115857000I225000J0D01*
G01*
X145881600Y-115857000D01*
G75*
G02*
X146106600Y-116082000I0J-225000D01*
G01*
X146106600Y-116582000D01*
G75*
G02*
X145881600Y-116807000I-225000J0D01*
G01*
X145431600Y-116807000D01*
G75*
G02*
X145206600Y-116582000I0J225000D01*
G01*
G37*
G36*
G01*
X143656600Y-116582000D02*
X143656600Y-116082000D01*
G75*
G02*
X143881600Y-115857000I225000J0D01*
G01*
X144331600Y-115857000D01*
G75*
G02*
X144556600Y-116082000I0J-225000D01*
G01*
X144556600Y-116582000D01*
G75*
G02*
X144331600Y-116807000I-225000J0D01*
G01*
X143881600Y-116807000D01*
G75*
G02*
X143656600Y-116582000I0J225000D01*
G01*
G37*
G36*
G01*
X165596760Y-109912700D02*
X166096760Y-109912700D01*
G75*
G02*
X166321760Y-110137700I0J-225000D01*
G01*
X166321760Y-110587700D01*
G75*
G02*
X166096760Y-110812700I-225000J0D01*
G01*
X165596760Y-110812700D01*
G75*
G02*
X165371760Y-110587700I0J225000D01*
G01*
X165371760Y-110137700D01*
G75*
G02*
X165596760Y-109912700I225000J0D01*
G01*
G37*
G36*
G01*
X165596760Y-111462700D02*
X166096760Y-111462700D01*
G75*
G02*
X166321760Y-111687700I0J-225000D01*
G01*
X166321760Y-112137700D01*
G75*
G02*
X166096760Y-112362700I-225000J0D01*
G01*
X165596760Y-112362700D01*
G75*
G02*
X165371760Y-112137700I0J225000D01*
G01*
X165371760Y-111687700D01*
G75*
G02*
X165596760Y-111462700I225000J0D01*
G01*
G37*
G36*
G01*
X187136750Y-105568200D02*
X186624250Y-105568200D01*
G75*
G02*
X186405500Y-105349450I0J218750D01*
G01*
X186405500Y-104911950D01*
G75*
G02*
X186624250Y-104693200I218750J0D01*
G01*
X187136750Y-104693200D01*
G75*
G02*
X187355500Y-104911950I0J-218750D01*
G01*
X187355500Y-105349450D01*
G75*
G02*
X187136750Y-105568200I-218750J0D01*
G01*
G37*
G36*
G01*
X187136750Y-103993200D02*
X186624250Y-103993200D01*
G75*
G02*
X186405500Y-103774450I0J218750D01*
G01*
X186405500Y-103336950D01*
G75*
G02*
X186624250Y-103118200I218750J0D01*
G01*
X187136750Y-103118200D01*
G75*
G02*
X187355500Y-103336950I0J-218750D01*
G01*
X187355500Y-103774450D01*
G75*
G02*
X187136750Y-103993200I-218750J0D01*
G01*
G37*
G36*
G01*
X169190480Y-78347020D02*
X168690480Y-78347020D01*
G75*
G02*
X168465480Y-78122020I0J225000D01*
G01*
X168465480Y-77672020D01*
G75*
G02*
X168690480Y-77447020I225000J0D01*
G01*
X169190480Y-77447020D01*
G75*
G02*
X169415480Y-77672020I0J-225000D01*
G01*
X169415480Y-78122020D01*
G75*
G02*
X169190480Y-78347020I-225000J0D01*
G01*
G37*
G36*
G01*
X169190480Y-76797020D02*
X168690480Y-76797020D01*
G75*
G02*
X168465480Y-76572020I0J225000D01*
G01*
X168465480Y-76122020D01*
G75*
G02*
X168690480Y-75897020I225000J0D01*
G01*
X169190480Y-75897020D01*
G75*
G02*
X169415480Y-76122020I0J-225000D01*
G01*
X169415480Y-76572020D01*
G75*
G02*
X169190480Y-76797020I-225000J0D01*
G01*
G37*
G36*
G01*
X189000680Y-82350420D02*
X189000680Y-81850420D01*
G75*
G02*
X189225680Y-81625420I225000J0D01*
G01*
X189675680Y-81625420D01*
G75*
G02*
X189900680Y-81850420I0J-225000D01*
G01*
X189900680Y-82350420D01*
G75*
G02*
X189675680Y-82575420I-225000J0D01*
G01*
X189225680Y-82575420D01*
G75*
G02*
X189000680Y-82350420I0J225000D01*
G01*
G37*
G36*
G01*
X190550680Y-82350420D02*
X190550680Y-81850420D01*
G75*
G02*
X190775680Y-81625420I225000J0D01*
G01*
X191225680Y-81625420D01*
G75*
G02*
X191450680Y-81850420I0J-225000D01*
G01*
X191450680Y-82350420D01*
G75*
G02*
X191225680Y-82575420I-225000J0D01*
G01*
X190775680Y-82575420D01*
G75*
G02*
X190550680Y-82350420I0J225000D01*
G01*
G37*
G36*
G01*
X184357200Y-108401400D02*
X184857200Y-108401400D01*
G75*
G02*
X185082200Y-108626400I0J-225000D01*
G01*
X185082200Y-109076400D01*
G75*
G02*
X184857200Y-109301400I-225000J0D01*
G01*
X184357200Y-109301400D01*
G75*
G02*
X184132200Y-109076400I0J225000D01*
G01*
X184132200Y-108626400D01*
G75*
G02*
X184357200Y-108401400I225000J0D01*
G01*
G37*
G36*
G01*
X184357200Y-109951400D02*
X184857200Y-109951400D01*
G75*
G02*
X185082200Y-110176400I0J-225000D01*
G01*
X185082200Y-110626400D01*
G75*
G02*
X184857200Y-110851400I-225000J0D01*
G01*
X184357200Y-110851400D01*
G75*
G02*
X184132200Y-110626400I0J225000D01*
G01*
X184132200Y-110176400D01*
G75*
G02*
X184357200Y-109951400I225000J0D01*
G01*
G37*
G36*
G01*
X164807180Y-104920860D02*
X164807180Y-104420860D01*
G75*
G02*
X165032180Y-104195860I225000J0D01*
G01*
X165482180Y-104195860D01*
G75*
G02*
X165707180Y-104420860I0J-225000D01*
G01*
X165707180Y-104920860D01*
G75*
G02*
X165482180Y-105145860I-225000J0D01*
G01*
X165032180Y-105145860D01*
G75*
G02*
X164807180Y-104920860I0J225000D01*
G01*
G37*
G36*
G01*
X166357180Y-104920860D02*
X166357180Y-104420860D01*
G75*
G02*
X166582180Y-104195860I225000J0D01*
G01*
X167032180Y-104195860D01*
G75*
G02*
X167257180Y-104420860I0J-225000D01*
G01*
X167257180Y-104920860D01*
G75*
G02*
X167032180Y-105145860I-225000J0D01*
G01*
X166582180Y-105145860D01*
G75*
G02*
X166357180Y-104920860I0J225000D01*
G01*
G37*
G36*
G01*
X184857200Y-113899400D02*
X184357200Y-113899400D01*
G75*
G02*
X184132200Y-113674400I0J225000D01*
G01*
X184132200Y-113224400D01*
G75*
G02*
X184357200Y-112999400I225000J0D01*
G01*
X184857200Y-112999400D01*
G75*
G02*
X185082200Y-113224400I0J-225000D01*
G01*
X185082200Y-113674400D01*
G75*
G02*
X184857200Y-113899400I-225000J0D01*
G01*
G37*
G36*
G01*
X184857200Y-112349400D02*
X184357200Y-112349400D01*
G75*
G02*
X184132200Y-112124400I0J225000D01*
G01*
X184132200Y-111674400D01*
G75*
G02*
X184357200Y-111449400I225000J0D01*
G01*
X184857200Y-111449400D01*
G75*
G02*
X185082200Y-111674400I0J-225000D01*
G01*
X185082200Y-112124400D01*
G75*
G02*
X184857200Y-112349400I-225000J0D01*
G01*
G37*
G36*
G01*
X185149680Y-103113120D02*
X185649680Y-103113120D01*
G75*
G02*
X185874680Y-103338120I0J-225000D01*
G01*
X185874680Y-103788120D01*
G75*
G02*
X185649680Y-104013120I-225000J0D01*
G01*
X185149680Y-104013120D01*
G75*
G02*
X184924680Y-103788120I0J225000D01*
G01*
X184924680Y-103338120D01*
G75*
G02*
X185149680Y-103113120I225000J0D01*
G01*
G37*
G36*
G01*
X185149680Y-104663120D02*
X185649680Y-104663120D01*
G75*
G02*
X185874680Y-104888120I0J-225000D01*
G01*
X185874680Y-105338120D01*
G75*
G02*
X185649680Y-105563120I-225000J0D01*
G01*
X185149680Y-105563120D01*
G75*
G02*
X184924680Y-105338120I0J225000D01*
G01*
X184924680Y-104888120D01*
G75*
G02*
X185149680Y-104663120I225000J0D01*
G01*
G37*
G36*
G01*
X183625680Y-103113120D02*
X184125680Y-103113120D01*
G75*
G02*
X184350680Y-103338120I0J-225000D01*
G01*
X184350680Y-103788120D01*
G75*
G02*
X184125680Y-104013120I-225000J0D01*
G01*
X183625680Y-104013120D01*
G75*
G02*
X183400680Y-103788120I0J225000D01*
G01*
X183400680Y-103338120D01*
G75*
G02*
X183625680Y-103113120I225000J0D01*
G01*
G37*
G36*
G01*
X183625680Y-104663120D02*
X184125680Y-104663120D01*
G75*
G02*
X184350680Y-104888120I0J-225000D01*
G01*
X184350680Y-105338120D01*
G75*
G02*
X184125680Y-105563120I-225000J0D01*
G01*
X183625680Y-105563120D01*
G75*
G02*
X183400680Y-105338120I0J225000D01*
G01*
X183400680Y-104888120D01*
G75*
G02*
X183625680Y-104663120I225000J0D01*
G01*
G37*
G36*
G01*
X175434180Y-103280760D02*
X175934180Y-103280760D01*
G75*
G02*
X176159180Y-103505760I0J-225000D01*
G01*
X176159180Y-103955760D01*
G75*
G02*
X175934180Y-104180760I-225000J0D01*
G01*
X175434180Y-104180760D01*
G75*
G02*
X175209180Y-103955760I0J225000D01*
G01*
X175209180Y-103505760D01*
G75*
G02*
X175434180Y-103280760I225000J0D01*
G01*
G37*
G36*
G01*
X175434180Y-104830760D02*
X175934180Y-104830760D01*
G75*
G02*
X176159180Y-105055760I0J-225000D01*
G01*
X176159180Y-105505760D01*
G75*
G02*
X175934180Y-105730760I-225000J0D01*
G01*
X175434180Y-105730760D01*
G75*
G02*
X175209180Y-105505760I0J225000D01*
G01*
X175209180Y-105055760D01*
G75*
G02*
X175434180Y-104830760I225000J0D01*
G01*
G37*
G36*
G01*
X189048580Y-99303120D02*
X189548580Y-99303120D01*
G75*
G02*
X189773580Y-99528120I0J-225000D01*
G01*
X189773580Y-99978120D01*
G75*
G02*
X189548580Y-100203120I-225000J0D01*
G01*
X189048580Y-100203120D01*
G75*
G02*
X188823580Y-99978120I0J225000D01*
G01*
X188823580Y-99528120D01*
G75*
G02*
X189048580Y-99303120I225000J0D01*
G01*
G37*
G36*
G01*
X189048580Y-100853120D02*
X189548580Y-100853120D01*
G75*
G02*
X189773580Y-101078120I0J-225000D01*
G01*
X189773580Y-101528120D01*
G75*
G02*
X189548580Y-101753120I-225000J0D01*
G01*
X189048580Y-101753120D01*
G75*
G02*
X188823580Y-101528120I0J225000D01*
G01*
X188823580Y-101078120D01*
G75*
G02*
X189048580Y-100853120I225000J0D01*
G01*
G37*
G36*
G01*
X164399680Y-99401820D02*
X164399680Y-99901820D01*
G75*
G02*
X164174680Y-100126820I-225000J0D01*
G01*
X163724680Y-100126820D01*
G75*
G02*
X163499680Y-99901820I0J225000D01*
G01*
X163499680Y-99401820D01*
G75*
G02*
X163724680Y-99176820I225000J0D01*
G01*
X164174680Y-99176820D01*
G75*
G02*
X164399680Y-99401820I0J-225000D01*
G01*
G37*
G36*
G01*
X162849680Y-99401820D02*
X162849680Y-99901820D01*
G75*
G02*
X162624680Y-100126820I-225000J0D01*
G01*
X162174680Y-100126820D01*
G75*
G02*
X161949680Y-99901820I0J225000D01*
G01*
X161949680Y-99401820D01*
G75*
G02*
X162174680Y-99176820I225000J0D01*
G01*
X162624680Y-99176820D01*
G75*
G02*
X162849680Y-99401820I0J-225000D01*
G01*
G37*
G36*
G01*
X167666480Y-78334020D02*
X167166480Y-78334020D01*
G75*
G02*
X166941480Y-78109020I0J225000D01*
G01*
X166941480Y-77659020D01*
G75*
G02*
X167166480Y-77434020I225000J0D01*
G01*
X167666480Y-77434020D01*
G75*
G02*
X167891480Y-77659020I0J-225000D01*
G01*
X167891480Y-78109020D01*
G75*
G02*
X167666480Y-78334020I-225000J0D01*
G01*
G37*
G36*
G01*
X167666480Y-76784020D02*
X167166480Y-76784020D01*
G75*
G02*
X166941480Y-76559020I0J225000D01*
G01*
X166941480Y-76109020D01*
G75*
G02*
X167166480Y-75884020I225000J0D01*
G01*
X167666480Y-75884020D01*
G75*
G02*
X167891480Y-76109020I0J-225000D01*
G01*
X167891480Y-76559020D01*
G75*
G02*
X167666480Y-76784020I-225000J0D01*
G01*
G37*
G36*
G01*
X189000680Y-80813720D02*
X189000680Y-80313720D01*
G75*
G02*
X189225680Y-80088720I225000J0D01*
G01*
X189675680Y-80088720D01*
G75*
G02*
X189900680Y-80313720I0J-225000D01*
G01*
X189900680Y-80813720D01*
G75*
G02*
X189675680Y-81038720I-225000J0D01*
G01*
X189225680Y-81038720D01*
G75*
G02*
X189000680Y-80813720I0J225000D01*
G01*
G37*
G36*
G01*
X190550680Y-80813720D02*
X190550680Y-80313720D01*
G75*
G02*
X190775680Y-80088720I225000J0D01*
G01*
X191225680Y-80088720D01*
G75*
G02*
X191450680Y-80313720I0J-225000D01*
G01*
X191450680Y-80813720D01*
G75*
G02*
X191225680Y-81038720I-225000J0D01*
G01*
X190775680Y-81038720D01*
G75*
G02*
X190550680Y-80813720I0J225000D01*
G01*
G37*
G36*
G01*
X164399680Y-100989320D02*
X164399680Y-101489320D01*
G75*
G02*
X164174680Y-101714320I-225000J0D01*
G01*
X163724680Y-101714320D01*
G75*
G02*
X163499680Y-101489320I0J225000D01*
G01*
X163499680Y-100989320D01*
G75*
G02*
X163724680Y-100764320I225000J0D01*
G01*
X164174680Y-100764320D01*
G75*
G02*
X164399680Y-100989320I0J-225000D01*
G01*
G37*
G36*
G01*
X162849680Y-100989320D02*
X162849680Y-101489320D01*
G75*
G02*
X162624680Y-101714320I-225000J0D01*
G01*
X162174680Y-101714320D01*
G75*
G02*
X161949680Y-101489320I0J225000D01*
G01*
X161949680Y-100989320D01*
G75*
G02*
X162174680Y-100764320I225000J0D01*
G01*
X162624680Y-100764320D01*
G75*
G02*
X162849680Y-100989320I0J-225000D01*
G01*
G37*
D48*
X199898000Y-70866000D03*
X197358000Y-70866000D03*
X199898000Y-73406000D03*
X197358000Y-73406000D03*
X199898000Y-75946000D03*
X197358000Y-75946000D03*
X199898000Y-78486000D03*
X197358000Y-78486000D03*
X199898000Y-81026000D03*
X197358000Y-81026000D03*
X199898000Y-83566000D03*
X197358000Y-83566000D03*
X199898000Y-86106000D03*
X197358000Y-86106000D03*
X199898000Y-88646000D03*
X197358000Y-88646000D03*
X199898000Y-91186000D03*
X197358000Y-91186000D03*
X199898000Y-93726000D03*
X197358000Y-93726000D03*
X199898000Y-96266000D03*
X197358000Y-96266000D03*
X199898000Y-98806000D03*
X197358000Y-98806000D03*
X199898000Y-101346000D03*
X197358000Y-101346000D03*
X199898000Y-103886000D03*
X197358000Y-103886000D03*
X199898000Y-106426000D03*
X197358000Y-106426000D03*
X199898000Y-108966000D03*
X197358000Y-108966000D03*
X199898000Y-111506000D03*
X197358000Y-111506000D03*
X199898000Y-114046000D03*
D49*
X197358000Y-114046000D03*
D50*
X149098000Y-119126000D03*
X146558000Y-119126000D03*
X144018000Y-119126000D03*
X141478000Y-119126000D03*
X138938000Y-119126000D03*
X136398000Y-119126000D03*
X133858000Y-119126000D03*
X131318000Y-119126000D03*
X171958000Y-119126000D03*
X169418000Y-119126000D03*
X166878000Y-119126000D03*
X164338000Y-119126000D03*
X161798000Y-119126000D03*
X159258000Y-119126000D03*
X156718000Y-119126000D03*
X154178000Y-119126000D03*
X194818000Y-119126000D03*
X192278000Y-119126000D03*
X189738000Y-119126000D03*
X187198000Y-119126000D03*
X184658000Y-119126000D03*
X182118000Y-119126000D03*
X179578000Y-119126000D03*
X177038000Y-119126000D03*
X145034000Y-70866000D03*
X142494000Y-70866000D03*
X139954000Y-70866000D03*
X137414000Y-70866000D03*
X134874000Y-70866000D03*
X132334000Y-70866000D03*
X129794000Y-70866000D03*
X127254000Y-70866000D03*
X124714000Y-70866000D03*
X122174000Y-70866000D03*
X166878000Y-70866000D03*
X164338000Y-70866000D03*
X161798000Y-70866000D03*
X159258000Y-70866000D03*
X156718000Y-70866000D03*
X154178000Y-70866000D03*
X151638000Y-70866000D03*
X149098000Y-70866000D03*
X189738000Y-70866000D03*
X187198000Y-70866000D03*
X184658000Y-70866000D03*
X182118000Y-70866000D03*
X179578000Y-70866000D03*
X177038000Y-70866000D03*
X174498000Y-70866000D03*
X171958000Y-70866000D03*
D51*
X117348000Y-119126000D03*
X199898000Y-119126000D03*
X118618000Y-70866000D03*
X193548000Y-70866000D03*
M02*
