G04 #@! TF.GenerationSoftware,KiCad,Pcbnew,5.1.7-a382d34a8~88~ubuntu20.04.1*
G04 #@! TF.CreationDate,2021-03-24T14:30:28-03:00*
G04 #@! TF.ProjectId,h730duino,68373330-6475-4696-9e6f-2e6b69636164,rev?*
G04 #@! TF.SameCoordinates,Original*
G04 #@! TF.FileFunction,Copper,L4,Bot*
G04 #@! TF.FilePolarity,Positive*
%FSLAX46Y46*%
G04 Gerber Fmt 4.6, Leading zero omitted, Abs format (unit mm)*
G04 Created by KiCad (PCBNEW 5.1.7-a382d34a8~88~ubuntu20.04.1) date 2021-03-24 14:30:28*
%MOMM*%
%LPD*%
G01*
G04 APERTURE LIST*
G04 #@! TA.AperFunction,SMDPad,CuDef*
%ADD10R,2.600000X2.600000*%
G04 #@! TD*
G04 #@! TA.AperFunction,ComponentPad*
%ADD11C,0.500000*%
G04 #@! TD*
G04 #@! TA.AperFunction,ComponentPad*
%ADD12O,1.700000X1.700000*%
G04 #@! TD*
G04 #@! TA.AperFunction,ComponentPad*
%ADD13R,1.700000X1.700000*%
G04 #@! TD*
G04 #@! TA.AperFunction,SMDPad,CuDef*
%ADD14R,1.600000X0.900000*%
G04 #@! TD*
G04 #@! TA.AperFunction,ComponentPad*
%ADD15C,0.600000*%
G04 #@! TD*
G04 #@! TA.AperFunction,ComponentPad*
%ADD16O,1.400000X0.800000*%
G04 #@! TD*
G04 #@! TA.AperFunction,ComponentPad*
%ADD17C,2.100000*%
G04 #@! TD*
G04 #@! TA.AperFunction,ComponentPad*
%ADD18C,1.750000*%
G04 #@! TD*
G04 #@! TA.AperFunction,ComponentPad*
%ADD19C,1.530000*%
G04 #@! TD*
G04 #@! TA.AperFunction,ComponentPad*
%ADD20C,1.725000*%
G04 #@! TD*
G04 #@! TA.AperFunction,ComponentPad*
%ADD21O,1.727200X1.727200*%
G04 #@! TD*
G04 #@! TA.AperFunction,ComponentPad*
%ADD22C,1.727200*%
G04 #@! TD*
G04 #@! TA.AperFunction,ComponentPad*
%ADD23O,1.727200X2.032000*%
G04 #@! TD*
G04 #@! TA.AperFunction,ComponentPad*
%ADD24C,4.064000*%
G04 #@! TD*
G04 #@! TA.AperFunction,ViaPad*
%ADD25C,0.500000*%
G04 #@! TD*
G04 #@! TA.AperFunction,Conductor*
%ADD26C,0.800000*%
G04 #@! TD*
G04 #@! TA.AperFunction,Conductor*
%ADD27C,0.600000*%
G04 #@! TD*
G04 #@! TA.AperFunction,Conductor*
%ADD28C,0.406400*%
G04 #@! TD*
G04 #@! TA.AperFunction,Conductor*
%ADD29C,0.203200*%
G04 #@! TD*
G04 #@! TA.AperFunction,Conductor*
%ADD30C,0.152400*%
G04 #@! TD*
G04 #@! TA.AperFunction,Conductor*
%ADD31C,0.500000*%
G04 #@! TD*
G04 #@! TA.AperFunction,Conductor*
%ADD32C,0.300000*%
G04 #@! TD*
G04 #@! TA.AperFunction,Conductor*
%ADD33C,0.254000*%
G04 #@! TD*
G04 #@! TA.AperFunction,Conductor*
%ADD34C,0.100000*%
G04 #@! TD*
G04 APERTURE END LIST*
D10*
X138150600Y-88353900D03*
D11*
X139200600Y-89403900D03*
X138150600Y-89403900D03*
X137100600Y-89403900D03*
X139200600Y-88353900D03*
X138150600Y-88353900D03*
X137100600Y-88353900D03*
X139200600Y-87303900D03*
X138150600Y-87303900D03*
X137100600Y-87303900D03*
D12*
X156690060Y-83820000D03*
X159230060Y-83820000D03*
X156690060Y-86360000D03*
X159230060Y-86360000D03*
X156690060Y-88900000D03*
D13*
X159230060Y-88900000D03*
D14*
X149860000Y-113944400D03*
D15*
X150360000Y-113944400D03*
X149360000Y-113944400D03*
D14*
X144824400Y-113944400D03*
D15*
X145324400Y-113944400D03*
X144324400Y-113944400D03*
D12*
X130589020Y-104231440D03*
D13*
X128049020Y-104231440D03*
D12*
X202577700Y-113995200D03*
D13*
X202577700Y-111455200D03*
D16*
X111974400Y-111516200D03*
X111974400Y-119776200D03*
X106024400Y-120136200D03*
X106024400Y-111156200D03*
D17*
X128148400Y-116483600D03*
D18*
X126898400Y-118973600D03*
X122398400Y-118973600D03*
D17*
X121138400Y-116483600D03*
X119916400Y-82561100D03*
X118516400Y-98871100D03*
D19*
X125246400Y-85636100D03*
X127786400Y-86652100D03*
X125246400Y-87668100D03*
X127786400Y-88684100D03*
X125246400Y-89700100D03*
D20*
X111276400Y-97741100D03*
X108736400Y-97741100D03*
X111276400Y-83691100D03*
X108736400Y-83691100D03*
D19*
X127786400Y-84620100D03*
D21*
X199898000Y-70866000D03*
X197358000Y-70866000D03*
X199898000Y-73406000D03*
X197358000Y-73406000D03*
X199898000Y-75946000D03*
X197358000Y-75946000D03*
X199898000Y-78486000D03*
X197358000Y-78486000D03*
X199898000Y-81026000D03*
X197358000Y-81026000D03*
X199898000Y-83566000D03*
X197358000Y-83566000D03*
X199898000Y-86106000D03*
X197358000Y-86106000D03*
X199898000Y-88646000D03*
X197358000Y-88646000D03*
X199898000Y-91186000D03*
X197358000Y-91186000D03*
X199898000Y-93726000D03*
X197358000Y-93726000D03*
X199898000Y-96266000D03*
X197358000Y-96266000D03*
X199898000Y-98806000D03*
X197358000Y-98806000D03*
X199898000Y-101346000D03*
X197358000Y-101346000D03*
X199898000Y-103886000D03*
X197358000Y-103886000D03*
X199898000Y-106426000D03*
X197358000Y-106426000D03*
X199898000Y-108966000D03*
X197358000Y-108966000D03*
X199898000Y-111506000D03*
X197358000Y-111506000D03*
X199898000Y-114046000D03*
D22*
X197358000Y-114046000D03*
D23*
X149098000Y-119126000D03*
X146558000Y-119126000D03*
X144018000Y-119126000D03*
X141478000Y-119126000D03*
X138938000Y-119126000D03*
X136398000Y-119126000D03*
X133858000Y-119126000D03*
X131318000Y-119126000D03*
X171958000Y-119126000D03*
X169418000Y-119126000D03*
X166878000Y-119126000D03*
X164338000Y-119126000D03*
X161798000Y-119126000D03*
X159258000Y-119126000D03*
X156718000Y-119126000D03*
X154178000Y-119126000D03*
X194818000Y-119126000D03*
X192278000Y-119126000D03*
X189738000Y-119126000D03*
X187198000Y-119126000D03*
X184658000Y-119126000D03*
X182118000Y-119126000D03*
X179578000Y-119126000D03*
X177038000Y-119126000D03*
X145034000Y-70866000D03*
X142494000Y-70866000D03*
X139954000Y-70866000D03*
X137414000Y-70866000D03*
X134874000Y-70866000D03*
X132334000Y-70866000D03*
X129794000Y-70866000D03*
X127254000Y-70866000D03*
X124714000Y-70866000D03*
X122174000Y-70866000D03*
X166878000Y-70866000D03*
X164338000Y-70866000D03*
X161798000Y-70866000D03*
X159258000Y-70866000D03*
X156718000Y-70866000D03*
X154178000Y-70866000D03*
X151638000Y-70866000D03*
X149098000Y-70866000D03*
X189738000Y-70866000D03*
X187198000Y-70866000D03*
X184658000Y-70866000D03*
X182118000Y-70866000D03*
X179578000Y-70866000D03*
X177038000Y-70866000D03*
X174498000Y-70866000D03*
X171958000Y-70866000D03*
D24*
X117348000Y-119126000D03*
X199898000Y-119126000D03*
X118618000Y-70866000D03*
X193548000Y-70866000D03*
D25*
X161510980Y-96718120D03*
X174414180Y-75509120D03*
X179925980Y-75483720D03*
X191736980Y-87167720D03*
X188409580Y-101315520D03*
X186326780Y-87675720D03*
X186352180Y-92679520D03*
X186377580Y-99181920D03*
X175379380Y-100629720D03*
X168394380Y-81224120D03*
X162399680Y-100426220D03*
X174896780Y-81224120D03*
X180383180Y-81224120D03*
X165257480Y-105839260D03*
X191000680Y-81326020D03*
X142761000Y-91656200D03*
X112217200Y-107759500D03*
X121691400Y-112496600D03*
X139649200Y-111607600D03*
X139687300Y-115252500D03*
X139674600Y-107950000D03*
X122303160Y-106530140D03*
X136893300Y-113728500D03*
X109474000Y-106730800D03*
X109435900Y-102946200D03*
X166890700Y-112783620D03*
X166959280Y-92684600D03*
X175950880Y-106197400D03*
X166913560Y-87685880D03*
X111321960Y-69401800D03*
X112068720Y-69401800D03*
X113253810Y-70409090D03*
X113253810Y-78290532D03*
X113253810Y-74203850D03*
X113253810Y-72197250D03*
X113253810Y-76047890D03*
X111781480Y-80051800D03*
X112523160Y-80051800D03*
X113545400Y-79158880D03*
X108041440Y-72771000D03*
X161524625Y-93173871D03*
X110490000Y-81483200D03*
X180086000Y-107848400D03*
X185711800Y-110401400D03*
X185724800Y-111963200D03*
X180086000Y-114757200D03*
X151587200Y-116382800D03*
X153670000Y-110439200D03*
X202641200Y-100279200D03*
X186898180Y-105100120D03*
X182880000Y-102768400D03*
X182880000Y-105105202D03*
X174828200Y-111328200D03*
X192285620Y-97845880D03*
X190931800Y-91973400D03*
X190068200Y-93726000D03*
X132004100Y-89471200D03*
X137896600Y-95580200D03*
X137871500Y-82575100D03*
X136296700Y-82575100D03*
X134721900Y-82575100D03*
X144510760Y-85557360D03*
X130375360Y-93195440D03*
X130375360Y-95212200D03*
X162306000Y-87335360D03*
X131053840Y-110022640D03*
X127485140Y-107000040D03*
X129552700Y-107000040D03*
X157530800Y-96598740D03*
X115224260Y-103456440D03*
X168217009Y-76444241D03*
X174414180Y-79039720D03*
X167429180Y-78887320D03*
X164701347Y-93177487D03*
X164754687Y-88176227D03*
X175899191Y-102876731D03*
X170400980Y-100705920D03*
X188561980Y-80589120D03*
X188544835Y-87175975D03*
X179900199Y-79039339D03*
X188612780Y-98673920D03*
X163949680Y-100452220D03*
X182427880Y-100756720D03*
X107137200Y-81432400D03*
X115468400Y-77724000D03*
X146913600Y-110845600D03*
X146913600Y-112268000D03*
X146913600Y-111556800D03*
X173995080Y-108960920D03*
X188493400Y-104495600D03*
X194716400Y-97002600D03*
X188417200Y-92176600D03*
X139446000Y-95605600D03*
X142785800Y-90106200D03*
X136550400Y-81102200D03*
X129540000Y-80568800D03*
X144581880Y-83972400D03*
X121259600Y-104160320D03*
X117957600Y-108066840D03*
X132920740Y-107381040D03*
X146743920Y-100128840D03*
X115435380Y-104632760D03*
X112547400Y-101899720D03*
X157327598Y-100939598D03*
X153163270Y-95860870D03*
X178757580Y-97995740D03*
X138699240Y-100756720D03*
X111067855Y-115722400D03*
X114963002Y-115320000D03*
X114963002Y-115972400D03*
X137819999Y-107277679D03*
X137819999Y-108571521D03*
X137819998Y-107937300D03*
X112966500Y-104114600D03*
X111086900Y-104114600D03*
X111696500Y-104114600D03*
X112318800Y-104114600D03*
X168737280Y-97417710D03*
X153332180Y-99644200D03*
X169219880Y-96939100D03*
X149860004Y-100939600D03*
X172413212Y-96091448D03*
X143733520Y-100042980D03*
X172984160Y-95775780D03*
X142003780Y-100426520D03*
X139268200Y-91414600D03*
X177269140Y-94142560D03*
X183047640Y-97012760D03*
X146588480Y-88940640D03*
X139090400Y-92100400D03*
X178775357Y-94691197D03*
X176128680Y-93207840D03*
X145465800Y-89763600D03*
X144399000Y-93167200D03*
X174758159Y-92708919D03*
X144424400Y-94716600D03*
X173248320Y-92191840D03*
X139750800Y-85445600D03*
X153832560Y-88229440D03*
X138912600Y-85521800D03*
X153115455Y-88260745D03*
X138390678Y-85130359D03*
X153146760Y-89021920D03*
X136550400Y-85594000D03*
X152354280Y-88986360D03*
X160327340Y-98524060D03*
X159608520Y-98485960D03*
X108026200Y-71704200D03*
X172923200Y-86182200D03*
X120142000Y-73533000D03*
X163499800Y-82854800D03*
X108127800Y-73863200D03*
X108153200Y-76098400D03*
X119761000Y-77152500D03*
X164348160Y-86060280D03*
X110978900Y-116420900D03*
X117221000Y-114185700D03*
X172770800Y-100431600D03*
X191800480Y-105948480D03*
X167137080Y-96733360D03*
X168273728Y-83260723D03*
X168884600Y-83489800D03*
X175920400Y-74418010D03*
X169810250Y-83032600D03*
X176403000Y-75742800D03*
X175920400Y-75107800D03*
X177393600Y-76860400D03*
X176911000Y-76301600D03*
X178421347Y-77978000D03*
X177876200Y-77470000D03*
X187579000Y-77020800D03*
X188188600Y-76551687D03*
X187629800Y-77978000D03*
X188188600Y-77508899D03*
X187604400Y-78944721D03*
X188147231Y-78466111D03*
X188569600Y-83642200D03*
X186258200Y-82727800D03*
X186309000Y-84531200D03*
X188696600Y-90170000D03*
X186359800Y-89662000D03*
X189204600Y-91186000D03*
X186055000Y-90698383D03*
X170621960Y-103809800D03*
X170037760Y-103212900D03*
X168907460Y-103568502D03*
X167886380Y-102961440D03*
X180502560Y-88328500D03*
X181279800Y-89992202D03*
X179153820Y-89016840D03*
X161894520Y-75082400D03*
X162546931Y-75082346D03*
X178206400Y-84201000D03*
X179961540Y-84886800D03*
X160705800Y-77241400D03*
X161533840Y-76672440D03*
X167055800Y-108966000D03*
X167398700Y-98704400D03*
X154914600Y-74295000D03*
X154178000Y-73812400D03*
X147974230Y-85379560D03*
X147289520Y-85267800D03*
X108077000Y-70612000D03*
X116586000Y-72898000D03*
X108204000Y-77216000D03*
X117983000Y-78740000D03*
X108331000Y-78232000D03*
X119888000Y-79629000D03*
X137363200Y-85496400D03*
X131953000Y-83210400D03*
D26*
X197358000Y-70866000D02*
X199898000Y-70866000D01*
X141478000Y-120421400D02*
X141478000Y-119126000D01*
X196811900Y-120065800D02*
X196088000Y-120789700D01*
X197592901Y-116541599D02*
X196811900Y-117322600D01*
X202634801Y-116541599D02*
X197592901Y-116541599D01*
X204165200Y-115011200D02*
X202634801Y-116541599D01*
X201655680Y-107203240D02*
X204165200Y-109712760D01*
X196811900Y-117322600D02*
X196811900Y-120065800D01*
X204165200Y-109712760D02*
X204165200Y-115011200D01*
X201655680Y-72623680D02*
X201655680Y-107203240D01*
X141846300Y-120789700D02*
X141478000Y-120421400D01*
X196088000Y-120789700D02*
X141846300Y-120789700D01*
X199898000Y-70866000D02*
X201655680Y-72623680D01*
D27*
X123725801Y-120301001D02*
X122398400Y-118973600D01*
X127535553Y-120301001D02*
X123725801Y-120301001D01*
X130178964Y-117657590D02*
X127535553Y-120301001D01*
X134929590Y-117657590D02*
X130178964Y-117657590D01*
X136398000Y-119126000D02*
X134929590Y-117657590D01*
D28*
X136398000Y-119126000D02*
X136398000Y-117703600D01*
X138699240Y-115402360D02*
X138699240Y-100756720D01*
X136398000Y-117703600D02*
X138699240Y-115402360D01*
D29*
X175790860Y-95029020D02*
X178757580Y-97995740D01*
X153995120Y-95029020D02*
X175790860Y-95029020D01*
X153163270Y-95860870D02*
X153995120Y-95029020D01*
D30*
X114963002Y-115320000D02*
X113437480Y-115320000D01*
X113035080Y-115722400D02*
X111067855Y-115722400D01*
X113437480Y-115320000D02*
X113035080Y-115722400D01*
D31*
X137819999Y-107277679D02*
X137819999Y-108571521D01*
X111086900Y-104114600D02*
X112903000Y-104114600D01*
X137781120Y-107238800D02*
X137819999Y-107277679D01*
X112966500Y-104114600D02*
X112966500Y-105831640D01*
X112966500Y-105831640D02*
X118653560Y-111518700D01*
X134872820Y-111518700D02*
X137819999Y-108571521D01*
X118653560Y-111518700D02*
X134872820Y-111518700D01*
D30*
X153582179Y-99394201D02*
X153332180Y-99644200D01*
X168737280Y-97417710D02*
X168364990Y-97790000D01*
X168364990Y-97790000D02*
X155186380Y-97790000D01*
X155186380Y-97790000D02*
X153582179Y-99394201D01*
X168150540Y-96939100D02*
X169219880Y-96939100D01*
X154096731Y-97485189D02*
X167604451Y-97485189D01*
X167604451Y-97485189D02*
X168150540Y-96939100D01*
X150642320Y-100939600D02*
X154096731Y-97485189D01*
X149860004Y-100939600D02*
X149860004Y-100939600D01*
X149860004Y-100939600D02*
X150642320Y-100939600D01*
X172413212Y-96091448D02*
X172128024Y-95806260D01*
X172128024Y-95806260D02*
X155086586Y-95806260D01*
X155086586Y-95806260D02*
X151815066Y-99077780D01*
X144698720Y-99077780D02*
X143733520Y-100042980D01*
X151815066Y-99077780D02*
X144698720Y-99077780D01*
X149953980Y-98526600D02*
X149603460Y-98526600D01*
X151935180Y-98526600D02*
X149603460Y-98526600D01*
X155059380Y-95402400D02*
X151935180Y-98526600D01*
X172610780Y-95402400D02*
X155059380Y-95402400D01*
X172984160Y-95775780D02*
X172610780Y-95402400D01*
X149603460Y-98526600D02*
X143903700Y-98526600D01*
X143903700Y-98526600D02*
X142253779Y-100176521D01*
X142253779Y-100176521D02*
X142003780Y-100426520D01*
X147843240Y-94142560D02*
X177269140Y-94142560D01*
X146431000Y-95554800D02*
X147843240Y-94142560D01*
X143408400Y-95554800D02*
X146431000Y-95554800D01*
X139268200Y-91414600D02*
X143408400Y-95554800D01*
X183047640Y-97012760D02*
X176458880Y-90424000D01*
X176458880Y-90424000D02*
X148071840Y-90424000D01*
X148071840Y-90424000D02*
X146588480Y-88940640D01*
X139090400Y-92100400D02*
X143164560Y-96174560D01*
X148762723Y-94691197D02*
X178775357Y-94691197D01*
X143164560Y-96174560D02*
X147279360Y-96174560D01*
X147279360Y-96174560D02*
X148762723Y-94691197D01*
X146649440Y-90947240D02*
X145465800Y-89763600D01*
X173868080Y-90947240D02*
X146649440Y-90947240D01*
X176128680Y-93207840D02*
X173868080Y-90947240D01*
X144399000Y-93167200D02*
X146010441Y-91555759D01*
X173604999Y-91555759D02*
X174758159Y-92708919D01*
X146010441Y-91555759D02*
X173604999Y-91555759D01*
X144424400Y-94716600D02*
X146949160Y-92191840D01*
X146949160Y-92191840D02*
X173248320Y-92191840D01*
X141219260Y-86304120D02*
X151907240Y-86304120D01*
X139750800Y-85445600D02*
X140360740Y-85445600D01*
X140360740Y-85445600D02*
X141219260Y-86304120D01*
X151907240Y-86304120D02*
X153832560Y-88229440D01*
X139445978Y-86055178D02*
X140539252Y-86055178D01*
X138912600Y-85521800D02*
X139445978Y-86055178D01*
X140539252Y-86055178D02*
X141204186Y-86720113D01*
X141204186Y-86720113D02*
X151574823Y-86720113D01*
X151574823Y-86720113D02*
X153115455Y-88260745D01*
X141245047Y-87192041D02*
X151316881Y-87192041D01*
X152896761Y-88771921D02*
X153146760Y-89021920D01*
X140412996Y-86359989D02*
X141245047Y-87192041D01*
X138390678Y-85130359D02*
X138390678Y-85711812D01*
X138390678Y-85711812D02*
X139038855Y-86359989D01*
X139038855Y-86359989D02*
X140412996Y-86359989D01*
X151316881Y-87192041D02*
X152896761Y-88771921D01*
X151017161Y-87649241D02*
X152354280Y-88986360D01*
X140286740Y-86664800D02*
X141271181Y-87649241D01*
X137621200Y-86664800D02*
X140286740Y-86664800D01*
X136550400Y-85594000D02*
X137621200Y-86664800D01*
X141271181Y-87649241D02*
X151017161Y-87649241D01*
X160327340Y-107922060D02*
X160327340Y-98524060D01*
X168346110Y-115940830D02*
X160327340Y-107922060D01*
X191632830Y-115940830D02*
X168346110Y-115940830D01*
X194818000Y-119126000D02*
X191632830Y-115940830D01*
X159608520Y-107977940D02*
X159608520Y-98485960D01*
X168114980Y-116484400D02*
X159608520Y-107977940D01*
X189636400Y-116484400D02*
X168114980Y-116484400D01*
X192278000Y-119126000D02*
X189636400Y-116484400D01*
X120142000Y-73533000D02*
X120142000Y-73533000D01*
X108026200Y-71704200D02*
X110058200Y-71704200D01*
X111887000Y-73533000D02*
X116459000Y-73533000D01*
X110058200Y-71704200D02*
X111887000Y-73533000D01*
X116459000Y-73533000D02*
X120142000Y-73533000D01*
X167743647Y-86182200D02*
X172923200Y-86182200D01*
X163705036Y-82143589D02*
X167743647Y-86182200D01*
X160888669Y-82143589D02*
X163705036Y-82143589D01*
X155935680Y-77190600D02*
X160888669Y-82143589D01*
X127396240Y-73533000D02*
X131053840Y-77190600D01*
X131053840Y-77190600D02*
X155935680Y-77190600D01*
X120142000Y-73533000D02*
X127396240Y-73533000D01*
X160919160Y-82854800D02*
X163499800Y-82854800D01*
X155839160Y-77774800D02*
X160919160Y-82854800D01*
X108127800Y-73863200D02*
X109550200Y-73863200D01*
X126989840Y-74731880D02*
X126989840Y-75003660D01*
X109550200Y-73863200D02*
X110871000Y-75184000D01*
X127144780Y-75806300D02*
X129113280Y-77774800D01*
X120180100Y-75806300D02*
X127144780Y-75806300D01*
X110871000Y-75184000D02*
X118872000Y-75184000D01*
X126806960Y-74549000D02*
X126989840Y-74731880D01*
X118872000Y-75184000D02*
X119507000Y-74549000D01*
X119507000Y-74549000D02*
X126806960Y-74549000D01*
X126989840Y-75003660D02*
X126809500Y-75184000D01*
X126809500Y-75184000D02*
X120172480Y-75184000D01*
X129113280Y-77774800D02*
X155839160Y-77774800D01*
X120172480Y-75184000D02*
X120015000Y-75341480D01*
X120015000Y-75341480D02*
X120015000Y-75641200D01*
X120015000Y-75641200D02*
X120180100Y-75806300D01*
X109499400Y-76098400D02*
X108153200Y-76098400D01*
X110566200Y-77165200D02*
X109499400Y-76098400D01*
X119773700Y-77165200D02*
X119761000Y-77152500D01*
X119811800Y-77165200D02*
X119773700Y-77165200D01*
X119811800Y-77165200D02*
X110566200Y-77165200D01*
X121259600Y-78613000D02*
X156052520Y-78613000D01*
X156052520Y-78613000D02*
X163499800Y-86060280D01*
X163499800Y-86060280D02*
X164348160Y-86060280D01*
X119761000Y-77152500D02*
X126941580Y-77152500D01*
X126941580Y-77152500D02*
X127071120Y-77282040D01*
X127071120Y-77282040D02*
X127071120Y-77652880D01*
X127071120Y-77652880D02*
X126928880Y-77795120D01*
X126928880Y-77795120D02*
X121300240Y-77795120D01*
X121028460Y-78066900D02*
X121028460Y-78381860D01*
X121300240Y-77795120D02*
X121028460Y-78066900D01*
X121028460Y-78381860D02*
X121259600Y-78613000D01*
D32*
X110604300Y-114185700D02*
X117221000Y-114185700D01*
X110096300Y-114693700D02*
X110604300Y-114185700D01*
X110096300Y-115891853D02*
X110096300Y-114693700D01*
X110625347Y-116420900D02*
X110096300Y-115891853D01*
X110978900Y-116420900D02*
X110625347Y-116420900D01*
D29*
X172770800Y-100431600D02*
X172770800Y-101391720D01*
X172770800Y-101391720D02*
X177327560Y-105948480D01*
X177327560Y-105948480D02*
X191800480Y-105948480D01*
D30*
X201269600Y-112687100D02*
X202577700Y-113995200D01*
X201269600Y-108305600D02*
X201269600Y-112687100D01*
X194614800Y-107696000D02*
X200660000Y-107696000D01*
X189138560Y-103479600D02*
X190398400Y-103479600D01*
X184531000Y-98872040D02*
X189138560Y-103479600D01*
X173725840Y-98872040D02*
X184531000Y-98872040D01*
X190398400Y-103479600D02*
X194614800Y-107696000D01*
X171016095Y-96162295D02*
X173725840Y-98872040D01*
X167708145Y-96162295D02*
X171016095Y-96162295D01*
X200660000Y-107696000D02*
X201269600Y-108305600D01*
X167137080Y-96733360D02*
X167708145Y-96162295D01*
X196265800Y-72136000D02*
X198628000Y-72136000D01*
X195072020Y-73329780D02*
X196265800Y-72136000D01*
X178856640Y-72567800D02*
X179618620Y-73329780D01*
X179618620Y-73329780D02*
X195072020Y-73329780D01*
X174702668Y-72567800D02*
X178856640Y-72567800D01*
X198628000Y-72136000D02*
X199898000Y-73406000D01*
X168880599Y-78389869D02*
X174702668Y-72567800D01*
X168880599Y-81883441D02*
X168880599Y-78389869D01*
X168273728Y-82490312D02*
X168880599Y-81883441D01*
X168273728Y-83260723D02*
X168273728Y-82490312D01*
X197129410Y-73634590D02*
X197358000Y-73406000D01*
X179186830Y-73634590D02*
X197129410Y-73634590D01*
X178638200Y-73085960D02*
X179186830Y-73634590D01*
X175011080Y-73085960D02*
X178638200Y-73085960D01*
X169331640Y-78765400D02*
X175011080Y-73085960D01*
X169331640Y-82356960D02*
X169331640Y-78765400D01*
X168884600Y-82804000D02*
X169331640Y-82356960D01*
X168884600Y-83489800D02*
X168884600Y-82804000D01*
X175941810Y-74396600D02*
X175920400Y-74418010D01*
X178622949Y-74244211D02*
X178470560Y-74396600D01*
X191108877Y-74244211D02*
X178622949Y-74244211D01*
X194055266Y-77190600D02*
X191108877Y-74244211D01*
X178470560Y-74396600D02*
X175941810Y-74396600D01*
X198653400Y-77190600D02*
X194055266Y-77190600D01*
X199898000Y-75946000D02*
X198653400Y-77190600D01*
X195351400Y-73939400D02*
X197358000Y-75946000D01*
X178638200Y-73939400D02*
X195351400Y-73939400D01*
X178302920Y-73604120D02*
X178638200Y-73939400D01*
X175310800Y-73604120D02*
X178302920Y-73604120D01*
X169810250Y-79104670D02*
X175310800Y-73604120D01*
X169810250Y-83032600D02*
X169810250Y-79104670D01*
X195630800Y-79730600D02*
X198653400Y-79730600D01*
X190754033Y-74853833D02*
X195630800Y-79730600D01*
X179466207Y-74853833D02*
X190754033Y-74853833D01*
X178577240Y-75742800D02*
X179466207Y-74853833D01*
X198653400Y-79730600D02*
X199898000Y-78486000D01*
X176403000Y-75742800D02*
X178577240Y-75742800D01*
X178521360Y-75107800D02*
X175920400Y-75107800D01*
X179080138Y-74549022D02*
X178521360Y-75107800D01*
X190982622Y-74549022D02*
X179080138Y-74549022D01*
X194919600Y-78486000D02*
X190982622Y-74549022D01*
X197358000Y-78486000D02*
X194919600Y-78486000D01*
X198653400Y-82270600D02*
X196367400Y-82270600D01*
X195935645Y-80975979D02*
X190423121Y-75463455D01*
X180924200Y-76860400D02*
X177393600Y-76860400D01*
X199898000Y-81026000D02*
X198653400Y-82270600D01*
X182321145Y-75463455D02*
X180924200Y-76860400D01*
X195935646Y-81838846D02*
X195935645Y-80975979D01*
X196367400Y-82270600D02*
X195935646Y-81838846D01*
X190423121Y-75463455D02*
X182321145Y-75463455D01*
X197358000Y-81026000D02*
X196416732Y-81026000D01*
X196416732Y-81026000D02*
X190549376Y-75158644D01*
X190549376Y-75158644D02*
X182067156Y-75158644D01*
X180924200Y-76301600D02*
X176911000Y-76301600D01*
X182067156Y-75158644D02*
X180924200Y-76301600D01*
X195326025Y-81435363D02*
X189963739Y-76073077D01*
X182803723Y-76073077D02*
X180898800Y-77978000D01*
X195326025Y-83260492D02*
X195326025Y-81435363D01*
X189963739Y-76073077D02*
X182803723Y-76073077D01*
X196977733Y-84912200D02*
X195326025Y-83260492D01*
X180898800Y-77978000D02*
X178421347Y-77978000D01*
X198551800Y-84912200D02*
X196977733Y-84912200D01*
X199898000Y-83566000D02*
X198551800Y-84912200D01*
X180848000Y-77470000D02*
X182549734Y-75768266D01*
X195630836Y-81102236D02*
X195630836Y-83060150D01*
X196136686Y-83566000D02*
X197358000Y-83566000D01*
X190296866Y-75768266D02*
X195630836Y-81102236D01*
X182549734Y-75768266D02*
X190296866Y-75768266D01*
X177876200Y-77470000D02*
X180848000Y-77470000D01*
X195630836Y-83060150D02*
X196136686Y-83566000D01*
X199898000Y-86106000D02*
X198805799Y-87198201D01*
X187588489Y-77030289D02*
X187579000Y-77020800D01*
X196291934Y-87198201D02*
X194716407Y-85622674D01*
X194716407Y-85622674D02*
X194716407Y-81687877D01*
X190058819Y-77030289D02*
X187588489Y-77030289D01*
X194716407Y-81687877D02*
X190058819Y-77030289D01*
X198805799Y-87198201D02*
X196291934Y-87198201D01*
X197358000Y-86106000D02*
X195021218Y-83769218D01*
X195021218Y-83769218D02*
X195021218Y-81561622D01*
X195021218Y-81561622D02*
X190011283Y-76551687D01*
X190011283Y-76551687D02*
X188188600Y-76551687D01*
X199898000Y-88646000D02*
X198653400Y-89890600D01*
X190153901Y-77987501D02*
X187639301Y-77987501D01*
X187639301Y-77987501D02*
X187629800Y-77978000D01*
X194106789Y-81940389D02*
X190153901Y-77987501D01*
X195783200Y-89890600D02*
X194106789Y-88214189D01*
X194106789Y-88214189D02*
X194106789Y-81940389D01*
X198653400Y-89890600D02*
X195783200Y-89890600D01*
X190106365Y-77508899D02*
X188188600Y-77508899D01*
X194411600Y-81814134D02*
X190106365Y-77508899D01*
X197358000Y-88646000D02*
X195808600Y-88646000D01*
X194411600Y-87249000D02*
X194411600Y-81814134D01*
X195808600Y-88646000D02*
X194411600Y-87249000D01*
X198805799Y-92278201D02*
X199898000Y-91186000D01*
X196240401Y-92278201D02*
X198805799Y-92278201D01*
X195402238Y-91440038D02*
X196240401Y-92278201D01*
X193395600Y-82194400D02*
X193395600Y-88849200D01*
X195402238Y-90855838D02*
X195402238Y-91440038D01*
X190691261Y-79490061D02*
X193395600Y-82194400D01*
X188149739Y-79490061D02*
X190691261Y-79490061D01*
X193395600Y-88849200D02*
X195402238Y-90855838D01*
X187604400Y-78944721D02*
X188149739Y-79490061D01*
X197358000Y-91186000D02*
X196342000Y-91186000D01*
X196342000Y-91186000D02*
X193700410Y-88544410D01*
X190098377Y-78466111D02*
X188147231Y-78466111D01*
X193700410Y-88544410D02*
X193700410Y-82068144D01*
X193700410Y-82068144D02*
X190098377Y-78466111D01*
X188923153Y-83642200D02*
X188569600Y-83642200D01*
X194792617Y-93776817D02*
X194792617Y-91185283D01*
X190221333Y-83642200D02*
X188923153Y-83642200D01*
X196037200Y-95021400D02*
X194792617Y-93776817D01*
X199898000Y-93726000D02*
X198602600Y-95021400D01*
X192506589Y-88899256D02*
X192506589Y-85927456D01*
X198602600Y-95021400D02*
X196037200Y-95021400D01*
X194792617Y-91185283D02*
X192506589Y-88899256D01*
X192506589Y-85927456D02*
X190221333Y-83642200D01*
X196189600Y-93726000D02*
X197358000Y-93726000D01*
X195097428Y-92633828D02*
X196189600Y-93726000D01*
X195097428Y-91059028D02*
X195097428Y-92633828D01*
X192811400Y-88773000D02*
X195097428Y-91059028D01*
X192811400Y-85726468D02*
X192811400Y-88773000D01*
X189812732Y-82727800D02*
X192811400Y-85726468D01*
X186258200Y-82727800D02*
X189812732Y-82727800D01*
X187707466Y-84531200D02*
X194487810Y-91311544D01*
X196136686Y-96266000D02*
X197358000Y-96266000D01*
X194487810Y-94617124D02*
X196136686Y-96266000D01*
X194487810Y-91311544D02*
X194487810Y-94617124D01*
X186309000Y-84531200D02*
X187707466Y-84531200D01*
X188696600Y-90170000D02*
X191719200Y-90170000D01*
X191719200Y-90170000D02*
X193827400Y-92278200D01*
X193827400Y-92278200D02*
X193827400Y-101447600D01*
X193827400Y-101447600D02*
X194995800Y-102616000D01*
X198628000Y-102616000D02*
X199898000Y-101346000D01*
X194995800Y-102616000D02*
X198628000Y-102616000D01*
X197358000Y-101346000D02*
X195122800Y-101346000D01*
X195122800Y-101346000D02*
X194183000Y-100406200D01*
X194183000Y-100406200D02*
X194183000Y-91821000D01*
X192024000Y-89662000D02*
X186359800Y-89662000D01*
X194183000Y-91821000D02*
X192024000Y-89662000D01*
X199898000Y-103886000D02*
X198678800Y-105105200D01*
X198678800Y-105105200D02*
X195478400Y-105105200D01*
X191389000Y-91186000D02*
X192963800Y-92760800D01*
X192963800Y-102590600D02*
X195478400Y-105105200D01*
X192963800Y-92760800D02*
X192963800Y-102590600D01*
X189204600Y-91186000D02*
X191389000Y-91186000D01*
X197358000Y-103886000D02*
X195097400Y-103886000D01*
X195097400Y-103886000D02*
X193395600Y-102184200D01*
X193395600Y-102184200D02*
X193395600Y-92583000D01*
X186104782Y-90648601D02*
X186055000Y-90698383D01*
X191461201Y-90648601D02*
X186104782Y-90648601D01*
X193395600Y-92583000D02*
X191461201Y-90648601D01*
X170871959Y-104059799D02*
X170621960Y-103809800D01*
X174289709Y-107477549D02*
X170871959Y-104059799D01*
X178576496Y-107477549D02*
X174289709Y-107477549D01*
X198615300Y-110248700D02*
X188737240Y-110248700D01*
X199898000Y-108966000D02*
X198615300Y-110248700D01*
X187017660Y-108529120D02*
X179628066Y-108529120D01*
X179628066Y-108529120D02*
X178576496Y-107477549D01*
X188737240Y-110248700D02*
X187017660Y-108529120D01*
X197358000Y-108966000D02*
X188582300Y-108966000D01*
X188582300Y-108966000D02*
X186745880Y-107129580D01*
X174937398Y-107106698D02*
X171043600Y-103212900D01*
X178537652Y-107106698D02*
X174937398Y-107106698D01*
X178560534Y-107129580D02*
X178537652Y-107106698D01*
X186745880Y-107129580D02*
X178560534Y-107129580D01*
X171043600Y-103212900D02*
X170037760Y-103212900D01*
X188501019Y-112598201D02*
X198805799Y-112598201D01*
X188501019Y-112482289D02*
X188501019Y-112598201D01*
X198805799Y-112598201D02*
X199898000Y-111506000D01*
X185941529Y-109922799D02*
X188501019Y-112482289D01*
X180159613Y-109922799D02*
X185941529Y-109922799D01*
X178384934Y-108148120D02*
X180159613Y-109922799D01*
X173487078Y-108148120D02*
X178384934Y-108148120D01*
X168907460Y-103568502D02*
X173487078Y-108148120D01*
X186283600Y-109164120D02*
X188625480Y-111506000D01*
X179832000Y-109164120D02*
X186283600Y-109164120D01*
X178450240Y-107782360D02*
X179832000Y-109164120D01*
X169656760Y-103609472D02*
X169669792Y-103609472D01*
X173842680Y-107782360D02*
X178450240Y-107782360D01*
X167886380Y-102961440D02*
X169008728Y-102961440D01*
X188625480Y-111506000D02*
X197358000Y-111506000D01*
X169669792Y-103609472D02*
X173842680Y-107782360D01*
X169008728Y-102961440D02*
X169656760Y-103609472D01*
X137414000Y-70866000D02*
X141681200Y-75133200D01*
X141681200Y-75133200D02*
X155915360Y-75133200D01*
X155915360Y-75133200D02*
X161559240Y-80777080D01*
X161559240Y-80777080D02*
X163937414Y-80777080D01*
X163937414Y-80777080D02*
X167945512Y-84785178D01*
X167945512Y-84785178D02*
X176959238Y-84785178D01*
X176959238Y-84785178D02*
X180502560Y-88328500D01*
X181029801Y-89742203D02*
X181279800Y-89992202D01*
X176377587Y-85089989D02*
X181029801Y-89742203D01*
X167819257Y-85089989D02*
X176377587Y-85089989D01*
X163943228Y-81213960D02*
X167819257Y-85089989D01*
X161259520Y-81213960D02*
X163943228Y-81213960D01*
X155788360Y-75742800D02*
X161259520Y-81213960D01*
X139750800Y-75742800D02*
X155788360Y-75742800D01*
X134874000Y-70866000D02*
X139750800Y-75742800D01*
X161051240Y-81666080D02*
X163931600Y-81666080D01*
X132334000Y-70866000D02*
X137896600Y-76428600D01*
X137896600Y-76428600D02*
X155813760Y-76428600D01*
X155813760Y-76428600D02*
X161051240Y-81666080D01*
X163931600Y-81666080D02*
X167660320Y-85394800D01*
X167660320Y-85394800D02*
X175531780Y-85394800D01*
X175531780Y-85394800D02*
X179153820Y-89016840D01*
X163093400Y-72898000D02*
X161894520Y-74096880D01*
X163093400Y-70078600D02*
X163093400Y-72898000D01*
X163814760Y-69357240D02*
X163093400Y-70078600D01*
X161894520Y-74096880D02*
X161894520Y-75082400D01*
X165369240Y-69357240D02*
X163814760Y-69357240D01*
X166878000Y-70866000D02*
X165369240Y-69357240D01*
X162546931Y-74292829D02*
X162546931Y-75082346D01*
X164338000Y-72501760D02*
X162546931Y-74292829D01*
X164338000Y-70866000D02*
X164338000Y-72501760D01*
X178155600Y-84150200D02*
X178206400Y-84201000D01*
X159715200Y-77612240D02*
X162016440Y-79913480D01*
X159715200Y-74523600D02*
X159715200Y-77612240D01*
X161798000Y-72440800D02*
X159715200Y-74523600D01*
X168256556Y-84150200D02*
X178155600Y-84150200D01*
X164019836Y-79913480D02*
X168256556Y-84150200D01*
X162016440Y-79913480D02*
X164019836Y-79913480D01*
X161798000Y-70866000D02*
X161798000Y-72440800D01*
X163951920Y-80360520D02*
X168071767Y-84480367D01*
X159258000Y-70866000D02*
X159258000Y-77769720D01*
X168071767Y-84480367D02*
X177256166Y-84480367D01*
X159258000Y-77769720D02*
X161848800Y-80360520D01*
X161848800Y-80360520D02*
X163951920Y-80360520D01*
X177256166Y-84480367D02*
X177662599Y-84886800D01*
X177662599Y-84886800D02*
X179961540Y-84886800D01*
X174498000Y-72034400D02*
X174498000Y-70866000D01*
X174007780Y-72524620D02*
X174498000Y-72034400D01*
X169550080Y-72524620D02*
X174007780Y-72524620D01*
X164833300Y-77241400D02*
X169550080Y-72524620D01*
X160705800Y-77241400D02*
X164833300Y-77241400D01*
X164442140Y-76672440D02*
X161533840Y-76672440D01*
X170248580Y-70866000D02*
X164442140Y-76672440D01*
X171958000Y-70866000D02*
X170248580Y-70866000D01*
X167055800Y-106631740D02*
X167055800Y-108966000D01*
X167055800Y-99047300D02*
X167055800Y-106631740D01*
X167398700Y-98704400D02*
X167055800Y-99047300D01*
X124714000Y-70866000D02*
X126314200Y-69265800D01*
X126314200Y-69265800D02*
X145897600Y-69265800D01*
X145897600Y-69265800D02*
X146862800Y-70231000D01*
X146862800Y-70231000D02*
X146862800Y-72542400D01*
X148615400Y-74295000D02*
X154914600Y-74295000D01*
X146862800Y-72542400D02*
X148615400Y-74295000D01*
X148793200Y-73812400D02*
X154178000Y-73812400D01*
X147243800Y-72263000D02*
X148793200Y-73812400D01*
X147243800Y-70104000D02*
X147243800Y-72263000D01*
X146100800Y-68961000D02*
X147243800Y-70104000D01*
X124079000Y-68961000D02*
X146100800Y-68961000D01*
X122174000Y-70866000D02*
X124079000Y-68961000D01*
X153700480Y-85379560D02*
X147974230Y-85379560D01*
X154680920Y-86360000D02*
X153700480Y-85379560D01*
X156690060Y-86360000D02*
X154680920Y-86360000D01*
X153741120Y-84856320D02*
X147701000Y-84856320D01*
X147701000Y-84856320D02*
X147289520Y-85267800D01*
X154777440Y-83820000D02*
X153741120Y-84856320D01*
X156690060Y-83820000D02*
X154777440Y-83820000D01*
X115062000Y-71374000D02*
X116586000Y-72898000D01*
X111379000Y-71374000D02*
X115062000Y-71374000D01*
X110617000Y-70612000D02*
X111379000Y-71374000D01*
X108077000Y-70612000D02*
X110617000Y-70612000D01*
X113664256Y-79959190D02*
X116763810Y-79959190D01*
X116763810Y-79959190D02*
X117983000Y-78740000D01*
X112648256Y-78943190D02*
X113664256Y-79959190D01*
X110312190Y-78943190D02*
X112648256Y-78943190D01*
X108585000Y-77216000D02*
X110312190Y-78943190D01*
X108204000Y-77216000D02*
X108585000Y-77216000D01*
X113538000Y-80264000D02*
X119253000Y-80264000D01*
X119253000Y-80264000D02*
X119888000Y-79629000D01*
X112522000Y-79248000D02*
X113538000Y-80264000D01*
X109347000Y-79248000D02*
X112522000Y-79248000D01*
X108331000Y-78232000D02*
X109347000Y-79248000D01*
X137363200Y-85496400D02*
X137363200Y-84124800D01*
X136448800Y-83210400D02*
X131953000Y-83210400D01*
X137363200Y-84124800D02*
X136448800Y-83210400D01*
D33*
X146423470Y-112670239D02*
X146511361Y-112758130D01*
X146614709Y-112827185D01*
X146729544Y-112874751D01*
X146851452Y-112899000D01*
X146975748Y-112899000D01*
X147097656Y-112874751D01*
X147212491Y-112827185D01*
X147315839Y-112758130D01*
X147403730Y-112670239D01*
X147417921Y-112649000D01*
X151257000Y-112649000D01*
X151257000Y-115443000D01*
X146812000Y-115443000D01*
X146787224Y-115445440D01*
X146763399Y-115452667D01*
X146741443Y-115464403D01*
X146722197Y-115480197D01*
X146706403Y-115499443D01*
X146694667Y-115521399D01*
X146687440Y-115545224D01*
X146685000Y-115570000D01*
X146685000Y-119253000D01*
X144578606Y-119253000D01*
X144324606Y-118999000D01*
X145168644Y-118999000D01*
X145252528Y-118803787D01*
X145323472Y-118803787D01*
X145407356Y-118999000D01*
X146431000Y-118999000D01*
X146431000Y-117831288D01*
X146238882Y-117770607D01*
X146013328Y-117852784D01*
X145805133Y-117980580D01*
X145625871Y-118146538D01*
X145482430Y-118344279D01*
X145380322Y-118566205D01*
X145323472Y-118803787D01*
X145252528Y-118803787D01*
X145195678Y-118566205D01*
X145093570Y-118344279D01*
X144950129Y-118146538D01*
X144770867Y-117980580D01*
X144562672Y-117852784D01*
X144337118Y-117770607D01*
X144145000Y-117831288D01*
X144145000Y-118819394D01*
X143891000Y-118565394D01*
X143891000Y-117831288D01*
X143698882Y-117770607D01*
X143473328Y-117852784D01*
X143290571Y-117964965D01*
X143129000Y-117803394D01*
X143129000Y-113910921D01*
X143640925Y-113910921D01*
X143643400Y-113961157D01*
X143643400Y-114071402D01*
X143654167Y-114071402D01*
X143671098Y-114138952D01*
X143643400Y-114166650D01*
X143641557Y-114394400D01*
X143648913Y-114469089D01*
X143670699Y-114540908D01*
X143706078Y-114607096D01*
X143753689Y-114665111D01*
X143811704Y-114712722D01*
X143877892Y-114748101D01*
X143949711Y-114769887D01*
X144024400Y-114777243D01*
X144602150Y-114775400D01*
X144697400Y-114680150D01*
X144697400Y-114216696D01*
X144705763Y-114236886D01*
X144819185Y-114259580D01*
X144820924Y-114261319D01*
X144824400Y-114260624D01*
X144827876Y-114261319D01*
X144829615Y-114259580D01*
X144943037Y-114236886D01*
X144951400Y-114213502D01*
X144951400Y-114680150D01*
X145046650Y-114775400D01*
X145624400Y-114777243D01*
X145699089Y-114769887D01*
X145770908Y-114748101D01*
X145837096Y-114712722D01*
X145895111Y-114665111D01*
X145942722Y-114607096D01*
X145978101Y-114540908D01*
X145999887Y-114469089D01*
X146007243Y-114394400D01*
X146005400Y-114166650D01*
X145977967Y-114139217D01*
X145988211Y-114110575D01*
X145994016Y-114071402D01*
X146005400Y-114071402D01*
X146005400Y-113994581D01*
X146007875Y-113977879D01*
X146005400Y-113927643D01*
X146005400Y-113910921D01*
X148676525Y-113910921D01*
X148679000Y-113961157D01*
X148679000Y-114071402D01*
X148689767Y-114071402D01*
X148706698Y-114138952D01*
X148679000Y-114166650D01*
X148677157Y-114394400D01*
X148684513Y-114469089D01*
X148706299Y-114540908D01*
X148741678Y-114607096D01*
X148789289Y-114665111D01*
X148847304Y-114712722D01*
X148913492Y-114748101D01*
X148985311Y-114769887D01*
X149060000Y-114777243D01*
X149637750Y-114775400D01*
X149733000Y-114680150D01*
X149733000Y-114216696D01*
X149741363Y-114236886D01*
X149854785Y-114259580D01*
X149856524Y-114261319D01*
X149860000Y-114260624D01*
X149863476Y-114261319D01*
X149865215Y-114259580D01*
X149978637Y-114236886D01*
X149987000Y-114213502D01*
X149987000Y-114680150D01*
X150082250Y-114775400D01*
X150660000Y-114777243D01*
X150734689Y-114769887D01*
X150806508Y-114748101D01*
X150872696Y-114712722D01*
X150930711Y-114665111D01*
X150978322Y-114607096D01*
X151013701Y-114540908D01*
X151035487Y-114469089D01*
X151042843Y-114394400D01*
X151041000Y-114166650D01*
X151013567Y-114139217D01*
X151023811Y-114110575D01*
X151029616Y-114071402D01*
X151041000Y-114071402D01*
X151041000Y-113994581D01*
X151043475Y-113977879D01*
X151041000Y-113927643D01*
X151041000Y-113817398D01*
X151030233Y-113817398D01*
X151013302Y-113749848D01*
X151041000Y-113722150D01*
X151042843Y-113494400D01*
X151035487Y-113419711D01*
X151013701Y-113347892D01*
X150978322Y-113281704D01*
X150930711Y-113223689D01*
X150872696Y-113176078D01*
X150806508Y-113140699D01*
X150734689Y-113118913D01*
X150660000Y-113111557D01*
X150082250Y-113113400D01*
X149987000Y-113208650D01*
X149987000Y-113672104D01*
X149978637Y-113651914D01*
X149865215Y-113629220D01*
X149863476Y-113627481D01*
X149860000Y-113628176D01*
X149856524Y-113627481D01*
X149854785Y-113629220D01*
X149741363Y-113651914D01*
X149733000Y-113675298D01*
X149733000Y-113208650D01*
X149637750Y-113113400D01*
X149060000Y-113111557D01*
X148985311Y-113118913D01*
X148913492Y-113140699D01*
X148847304Y-113176078D01*
X148789289Y-113223689D01*
X148741678Y-113281704D01*
X148706299Y-113347892D01*
X148684513Y-113419711D01*
X148677157Y-113494400D01*
X148679000Y-113722150D01*
X148706433Y-113749583D01*
X148696189Y-113778225D01*
X148690384Y-113817398D01*
X148679000Y-113817398D01*
X148679000Y-113894219D01*
X148676525Y-113910921D01*
X146005400Y-113910921D01*
X146005400Y-113817398D01*
X145994633Y-113817398D01*
X145977702Y-113749848D01*
X146005400Y-113722150D01*
X146007243Y-113494400D01*
X145999887Y-113419711D01*
X145978101Y-113347892D01*
X145942722Y-113281704D01*
X145895111Y-113223689D01*
X145837096Y-113176078D01*
X145770908Y-113140699D01*
X145699089Y-113118913D01*
X145624400Y-113111557D01*
X145046650Y-113113400D01*
X144951400Y-113208650D01*
X144951400Y-113672104D01*
X144943037Y-113651914D01*
X144829615Y-113629220D01*
X144827876Y-113627481D01*
X144824400Y-113628176D01*
X144820924Y-113627481D01*
X144819185Y-113629220D01*
X144705763Y-113651914D01*
X144697400Y-113675298D01*
X144697400Y-113208650D01*
X144602150Y-113113400D01*
X144024400Y-113111557D01*
X143949711Y-113118913D01*
X143877892Y-113140699D01*
X143811704Y-113176078D01*
X143753689Y-113223689D01*
X143706078Y-113281704D01*
X143670699Y-113347892D01*
X143648913Y-113419711D01*
X143641557Y-113494400D01*
X143643400Y-113722150D01*
X143670833Y-113749583D01*
X143660589Y-113778225D01*
X143654784Y-113817398D01*
X143643400Y-113817398D01*
X143643400Y-113894219D01*
X143640925Y-113910921D01*
X143129000Y-113910921D01*
X143129000Y-112649000D01*
X146409279Y-112649000D01*
X146423470Y-112670239D01*
G04 #@! TA.AperFunction,Conductor*
D34*
G36*
X146423470Y-112670239D02*
G01*
X146511361Y-112758130D01*
X146614709Y-112827185D01*
X146729544Y-112874751D01*
X146851452Y-112899000D01*
X146975748Y-112899000D01*
X147097656Y-112874751D01*
X147212491Y-112827185D01*
X147315839Y-112758130D01*
X147403730Y-112670239D01*
X147417921Y-112649000D01*
X151257000Y-112649000D01*
X151257000Y-115443000D01*
X146812000Y-115443000D01*
X146787224Y-115445440D01*
X146763399Y-115452667D01*
X146741443Y-115464403D01*
X146722197Y-115480197D01*
X146706403Y-115499443D01*
X146694667Y-115521399D01*
X146687440Y-115545224D01*
X146685000Y-115570000D01*
X146685000Y-119253000D01*
X144578606Y-119253000D01*
X144324606Y-118999000D01*
X145168644Y-118999000D01*
X145252528Y-118803787D01*
X145323472Y-118803787D01*
X145407356Y-118999000D01*
X146431000Y-118999000D01*
X146431000Y-117831288D01*
X146238882Y-117770607D01*
X146013328Y-117852784D01*
X145805133Y-117980580D01*
X145625871Y-118146538D01*
X145482430Y-118344279D01*
X145380322Y-118566205D01*
X145323472Y-118803787D01*
X145252528Y-118803787D01*
X145195678Y-118566205D01*
X145093570Y-118344279D01*
X144950129Y-118146538D01*
X144770867Y-117980580D01*
X144562672Y-117852784D01*
X144337118Y-117770607D01*
X144145000Y-117831288D01*
X144145000Y-118819394D01*
X143891000Y-118565394D01*
X143891000Y-117831288D01*
X143698882Y-117770607D01*
X143473328Y-117852784D01*
X143290571Y-117964965D01*
X143129000Y-117803394D01*
X143129000Y-113910921D01*
X143640925Y-113910921D01*
X143643400Y-113961157D01*
X143643400Y-114071402D01*
X143654167Y-114071402D01*
X143671098Y-114138952D01*
X143643400Y-114166650D01*
X143641557Y-114394400D01*
X143648913Y-114469089D01*
X143670699Y-114540908D01*
X143706078Y-114607096D01*
X143753689Y-114665111D01*
X143811704Y-114712722D01*
X143877892Y-114748101D01*
X143949711Y-114769887D01*
X144024400Y-114777243D01*
X144602150Y-114775400D01*
X144697400Y-114680150D01*
X144697400Y-114216696D01*
X144705763Y-114236886D01*
X144819185Y-114259580D01*
X144820924Y-114261319D01*
X144824400Y-114260624D01*
X144827876Y-114261319D01*
X144829615Y-114259580D01*
X144943037Y-114236886D01*
X144951400Y-114213502D01*
X144951400Y-114680150D01*
X145046650Y-114775400D01*
X145624400Y-114777243D01*
X145699089Y-114769887D01*
X145770908Y-114748101D01*
X145837096Y-114712722D01*
X145895111Y-114665111D01*
X145942722Y-114607096D01*
X145978101Y-114540908D01*
X145999887Y-114469089D01*
X146007243Y-114394400D01*
X146005400Y-114166650D01*
X145977967Y-114139217D01*
X145988211Y-114110575D01*
X145994016Y-114071402D01*
X146005400Y-114071402D01*
X146005400Y-113994581D01*
X146007875Y-113977879D01*
X146005400Y-113927643D01*
X146005400Y-113910921D01*
X148676525Y-113910921D01*
X148679000Y-113961157D01*
X148679000Y-114071402D01*
X148689767Y-114071402D01*
X148706698Y-114138952D01*
X148679000Y-114166650D01*
X148677157Y-114394400D01*
X148684513Y-114469089D01*
X148706299Y-114540908D01*
X148741678Y-114607096D01*
X148789289Y-114665111D01*
X148847304Y-114712722D01*
X148913492Y-114748101D01*
X148985311Y-114769887D01*
X149060000Y-114777243D01*
X149637750Y-114775400D01*
X149733000Y-114680150D01*
X149733000Y-114216696D01*
X149741363Y-114236886D01*
X149854785Y-114259580D01*
X149856524Y-114261319D01*
X149860000Y-114260624D01*
X149863476Y-114261319D01*
X149865215Y-114259580D01*
X149978637Y-114236886D01*
X149987000Y-114213502D01*
X149987000Y-114680150D01*
X150082250Y-114775400D01*
X150660000Y-114777243D01*
X150734689Y-114769887D01*
X150806508Y-114748101D01*
X150872696Y-114712722D01*
X150930711Y-114665111D01*
X150978322Y-114607096D01*
X151013701Y-114540908D01*
X151035487Y-114469089D01*
X151042843Y-114394400D01*
X151041000Y-114166650D01*
X151013567Y-114139217D01*
X151023811Y-114110575D01*
X151029616Y-114071402D01*
X151041000Y-114071402D01*
X151041000Y-113994581D01*
X151043475Y-113977879D01*
X151041000Y-113927643D01*
X151041000Y-113817398D01*
X151030233Y-113817398D01*
X151013302Y-113749848D01*
X151041000Y-113722150D01*
X151042843Y-113494400D01*
X151035487Y-113419711D01*
X151013701Y-113347892D01*
X150978322Y-113281704D01*
X150930711Y-113223689D01*
X150872696Y-113176078D01*
X150806508Y-113140699D01*
X150734689Y-113118913D01*
X150660000Y-113111557D01*
X150082250Y-113113400D01*
X149987000Y-113208650D01*
X149987000Y-113672104D01*
X149978637Y-113651914D01*
X149865215Y-113629220D01*
X149863476Y-113627481D01*
X149860000Y-113628176D01*
X149856524Y-113627481D01*
X149854785Y-113629220D01*
X149741363Y-113651914D01*
X149733000Y-113675298D01*
X149733000Y-113208650D01*
X149637750Y-113113400D01*
X149060000Y-113111557D01*
X148985311Y-113118913D01*
X148913492Y-113140699D01*
X148847304Y-113176078D01*
X148789289Y-113223689D01*
X148741678Y-113281704D01*
X148706299Y-113347892D01*
X148684513Y-113419711D01*
X148677157Y-113494400D01*
X148679000Y-113722150D01*
X148706433Y-113749583D01*
X148696189Y-113778225D01*
X148690384Y-113817398D01*
X148679000Y-113817398D01*
X148679000Y-113894219D01*
X148676525Y-113910921D01*
X146005400Y-113910921D01*
X146005400Y-113817398D01*
X145994633Y-113817398D01*
X145977702Y-113749848D01*
X146005400Y-113722150D01*
X146007243Y-113494400D01*
X145999887Y-113419711D01*
X145978101Y-113347892D01*
X145942722Y-113281704D01*
X145895111Y-113223689D01*
X145837096Y-113176078D01*
X145770908Y-113140699D01*
X145699089Y-113118913D01*
X145624400Y-113111557D01*
X145046650Y-113113400D01*
X144951400Y-113208650D01*
X144951400Y-113672104D01*
X144943037Y-113651914D01*
X144829615Y-113629220D01*
X144827876Y-113627481D01*
X144824400Y-113628176D01*
X144820924Y-113627481D01*
X144819185Y-113629220D01*
X144705763Y-113651914D01*
X144697400Y-113675298D01*
X144697400Y-113208650D01*
X144602150Y-113113400D01*
X144024400Y-113111557D01*
X143949711Y-113118913D01*
X143877892Y-113140699D01*
X143811704Y-113176078D01*
X143753689Y-113223689D01*
X143706078Y-113281704D01*
X143670699Y-113347892D01*
X143648913Y-113419711D01*
X143641557Y-113494400D01*
X143643400Y-113722150D01*
X143670833Y-113749583D01*
X143660589Y-113778225D01*
X143654784Y-113817398D01*
X143643400Y-113817398D01*
X143643400Y-113894219D01*
X143640925Y-113910921D01*
X143129000Y-113910921D01*
X143129000Y-112649000D01*
X146409279Y-112649000D01*
X146423470Y-112670239D01*
G37*
G04 #@! TD.AperFunction*
M02*
