G04 #@! TF.GenerationSoftware,KiCad,Pcbnew,5.1.7-a382d34a8~88~ubuntu20.04.1*
G04 #@! TF.CreationDate,2021-04-05T16:33:11-03:00*
G04 #@! TF.ProjectId,h730duino,68373330-6475-4696-9e6f-2e6b69636164,rev?*
G04 #@! TF.SameCoordinates,Original*
G04 #@! TF.FileFunction,Copper,L1,Top*
G04 #@! TF.FilePolarity,Positive*
%FSLAX46Y46*%
G04 Gerber Fmt 4.6, Leading zero omitted, Abs format (unit mm)*
G04 Created by KiCad (PCBNEW 5.1.7-a382d34a8~88~ubuntu20.04.1) date 2021-04-05 16:33:11*
%MOMM*%
%LPD*%
G01*
G04 APERTURE LIST*
G04 #@! TA.AperFunction,SMDPad,CuDef*
%ADD10R,0.279400X1.358900*%
G04 #@! TD*
G04 #@! TA.AperFunction,SMDPad,CuDef*
%ADD11R,1.358900X0.279400*%
G04 #@! TD*
G04 #@! TA.AperFunction,SMDPad,CuDef*
%ADD12C,0.355600*%
G04 #@! TD*
G04 #@! TA.AperFunction,ComponentPad*
%ADD13C,0.500000*%
G04 #@! TD*
G04 #@! TA.AperFunction,SMDPad,CuDef*
%ADD14R,2.600000X2.600000*%
G04 #@! TD*
G04 #@! TA.AperFunction,SMDPad,CuDef*
%ADD15C,0.100000*%
G04 #@! TD*
G04 #@! TA.AperFunction,SMDPad,CuDef*
%ADD16R,0.250000X0.500000*%
G04 #@! TD*
G04 #@! TA.AperFunction,SMDPad,CuDef*
%ADD17R,1.600000X0.900000*%
G04 #@! TD*
G04 #@! TA.AperFunction,ComponentPad*
%ADD18C,0.600000*%
G04 #@! TD*
G04 #@! TA.AperFunction,SMDPad,CuDef*
%ADD19R,0.800000X2.700000*%
G04 #@! TD*
G04 #@! TA.AperFunction,SMDPad,CuDef*
%ADD20R,1.060000X0.650000*%
G04 #@! TD*
G04 #@! TA.AperFunction,SMDPad,CuDef*
%ADD21R,2.400000X2.000000*%
G04 #@! TD*
G04 #@! TA.AperFunction,ConnectorPad*
%ADD22C,0.787400*%
G04 #@! TD*
G04 #@! TA.AperFunction,SMDPad,CuDef*
%ADD23R,2.400000X0.740000*%
G04 #@! TD*
G04 #@! TA.AperFunction,ComponentPad*
%ADD24O,1.700000X1.700000*%
G04 #@! TD*
G04 #@! TA.AperFunction,ComponentPad*
%ADD25R,1.700000X1.700000*%
G04 #@! TD*
G04 #@! TA.AperFunction,ComponentPad*
%ADD26O,1.400000X0.800000*%
G04 #@! TD*
G04 #@! TA.AperFunction,SMDPad,CuDef*
%ADD27R,0.700000X0.300000*%
G04 #@! TD*
G04 #@! TA.AperFunction,SMDPad,CuDef*
%ADD28R,0.900000X0.800000*%
G04 #@! TD*
G04 #@! TA.AperFunction,SMDPad,CuDef*
%ADD29R,0.550000X2.910000*%
G04 #@! TD*
G04 #@! TA.AperFunction,SMDPad,CuDef*
%ADD30R,2.390000X1.050000*%
G04 #@! TD*
G04 #@! TA.AperFunction,SMDPad,CuDef*
%ADD31R,1.200000X1.050000*%
G04 #@! TD*
G04 #@! TA.AperFunction,SMDPad,CuDef*
%ADD32R,1.080000X1.050000*%
G04 #@! TD*
G04 #@! TA.AperFunction,SMDPad,CuDef*
%ADD33R,0.780000X0.720000*%
G04 #@! TD*
G04 #@! TA.AperFunction,SMDPad,CuDef*
%ADD34R,1.000000X0.500000*%
G04 #@! TD*
G04 #@! TA.AperFunction,SMDPad,CuDef*
%ADD35R,1.900000X1.000000*%
G04 #@! TD*
G04 #@! TA.AperFunction,SMDPad,CuDef*
%ADD36R,1.900000X1.800000*%
G04 #@! TD*
G04 #@! TA.AperFunction,SMDPad,CuDef*
%ADD37R,1.300000X1.650000*%
G04 #@! TD*
G04 #@! TA.AperFunction,SMDPad,CuDef*
%ADD38R,1.550000X1.425000*%
G04 #@! TD*
G04 #@! TA.AperFunction,SMDPad,CuDef*
%ADD39R,1.380000X0.450000*%
G04 #@! TD*
G04 #@! TA.AperFunction,SMDPad,CuDef*
%ADD40R,1.800000X1.000000*%
G04 #@! TD*
G04 #@! TA.AperFunction,ComponentPad*
%ADD41C,2.100000*%
G04 #@! TD*
G04 #@! TA.AperFunction,ComponentPad*
%ADD42C,1.750000*%
G04 #@! TD*
G04 #@! TA.AperFunction,ComponentPad*
%ADD43C,1.530000*%
G04 #@! TD*
G04 #@! TA.AperFunction,ComponentPad*
%ADD44C,1.725000*%
G04 #@! TD*
G04 #@! TA.AperFunction,SMDPad,CuDef*
%ADD45R,0.800000X0.900000*%
G04 #@! TD*
G04 #@! TA.AperFunction,ComponentPad*
%ADD46O,1.727200X1.727200*%
G04 #@! TD*
G04 #@! TA.AperFunction,ComponentPad*
%ADD47C,1.727200*%
G04 #@! TD*
G04 #@! TA.AperFunction,ComponentPad*
%ADD48O,1.727200X2.032000*%
G04 #@! TD*
G04 #@! TA.AperFunction,ComponentPad*
%ADD49C,4.064000*%
G04 #@! TD*
G04 #@! TA.AperFunction,ViaPad*
%ADD50C,0.500000*%
G04 #@! TD*
G04 #@! TA.AperFunction,Conductor*
%ADD51C,0.800000*%
G04 #@! TD*
G04 #@! TA.AperFunction,Conductor*
%ADD52C,0.254000*%
G04 #@! TD*
G04 #@! TA.AperFunction,Conductor*
%ADD53C,0.500000*%
G04 #@! TD*
G04 #@! TA.AperFunction,Conductor*
%ADD54C,0.300000*%
G04 #@! TD*
G04 #@! TA.AperFunction,Conductor*
%ADD55C,0.400000*%
G04 #@! TD*
G04 #@! TA.AperFunction,Conductor*
%ADD56C,0.600000*%
G04 #@! TD*
G04 #@! TA.AperFunction,Conductor*
%ADD57C,0.406400*%
G04 #@! TD*
G04 #@! TA.AperFunction,Conductor*
%ADD58C,0.152400*%
G04 #@! TD*
G04 #@! TA.AperFunction,Conductor*
%ADD59C,0.203200*%
G04 #@! TD*
G04 #@! TA.AperFunction,Conductor*
%ADD60C,0.127000*%
G04 #@! TD*
G04 APERTURE END LIST*
G04 #@! TA.AperFunction,SMDPad,CuDef*
G36*
G01*
X179795360Y-104673280D02*
X180295360Y-104673280D01*
G75*
G02*
X180520360Y-104898280I0J-225000D01*
G01*
X180520360Y-105348280D01*
G75*
G02*
X180295360Y-105573280I-225000J0D01*
G01*
X179795360Y-105573280D01*
G75*
G02*
X179570360Y-105348280I0J225000D01*
G01*
X179570360Y-104898280D01*
G75*
G02*
X179795360Y-104673280I225000J0D01*
G01*
G37*
G04 #@! TD.AperFunction*
G04 #@! TA.AperFunction,SMDPad,CuDef*
G36*
G01*
X179795360Y-103123280D02*
X180295360Y-103123280D01*
G75*
G02*
X180520360Y-103348280I0J-225000D01*
G01*
X180520360Y-103798280D01*
G75*
G02*
X180295360Y-104023280I-225000J0D01*
G01*
X179795360Y-104023280D01*
G75*
G02*
X179570360Y-103798280I0J225000D01*
G01*
X179570360Y-103348280D01*
G75*
G02*
X179795360Y-103123280I225000J0D01*
G01*
G37*
G04 #@! TD.AperFunction*
G04 #@! TA.AperFunction,SMDPad,CuDef*
G36*
G01*
X165596120Y-114214320D02*
X165596120Y-113664320D01*
G75*
G02*
X165796120Y-113464320I200000J0D01*
G01*
X166196120Y-113464320D01*
G75*
G02*
X166396120Y-113664320I0J-200000D01*
G01*
X166396120Y-114214320D01*
G75*
G02*
X166196120Y-114414320I-200000J0D01*
G01*
X165796120Y-114414320D01*
G75*
G02*
X165596120Y-114214320I0J200000D01*
G01*
G37*
G04 #@! TD.AperFunction*
G04 #@! TA.AperFunction,SMDPad,CuDef*
G36*
G01*
X163946120Y-114214320D02*
X163946120Y-113664320D01*
G75*
G02*
X164146120Y-113464320I200000J0D01*
G01*
X164546120Y-113464320D01*
G75*
G02*
X164746120Y-113664320I0J-200000D01*
G01*
X164746120Y-114214320D01*
G75*
G02*
X164546120Y-114414320I-200000J0D01*
G01*
X164146120Y-114414320D01*
G75*
G02*
X163946120Y-114214320I0J200000D01*
G01*
G37*
G04 #@! TD.AperFunction*
D10*
X167897175Y-101702870D03*
X168397301Y-101702870D03*
X168897427Y-101702870D03*
X169397553Y-101702870D03*
X169897679Y-101702870D03*
X170397805Y-101702870D03*
X170897931Y-101702870D03*
X171398057Y-101702870D03*
X171898183Y-101702870D03*
X172398309Y-101702870D03*
X172898435Y-101702870D03*
X173398561Y-101702870D03*
X173898687Y-101702870D03*
X174398813Y-101702870D03*
X174898939Y-101702870D03*
X175399065Y-101702870D03*
X175899191Y-101702870D03*
X176399317Y-101702870D03*
X176899443Y-101702870D03*
X177399569Y-101702870D03*
X177899695Y-101702870D03*
X178399821Y-101702870D03*
X178899947Y-101702870D03*
X179400073Y-101702870D03*
X179900199Y-101702870D03*
X180400325Y-101702870D03*
X180900451Y-101702870D03*
X181400577Y-101702870D03*
X181900703Y-101702870D03*
X182400829Y-101702870D03*
X182900955Y-101702870D03*
X183401081Y-101702870D03*
X183901207Y-101702870D03*
X184401333Y-101702870D03*
X184901459Y-101702870D03*
X185401585Y-101702870D03*
D11*
X187425330Y-99679125D03*
X187425330Y-99178999D03*
X187425330Y-98678873D03*
X187425330Y-98178747D03*
X187425330Y-97678621D03*
X187425330Y-97178495D03*
X187425330Y-96678369D03*
X187425330Y-96178243D03*
X187425330Y-95678117D03*
X187425330Y-95177991D03*
X187425330Y-94677865D03*
X187425330Y-94177739D03*
X187425330Y-93677613D03*
X187425330Y-93177487D03*
X187425330Y-92677361D03*
X187425330Y-92177235D03*
X187425330Y-91677109D03*
X187425330Y-91176983D03*
X187425330Y-90676857D03*
X187425330Y-90176731D03*
X187425330Y-89676605D03*
X187425330Y-89176479D03*
X187425330Y-88676353D03*
X187425330Y-88176227D03*
X187425330Y-87676101D03*
X187425330Y-87175975D03*
X187425330Y-86675849D03*
X187425330Y-86175723D03*
X187425330Y-85675597D03*
X187425330Y-85175471D03*
X187425330Y-84675345D03*
X187425330Y-84175219D03*
X187425330Y-83675093D03*
X187425330Y-83174967D03*
X187425330Y-82674841D03*
X187425330Y-82174715D03*
D10*
X185401585Y-80150970D03*
X184901459Y-80150970D03*
X184401333Y-80150970D03*
X183901207Y-80150970D03*
X183401081Y-80150970D03*
X182900955Y-80150970D03*
X182400829Y-80150970D03*
X181900703Y-80150970D03*
X181400577Y-80150970D03*
X180900451Y-80150970D03*
X180400325Y-80150970D03*
X179900199Y-80150970D03*
X179400073Y-80150970D03*
X178899947Y-80150970D03*
X178399821Y-80150970D03*
X177899695Y-80150970D03*
X177399569Y-80150970D03*
X176899443Y-80150970D03*
X176399317Y-80150970D03*
X175899191Y-80150970D03*
X175399065Y-80150970D03*
X174898939Y-80150970D03*
X174398813Y-80150970D03*
X173898687Y-80150970D03*
X173398561Y-80150970D03*
X172898435Y-80150970D03*
X172398309Y-80150970D03*
X171898183Y-80150970D03*
X171398057Y-80150970D03*
X170897931Y-80150970D03*
X170397805Y-80150970D03*
X169897679Y-80150970D03*
X169397553Y-80150970D03*
X168897427Y-80150970D03*
X168397301Y-80150970D03*
X167897175Y-80150970D03*
D11*
X165873430Y-82174715D03*
X165873430Y-82674841D03*
X165873430Y-83174967D03*
X165873430Y-83675093D03*
X165873430Y-84175219D03*
X165873430Y-84675345D03*
X165873430Y-85175471D03*
X165873430Y-85675597D03*
X165873430Y-86175723D03*
X165873430Y-86675849D03*
X165873430Y-87175975D03*
X165873430Y-87676101D03*
X165873430Y-88176227D03*
X165873430Y-88676353D03*
X165873430Y-89176479D03*
X165873430Y-89676605D03*
X165873430Y-90176731D03*
X165873430Y-90676857D03*
X165873430Y-91176983D03*
X165873430Y-91677109D03*
X165873430Y-92177235D03*
X165873430Y-92677361D03*
X165873430Y-93177487D03*
X165873430Y-93677613D03*
X165873430Y-94177739D03*
X165873430Y-94677865D03*
X165873430Y-95177991D03*
X165873430Y-95678117D03*
X165873430Y-96178243D03*
X165873430Y-96678369D03*
X165873430Y-97178495D03*
X165873430Y-97678621D03*
X165873430Y-98178747D03*
X165873430Y-98678873D03*
X165873430Y-99178999D03*
X165873430Y-99679125D03*
D12*
X173042580Y-109382560D03*
X173042580Y-110373160D03*
X173042580Y-111363760D03*
X173042580Y-112354360D03*
X173042580Y-113344960D03*
X172051980Y-109382560D03*
X172051980Y-110373160D03*
X172051980Y-111363760D03*
X172051980Y-112354360D03*
X172051980Y-113344960D03*
X171061380Y-109382560D03*
X171061380Y-110373160D03*
X171061380Y-111363760D03*
X171061380Y-112354360D03*
X171061380Y-113344960D03*
X170070780Y-109382560D03*
X170070780Y-110373160D03*
X170070780Y-111363760D03*
X170070780Y-112354360D03*
X170070780Y-113344960D03*
X169080180Y-109382560D03*
X169080180Y-110373160D03*
X169080180Y-111363760D03*
X169080180Y-112354360D03*
G04 #@! TA.AperFunction,SMDPad,CuDef*
G36*
G01*
X193540500Y-98009900D02*
X193540500Y-98509900D01*
G75*
G02*
X193315500Y-98734900I-225000J0D01*
G01*
X192865500Y-98734900D01*
G75*
G02*
X192640500Y-98509900I0J225000D01*
G01*
X192640500Y-98009900D01*
G75*
G02*
X192865500Y-97784900I225000J0D01*
G01*
X193315500Y-97784900D01*
G75*
G02*
X193540500Y-98009900I0J-225000D01*
G01*
G37*
G04 #@! TD.AperFunction*
G04 #@! TA.AperFunction,SMDPad,CuDef*
G36*
G01*
X195090500Y-98009900D02*
X195090500Y-98509900D01*
G75*
G02*
X194865500Y-98734900I-225000J0D01*
G01*
X194415500Y-98734900D01*
G75*
G02*
X194190500Y-98509900I0J225000D01*
G01*
X194190500Y-98009900D01*
G75*
G02*
X194415500Y-97784900I225000J0D01*
G01*
X194865500Y-97784900D01*
G75*
G02*
X195090500Y-98009900I0J-225000D01*
G01*
G37*
G04 #@! TD.AperFunction*
G04 #@! TA.AperFunction,SMDPad,CuDef*
G36*
G01*
X171193580Y-115215860D02*
X171193580Y-115715860D01*
G75*
G02*
X170968580Y-115940860I-225000J0D01*
G01*
X170518580Y-115940860D01*
G75*
G02*
X170293580Y-115715860I0J225000D01*
G01*
X170293580Y-115215860D01*
G75*
G02*
X170518580Y-114990860I225000J0D01*
G01*
X170968580Y-114990860D01*
G75*
G02*
X171193580Y-115215860I0J-225000D01*
G01*
G37*
G04 #@! TD.AperFunction*
G04 #@! TA.AperFunction,SMDPad,CuDef*
G36*
G01*
X172743580Y-115215860D02*
X172743580Y-115715860D01*
G75*
G02*
X172518580Y-115940860I-225000J0D01*
G01*
X172068580Y-115940860D01*
G75*
G02*
X171843580Y-115715860I0J225000D01*
G01*
X171843580Y-115215860D01*
G75*
G02*
X172068580Y-114990860I225000J0D01*
G01*
X172518580Y-114990860D01*
G75*
G02*
X172743580Y-115215860I0J-225000D01*
G01*
G37*
G04 #@! TD.AperFunction*
G04 #@! TA.AperFunction,SMDPad,CuDef*
G36*
G01*
X176429480Y-109641760D02*
X175929480Y-109641760D01*
G75*
G02*
X175704480Y-109416760I0J225000D01*
G01*
X175704480Y-108966760D01*
G75*
G02*
X175929480Y-108741760I225000J0D01*
G01*
X176429480Y-108741760D01*
G75*
G02*
X176654480Y-108966760I0J-225000D01*
G01*
X176654480Y-109416760D01*
G75*
G02*
X176429480Y-109641760I-225000J0D01*
G01*
G37*
G04 #@! TD.AperFunction*
G04 #@! TA.AperFunction,SMDPad,CuDef*
G36*
G01*
X176429480Y-111191760D02*
X175929480Y-111191760D01*
G75*
G02*
X175704480Y-110966760I0J225000D01*
G01*
X175704480Y-110516760D01*
G75*
G02*
X175929480Y-110291760I225000J0D01*
G01*
X176429480Y-110291760D01*
G75*
G02*
X176654480Y-110516760I0J-225000D01*
G01*
X176654480Y-110966760D01*
G75*
G02*
X176429480Y-111191760I-225000J0D01*
G01*
G37*
G04 #@! TD.AperFunction*
G04 #@! TA.AperFunction,SMDPad,CuDef*
G36*
G01*
X133100400Y-104831700D02*
X133650400Y-104831700D01*
G75*
G02*
X133850400Y-105031700I0J-200000D01*
G01*
X133850400Y-105431700D01*
G75*
G02*
X133650400Y-105631700I-200000J0D01*
G01*
X133100400Y-105631700D01*
G75*
G02*
X132900400Y-105431700I0J200000D01*
G01*
X132900400Y-105031700D01*
G75*
G02*
X133100400Y-104831700I200000J0D01*
G01*
G37*
G04 #@! TD.AperFunction*
G04 #@! TA.AperFunction,SMDPad,CuDef*
G36*
G01*
X133100400Y-103181700D02*
X133650400Y-103181700D01*
G75*
G02*
X133850400Y-103381700I0J-200000D01*
G01*
X133850400Y-103781700D01*
G75*
G02*
X133650400Y-103981700I-200000J0D01*
G01*
X133100400Y-103981700D01*
G75*
G02*
X132900400Y-103781700I0J200000D01*
G01*
X132900400Y-103381700D01*
G75*
G02*
X133100400Y-103181700I200000J0D01*
G01*
G37*
G04 #@! TD.AperFunction*
D13*
X139200600Y-89403900D03*
X138150600Y-89403900D03*
X137100600Y-89403900D03*
X139200600Y-88353900D03*
X138150600Y-88353900D03*
X137100600Y-88353900D03*
X139200600Y-87303900D03*
X138150600Y-87303900D03*
X137100600Y-87303900D03*
D14*
X138150600Y-88353900D03*
G04 #@! TA.AperFunction,SMDPad,CuDef*
G36*
G01*
X136775600Y-86766400D02*
X136775600Y-86066400D01*
G75*
G02*
X136838100Y-86003900I62500J0D01*
G01*
X136963100Y-86003900D01*
G75*
G02*
X137025600Y-86066400I0J-62500D01*
G01*
X137025600Y-86766400D01*
G75*
G02*
X136963100Y-86828900I-62500J0D01*
G01*
X136838100Y-86828900D01*
G75*
G02*
X136775600Y-86766400I0J62500D01*
G01*
G37*
G04 #@! TD.AperFunction*
G04 #@! TA.AperFunction,SMDPad,CuDef*
G36*
G01*
X137275600Y-86766400D02*
X137275600Y-86066400D01*
G75*
G02*
X137338100Y-86003900I62500J0D01*
G01*
X137463100Y-86003900D01*
G75*
G02*
X137525600Y-86066400I0J-62500D01*
G01*
X137525600Y-86766400D01*
G75*
G02*
X137463100Y-86828900I-62500J0D01*
G01*
X137338100Y-86828900D01*
G75*
G02*
X137275600Y-86766400I0J62500D01*
G01*
G37*
G04 #@! TD.AperFunction*
G04 #@! TA.AperFunction,SMDPad,CuDef*
G36*
G01*
X137775600Y-86766400D02*
X137775600Y-86066400D01*
G75*
G02*
X137838100Y-86003900I62500J0D01*
G01*
X137963100Y-86003900D01*
G75*
G02*
X138025600Y-86066400I0J-62500D01*
G01*
X138025600Y-86766400D01*
G75*
G02*
X137963100Y-86828900I-62500J0D01*
G01*
X137838100Y-86828900D01*
G75*
G02*
X137775600Y-86766400I0J62500D01*
G01*
G37*
G04 #@! TD.AperFunction*
G04 #@! TA.AperFunction,SMDPad,CuDef*
G36*
G01*
X138275600Y-86766400D02*
X138275600Y-86066400D01*
G75*
G02*
X138338100Y-86003900I62500J0D01*
G01*
X138463100Y-86003900D01*
G75*
G02*
X138525600Y-86066400I0J-62500D01*
G01*
X138525600Y-86766400D01*
G75*
G02*
X138463100Y-86828900I-62500J0D01*
G01*
X138338100Y-86828900D01*
G75*
G02*
X138275600Y-86766400I0J62500D01*
G01*
G37*
G04 #@! TD.AperFunction*
G04 #@! TA.AperFunction,SMDPad,CuDef*
G36*
G01*
X138775600Y-86766400D02*
X138775600Y-86066400D01*
G75*
G02*
X138838100Y-86003900I62500J0D01*
G01*
X138963100Y-86003900D01*
G75*
G02*
X139025600Y-86066400I0J-62500D01*
G01*
X139025600Y-86766400D01*
G75*
G02*
X138963100Y-86828900I-62500J0D01*
G01*
X138838100Y-86828900D01*
G75*
G02*
X138775600Y-86766400I0J62500D01*
G01*
G37*
G04 #@! TD.AperFunction*
G04 #@! TA.AperFunction,SMDPad,CuDef*
G36*
G01*
X139275600Y-86766400D02*
X139275600Y-86066400D01*
G75*
G02*
X139338100Y-86003900I62500J0D01*
G01*
X139463100Y-86003900D01*
G75*
G02*
X139525600Y-86066400I0J-62500D01*
G01*
X139525600Y-86766400D01*
G75*
G02*
X139463100Y-86828900I-62500J0D01*
G01*
X139338100Y-86828900D01*
G75*
G02*
X139275600Y-86766400I0J62500D01*
G01*
G37*
G04 #@! TD.AperFunction*
G04 #@! TA.AperFunction,SMDPad,CuDef*
G36*
G01*
X139675600Y-87166400D02*
X139675600Y-87041400D01*
G75*
G02*
X139738100Y-86978900I62500J0D01*
G01*
X140438100Y-86978900D01*
G75*
G02*
X140500600Y-87041400I0J-62500D01*
G01*
X140500600Y-87166400D01*
G75*
G02*
X140438100Y-87228900I-62500J0D01*
G01*
X139738100Y-87228900D01*
G75*
G02*
X139675600Y-87166400I0J62500D01*
G01*
G37*
G04 #@! TD.AperFunction*
G04 #@! TA.AperFunction,SMDPad,CuDef*
G36*
G01*
X139675600Y-87666400D02*
X139675600Y-87541400D01*
G75*
G02*
X139738100Y-87478900I62500J0D01*
G01*
X140438100Y-87478900D01*
G75*
G02*
X140500600Y-87541400I0J-62500D01*
G01*
X140500600Y-87666400D01*
G75*
G02*
X140438100Y-87728900I-62500J0D01*
G01*
X139738100Y-87728900D01*
G75*
G02*
X139675600Y-87666400I0J62500D01*
G01*
G37*
G04 #@! TD.AperFunction*
G04 #@! TA.AperFunction,SMDPad,CuDef*
G36*
G01*
X139675600Y-88166400D02*
X139675600Y-88041400D01*
G75*
G02*
X139738100Y-87978900I62500J0D01*
G01*
X140438100Y-87978900D01*
G75*
G02*
X140500600Y-88041400I0J-62500D01*
G01*
X140500600Y-88166400D01*
G75*
G02*
X140438100Y-88228900I-62500J0D01*
G01*
X139738100Y-88228900D01*
G75*
G02*
X139675600Y-88166400I0J62500D01*
G01*
G37*
G04 #@! TD.AperFunction*
G04 #@! TA.AperFunction,SMDPad,CuDef*
G36*
G01*
X139675600Y-88666400D02*
X139675600Y-88541400D01*
G75*
G02*
X139738100Y-88478900I62500J0D01*
G01*
X140438100Y-88478900D01*
G75*
G02*
X140500600Y-88541400I0J-62500D01*
G01*
X140500600Y-88666400D01*
G75*
G02*
X140438100Y-88728900I-62500J0D01*
G01*
X139738100Y-88728900D01*
G75*
G02*
X139675600Y-88666400I0J62500D01*
G01*
G37*
G04 #@! TD.AperFunction*
G04 #@! TA.AperFunction,SMDPad,CuDef*
G36*
G01*
X139675600Y-89166400D02*
X139675600Y-89041400D01*
G75*
G02*
X139738100Y-88978900I62500J0D01*
G01*
X140438100Y-88978900D01*
G75*
G02*
X140500600Y-89041400I0J-62500D01*
G01*
X140500600Y-89166400D01*
G75*
G02*
X140438100Y-89228900I-62500J0D01*
G01*
X139738100Y-89228900D01*
G75*
G02*
X139675600Y-89166400I0J62500D01*
G01*
G37*
G04 #@! TD.AperFunction*
G04 #@! TA.AperFunction,SMDPad,CuDef*
G36*
G01*
X139675600Y-89666400D02*
X139675600Y-89541400D01*
G75*
G02*
X139738100Y-89478900I62500J0D01*
G01*
X140438100Y-89478900D01*
G75*
G02*
X140500600Y-89541400I0J-62500D01*
G01*
X140500600Y-89666400D01*
G75*
G02*
X140438100Y-89728900I-62500J0D01*
G01*
X139738100Y-89728900D01*
G75*
G02*
X139675600Y-89666400I0J62500D01*
G01*
G37*
G04 #@! TD.AperFunction*
G04 #@! TA.AperFunction,SMDPad,CuDef*
G36*
G01*
X139275600Y-90641400D02*
X139275600Y-89941400D01*
G75*
G02*
X139338100Y-89878900I62500J0D01*
G01*
X139463100Y-89878900D01*
G75*
G02*
X139525600Y-89941400I0J-62500D01*
G01*
X139525600Y-90641400D01*
G75*
G02*
X139463100Y-90703900I-62500J0D01*
G01*
X139338100Y-90703900D01*
G75*
G02*
X139275600Y-90641400I0J62500D01*
G01*
G37*
G04 #@! TD.AperFunction*
G04 #@! TA.AperFunction,SMDPad,CuDef*
G36*
G01*
X138775600Y-90641400D02*
X138775600Y-89941400D01*
G75*
G02*
X138838100Y-89878900I62500J0D01*
G01*
X138963100Y-89878900D01*
G75*
G02*
X139025600Y-89941400I0J-62500D01*
G01*
X139025600Y-90641400D01*
G75*
G02*
X138963100Y-90703900I-62500J0D01*
G01*
X138838100Y-90703900D01*
G75*
G02*
X138775600Y-90641400I0J62500D01*
G01*
G37*
G04 #@! TD.AperFunction*
G04 #@! TA.AperFunction,SMDPad,CuDef*
G36*
G01*
X138275600Y-90641400D02*
X138275600Y-89941400D01*
G75*
G02*
X138338100Y-89878900I62500J0D01*
G01*
X138463100Y-89878900D01*
G75*
G02*
X138525600Y-89941400I0J-62500D01*
G01*
X138525600Y-90641400D01*
G75*
G02*
X138463100Y-90703900I-62500J0D01*
G01*
X138338100Y-90703900D01*
G75*
G02*
X138275600Y-90641400I0J62500D01*
G01*
G37*
G04 #@! TD.AperFunction*
G04 #@! TA.AperFunction,SMDPad,CuDef*
G36*
G01*
X137775600Y-90641400D02*
X137775600Y-89941400D01*
G75*
G02*
X137838100Y-89878900I62500J0D01*
G01*
X137963100Y-89878900D01*
G75*
G02*
X138025600Y-89941400I0J-62500D01*
G01*
X138025600Y-90641400D01*
G75*
G02*
X137963100Y-90703900I-62500J0D01*
G01*
X137838100Y-90703900D01*
G75*
G02*
X137775600Y-90641400I0J62500D01*
G01*
G37*
G04 #@! TD.AperFunction*
G04 #@! TA.AperFunction,SMDPad,CuDef*
G36*
G01*
X137275600Y-90641400D02*
X137275600Y-89941400D01*
G75*
G02*
X137338100Y-89878900I62500J0D01*
G01*
X137463100Y-89878900D01*
G75*
G02*
X137525600Y-89941400I0J-62500D01*
G01*
X137525600Y-90641400D01*
G75*
G02*
X137463100Y-90703900I-62500J0D01*
G01*
X137338100Y-90703900D01*
G75*
G02*
X137275600Y-90641400I0J62500D01*
G01*
G37*
G04 #@! TD.AperFunction*
G04 #@! TA.AperFunction,SMDPad,CuDef*
G36*
G01*
X136775600Y-90641400D02*
X136775600Y-89941400D01*
G75*
G02*
X136838100Y-89878900I62500J0D01*
G01*
X136963100Y-89878900D01*
G75*
G02*
X137025600Y-89941400I0J-62500D01*
G01*
X137025600Y-90641400D01*
G75*
G02*
X136963100Y-90703900I-62500J0D01*
G01*
X136838100Y-90703900D01*
G75*
G02*
X136775600Y-90641400I0J62500D01*
G01*
G37*
G04 #@! TD.AperFunction*
G04 #@! TA.AperFunction,SMDPad,CuDef*
G36*
G01*
X135800600Y-89666400D02*
X135800600Y-89541400D01*
G75*
G02*
X135863100Y-89478900I62500J0D01*
G01*
X136563100Y-89478900D01*
G75*
G02*
X136625600Y-89541400I0J-62500D01*
G01*
X136625600Y-89666400D01*
G75*
G02*
X136563100Y-89728900I-62500J0D01*
G01*
X135863100Y-89728900D01*
G75*
G02*
X135800600Y-89666400I0J62500D01*
G01*
G37*
G04 #@! TD.AperFunction*
G04 #@! TA.AperFunction,SMDPad,CuDef*
G36*
G01*
X135800600Y-89166400D02*
X135800600Y-89041400D01*
G75*
G02*
X135863100Y-88978900I62500J0D01*
G01*
X136563100Y-88978900D01*
G75*
G02*
X136625600Y-89041400I0J-62500D01*
G01*
X136625600Y-89166400D01*
G75*
G02*
X136563100Y-89228900I-62500J0D01*
G01*
X135863100Y-89228900D01*
G75*
G02*
X135800600Y-89166400I0J62500D01*
G01*
G37*
G04 #@! TD.AperFunction*
G04 #@! TA.AperFunction,SMDPad,CuDef*
G36*
G01*
X135800600Y-88666400D02*
X135800600Y-88541400D01*
G75*
G02*
X135863100Y-88478900I62500J0D01*
G01*
X136563100Y-88478900D01*
G75*
G02*
X136625600Y-88541400I0J-62500D01*
G01*
X136625600Y-88666400D01*
G75*
G02*
X136563100Y-88728900I-62500J0D01*
G01*
X135863100Y-88728900D01*
G75*
G02*
X135800600Y-88666400I0J62500D01*
G01*
G37*
G04 #@! TD.AperFunction*
G04 #@! TA.AperFunction,SMDPad,CuDef*
G36*
G01*
X135800600Y-88166400D02*
X135800600Y-88041400D01*
G75*
G02*
X135863100Y-87978900I62500J0D01*
G01*
X136563100Y-87978900D01*
G75*
G02*
X136625600Y-88041400I0J-62500D01*
G01*
X136625600Y-88166400D01*
G75*
G02*
X136563100Y-88228900I-62500J0D01*
G01*
X135863100Y-88228900D01*
G75*
G02*
X135800600Y-88166400I0J62500D01*
G01*
G37*
G04 #@! TD.AperFunction*
G04 #@! TA.AperFunction,SMDPad,CuDef*
G36*
G01*
X135800600Y-87666400D02*
X135800600Y-87541400D01*
G75*
G02*
X135863100Y-87478900I62500J0D01*
G01*
X136563100Y-87478900D01*
G75*
G02*
X136625600Y-87541400I0J-62500D01*
G01*
X136625600Y-87666400D01*
G75*
G02*
X136563100Y-87728900I-62500J0D01*
G01*
X135863100Y-87728900D01*
G75*
G02*
X135800600Y-87666400I0J62500D01*
G01*
G37*
G04 #@! TD.AperFunction*
G04 #@! TA.AperFunction,SMDPad,CuDef*
G36*
G01*
X135800600Y-87166400D02*
X135800600Y-87041400D01*
G75*
G02*
X135863100Y-86978900I62500J0D01*
G01*
X136563100Y-86978900D01*
G75*
G02*
X136625600Y-87041400I0J-62500D01*
G01*
X136625600Y-87166400D01*
G75*
G02*
X136563100Y-87228900I-62500J0D01*
G01*
X135863100Y-87228900D01*
G75*
G02*
X135800600Y-87166400I0J62500D01*
G01*
G37*
G04 #@! TD.AperFunction*
G04 #@! TA.AperFunction,SMDPad,CuDef*
G36*
G01*
X114575140Y-102197580D02*
X114575140Y-101647580D01*
G75*
G02*
X114775140Y-101447580I200000J0D01*
G01*
X115175140Y-101447580D01*
G75*
G02*
X115375140Y-101647580I0J-200000D01*
G01*
X115375140Y-102197580D01*
G75*
G02*
X115175140Y-102397580I-200000J0D01*
G01*
X114775140Y-102397580D01*
G75*
G02*
X114575140Y-102197580I0J200000D01*
G01*
G37*
G04 #@! TD.AperFunction*
G04 #@! TA.AperFunction,SMDPad,CuDef*
G36*
G01*
X112925140Y-102197580D02*
X112925140Y-101647580D01*
G75*
G02*
X113125140Y-101447580I200000J0D01*
G01*
X113525140Y-101447580D01*
G75*
G02*
X113725140Y-101647580I0J-200000D01*
G01*
X113725140Y-102197580D01*
G75*
G02*
X113525140Y-102397580I-200000J0D01*
G01*
X113125140Y-102397580D01*
G75*
G02*
X112925140Y-102197580I0J200000D01*
G01*
G37*
G04 #@! TD.AperFunction*
G04 #@! TA.AperFunction,SMDPad,CuDef*
D15*
G36*
X119775221Y-107017055D02*
G01*
X119766779Y-107014495D01*
X119758999Y-107010336D01*
X119752180Y-107004740D01*
X119746584Y-106997921D01*
X119742425Y-106990141D01*
X119739865Y-106981699D01*
X119739000Y-106972920D01*
X119739000Y-106307920D01*
X119739865Y-106299141D01*
X119742425Y-106290699D01*
X119746584Y-106282919D01*
X119752180Y-106276100D01*
X119758999Y-106270504D01*
X119766779Y-106266345D01*
X119775221Y-106263785D01*
X119784000Y-106262920D01*
X119810360Y-106262920D01*
X119819139Y-106263785D01*
X119827581Y-106266345D01*
X119835361Y-106270504D01*
X119842180Y-106276100D01*
X119975820Y-106409740D01*
X119981416Y-106416559D01*
X119985575Y-106424339D01*
X119988135Y-106432781D01*
X119989000Y-106441560D01*
X119989000Y-106972920D01*
X119988135Y-106981699D01*
X119985575Y-106990141D01*
X119981416Y-106997921D01*
X119975820Y-107004740D01*
X119969001Y-107010336D01*
X119961221Y-107014495D01*
X119952779Y-107017055D01*
X119944000Y-107017920D01*
X119784000Y-107017920D01*
X119775221Y-107017055D01*
G37*
G04 #@! TD.AperFunction*
G04 #@! TA.AperFunction,SMDPad,CuDef*
G36*
G01*
X119489000Y-106205420D02*
X119489000Y-106955420D01*
G75*
G02*
X119426500Y-107017920I-62500J0D01*
G01*
X119301500Y-107017920D01*
G75*
G02*
X119239000Y-106955420I0J62500D01*
G01*
X119239000Y-106205420D01*
G75*
G02*
X119301500Y-106142920I62500J0D01*
G01*
X119426500Y-106142920D01*
G75*
G02*
X119489000Y-106205420I0J-62500D01*
G01*
G37*
G04 #@! TD.AperFunction*
G04 #@! TA.AperFunction,SMDPad,CuDef*
G36*
G01*
X118989000Y-106205420D02*
X118989000Y-106955420D01*
G75*
G02*
X118926500Y-107017920I-62500J0D01*
G01*
X118801500Y-107017920D01*
G75*
G02*
X118739000Y-106955420I0J62500D01*
G01*
X118739000Y-106205420D01*
G75*
G02*
X118801500Y-106142920I62500J0D01*
G01*
X118926500Y-106142920D01*
G75*
G02*
X118989000Y-106205420I0J-62500D01*
G01*
G37*
G04 #@! TD.AperFunction*
G04 #@! TA.AperFunction,SMDPad,CuDef*
G36*
G01*
X118489000Y-106205420D02*
X118489000Y-106955420D01*
G75*
G02*
X118426500Y-107017920I-62500J0D01*
G01*
X118301500Y-107017920D01*
G75*
G02*
X118239000Y-106955420I0J62500D01*
G01*
X118239000Y-106205420D01*
G75*
G02*
X118301500Y-106142920I62500J0D01*
G01*
X118426500Y-106142920D01*
G75*
G02*
X118489000Y-106205420I0J-62500D01*
G01*
G37*
G04 #@! TD.AperFunction*
G04 #@! TA.AperFunction,SMDPad,CuDef*
G36*
G01*
X117989000Y-106205420D02*
X117989000Y-106955420D01*
G75*
G02*
X117926500Y-107017920I-62500J0D01*
G01*
X117801500Y-107017920D01*
G75*
G02*
X117739000Y-106955420I0J62500D01*
G01*
X117739000Y-106205420D01*
G75*
G02*
X117801500Y-106142920I62500J0D01*
G01*
X117926500Y-106142920D01*
G75*
G02*
X117989000Y-106205420I0J-62500D01*
G01*
G37*
G04 #@! TD.AperFunction*
G04 #@! TA.AperFunction,SMDPad,CuDef*
G36*
G01*
X117489000Y-106205420D02*
X117489000Y-106955420D01*
G75*
G02*
X117426500Y-107017920I-62500J0D01*
G01*
X117301500Y-107017920D01*
G75*
G02*
X117239000Y-106955420I0J62500D01*
G01*
X117239000Y-106205420D01*
G75*
G02*
X117301500Y-106142920I62500J0D01*
G01*
X117426500Y-106142920D01*
G75*
G02*
X117489000Y-106205420I0J-62500D01*
G01*
G37*
G04 #@! TD.AperFunction*
G04 #@! TA.AperFunction,SMDPad,CuDef*
G36*
X116775221Y-107017055D02*
G01*
X116766779Y-107014495D01*
X116758999Y-107010336D01*
X116752180Y-107004740D01*
X116746584Y-106997921D01*
X116742425Y-106990141D01*
X116739865Y-106981699D01*
X116739000Y-106972920D01*
X116739000Y-106441560D01*
X116739865Y-106432781D01*
X116742425Y-106424339D01*
X116746584Y-106416559D01*
X116752180Y-106409740D01*
X116885820Y-106276100D01*
X116892639Y-106270504D01*
X116900419Y-106266345D01*
X116908861Y-106263785D01*
X116917640Y-106262920D01*
X116944000Y-106262920D01*
X116952779Y-106263785D01*
X116961221Y-106266345D01*
X116969001Y-106270504D01*
X116975820Y-106276100D01*
X116981416Y-106282919D01*
X116985575Y-106290699D01*
X116988135Y-106299141D01*
X116989000Y-106307920D01*
X116989000Y-106972920D01*
X116988135Y-106981699D01*
X116985575Y-106990141D01*
X116981416Y-106997921D01*
X116975820Y-107004740D01*
X116969001Y-107010336D01*
X116961221Y-107014495D01*
X116952779Y-107017055D01*
X116944000Y-107017920D01*
X116784000Y-107017920D01*
X116775221Y-107017055D01*
G37*
G04 #@! TD.AperFunction*
G04 #@! TA.AperFunction,SMDPad,CuDef*
G36*
X116025221Y-106267055D02*
G01*
X116016779Y-106264495D01*
X116008999Y-106260336D01*
X116002180Y-106254740D01*
X115996584Y-106247921D01*
X115992425Y-106240141D01*
X115989865Y-106231699D01*
X115989000Y-106222920D01*
X115989000Y-106062920D01*
X115989865Y-106054141D01*
X115992425Y-106045699D01*
X115996584Y-106037919D01*
X116002180Y-106031100D01*
X116008999Y-106025504D01*
X116016779Y-106021345D01*
X116025221Y-106018785D01*
X116034000Y-106017920D01*
X116699000Y-106017920D01*
X116707779Y-106018785D01*
X116716221Y-106021345D01*
X116724001Y-106025504D01*
X116730820Y-106031100D01*
X116736416Y-106037919D01*
X116740575Y-106045699D01*
X116743135Y-106054141D01*
X116744000Y-106062920D01*
X116744000Y-106089280D01*
X116743135Y-106098059D01*
X116740575Y-106106501D01*
X116736416Y-106114281D01*
X116730820Y-106121100D01*
X116597180Y-106254740D01*
X116590361Y-106260336D01*
X116582581Y-106264495D01*
X116574139Y-106267055D01*
X116565360Y-106267920D01*
X116034000Y-106267920D01*
X116025221Y-106267055D01*
G37*
G04 #@! TD.AperFunction*
G04 #@! TA.AperFunction,SMDPad,CuDef*
G36*
G01*
X116864000Y-105580420D02*
X116864000Y-105705420D01*
G75*
G02*
X116801500Y-105767920I-62500J0D01*
G01*
X116051500Y-105767920D01*
G75*
G02*
X115989000Y-105705420I0J62500D01*
G01*
X115989000Y-105580420D01*
G75*
G02*
X116051500Y-105517920I62500J0D01*
G01*
X116801500Y-105517920D01*
G75*
G02*
X116864000Y-105580420I0J-62500D01*
G01*
G37*
G04 #@! TD.AperFunction*
G04 #@! TA.AperFunction,SMDPad,CuDef*
G36*
G01*
X116864000Y-105080420D02*
X116864000Y-105205420D01*
G75*
G02*
X116801500Y-105267920I-62500J0D01*
G01*
X116051500Y-105267920D01*
G75*
G02*
X115989000Y-105205420I0J62500D01*
G01*
X115989000Y-105080420D01*
G75*
G02*
X116051500Y-105017920I62500J0D01*
G01*
X116801500Y-105017920D01*
G75*
G02*
X116864000Y-105080420I0J-62500D01*
G01*
G37*
G04 #@! TD.AperFunction*
G04 #@! TA.AperFunction,SMDPad,CuDef*
G36*
G01*
X116864000Y-104580420D02*
X116864000Y-104705420D01*
G75*
G02*
X116801500Y-104767920I-62500J0D01*
G01*
X116051500Y-104767920D01*
G75*
G02*
X115989000Y-104705420I0J62500D01*
G01*
X115989000Y-104580420D01*
G75*
G02*
X116051500Y-104517920I62500J0D01*
G01*
X116801500Y-104517920D01*
G75*
G02*
X116864000Y-104580420I0J-62500D01*
G01*
G37*
G04 #@! TD.AperFunction*
G04 #@! TA.AperFunction,SMDPad,CuDef*
G36*
G01*
X116864000Y-104080420D02*
X116864000Y-104205420D01*
G75*
G02*
X116801500Y-104267920I-62500J0D01*
G01*
X116051500Y-104267920D01*
G75*
G02*
X115989000Y-104205420I0J62500D01*
G01*
X115989000Y-104080420D01*
G75*
G02*
X116051500Y-104017920I62500J0D01*
G01*
X116801500Y-104017920D01*
G75*
G02*
X116864000Y-104080420I0J-62500D01*
G01*
G37*
G04 #@! TD.AperFunction*
G04 #@! TA.AperFunction,SMDPad,CuDef*
G36*
G01*
X116864000Y-103580420D02*
X116864000Y-103705420D01*
G75*
G02*
X116801500Y-103767920I-62500J0D01*
G01*
X116051500Y-103767920D01*
G75*
G02*
X115989000Y-103705420I0J62500D01*
G01*
X115989000Y-103580420D01*
G75*
G02*
X116051500Y-103517920I62500J0D01*
G01*
X116801500Y-103517920D01*
G75*
G02*
X116864000Y-103580420I0J-62500D01*
G01*
G37*
G04 #@! TD.AperFunction*
G04 #@! TA.AperFunction,SMDPad,CuDef*
G36*
X116025221Y-103267055D02*
G01*
X116016779Y-103264495D01*
X116008999Y-103260336D01*
X116002180Y-103254740D01*
X115996584Y-103247921D01*
X115992425Y-103240141D01*
X115989865Y-103231699D01*
X115989000Y-103222920D01*
X115989000Y-103062920D01*
X115989865Y-103054141D01*
X115992425Y-103045699D01*
X115996584Y-103037919D01*
X116002180Y-103031100D01*
X116008999Y-103025504D01*
X116016779Y-103021345D01*
X116025221Y-103018785D01*
X116034000Y-103017920D01*
X116565360Y-103017920D01*
X116574139Y-103018785D01*
X116582581Y-103021345D01*
X116590361Y-103025504D01*
X116597180Y-103031100D01*
X116730820Y-103164740D01*
X116736416Y-103171559D01*
X116740575Y-103179339D01*
X116743135Y-103187781D01*
X116744000Y-103196560D01*
X116744000Y-103222920D01*
X116743135Y-103231699D01*
X116740575Y-103240141D01*
X116736416Y-103247921D01*
X116730820Y-103254740D01*
X116724001Y-103260336D01*
X116716221Y-103264495D01*
X116707779Y-103267055D01*
X116699000Y-103267920D01*
X116034000Y-103267920D01*
X116025221Y-103267055D01*
G37*
G04 #@! TD.AperFunction*
G04 #@! TA.AperFunction,SMDPad,CuDef*
G36*
X116908861Y-103022055D02*
G01*
X116900419Y-103019495D01*
X116892639Y-103015336D01*
X116885820Y-103009740D01*
X116752180Y-102876100D01*
X116746584Y-102869281D01*
X116742425Y-102861501D01*
X116739865Y-102853059D01*
X116739000Y-102844280D01*
X116739000Y-102312920D01*
X116739865Y-102304141D01*
X116742425Y-102295699D01*
X116746584Y-102287919D01*
X116752180Y-102281100D01*
X116758999Y-102275504D01*
X116766779Y-102271345D01*
X116775221Y-102268785D01*
X116784000Y-102267920D01*
X116944000Y-102267920D01*
X116952779Y-102268785D01*
X116961221Y-102271345D01*
X116969001Y-102275504D01*
X116975820Y-102281100D01*
X116981416Y-102287919D01*
X116985575Y-102295699D01*
X116988135Y-102304141D01*
X116989000Y-102312920D01*
X116989000Y-102977920D01*
X116988135Y-102986699D01*
X116985575Y-102995141D01*
X116981416Y-103002921D01*
X116975820Y-103009740D01*
X116969001Y-103015336D01*
X116961221Y-103019495D01*
X116952779Y-103022055D01*
X116944000Y-103022920D01*
X116917640Y-103022920D01*
X116908861Y-103022055D01*
G37*
G04 #@! TD.AperFunction*
G04 #@! TA.AperFunction,SMDPad,CuDef*
G36*
G01*
X117489000Y-102330420D02*
X117489000Y-103080420D01*
G75*
G02*
X117426500Y-103142920I-62500J0D01*
G01*
X117301500Y-103142920D01*
G75*
G02*
X117239000Y-103080420I0J62500D01*
G01*
X117239000Y-102330420D01*
G75*
G02*
X117301500Y-102267920I62500J0D01*
G01*
X117426500Y-102267920D01*
G75*
G02*
X117489000Y-102330420I0J-62500D01*
G01*
G37*
G04 #@! TD.AperFunction*
G04 #@! TA.AperFunction,SMDPad,CuDef*
G36*
G01*
X117989000Y-102330420D02*
X117989000Y-103080420D01*
G75*
G02*
X117926500Y-103142920I-62500J0D01*
G01*
X117801500Y-103142920D01*
G75*
G02*
X117739000Y-103080420I0J62500D01*
G01*
X117739000Y-102330420D01*
G75*
G02*
X117801500Y-102267920I62500J0D01*
G01*
X117926500Y-102267920D01*
G75*
G02*
X117989000Y-102330420I0J-62500D01*
G01*
G37*
G04 #@! TD.AperFunction*
G04 #@! TA.AperFunction,SMDPad,CuDef*
G36*
G01*
X118489000Y-102330420D02*
X118489000Y-103080420D01*
G75*
G02*
X118426500Y-103142920I-62500J0D01*
G01*
X118301500Y-103142920D01*
G75*
G02*
X118239000Y-103080420I0J62500D01*
G01*
X118239000Y-102330420D01*
G75*
G02*
X118301500Y-102267920I62500J0D01*
G01*
X118426500Y-102267920D01*
G75*
G02*
X118489000Y-102330420I0J-62500D01*
G01*
G37*
G04 #@! TD.AperFunction*
G04 #@! TA.AperFunction,SMDPad,CuDef*
G36*
G01*
X118989000Y-102330420D02*
X118989000Y-103080420D01*
G75*
G02*
X118926500Y-103142920I-62500J0D01*
G01*
X118801500Y-103142920D01*
G75*
G02*
X118739000Y-103080420I0J62500D01*
G01*
X118739000Y-102330420D01*
G75*
G02*
X118801500Y-102267920I62500J0D01*
G01*
X118926500Y-102267920D01*
G75*
G02*
X118989000Y-102330420I0J-62500D01*
G01*
G37*
G04 #@! TD.AperFunction*
G04 #@! TA.AperFunction,SMDPad,CuDef*
G36*
G01*
X119489000Y-102330420D02*
X119489000Y-103080420D01*
G75*
G02*
X119426500Y-103142920I-62500J0D01*
G01*
X119301500Y-103142920D01*
G75*
G02*
X119239000Y-103080420I0J62500D01*
G01*
X119239000Y-102330420D01*
G75*
G02*
X119301500Y-102267920I62500J0D01*
G01*
X119426500Y-102267920D01*
G75*
G02*
X119489000Y-102330420I0J-62500D01*
G01*
G37*
G04 #@! TD.AperFunction*
G04 #@! TA.AperFunction,SMDPad,CuDef*
G36*
X119775221Y-103022055D02*
G01*
X119766779Y-103019495D01*
X119758999Y-103015336D01*
X119752180Y-103009740D01*
X119746584Y-103002921D01*
X119742425Y-102995141D01*
X119739865Y-102986699D01*
X119739000Y-102977920D01*
X119739000Y-102312920D01*
X119739865Y-102304141D01*
X119742425Y-102295699D01*
X119746584Y-102287919D01*
X119752180Y-102281100D01*
X119758999Y-102275504D01*
X119766779Y-102271345D01*
X119775221Y-102268785D01*
X119784000Y-102267920D01*
X119944000Y-102267920D01*
X119952779Y-102268785D01*
X119961221Y-102271345D01*
X119969001Y-102275504D01*
X119975820Y-102281100D01*
X119981416Y-102287919D01*
X119985575Y-102295699D01*
X119988135Y-102304141D01*
X119989000Y-102312920D01*
X119989000Y-102844280D01*
X119988135Y-102853059D01*
X119985575Y-102861501D01*
X119981416Y-102869281D01*
X119975820Y-102876100D01*
X119842180Y-103009740D01*
X119835361Y-103015336D01*
X119827581Y-103019495D01*
X119819139Y-103022055D01*
X119810360Y-103022920D01*
X119784000Y-103022920D01*
X119775221Y-103022055D01*
G37*
G04 #@! TD.AperFunction*
G04 #@! TA.AperFunction,SMDPad,CuDef*
G36*
X120020221Y-103267055D02*
G01*
X120011779Y-103264495D01*
X120003999Y-103260336D01*
X119997180Y-103254740D01*
X119991584Y-103247921D01*
X119987425Y-103240141D01*
X119984865Y-103231699D01*
X119984000Y-103222920D01*
X119984000Y-103196560D01*
X119984865Y-103187781D01*
X119987425Y-103179339D01*
X119991584Y-103171559D01*
X119997180Y-103164740D01*
X120130820Y-103031100D01*
X120137639Y-103025504D01*
X120145419Y-103021345D01*
X120153861Y-103018785D01*
X120162640Y-103017920D01*
X120694000Y-103017920D01*
X120702779Y-103018785D01*
X120711221Y-103021345D01*
X120719001Y-103025504D01*
X120725820Y-103031100D01*
X120731416Y-103037919D01*
X120735575Y-103045699D01*
X120738135Y-103054141D01*
X120739000Y-103062920D01*
X120739000Y-103222920D01*
X120738135Y-103231699D01*
X120735575Y-103240141D01*
X120731416Y-103247921D01*
X120725820Y-103254740D01*
X120719001Y-103260336D01*
X120711221Y-103264495D01*
X120702779Y-103267055D01*
X120694000Y-103267920D01*
X120029000Y-103267920D01*
X120020221Y-103267055D01*
G37*
G04 #@! TD.AperFunction*
G04 #@! TA.AperFunction,SMDPad,CuDef*
G36*
G01*
X120739000Y-103580420D02*
X120739000Y-103705420D01*
G75*
G02*
X120676500Y-103767920I-62500J0D01*
G01*
X119926500Y-103767920D01*
G75*
G02*
X119864000Y-103705420I0J62500D01*
G01*
X119864000Y-103580420D01*
G75*
G02*
X119926500Y-103517920I62500J0D01*
G01*
X120676500Y-103517920D01*
G75*
G02*
X120739000Y-103580420I0J-62500D01*
G01*
G37*
G04 #@! TD.AperFunction*
G04 #@! TA.AperFunction,SMDPad,CuDef*
G36*
G01*
X120739000Y-104080420D02*
X120739000Y-104205420D01*
G75*
G02*
X120676500Y-104267920I-62500J0D01*
G01*
X119926500Y-104267920D01*
G75*
G02*
X119864000Y-104205420I0J62500D01*
G01*
X119864000Y-104080420D01*
G75*
G02*
X119926500Y-104017920I62500J0D01*
G01*
X120676500Y-104017920D01*
G75*
G02*
X120739000Y-104080420I0J-62500D01*
G01*
G37*
G04 #@! TD.AperFunction*
G04 #@! TA.AperFunction,SMDPad,CuDef*
G36*
G01*
X120739000Y-104580420D02*
X120739000Y-104705420D01*
G75*
G02*
X120676500Y-104767920I-62500J0D01*
G01*
X119926500Y-104767920D01*
G75*
G02*
X119864000Y-104705420I0J62500D01*
G01*
X119864000Y-104580420D01*
G75*
G02*
X119926500Y-104517920I62500J0D01*
G01*
X120676500Y-104517920D01*
G75*
G02*
X120739000Y-104580420I0J-62500D01*
G01*
G37*
G04 #@! TD.AperFunction*
G04 #@! TA.AperFunction,SMDPad,CuDef*
G36*
G01*
X120739000Y-105080420D02*
X120739000Y-105205420D01*
G75*
G02*
X120676500Y-105267920I-62500J0D01*
G01*
X119926500Y-105267920D01*
G75*
G02*
X119864000Y-105205420I0J62500D01*
G01*
X119864000Y-105080420D01*
G75*
G02*
X119926500Y-105017920I62500J0D01*
G01*
X120676500Y-105017920D01*
G75*
G02*
X120739000Y-105080420I0J-62500D01*
G01*
G37*
G04 #@! TD.AperFunction*
G04 #@! TA.AperFunction,SMDPad,CuDef*
G36*
G01*
X120739000Y-105580420D02*
X120739000Y-105705420D01*
G75*
G02*
X120676500Y-105767920I-62500J0D01*
G01*
X119926500Y-105767920D01*
G75*
G02*
X119864000Y-105705420I0J62500D01*
G01*
X119864000Y-105580420D01*
G75*
G02*
X119926500Y-105517920I62500J0D01*
G01*
X120676500Y-105517920D01*
G75*
G02*
X120739000Y-105580420I0J-62500D01*
G01*
G37*
G04 #@! TD.AperFunction*
G04 #@! TA.AperFunction,SMDPad,CuDef*
G36*
X120153861Y-106267055D02*
G01*
X120145419Y-106264495D01*
X120137639Y-106260336D01*
X120130820Y-106254740D01*
X119997180Y-106121100D01*
X119991584Y-106114281D01*
X119987425Y-106106501D01*
X119984865Y-106098059D01*
X119984000Y-106089280D01*
X119984000Y-106062920D01*
X119984865Y-106054141D01*
X119987425Y-106045699D01*
X119991584Y-106037919D01*
X119997180Y-106031100D01*
X120003999Y-106025504D01*
X120011779Y-106021345D01*
X120020221Y-106018785D01*
X120029000Y-106017920D01*
X120694000Y-106017920D01*
X120702779Y-106018785D01*
X120711221Y-106021345D01*
X120719001Y-106025504D01*
X120725820Y-106031100D01*
X120731416Y-106037919D01*
X120735575Y-106045699D01*
X120738135Y-106054141D01*
X120739000Y-106062920D01*
X120739000Y-106222920D01*
X120738135Y-106231699D01*
X120735575Y-106240141D01*
X120731416Y-106247921D01*
X120725820Y-106254740D01*
X120719001Y-106260336D01*
X120711221Y-106264495D01*
X120702779Y-106267055D01*
X120694000Y-106267920D01*
X120162640Y-106267920D01*
X120153861Y-106267055D01*
G37*
G04 #@! TD.AperFunction*
G04 #@! TA.AperFunction,SMDPad,CuDef*
G36*
G01*
X121495000Y-79354000D02*
X121495000Y-79904000D01*
G75*
G02*
X121295000Y-80104000I-200000J0D01*
G01*
X120895000Y-80104000D01*
G75*
G02*
X120695000Y-79904000I0J200000D01*
G01*
X120695000Y-79354000D01*
G75*
G02*
X120895000Y-79154000I200000J0D01*
G01*
X121295000Y-79154000D01*
G75*
G02*
X121495000Y-79354000I0J-200000D01*
G01*
G37*
G04 #@! TD.AperFunction*
G04 #@! TA.AperFunction,SMDPad,CuDef*
G36*
G01*
X123145000Y-79354000D02*
X123145000Y-79904000D01*
G75*
G02*
X122945000Y-80104000I-200000J0D01*
G01*
X122545000Y-80104000D01*
G75*
G02*
X122345000Y-79904000I0J200000D01*
G01*
X122345000Y-79354000D01*
G75*
G02*
X122545000Y-79154000I200000J0D01*
G01*
X122945000Y-79154000D01*
G75*
G02*
X123145000Y-79354000I0J-200000D01*
G01*
G37*
G04 #@! TD.AperFunction*
G04 #@! TA.AperFunction,SMDPad,CuDef*
G36*
G01*
X121495000Y-77830000D02*
X121495000Y-78380000D01*
G75*
G02*
X121295000Y-78580000I-200000J0D01*
G01*
X120895000Y-78580000D01*
G75*
G02*
X120695000Y-78380000I0J200000D01*
G01*
X120695000Y-77830000D01*
G75*
G02*
X120895000Y-77630000I200000J0D01*
G01*
X121295000Y-77630000D01*
G75*
G02*
X121495000Y-77830000I0J-200000D01*
G01*
G37*
G04 #@! TD.AperFunction*
G04 #@! TA.AperFunction,SMDPad,CuDef*
G36*
G01*
X123145000Y-77830000D02*
X123145000Y-78380000D01*
G75*
G02*
X122945000Y-78580000I-200000J0D01*
G01*
X122545000Y-78580000D01*
G75*
G02*
X122345000Y-78380000I0J200000D01*
G01*
X122345000Y-77830000D01*
G75*
G02*
X122545000Y-77630000I200000J0D01*
G01*
X122945000Y-77630000D01*
G75*
G02*
X123145000Y-77830000I0J-200000D01*
G01*
G37*
G04 #@! TD.AperFunction*
G04 #@! TA.AperFunction,SMDPad,CuDef*
G36*
G01*
X121495000Y-76306000D02*
X121495000Y-76856000D01*
G75*
G02*
X121295000Y-77056000I-200000J0D01*
G01*
X120895000Y-77056000D01*
G75*
G02*
X120695000Y-76856000I0J200000D01*
G01*
X120695000Y-76306000D01*
G75*
G02*
X120895000Y-76106000I200000J0D01*
G01*
X121295000Y-76106000D01*
G75*
G02*
X121495000Y-76306000I0J-200000D01*
G01*
G37*
G04 #@! TD.AperFunction*
G04 #@! TA.AperFunction,SMDPad,CuDef*
G36*
G01*
X123145000Y-76306000D02*
X123145000Y-76856000D01*
G75*
G02*
X122945000Y-77056000I-200000J0D01*
G01*
X122545000Y-77056000D01*
G75*
G02*
X122345000Y-76856000I0J200000D01*
G01*
X122345000Y-76306000D01*
G75*
G02*
X122545000Y-76106000I200000J0D01*
G01*
X122945000Y-76106000D01*
G75*
G02*
X123145000Y-76306000I0J-200000D01*
G01*
G37*
G04 #@! TD.AperFunction*
G04 #@! TA.AperFunction,SMDPad,CuDef*
G36*
G01*
X121510240Y-73273240D02*
X121510240Y-73823240D01*
G75*
G02*
X121310240Y-74023240I-200000J0D01*
G01*
X120910240Y-74023240D01*
G75*
G02*
X120710240Y-73823240I0J200000D01*
G01*
X120710240Y-73273240D01*
G75*
G02*
X120910240Y-73073240I200000J0D01*
G01*
X121310240Y-73073240D01*
G75*
G02*
X121510240Y-73273240I0J-200000D01*
G01*
G37*
G04 #@! TD.AperFunction*
G04 #@! TA.AperFunction,SMDPad,CuDef*
G36*
G01*
X123160240Y-73273240D02*
X123160240Y-73823240D01*
G75*
G02*
X122960240Y-74023240I-200000J0D01*
G01*
X122560240Y-74023240D01*
G75*
G02*
X122360240Y-73823240I0J200000D01*
G01*
X122360240Y-73273240D01*
G75*
G02*
X122560240Y-73073240I200000J0D01*
G01*
X122960240Y-73073240D01*
G75*
G02*
X123160240Y-73273240I0J-200000D01*
G01*
G37*
G04 #@! TD.AperFunction*
G04 #@! TA.AperFunction,SMDPad,CuDef*
G36*
G01*
X121495000Y-74782000D02*
X121495000Y-75332000D01*
G75*
G02*
X121295000Y-75532000I-200000J0D01*
G01*
X120895000Y-75532000D01*
G75*
G02*
X120695000Y-75332000I0J200000D01*
G01*
X120695000Y-74782000D01*
G75*
G02*
X120895000Y-74582000I200000J0D01*
G01*
X121295000Y-74582000D01*
G75*
G02*
X121495000Y-74782000I0J-200000D01*
G01*
G37*
G04 #@! TD.AperFunction*
G04 #@! TA.AperFunction,SMDPad,CuDef*
G36*
G01*
X123145000Y-74782000D02*
X123145000Y-75332000D01*
G75*
G02*
X122945000Y-75532000I-200000J0D01*
G01*
X122545000Y-75532000D01*
G75*
G02*
X122345000Y-75332000I0J200000D01*
G01*
X122345000Y-74782000D01*
G75*
G02*
X122545000Y-74582000I200000J0D01*
G01*
X122945000Y-74582000D01*
G75*
G02*
X123145000Y-74782000I0J-200000D01*
G01*
G37*
G04 #@! TD.AperFunction*
G04 #@! TA.AperFunction,SMDPad,CuDef*
G36*
G01*
X164807180Y-107397360D02*
X164807180Y-106897360D01*
G75*
G02*
X165032180Y-106672360I225000J0D01*
G01*
X165482180Y-106672360D01*
G75*
G02*
X165707180Y-106897360I0J-225000D01*
G01*
X165707180Y-107397360D01*
G75*
G02*
X165482180Y-107622360I-225000J0D01*
G01*
X165032180Y-107622360D01*
G75*
G02*
X164807180Y-107397360I0J225000D01*
G01*
G37*
G04 #@! TD.AperFunction*
G04 #@! TA.AperFunction,SMDPad,CuDef*
G36*
G01*
X166357180Y-107397360D02*
X166357180Y-106897360D01*
G75*
G02*
X166582180Y-106672360I225000J0D01*
G01*
X167032180Y-106672360D01*
G75*
G02*
X167257180Y-106897360I0J-225000D01*
G01*
X167257180Y-107397360D01*
G75*
G02*
X167032180Y-107622360I-225000J0D01*
G01*
X166582180Y-107622360D01*
G75*
G02*
X166357180Y-107397360I0J225000D01*
G01*
G37*
G04 #@! TD.AperFunction*
G04 #@! TA.AperFunction,SMDPad,CuDef*
G36*
G01*
X147993920Y-101161260D02*
X147993920Y-100611260D01*
G75*
G02*
X148193920Y-100411260I200000J0D01*
G01*
X148593920Y-100411260D01*
G75*
G02*
X148793920Y-100611260I0J-200000D01*
G01*
X148793920Y-101161260D01*
G75*
G02*
X148593920Y-101361260I-200000J0D01*
G01*
X148193920Y-101361260D01*
G75*
G02*
X147993920Y-101161260I0J200000D01*
G01*
G37*
G04 #@! TD.AperFunction*
G04 #@! TA.AperFunction,SMDPad,CuDef*
G36*
G01*
X146343920Y-101161260D02*
X146343920Y-100611260D01*
G75*
G02*
X146543920Y-100411260I200000J0D01*
G01*
X146943920Y-100411260D01*
G75*
G02*
X147143920Y-100611260I0J-200000D01*
G01*
X147143920Y-101161260D01*
G75*
G02*
X146943920Y-101361260I-200000J0D01*
G01*
X146543920Y-101361260D01*
G75*
G02*
X146343920Y-101161260I0J200000D01*
G01*
G37*
G04 #@! TD.AperFunction*
G04 #@! TA.AperFunction,SMDPad,CuDef*
G36*
G01*
X147993920Y-99677900D02*
X147993920Y-99127900D01*
G75*
G02*
X148193920Y-98927900I200000J0D01*
G01*
X148593920Y-98927900D01*
G75*
G02*
X148793920Y-99127900I0J-200000D01*
G01*
X148793920Y-99677900D01*
G75*
G02*
X148593920Y-99877900I-200000J0D01*
G01*
X148193920Y-99877900D01*
G75*
G02*
X147993920Y-99677900I0J200000D01*
G01*
G37*
G04 #@! TD.AperFunction*
G04 #@! TA.AperFunction,SMDPad,CuDef*
G36*
G01*
X146343920Y-99677900D02*
X146343920Y-99127900D01*
G75*
G02*
X146543920Y-98927900I200000J0D01*
G01*
X146943920Y-98927900D01*
G75*
G02*
X147143920Y-99127900I0J-200000D01*
G01*
X147143920Y-99677900D01*
G75*
G02*
X146943920Y-99877900I-200000J0D01*
G01*
X146543920Y-99877900D01*
G75*
G02*
X146343920Y-99677900I0J200000D01*
G01*
G37*
G04 #@! TD.AperFunction*
G04 #@! TA.AperFunction,SMDPad,CuDef*
G36*
G01*
X134626800Y-116305920D02*
X134626800Y-116855920D01*
G75*
G02*
X134426800Y-117055920I-200000J0D01*
G01*
X134026800Y-117055920D01*
G75*
G02*
X133826800Y-116855920I0J200000D01*
G01*
X133826800Y-116305920D01*
G75*
G02*
X134026800Y-116105920I200000J0D01*
G01*
X134426800Y-116105920D01*
G75*
G02*
X134626800Y-116305920I0J-200000D01*
G01*
G37*
G04 #@! TD.AperFunction*
G04 #@! TA.AperFunction,SMDPad,CuDef*
G36*
G01*
X136276800Y-116305920D02*
X136276800Y-116855920D01*
G75*
G02*
X136076800Y-117055920I-200000J0D01*
G01*
X135676800Y-117055920D01*
G75*
G02*
X135476800Y-116855920I0J200000D01*
G01*
X135476800Y-116305920D01*
G75*
G02*
X135676800Y-116105920I200000J0D01*
G01*
X136076800Y-116105920D01*
G75*
G02*
X136276800Y-116305920I0J-200000D01*
G01*
G37*
G04 #@! TD.AperFunction*
D16*
X150110000Y-112994400D03*
X150610000Y-112994400D03*
X150610000Y-114894400D03*
X149610000Y-114894400D03*
X149110000Y-114894400D03*
D17*
X149860000Y-113944400D03*
D18*
X150360000Y-113944400D03*
X149360000Y-113944400D03*
D16*
X149110000Y-112994400D03*
X149610000Y-112994400D03*
X150110000Y-114894400D03*
X145074400Y-112994400D03*
X145574400Y-112994400D03*
X145574400Y-114894400D03*
X144574400Y-114894400D03*
X144074400Y-114894400D03*
D17*
X144824400Y-113944400D03*
D18*
X145324400Y-113944400D03*
X144324400Y-113944400D03*
D16*
X144074400Y-112994400D03*
X144574400Y-112994400D03*
X145074400Y-114894400D03*
D19*
X150960000Y-110490000D03*
X148760000Y-110490000D03*
X145930800Y-110490000D03*
X143730800Y-110490000D03*
D20*
X140952400Y-106974600D03*
X140952400Y-108874600D03*
X138752400Y-108874600D03*
X138752400Y-107924600D03*
X138752400Y-106974600D03*
D21*
X134594600Y-92333200D03*
X134594600Y-96033200D03*
X181864000Y-113000400D03*
X181864000Y-109300400D03*
D22*
X132323840Y-109204760D03*
X131053840Y-109204760D03*
X129783840Y-109204760D03*
X128513840Y-109204760D03*
X127243840Y-109204760D03*
X127243840Y-107934760D03*
X128513840Y-107934760D03*
X129783840Y-107934760D03*
X131053840Y-107934760D03*
X132323840Y-107934760D03*
D23*
X151567600Y-95859600D03*
X155467600Y-95859600D03*
X151567600Y-97129600D03*
X155467600Y-97129600D03*
X151567600Y-98399600D03*
X155467600Y-98399600D03*
X151567600Y-99669600D03*
X155467600Y-99669600D03*
X151567600Y-100939600D03*
X155467600Y-100939600D03*
D24*
X130589020Y-104231440D03*
D25*
X128049020Y-104231440D03*
G04 #@! TA.AperFunction,SMDPad,CuDef*
G36*
G01*
X139171000Y-94303400D02*
X139721000Y-94303400D01*
G75*
G02*
X139921000Y-94503400I0J-200000D01*
G01*
X139921000Y-94903400D01*
G75*
G02*
X139721000Y-95103400I-200000J0D01*
G01*
X139171000Y-95103400D01*
G75*
G02*
X138971000Y-94903400I0J200000D01*
G01*
X138971000Y-94503400D01*
G75*
G02*
X139171000Y-94303400I200000J0D01*
G01*
G37*
G04 #@! TD.AperFunction*
G04 #@! TA.AperFunction,SMDPad,CuDef*
G36*
G01*
X139171000Y-92653400D02*
X139721000Y-92653400D01*
G75*
G02*
X139921000Y-92853400I0J-200000D01*
G01*
X139921000Y-93253400D01*
G75*
G02*
X139721000Y-93453400I-200000J0D01*
G01*
X139171000Y-93453400D01*
G75*
G02*
X138971000Y-93253400I0J200000D01*
G01*
X138971000Y-92853400D01*
G75*
G02*
X139171000Y-92653400I200000J0D01*
G01*
G37*
G04 #@! TD.AperFunction*
G04 #@! TA.AperFunction,SMDPad,CuDef*
G36*
G01*
X142323000Y-83697400D02*
X142323000Y-84247400D01*
G75*
G02*
X142123000Y-84447400I-200000J0D01*
G01*
X141723000Y-84447400D01*
G75*
G02*
X141523000Y-84247400I0J200000D01*
G01*
X141523000Y-83697400D01*
G75*
G02*
X141723000Y-83497400I200000J0D01*
G01*
X142123000Y-83497400D01*
G75*
G02*
X142323000Y-83697400I0J-200000D01*
G01*
G37*
G04 #@! TD.AperFunction*
G04 #@! TA.AperFunction,SMDPad,CuDef*
G36*
G01*
X143973000Y-83697400D02*
X143973000Y-84247400D01*
G75*
G02*
X143773000Y-84447400I-200000J0D01*
G01*
X143373000Y-84447400D01*
G75*
G02*
X143173000Y-84247400I0J200000D01*
G01*
X143173000Y-83697400D01*
G75*
G02*
X143373000Y-83497400I200000J0D01*
G01*
X143773000Y-83497400D01*
G75*
G02*
X143973000Y-83697400I0J-200000D01*
G01*
G37*
G04 #@! TD.AperFunction*
G04 #@! TA.AperFunction,SMDPad,CuDef*
G36*
G01*
X143173000Y-87371600D02*
X143173000Y-86821600D01*
G75*
G02*
X143373000Y-86621600I200000J0D01*
G01*
X143773000Y-86621600D01*
G75*
G02*
X143973000Y-86821600I0J-200000D01*
G01*
X143973000Y-87371600D01*
G75*
G02*
X143773000Y-87571600I-200000J0D01*
G01*
X143373000Y-87571600D01*
G75*
G02*
X143173000Y-87371600I0J200000D01*
G01*
G37*
G04 #@! TD.AperFunction*
G04 #@! TA.AperFunction,SMDPad,CuDef*
G36*
G01*
X141523000Y-87371600D02*
X141523000Y-86821600D01*
G75*
G02*
X141723000Y-86621600I200000J0D01*
G01*
X142123000Y-86621600D01*
G75*
G02*
X142323000Y-86821600I0J-200000D01*
G01*
X142323000Y-87371600D01*
G75*
G02*
X142123000Y-87571600I-200000J0D01*
G01*
X141723000Y-87571600D01*
G75*
G02*
X141523000Y-87371600I0J200000D01*
G01*
G37*
G04 #@! TD.AperFunction*
G04 #@! TA.AperFunction,SMDPad,CuDef*
G36*
G01*
X143173000Y-88895600D02*
X143173000Y-88345600D01*
G75*
G02*
X143373000Y-88145600I200000J0D01*
G01*
X143773000Y-88145600D01*
G75*
G02*
X143973000Y-88345600I0J-200000D01*
G01*
X143973000Y-88895600D01*
G75*
G02*
X143773000Y-89095600I-200000J0D01*
G01*
X143373000Y-89095600D01*
G75*
G02*
X143173000Y-88895600I0J200000D01*
G01*
G37*
G04 #@! TD.AperFunction*
G04 #@! TA.AperFunction,SMDPad,CuDef*
G36*
G01*
X141523000Y-88895600D02*
X141523000Y-88345600D01*
G75*
G02*
X141723000Y-88145600I200000J0D01*
G01*
X142123000Y-88145600D01*
G75*
G02*
X142323000Y-88345600I0J-200000D01*
G01*
X142323000Y-88895600D01*
G75*
G02*
X142123000Y-89095600I-200000J0D01*
G01*
X141723000Y-89095600D01*
G75*
G02*
X141523000Y-88895600I0J200000D01*
G01*
G37*
G04 #@! TD.AperFunction*
G04 #@! TA.AperFunction,SMDPad,CuDef*
G36*
G01*
X143198400Y-94991600D02*
X143198400Y-94441600D01*
G75*
G02*
X143398400Y-94241600I200000J0D01*
G01*
X143798400Y-94241600D01*
G75*
G02*
X143998400Y-94441600I0J-200000D01*
G01*
X143998400Y-94991600D01*
G75*
G02*
X143798400Y-95191600I-200000J0D01*
G01*
X143398400Y-95191600D01*
G75*
G02*
X143198400Y-94991600I0J200000D01*
G01*
G37*
G04 #@! TD.AperFunction*
G04 #@! TA.AperFunction,SMDPad,CuDef*
G36*
G01*
X141548400Y-94991600D02*
X141548400Y-94441600D01*
G75*
G02*
X141748400Y-94241600I200000J0D01*
G01*
X142148400Y-94241600D01*
G75*
G02*
X142348400Y-94441600I0J-200000D01*
G01*
X142348400Y-94991600D01*
G75*
G02*
X142148400Y-95191600I-200000J0D01*
G01*
X141748400Y-95191600D01*
G75*
G02*
X141548400Y-94991600I0J200000D01*
G01*
G37*
G04 #@! TD.AperFunction*
G04 #@! TA.AperFunction,SMDPad,CuDef*
G36*
G01*
X143185200Y-93442200D02*
X143185200Y-92892200D01*
G75*
G02*
X143385200Y-92692200I200000J0D01*
G01*
X143785200Y-92692200D01*
G75*
G02*
X143985200Y-92892200I0J-200000D01*
G01*
X143985200Y-93442200D01*
G75*
G02*
X143785200Y-93642200I-200000J0D01*
G01*
X143385200Y-93642200D01*
G75*
G02*
X143185200Y-93442200I0J200000D01*
G01*
G37*
G04 #@! TD.AperFunction*
G04 #@! TA.AperFunction,SMDPad,CuDef*
G36*
G01*
X141535200Y-93442200D02*
X141535200Y-92892200D01*
G75*
G02*
X141735200Y-92692200I200000J0D01*
G01*
X142135200Y-92692200D01*
G75*
G02*
X142335200Y-92892200I0J-200000D01*
G01*
X142335200Y-93442200D01*
G75*
G02*
X142135200Y-93642200I-200000J0D01*
G01*
X141735200Y-93642200D01*
G75*
G02*
X141535200Y-93442200I0J200000D01*
G01*
G37*
G04 #@! TD.AperFunction*
G04 #@! TA.AperFunction,SMDPad,CuDef*
G36*
G01*
X194502900Y-88195700D02*
X194802900Y-88195700D01*
G75*
G02*
X194952900Y-88345700I0J-150000D01*
G01*
X194952900Y-89645700D01*
G75*
G02*
X194802900Y-89795700I-150000J0D01*
G01*
X194502900Y-89795700D01*
G75*
G02*
X194352900Y-89645700I0J150000D01*
G01*
X194352900Y-88345700D01*
G75*
G02*
X194502900Y-88195700I150000J0D01*
G01*
G37*
G04 #@! TD.AperFunction*
G04 #@! TA.AperFunction,SMDPad,CuDef*
G36*
G01*
X193232900Y-88195700D02*
X193532900Y-88195700D01*
G75*
G02*
X193682900Y-88345700I0J-150000D01*
G01*
X193682900Y-89645700D01*
G75*
G02*
X193532900Y-89795700I-150000J0D01*
G01*
X193232900Y-89795700D01*
G75*
G02*
X193082900Y-89645700I0J150000D01*
G01*
X193082900Y-88345700D01*
G75*
G02*
X193232900Y-88195700I150000J0D01*
G01*
G37*
G04 #@! TD.AperFunction*
G04 #@! TA.AperFunction,SMDPad,CuDef*
G36*
G01*
X191962900Y-88195700D02*
X192262900Y-88195700D01*
G75*
G02*
X192412900Y-88345700I0J-150000D01*
G01*
X192412900Y-89645700D01*
G75*
G02*
X192262900Y-89795700I-150000J0D01*
G01*
X191962900Y-89795700D01*
G75*
G02*
X191812900Y-89645700I0J150000D01*
G01*
X191812900Y-88345700D01*
G75*
G02*
X191962900Y-88195700I150000J0D01*
G01*
G37*
G04 #@! TD.AperFunction*
G04 #@! TA.AperFunction,SMDPad,CuDef*
G36*
G01*
X190692900Y-88195700D02*
X190992900Y-88195700D01*
G75*
G02*
X191142900Y-88345700I0J-150000D01*
G01*
X191142900Y-89645700D01*
G75*
G02*
X190992900Y-89795700I-150000J0D01*
G01*
X190692900Y-89795700D01*
G75*
G02*
X190542900Y-89645700I0J150000D01*
G01*
X190542900Y-88345700D01*
G75*
G02*
X190692900Y-88195700I150000J0D01*
G01*
G37*
G04 #@! TD.AperFunction*
G04 #@! TA.AperFunction,SMDPad,CuDef*
G36*
G01*
X190692900Y-95395700D02*
X190992900Y-95395700D01*
G75*
G02*
X191142900Y-95545700I0J-150000D01*
G01*
X191142900Y-96845700D01*
G75*
G02*
X190992900Y-96995700I-150000J0D01*
G01*
X190692900Y-96995700D01*
G75*
G02*
X190542900Y-96845700I0J150000D01*
G01*
X190542900Y-95545700D01*
G75*
G02*
X190692900Y-95395700I150000J0D01*
G01*
G37*
G04 #@! TD.AperFunction*
G04 #@! TA.AperFunction,SMDPad,CuDef*
G36*
G01*
X191962900Y-95395700D02*
X192262900Y-95395700D01*
G75*
G02*
X192412900Y-95545700I0J-150000D01*
G01*
X192412900Y-96845700D01*
G75*
G02*
X192262900Y-96995700I-150000J0D01*
G01*
X191962900Y-96995700D01*
G75*
G02*
X191812900Y-96845700I0J150000D01*
G01*
X191812900Y-95545700D01*
G75*
G02*
X191962900Y-95395700I150000J0D01*
G01*
G37*
G04 #@! TD.AperFunction*
G04 #@! TA.AperFunction,SMDPad,CuDef*
G36*
G01*
X193232900Y-95395700D02*
X193532900Y-95395700D01*
G75*
G02*
X193682900Y-95545700I0J-150000D01*
G01*
X193682900Y-96845700D01*
G75*
G02*
X193532900Y-96995700I-150000J0D01*
G01*
X193232900Y-96995700D01*
G75*
G02*
X193082900Y-96845700I0J150000D01*
G01*
X193082900Y-95545700D01*
G75*
G02*
X193232900Y-95395700I150000J0D01*
G01*
G37*
G04 #@! TD.AperFunction*
G04 #@! TA.AperFunction,SMDPad,CuDef*
G36*
G01*
X194502900Y-95395700D02*
X194802900Y-95395700D01*
G75*
G02*
X194952900Y-95545700I0J-150000D01*
G01*
X194952900Y-96845700D01*
G75*
G02*
X194802900Y-96995700I-150000J0D01*
G01*
X194502900Y-96995700D01*
G75*
G02*
X194352900Y-96845700I0J150000D01*
G01*
X194352900Y-95545700D01*
G75*
G02*
X194502900Y-95395700I150000J0D01*
G01*
G37*
G04 #@! TD.AperFunction*
G04 #@! TA.AperFunction,SMDPad,CuDef*
G36*
G01*
X181860380Y-103113120D02*
X182360380Y-103113120D01*
G75*
G02*
X182585380Y-103338120I0J-225000D01*
G01*
X182585380Y-103788120D01*
G75*
G02*
X182360380Y-104013120I-225000J0D01*
G01*
X181860380Y-104013120D01*
G75*
G02*
X181635380Y-103788120I0J225000D01*
G01*
X181635380Y-103338120D01*
G75*
G02*
X181860380Y-103113120I225000J0D01*
G01*
G37*
G04 #@! TD.AperFunction*
G04 #@! TA.AperFunction,SMDPad,CuDef*
G36*
G01*
X181860380Y-104663120D02*
X182360380Y-104663120D01*
G75*
G02*
X182585380Y-104888120I0J-225000D01*
G01*
X182585380Y-105338120D01*
G75*
G02*
X182360380Y-105563120I-225000J0D01*
G01*
X181860380Y-105563120D01*
G75*
G02*
X181635380Y-105338120I0J225000D01*
G01*
X181635380Y-104888120D01*
G75*
G02*
X181860380Y-104663120I225000J0D01*
G01*
G37*
G04 #@! TD.AperFunction*
G04 #@! TA.AperFunction,SMDPad,CuDef*
G36*
G01*
X180175980Y-78334320D02*
X179675980Y-78334320D01*
G75*
G02*
X179450980Y-78109320I0J225000D01*
G01*
X179450980Y-77659320D01*
G75*
G02*
X179675980Y-77434320I225000J0D01*
G01*
X180175980Y-77434320D01*
G75*
G02*
X180400980Y-77659320I0J-225000D01*
G01*
X180400980Y-78109320D01*
G75*
G02*
X180175980Y-78334320I-225000J0D01*
G01*
G37*
G04 #@! TD.AperFunction*
G04 #@! TA.AperFunction,SMDPad,CuDef*
G36*
G01*
X180175980Y-76784320D02*
X179675980Y-76784320D01*
G75*
G02*
X179450980Y-76559320I0J225000D01*
G01*
X179450980Y-76109320D01*
G75*
G02*
X179675980Y-75884320I225000J0D01*
G01*
X180175980Y-75884320D01*
G75*
G02*
X180400980Y-76109320I0J-225000D01*
G01*
X180400980Y-76559320D01*
G75*
G02*
X180175980Y-76784320I-225000J0D01*
G01*
G37*
G04 #@! TD.AperFunction*
G04 #@! TA.AperFunction,SMDPad,CuDef*
G36*
G01*
X174664180Y-78359720D02*
X174164180Y-78359720D01*
G75*
G02*
X173939180Y-78134720I0J225000D01*
G01*
X173939180Y-77684720D01*
G75*
G02*
X174164180Y-77459720I225000J0D01*
G01*
X174664180Y-77459720D01*
G75*
G02*
X174889180Y-77684720I0J-225000D01*
G01*
X174889180Y-78134720D01*
G75*
G02*
X174664180Y-78359720I-225000J0D01*
G01*
G37*
G04 #@! TD.AperFunction*
G04 #@! TA.AperFunction,SMDPad,CuDef*
G36*
G01*
X174664180Y-76809720D02*
X174164180Y-76809720D01*
G75*
G02*
X173939180Y-76584720I0J225000D01*
G01*
X173939180Y-76134720D01*
G75*
G02*
X174164180Y-75909720I225000J0D01*
G01*
X174664180Y-75909720D01*
G75*
G02*
X174889180Y-76134720I0J-225000D01*
G01*
X174889180Y-76584720D01*
G75*
G02*
X174664180Y-76809720I-225000J0D01*
G01*
G37*
G04 #@! TD.AperFunction*
G04 #@! TA.AperFunction,SMDPad,CuDef*
G36*
G01*
X188962580Y-87417720D02*
X188962580Y-86917720D01*
G75*
G02*
X189187580Y-86692720I225000J0D01*
G01*
X189637580Y-86692720D01*
G75*
G02*
X189862580Y-86917720I0J-225000D01*
G01*
X189862580Y-87417720D01*
G75*
G02*
X189637580Y-87642720I-225000J0D01*
G01*
X189187580Y-87642720D01*
G75*
G02*
X188962580Y-87417720I0J225000D01*
G01*
G37*
G04 #@! TD.AperFunction*
G04 #@! TA.AperFunction,SMDPad,CuDef*
G36*
G01*
X190512580Y-87417720D02*
X190512580Y-86917720D01*
G75*
G02*
X190737580Y-86692720I225000J0D01*
G01*
X191187580Y-86692720D01*
G75*
G02*
X191412580Y-86917720I0J-225000D01*
G01*
X191412580Y-87417720D01*
G75*
G02*
X191187580Y-87642720I-225000J0D01*
G01*
X190737580Y-87642720D01*
G75*
G02*
X190512580Y-87417720I0J225000D01*
G01*
G37*
G04 #@! TD.AperFunction*
G04 #@! TA.AperFunction,SMDPad,CuDef*
G36*
G01*
X164310780Y-87959120D02*
X164310780Y-88459120D01*
G75*
G02*
X164085780Y-88684120I-225000J0D01*
G01*
X163635780Y-88684120D01*
G75*
G02*
X163410780Y-88459120I0J225000D01*
G01*
X163410780Y-87959120D01*
G75*
G02*
X163635780Y-87734120I225000J0D01*
G01*
X164085780Y-87734120D01*
G75*
G02*
X164310780Y-87959120I0J-225000D01*
G01*
G37*
G04 #@! TD.AperFunction*
G04 #@! TA.AperFunction,SMDPad,CuDef*
G36*
G01*
X162760780Y-87959120D02*
X162760780Y-88459120D01*
G75*
G02*
X162535780Y-88684120I-225000J0D01*
G01*
X162085780Y-88684120D01*
G75*
G02*
X161860780Y-88459120I0J225000D01*
G01*
X161860780Y-87959120D01*
G75*
G02*
X162085780Y-87734120I225000J0D01*
G01*
X162535780Y-87734120D01*
G75*
G02*
X162760780Y-87959120I0J-225000D01*
G01*
G37*
G04 #@! TD.AperFunction*
G04 #@! TA.AperFunction,SMDPad,CuDef*
G36*
G01*
X188878400Y-91739000D02*
X189378400Y-91739000D01*
G75*
G02*
X189603400Y-91964000I0J-225000D01*
G01*
X189603400Y-92414000D01*
G75*
G02*
X189378400Y-92639000I-225000J0D01*
G01*
X188878400Y-92639000D01*
G75*
G02*
X188653400Y-92414000I0J225000D01*
G01*
X188653400Y-91964000D01*
G75*
G02*
X188878400Y-91739000I225000J0D01*
G01*
G37*
G04 #@! TD.AperFunction*
G04 #@! TA.AperFunction,SMDPad,CuDef*
G36*
G01*
X188878400Y-93289000D02*
X189378400Y-93289000D01*
G75*
G02*
X189603400Y-93514000I0J-225000D01*
G01*
X189603400Y-93964000D01*
G75*
G02*
X189378400Y-94189000I-225000J0D01*
G01*
X188878400Y-94189000D01*
G75*
G02*
X188653400Y-93964000I0J225000D01*
G01*
X188653400Y-93514000D01*
G75*
G02*
X188878400Y-93289000I225000J0D01*
G01*
G37*
G04 #@! TD.AperFunction*
G04 #@! TA.AperFunction,SMDPad,CuDef*
G36*
G01*
X164323180Y-92962920D02*
X164323180Y-93462920D01*
G75*
G02*
X164098180Y-93687920I-225000J0D01*
G01*
X163648180Y-93687920D01*
G75*
G02*
X163423180Y-93462920I0J225000D01*
G01*
X163423180Y-92962920D01*
G75*
G02*
X163648180Y-92737920I225000J0D01*
G01*
X164098180Y-92737920D01*
G75*
G02*
X164323180Y-92962920I0J-225000D01*
G01*
G37*
G04 #@! TD.AperFunction*
G04 #@! TA.AperFunction,SMDPad,CuDef*
G36*
G01*
X162773180Y-92962920D02*
X162773180Y-93462920D01*
G75*
G02*
X162548180Y-93687920I-225000J0D01*
G01*
X162098180Y-93687920D01*
G75*
G02*
X161873180Y-93462920I0J225000D01*
G01*
X161873180Y-92962920D01*
G75*
G02*
X162098180Y-92737920I225000J0D01*
G01*
X162548180Y-92737920D01*
G75*
G02*
X162773180Y-92962920I0J-225000D01*
G01*
G37*
G04 #@! TD.AperFunction*
G04 #@! TA.AperFunction,SMDPad,CuDef*
G36*
G01*
X160877800Y-97384280D02*
X160877800Y-96834280D01*
G75*
G02*
X161077800Y-96634280I200000J0D01*
G01*
X161477800Y-96634280D01*
G75*
G02*
X161677800Y-96834280I0J-200000D01*
G01*
X161677800Y-97384280D01*
G75*
G02*
X161477800Y-97584280I-200000J0D01*
G01*
X161077800Y-97584280D01*
G75*
G02*
X160877800Y-97384280I0J200000D01*
G01*
G37*
G04 #@! TD.AperFunction*
G04 #@! TA.AperFunction,SMDPad,CuDef*
G36*
G01*
X162527800Y-97384280D02*
X162527800Y-96834280D01*
G75*
G02*
X162727800Y-96634280I200000J0D01*
G01*
X163127800Y-96634280D01*
G75*
G02*
X163327800Y-96834280I0J-200000D01*
G01*
X163327800Y-97384280D01*
G75*
G02*
X163127800Y-97584280I-200000J0D01*
G01*
X162727800Y-97584280D01*
G75*
G02*
X162527800Y-97384280I0J200000D01*
G01*
G37*
G04 #@! TD.AperFunction*
D24*
X202577700Y-113995200D03*
D25*
X202577700Y-111455200D03*
G04 #@! TA.AperFunction,SMDPad,CuDef*
G36*
G01*
X202366200Y-105936600D02*
X202916200Y-105936600D01*
G75*
G02*
X203116200Y-106136600I0J-200000D01*
G01*
X203116200Y-106536600D01*
G75*
G02*
X202916200Y-106736600I-200000J0D01*
G01*
X202366200Y-106736600D01*
G75*
G02*
X202166200Y-106536600I0J200000D01*
G01*
X202166200Y-106136600D01*
G75*
G02*
X202366200Y-105936600I200000J0D01*
G01*
G37*
G04 #@! TD.AperFunction*
G04 #@! TA.AperFunction,SMDPad,CuDef*
G36*
G01*
X202366200Y-104286600D02*
X202916200Y-104286600D01*
G75*
G02*
X203116200Y-104486600I0J-200000D01*
G01*
X203116200Y-104886600D01*
G75*
G02*
X202916200Y-105086600I-200000J0D01*
G01*
X202366200Y-105086600D01*
G75*
G02*
X202166200Y-104886600I0J200000D01*
G01*
X202166200Y-104486600D01*
G75*
G02*
X202366200Y-104286600I200000J0D01*
G01*
G37*
G04 #@! TD.AperFunction*
G04 #@! TA.AperFunction,SMDPad,CuDef*
G36*
G01*
X202384950Y-102813600D02*
X202897450Y-102813600D01*
G75*
G02*
X203116200Y-103032350I0J-218750D01*
G01*
X203116200Y-103469850D01*
G75*
G02*
X202897450Y-103688600I-218750J0D01*
G01*
X202384950Y-103688600D01*
G75*
G02*
X202166200Y-103469850I0J218750D01*
G01*
X202166200Y-103032350D01*
G75*
G02*
X202384950Y-102813600I218750J0D01*
G01*
G37*
G04 #@! TD.AperFunction*
G04 #@! TA.AperFunction,SMDPad,CuDef*
G36*
G01*
X202384950Y-101238600D02*
X202897450Y-101238600D01*
G75*
G02*
X203116200Y-101457350I0J-218750D01*
G01*
X203116200Y-101894850D01*
G75*
G02*
X202897450Y-102113600I-218750J0D01*
G01*
X202384950Y-102113600D01*
G75*
G02*
X202166200Y-101894850I0J218750D01*
G01*
X202166200Y-101457350D01*
G75*
G02*
X202384950Y-101238600I218750J0D01*
G01*
G37*
G04 #@! TD.AperFunction*
D20*
X140952400Y-110632200D03*
X140952400Y-112532200D03*
X138752400Y-112532200D03*
X138752400Y-111582200D03*
X138752400Y-110632200D03*
G04 #@! TA.AperFunction,SMDPad,CuDef*
G36*
G01*
X136279700Y-113162200D02*
X135779700Y-113162200D01*
G75*
G02*
X135554700Y-112937200I0J225000D01*
G01*
X135554700Y-112487200D01*
G75*
G02*
X135779700Y-112262200I225000J0D01*
G01*
X136279700Y-112262200D01*
G75*
G02*
X136504700Y-112487200I0J-225000D01*
G01*
X136504700Y-112937200D01*
G75*
G02*
X136279700Y-113162200I-225000J0D01*
G01*
G37*
G04 #@! TD.AperFunction*
G04 #@! TA.AperFunction,SMDPad,CuDef*
G36*
G01*
X136279700Y-114712200D02*
X135779700Y-114712200D01*
G75*
G02*
X135554700Y-114487200I0J225000D01*
G01*
X135554700Y-114037200D01*
G75*
G02*
X135779700Y-113812200I225000J0D01*
G01*
X136279700Y-113812200D01*
G75*
G02*
X136504700Y-114037200I0J-225000D01*
G01*
X136504700Y-114487200D01*
G75*
G02*
X136279700Y-114712200I-225000J0D01*
G01*
G37*
G04 #@! TD.AperFunction*
G04 #@! TA.AperFunction,SMDPad,CuDef*
G36*
G01*
X115212150Y-70860400D02*
X115724650Y-70860400D01*
G75*
G02*
X115943400Y-71079150I0J-218750D01*
G01*
X115943400Y-71516650D01*
G75*
G02*
X115724650Y-71735400I-218750J0D01*
G01*
X115212150Y-71735400D01*
G75*
G02*
X114993400Y-71516650I0J218750D01*
G01*
X114993400Y-71079150D01*
G75*
G02*
X115212150Y-70860400I218750J0D01*
G01*
G37*
G04 #@! TD.AperFunction*
G04 #@! TA.AperFunction,SMDPad,CuDef*
G36*
G01*
X115212150Y-69285400D02*
X115724650Y-69285400D01*
G75*
G02*
X115943400Y-69504150I0J-218750D01*
G01*
X115943400Y-69941650D01*
G75*
G02*
X115724650Y-70160400I-218750J0D01*
G01*
X115212150Y-70160400D01*
G75*
G02*
X114993400Y-69941650I0J218750D01*
G01*
X114993400Y-69504150D01*
G75*
G02*
X115212150Y-69285400I218750J0D01*
G01*
G37*
G04 #@! TD.AperFunction*
G04 #@! TA.AperFunction,SMDPad,CuDef*
G36*
G01*
X116971400Y-112794600D02*
X117521400Y-112794600D01*
G75*
G02*
X117721400Y-112994600I0J-200000D01*
G01*
X117721400Y-113394600D01*
G75*
G02*
X117521400Y-113594600I-200000J0D01*
G01*
X116971400Y-113594600D01*
G75*
G02*
X116771400Y-113394600I0J200000D01*
G01*
X116771400Y-112994600D01*
G75*
G02*
X116971400Y-112794600I200000J0D01*
G01*
G37*
G04 #@! TD.AperFunction*
G04 #@! TA.AperFunction,SMDPad,CuDef*
G36*
G01*
X116971400Y-111144600D02*
X117521400Y-111144600D01*
G75*
G02*
X117721400Y-111344600I0J-200000D01*
G01*
X117721400Y-111744600D01*
G75*
G02*
X117521400Y-111944600I-200000J0D01*
G01*
X116971400Y-111944600D01*
G75*
G02*
X116771400Y-111744600I0J200000D01*
G01*
X116771400Y-111344600D01*
G75*
G02*
X116971400Y-111144600I200000J0D01*
G01*
G37*
G04 #@! TD.AperFunction*
G04 #@! TA.AperFunction,SMDPad,CuDef*
G36*
G01*
X115472800Y-112794600D02*
X116022800Y-112794600D01*
G75*
G02*
X116222800Y-112994600I0J-200000D01*
G01*
X116222800Y-113394600D01*
G75*
G02*
X116022800Y-113594600I-200000J0D01*
G01*
X115472800Y-113594600D01*
G75*
G02*
X115272800Y-113394600I0J200000D01*
G01*
X115272800Y-112994600D01*
G75*
G02*
X115472800Y-112794600I200000J0D01*
G01*
G37*
G04 #@! TD.AperFunction*
G04 #@! TA.AperFunction,SMDPad,CuDef*
G36*
G01*
X115472800Y-111144600D02*
X116022800Y-111144600D01*
G75*
G02*
X116222800Y-111344600I0J-200000D01*
G01*
X116222800Y-111744600D01*
G75*
G02*
X116022800Y-111944600I-200000J0D01*
G01*
X115472800Y-111944600D01*
G75*
G02*
X115272800Y-111744600I0J200000D01*
G01*
X115272800Y-111344600D01*
G75*
G02*
X115472800Y-111144600I200000J0D01*
G01*
G37*
G04 #@! TD.AperFunction*
D26*
X111974400Y-111516200D03*
D27*
X113884400Y-112896200D03*
X113884400Y-113396200D03*
X113884400Y-113896200D03*
X113884400Y-114396200D03*
X113884400Y-114896200D03*
X113884400Y-115396200D03*
X113884400Y-115896200D03*
X113884400Y-118396200D03*
X113884400Y-117396200D03*
X113884400Y-116896200D03*
X113884400Y-116396200D03*
X113884400Y-117896200D03*
X112184400Y-118146200D03*
D26*
X111974400Y-119776200D03*
X106024400Y-120136200D03*
X106024400Y-111156200D03*
D27*
X112184400Y-117646200D03*
X112184400Y-117146200D03*
X112184400Y-116646200D03*
X112184400Y-116146200D03*
X112184400Y-115646200D03*
X112184400Y-115146200D03*
X112184400Y-114646200D03*
X112184400Y-114146200D03*
X112184400Y-113646200D03*
X112184400Y-113146200D03*
X112184400Y-112646200D03*
D28*
X122539000Y-112471200D03*
X120539000Y-113421200D03*
X120539000Y-111521200D03*
D29*
X114220400Y-72522800D03*
X114220400Y-76712800D03*
D30*
X109790400Y-69401800D03*
D31*
X112975400Y-69401800D03*
X113545400Y-80051800D03*
D32*
X110935400Y-80051800D03*
D33*
X109665400Y-80036800D03*
D34*
X106985400Y-70576800D03*
X106985400Y-71676800D03*
X106985400Y-72776800D03*
X106985400Y-73876800D03*
X106985400Y-74976800D03*
X106985400Y-76076800D03*
X106985400Y-77176800D03*
X106985400Y-78276800D03*
G04 #@! TA.AperFunction,SMDPad,CuDef*
G36*
G01*
X109138600Y-81733200D02*
X109138600Y-81233200D01*
G75*
G02*
X109363600Y-81008200I225000J0D01*
G01*
X109813600Y-81008200D01*
G75*
G02*
X110038600Y-81233200I0J-225000D01*
G01*
X110038600Y-81733200D01*
G75*
G02*
X109813600Y-81958200I-225000J0D01*
G01*
X109363600Y-81958200D01*
G75*
G02*
X109138600Y-81733200I0J225000D01*
G01*
G37*
G04 #@! TD.AperFunction*
G04 #@! TA.AperFunction,SMDPad,CuDef*
G36*
G01*
X107588600Y-81733200D02*
X107588600Y-81233200D01*
G75*
G02*
X107813600Y-81008200I225000J0D01*
G01*
X108263600Y-81008200D01*
G75*
G02*
X108488600Y-81233200I0J-225000D01*
G01*
X108488600Y-81733200D01*
G75*
G02*
X108263600Y-81958200I-225000J0D01*
G01*
X107813600Y-81958200D01*
G75*
G02*
X107588600Y-81733200I0J225000D01*
G01*
G37*
G04 #@! TD.AperFunction*
D35*
X105708600Y-106960000D03*
D36*
X105708600Y-104260000D03*
D37*
X105708600Y-108785000D03*
X105708600Y-102035000D03*
D38*
X108283600Y-107897500D03*
X108283600Y-102922500D03*
D39*
X108368600Y-106710000D03*
X108368600Y-106060000D03*
X108368600Y-105410000D03*
X108368600Y-104760000D03*
X108368600Y-104110000D03*
G04 #@! TA.AperFunction,SMDPad,CuDef*
G36*
G01*
X142323000Y-85272200D02*
X142323000Y-85822200D01*
G75*
G02*
X142123000Y-86022200I-200000J0D01*
G01*
X141723000Y-86022200D01*
G75*
G02*
X141523000Y-85822200I0J200000D01*
G01*
X141523000Y-85272200D01*
G75*
G02*
X141723000Y-85072200I200000J0D01*
G01*
X142123000Y-85072200D01*
G75*
G02*
X142323000Y-85272200I0J-200000D01*
G01*
G37*
G04 #@! TD.AperFunction*
G04 #@! TA.AperFunction,SMDPad,CuDef*
G36*
G01*
X143973000Y-85272200D02*
X143973000Y-85822200D01*
G75*
G02*
X143773000Y-86022200I-200000J0D01*
G01*
X143373000Y-86022200D01*
G75*
G02*
X143173000Y-85822200I0J200000D01*
G01*
X143173000Y-85272200D01*
G75*
G02*
X143373000Y-85072200I200000J0D01*
G01*
X143773000Y-85072200D01*
G75*
G02*
X143973000Y-85272200I0J-200000D01*
G01*
G37*
G04 #@! TD.AperFunction*
D40*
X168762680Y-107127360D03*
X168762680Y-104627360D03*
D41*
X128148400Y-116483600D03*
D42*
X126898400Y-118973600D03*
X122398400Y-118973600D03*
D41*
X121138400Y-116483600D03*
G04 #@! TA.AperFunction,SMDPad,CuDef*
G36*
G01*
X115193400Y-76371000D02*
X115743400Y-76371000D01*
G75*
G02*
X115943400Y-76571000I0J-200000D01*
G01*
X115943400Y-76971000D01*
G75*
G02*
X115743400Y-77171000I-200000J0D01*
G01*
X115193400Y-77171000D01*
G75*
G02*
X114993400Y-76971000I0J200000D01*
G01*
X114993400Y-76571000D01*
G75*
G02*
X115193400Y-76371000I200000J0D01*
G01*
G37*
G04 #@! TD.AperFunction*
G04 #@! TA.AperFunction,SMDPad,CuDef*
G36*
G01*
X115193400Y-74721000D02*
X115743400Y-74721000D01*
G75*
G02*
X115943400Y-74921000I0J-200000D01*
G01*
X115943400Y-75321000D01*
G75*
G02*
X115743400Y-75521000I-200000J0D01*
G01*
X115193400Y-75521000D01*
G75*
G02*
X114993400Y-75321000I0J200000D01*
G01*
X114993400Y-74921000D01*
G75*
G02*
X115193400Y-74721000I200000J0D01*
G01*
G37*
G04 #@! TD.AperFunction*
X119916400Y-82561100D03*
X118516400Y-98871100D03*
D43*
X125246400Y-85636100D03*
X127786400Y-86652100D03*
X125246400Y-87668100D03*
X127786400Y-88684100D03*
X125246400Y-89700100D03*
D44*
X111276400Y-97741100D03*
X108736400Y-97741100D03*
X111276400Y-83691100D03*
X108736400Y-83691100D03*
D43*
X127786400Y-84620100D03*
G04 #@! TA.AperFunction,SMDPad,CuDef*
G36*
G01*
X130740600Y-81792400D02*
X130740600Y-82342400D01*
G75*
G02*
X130540600Y-82542400I-200000J0D01*
G01*
X130140600Y-82542400D01*
G75*
G02*
X129940600Y-82342400I0J200000D01*
G01*
X129940600Y-81792400D01*
G75*
G02*
X130140600Y-81592400I200000J0D01*
G01*
X130540600Y-81592400D01*
G75*
G02*
X130740600Y-81792400I0J-200000D01*
G01*
G37*
G04 #@! TD.AperFunction*
G04 #@! TA.AperFunction,SMDPad,CuDef*
G36*
G01*
X132390600Y-81792400D02*
X132390600Y-82342400D01*
G75*
G02*
X132190600Y-82542400I-200000J0D01*
G01*
X131790600Y-82542400D01*
G75*
G02*
X131590600Y-82342400I0J200000D01*
G01*
X131590600Y-81792400D01*
G75*
G02*
X131790600Y-81592400I200000J0D01*
G01*
X132190600Y-81592400D01*
G75*
G02*
X132390600Y-81792400I0J-200000D01*
G01*
G37*
G04 #@! TD.AperFunction*
G04 #@! TA.AperFunction,SMDPad,CuDef*
G36*
G01*
X130740600Y-80293800D02*
X130740600Y-80843800D01*
G75*
G02*
X130540600Y-81043800I-200000J0D01*
G01*
X130140600Y-81043800D01*
G75*
G02*
X129940600Y-80843800I0J200000D01*
G01*
X129940600Y-80293800D01*
G75*
G02*
X130140600Y-80093800I200000J0D01*
G01*
X130540600Y-80093800D01*
G75*
G02*
X130740600Y-80293800I0J-200000D01*
G01*
G37*
G04 #@! TD.AperFunction*
G04 #@! TA.AperFunction,SMDPad,CuDef*
G36*
G01*
X132390600Y-80293800D02*
X132390600Y-80843800D01*
G75*
G02*
X132190600Y-81043800I-200000J0D01*
G01*
X131790600Y-81043800D01*
G75*
G02*
X131590600Y-80843800I0J200000D01*
G01*
X131590600Y-80293800D01*
G75*
G02*
X131790600Y-80093800I200000J0D01*
G01*
X132190600Y-80093800D01*
G75*
G02*
X132390600Y-80293800I0J-200000D01*
G01*
G37*
G04 #@! TD.AperFunction*
G04 #@! TA.AperFunction,SMDPad,CuDef*
G36*
G01*
X137621600Y-94303400D02*
X138171600Y-94303400D01*
G75*
G02*
X138371600Y-94503400I0J-200000D01*
G01*
X138371600Y-94903400D01*
G75*
G02*
X138171600Y-95103400I-200000J0D01*
G01*
X137621600Y-95103400D01*
G75*
G02*
X137421600Y-94903400I0J200000D01*
G01*
X137421600Y-94503400D01*
G75*
G02*
X137621600Y-94303400I200000J0D01*
G01*
G37*
G04 #@! TD.AperFunction*
G04 #@! TA.AperFunction,SMDPad,CuDef*
G36*
G01*
X137621600Y-92653400D02*
X138171600Y-92653400D01*
G75*
G02*
X138371600Y-92853400I0J-200000D01*
G01*
X138371600Y-93253400D01*
G75*
G02*
X138171600Y-93453400I-200000J0D01*
G01*
X137621600Y-93453400D01*
G75*
G02*
X137421600Y-93253400I0J200000D01*
G01*
X137421600Y-92853400D01*
G75*
G02*
X137621600Y-92653400I200000J0D01*
G01*
G37*
G04 #@! TD.AperFunction*
G04 #@! TA.AperFunction,SMDPad,CuDef*
G36*
G01*
X134512800Y-82704650D02*
X134512800Y-82192150D01*
G75*
G02*
X134731550Y-81973400I218750J0D01*
G01*
X135169050Y-81973400D01*
G75*
G02*
X135387800Y-82192150I0J-218750D01*
G01*
X135387800Y-82704650D01*
G75*
G02*
X135169050Y-82923400I-218750J0D01*
G01*
X134731550Y-82923400D01*
G75*
G02*
X134512800Y-82704650I0J218750D01*
G01*
G37*
G04 #@! TD.AperFunction*
G04 #@! TA.AperFunction,SMDPad,CuDef*
G36*
G01*
X132937800Y-82704650D02*
X132937800Y-82192150D01*
G75*
G02*
X133156550Y-81973400I218750J0D01*
G01*
X133594050Y-81973400D01*
G75*
G02*
X133812800Y-82192150I0J-218750D01*
G01*
X133812800Y-82704650D01*
G75*
G02*
X133594050Y-82923400I-218750J0D01*
G01*
X133156550Y-82923400D01*
G75*
G02*
X132937800Y-82704650I0J218750D01*
G01*
G37*
G04 #@! TD.AperFunction*
G04 #@! TA.AperFunction,SMDPad,CuDef*
G36*
G01*
X131554100Y-88959500D02*
X131554100Y-88459500D01*
G75*
G02*
X131779100Y-88234500I225000J0D01*
G01*
X132229100Y-88234500D01*
G75*
G02*
X132454100Y-88459500I0J-225000D01*
G01*
X132454100Y-88959500D01*
G75*
G02*
X132229100Y-89184500I-225000J0D01*
G01*
X131779100Y-89184500D01*
G75*
G02*
X131554100Y-88959500I0J225000D01*
G01*
G37*
G04 #@! TD.AperFunction*
G04 #@! TA.AperFunction,SMDPad,CuDef*
G36*
G01*
X130004100Y-88959500D02*
X130004100Y-88459500D01*
G75*
G02*
X130229100Y-88234500I225000J0D01*
G01*
X130679100Y-88234500D01*
G75*
G02*
X130904100Y-88459500I0J-225000D01*
G01*
X130904100Y-88959500D01*
G75*
G02*
X130679100Y-89184500I-225000J0D01*
G01*
X130229100Y-89184500D01*
G75*
G02*
X130004100Y-88959500I0J225000D01*
G01*
G37*
G04 #@! TD.AperFunction*
G04 #@! TA.AperFunction,SMDPad,CuDef*
G36*
G01*
X130904100Y-89983500D02*
X130904100Y-90483500D01*
G75*
G02*
X130679100Y-90708500I-225000J0D01*
G01*
X130229100Y-90708500D01*
G75*
G02*
X130004100Y-90483500I0J225000D01*
G01*
X130004100Y-89983500D01*
G75*
G02*
X130229100Y-89758500I225000J0D01*
G01*
X130679100Y-89758500D01*
G75*
G02*
X130904100Y-89983500I0J-225000D01*
G01*
G37*
G04 #@! TD.AperFunction*
G04 #@! TA.AperFunction,SMDPad,CuDef*
G36*
G01*
X132454100Y-89983500D02*
X132454100Y-90483500D01*
G75*
G02*
X132229100Y-90708500I-225000J0D01*
G01*
X131779100Y-90708500D01*
G75*
G02*
X131554100Y-90483500I0J225000D01*
G01*
X131554100Y-89983500D01*
G75*
G02*
X131779100Y-89758500I225000J0D01*
G01*
X132229100Y-89758500D01*
G75*
G02*
X132454100Y-89983500I0J-225000D01*
G01*
G37*
G04 #@! TD.AperFunction*
G04 #@! TA.AperFunction,SMDPad,CuDef*
G36*
G01*
X134616000Y-84384000D02*
X134116000Y-84384000D01*
G75*
G02*
X133891000Y-84159000I0J225000D01*
G01*
X133891000Y-83709000D01*
G75*
G02*
X134116000Y-83484000I225000J0D01*
G01*
X134616000Y-83484000D01*
G75*
G02*
X134841000Y-83709000I0J-225000D01*
G01*
X134841000Y-84159000D01*
G75*
G02*
X134616000Y-84384000I-225000J0D01*
G01*
G37*
G04 #@! TD.AperFunction*
G04 #@! TA.AperFunction,SMDPad,CuDef*
G36*
G01*
X134616000Y-85934000D02*
X134116000Y-85934000D01*
G75*
G02*
X133891000Y-85709000I0J225000D01*
G01*
X133891000Y-85259000D01*
G75*
G02*
X134116000Y-85034000I225000J0D01*
G01*
X134616000Y-85034000D01*
G75*
G02*
X134841000Y-85259000I0J-225000D01*
G01*
X134841000Y-85709000D01*
G75*
G02*
X134616000Y-85934000I-225000J0D01*
G01*
G37*
G04 #@! TD.AperFunction*
G04 #@! TA.AperFunction,SMDPad,CuDef*
G36*
G01*
X133066600Y-84384000D02*
X132566600Y-84384000D01*
G75*
G02*
X132341600Y-84159000I0J225000D01*
G01*
X132341600Y-83709000D01*
G75*
G02*
X132566600Y-83484000I225000J0D01*
G01*
X133066600Y-83484000D01*
G75*
G02*
X133291600Y-83709000I0J-225000D01*
G01*
X133291600Y-84159000D01*
G75*
G02*
X133066600Y-84384000I-225000J0D01*
G01*
G37*
G04 #@! TD.AperFunction*
G04 #@! TA.AperFunction,SMDPad,CuDef*
G36*
G01*
X133066600Y-85934000D02*
X132566600Y-85934000D01*
G75*
G02*
X132341600Y-85709000I0J225000D01*
G01*
X132341600Y-85259000D01*
G75*
G02*
X132566600Y-85034000I225000J0D01*
G01*
X133066600Y-85034000D01*
G75*
G02*
X133291600Y-85259000I0J-225000D01*
G01*
X133291600Y-85709000D01*
G75*
G02*
X133066600Y-85934000I-225000J0D01*
G01*
G37*
G04 #@! TD.AperFunction*
G04 #@! TA.AperFunction,SMDPad,CuDef*
G36*
G01*
X136673400Y-82872700D02*
X136173400Y-82872700D01*
G75*
G02*
X135948400Y-82647700I0J225000D01*
G01*
X135948400Y-82197700D01*
G75*
G02*
X136173400Y-81972700I225000J0D01*
G01*
X136673400Y-81972700D01*
G75*
G02*
X136898400Y-82197700I0J-225000D01*
G01*
X136898400Y-82647700D01*
G75*
G02*
X136673400Y-82872700I-225000J0D01*
G01*
G37*
G04 #@! TD.AperFunction*
G04 #@! TA.AperFunction,SMDPad,CuDef*
G36*
G01*
X136673400Y-84422700D02*
X136173400Y-84422700D01*
G75*
G02*
X135948400Y-84197700I0J225000D01*
G01*
X135948400Y-83747700D01*
G75*
G02*
X136173400Y-83522700I225000J0D01*
G01*
X136673400Y-83522700D01*
G75*
G02*
X136898400Y-83747700I0J-225000D01*
G01*
X136898400Y-84197700D01*
G75*
G02*
X136673400Y-84422700I-225000J0D01*
G01*
G37*
G04 #@! TD.AperFunction*
G04 #@! TA.AperFunction,SMDPad,CuDef*
G36*
G01*
X138235500Y-82872700D02*
X137735500Y-82872700D01*
G75*
G02*
X137510500Y-82647700I0J225000D01*
G01*
X137510500Y-82197700D01*
G75*
G02*
X137735500Y-81972700I225000J0D01*
G01*
X138235500Y-81972700D01*
G75*
G02*
X138460500Y-82197700I0J-225000D01*
G01*
X138460500Y-82647700D01*
G75*
G02*
X138235500Y-82872700I-225000J0D01*
G01*
G37*
G04 #@! TD.AperFunction*
G04 #@! TA.AperFunction,SMDPad,CuDef*
G36*
G01*
X138235500Y-84422700D02*
X137735500Y-84422700D01*
G75*
G02*
X137510500Y-84197700I0J225000D01*
G01*
X137510500Y-83747700D01*
G75*
G02*
X137735500Y-83522700I225000J0D01*
G01*
X138235500Y-83522700D01*
G75*
G02*
X138460500Y-83747700I0J-225000D01*
G01*
X138460500Y-84197700D01*
G75*
G02*
X138235500Y-84422700I-225000J0D01*
G01*
G37*
G04 #@! TD.AperFunction*
G04 #@! TA.AperFunction,SMDPad,CuDef*
G36*
G01*
X143272700Y-91206200D02*
X143772700Y-91206200D01*
G75*
G02*
X143997700Y-91431200I0J-225000D01*
G01*
X143997700Y-91881200D01*
G75*
G02*
X143772700Y-92106200I-225000J0D01*
G01*
X143272700Y-92106200D01*
G75*
G02*
X143047700Y-91881200I0J225000D01*
G01*
X143047700Y-91431200D01*
G75*
G02*
X143272700Y-91206200I225000J0D01*
G01*
G37*
G04 #@! TD.AperFunction*
G04 #@! TA.AperFunction,SMDPad,CuDef*
G36*
G01*
X143272700Y-89656200D02*
X143772700Y-89656200D01*
G75*
G02*
X143997700Y-89881200I0J-225000D01*
G01*
X143997700Y-90331200D01*
G75*
G02*
X143772700Y-90556200I-225000J0D01*
G01*
X143272700Y-90556200D01*
G75*
G02*
X143047700Y-90331200I0J225000D01*
G01*
X143047700Y-89881200D01*
G75*
G02*
X143272700Y-89656200I225000J0D01*
G01*
G37*
G04 #@! TD.AperFunction*
G04 #@! TA.AperFunction,SMDPad,CuDef*
G36*
G01*
X141748700Y-91206200D02*
X142248700Y-91206200D01*
G75*
G02*
X142473700Y-91431200I0J-225000D01*
G01*
X142473700Y-91881200D01*
G75*
G02*
X142248700Y-92106200I-225000J0D01*
G01*
X141748700Y-92106200D01*
G75*
G02*
X141523700Y-91881200I0J225000D01*
G01*
X141523700Y-91431200D01*
G75*
G02*
X141748700Y-91206200I225000J0D01*
G01*
G37*
G04 #@! TD.AperFunction*
G04 #@! TA.AperFunction,SMDPad,CuDef*
G36*
G01*
X141748700Y-89656200D02*
X142248700Y-89656200D01*
G75*
G02*
X142473700Y-89881200I0J-225000D01*
G01*
X142473700Y-90331200D01*
G75*
G02*
X142248700Y-90556200I-225000J0D01*
G01*
X141748700Y-90556200D01*
G75*
G02*
X141523700Y-90331200I0J225000D01*
G01*
X141523700Y-89881200D01*
G75*
G02*
X141748700Y-89656200I225000J0D01*
G01*
G37*
G04 #@! TD.AperFunction*
G04 #@! TA.AperFunction,SMDPad,CuDef*
G36*
G01*
X131475360Y-92589160D02*
X131475360Y-92089160D01*
G75*
G02*
X131700360Y-91864160I225000J0D01*
G01*
X132150360Y-91864160D01*
G75*
G02*
X132375360Y-92089160I0J-225000D01*
G01*
X132375360Y-92589160D01*
G75*
G02*
X132150360Y-92814160I-225000J0D01*
G01*
X131700360Y-92814160D01*
G75*
G02*
X131475360Y-92589160I0J225000D01*
G01*
G37*
G04 #@! TD.AperFunction*
G04 #@! TA.AperFunction,SMDPad,CuDef*
G36*
G01*
X129925360Y-92589160D02*
X129925360Y-92089160D01*
G75*
G02*
X130150360Y-91864160I225000J0D01*
G01*
X130600360Y-91864160D01*
G75*
G02*
X130825360Y-92089160I0J-225000D01*
G01*
X130825360Y-92589160D01*
G75*
G02*
X130600360Y-92814160I-225000J0D01*
G01*
X130150360Y-92814160D01*
G75*
G02*
X129925360Y-92589160I0J225000D01*
G01*
G37*
G04 #@! TD.AperFunction*
G04 #@! TA.AperFunction,SMDPad,CuDef*
G36*
G01*
X131480440Y-96267080D02*
X131480440Y-95767080D01*
G75*
G02*
X131705440Y-95542080I225000J0D01*
G01*
X132155440Y-95542080D01*
G75*
G02*
X132380440Y-95767080I0J-225000D01*
G01*
X132380440Y-96267080D01*
G75*
G02*
X132155440Y-96492080I-225000J0D01*
G01*
X131705440Y-96492080D01*
G75*
G02*
X131480440Y-96267080I0J225000D01*
G01*
G37*
G04 #@! TD.AperFunction*
G04 #@! TA.AperFunction,SMDPad,CuDef*
G36*
G01*
X129930440Y-96267080D02*
X129930440Y-95767080D01*
G75*
G02*
X130155440Y-95542080I225000J0D01*
G01*
X130605440Y-95542080D01*
G75*
G02*
X130830440Y-95767080I0J-225000D01*
G01*
X130830440Y-96267080D01*
G75*
G02*
X130605440Y-96492080I-225000J0D01*
G01*
X130155440Y-96492080D01*
G75*
G02*
X129930440Y-96267080I0J225000D01*
G01*
G37*
G04 #@! TD.AperFunction*
G04 #@! TA.AperFunction,SMDPad,CuDef*
G36*
G01*
X119947240Y-108352000D02*
X119947240Y-107802000D01*
G75*
G02*
X120147240Y-107602000I200000J0D01*
G01*
X120547240Y-107602000D01*
G75*
G02*
X120747240Y-107802000I0J-200000D01*
G01*
X120747240Y-108352000D01*
G75*
G02*
X120547240Y-108552000I-200000J0D01*
G01*
X120147240Y-108552000D01*
G75*
G02*
X119947240Y-108352000I0J200000D01*
G01*
G37*
G04 #@! TD.AperFunction*
G04 #@! TA.AperFunction,SMDPad,CuDef*
G36*
G01*
X118297240Y-108352000D02*
X118297240Y-107802000D01*
G75*
G02*
X118497240Y-107602000I200000J0D01*
G01*
X118897240Y-107602000D01*
G75*
G02*
X119097240Y-107802000I0J-200000D01*
G01*
X119097240Y-108352000D01*
G75*
G02*
X118897240Y-108552000I-200000J0D01*
G01*
X118497240Y-108552000D01*
G75*
G02*
X118297240Y-108352000I0J200000D01*
G01*
G37*
G04 #@! TD.AperFunction*
D45*
X112217200Y-108619800D03*
X111267200Y-106619800D03*
X113167200Y-106619800D03*
G04 #@! TA.AperFunction,SMDPad,CuDef*
G36*
G01*
X122048460Y-105242240D02*
X122548460Y-105242240D01*
G75*
G02*
X122773460Y-105467240I0J-225000D01*
G01*
X122773460Y-105917240D01*
G75*
G02*
X122548460Y-106142240I-225000J0D01*
G01*
X122048460Y-106142240D01*
G75*
G02*
X121823460Y-105917240I0J225000D01*
G01*
X121823460Y-105467240D01*
G75*
G02*
X122048460Y-105242240I225000J0D01*
G01*
G37*
G04 #@! TD.AperFunction*
G04 #@! TA.AperFunction,SMDPad,CuDef*
G36*
G01*
X122048460Y-103692240D02*
X122548460Y-103692240D01*
G75*
G02*
X122773460Y-103917240I0J-225000D01*
G01*
X122773460Y-104367240D01*
G75*
G02*
X122548460Y-104592240I-225000J0D01*
G01*
X122048460Y-104592240D01*
G75*
G02*
X121823460Y-104367240I0J225000D01*
G01*
X121823460Y-103917240D01*
G75*
G02*
X122048460Y-103692240I225000J0D01*
G01*
G37*
G04 #@! TD.AperFunction*
G04 #@! TA.AperFunction,SMDPad,CuDef*
G36*
G01*
X114560160Y-103906440D02*
X114060160Y-103906440D01*
G75*
G02*
X113835160Y-103681440I0J225000D01*
G01*
X113835160Y-103231440D01*
G75*
G02*
X114060160Y-103006440I225000J0D01*
G01*
X114560160Y-103006440D01*
G75*
G02*
X114785160Y-103231440I0J-225000D01*
G01*
X114785160Y-103681440D01*
G75*
G02*
X114560160Y-103906440I-225000J0D01*
G01*
G37*
G04 #@! TD.AperFunction*
G04 #@! TA.AperFunction,SMDPad,CuDef*
G36*
G01*
X114560160Y-105456440D02*
X114060160Y-105456440D01*
G75*
G02*
X113835160Y-105231440I0J225000D01*
G01*
X113835160Y-104781440D01*
G75*
G02*
X114060160Y-104556440I225000J0D01*
G01*
X114560160Y-104556440D01*
G75*
G02*
X114785160Y-104781440I0J-225000D01*
G01*
X114785160Y-105231440D01*
G75*
G02*
X114560160Y-105456440I-225000J0D01*
G01*
G37*
G04 #@! TD.AperFunction*
G04 #@! TA.AperFunction,SMDPad,CuDef*
G36*
G01*
X124092780Y-104579540D02*
X123592780Y-104579540D01*
G75*
G02*
X123367780Y-104354540I0J225000D01*
G01*
X123367780Y-103904540D01*
G75*
G02*
X123592780Y-103679540I225000J0D01*
G01*
X124092780Y-103679540D01*
G75*
G02*
X124317780Y-103904540I0J-225000D01*
G01*
X124317780Y-104354540D01*
G75*
G02*
X124092780Y-104579540I-225000J0D01*
G01*
G37*
G04 #@! TD.AperFunction*
G04 #@! TA.AperFunction,SMDPad,CuDef*
G36*
G01*
X124092780Y-106129540D02*
X123592780Y-106129540D01*
G75*
G02*
X123367780Y-105904540I0J225000D01*
G01*
X123367780Y-105454540D01*
G75*
G02*
X123592780Y-105229540I225000J0D01*
G01*
X124092780Y-105229540D01*
G75*
G02*
X124317780Y-105454540I0J-225000D01*
G01*
X124317780Y-105904540D01*
G75*
G02*
X124092780Y-106129540I-225000J0D01*
G01*
G37*
G04 #@! TD.AperFunction*
D20*
X154871600Y-109489200D03*
X154871600Y-111389200D03*
X152671600Y-111389200D03*
X152671600Y-110439200D03*
X152671600Y-109489200D03*
X140952400Y-114289800D03*
X140952400Y-116189800D03*
X138752400Y-116189800D03*
X138752400Y-115239800D03*
X138752400Y-114289800D03*
G04 #@! TA.AperFunction,SMDPad,CuDef*
G36*
G01*
X151692800Y-114269400D02*
X152192800Y-114269400D01*
G75*
G02*
X152417800Y-114494400I0J-225000D01*
G01*
X152417800Y-114944400D01*
G75*
G02*
X152192800Y-115169400I-225000J0D01*
G01*
X151692800Y-115169400D01*
G75*
G02*
X151467800Y-114944400I0J225000D01*
G01*
X151467800Y-114494400D01*
G75*
G02*
X151692800Y-114269400I225000J0D01*
G01*
G37*
G04 #@! TD.AperFunction*
G04 #@! TA.AperFunction,SMDPad,CuDef*
G36*
G01*
X151692800Y-112719400D02*
X152192800Y-112719400D01*
G75*
G02*
X152417800Y-112944400I0J-225000D01*
G01*
X152417800Y-113394400D01*
G75*
G02*
X152192800Y-113619400I-225000J0D01*
G01*
X151692800Y-113619400D01*
G75*
G02*
X151467800Y-113394400I0J225000D01*
G01*
X151467800Y-112944400D01*
G75*
G02*
X151692800Y-112719400I225000J0D01*
G01*
G37*
G04 #@! TD.AperFunction*
G04 #@! TA.AperFunction,SMDPad,CuDef*
G36*
G01*
X150235800Y-116632800D02*
X150235800Y-116132800D01*
G75*
G02*
X150460800Y-115907800I225000J0D01*
G01*
X150910800Y-115907800D01*
G75*
G02*
X151135800Y-116132800I0J-225000D01*
G01*
X151135800Y-116632800D01*
G75*
G02*
X150910800Y-116857800I-225000J0D01*
G01*
X150460800Y-116857800D01*
G75*
G02*
X150235800Y-116632800I0J225000D01*
G01*
G37*
G04 #@! TD.AperFunction*
G04 #@! TA.AperFunction,SMDPad,CuDef*
G36*
G01*
X148685800Y-116632800D02*
X148685800Y-116132800D01*
G75*
G02*
X148910800Y-115907800I225000J0D01*
G01*
X149360800Y-115907800D01*
G75*
G02*
X149585800Y-116132800I0J-225000D01*
G01*
X149585800Y-116632800D01*
G75*
G02*
X149360800Y-116857800I-225000J0D01*
G01*
X148910800Y-116857800D01*
G75*
G02*
X148685800Y-116632800I0J225000D01*
G01*
G37*
G04 #@! TD.AperFunction*
G04 #@! TA.AperFunction,SMDPad,CuDef*
G36*
G01*
X146663600Y-114269400D02*
X147163600Y-114269400D01*
G75*
G02*
X147388600Y-114494400I0J-225000D01*
G01*
X147388600Y-114944400D01*
G75*
G02*
X147163600Y-115169400I-225000J0D01*
G01*
X146663600Y-115169400D01*
G75*
G02*
X146438600Y-114944400I0J225000D01*
G01*
X146438600Y-114494400D01*
G75*
G02*
X146663600Y-114269400I225000J0D01*
G01*
G37*
G04 #@! TD.AperFunction*
G04 #@! TA.AperFunction,SMDPad,CuDef*
G36*
G01*
X146663600Y-112719400D02*
X147163600Y-112719400D01*
G75*
G02*
X147388600Y-112944400I0J-225000D01*
G01*
X147388600Y-113394400D01*
G75*
G02*
X147163600Y-113619400I-225000J0D01*
G01*
X146663600Y-113619400D01*
G75*
G02*
X146438600Y-113394400I0J225000D01*
G01*
X146438600Y-112944400D01*
G75*
G02*
X146663600Y-112719400I225000J0D01*
G01*
G37*
G04 #@! TD.AperFunction*
G04 #@! TA.AperFunction,SMDPad,CuDef*
G36*
G01*
X145206600Y-116582000D02*
X145206600Y-116082000D01*
G75*
G02*
X145431600Y-115857000I225000J0D01*
G01*
X145881600Y-115857000D01*
G75*
G02*
X146106600Y-116082000I0J-225000D01*
G01*
X146106600Y-116582000D01*
G75*
G02*
X145881600Y-116807000I-225000J0D01*
G01*
X145431600Y-116807000D01*
G75*
G02*
X145206600Y-116582000I0J225000D01*
G01*
G37*
G04 #@! TD.AperFunction*
G04 #@! TA.AperFunction,SMDPad,CuDef*
G36*
G01*
X143656600Y-116582000D02*
X143656600Y-116082000D01*
G75*
G02*
X143881600Y-115857000I225000J0D01*
G01*
X144331600Y-115857000D01*
G75*
G02*
X144556600Y-116082000I0J-225000D01*
G01*
X144556600Y-116582000D01*
G75*
G02*
X144331600Y-116807000I-225000J0D01*
G01*
X143881600Y-116807000D01*
G75*
G02*
X143656600Y-116582000I0J225000D01*
G01*
G37*
G04 #@! TD.AperFunction*
G04 #@! TA.AperFunction,SMDPad,CuDef*
G36*
G01*
X165596760Y-109912700D02*
X166096760Y-109912700D01*
G75*
G02*
X166321760Y-110137700I0J-225000D01*
G01*
X166321760Y-110587700D01*
G75*
G02*
X166096760Y-110812700I-225000J0D01*
G01*
X165596760Y-110812700D01*
G75*
G02*
X165371760Y-110587700I0J225000D01*
G01*
X165371760Y-110137700D01*
G75*
G02*
X165596760Y-109912700I225000J0D01*
G01*
G37*
G04 #@! TD.AperFunction*
G04 #@! TA.AperFunction,SMDPad,CuDef*
G36*
G01*
X165596760Y-111462700D02*
X166096760Y-111462700D01*
G75*
G02*
X166321760Y-111687700I0J-225000D01*
G01*
X166321760Y-112137700D01*
G75*
G02*
X166096760Y-112362700I-225000J0D01*
G01*
X165596760Y-112362700D01*
G75*
G02*
X165371760Y-112137700I0J225000D01*
G01*
X165371760Y-111687700D01*
G75*
G02*
X165596760Y-111462700I225000J0D01*
G01*
G37*
G04 #@! TD.AperFunction*
G04 #@! TA.AperFunction,SMDPad,CuDef*
G36*
G01*
X187136750Y-105568200D02*
X186624250Y-105568200D01*
G75*
G02*
X186405500Y-105349450I0J218750D01*
G01*
X186405500Y-104911950D01*
G75*
G02*
X186624250Y-104693200I218750J0D01*
G01*
X187136750Y-104693200D01*
G75*
G02*
X187355500Y-104911950I0J-218750D01*
G01*
X187355500Y-105349450D01*
G75*
G02*
X187136750Y-105568200I-218750J0D01*
G01*
G37*
G04 #@! TD.AperFunction*
G04 #@! TA.AperFunction,SMDPad,CuDef*
G36*
G01*
X187136750Y-103993200D02*
X186624250Y-103993200D01*
G75*
G02*
X186405500Y-103774450I0J218750D01*
G01*
X186405500Y-103336950D01*
G75*
G02*
X186624250Y-103118200I218750J0D01*
G01*
X187136750Y-103118200D01*
G75*
G02*
X187355500Y-103336950I0J-218750D01*
G01*
X187355500Y-103774450D01*
G75*
G02*
X187136750Y-103993200I-218750J0D01*
G01*
G37*
G04 #@! TD.AperFunction*
G04 #@! TA.AperFunction,SMDPad,CuDef*
G36*
G01*
X169190480Y-78347020D02*
X168690480Y-78347020D01*
G75*
G02*
X168465480Y-78122020I0J225000D01*
G01*
X168465480Y-77672020D01*
G75*
G02*
X168690480Y-77447020I225000J0D01*
G01*
X169190480Y-77447020D01*
G75*
G02*
X169415480Y-77672020I0J-225000D01*
G01*
X169415480Y-78122020D01*
G75*
G02*
X169190480Y-78347020I-225000J0D01*
G01*
G37*
G04 #@! TD.AperFunction*
G04 #@! TA.AperFunction,SMDPad,CuDef*
G36*
G01*
X169190480Y-76797020D02*
X168690480Y-76797020D01*
G75*
G02*
X168465480Y-76572020I0J225000D01*
G01*
X168465480Y-76122020D01*
G75*
G02*
X168690480Y-75897020I225000J0D01*
G01*
X169190480Y-75897020D01*
G75*
G02*
X169415480Y-76122020I0J-225000D01*
G01*
X169415480Y-76572020D01*
G75*
G02*
X169190480Y-76797020I-225000J0D01*
G01*
G37*
G04 #@! TD.AperFunction*
G04 #@! TA.AperFunction,SMDPad,CuDef*
G36*
G01*
X189000680Y-82350420D02*
X189000680Y-81850420D01*
G75*
G02*
X189225680Y-81625420I225000J0D01*
G01*
X189675680Y-81625420D01*
G75*
G02*
X189900680Y-81850420I0J-225000D01*
G01*
X189900680Y-82350420D01*
G75*
G02*
X189675680Y-82575420I-225000J0D01*
G01*
X189225680Y-82575420D01*
G75*
G02*
X189000680Y-82350420I0J225000D01*
G01*
G37*
G04 #@! TD.AperFunction*
G04 #@! TA.AperFunction,SMDPad,CuDef*
G36*
G01*
X190550680Y-82350420D02*
X190550680Y-81850420D01*
G75*
G02*
X190775680Y-81625420I225000J0D01*
G01*
X191225680Y-81625420D01*
G75*
G02*
X191450680Y-81850420I0J-225000D01*
G01*
X191450680Y-82350420D01*
G75*
G02*
X191225680Y-82575420I-225000J0D01*
G01*
X190775680Y-82575420D01*
G75*
G02*
X190550680Y-82350420I0J225000D01*
G01*
G37*
G04 #@! TD.AperFunction*
G04 #@! TA.AperFunction,SMDPad,CuDef*
G36*
G01*
X184357200Y-108401400D02*
X184857200Y-108401400D01*
G75*
G02*
X185082200Y-108626400I0J-225000D01*
G01*
X185082200Y-109076400D01*
G75*
G02*
X184857200Y-109301400I-225000J0D01*
G01*
X184357200Y-109301400D01*
G75*
G02*
X184132200Y-109076400I0J225000D01*
G01*
X184132200Y-108626400D01*
G75*
G02*
X184357200Y-108401400I225000J0D01*
G01*
G37*
G04 #@! TD.AperFunction*
G04 #@! TA.AperFunction,SMDPad,CuDef*
G36*
G01*
X184357200Y-109951400D02*
X184857200Y-109951400D01*
G75*
G02*
X185082200Y-110176400I0J-225000D01*
G01*
X185082200Y-110626400D01*
G75*
G02*
X184857200Y-110851400I-225000J0D01*
G01*
X184357200Y-110851400D01*
G75*
G02*
X184132200Y-110626400I0J225000D01*
G01*
X184132200Y-110176400D01*
G75*
G02*
X184357200Y-109951400I225000J0D01*
G01*
G37*
G04 #@! TD.AperFunction*
G04 #@! TA.AperFunction,SMDPad,CuDef*
G36*
G01*
X164807180Y-104920860D02*
X164807180Y-104420860D01*
G75*
G02*
X165032180Y-104195860I225000J0D01*
G01*
X165482180Y-104195860D01*
G75*
G02*
X165707180Y-104420860I0J-225000D01*
G01*
X165707180Y-104920860D01*
G75*
G02*
X165482180Y-105145860I-225000J0D01*
G01*
X165032180Y-105145860D01*
G75*
G02*
X164807180Y-104920860I0J225000D01*
G01*
G37*
G04 #@! TD.AperFunction*
G04 #@! TA.AperFunction,SMDPad,CuDef*
G36*
G01*
X166357180Y-104920860D02*
X166357180Y-104420860D01*
G75*
G02*
X166582180Y-104195860I225000J0D01*
G01*
X167032180Y-104195860D01*
G75*
G02*
X167257180Y-104420860I0J-225000D01*
G01*
X167257180Y-104920860D01*
G75*
G02*
X167032180Y-105145860I-225000J0D01*
G01*
X166582180Y-105145860D01*
G75*
G02*
X166357180Y-104920860I0J225000D01*
G01*
G37*
G04 #@! TD.AperFunction*
G04 #@! TA.AperFunction,SMDPad,CuDef*
G36*
G01*
X184857200Y-113899400D02*
X184357200Y-113899400D01*
G75*
G02*
X184132200Y-113674400I0J225000D01*
G01*
X184132200Y-113224400D01*
G75*
G02*
X184357200Y-112999400I225000J0D01*
G01*
X184857200Y-112999400D01*
G75*
G02*
X185082200Y-113224400I0J-225000D01*
G01*
X185082200Y-113674400D01*
G75*
G02*
X184857200Y-113899400I-225000J0D01*
G01*
G37*
G04 #@! TD.AperFunction*
G04 #@! TA.AperFunction,SMDPad,CuDef*
G36*
G01*
X184857200Y-112349400D02*
X184357200Y-112349400D01*
G75*
G02*
X184132200Y-112124400I0J225000D01*
G01*
X184132200Y-111674400D01*
G75*
G02*
X184357200Y-111449400I225000J0D01*
G01*
X184857200Y-111449400D01*
G75*
G02*
X185082200Y-111674400I0J-225000D01*
G01*
X185082200Y-112124400D01*
G75*
G02*
X184857200Y-112349400I-225000J0D01*
G01*
G37*
G04 #@! TD.AperFunction*
G04 #@! TA.AperFunction,SMDPad,CuDef*
G36*
G01*
X185149680Y-103113120D02*
X185649680Y-103113120D01*
G75*
G02*
X185874680Y-103338120I0J-225000D01*
G01*
X185874680Y-103788120D01*
G75*
G02*
X185649680Y-104013120I-225000J0D01*
G01*
X185149680Y-104013120D01*
G75*
G02*
X184924680Y-103788120I0J225000D01*
G01*
X184924680Y-103338120D01*
G75*
G02*
X185149680Y-103113120I225000J0D01*
G01*
G37*
G04 #@! TD.AperFunction*
G04 #@! TA.AperFunction,SMDPad,CuDef*
G36*
G01*
X185149680Y-104663120D02*
X185649680Y-104663120D01*
G75*
G02*
X185874680Y-104888120I0J-225000D01*
G01*
X185874680Y-105338120D01*
G75*
G02*
X185649680Y-105563120I-225000J0D01*
G01*
X185149680Y-105563120D01*
G75*
G02*
X184924680Y-105338120I0J225000D01*
G01*
X184924680Y-104888120D01*
G75*
G02*
X185149680Y-104663120I225000J0D01*
G01*
G37*
G04 #@! TD.AperFunction*
G04 #@! TA.AperFunction,SMDPad,CuDef*
G36*
G01*
X183625680Y-103113120D02*
X184125680Y-103113120D01*
G75*
G02*
X184350680Y-103338120I0J-225000D01*
G01*
X184350680Y-103788120D01*
G75*
G02*
X184125680Y-104013120I-225000J0D01*
G01*
X183625680Y-104013120D01*
G75*
G02*
X183400680Y-103788120I0J225000D01*
G01*
X183400680Y-103338120D01*
G75*
G02*
X183625680Y-103113120I225000J0D01*
G01*
G37*
G04 #@! TD.AperFunction*
G04 #@! TA.AperFunction,SMDPad,CuDef*
G36*
G01*
X183625680Y-104663120D02*
X184125680Y-104663120D01*
G75*
G02*
X184350680Y-104888120I0J-225000D01*
G01*
X184350680Y-105338120D01*
G75*
G02*
X184125680Y-105563120I-225000J0D01*
G01*
X183625680Y-105563120D01*
G75*
G02*
X183400680Y-105338120I0J225000D01*
G01*
X183400680Y-104888120D01*
G75*
G02*
X183625680Y-104663120I225000J0D01*
G01*
G37*
G04 #@! TD.AperFunction*
G04 #@! TA.AperFunction,SMDPad,CuDef*
G36*
G01*
X175434180Y-103280760D02*
X175934180Y-103280760D01*
G75*
G02*
X176159180Y-103505760I0J-225000D01*
G01*
X176159180Y-103955760D01*
G75*
G02*
X175934180Y-104180760I-225000J0D01*
G01*
X175434180Y-104180760D01*
G75*
G02*
X175209180Y-103955760I0J225000D01*
G01*
X175209180Y-103505760D01*
G75*
G02*
X175434180Y-103280760I225000J0D01*
G01*
G37*
G04 #@! TD.AperFunction*
G04 #@! TA.AperFunction,SMDPad,CuDef*
G36*
G01*
X175434180Y-104830760D02*
X175934180Y-104830760D01*
G75*
G02*
X176159180Y-105055760I0J-225000D01*
G01*
X176159180Y-105505760D01*
G75*
G02*
X175934180Y-105730760I-225000J0D01*
G01*
X175434180Y-105730760D01*
G75*
G02*
X175209180Y-105505760I0J225000D01*
G01*
X175209180Y-105055760D01*
G75*
G02*
X175434180Y-104830760I225000J0D01*
G01*
G37*
G04 #@! TD.AperFunction*
G04 #@! TA.AperFunction,SMDPad,CuDef*
G36*
G01*
X189048580Y-99303120D02*
X189548580Y-99303120D01*
G75*
G02*
X189773580Y-99528120I0J-225000D01*
G01*
X189773580Y-99978120D01*
G75*
G02*
X189548580Y-100203120I-225000J0D01*
G01*
X189048580Y-100203120D01*
G75*
G02*
X188823580Y-99978120I0J225000D01*
G01*
X188823580Y-99528120D01*
G75*
G02*
X189048580Y-99303120I225000J0D01*
G01*
G37*
G04 #@! TD.AperFunction*
G04 #@! TA.AperFunction,SMDPad,CuDef*
G36*
G01*
X189048580Y-100853120D02*
X189548580Y-100853120D01*
G75*
G02*
X189773580Y-101078120I0J-225000D01*
G01*
X189773580Y-101528120D01*
G75*
G02*
X189548580Y-101753120I-225000J0D01*
G01*
X189048580Y-101753120D01*
G75*
G02*
X188823580Y-101528120I0J225000D01*
G01*
X188823580Y-101078120D01*
G75*
G02*
X189048580Y-100853120I225000J0D01*
G01*
G37*
G04 #@! TD.AperFunction*
G04 #@! TA.AperFunction,SMDPad,CuDef*
G36*
G01*
X164399680Y-99401820D02*
X164399680Y-99901820D01*
G75*
G02*
X164174680Y-100126820I-225000J0D01*
G01*
X163724680Y-100126820D01*
G75*
G02*
X163499680Y-99901820I0J225000D01*
G01*
X163499680Y-99401820D01*
G75*
G02*
X163724680Y-99176820I225000J0D01*
G01*
X164174680Y-99176820D01*
G75*
G02*
X164399680Y-99401820I0J-225000D01*
G01*
G37*
G04 #@! TD.AperFunction*
G04 #@! TA.AperFunction,SMDPad,CuDef*
G36*
G01*
X162849680Y-99401820D02*
X162849680Y-99901820D01*
G75*
G02*
X162624680Y-100126820I-225000J0D01*
G01*
X162174680Y-100126820D01*
G75*
G02*
X161949680Y-99901820I0J225000D01*
G01*
X161949680Y-99401820D01*
G75*
G02*
X162174680Y-99176820I225000J0D01*
G01*
X162624680Y-99176820D01*
G75*
G02*
X162849680Y-99401820I0J-225000D01*
G01*
G37*
G04 #@! TD.AperFunction*
G04 #@! TA.AperFunction,SMDPad,CuDef*
G36*
G01*
X167666480Y-78334020D02*
X167166480Y-78334020D01*
G75*
G02*
X166941480Y-78109020I0J225000D01*
G01*
X166941480Y-77659020D01*
G75*
G02*
X167166480Y-77434020I225000J0D01*
G01*
X167666480Y-77434020D01*
G75*
G02*
X167891480Y-77659020I0J-225000D01*
G01*
X167891480Y-78109020D01*
G75*
G02*
X167666480Y-78334020I-225000J0D01*
G01*
G37*
G04 #@! TD.AperFunction*
G04 #@! TA.AperFunction,SMDPad,CuDef*
G36*
G01*
X167666480Y-76784020D02*
X167166480Y-76784020D01*
G75*
G02*
X166941480Y-76559020I0J225000D01*
G01*
X166941480Y-76109020D01*
G75*
G02*
X167166480Y-75884020I225000J0D01*
G01*
X167666480Y-75884020D01*
G75*
G02*
X167891480Y-76109020I0J-225000D01*
G01*
X167891480Y-76559020D01*
G75*
G02*
X167666480Y-76784020I-225000J0D01*
G01*
G37*
G04 #@! TD.AperFunction*
G04 #@! TA.AperFunction,SMDPad,CuDef*
G36*
G01*
X189000680Y-80813720D02*
X189000680Y-80313720D01*
G75*
G02*
X189225680Y-80088720I225000J0D01*
G01*
X189675680Y-80088720D01*
G75*
G02*
X189900680Y-80313720I0J-225000D01*
G01*
X189900680Y-80813720D01*
G75*
G02*
X189675680Y-81038720I-225000J0D01*
G01*
X189225680Y-81038720D01*
G75*
G02*
X189000680Y-80813720I0J225000D01*
G01*
G37*
G04 #@! TD.AperFunction*
G04 #@! TA.AperFunction,SMDPad,CuDef*
G36*
G01*
X190550680Y-80813720D02*
X190550680Y-80313720D01*
G75*
G02*
X190775680Y-80088720I225000J0D01*
G01*
X191225680Y-80088720D01*
G75*
G02*
X191450680Y-80313720I0J-225000D01*
G01*
X191450680Y-80813720D01*
G75*
G02*
X191225680Y-81038720I-225000J0D01*
G01*
X190775680Y-81038720D01*
G75*
G02*
X190550680Y-80813720I0J225000D01*
G01*
G37*
G04 #@! TD.AperFunction*
G04 #@! TA.AperFunction,SMDPad,CuDef*
G36*
G01*
X164399680Y-100989320D02*
X164399680Y-101489320D01*
G75*
G02*
X164174680Y-101714320I-225000J0D01*
G01*
X163724680Y-101714320D01*
G75*
G02*
X163499680Y-101489320I0J225000D01*
G01*
X163499680Y-100989320D01*
G75*
G02*
X163724680Y-100764320I225000J0D01*
G01*
X164174680Y-100764320D01*
G75*
G02*
X164399680Y-100989320I0J-225000D01*
G01*
G37*
G04 #@! TD.AperFunction*
G04 #@! TA.AperFunction,SMDPad,CuDef*
G36*
G01*
X162849680Y-100989320D02*
X162849680Y-101489320D01*
G75*
G02*
X162624680Y-101714320I-225000J0D01*
G01*
X162174680Y-101714320D01*
G75*
G02*
X161949680Y-101489320I0J225000D01*
G01*
X161949680Y-100989320D01*
G75*
G02*
X162174680Y-100764320I225000J0D01*
G01*
X162624680Y-100764320D01*
G75*
G02*
X162849680Y-100989320I0J-225000D01*
G01*
G37*
G04 #@! TD.AperFunction*
D46*
X199898000Y-70866000D03*
X197358000Y-70866000D03*
X199898000Y-73406000D03*
X197358000Y-73406000D03*
X199898000Y-75946000D03*
X197358000Y-75946000D03*
X199898000Y-78486000D03*
X197358000Y-78486000D03*
X199898000Y-81026000D03*
X197358000Y-81026000D03*
X199898000Y-83566000D03*
X197358000Y-83566000D03*
X199898000Y-86106000D03*
X197358000Y-86106000D03*
X199898000Y-88646000D03*
X197358000Y-88646000D03*
X199898000Y-91186000D03*
X197358000Y-91186000D03*
X199898000Y-93726000D03*
X197358000Y-93726000D03*
X199898000Y-96266000D03*
X197358000Y-96266000D03*
X199898000Y-98806000D03*
X197358000Y-98806000D03*
X199898000Y-101346000D03*
X197358000Y-101346000D03*
X199898000Y-103886000D03*
X197358000Y-103886000D03*
X199898000Y-106426000D03*
X197358000Y-106426000D03*
X199898000Y-108966000D03*
X197358000Y-108966000D03*
X199898000Y-111506000D03*
X197358000Y-111506000D03*
X199898000Y-114046000D03*
D47*
X197358000Y-114046000D03*
D48*
X149098000Y-119126000D03*
X146558000Y-119126000D03*
X144018000Y-119126000D03*
X141478000Y-119126000D03*
X138938000Y-119126000D03*
X136398000Y-119126000D03*
X133858000Y-119126000D03*
X131318000Y-119126000D03*
X171958000Y-119126000D03*
X169418000Y-119126000D03*
X166878000Y-119126000D03*
X164338000Y-119126000D03*
X161798000Y-119126000D03*
X159258000Y-119126000D03*
X156718000Y-119126000D03*
X154178000Y-119126000D03*
X194818000Y-119126000D03*
X192278000Y-119126000D03*
X189738000Y-119126000D03*
X187198000Y-119126000D03*
X184658000Y-119126000D03*
X182118000Y-119126000D03*
X179578000Y-119126000D03*
X177038000Y-119126000D03*
X145034000Y-70866000D03*
X142494000Y-70866000D03*
X139954000Y-70866000D03*
X137414000Y-70866000D03*
X134874000Y-70866000D03*
X132334000Y-70866000D03*
X129794000Y-70866000D03*
X127254000Y-70866000D03*
X124714000Y-70866000D03*
X122174000Y-70866000D03*
X166878000Y-70866000D03*
X164338000Y-70866000D03*
X161798000Y-70866000D03*
X159258000Y-70866000D03*
X156718000Y-70866000D03*
X154178000Y-70866000D03*
X151638000Y-70866000D03*
X149098000Y-70866000D03*
X189738000Y-70866000D03*
X187198000Y-70866000D03*
X184658000Y-70866000D03*
X182118000Y-70866000D03*
X179578000Y-70866000D03*
X177038000Y-70866000D03*
X174498000Y-70866000D03*
X171958000Y-70866000D03*
D49*
X117348000Y-119126000D03*
X199898000Y-119126000D03*
X118618000Y-70866000D03*
X193548000Y-70866000D03*
D50*
X174414180Y-75509120D03*
X179925980Y-75483720D03*
X188409580Y-101315520D03*
X186326780Y-87675720D03*
X186352180Y-92679520D03*
X186377580Y-99181920D03*
X175379380Y-100629720D03*
X168394380Y-81224120D03*
X162399680Y-100426220D03*
X180383180Y-81224120D03*
X165257480Y-105839260D03*
X191000680Y-81326020D03*
X142761000Y-91656200D03*
X112217200Y-107759500D03*
X121691400Y-112496600D03*
X139649200Y-111607600D03*
X139687300Y-115252500D03*
X139674600Y-107950000D03*
X122303160Y-106530140D03*
X109474000Y-106730800D03*
X109435900Y-102946200D03*
X166959280Y-92684600D03*
X175722280Y-106161840D03*
X166913560Y-87685880D03*
X111321960Y-69401800D03*
X112068720Y-69401800D03*
X113253810Y-70409090D03*
X113253810Y-74203850D03*
X113253810Y-72197250D03*
X113253810Y-76047890D03*
X111781480Y-80051800D03*
X112523160Y-80051800D03*
X113545400Y-79158880D03*
X108041440Y-72771000D03*
X161524625Y-93173871D03*
X110490000Y-81483200D03*
X180086000Y-107848400D03*
X185711800Y-110401400D03*
X185724800Y-111963200D03*
X180086000Y-114757200D03*
X151587200Y-116382800D03*
X153670000Y-110439200D03*
X202641200Y-100279200D03*
X182880000Y-102768400D03*
X182880000Y-105105202D03*
X165867080Y-112722660D03*
X190068200Y-93726000D03*
X132004100Y-89471200D03*
X137896600Y-95580200D03*
X144510760Y-85557360D03*
X130375360Y-93195440D03*
X130375360Y-95212200D03*
X162306000Y-87335360D03*
X131053840Y-110022640D03*
X127485140Y-107000040D03*
X129552700Y-107000040D03*
X157530800Y-96598740D03*
X115224260Y-103456440D03*
X168217009Y-76444241D03*
X133591600Y-83934000D03*
X137211100Y-82422700D03*
X192222120Y-98264980D03*
X190220600Y-89014300D03*
X185407300Y-105943400D03*
X171061380Y-114386370D03*
X174980600Y-109397800D03*
X169570400Y-111848900D03*
X174396400Y-81232832D03*
X180060600Y-106065320D03*
X136017000Y-111836200D03*
X160502600Y-97119440D03*
X190898780Y-87962740D03*
X174414180Y-79039720D03*
X167429180Y-78887320D03*
X164701347Y-93177487D03*
X164754687Y-88176227D03*
X175899191Y-102876731D03*
X170400980Y-100705920D03*
X188561980Y-80589120D03*
X188544835Y-87175975D03*
X179900199Y-79039339D03*
X188612780Y-98673920D03*
X163949680Y-100452220D03*
X182427880Y-100756720D03*
X107137200Y-81432400D03*
X146913600Y-110845600D03*
X146913600Y-112268000D03*
X146913600Y-111556800D03*
X188417200Y-92176600D03*
X139446000Y-95605600D03*
X142785800Y-90106200D03*
X129540000Y-80568800D03*
X121259600Y-104160320D03*
X117957600Y-108066840D03*
X146743920Y-100128840D03*
X115435380Y-104632760D03*
X112547400Y-101899720D03*
X157327598Y-100939598D03*
X133375400Y-81508600D03*
X132321298Y-107162600D03*
X194661600Y-97383600D03*
X186880500Y-105968800D03*
X172051984Y-114360960D03*
X174980600Y-110373158D03*
X143573500Y-82981800D03*
X169613579Y-110830361D03*
X164343080Y-113055400D03*
X115493800Y-77983080D03*
X153163270Y-95860870D03*
X178757580Y-97995740D03*
X138699240Y-100756720D03*
X172100240Y-98872040D03*
X168290240Y-109580684D03*
X111067855Y-115722400D03*
X114963002Y-115320000D03*
X114963002Y-115972400D03*
X137819999Y-107277679D03*
X137819999Y-108571521D03*
X137819998Y-107937300D03*
X112966500Y-104114600D03*
X111086900Y-104114600D03*
X111696500Y-104114600D03*
X112318800Y-104114600D03*
X153332180Y-99644200D03*
X169092742Y-97315158D03*
X149860004Y-100939600D03*
X169805350Y-96780350D03*
X172413212Y-96091448D03*
X143733520Y-100042980D03*
X172984160Y-95775780D03*
X142003780Y-100426520D03*
X139268200Y-91414600D03*
X177269140Y-94142560D03*
X183047640Y-97012760D03*
X146588480Y-88940640D03*
X139090400Y-92100400D03*
X178775357Y-94691197D03*
X176128680Y-93207840D03*
X145465800Y-89763600D03*
X144399000Y-93167200D03*
X174758159Y-92708919D03*
X144424400Y-94716600D03*
X173248320Y-92191840D03*
X153832560Y-88229440D03*
X139827000Y-85598000D03*
X153115455Y-88260745D03*
X138900600Y-85555383D03*
X153146760Y-89021920D03*
X138176000Y-85598000D03*
X136550400Y-85594000D03*
X153659840Y-87355680D03*
X190337440Y-115199160D03*
X174904400Y-107061000D03*
X164795200Y-115392200D03*
X160693100Y-102628700D03*
X160121600Y-103149400D03*
X108026200Y-71704200D03*
X172896028Y-83821865D03*
X120142000Y-73533000D03*
X108127800Y-73863200D03*
X163474400Y-83286600D03*
X108153200Y-76098400D03*
X164348160Y-86060280D03*
X119763540Y-77152500D03*
X110978900Y-116420900D03*
X117221000Y-114185700D03*
X172770800Y-100431600D03*
X193517520Y-107665520D03*
X194449700Y-108419900D03*
X164048440Y-97119440D03*
X173634400Y-107264200D03*
X170583860Y-111841280D03*
X172554900Y-109893100D03*
X172542200Y-105404920D03*
X171551600Y-110893860D03*
X171551602Y-106349800D03*
X168097200Y-86690200D03*
X167563800Y-86182200D03*
X168198800Y-89192100D03*
X168116186Y-88544950D03*
X170230800Y-89649300D03*
X169926000Y-88811100D03*
X178421347Y-76034900D03*
X177923713Y-75556300D03*
X178323891Y-77045369D03*
X177876200Y-76530200D03*
X177901600Y-78968600D03*
X177380900Y-78422500D03*
X194462400Y-86004400D03*
X178421073Y-78329405D03*
X193395600Y-86321900D03*
X193979800Y-86690200D03*
X192392300Y-85191600D03*
X192874900Y-85737700D03*
X186321700Y-84153693D03*
X191909700Y-84620100D03*
X186381171Y-85188885D03*
X185953400Y-84696300D03*
X185013600Y-89674700D03*
X185924104Y-85654414D03*
X185013600Y-90678000D03*
X184442100Y-90170000D03*
X170621960Y-103809800D03*
X170037760Y-103212900D03*
X168907460Y-103568502D03*
X167886380Y-102961440D03*
X192587880Y-115778280D03*
X185262520Y-94046040D03*
X192623440Y-104333040D03*
X185953400Y-94914720D03*
X192054480Y-116408200D03*
X192024000Y-103698040D03*
X190881000Y-116692680D03*
X190418720Y-115920520D03*
X161899600Y-77232690D03*
X162433000Y-76530200D03*
X173736000Y-81800700D03*
X174396400Y-82423000D03*
X173824900Y-82994500D03*
X174345600Y-83477100D03*
X160705798Y-78320900D03*
X161264600Y-77711300D03*
X168335960Y-111363760D03*
X168341040Y-98140520D03*
X149160383Y-75289773D03*
X149186900Y-74637900D03*
X108077000Y-70612000D03*
X116586000Y-72898000D03*
X108204000Y-77216000D03*
X117983000Y-78740000D03*
X108331000Y-78232000D03*
X119888000Y-79629000D03*
X166436040Y-108828840D03*
X167457120Y-98165920D03*
X185013600Y-91681300D03*
X184442100Y-91135200D03*
D51*
X162399680Y-101239320D02*
X162399680Y-100426220D01*
X174414180Y-76359720D02*
X174414180Y-75509120D01*
X179925980Y-76334320D02*
X179925980Y-75483720D01*
X191000680Y-80563720D02*
X191000680Y-81326020D01*
X188421980Y-101303120D02*
X188409580Y-101315520D01*
X189298580Y-101303120D02*
X188421980Y-101303120D01*
D52*
X186327161Y-87676101D02*
X186326780Y-87675720D01*
X187425330Y-87676101D02*
X186327161Y-87676101D01*
X186354339Y-92677361D02*
X186352180Y-92679520D01*
X187425330Y-92677361D02*
X186354339Y-92677361D01*
X186380501Y-99178999D02*
X186377580Y-99181920D01*
X187425330Y-99178999D02*
X186380501Y-99178999D01*
X175399065Y-100649405D02*
X175379380Y-100629720D01*
X175399065Y-101702870D02*
X175399065Y-100649405D01*
X168397301Y-81221199D02*
X168394380Y-81224120D01*
X168397301Y-80150970D02*
X168397301Y-81221199D01*
D51*
X162399680Y-100426220D02*
X162399680Y-99651820D01*
D52*
X180400325Y-81206975D02*
X180383180Y-81224120D01*
X180400325Y-80150970D02*
X180400325Y-81206975D01*
D51*
X165257180Y-105838960D02*
X165257480Y-105839260D01*
X165257180Y-107147360D02*
X165257180Y-105838960D01*
X165257180Y-105838960D02*
X165257180Y-104670860D01*
X191000680Y-81326020D02*
X191000680Y-82100420D01*
D53*
X143522700Y-91656200D02*
X142761000Y-91656200D01*
X142761000Y-91656200D02*
X141998700Y-91656200D01*
X132004100Y-88709500D02*
X132004100Y-89471200D01*
X132004100Y-89471200D02*
X132004100Y-90233500D01*
D54*
X113884400Y-118396200D02*
X113227300Y-118396200D01*
X112977300Y-118146200D02*
X112184400Y-118146200D01*
X113227300Y-118396200D02*
X112977300Y-118146200D01*
X111974400Y-119776200D02*
X111974400Y-118937000D01*
X112184400Y-118727000D02*
X112184400Y-118146200D01*
X111974400Y-118937000D02*
X112184400Y-118727000D01*
X113884400Y-112896200D02*
X113048600Y-112896200D01*
X112798600Y-112646200D02*
X112184400Y-112646200D01*
X113048600Y-112896200D02*
X112798600Y-112646200D01*
X111974400Y-111516200D02*
X111974400Y-112152200D01*
X112184400Y-112362200D02*
X112184400Y-112646200D01*
X111974400Y-112152200D02*
X112184400Y-112362200D01*
X113884400Y-112896200D02*
X114433800Y-112896200D01*
X114433800Y-112896200D02*
X114808000Y-112522000D01*
X114808000Y-112522000D02*
X114808000Y-111810800D01*
X115074200Y-111544600D02*
X115747800Y-111544600D01*
X114808000Y-111810800D02*
X115074200Y-111544600D01*
X117246400Y-111544600D02*
X115747800Y-111544600D01*
D53*
X112217200Y-108619800D02*
X112217200Y-107759500D01*
X121716800Y-112471200D02*
X121691400Y-112496600D01*
X122539000Y-112471200D02*
X121716800Y-112471200D01*
X139623800Y-111582200D02*
X139649200Y-111607600D01*
X138752400Y-111582200D02*
X139623800Y-111582200D01*
X139674600Y-115239800D02*
X139687300Y-115252500D01*
X138752400Y-115239800D02*
X139674600Y-115239800D01*
X139649200Y-107924600D02*
X139674600Y-107950000D01*
X138752400Y-107924600D02*
X139649200Y-107924600D01*
X108283600Y-102922500D02*
X107418300Y-102922500D01*
X106530800Y-102035000D02*
X105708600Y-102035000D01*
X107418300Y-102922500D02*
X106530800Y-102035000D01*
X105708600Y-104260000D02*
X105708600Y-102035000D01*
X105708600Y-104260000D02*
X105708600Y-106960000D01*
X105708600Y-106960000D02*
X105708600Y-108785000D01*
X108283600Y-107897500D02*
X107392900Y-107897500D01*
X106505400Y-108785000D02*
X105708600Y-108785000D01*
X107392900Y-107897500D02*
X106505400Y-108785000D01*
X122298460Y-106525440D02*
X122303160Y-106530140D01*
X122298460Y-105692240D02*
X122298460Y-106525440D01*
D55*
X108368600Y-106060000D02*
X108368600Y-106710000D01*
X108368600Y-107812500D02*
X108283600Y-107897500D01*
X108368600Y-106710000D02*
X108368600Y-107812500D01*
X109453200Y-106710000D02*
X109474000Y-106730800D01*
X108368600Y-106710000D02*
X109453200Y-106710000D01*
X109412200Y-102922500D02*
X109435900Y-102946200D01*
X108283600Y-102922500D02*
X109412200Y-102922500D01*
D52*
X165873430Y-92677361D02*
X166952041Y-92677361D01*
X166952041Y-92677361D02*
X166959280Y-92684600D01*
D51*
X175684180Y-105280760D02*
X175684180Y-106123740D01*
X175684180Y-106123740D02*
X175722280Y-106161840D01*
D54*
X166903781Y-87676101D02*
X166913560Y-87685880D01*
X165873430Y-87676101D02*
X166903781Y-87676101D01*
D56*
X110920400Y-80036800D02*
X110935400Y-80051800D01*
X109665400Y-80036800D02*
X110920400Y-80036800D01*
X110935400Y-80051800D02*
X111781480Y-80051800D01*
X113253810Y-69680210D02*
X112975400Y-69401800D01*
X113253810Y-78290532D02*
X113253810Y-76047890D01*
X113545400Y-78582122D02*
X113253810Y-78290532D01*
X113545400Y-80051800D02*
X113545400Y-79158880D01*
X112975400Y-69401800D02*
X112068720Y-69401800D01*
X111321960Y-69401800D02*
X109790400Y-69401800D01*
X112068720Y-69401800D02*
X111321960Y-69401800D01*
X113253810Y-70409090D02*
X113253810Y-69680210D01*
X113253810Y-78290532D02*
X113253810Y-78290532D01*
X113253810Y-74203850D02*
X113253810Y-72197250D01*
X113253810Y-72197250D02*
X113253810Y-70409090D01*
X113253810Y-76047890D02*
X113253810Y-74203850D01*
X111781480Y-80051800D02*
X112523160Y-80051800D01*
X112523160Y-80051800D02*
X113545400Y-80051800D01*
X113545400Y-79158880D02*
X113545400Y-78582122D01*
D53*
X108035640Y-72776800D02*
X108041440Y-72771000D01*
X106985400Y-72776800D02*
X108035640Y-72776800D01*
D51*
X162323180Y-93212920D02*
X161563674Y-93212920D01*
X161563674Y-93212920D02*
X161524625Y-93173871D01*
D57*
X115468400Y-69722900D02*
X114325300Y-69722900D01*
X114004200Y-69401800D02*
X112975400Y-69401800D01*
X114325300Y-69722900D02*
X114004200Y-69401800D01*
X109588600Y-81483200D02*
X110490000Y-81483200D01*
X109665400Y-80036800D02*
X109665400Y-80631400D01*
X109588600Y-80708200D02*
X109588600Y-81483200D01*
X109665400Y-80631400D02*
X109588600Y-80708200D01*
D53*
X155467600Y-99669600D02*
X155467600Y-98399600D01*
X155467600Y-98399600D02*
X156921200Y-98399600D01*
X156921200Y-98399600D02*
X157530800Y-97790000D01*
X157124400Y-95859600D02*
X155467600Y-95859600D01*
X157530800Y-96266000D02*
X157124400Y-95859600D01*
X157530800Y-97790000D02*
X157530800Y-97028000D01*
X157530800Y-97028000D02*
X157530800Y-96266000D01*
D51*
X184607200Y-111899400D02*
X184607200Y-110401400D01*
D56*
X185368799Y-107847999D02*
X180086401Y-107847999D01*
X185826400Y-108305600D02*
X185368799Y-107847999D01*
X180086401Y-107847999D02*
X180086000Y-107848400D01*
X185826400Y-110286800D02*
X185826400Y-108305600D01*
X184607200Y-110401400D02*
X185711800Y-110401400D01*
X185826400Y-110286800D02*
X185711800Y-110401400D01*
X185661000Y-111899400D02*
X185724800Y-111963200D01*
X184607200Y-111899400D02*
X185661000Y-111899400D01*
X185724800Y-111963200D02*
X185724800Y-114096800D01*
X185724800Y-114096800D02*
X185064400Y-114757200D01*
X185064400Y-114757200D02*
X180086000Y-114757200D01*
D52*
X150610000Y-114894400D02*
X150610000Y-115558000D01*
X150685800Y-115633800D02*
X150685800Y-116382800D01*
X150610000Y-115558000D02*
X150685800Y-115633800D01*
X149556000Y-113944400D02*
X149860000Y-113944400D01*
X149110000Y-114390400D02*
X149556000Y-113944400D01*
X149110000Y-114894400D02*
X149110000Y-114390400D01*
X150610000Y-114390400D02*
X150164000Y-113944400D01*
X150610000Y-114894400D02*
X150610000Y-114390400D01*
X150164000Y-113944400D02*
X149860000Y-113944400D01*
X150610000Y-113498400D02*
X150164000Y-113944400D01*
X150610000Y-112994400D02*
X150610000Y-113498400D01*
X145574400Y-114194400D02*
X145324400Y-113944400D01*
X145574400Y-114894400D02*
X145574400Y-114194400D01*
X144520400Y-113944400D02*
X144824400Y-113944400D01*
X144074400Y-114390400D02*
X144520400Y-113944400D01*
X144074400Y-114894400D02*
X144074400Y-114390400D01*
X145128400Y-113944400D02*
X144824400Y-113944400D01*
X145574400Y-113498400D02*
X145128400Y-113944400D01*
X145574400Y-112994400D02*
X145574400Y-113498400D01*
D53*
X150685800Y-116382800D02*
X151587200Y-116382800D01*
D56*
X151942800Y-116027200D02*
X151587200Y-116382800D01*
X151942800Y-114719400D02*
X151942800Y-116027200D01*
X152671600Y-110439200D02*
X153670000Y-110439200D01*
X146913600Y-114719400D02*
X146913600Y-115874800D01*
X146456400Y-116332000D02*
X145656600Y-116332000D01*
X146913600Y-115874800D02*
X146456400Y-116332000D01*
X146558000Y-119126000D02*
X146558000Y-118211600D01*
X145656600Y-117310200D02*
X145656600Y-116332000D01*
X146558000Y-118211600D02*
X145656600Y-117310200D01*
X144018000Y-119126000D02*
X144018000Y-117957600D01*
X144665400Y-117310200D02*
X145656600Y-117310200D01*
X144018000Y-117957600D02*
X144665400Y-117310200D01*
D53*
X202641200Y-101676100D02*
X202641200Y-100279200D01*
D51*
X185399680Y-105113120D02*
X183875680Y-105113120D01*
D58*
X182900955Y-102747445D02*
X182880000Y-102768400D01*
X182900955Y-101702870D02*
X182900955Y-102747445D01*
D51*
X182110380Y-105113120D02*
X182872082Y-105113120D01*
X182887918Y-105113120D02*
X182880000Y-105105202D01*
X183875680Y-105113120D02*
X182887918Y-105113120D01*
D53*
X165846760Y-112702340D02*
X165867080Y-112722660D01*
X165846760Y-111912700D02*
X165846760Y-112702340D01*
D51*
X189184280Y-93718980D02*
X190061180Y-93718980D01*
X190061180Y-93718980D02*
X190068200Y-93726000D01*
D56*
X137896600Y-94703400D02*
X137896600Y-95580200D01*
X138150600Y-88353900D02*
X138150600Y-88341200D01*
D58*
X137900600Y-88103900D02*
X138150600Y-88353900D01*
X137900600Y-86416400D02*
X137900600Y-88103900D01*
D53*
X144500600Y-85547200D02*
X144510760Y-85557360D01*
X143573000Y-85547200D02*
X144500600Y-85547200D01*
X130375360Y-96012000D02*
X130380440Y-96017080D01*
X130375360Y-92339160D02*
X130375360Y-93195440D01*
X130375360Y-93195440D02*
X130375360Y-95212200D01*
X130375360Y-95212200D02*
X130375360Y-96012000D01*
D51*
X162310780Y-87340140D02*
X162306000Y-87335360D01*
X162310780Y-88209120D02*
X162310780Y-87340140D01*
D57*
X122298460Y-105673860D02*
X123842780Y-104129540D01*
X122298460Y-105692240D02*
X122298460Y-105673860D01*
D53*
X127243840Y-107934760D02*
X127243840Y-107241340D01*
X127243840Y-107241340D02*
X127485140Y-107000040D01*
X127485140Y-107000040D02*
X129552700Y-107000040D01*
X129783840Y-107231180D02*
X129783840Y-107934760D01*
X129552700Y-107000040D02*
X129783840Y-107231180D01*
X131053840Y-109204760D02*
X131053840Y-110022640D01*
X157530800Y-97028000D02*
X157530800Y-96598740D01*
D52*
X114310160Y-103456440D02*
X115224260Y-103456440D01*
X115585960Y-103456440D02*
X115772440Y-103642920D01*
X115224260Y-103456440D02*
X115585960Y-103456440D01*
X116426500Y-103642920D02*
X115772440Y-103642920D01*
D51*
X168314230Y-76347020D02*
X168217009Y-76444241D01*
X168940480Y-76347020D02*
X168314230Y-76347020D01*
X167416480Y-76334020D02*
X168106788Y-76334020D01*
X168106788Y-76334020D02*
X168217009Y-76444241D01*
D56*
X132816600Y-83934000D02*
X133591600Y-83934000D01*
X133591600Y-83934000D02*
X134366000Y-83934000D01*
X136423400Y-82422700D02*
X137211100Y-82422700D01*
X137211100Y-82422700D02*
X137985500Y-82422700D01*
D51*
X193059720Y-98264980D02*
X192222120Y-98264980D01*
D53*
X190239200Y-88995700D02*
X190220600Y-89014300D01*
X190842900Y-88995700D02*
X190239200Y-88995700D01*
D51*
X185399680Y-105113120D02*
X185399680Y-105935780D01*
X185399680Y-105935780D02*
X185407300Y-105943400D01*
D52*
X171061380Y-113344960D02*
X171061380Y-114386370D01*
X170743580Y-115465860D02*
X170743580Y-114704170D01*
X170743580Y-114704170D02*
X171061380Y-114386370D01*
X173042580Y-109382560D02*
X174965360Y-109382560D01*
X175186640Y-109191760D02*
X174980600Y-109397800D01*
X174965360Y-109382560D02*
X174980600Y-109397800D01*
X176179480Y-109191760D02*
X175186640Y-109191760D01*
D54*
X170055540Y-111363760D02*
X169570400Y-111848900D01*
X170070780Y-111363760D02*
X170055540Y-111363760D01*
D52*
X174898939Y-80150970D02*
X174898939Y-81084420D01*
X174898939Y-81084420D02*
X174750527Y-81232832D01*
X174750527Y-81232832D02*
X174396400Y-81232832D01*
D58*
X170070780Y-113344960D02*
X171061380Y-113344960D01*
D53*
X180045360Y-106050080D02*
X180060600Y-106065320D01*
X180045360Y-105123280D02*
X180045360Y-106050080D01*
D56*
X136029700Y-112712200D02*
X136029700Y-111848900D01*
X136029700Y-111848900D02*
X136017000Y-111836200D01*
X160512760Y-97109280D02*
X160502600Y-97119440D01*
X161277800Y-97109280D02*
X160512760Y-97109280D01*
D53*
X190842900Y-88995700D02*
X190842900Y-88018620D01*
X190962580Y-87898940D02*
X190962580Y-87167720D01*
X190842900Y-88018620D02*
X190898780Y-87962740D01*
X190898780Y-87962740D02*
X190962580Y-87898940D01*
D56*
X142204400Y-106974600D02*
X140952400Y-106974600D01*
X142773400Y-107543600D02*
X142204400Y-106974600D01*
X142392400Y-113411000D02*
X142773400Y-113030000D01*
X141211300Y-113411000D02*
X142392400Y-113411000D01*
X140952400Y-113669900D02*
X141211300Y-113411000D01*
X140952400Y-114289800D02*
X140952400Y-113669900D01*
X142770900Y-110632200D02*
X142773400Y-110629700D01*
X140952400Y-110632200D02*
X142770900Y-110632200D01*
X142773400Y-113030000D02*
X142773400Y-110629700D01*
X142773400Y-108966000D02*
X142773400Y-107543600D01*
X142773400Y-110629700D02*
X142773400Y-108966000D01*
D52*
X145074400Y-114894400D02*
X144574400Y-114894400D01*
D56*
X142773400Y-113030000D02*
X142773400Y-116103400D01*
X143002000Y-116332000D02*
X144106600Y-116332000D01*
X142773400Y-116103400D02*
X143002000Y-116332000D01*
X141478000Y-117856000D02*
X143002000Y-116332000D01*
X141478000Y-119126000D02*
X141478000Y-117856000D01*
D59*
X144574400Y-114894400D02*
X144574400Y-115166000D01*
X144106600Y-115633800D02*
X144106600Y-116332000D01*
X144574400Y-115166000D02*
X144106600Y-115633800D01*
D56*
X154228800Y-107543600D02*
X154871600Y-108186400D01*
X154871600Y-108186400D02*
X154871600Y-109489200D01*
X142773400Y-107543600D02*
X154228800Y-107543600D01*
D52*
X174398813Y-77925087D02*
X174414180Y-77909720D01*
X174398813Y-79055087D02*
X174414180Y-79039720D01*
X174398813Y-80150970D02*
X174398813Y-79055087D01*
X174398813Y-79055087D02*
X174398813Y-77925087D01*
X167897175Y-79355315D02*
X167429180Y-78887320D01*
X167897175Y-80150970D02*
X167897175Y-79355315D01*
X167416480Y-78874620D02*
X167429180Y-78887320D01*
X167416480Y-77884020D02*
X167416480Y-78874620D01*
X163893673Y-88176227D02*
X163860780Y-88209120D01*
X165873430Y-88176227D02*
X164754687Y-88176227D01*
X163908613Y-93177487D02*
X163873180Y-93212920D01*
X165873430Y-93177487D02*
X164701347Y-93177487D01*
X164701347Y-93177487D02*
X163908613Y-93177487D01*
X164754687Y-88176227D02*
X163893673Y-88176227D01*
X163976985Y-99679125D02*
X163949680Y-99651820D01*
X165873430Y-99679125D02*
X164725985Y-99679125D01*
X164725985Y-99679125D02*
X163976985Y-99679125D01*
X164725985Y-99679125D02*
X164725985Y-99319715D01*
X164866701Y-99178999D02*
X165873430Y-99178999D01*
X164725985Y-99319715D02*
X164866701Y-99178999D01*
X175670591Y-103717171D02*
X175684180Y-103730760D01*
X175899191Y-101702870D02*
X175899191Y-102876731D01*
X170397805Y-100709095D02*
X170400980Y-100705920D01*
X170397805Y-101702870D02*
X170397805Y-100709095D01*
X188587380Y-80563720D02*
X188561980Y-80589120D01*
X189450680Y-80563720D02*
X188587380Y-80563720D01*
X187425330Y-82174715D02*
X188205035Y-82174715D01*
X188561980Y-81817770D02*
X188561980Y-80589120D01*
X188205035Y-82174715D02*
X188561980Y-81817770D01*
X189404325Y-87175975D02*
X189412580Y-87167720D01*
X187425330Y-87175975D02*
X188544835Y-87175975D01*
X188544835Y-87175975D02*
X189404325Y-87175975D01*
X179900199Y-77910101D02*
X179925980Y-77884320D01*
X179900199Y-80150970D02*
X179900199Y-79039339D01*
X179900199Y-79039339D02*
X179900199Y-77910101D01*
D51*
X163949680Y-99651820D02*
X163949680Y-100452220D01*
D52*
X188607827Y-98678873D02*
X188612780Y-98673920D01*
X187425330Y-98678873D02*
X188607827Y-98678873D01*
X189298580Y-99753120D02*
X189298580Y-98902520D01*
X189069980Y-98673920D02*
X188612780Y-98673920D01*
X189298580Y-98902520D02*
X189069980Y-98673920D01*
D51*
X163949680Y-100452220D02*
X163949680Y-101239320D01*
D52*
X182400829Y-102498978D02*
X182123828Y-102775979D01*
X182400829Y-101702870D02*
X182400829Y-102498978D01*
X182110380Y-102789427D02*
X182123828Y-102775979D01*
X182110380Y-103563120D02*
X182110380Y-102789427D01*
D53*
X143522700Y-90106200D02*
X142785800Y-90106200D01*
X142785800Y-90106200D02*
X141998700Y-90106200D01*
D52*
X182400829Y-100783771D02*
X182427880Y-100756720D01*
X182400829Y-101702870D02*
X182400829Y-100783771D01*
D57*
X107188000Y-81483200D02*
X107137200Y-81432400D01*
X108038600Y-81483200D02*
X107188000Y-81483200D01*
D56*
X146913600Y-113169400D02*
X146913600Y-112268000D01*
X146710400Y-110490000D02*
X145930800Y-110490000D01*
X146913600Y-110693200D02*
X146710400Y-110490000D01*
X146913600Y-110845600D02*
X146913600Y-110693200D01*
X146913600Y-112268000D02*
X146913600Y-111556800D01*
X146913600Y-111556800D02*
X146913600Y-110845600D01*
D59*
X145074400Y-112994400D02*
X145074400Y-112481600D01*
X145074400Y-112481600D02*
X145237200Y-112318800D01*
X145237200Y-112318800D02*
X145592800Y-112318800D01*
X145930800Y-111980800D02*
X145930800Y-110490000D01*
X145592800Y-112318800D02*
X145930800Y-111980800D01*
D52*
X189176025Y-92177235D02*
X189184280Y-92168980D01*
X188416565Y-92177235D02*
X188417200Y-92176600D01*
X188365765Y-92177235D02*
X188416565Y-92177235D01*
X187425330Y-92177235D02*
X188365765Y-92177235D01*
X188365765Y-92177235D02*
X189176025Y-92177235D01*
D56*
X122745000Y-73563480D02*
X122760240Y-73548240D01*
X122745000Y-79629000D02*
X122745000Y-73563480D01*
X122760240Y-73548240D02*
X126095760Y-73548240D01*
X127254000Y-72390000D02*
X127254000Y-70866000D01*
X126095760Y-73548240D02*
X127254000Y-72390000D01*
D52*
X140996400Y-89103900D02*
X141998700Y-90106200D01*
X140088100Y-89103900D02*
X140996400Y-89103900D01*
D56*
X139446000Y-94703400D02*
X139446000Y-95605600D01*
D53*
X142785800Y-90106200D02*
X142785800Y-90106200D01*
D56*
X130340600Y-80568800D02*
X129540000Y-80568800D01*
D52*
X116426420Y-104142840D02*
X116426500Y-104142920D01*
X122297780Y-104142920D02*
X122298460Y-104142240D01*
X120301500Y-104142920D02*
X121277000Y-104142920D01*
X121277000Y-104142920D02*
X121259600Y-104160320D01*
X121277000Y-104142920D02*
X122297780Y-104142920D01*
X117967760Y-108077000D02*
X117957600Y-108066840D01*
X118697240Y-108077000D02*
X117967760Y-108077000D01*
D57*
X146743920Y-100886260D02*
X146743920Y-100128840D01*
X146743920Y-100128840D02*
X146743920Y-99402900D01*
D52*
X116426500Y-104142920D02*
X115866800Y-104142920D01*
X115866800Y-104172074D02*
X115866800Y-104142920D01*
X114310160Y-105006440D02*
X115032434Y-105006440D01*
X115420747Y-104618127D02*
X115435380Y-104632760D01*
X115032434Y-105006440D02*
X115420747Y-104618127D01*
X115420747Y-104618127D02*
X115866800Y-104172074D01*
X116416340Y-104632760D02*
X116426500Y-104642920D01*
X115435380Y-104632760D02*
X116416340Y-104632760D01*
X112570260Y-101922580D02*
X112547400Y-101899720D01*
X113325140Y-101922580D02*
X112570260Y-101922580D01*
D53*
X155467600Y-100939600D02*
X157327596Y-100939600D01*
X157327596Y-100939600D02*
X157327598Y-100939598D01*
D56*
X133375300Y-81508700D02*
X133375400Y-81508600D01*
X133375300Y-82448400D02*
X133375300Y-81508700D01*
X130599180Y-104241600D02*
X130589020Y-104231440D01*
X131902200Y-104241600D02*
X130599180Y-104241600D01*
X132562100Y-103581700D02*
X131902200Y-104241600D01*
X133375400Y-103581700D02*
X132562100Y-103581700D01*
D53*
X132323840Y-107934760D02*
X132323840Y-107165142D01*
X132323840Y-107165142D02*
X132321298Y-107162600D01*
X194652900Y-98247500D02*
X194640500Y-98259900D01*
X194652900Y-97392300D02*
X194661600Y-97383600D01*
X194652900Y-97409000D02*
X194652900Y-97392300D01*
X194652900Y-96195700D02*
X194652900Y-97409000D01*
X194652900Y-97409000D02*
X194652900Y-98247500D01*
X186880500Y-105130700D02*
X186880500Y-105968800D01*
D52*
X170070780Y-110373160D02*
X170059538Y-110361918D01*
X165846760Y-110362700D02*
X168321018Y-110362700D01*
X172051980Y-113344960D02*
X172051980Y-114360956D01*
X172293580Y-114602556D02*
X172051984Y-114360960D01*
X172051980Y-114360956D02*
X172051984Y-114360960D01*
X172293580Y-115465860D02*
X172293580Y-114602556D01*
X175684180Y-103091742D02*
X175899191Y-102876731D01*
X175684180Y-103730760D02*
X175684180Y-103091742D01*
X173042580Y-110373160D02*
X174980598Y-110373160D01*
X174980598Y-110373160D02*
X174980600Y-110373158D01*
X175349202Y-110741760D02*
X174980600Y-110373158D01*
X176179480Y-110741760D02*
X175349202Y-110741760D01*
D53*
X143573000Y-83972400D02*
X143573000Y-82982300D01*
X143573000Y-82982300D02*
X143573500Y-82981800D01*
D52*
X168788679Y-110830361D02*
X169613579Y-110830361D01*
X169613579Y-110830361D02*
X170070780Y-110373160D01*
X168321018Y-110362700D02*
X168788679Y-110830361D01*
D53*
X164346120Y-113058440D02*
X164343080Y-113055400D01*
X164346120Y-113939320D02*
X164346120Y-113058440D01*
X133858000Y-119126000D02*
X133858000Y-117810280D01*
X134226800Y-117441480D02*
X134226800Y-116580920D01*
X133858000Y-117810280D02*
X134226800Y-117441480D01*
D57*
X106004360Y-80299560D02*
X107137200Y-81432400D01*
X106004360Y-75356720D02*
X106004360Y-80299560D01*
X106384280Y-74976800D02*
X106004360Y-75356720D01*
X106985400Y-74976800D02*
X106384280Y-74976800D01*
X115468400Y-76771000D02*
X115468400Y-77957680D01*
X115468400Y-77957680D02*
X115493800Y-77983080D01*
D52*
X183901207Y-103537593D02*
X183875680Y-103563120D01*
X183401081Y-101702870D02*
X183401081Y-102657021D01*
X183494553Y-102750493D02*
X183901207Y-102750493D01*
X183401081Y-102657021D02*
X183494553Y-102750493D01*
X183901207Y-102750493D02*
X183901207Y-103537593D01*
X183901207Y-101702870D02*
X183901207Y-102750493D01*
D51*
X183875680Y-103563120D02*
X185399680Y-103563120D01*
X186873080Y-103563120D02*
X186880500Y-103555700D01*
X185399680Y-103563120D02*
X186873080Y-103563120D01*
X168742680Y-107147360D02*
X168762680Y-107127360D01*
X166807180Y-107147360D02*
X168742680Y-107147360D01*
D58*
X168981120Y-106248200D02*
X170129200Y-106248200D01*
X171898183Y-104479217D02*
X171898183Y-101702870D01*
X170129200Y-106248200D02*
X171898183Y-104479217D01*
X168762680Y-106466640D02*
X168981120Y-106248200D01*
X168762680Y-107127360D02*
X168762680Y-106466640D01*
X181864000Y-111963200D02*
X181864000Y-113000400D01*
X181254400Y-111353600D02*
X181864000Y-111963200D01*
X179628800Y-111353600D02*
X181254400Y-111353600D01*
X178899947Y-110624747D02*
X179628800Y-111353600D01*
X178899947Y-101702870D02*
X178899947Y-110624747D01*
D51*
X184607200Y-113449400D02*
X183909000Y-113449400D01*
X183460000Y-113000400D02*
X181864000Y-113000400D01*
X183909000Y-113449400D02*
X183460000Y-113000400D01*
X166850680Y-104627360D02*
X166807180Y-104670860D01*
X168762680Y-104627360D02*
X166850680Y-104627360D01*
D58*
X171398057Y-104313863D02*
X171398057Y-101702870D01*
X169016680Y-105684320D02*
X170027600Y-105684320D01*
X168762680Y-105430320D02*
X169016680Y-105684320D01*
X170027600Y-105684320D02*
X171398057Y-104313863D01*
X168762680Y-104627360D02*
X168762680Y-105430320D01*
D51*
X181864000Y-109300400D02*
X183307600Y-109300400D01*
X183756600Y-108851400D02*
X184607200Y-108851400D01*
X183307600Y-109300400D02*
X183756600Y-108851400D01*
D58*
X181864000Y-110337600D02*
X181864000Y-109300400D01*
X181254400Y-110947200D02*
X181864000Y-110337600D01*
X179933600Y-110947200D02*
X181254400Y-110947200D01*
X179247800Y-110261400D02*
X179933600Y-110947200D01*
X179247800Y-102727760D02*
X179247800Y-110261400D01*
X179400073Y-102575487D02*
X179247800Y-102727760D01*
X179400073Y-101702870D02*
X179400073Y-102575487D01*
D52*
X169091422Y-110361918D02*
X169080180Y-110373160D01*
D58*
X153162000Y-95859600D02*
X153163270Y-95860870D01*
X151567600Y-95859600D02*
X153162000Y-95859600D01*
D59*
X179900199Y-99138359D02*
X179900199Y-101702870D01*
X178757580Y-97995740D02*
X179900199Y-99138359D01*
D58*
X174363380Y-97995740D02*
X178757580Y-97995740D01*
X173487080Y-98872040D02*
X174363380Y-97995740D01*
X172100240Y-98872040D02*
X173487080Y-98872040D01*
X169080180Y-110373160D02*
X168290240Y-109583220D01*
X168290240Y-109583220D02*
X168290240Y-109580684D01*
D59*
X179900199Y-101702870D02*
X179900199Y-102623239D01*
X180045360Y-102768400D02*
X180045360Y-103573280D01*
X179900199Y-102623239D02*
X180045360Y-102768400D01*
D58*
X138363960Y-101092000D02*
X138699240Y-100756720D01*
X119550180Y-101092000D02*
X138363960Y-101092000D01*
X118864000Y-101778180D02*
X119550180Y-101092000D01*
X118864000Y-102705420D02*
X118864000Y-101778180D01*
D57*
X136398000Y-119126000D02*
X136398000Y-117866160D01*
X135876800Y-117344960D02*
X135876800Y-116580920D01*
X136398000Y-117866160D02*
X135876800Y-117344960D01*
D52*
X187425330Y-82674841D02*
X188279659Y-82674841D01*
X188854080Y-82100420D02*
X189450680Y-82100420D01*
X188279659Y-82674841D02*
X188854080Y-82100420D01*
X168897427Y-77940073D02*
X168940480Y-77897020D01*
X168897427Y-80150970D02*
X168897427Y-77940073D01*
X149610000Y-114894400D02*
X149610000Y-115413600D01*
X149135800Y-115887800D02*
X149135800Y-116382800D01*
X149610000Y-115413600D02*
X149135800Y-115887800D01*
X150110000Y-114894400D02*
X149610000Y-114894400D01*
D56*
X149098000Y-116420600D02*
X149135800Y-116382800D01*
X149098000Y-119126000D02*
X149098000Y-116420600D01*
D58*
X194652900Y-88195700D02*
X194652900Y-88995700D01*
X193884000Y-87426800D02*
X194652900Y-88195700D01*
X193095880Y-87426800D02*
X193884000Y-87426800D01*
X191643000Y-85973920D02*
X193095880Y-87426800D01*
X188473080Y-85973920D02*
X191643000Y-85973920D01*
X188271277Y-86175723D02*
X188473080Y-85973920D01*
X187425330Y-86175723D02*
X188271277Y-86175723D01*
X111241655Y-115548600D02*
X111067855Y-115722400D01*
X111561799Y-115548600D02*
X111241655Y-115548600D01*
X111659399Y-115646200D02*
X111561799Y-115548600D01*
X112184400Y-115646200D02*
X111659399Y-115646200D01*
X114789202Y-115493800D02*
X114963002Y-115320000D01*
X114507001Y-115493800D02*
X114789202Y-115493800D01*
X114409401Y-115396200D02*
X114507001Y-115493800D01*
X113884400Y-115396200D02*
X114409401Y-115396200D01*
X114963002Y-115320000D02*
X115136802Y-115493800D01*
X115136802Y-115493800D02*
X117686192Y-115493800D01*
X117686192Y-115493800D02*
X118358920Y-114821072D01*
X118358920Y-114821072D02*
X118358920Y-112829712D01*
X119863999Y-111521200D02*
X120539000Y-111521200D01*
X119066399Y-112318800D02*
X119863999Y-111521200D01*
X118869832Y-112318800D02*
X119066399Y-112318800D01*
X118358920Y-112829712D02*
X118869832Y-112318800D01*
X169897679Y-80830039D02*
X169897679Y-80150970D01*
X169989500Y-80921860D02*
X169897679Y-80830039D01*
X171221389Y-82384528D02*
X169989500Y-81152639D01*
X120539000Y-111521200D02*
X121214001Y-111521200D01*
X137681083Y-104221269D02*
X163266503Y-104221269D01*
X169151672Y-100076000D02*
X171221389Y-98006283D01*
X121535400Y-111842599D02*
X123171881Y-111842599D01*
X123171881Y-111842599D02*
X123648082Y-112318800D01*
X123648082Y-112318800D02*
X133363072Y-112318800D01*
X133363072Y-112318800D02*
X135501380Y-110180492D01*
X135501380Y-106400972D02*
X137681083Y-104221269D01*
X135501380Y-110180492D02*
X135501380Y-106400972D01*
X163266503Y-104221269D02*
X167411772Y-100076000D01*
X169989500Y-81152639D02*
X169989500Y-80921860D01*
X121214001Y-111521200D02*
X121535400Y-111842599D01*
X167411772Y-100076000D02*
X169151672Y-100076000D01*
X171221389Y-98006283D02*
X171221389Y-82384528D01*
X113884400Y-115896200D02*
X113445100Y-115896200D01*
X112695100Y-115146200D02*
X112184400Y-115146200D01*
X113445100Y-115896200D02*
X112695100Y-115146200D01*
X114789202Y-115798600D02*
X114963002Y-115972400D01*
X114507001Y-115798600D02*
X114789202Y-115798600D01*
X114409401Y-115896200D02*
X114507001Y-115798600D01*
X113884400Y-115896200D02*
X114409401Y-115896200D01*
X114963002Y-115972400D02*
X115136802Y-115798600D01*
X115136802Y-115798600D02*
X117812448Y-115798600D01*
X117812448Y-115798600D02*
X118663720Y-114947328D01*
X118663720Y-114947328D02*
X118663720Y-112955968D01*
X119863999Y-113421200D02*
X120539000Y-113421200D01*
X119066399Y-112623600D02*
X119863999Y-113421200D01*
X118996088Y-112623600D02*
X119066399Y-112623600D01*
X118663720Y-112955968D02*
X118996088Y-112623600D01*
X170397805Y-80828515D02*
X170397805Y-80150970D01*
X170309540Y-80916780D02*
X170397805Y-80828515D01*
X170309540Y-81041612D02*
X170309540Y-80916780D01*
X171526200Y-82258272D02*
X170309540Y-81041612D01*
X121214001Y-113421200D02*
X121535400Y-113099801D01*
X121535400Y-113099801D02*
X123171881Y-113099801D01*
X169277928Y-100380800D02*
X171526200Y-98132528D01*
X123171881Y-113099801D02*
X123648082Y-112623600D01*
X123648082Y-112623600D02*
X133489328Y-112623600D01*
X167538028Y-100380800D02*
X169277928Y-100380800D01*
X120539000Y-113421200D02*
X121214001Y-113421200D01*
X135806180Y-110306748D02*
X135806180Y-106527228D01*
X135806180Y-106527228D02*
X137807328Y-104526080D01*
X137807328Y-104526080D02*
X163392748Y-104526080D01*
X163392748Y-104526080D02*
X167538028Y-100380800D01*
X133489328Y-112623600D02*
X135806180Y-110306748D01*
X171526200Y-98132528D02*
X171526200Y-82258272D01*
D54*
X113884400Y-116896200D02*
X113213200Y-116896200D01*
X112963200Y-116646200D02*
X112184400Y-116646200D01*
X113213200Y-116896200D02*
X112963200Y-116646200D01*
X112184400Y-114146200D02*
X112927000Y-114146200D01*
X113177000Y-114396200D02*
X113884400Y-114396200D01*
X112927000Y-114146200D02*
X113177000Y-114396200D01*
X110618400Y-114146200D02*
X112184400Y-114146200D01*
X110032800Y-114731800D02*
X110618400Y-114146200D01*
X110032800Y-116446300D02*
X110032800Y-114731800D01*
X111258350Y-117106700D02*
X110693200Y-117106700D01*
X110693200Y-117106700D02*
X110032800Y-116446300D01*
X111718850Y-116646200D02*
X111258350Y-117106700D01*
X112184400Y-116646200D02*
X111718850Y-116646200D01*
D53*
X138752400Y-116189800D02*
X137894100Y-116189800D01*
X138123078Y-110632200D02*
X138752400Y-110632200D01*
X137819999Y-110935279D02*
X138123078Y-110632200D01*
X137894100Y-116189800D02*
X137819999Y-116115699D01*
X137983000Y-114289800D02*
X137819999Y-114452801D01*
X137819999Y-114452801D02*
X137819999Y-110935279D01*
X138752400Y-114289800D02*
X137983000Y-114289800D01*
X136041699Y-114274199D02*
X136029700Y-114262200D01*
X137819999Y-116115699D02*
X137819999Y-115290199D01*
X137819999Y-115290199D02*
X137819999Y-114452801D01*
D54*
X113884400Y-116896200D02*
X114915000Y-116896200D01*
X114915000Y-116896200D02*
X114935000Y-116916200D01*
D53*
X114935000Y-116916200D02*
X114528600Y-116916200D01*
X135991101Y-114223601D02*
X136029700Y-114262200D01*
X120599399Y-114223601D02*
X135991101Y-114223601D01*
X118333520Y-116489480D02*
X120599399Y-114223601D01*
X116108480Y-116489480D02*
X118333520Y-116489480D01*
X115681760Y-116916200D02*
X116108480Y-116489480D01*
X114935000Y-116916200D02*
X115681760Y-116916200D01*
X137629398Y-114262200D02*
X137819999Y-114452801D01*
X136029700Y-114262200D02*
X137629398Y-114262200D01*
D52*
X150110000Y-112490400D02*
X150281600Y-112318800D01*
X150110000Y-112994400D02*
X150110000Y-112490400D01*
X150281600Y-112318800D02*
X150672800Y-112318800D01*
X150672800Y-112318800D02*
X150977600Y-112014000D01*
X150960000Y-111996400D02*
X150960000Y-110490000D01*
X150977600Y-112014000D02*
X150960000Y-111996400D01*
D56*
X152671600Y-111640800D02*
X151942800Y-112369600D01*
X151942800Y-112369600D02*
X151942800Y-113169400D01*
X152671600Y-111389200D02*
X152671600Y-111640800D01*
X152671600Y-111389200D02*
X151043600Y-111389200D01*
X152671600Y-109489200D02*
X150960000Y-109489200D01*
X150960000Y-109489200D02*
X150960000Y-110490000D01*
D52*
X121493280Y-106685080D02*
X122016520Y-107208320D01*
X123842780Y-106606340D02*
X123842780Y-105679540D01*
X121493280Y-105275380D02*
X121493280Y-106685080D01*
X123240800Y-107208320D02*
X123842780Y-106606340D01*
X120860820Y-104642920D02*
X121493280Y-105275380D01*
X122016520Y-107208320D02*
X123240800Y-107208320D01*
X120301500Y-104642920D02*
X120860820Y-104642920D01*
D58*
X124596860Y-105679540D02*
X123842780Y-105679540D01*
X124752100Y-103416100D02*
X124752100Y-105524300D01*
X125359160Y-102809040D02*
X124752100Y-103416100D01*
X129072640Y-102809040D02*
X125359160Y-102809040D01*
X129374900Y-103111300D02*
X129072640Y-102809040D01*
X129374900Y-105143300D02*
X129374900Y-103111300D01*
X131701539Y-107469939D02*
X129374900Y-105143300D01*
X131701539Y-108582459D02*
X131701539Y-107469939D01*
X124752100Y-105524300D02*
X124596860Y-105679540D01*
X132323840Y-109204760D02*
X131701539Y-108582459D01*
X133375400Y-106794300D02*
X133375400Y-105231700D01*
X134569200Y-107988100D02*
X133375400Y-106794300D01*
X134569200Y-109016800D02*
X134569200Y-107988100D01*
X133959600Y-109626400D02*
X134569200Y-109016800D01*
X132745480Y-109626400D02*
X133959600Y-109626400D01*
X132323840Y-109204760D02*
X132745480Y-109626400D01*
X109576201Y-104932600D02*
X111739428Y-104932600D01*
X109403601Y-104760000D02*
X109576201Y-104932600D01*
X108368600Y-104760000D02*
X109403601Y-104760000D01*
X113167200Y-106569800D02*
X113167200Y-106619800D01*
X112369600Y-105772200D02*
X113167200Y-106569800D01*
X112369600Y-105562772D02*
X112369600Y-105772200D01*
X111739428Y-104932600D02*
X112369600Y-105562772D01*
X112800081Y-109298401D02*
X112369600Y-109298401D01*
X112845801Y-109252681D02*
X112800081Y-109298401D01*
X112845801Y-107616200D02*
X112845801Y-109252681D01*
X113167200Y-107294801D02*
X112845801Y-107616200D01*
X113167200Y-106619800D02*
X113167200Y-107294801D01*
X112369600Y-109298401D02*
X112369600Y-109614072D01*
X112369600Y-109614072D02*
X112534328Y-109778800D01*
X112534328Y-109778800D02*
X114059072Y-109778800D01*
X114059072Y-109778800D02*
X114528600Y-109309272D01*
X114528600Y-109309272D02*
X114528600Y-106058072D01*
X114528600Y-106058072D02*
X115346152Y-105240520D01*
X115862480Y-105142920D02*
X115764880Y-105240520D01*
X116426500Y-105142920D02*
X115862480Y-105142920D01*
X115346152Y-105240520D02*
X115764880Y-105240520D01*
X109576201Y-105237400D02*
X111613172Y-105237400D01*
X109403601Y-105410000D02*
X109576201Y-105237400D01*
X108368600Y-105410000D02*
X109403601Y-105410000D01*
X111267200Y-106569800D02*
X111267200Y-106619800D01*
X112064800Y-105772200D02*
X111267200Y-106569800D01*
X112064800Y-105689028D02*
X112064800Y-105772200D01*
X111613172Y-105237400D02*
X112064800Y-105689028D01*
X111634319Y-109298401D02*
X112064800Y-109298401D01*
X112064800Y-109298401D02*
X112064800Y-109740328D01*
X111588599Y-107616200D02*
X111588599Y-109252681D01*
X111267200Y-107294801D02*
X111588599Y-107616200D01*
X111588599Y-109252681D02*
X111634319Y-109298401D01*
X111267200Y-106619800D02*
X111267200Y-107294801D01*
X112064800Y-109740328D02*
X112408072Y-110083600D01*
X112408072Y-110083600D02*
X114185328Y-110083600D01*
X114185328Y-110083600D02*
X114833400Y-109435528D01*
X114833400Y-109435528D02*
X114833400Y-106184328D01*
X114833400Y-106184328D02*
X115472408Y-105545320D01*
X115853720Y-105642920D02*
X115756120Y-105545320D01*
X116426500Y-105642920D02*
X115853720Y-105642920D01*
X115472408Y-105545320D02*
X115756120Y-105545320D01*
D53*
X137819999Y-107277679D02*
X138123078Y-106974600D01*
X138123078Y-106974600D02*
X138752400Y-106974600D01*
X138123078Y-108874600D02*
X137819999Y-108571521D01*
X138752400Y-108874600D02*
X138123078Y-108874600D01*
X137819999Y-107937301D02*
X137819998Y-107937300D01*
X137819999Y-107937701D02*
X137819999Y-107937301D01*
X137819999Y-108571521D02*
X137819999Y-107937701D01*
X137819999Y-107937701D02*
X137819999Y-107277679D01*
X112971100Y-104110000D02*
X112966500Y-104114600D01*
X111082300Y-104110000D02*
X111086900Y-104114600D01*
X108368600Y-104110000D02*
X111082300Y-104110000D01*
X111691900Y-104110000D02*
X111696500Y-104114600D01*
X111688400Y-104110000D02*
X111691900Y-104110000D01*
X111082300Y-104110000D02*
X111688400Y-104110000D01*
X112326900Y-104110000D02*
X112323400Y-104110000D01*
X112323400Y-104110000D02*
X112318800Y-104114600D01*
X111688400Y-104110000D02*
X112326900Y-104110000D01*
X112326900Y-104110000D02*
X112971100Y-104110000D01*
D52*
X120361500Y-106142920D02*
X120910470Y-106142920D01*
X121086870Y-106319320D02*
X121086870Y-107812850D01*
X120910470Y-106142920D02*
X121086870Y-106319320D01*
X120822720Y-108077000D02*
X120347240Y-108077000D01*
X121086870Y-107812850D02*
X120822720Y-108077000D01*
D53*
X120347240Y-108077000D02*
X123708160Y-108077000D01*
X123708160Y-108077000D02*
X125877320Y-105907840D01*
X125877320Y-105907840D02*
X125877320Y-104790240D01*
X126436120Y-104231440D02*
X128049020Y-104231440D01*
X125877320Y-104790240D02*
X126436120Y-104231440D01*
D58*
X151567600Y-99669600D02*
X149649180Y-99669600D01*
X149382480Y-99402900D02*
X148393920Y-99402900D01*
X149649180Y-99669600D02*
X149382480Y-99402900D01*
X153306780Y-99669600D02*
X153332180Y-99644200D01*
X151567600Y-99669600D02*
X153306780Y-99669600D01*
X153332180Y-101209333D02*
X153332180Y-99644200D01*
X152103313Y-102438200D02*
X153332180Y-101209333D01*
X122097800Y-102438200D02*
X152103313Y-102438200D01*
X120893080Y-103642920D02*
X122097800Y-102438200D01*
X120301500Y-103642920D02*
X120893080Y-103642920D01*
X166705280Y-82174715D02*
X168909989Y-84379424D01*
X165873430Y-82174715D02*
X166705280Y-82174715D01*
X169092742Y-96804342D02*
X168909989Y-96621589D01*
X169092742Y-97315158D02*
X169092742Y-96804342D01*
X168909989Y-84379424D02*
X168909989Y-96621589D01*
X149278340Y-100939600D02*
X149225000Y-100886260D01*
X149225000Y-100886260D02*
X148393920Y-100886260D01*
X151567600Y-100939600D02*
X149278340Y-100939600D01*
X120859680Y-103142920D02*
X120361500Y-103142920D01*
X121930160Y-102072440D02*
X120859680Y-103142920D01*
X148005800Y-102072440D02*
X121930160Y-102072440D01*
X148393920Y-101684320D02*
X148005800Y-102072440D01*
X148393920Y-100886260D02*
X148393920Y-101684320D01*
X169214800Y-96189800D02*
X169805350Y-96780350D01*
X169214800Y-81059021D02*
X169214800Y-96189800D01*
X169265728Y-81013301D02*
X169220008Y-81059021D01*
X169265728Y-80282795D02*
X169265728Y-81013301D01*
X169397553Y-80150970D02*
X169265728Y-80282795D01*
X169220008Y-81059021D02*
X169214800Y-81059021D01*
X170897931Y-80982820D02*
X171907189Y-81992078D01*
X170897931Y-80150970D02*
X170897931Y-80982820D01*
X171907189Y-95585425D02*
X171907189Y-95183949D01*
X172413212Y-96091448D02*
X171907189Y-95585425D01*
X171907189Y-81992078D02*
X171907189Y-95183949D01*
X120197880Y-101721920D02*
X142054580Y-101721920D01*
X142054580Y-101721920D02*
X143733520Y-100042980D01*
X119864000Y-102055800D02*
X120197880Y-101721920D01*
X119864000Y-102645420D02*
X119864000Y-102055800D01*
X171398057Y-81051880D02*
X172212000Y-81865823D01*
X171398057Y-80150970D02*
X171398057Y-81051880D01*
X172984160Y-95775780D02*
X172212000Y-95003620D01*
X172212000Y-95003620D02*
X172212000Y-94681040D01*
X172212000Y-81865823D02*
X172212000Y-94681040D01*
X119364000Y-102705420D02*
X119364000Y-101918260D01*
X119364000Y-101918260D02*
X119870220Y-101412040D01*
X119870220Y-101412040D02*
X141018260Y-101412040D01*
X141018260Y-101412040D02*
X142003780Y-100426520D01*
X138900600Y-91047000D02*
X139268200Y-91414600D01*
X138900600Y-90291400D02*
X138900600Y-91047000D01*
X180900451Y-101702870D02*
X180900451Y-97773871D01*
X180900451Y-97773871D02*
X177269140Y-94142560D01*
X184901459Y-98866579D02*
X183047640Y-97012760D01*
X184901459Y-101702870D02*
X184901459Y-98866579D01*
X143573000Y-87096600D02*
X144744440Y-87096600D01*
X144744440Y-87096600D02*
X146588480Y-88940640D01*
X138400600Y-90291400D02*
X138400600Y-91410600D01*
X139446000Y-92456000D02*
X139446000Y-93053400D01*
X138400600Y-91410600D02*
X139090400Y-92100400D01*
X139090400Y-92100400D02*
X139446000Y-92456000D01*
X185401585Y-97952255D02*
X182140527Y-94691197D01*
X182140527Y-94691197D02*
X178775357Y-94691197D01*
X185401585Y-101702870D02*
X185401585Y-97952255D01*
X143573000Y-88620600D02*
X144322800Y-88620600D01*
X144322800Y-88620600D02*
X145465800Y-89763600D01*
X181437280Y-93207840D02*
X176128680Y-93207840D01*
X184907809Y-96678369D02*
X181437280Y-93207840D01*
X187425330Y-96678369D02*
X184907809Y-96678369D01*
X143585200Y-93167200D02*
X144399000Y-93167200D01*
X181680039Y-92708919D02*
X174758159Y-92708919D01*
X185149363Y-96178243D02*
X181680039Y-92708919D01*
X187425330Y-96178243D02*
X185149363Y-96178243D01*
X143598400Y-94716600D02*
X144424400Y-94716600D01*
X187425330Y-95678117D02*
X185304557Y-95678117D01*
X185304557Y-95678117D02*
X181818280Y-92191840D01*
X181818280Y-92191840D02*
X173248320Y-92191840D01*
X156279977Y-90676857D02*
X153832560Y-88229440D01*
X165873430Y-90676857D02*
X156279977Y-90676857D01*
X139573000Y-85598000D02*
X139827000Y-85598000D01*
X139400600Y-85770400D02*
X139573000Y-85598000D01*
X139400600Y-86416400D02*
X139400600Y-85770400D01*
X165873430Y-91677109D02*
X156531819Y-91677109D01*
X156531819Y-91677109D02*
X153115455Y-88260745D01*
X138900600Y-86416400D02*
X138900600Y-85555383D01*
X165873430Y-92177235D02*
X156302075Y-92177235D01*
X156302075Y-92177235D02*
X153146760Y-89021920D01*
X138400600Y-85822600D02*
X138176000Y-85598000D01*
X138400600Y-86416400D02*
X138400600Y-85822600D01*
D52*
X137400600Y-90291400D02*
X137400600Y-91783600D01*
X137400600Y-91783600D02*
X136931400Y-92252800D01*
X136931400Y-92252800D02*
X136931400Y-94005400D01*
X136931400Y-94005400D02*
X136347200Y-94589600D01*
X136347200Y-94589600D02*
X134797800Y-94589600D01*
X134594600Y-94792800D02*
X134594600Y-96033200D01*
X134797800Y-94589600D02*
X134594600Y-94792800D01*
D53*
X134578480Y-96017080D02*
X134594600Y-96033200D01*
X131930440Y-96017080D02*
X134578480Y-96017080D01*
D52*
X134950200Y-93853000D02*
X134594600Y-93497400D01*
X136271000Y-93853000D02*
X134950200Y-93853000D01*
X136525000Y-93599000D02*
X136271000Y-93853000D01*
X134594600Y-93497400D02*
X134594600Y-92333200D01*
X136525000Y-91973400D02*
X136525000Y-93599000D01*
X136900600Y-91597800D02*
X136525000Y-91973400D01*
X136900600Y-90291400D02*
X136900600Y-91597800D01*
D53*
X134588640Y-92339160D02*
X134594600Y-92333200D01*
X131925360Y-92339160D02*
X134588640Y-92339160D01*
D56*
X136423400Y-83972700D02*
X137985500Y-83972700D01*
D52*
X136423400Y-84683600D02*
X136423400Y-83972700D01*
X135559800Y-85547200D02*
X136423400Y-84683600D01*
X135559800Y-86944200D02*
X135559800Y-85547200D01*
X135719500Y-87103900D02*
X135559800Y-86944200D01*
X136213100Y-87103900D02*
X135719500Y-87103900D01*
D60*
X125564818Y-84098300D02*
X124396418Y-84098300D01*
X124396418Y-84098300D02*
X123696900Y-84797818D01*
X123696900Y-84797818D02*
X123696900Y-85572955D01*
X123696900Y-85572955D02*
X123698355Y-85572955D01*
X123698355Y-85572955D02*
X124079000Y-85953600D01*
X124079000Y-88532700D02*
X125246400Y-89700100D01*
X124079000Y-85953600D02*
X124079000Y-88532700D01*
X125564818Y-84098300D02*
X125779700Y-83883418D01*
X125779700Y-83883418D02*
X125779700Y-83197618D01*
X125779700Y-83197618D02*
X126784018Y-82193300D01*
X126784018Y-82193300D02*
X129044782Y-82193300D01*
X129044782Y-82193300D02*
X131192100Y-84340618D01*
X131192100Y-84340618D02*
X131192100Y-85763018D01*
X131192100Y-85763018D02*
X131711782Y-86282700D01*
X131711782Y-86282700D02*
X134384666Y-86282700D01*
X134384666Y-86282700D02*
X134719060Y-86617094D01*
X134719060Y-86617094D02*
X134719060Y-88146174D01*
X134719060Y-88146174D02*
X134787086Y-88214200D01*
X135598980Y-88103900D02*
X135488680Y-88214200D01*
X136213100Y-88103900D02*
X135598980Y-88103900D01*
X134787086Y-88214200D02*
X135488680Y-88214200D01*
X124194209Y-85636100D02*
X125246400Y-85636100D01*
X124003900Y-84924982D02*
X124003900Y-85445791D01*
X124523582Y-84405300D02*
X124003900Y-84924982D01*
X126086700Y-84010582D02*
X125691982Y-84405300D01*
X126086700Y-83324782D02*
X126086700Y-84010582D01*
X126911182Y-82500300D02*
X126086700Y-83324782D01*
X128917618Y-82500300D02*
X126911182Y-82500300D01*
X130885100Y-84467782D02*
X128917618Y-82500300D01*
X130885100Y-85890182D02*
X130885100Y-84467782D01*
X131584618Y-86589700D02*
X130885100Y-85890182D01*
X133308794Y-86592885D02*
X133280534Y-86589700D01*
X133335637Y-86602277D02*
X133308794Y-86592885D01*
X133359717Y-86617408D02*
X133335637Y-86602277D01*
X133379826Y-86637517D02*
X133359717Y-86617408D01*
X133404349Y-86688440D02*
X133394957Y-86661597D01*
X133407534Y-86716700D02*
X133404349Y-86688440D01*
X134439660Y-86732826D02*
X134296534Y-86589700D01*
X133987430Y-88335923D02*
X133963350Y-88320792D01*
X133733430Y-86602277D02*
X133709350Y-86617408D01*
X134042534Y-88348499D02*
X134014273Y-88345315D01*
X134097637Y-88335923D02*
X134070794Y-88345315D01*
X133788534Y-86589700D02*
X133760273Y-86592885D01*
X134166349Y-88249760D02*
X134156957Y-88276603D01*
X133589637Y-87085923D02*
X133562794Y-87095315D01*
X133280534Y-86589700D02*
X131584618Y-86589700D01*
X134162800Y-86702900D02*
X134162800Y-88207699D01*
X134197241Y-86637517D02*
X134182110Y-86661597D01*
X133963350Y-88320792D02*
X133943241Y-88300683D01*
X135624380Y-88603900D02*
X135514080Y-88493600D01*
X133912349Y-86688440D02*
X133902957Y-86661597D01*
X124003900Y-85445791D02*
X124194209Y-85636100D01*
X133410718Y-86999760D02*
X133407534Y-86971499D01*
X135514080Y-88493600D02*
X134671354Y-88493600D01*
X133915534Y-86716700D02*
X133912349Y-86688440D01*
X134014273Y-88345315D02*
X133987430Y-88335923D01*
X133661534Y-86971499D02*
X133658349Y-86999760D01*
X136213100Y-88603900D02*
X135624380Y-88603900D01*
X134156957Y-88276603D02*
X134141826Y-88300683D01*
X134169534Y-88221499D02*
X134166349Y-88249760D01*
X133394957Y-86661597D02*
X133379826Y-86637517D01*
X133664718Y-86688440D02*
X133661534Y-86716700D01*
X133943241Y-88300683D02*
X133928110Y-88276603D01*
X134182110Y-86661597D02*
X134172718Y-86688440D01*
X133760273Y-86592885D02*
X133733430Y-86602277D01*
X133506273Y-87095315D02*
X133479430Y-87085923D01*
X133674110Y-86661597D02*
X133664718Y-86688440D01*
X134268273Y-86592885D02*
X134241430Y-86602277D01*
X133867717Y-86617408D02*
X133843637Y-86602277D01*
X134296534Y-86589700D02*
X134268273Y-86592885D01*
X125691982Y-84405300D02*
X124523582Y-84405300D01*
X134439660Y-88261906D02*
X134439660Y-86732826D01*
X134241430Y-86602277D02*
X134217350Y-86617408D01*
X133915534Y-88221499D02*
X133915534Y-86716700D01*
X134141826Y-88300683D02*
X134121717Y-88320792D01*
X133918718Y-88249760D02*
X133915534Y-88221499D01*
X134070794Y-88345315D02*
X134042534Y-88348499D01*
X134217350Y-86617408D02*
X134197241Y-86637517D01*
X134671354Y-88493600D02*
X134439660Y-88261906D01*
X134172718Y-86688440D02*
X134169534Y-86716700D01*
X133816794Y-86592885D02*
X133788534Y-86589700D01*
X133928110Y-88276603D02*
X133918718Y-88249760D01*
X133902957Y-86661597D02*
X133887826Y-86637517D01*
X133843637Y-86602277D02*
X133816794Y-86592885D01*
X133420110Y-87026603D02*
X133410718Y-86999760D01*
X133709350Y-86617408D02*
X133689241Y-86637517D01*
X133661534Y-86716700D02*
X133661534Y-86971499D01*
X133689241Y-86637517D02*
X133674110Y-86661597D01*
X133658349Y-86999760D02*
X133648957Y-87026603D01*
X134121717Y-88320792D02*
X134097637Y-88335923D01*
X133648957Y-87026603D02*
X133633826Y-87050683D01*
X133633826Y-87050683D02*
X133613717Y-87070792D01*
X133613717Y-87070792D02*
X133589637Y-87085923D01*
X133562794Y-87095315D02*
X133534534Y-87098499D01*
X133534534Y-87098499D02*
X133506273Y-87095315D01*
X133479430Y-87085923D02*
X133455350Y-87070792D01*
X133455350Y-87070792D02*
X133435241Y-87050683D01*
X133435241Y-87050683D02*
X133420110Y-87026603D01*
X133887826Y-86637517D02*
X133867717Y-86617408D01*
X133407534Y-86971499D02*
X133407534Y-86716700D01*
X126619000Y-87516700D02*
X127786400Y-88684100D01*
X126619000Y-84785200D02*
X126619000Y-87516700D01*
X126414700Y-84580900D02*
X126619000Y-84785200D01*
X136213100Y-89103900D02*
X135645460Y-89103900D01*
X135645460Y-89103900D02*
X135535160Y-89214200D01*
X133413500Y-89101214D02*
X133413500Y-87857418D01*
X135535160Y-89214200D02*
X133526486Y-89214200D01*
X133526486Y-89214200D02*
X133413500Y-89101214D01*
X130252300Y-86652018D02*
X130252300Y-84696218D01*
X133413500Y-87857418D02*
X132803982Y-87247900D01*
X132803982Y-87247900D02*
X130848182Y-87247900D01*
X130848182Y-87247900D02*
X130252300Y-86652018D01*
X128663782Y-83107700D02*
X126936418Y-83107700D01*
X130252300Y-84696218D02*
X128663782Y-83107700D01*
X126936418Y-83107700D02*
X126414700Y-83629418D01*
X126414700Y-83629418D02*
X126414700Y-84580900D01*
X135664260Y-89603900D02*
X136213100Y-89603900D01*
X134982016Y-89521307D02*
X135006096Y-89506176D01*
X134934200Y-90185281D02*
X134934200Y-89620600D01*
X134931015Y-90213541D02*
X134934200Y-90185281D01*
X134921623Y-90240384D02*
X134931015Y-90213541D01*
X134862303Y-90299704D02*
X134886383Y-90284573D01*
X134835460Y-90309096D02*
X134862303Y-90299704D01*
X134807200Y-90312281D02*
X134835460Y-90309096D01*
X134778939Y-90309096D02*
X134807200Y-90312281D01*
X134752096Y-90299704D02*
X134778939Y-90309096D01*
X134683384Y-90213541D02*
X134692776Y-90240384D01*
X134680200Y-90185281D02*
X134683384Y-90213541D01*
X134632383Y-89521307D02*
X134652492Y-89541416D01*
X134961907Y-89541416D02*
X134982016Y-89521307D01*
X134553200Y-89493600D02*
X134581460Y-89496784D01*
X134524939Y-89496784D02*
X134553200Y-89493600D01*
X134498096Y-89506176D02*
X134524939Y-89496784D01*
X134474016Y-89521307D02*
X134498096Y-89506176D01*
X134453907Y-89541416D02*
X134474016Y-89521307D01*
X134438776Y-89565496D02*
X134453907Y-89541416D01*
X134398492Y-90264464D02*
X134413623Y-90240384D01*
X134378383Y-90284573D02*
X134398492Y-90264464D01*
X134354303Y-90299704D02*
X134378383Y-90284573D01*
X134728016Y-90284573D02*
X134752096Y-90299704D01*
X134327460Y-90309096D02*
X134354303Y-90299704D01*
X133712016Y-90284573D02*
X133736096Y-90299704D01*
X133661015Y-89592339D02*
X133664200Y-89620600D01*
X133636492Y-89541416D02*
X133651623Y-89565496D01*
X129945300Y-86779182D02*
X130721018Y-87554900D01*
X133667384Y-90213541D02*
X133676776Y-90240384D01*
X133592303Y-89506176D02*
X133616383Y-89521307D01*
X133565460Y-89496784D02*
X133592303Y-89506176D01*
X135032939Y-89496784D02*
X135061200Y-89493600D01*
X134677015Y-89592339D02*
X134680200Y-89620600D01*
X133905623Y-90240384D02*
X133915015Y-90213541D01*
X133736096Y-90299704D02*
X133762939Y-90309096D01*
X126721700Y-84376860D02*
X126721700Y-83756582D01*
X133945907Y-89541416D02*
X133966016Y-89521307D01*
X134946776Y-89565496D02*
X134961907Y-89541416D01*
X134608303Y-89506176D02*
X134632383Y-89521307D01*
X133537200Y-89493600D02*
X133565460Y-89496784D01*
X127063582Y-83414700D02*
X128536618Y-83414700D01*
X134934200Y-89620600D02*
X134937384Y-89592339D01*
X127786400Y-84620100D02*
X126964940Y-84620100D01*
X129945300Y-84823382D02*
X129945300Y-86779182D01*
X133691907Y-90264464D02*
X133712016Y-90284573D01*
X134172200Y-90185281D02*
X134175384Y-90213541D01*
X133791200Y-90312281D02*
X133819460Y-90309096D01*
X133819460Y-90309096D02*
X133846303Y-90299704D01*
X133676776Y-90240384D02*
X133691907Y-90264464D01*
X133410754Y-89493600D02*
X133537200Y-89493600D01*
X128536618Y-83414700D02*
X129945300Y-84823382D01*
X133616383Y-89521307D02*
X133636492Y-89541416D01*
X135553960Y-89493600D02*
X135664260Y-89603900D01*
X126721700Y-83756582D02*
X127063582Y-83414700D01*
X133664200Y-90185281D02*
X133667384Y-90213541D01*
X134886383Y-90284573D02*
X134906492Y-90264464D01*
X133651623Y-89565496D02*
X133661015Y-89592339D01*
X135006096Y-89506176D02*
X135032939Y-89496784D01*
X134667623Y-89565496D02*
X134677015Y-89592339D01*
X130721018Y-87554900D02*
X132676818Y-87554900D01*
X133134100Y-89216946D02*
X133410754Y-89493600D01*
X134652492Y-89541416D02*
X134667623Y-89565496D01*
X126964940Y-84620100D02*
X126721700Y-84376860D01*
X133134100Y-88012182D02*
X133134100Y-89216946D01*
X132676818Y-87554900D02*
X133134100Y-88012182D01*
X133846303Y-90299704D02*
X133870383Y-90284573D01*
X133870383Y-90284573D02*
X133890492Y-90264464D01*
X134937384Y-89592339D02*
X134946776Y-89565496D01*
X133890492Y-90264464D02*
X133905623Y-90240384D01*
X133915015Y-90213541D02*
X133918200Y-90185281D01*
X133918200Y-89620600D02*
X133921384Y-89592339D01*
X134299200Y-90312281D02*
X134327460Y-90309096D01*
X133921384Y-89592339D02*
X133930776Y-89565496D01*
X134906492Y-90264464D02*
X134921623Y-90240384D01*
X133930776Y-89565496D02*
X133945907Y-89541416D01*
X133966016Y-89521307D02*
X133990096Y-89506176D01*
X134581460Y-89496784D02*
X134608303Y-89506176D01*
X134184776Y-90240384D02*
X134199907Y-90264464D01*
X134220016Y-90284573D02*
X134244096Y-90299704D01*
X134073460Y-89496784D02*
X134100303Y-89506176D01*
X134100303Y-89506176D02*
X134124383Y-89521307D01*
X135061200Y-89493600D02*
X135553960Y-89493600D01*
X134680200Y-89620600D02*
X134680200Y-90185281D01*
X134413623Y-90240384D02*
X134423015Y-90213541D01*
X133664200Y-89620600D02*
X133664200Y-90185281D01*
X134124383Y-89521307D02*
X134144492Y-89541416D01*
X134692776Y-90240384D02*
X134707907Y-90264464D01*
X134426200Y-90185281D02*
X134426200Y-89620600D01*
X133990096Y-89506176D02*
X134016939Y-89496784D01*
X134159623Y-89565496D02*
X134169015Y-89592339D01*
X134423015Y-90213541D02*
X134426200Y-90185281D01*
X133918200Y-90185281D02*
X133918200Y-89620600D01*
X134144492Y-89541416D02*
X134159623Y-89565496D01*
X134707907Y-90264464D02*
X134728016Y-90284573D01*
X134426200Y-89620600D02*
X134429384Y-89592339D01*
X134016939Y-89496784D02*
X134045200Y-89493600D01*
X134169015Y-89592339D02*
X134172200Y-89620600D01*
X134429384Y-89592339D02*
X134438776Y-89565496D01*
X134045200Y-89493600D02*
X134073460Y-89496784D01*
X134172200Y-89620600D02*
X134172200Y-90185281D01*
X134175384Y-90213541D02*
X134184776Y-90240384D01*
X134199907Y-90264464D02*
X134220016Y-90284573D01*
X134244096Y-90299704D02*
X134270939Y-90309096D01*
X133762939Y-90309096D02*
X133791200Y-90312281D01*
X134270939Y-90309096D02*
X134299200Y-90312281D01*
D52*
X137900600Y-93049400D02*
X137896600Y-93053400D01*
X137900600Y-90291400D02*
X137900600Y-93049400D01*
D58*
X136900600Y-85944200D02*
X136550400Y-85594000D01*
X136900600Y-86416400D02*
X136900600Y-85944200D01*
X161090229Y-90176731D02*
X165873430Y-90176731D01*
X156480891Y-90176731D02*
X161090229Y-90176731D01*
X153659840Y-87355680D02*
X156480891Y-90176731D01*
D57*
X115468400Y-75121000D02*
X115468400Y-71297900D01*
D58*
X188939595Y-97178495D02*
X190703166Y-98942066D01*
X187425330Y-97178495D02*
X188939595Y-97178495D01*
X190703199Y-114833401D02*
X190337440Y-115199160D01*
X190703199Y-98942099D02*
X190703199Y-114833401D01*
X190703166Y-98942066D02*
X190703199Y-98942099D01*
X184564375Y-117729055D02*
X170814945Y-117729055D01*
X187425330Y-99679125D02*
X188257180Y-99679125D01*
X188257180Y-99679125D02*
X188328300Y-99750245D01*
X188328300Y-100238560D02*
X187425330Y-101141530D01*
X188000640Y-102910640D02*
X188000640Y-114292790D01*
X188000640Y-114292790D02*
X184564375Y-117729055D01*
X187425330Y-102335330D02*
X188000640Y-102910640D01*
X187425330Y-101141530D02*
X187425330Y-102335330D01*
X188328300Y-99750245D02*
X188328300Y-100238560D01*
X170814945Y-117729055D02*
X169418000Y-119126000D01*
X184629933Y-102763320D02*
X184401333Y-102534720D01*
X187584110Y-114278254D02*
X187584110Y-103151646D01*
X187584110Y-103151646D02*
X187195784Y-102763320D01*
X184438120Y-117424244D02*
X187584110Y-114278254D01*
X184401333Y-102534720D02*
X184401333Y-101702870D01*
X168579756Y-117424244D02*
X184438120Y-117424244D01*
X166878000Y-119126000D02*
X168579756Y-117424244D01*
X187195784Y-102763320D02*
X184629933Y-102763320D01*
X181900703Y-102496196D02*
X181406770Y-102990129D01*
X186964630Y-114466670D02*
X184311867Y-117119433D01*
X186964630Y-107834133D02*
X186964630Y-114466670D01*
X185702510Y-106572011D02*
X186964630Y-107834133D01*
X182452767Y-106572009D02*
X185702510Y-106572011D01*
X181406770Y-105526012D02*
X182452767Y-106572009D01*
X181406770Y-102990129D02*
X181406770Y-105526012D01*
X181900703Y-101702870D02*
X181900703Y-102496196D01*
X184311867Y-117119433D02*
X166344567Y-117119433D01*
X166344567Y-117119433D02*
X164338000Y-119126000D01*
X164109378Y-116814622D02*
X184185611Y-116814622D01*
X184185611Y-116814622D02*
X186659819Y-114340414D01*
X186659819Y-114340414D02*
X186659819Y-107960389D01*
X181101959Y-105652267D02*
X181101959Y-102833338D01*
X161798000Y-119126000D02*
X164109378Y-116814622D01*
X181101959Y-102833338D02*
X181400577Y-102534720D01*
X181400577Y-102534720D02*
X181400577Y-101702870D01*
X185576252Y-106876820D02*
X182326511Y-106876819D01*
X186659819Y-107960389D02*
X185576252Y-106876820D01*
X182326511Y-106876819D02*
X181101959Y-105652267D01*
X182232026Y-107213400D02*
X185481765Y-107213400D01*
X186355008Y-108086645D02*
X186355008Y-114214158D01*
X186355008Y-114214158D02*
X184059355Y-116509811D01*
X184059355Y-116509811D02*
X161874189Y-116509811D01*
X161874189Y-116509811D02*
X159258000Y-119126000D01*
X185481765Y-107213400D02*
X186355008Y-108086645D01*
X181054873Y-106036247D02*
X180797149Y-105778523D01*
X181054873Y-106036247D02*
X182232026Y-107213400D01*
X180797149Y-102916939D02*
X180400325Y-102520115D01*
X180797149Y-105778523D02*
X180797149Y-102916939D01*
X180400325Y-101702870D02*
X180400325Y-102520115D01*
X158470600Y-116205000D02*
X156718000Y-117957600D01*
X175051720Y-116205000D02*
X158470600Y-116205000D01*
X178399821Y-112856899D02*
X175051720Y-116205000D01*
X156718000Y-117957600D02*
X156718000Y-119126000D01*
X178399821Y-101702870D02*
X178399821Y-112856899D01*
X174898939Y-107055539D02*
X174904400Y-107061000D01*
X174898939Y-101702870D02*
X174898939Y-107055539D01*
X157911800Y-115392200D02*
X154178000Y-119126000D01*
X164795200Y-115392200D02*
X157911800Y-115392200D01*
X141351000Y-85547200D02*
X141923000Y-85547200D01*
X141046200Y-85852000D02*
X141351000Y-85547200D01*
X141046200Y-87350600D02*
X141046200Y-85852000D01*
X140792900Y-87603900D02*
X141046200Y-87350600D01*
X140088100Y-87603900D02*
X140792900Y-87603900D01*
X160693100Y-100065347D02*
X160693100Y-102628700D01*
X162295347Y-98463100D02*
X160693100Y-100065347D01*
X163975542Y-98463100D02*
X162295347Y-98463100D01*
X164760021Y-97678621D02*
X163975542Y-98463100D01*
X165873430Y-97678621D02*
X164760021Y-97678621D01*
X160121600Y-100051333D02*
X160121600Y-103149400D01*
X163817300Y-98132900D02*
X162040033Y-98132900D01*
X164771705Y-97178495D02*
X163817300Y-98132900D01*
X162040033Y-98132900D02*
X160121600Y-100051333D01*
X165873430Y-97178495D02*
X164771705Y-97178495D01*
X107998800Y-71676800D02*
X108026200Y-71704200D01*
X106985400Y-71676800D02*
X107998800Y-71676800D01*
X121095000Y-73533000D02*
X121110240Y-73548240D01*
X120142000Y-73533000D02*
X121095000Y-73533000D01*
X172898435Y-80150970D02*
X172898435Y-83819458D01*
X172898435Y-83819458D02*
X172896028Y-83821865D01*
X106999000Y-73863200D02*
X106985400Y-73876800D01*
X108127800Y-73863200D02*
X106999000Y-73863200D01*
X165873430Y-84175219D02*
X164363019Y-84175219D01*
X164363019Y-84175219D02*
X163474400Y-83286600D01*
X108131600Y-76076800D02*
X108153200Y-76098400D01*
X106985400Y-76076800D02*
X108131600Y-76076800D01*
X120015000Y-76581000D02*
X119761000Y-76835000D01*
X119761000Y-76835000D02*
X119761000Y-77152500D01*
X121095000Y-76581000D02*
X120015000Y-76581000D01*
X164732843Y-85675597D02*
X164348160Y-86060280D01*
X165873430Y-85675597D02*
X164732843Y-85675597D01*
D54*
X114317976Y-114896200D02*
X114774476Y-114439700D01*
X113884400Y-114896200D02*
X114317976Y-114896200D01*
X114774476Y-114439700D02*
X115138200Y-114439700D01*
X115747800Y-113830100D02*
X115747800Y-113194600D01*
X115138200Y-114439700D02*
X115747800Y-113830100D01*
X111224852Y-116420900D02*
X110978900Y-116420900D01*
X111499552Y-116146200D02*
X111224852Y-116420900D01*
X112184400Y-116146200D02*
X111499552Y-116146200D01*
X117246400Y-114160300D02*
X117221000Y-114185700D01*
X117246400Y-113194600D02*
X117246400Y-114160300D01*
D53*
X202641200Y-104686600D02*
X202641200Y-103251100D01*
D59*
X171286551Y-100431600D02*
X172770800Y-100431600D01*
X170897931Y-100820220D02*
X171286551Y-100431600D01*
X170897931Y-101702870D02*
X170897931Y-100820220D01*
X202641200Y-106736600D02*
X201712280Y-107665520D01*
X202641200Y-106336600D02*
X202641200Y-106736600D01*
X201712280Y-107665520D02*
X193517520Y-107665520D01*
D58*
X194449700Y-108419900D02*
X196184520Y-110154720D01*
X196184520Y-110154720D02*
X200680320Y-110154720D01*
X200680320Y-110154720D02*
X201173080Y-110647480D01*
X201173080Y-112590580D02*
X202577700Y-113995200D01*
X201173080Y-110647480D02*
X201173080Y-112590580D01*
X162937960Y-97119440D02*
X162927800Y-97109280D01*
X164048440Y-97119440D02*
X162937960Y-97119440D01*
X164489511Y-96678369D02*
X164048440Y-97119440D01*
X165873430Y-96678369D02*
X164489511Y-96678369D01*
X170070780Y-112354360D02*
X170583860Y-111841280D01*
X174398813Y-101702870D02*
X174398813Y-106499787D01*
X174398813Y-106499787D02*
X173634400Y-107264200D01*
X173898687Y-106136313D02*
X173898687Y-101702870D01*
X171538900Y-108496100D02*
X173898687Y-106136313D01*
X171538900Y-109860080D02*
X171538900Y-108496100D01*
X172051980Y-110373160D02*
X171538900Y-109860080D01*
X173398561Y-105887139D02*
X173398561Y-101702870D01*
X170571160Y-108714540D02*
X173398561Y-105887139D01*
X170571160Y-109570520D02*
X170571160Y-108714540D01*
X171061380Y-110060740D02*
X170571160Y-109570520D01*
X171061380Y-110373160D02*
X171061380Y-110060740D01*
X172051980Y-112351820D02*
X172554900Y-111848900D01*
X172051980Y-112354360D02*
X172051980Y-112351820D01*
X172554900Y-111848900D02*
X172554900Y-109893100D01*
X172898435Y-101702870D02*
X172898435Y-105048685D01*
X172898435Y-105048685D02*
X172542200Y-105404920D01*
X172021500Y-111363760D02*
X171551600Y-110893860D01*
X172051980Y-111363760D02*
X172021500Y-111363760D01*
X171551602Y-105536998D02*
X171551602Y-106349800D01*
X172398309Y-104690291D02*
X171551602Y-105536998D01*
X172398309Y-101702870D02*
X172398309Y-104690291D01*
X168082849Y-86675849D02*
X168097200Y-86690200D01*
X165873430Y-86675849D02*
X168082849Y-86675849D01*
X167557323Y-86175723D02*
X167563800Y-86182200D01*
X165873430Y-86175723D02*
X167557323Y-86175723D01*
X167714295Y-89676605D02*
X168198800Y-89192100D01*
X165873430Y-89676605D02*
X167714295Y-89676605D01*
X167484657Y-89176479D02*
X168116186Y-88544950D01*
X165873430Y-89176479D02*
X167484657Y-89176479D01*
X170480799Y-89899299D02*
X170230800Y-89649300D01*
X170748960Y-90167460D02*
X170480799Y-89899299D01*
X167244504Y-99242891D02*
X169275016Y-99242891D01*
X169275016Y-99242891D02*
X170748960Y-97768947D01*
X166680487Y-98678873D02*
X167244504Y-99242891D01*
X165873430Y-98678873D02*
X166680487Y-98678873D01*
X170748960Y-97768947D02*
X170748960Y-90167460D01*
X169595800Y-89133680D02*
X169918380Y-88811100D01*
X169595800Y-90037920D02*
X169595800Y-89133680D01*
X170428920Y-90871040D02*
X169595800Y-90037920D01*
X170428920Y-97657920D02*
X170428920Y-90871040D01*
X169148760Y-98938080D02*
X170428920Y-97657920D01*
X169918380Y-88811100D02*
X169926000Y-88811100D01*
X167370760Y-98938080D02*
X169148760Y-98938080D01*
X166611427Y-98178747D02*
X167370760Y-98938080D01*
X165873430Y-98178747D02*
X166611427Y-98178747D01*
X177663170Y-76034900D02*
X178421347Y-76034900D01*
X175899191Y-77798879D02*
X177663170Y-76034900D01*
X175899191Y-80150970D02*
X175899191Y-77798879D01*
X175399065Y-77727395D02*
X175399065Y-80150970D01*
X177570160Y-75556300D02*
X175399065Y-77727395D01*
X177923713Y-75556300D02*
X177570160Y-75556300D01*
X176899443Y-80150970D02*
X176899443Y-78116264D01*
X176899443Y-78116264D02*
X177970338Y-77045369D01*
X177970338Y-77045369D02*
X178323891Y-77045369D01*
X176399317Y-78007083D02*
X176399317Y-80150970D01*
X177876200Y-76530200D02*
X176399317Y-78007083D01*
X177899695Y-78970505D02*
X177901600Y-78968600D01*
X177899695Y-80150970D02*
X177899695Y-78970505D01*
X177380900Y-80132301D02*
X177399569Y-80150970D01*
X177380900Y-78422500D02*
X177380900Y-80132301D01*
X191277195Y-77419155D02*
X194462400Y-80604360D01*
X181900703Y-80150970D02*
X181900703Y-78759177D01*
X183240725Y-77419155D02*
X191277195Y-77419155D01*
X194462400Y-80604360D02*
X194462400Y-86004400D01*
X181900703Y-78759177D02*
X183240725Y-77419155D01*
X178399821Y-80150970D02*
X178399821Y-78350657D01*
X178399821Y-78350657D02*
X178421073Y-78329405D01*
X183870623Y-78028777D02*
X191024685Y-78028777D01*
X182900955Y-78998445D02*
X183870623Y-78028777D01*
X182900955Y-80150970D02*
X182900955Y-78998445D01*
X191024685Y-78028777D02*
X193395600Y-80399692D01*
X193395600Y-80399692D02*
X193395600Y-86321900D01*
X191150940Y-77723966D02*
X193979800Y-80552826D01*
X193979800Y-80552826D02*
X193979800Y-86690200D01*
X183530274Y-77723966D02*
X191150940Y-77723966D01*
X182400829Y-80150970D02*
X182400829Y-78853411D01*
X182400829Y-78853411D02*
X183530274Y-77723966D01*
X192392300Y-80260726D02*
X192392300Y-85191600D01*
X190769968Y-78638394D02*
X192392300Y-80260726D01*
X185582185Y-78638394D02*
X190769968Y-78638394D01*
X184901459Y-79319120D02*
X185582185Y-78638394D01*
X184901459Y-80150970D02*
X184901459Y-79319120D01*
X184200818Y-78333583D02*
X190896223Y-78333583D01*
X183401081Y-79133319D02*
X184200818Y-78333583D01*
X192874900Y-80312260D02*
X192874900Y-85737700D01*
X183401081Y-80150970D02*
X183401081Y-79133319D01*
X190896223Y-78333583D02*
X192874900Y-80312260D01*
X186343226Y-84175219D02*
X186321700Y-84153693D01*
X187425330Y-84175219D02*
X186343226Y-84175219D01*
X191909700Y-80209192D02*
X191909700Y-84620100D01*
X185872115Y-78943205D02*
X190643713Y-78943205D01*
X190643713Y-78943205D02*
X191909700Y-80209192D01*
X185401585Y-79413735D02*
X185872115Y-78943205D01*
X185401585Y-80150970D02*
X185401585Y-79413735D01*
X186394585Y-85175471D02*
X186381171Y-85188885D01*
X187425330Y-85175471D02*
X186394585Y-85175471D01*
X185974355Y-84675345D02*
X185953400Y-84696300D01*
X187425330Y-84675345D02*
X185974355Y-84675345D01*
X185015505Y-89676605D02*
X185013600Y-89674700D01*
X187425330Y-89676605D02*
X185015505Y-89676605D01*
X185945287Y-85675597D02*
X185924104Y-85654414D01*
X187425330Y-85675597D02*
X185945287Y-85675597D01*
X185014743Y-90676857D02*
X185013600Y-90678000D01*
X187425330Y-90676857D02*
X185014743Y-90676857D01*
X184448831Y-90176731D02*
X184442100Y-90170000D01*
X187425330Y-90176731D02*
X184448831Y-90176731D01*
X169897679Y-101702870D02*
X169897679Y-102364487D01*
X169897679Y-102364487D02*
X170621960Y-103088768D01*
X170621960Y-103088768D02*
X170621960Y-103809800D01*
X169397553Y-102572693D02*
X170037760Y-103212900D01*
X169397553Y-101702870D02*
X169397553Y-102572693D01*
X168897427Y-101702870D02*
X168897427Y-103558469D01*
X168897427Y-103558469D02*
X168907460Y-103568502D01*
X167897175Y-102950645D02*
X167886380Y-102961440D01*
X167897175Y-101702870D02*
X167897175Y-102950645D01*
X186131073Y-93177487D02*
X187425330Y-93177487D01*
X185262520Y-94046040D02*
X186131073Y-93177487D01*
X192587880Y-104368600D02*
X192623440Y-104333040D01*
X192587880Y-115778280D02*
X192587880Y-104368600D01*
X186593480Y-93677613D02*
X185953400Y-94317693D01*
X185953400Y-94317693D02*
X185953400Y-94914720D01*
X187425330Y-93677613D02*
X186593480Y-93677613D01*
X192024000Y-103698040D02*
X192024000Y-116377720D01*
X192024000Y-116377720D02*
X192054480Y-116408200D01*
X188257180Y-94677865D02*
X189199530Y-95620215D01*
X187425330Y-94677865D02*
X188257180Y-94677865D01*
X189199530Y-95620215D02*
X189199530Y-96576298D01*
X189199530Y-96576298D02*
X191348360Y-98725128D01*
X191348360Y-98725128D02*
X191348360Y-104744520D01*
X191348360Y-116225320D02*
X190881000Y-116692680D01*
X191348360Y-104744520D02*
X191348360Y-116225320D01*
X190418720Y-115920520D02*
X191008009Y-115331231D01*
X191008009Y-98815843D02*
X188894720Y-96702554D01*
X191008009Y-115331231D02*
X191008009Y-98815843D01*
X188894720Y-96702554D02*
X188894720Y-95763080D01*
X188309631Y-95177991D02*
X187425330Y-95177991D01*
X188894720Y-95763080D02*
X188309631Y-95177991D01*
X165142924Y-82674841D02*
X165873430Y-82674841D01*
X164185600Y-81717517D02*
X165142924Y-82674841D01*
X164185600Y-75831700D02*
X164185600Y-81717517D01*
X148145500Y-73977500D02*
X162331400Y-73977500D01*
X162331400Y-73977500D02*
X164185600Y-75831700D01*
X145034000Y-70866000D02*
X148145500Y-73977500D01*
X165873430Y-94177739D02*
X161475039Y-94177739D01*
X161475039Y-94177739D02*
X160045400Y-92748100D01*
X160045400Y-92748100D02*
X155346400Y-92748100D01*
X155346400Y-92748100D02*
X151917400Y-89319100D01*
X151917400Y-80289400D02*
X151917400Y-89319100D01*
X142494000Y-70866000D02*
X151917400Y-80289400D01*
X148551900Y-79463900D02*
X139954000Y-70866000D01*
X151333200Y-82245200D02*
X148551900Y-79463900D01*
X151333200Y-89395300D02*
X151333200Y-82245200D01*
X155143200Y-93205300D02*
X151333200Y-89395300D01*
X160071534Y-93205300D02*
X155143200Y-93205300D01*
X161544099Y-94677865D02*
X160071534Y-93205300D01*
X165873430Y-94677865D02*
X161544099Y-94677865D01*
X161510091Y-95177991D02*
X165873430Y-95177991D01*
X159842210Y-93510110D02*
X161510091Y-95177991D01*
X154571710Y-93510110D02*
X159842210Y-93510110D01*
X150672800Y-89611200D02*
X154571710Y-93510110D01*
X150672800Y-84124800D02*
X150672800Y-89611200D01*
X137414000Y-70866000D02*
X150672800Y-84124800D01*
X161899600Y-83464400D02*
X161899600Y-77232690D01*
X165873430Y-85175471D02*
X163610671Y-85175471D01*
X163610671Y-85175471D02*
X161899600Y-83464400D01*
X165873430Y-84675345D02*
X163613465Y-84675345D01*
X163613465Y-84675345D02*
X162433000Y-83494880D01*
X162433000Y-83494880D02*
X162433000Y-76530200D01*
X183258460Y-81800700D02*
X173736000Y-81800700D01*
X183901207Y-81157953D02*
X183258460Y-81800700D01*
X183901207Y-80150970D02*
X183901207Y-81157953D01*
X183413400Y-82423000D02*
X174396400Y-82423000D01*
X184401333Y-81435067D02*
X183413400Y-82423000D01*
X184401333Y-80150970D02*
X184401333Y-81435067D01*
X156718000Y-70866000D02*
X158623000Y-72771000D01*
X172398309Y-77060143D02*
X172398309Y-80150970D01*
X168109166Y-72771000D02*
X172398309Y-77060143D01*
X158623000Y-72771000D02*
X168109166Y-72771000D01*
X171898183Y-80150970D02*
X171898183Y-76991083D01*
X171898183Y-76991083D02*
X167995600Y-73088500D01*
X156400500Y-73088500D02*
X154178000Y-70866000D01*
X167995600Y-73088500D02*
X156400500Y-73088500D01*
X186654313Y-83174967D02*
X186473846Y-82994500D01*
X186473846Y-82994500D02*
X173824900Y-82994500D01*
X187425330Y-83174967D02*
X186654313Y-83174967D01*
X186672093Y-83675093D02*
X187425330Y-83675093D01*
X186474100Y-83477100D02*
X186672093Y-83675093D01*
X174345600Y-83477100D02*
X186474100Y-83477100D01*
X181400577Y-80150970D02*
X181400577Y-78570963D01*
X187384690Y-72586850D02*
X189198250Y-72586850D01*
X181400577Y-78570963D02*
X187384690Y-72586850D01*
X189738000Y-72047100D02*
X189738000Y-70866000D01*
X189198250Y-72586850D02*
X189738000Y-72047100D01*
X187198000Y-72049640D02*
X187198000Y-70866000D01*
X180900451Y-78347189D02*
X187198000Y-72049640D01*
X180900451Y-80150970D02*
X180900451Y-78347189D01*
X179222370Y-75298342D02*
X179671992Y-74848720D01*
X179222370Y-78297212D02*
X179222370Y-75298342D01*
X179400073Y-78474915D02*
X179222370Y-78297212D01*
X179400073Y-80150970D02*
X179400073Y-78474915D01*
X179671992Y-74848720D02*
X182483760Y-74848720D01*
X184658000Y-72674480D02*
X184658000Y-70866000D01*
X182483760Y-74848720D02*
X184658000Y-72674480D01*
X178899947Y-75189699D02*
X179545736Y-74543910D01*
X178899947Y-80150970D02*
X178899947Y-75189699D01*
X179545736Y-74543910D02*
X180609250Y-74543910D01*
X182118000Y-73035160D02*
X182118000Y-70866000D01*
X180609250Y-74543910D02*
X182118000Y-73035160D01*
X173398561Y-80150970D02*
X173398561Y-75204685D01*
X173398561Y-75204685D02*
X175788320Y-72814926D01*
X175788320Y-72814926D02*
X175788320Y-69951600D01*
X175788320Y-69951600D02*
X176372520Y-69367400D01*
X176372520Y-69367400D02*
X179303680Y-69367400D01*
X179578000Y-69641720D02*
X179578000Y-70866000D01*
X179303680Y-69367400D02*
X179578000Y-69641720D01*
X173898687Y-78510729D02*
X173898687Y-80150970D01*
X173710570Y-78322612D02*
X173898687Y-78510729D01*
X173710570Y-75323742D02*
X173710570Y-78322612D01*
X176132496Y-72901816D02*
X176556664Y-72901816D01*
X176132496Y-72901816D02*
X173710570Y-75323742D01*
X177038000Y-72420480D02*
X177038000Y-70866000D01*
X176556664Y-72901816D02*
X177038000Y-72420480D01*
X165873430Y-88676353D02*
X164993447Y-88676353D01*
X160705798Y-87812878D02*
X160705798Y-78320900D01*
X164993447Y-88676353D02*
X164617400Y-89052400D01*
X161945320Y-89052400D02*
X160705798Y-87812878D01*
X164617400Y-89052400D02*
X161945320Y-89052400D01*
X161264600Y-84754720D02*
X161264600Y-77711300D01*
X163685855Y-87175975D02*
X161264600Y-84754720D01*
X165873430Y-87175975D02*
X163685855Y-87175975D01*
X169080180Y-111363760D02*
X168335960Y-111363760D01*
X166907083Y-91176983D02*
X168341040Y-92610940D01*
X165873430Y-91176983D02*
X166907083Y-91176983D01*
X168341040Y-92610940D02*
X168341040Y-98140520D01*
X168335960Y-111363760D02*
X168335960Y-112806480D01*
X167203120Y-113939320D02*
X165996120Y-113939320D01*
X168335960Y-112806480D02*
X167203120Y-113939320D01*
X140193799Y-106135401D02*
X140193799Y-112355399D01*
X162905440Y-105945940D02*
X140383260Y-105945940D01*
X164578570Y-104272810D02*
X162905440Y-105945940D01*
X164578570Y-104232968D02*
X164578570Y-104272810D01*
X164844288Y-103967250D02*
X164578570Y-104232968D01*
X164884130Y-103967250D02*
X164844288Y-103967250D01*
X140193799Y-112355399D02*
X140370600Y-112532200D01*
X165125400Y-103725980D02*
X164884130Y-103967250D01*
X168031160Y-103725980D02*
X165125400Y-103725980D01*
X140383260Y-105945940D02*
X140193799Y-106135401D01*
X168397301Y-103359839D02*
X168031160Y-103725980D01*
X140370600Y-112532200D02*
X140952400Y-112532200D01*
X168397301Y-101702870D02*
X168397301Y-103359839D01*
X190398389Y-104239390D02*
X190398389Y-113903771D01*
X190398356Y-104239357D02*
X190398389Y-104239390D01*
X189738000Y-114564160D02*
X189738000Y-119126000D01*
X190398356Y-99068322D02*
X190398356Y-104239357D01*
X190398389Y-113903771D02*
X189738000Y-114564160D01*
X189008655Y-97678621D02*
X190398356Y-99068322D01*
X187425330Y-97678621D02*
X189008655Y-97678621D01*
X190093545Y-104365613D02*
X190093545Y-99194577D01*
X190093545Y-99194577D02*
X189077715Y-98178747D01*
X190093578Y-104365646D02*
X190093545Y-104365613D01*
X189077715Y-98178747D02*
X187425330Y-98178747D01*
X190093578Y-113614222D02*
X190093578Y-104365646D01*
X189306200Y-114401600D02*
X190093578Y-113614222D01*
X189306200Y-117017800D02*
X189306200Y-114401600D01*
X187198000Y-119126000D02*
X189306200Y-117017800D01*
X163169600Y-81803113D02*
X163169600Y-76212700D01*
X162246673Y-75289773D02*
X149160383Y-75289773D01*
X163169600Y-76212700D02*
X162246673Y-75289773D01*
X165041580Y-83675093D02*
X163169600Y-81803113D01*
X165873430Y-83675093D02*
X165041580Y-83675093D01*
X162217100Y-74637900D02*
X149186900Y-74637900D01*
X165041580Y-83174967D02*
X163499800Y-81633187D01*
X163499800Y-75920600D02*
X162217100Y-74637900D01*
X163499800Y-81633187D02*
X163499800Y-75920600D01*
X165873430Y-83174967D02*
X165041580Y-83174967D01*
X141147800Y-94716600D02*
X141948400Y-94716600D01*
X140385800Y-93954600D02*
X141147800Y-94716600D01*
X140385800Y-91784800D02*
X140385800Y-93954600D01*
X139400600Y-90799600D02*
X140385800Y-91784800D01*
X139400600Y-90291400D02*
X139400600Y-90799600D01*
X141906300Y-88603900D02*
X141923000Y-88620600D01*
X140088100Y-88603900D02*
X141906300Y-88603900D01*
X141503400Y-87096600D02*
X141923000Y-87096600D01*
X141351000Y-87249000D02*
X141503400Y-87096600D01*
X140927900Y-88103900D02*
X141351000Y-87680800D01*
X141351000Y-87680800D02*
X141351000Y-87249000D01*
X140088100Y-88103900D02*
X140927900Y-88103900D01*
X116864000Y-108062900D02*
X116864000Y-106640420D01*
X124485400Y-108585000D02*
X124104400Y-108966000D01*
X117767100Y-108966000D02*
X116864000Y-108062900D01*
X126942594Y-108585000D02*
X124485400Y-108585000D01*
X127542545Y-108582459D02*
X126945135Y-108582459D01*
X127545086Y-108585000D02*
X127542545Y-108582459D01*
X124104400Y-108966000D02*
X117767100Y-108966000D01*
X126945135Y-108582459D02*
X126942594Y-108585000D01*
X127863600Y-108585000D02*
X127545086Y-108585000D01*
X128513840Y-107934760D02*
X127863600Y-108585000D01*
X125298200Y-110578900D02*
X129438400Y-110578900D01*
X124104400Y-109385100D02*
X125298200Y-110578900D01*
X130431539Y-108557061D02*
X131053840Y-107934760D01*
X116916200Y-109385100D02*
X124104400Y-109385100D01*
X115564920Y-108033820D02*
X116916200Y-109385100D01*
X129438400Y-110578900D02*
X130431539Y-109585761D01*
X115564920Y-106332020D02*
X115564920Y-108033820D01*
X115754020Y-106142920D02*
X115564920Y-106332020D01*
X130431539Y-109585761D02*
X130431539Y-108557061D01*
X116366500Y-106142920D02*
X115754020Y-106142920D01*
D59*
X144574400Y-112994400D02*
X144574400Y-112418000D01*
X144574400Y-112418000D02*
X144424400Y-112268000D01*
X144424400Y-112268000D02*
X143967200Y-112268000D01*
X143730800Y-112031600D02*
X143730800Y-110490000D01*
X143967200Y-112268000D02*
X143730800Y-112031600D01*
D52*
X149610000Y-112994400D02*
X149610000Y-112576800D01*
X149610000Y-112576800D02*
X149352000Y-112318800D01*
X149352000Y-112318800D02*
X148945600Y-112318800D01*
X148760000Y-112133200D02*
X148760000Y-110490000D01*
X148945600Y-112318800D02*
X148760000Y-112133200D01*
D58*
X192112900Y-97116900D02*
X192112900Y-96195700D01*
X191858900Y-97370900D02*
X192112900Y-97116900D01*
X190474600Y-97370900D02*
X191858900Y-97370900D01*
X190154560Y-97050860D02*
X190474600Y-97370900D01*
X190154560Y-96047560D02*
X190154560Y-97050860D01*
X188284739Y-94177739D02*
X190154560Y-96047560D01*
X187425330Y-94177739D02*
X188284739Y-94177739D01*
X188631647Y-89176479D02*
X187425330Y-89176479D01*
X190842900Y-91387732D02*
X188631647Y-89176479D01*
X190842900Y-96195700D02*
X190842900Y-91387732D01*
X193382900Y-90157300D02*
X193382900Y-88995700D01*
X192786000Y-90754200D02*
X193382900Y-90157300D01*
X190640434Y-90754200D02*
X192786000Y-90754200D01*
X188562587Y-88676353D02*
X190640434Y-90754200D01*
X187425330Y-88676353D02*
X188562587Y-88676353D01*
X187425330Y-88176227D02*
X188493527Y-88176227D01*
X188493527Y-88176227D02*
X190525400Y-90208100D01*
X190525400Y-90208100D02*
X191884300Y-90208100D01*
X192112900Y-89979500D02*
X192112900Y-88995700D01*
X191884300Y-90208100D02*
X192112900Y-89979500D01*
X193682900Y-95895700D02*
X193382900Y-96195700D01*
X194017900Y-95560700D02*
X193682900Y-95895700D01*
X194017900Y-88049100D02*
X194017900Y-95560700D01*
X193700412Y-87731611D02*
X194017900Y-88049100D01*
X192902851Y-87731611D02*
X193700412Y-87731611D01*
X191526160Y-86354920D02*
X192902851Y-87731611D01*
X188564520Y-86354920D02*
X191526160Y-86354920D01*
X188243591Y-86675849D02*
X188564520Y-86354920D01*
X187425330Y-86675849D02*
X188243591Y-86675849D01*
X108041800Y-70576800D02*
X108077000Y-70612000D01*
X106985400Y-70576800D02*
X108041800Y-70576800D01*
X118745000Y-75057000D02*
X121095000Y-75057000D01*
X116586000Y-72898000D02*
X118745000Y-75057000D01*
X108164800Y-77176800D02*
X108204000Y-77216000D01*
X106985400Y-77176800D02*
X108164800Y-77176800D01*
X121095000Y-78105000D02*
X118618000Y-78105000D01*
X118618000Y-78105000D02*
X117983000Y-78740000D01*
X108286200Y-78276800D02*
X108331000Y-78232000D01*
X106985400Y-78276800D02*
X108286200Y-78276800D01*
X119888000Y-79629000D02*
X121095000Y-79629000D01*
D56*
X134366000Y-85484000D02*
X132816600Y-85484000D01*
X134366000Y-85484000D02*
X134905191Y-85484000D01*
D52*
X135128000Y-87087150D02*
X135128000Y-85706809D01*
X135644750Y-87603900D02*
X135128000Y-87087150D01*
X135128000Y-85706809D02*
X134905191Y-85484000D01*
X136130500Y-87603900D02*
X135644750Y-87603900D01*
D56*
X134905191Y-85484000D02*
X134905191Y-85382399D01*
X134905191Y-85382399D02*
X135293409Y-84994181D01*
X135293409Y-84994181D02*
X135293409Y-82791509D01*
X135293409Y-82791509D02*
X134950300Y-82448400D01*
D53*
X126512320Y-88193880D02*
X125986540Y-87668100D01*
X125986540Y-87668100D02*
X125246400Y-87668100D01*
X126512320Y-89448640D02*
X126512320Y-88193880D01*
X127297180Y-90233500D02*
X126512320Y-89448640D01*
X130454100Y-90233500D02*
X127297180Y-90233500D01*
X128315720Y-80721200D02*
X129661920Y-82067400D01*
X129661920Y-82067400D02*
X130340600Y-82067400D01*
X115895120Y-80721200D02*
X128315720Y-80721200D01*
X112925220Y-83691100D02*
X115895120Y-80721200D01*
X111276400Y-83691100D02*
X112925220Y-83691100D01*
D58*
X140088100Y-89603900D02*
X140683300Y-89603900D01*
X140683300Y-89603900D02*
X140995400Y-89916000D01*
X140995400Y-89916000D02*
X140995400Y-92786200D01*
X141376400Y-93167200D02*
X141935200Y-93167200D01*
X140995400Y-92786200D02*
X141376400Y-93167200D01*
X140088100Y-87103900D02*
X140581700Y-87103900D01*
X140581700Y-87103900D02*
X140716000Y-86969600D01*
X140716000Y-86969600D02*
X140716000Y-84683600D01*
X141427200Y-83972400D02*
X141923000Y-83972400D01*
X140716000Y-84683600D02*
X141427200Y-83972400D01*
D56*
X131990600Y-80568800D02*
X131990600Y-82067400D01*
D58*
X138760200Y-81940400D02*
X137388600Y-80568800D01*
X137388600Y-80568800D02*
X132918200Y-80568800D01*
X138760200Y-84455000D02*
X138760200Y-81940400D01*
X137922000Y-84861400D02*
X138353800Y-84861400D01*
X132918200Y-80568800D02*
X131990600Y-80568800D01*
X137400600Y-85382800D02*
X137922000Y-84861400D01*
X138353800Y-84861400D02*
X138760200Y-84455000D01*
X137400600Y-86416400D02*
X137400600Y-85382800D01*
D52*
X116366500Y-103142920D02*
X115941980Y-103142920D01*
X114975140Y-101922580D02*
X114975140Y-102635820D01*
X115166140Y-102826820D02*
X115625880Y-102826820D01*
X114975140Y-102635820D02*
X115166140Y-102826820D01*
X115941980Y-103142920D02*
X115625880Y-102826820D01*
D53*
X128963420Y-86652100D02*
X127786400Y-86652100D01*
X130429000Y-88117680D02*
X128963420Y-86652100D01*
X130429000Y-88684400D02*
X130429000Y-88117680D01*
X130454100Y-88709500D02*
X130429000Y-88684400D01*
D58*
X172051980Y-109001560D02*
X172051980Y-109382560D01*
X176399317Y-101702870D02*
X176399317Y-106729403D01*
X172976540Y-108077000D02*
X172051980Y-109001560D01*
X175051720Y-108077000D02*
X176399317Y-106729403D01*
X172976540Y-108077000D02*
X175051720Y-108077000D01*
X174767240Y-111363760D02*
X173042580Y-111363760D01*
X174896780Y-111493300D02*
X174767240Y-111363760D01*
X176631600Y-111493300D02*
X174896780Y-111493300D01*
X176899443Y-111225457D02*
X176631600Y-111493300D01*
X176899443Y-101702870D02*
X176899443Y-111225457D01*
X176646840Y-112354360D02*
X173042580Y-112354360D01*
X177399569Y-111601631D02*
X176646840Y-112354360D01*
X177399569Y-101702870D02*
X177399569Y-111601631D01*
X176557940Y-113344960D02*
X173042580Y-113344960D01*
X177899695Y-112003205D02*
X176557940Y-113344960D01*
X177899695Y-101702870D02*
X177899695Y-112003205D01*
X170586400Y-110197900D02*
X170228260Y-109839760D01*
X170586400Y-110888780D02*
X170586400Y-110197900D01*
X171061380Y-111363760D02*
X170586400Y-110888780D01*
X166436040Y-108828840D02*
X169321480Y-108828840D01*
X169321480Y-108828840D02*
X169580560Y-109087920D01*
X169580560Y-109565440D02*
X169854880Y-109839760D01*
X169580560Y-109087920D02*
X169580560Y-109565440D01*
X170228260Y-109839760D02*
X169854880Y-109839760D01*
X165873430Y-93677613D02*
X166867713Y-93677613D01*
X166867713Y-93677613D02*
X167457120Y-94267020D01*
X167457120Y-94267020D02*
X167457120Y-98165920D01*
X187425330Y-91677109D02*
X185017791Y-91677109D01*
X185017791Y-91677109D02*
X185013600Y-91681300D01*
X187425330Y-91176983D02*
X184483883Y-91176983D01*
X184483883Y-91176983D02*
X184442100Y-91135200D01*
X165041580Y-95678117D02*
X165873430Y-95678117D01*
X161579151Y-95678117D02*
X165041580Y-95678117D01*
X159715954Y-93814920D02*
X161579151Y-95678117D01*
X153885920Y-93814920D02*
X159715954Y-93814920D01*
X150126700Y-90055700D02*
X153885920Y-93814920D01*
X150126700Y-86118700D02*
X150126700Y-90055700D01*
X134874000Y-70866000D02*
X150126700Y-86118700D01*
X149313900Y-87845900D02*
X139623800Y-78155800D01*
X149313900Y-90347800D02*
X149313900Y-87845900D01*
X153085830Y-94119730D02*
X149313900Y-90347800D01*
X159589698Y-94119730D02*
X153085830Y-94119730D01*
X139623800Y-78155800D02*
X132334000Y-70866000D01*
X161648211Y-96178243D02*
X159589698Y-94119730D01*
X165873430Y-96178243D02*
X161648211Y-96178243D01*
M02*
