G04 #@! TF.GenerationSoftware,KiCad,Pcbnew,5.1.7-a382d34a8~88~ubuntu20.04.1*
G04 #@! TF.CreationDate,2021-02-21T19:50:47-03:00*
G04 #@! TF.ProjectId,h730duino,68373330-6475-4696-9e6f-2e6b69636164,rev?*
G04 #@! TF.SameCoordinates,Original*
G04 #@! TF.FileFunction,Copper,L1,Top*
G04 #@! TF.FilePolarity,Positive*
%FSLAX46Y46*%
G04 Gerber Fmt 4.6, Leading zero omitted, Abs format (unit mm)*
G04 Created by KiCad (PCBNEW 5.1.7-a382d34a8~88~ubuntu20.04.1) date 2021-02-21 19:50:47*
%MOMM*%
%LPD*%
G01*
G04 APERTURE LIST*
G04 #@! TA.AperFunction,SMDPad,CuDef*
%ADD10R,0.500000X0.250000*%
G04 #@! TD*
G04 #@! TA.AperFunction,SMDPad,CuDef*
%ADD11R,0.900000X1.600000*%
G04 #@! TD*
G04 #@! TA.AperFunction,ComponentPad*
%ADD12C,0.600000*%
G04 #@! TD*
G04 #@! TA.AperFunction,SMDPad,CuDef*
%ADD13R,2.700000X0.800000*%
G04 #@! TD*
G04 #@! TA.AperFunction,SMDPad,CuDef*
%ADD14R,1.060000X0.650000*%
G04 #@! TD*
G04 #@! TA.AperFunction,SMDPad,CuDef*
%ADD15R,2.000000X2.400000*%
G04 #@! TD*
G04 #@! TA.AperFunction,SMDPad,CuDef*
%ADD16R,2.400000X2.000000*%
G04 #@! TD*
G04 #@! TA.AperFunction,ConnectorPad*
%ADD17C,0.787400*%
G04 #@! TD*
G04 #@! TA.AperFunction,SMDPad,CuDef*
%ADD18R,2.400000X0.740000*%
G04 #@! TD*
G04 #@! TA.AperFunction,ComponentPad*
%ADD19O,1.700000X1.700000*%
G04 #@! TD*
G04 #@! TA.AperFunction,ComponentPad*
%ADD20R,1.700000X1.700000*%
G04 #@! TD*
G04 #@! TA.AperFunction,ComponentPad*
%ADD21O,1.727200X2.032000*%
G04 #@! TD*
G04 #@! TA.AperFunction,SMDPad,CuDef*
%ADD22R,0.279400X1.358900*%
G04 #@! TD*
G04 #@! TA.AperFunction,SMDPad,CuDef*
%ADD23R,1.358900X0.279400*%
G04 #@! TD*
G04 #@! TA.AperFunction,ComponentPad*
%ADD24O,1.400000X0.800000*%
G04 #@! TD*
G04 #@! TA.AperFunction,SMDPad,CuDef*
%ADD25R,0.700000X0.300000*%
G04 #@! TD*
G04 #@! TA.AperFunction,SMDPad,CuDef*
%ADD26R,0.900000X0.800000*%
G04 #@! TD*
G04 #@! TA.AperFunction,SMDPad,CuDef*
%ADD27R,0.550000X2.910000*%
G04 #@! TD*
G04 #@! TA.AperFunction,SMDPad,CuDef*
%ADD28R,2.390000X1.050000*%
G04 #@! TD*
G04 #@! TA.AperFunction,SMDPad,CuDef*
%ADD29R,1.200000X1.050000*%
G04 #@! TD*
G04 #@! TA.AperFunction,SMDPad,CuDef*
%ADD30R,1.080000X1.050000*%
G04 #@! TD*
G04 #@! TA.AperFunction,SMDPad,CuDef*
%ADD31R,0.780000X0.720000*%
G04 #@! TD*
G04 #@! TA.AperFunction,SMDPad,CuDef*
%ADD32R,1.000000X0.500000*%
G04 #@! TD*
G04 #@! TA.AperFunction,SMDPad,CuDef*
%ADD33R,1.900000X1.000000*%
G04 #@! TD*
G04 #@! TA.AperFunction,SMDPad,CuDef*
%ADD34R,1.900000X1.800000*%
G04 #@! TD*
G04 #@! TA.AperFunction,SMDPad,CuDef*
%ADD35R,1.300000X1.650000*%
G04 #@! TD*
G04 #@! TA.AperFunction,SMDPad,CuDef*
%ADD36R,1.550000X1.425000*%
G04 #@! TD*
G04 #@! TA.AperFunction,SMDPad,CuDef*
%ADD37R,1.380000X0.450000*%
G04 #@! TD*
G04 #@! TA.AperFunction,SMDPad,CuDef*
%ADD38R,1.800000X1.000000*%
G04 #@! TD*
G04 #@! TA.AperFunction,ComponentPad*
%ADD39C,2.100000*%
G04 #@! TD*
G04 #@! TA.AperFunction,ComponentPad*
%ADD40C,1.750000*%
G04 #@! TD*
G04 #@! TA.AperFunction,SMDPad,CuDef*
%ADD41R,2.600000X2.600000*%
G04 #@! TD*
G04 #@! TA.AperFunction,ComponentPad*
%ADD42C,1.530000*%
G04 #@! TD*
G04 #@! TA.AperFunction,ComponentPad*
%ADD43C,1.725000*%
G04 #@! TD*
G04 #@! TA.AperFunction,SMDPad,CuDef*
%ADD44R,0.800000X0.900000*%
G04 #@! TD*
G04 #@! TA.AperFunction,ComponentPad*
%ADD45O,1.727200X1.727200*%
G04 #@! TD*
G04 #@! TA.AperFunction,ComponentPad*
%ADD46C,1.727200*%
G04 #@! TD*
G04 #@! TA.AperFunction,ComponentPad*
%ADD47C,4.064000*%
G04 #@! TD*
G04 #@! TA.AperFunction,ViaPad*
%ADD48C,0.500000*%
G04 #@! TD*
G04 #@! TA.AperFunction,Conductor*
%ADD49C,0.800000*%
G04 #@! TD*
G04 #@! TA.AperFunction,Conductor*
%ADD50C,0.254000*%
G04 #@! TD*
G04 #@! TA.AperFunction,Conductor*
%ADD51C,0.500000*%
G04 #@! TD*
G04 #@! TA.AperFunction,Conductor*
%ADD52C,0.300000*%
G04 #@! TD*
G04 #@! TA.AperFunction,Conductor*
%ADD53C,0.600000*%
G04 #@! TD*
G04 #@! TA.AperFunction,Conductor*
%ADD54C,0.400000*%
G04 #@! TD*
G04 #@! TA.AperFunction,Conductor*
%ADD55C,0.406400*%
G04 #@! TD*
G04 #@! TA.AperFunction,Conductor*
%ADD56C,0.152400*%
G04 #@! TD*
G04 #@! TA.AperFunction,Conductor*
%ADD57C,0.200000*%
G04 #@! TD*
G04 APERTURE END LIST*
D10*
X146573200Y-113796000D03*
X146573200Y-113296000D03*
X148473200Y-113296000D03*
X148473200Y-114296000D03*
X148473200Y-114796000D03*
D11*
X147523200Y-114046000D03*
D12*
X147523200Y-113546000D03*
X147523200Y-114546000D03*
D10*
X146573200Y-114796000D03*
X146573200Y-114296000D03*
X148473200Y-113796000D03*
X140650000Y-108295200D03*
X140650000Y-108795200D03*
X138750000Y-108795200D03*
X138750000Y-107795200D03*
X138750000Y-107295200D03*
D11*
X139700000Y-108045200D03*
D12*
X139700000Y-108545200D03*
X139700000Y-107545200D03*
D10*
X140650000Y-107295200D03*
X140650000Y-107795200D03*
X138750000Y-108295200D03*
D13*
X144068800Y-112946000D03*
X144068800Y-115146000D03*
X143459200Y-109151600D03*
X143459200Y-106951600D03*
D14*
X133383200Y-105450600D03*
X133383200Y-107350600D03*
X131183200Y-107350600D03*
X131183200Y-106400600D03*
X131183200Y-105450600D03*
D15*
X137748400Y-93827600D03*
X141448400Y-93827600D03*
D16*
X181864000Y-113000400D03*
X181864000Y-109300400D03*
D17*
X139801600Y-100355400D03*
X141071600Y-100355400D03*
X142341600Y-100355400D03*
X143611600Y-100355400D03*
X144881600Y-100355400D03*
X144881600Y-101625400D03*
X143611600Y-101625400D03*
X142341600Y-101625400D03*
X141071600Y-101625400D03*
X139801600Y-101625400D03*
D18*
X151567600Y-95859600D03*
X155467600Y-95859600D03*
X151567600Y-97129600D03*
X155467600Y-97129600D03*
X151567600Y-98399600D03*
X155467600Y-98399600D03*
X151567600Y-99669600D03*
X155467600Y-99669600D03*
X151567600Y-100939600D03*
X155467600Y-100939600D03*
D19*
X134112000Y-101955600D03*
D20*
X131572000Y-101955600D03*
G04 #@! TA.AperFunction,SMDPad,CuDef*
G36*
G01*
X147199800Y-84307000D02*
X147199800Y-84857000D01*
G75*
G02*
X146999800Y-85057000I-200000J0D01*
G01*
X146599800Y-85057000D01*
G75*
G02*
X146399800Y-84857000I0J200000D01*
G01*
X146399800Y-84307000D01*
G75*
G02*
X146599800Y-84107000I200000J0D01*
G01*
X146999800Y-84107000D01*
G75*
G02*
X147199800Y-84307000I0J-200000D01*
G01*
G37*
G04 #@! TD.AperFunction*
G04 #@! TA.AperFunction,SMDPad,CuDef*
G36*
G01*
X148849800Y-84307000D02*
X148849800Y-84857000D01*
G75*
G02*
X148649800Y-85057000I-200000J0D01*
G01*
X148249800Y-85057000D01*
G75*
G02*
X148049800Y-84857000I0J200000D01*
G01*
X148049800Y-84307000D01*
G75*
G02*
X148249800Y-84107000I200000J0D01*
G01*
X148649800Y-84107000D01*
G75*
G02*
X148849800Y-84307000I0J-200000D01*
G01*
G37*
G04 #@! TD.AperFunction*
G04 #@! TA.AperFunction,SMDPad,CuDef*
G36*
G01*
X147199800Y-87355000D02*
X147199800Y-87905000D01*
G75*
G02*
X146999800Y-88105000I-200000J0D01*
G01*
X146599800Y-88105000D01*
G75*
G02*
X146399800Y-87905000I0J200000D01*
G01*
X146399800Y-87355000D01*
G75*
G02*
X146599800Y-87155000I200000J0D01*
G01*
X146999800Y-87155000D01*
G75*
G02*
X147199800Y-87355000I0J-200000D01*
G01*
G37*
G04 #@! TD.AperFunction*
G04 #@! TA.AperFunction,SMDPad,CuDef*
G36*
G01*
X148849800Y-87355000D02*
X148849800Y-87905000D01*
G75*
G02*
X148649800Y-88105000I-200000J0D01*
G01*
X148249800Y-88105000D01*
G75*
G02*
X148049800Y-87905000I0J200000D01*
G01*
X148049800Y-87355000D01*
G75*
G02*
X148249800Y-87155000I200000J0D01*
G01*
X148649800Y-87155000D01*
G75*
G02*
X148849800Y-87355000I0J-200000D01*
G01*
G37*
G04 #@! TD.AperFunction*
G04 #@! TA.AperFunction,SMDPad,CuDef*
G36*
G01*
X147199800Y-93451000D02*
X147199800Y-94001000D01*
G75*
G02*
X146999800Y-94201000I-200000J0D01*
G01*
X146599800Y-94201000D01*
G75*
G02*
X146399800Y-94001000I0J200000D01*
G01*
X146399800Y-93451000D01*
G75*
G02*
X146599800Y-93251000I200000J0D01*
G01*
X146999800Y-93251000D01*
G75*
G02*
X147199800Y-93451000I0J-200000D01*
G01*
G37*
G04 #@! TD.AperFunction*
G04 #@! TA.AperFunction,SMDPad,CuDef*
G36*
G01*
X148849800Y-93451000D02*
X148849800Y-94001000D01*
G75*
G02*
X148649800Y-94201000I-200000J0D01*
G01*
X148249800Y-94201000D01*
G75*
G02*
X148049800Y-94001000I0J200000D01*
G01*
X148049800Y-93451000D01*
G75*
G02*
X148249800Y-93251000I200000J0D01*
G01*
X148649800Y-93251000D01*
G75*
G02*
X148849800Y-93451000I0J-200000D01*
G01*
G37*
G04 #@! TD.AperFunction*
G04 #@! TA.AperFunction,SMDPad,CuDef*
G36*
G01*
X147199800Y-88879000D02*
X147199800Y-89429000D01*
G75*
G02*
X146999800Y-89629000I-200000J0D01*
G01*
X146599800Y-89629000D01*
G75*
G02*
X146399800Y-89429000I0J200000D01*
G01*
X146399800Y-88879000D01*
G75*
G02*
X146599800Y-88679000I200000J0D01*
G01*
X146999800Y-88679000D01*
G75*
G02*
X147199800Y-88879000I0J-200000D01*
G01*
G37*
G04 #@! TD.AperFunction*
G04 #@! TA.AperFunction,SMDPad,CuDef*
G36*
G01*
X148849800Y-88879000D02*
X148849800Y-89429000D01*
G75*
G02*
X148649800Y-89629000I-200000J0D01*
G01*
X148249800Y-89629000D01*
G75*
G02*
X148049800Y-89429000I0J200000D01*
G01*
X148049800Y-88879000D01*
G75*
G02*
X148249800Y-88679000I200000J0D01*
G01*
X148649800Y-88679000D01*
G75*
G02*
X148849800Y-88879000I0J-200000D01*
G01*
G37*
G04 #@! TD.AperFunction*
G04 #@! TA.AperFunction,SMDPad,CuDef*
G36*
G01*
X148049800Y-83333000D02*
X148049800Y-82783000D01*
G75*
G02*
X148249800Y-82583000I200000J0D01*
G01*
X148649800Y-82583000D01*
G75*
G02*
X148849800Y-82783000I0J-200000D01*
G01*
X148849800Y-83333000D01*
G75*
G02*
X148649800Y-83533000I-200000J0D01*
G01*
X148249800Y-83533000D01*
G75*
G02*
X148049800Y-83333000I0J200000D01*
G01*
G37*
G04 #@! TD.AperFunction*
G04 #@! TA.AperFunction,SMDPad,CuDef*
G36*
G01*
X146399800Y-83333000D02*
X146399800Y-82783000D01*
G75*
G02*
X146599800Y-82583000I200000J0D01*
G01*
X146999800Y-82583000D01*
G75*
G02*
X147199800Y-82783000I0J-200000D01*
G01*
X147199800Y-83333000D01*
G75*
G02*
X146999800Y-83533000I-200000J0D01*
G01*
X146599800Y-83533000D01*
G75*
G02*
X146399800Y-83333000I0J200000D01*
G01*
G37*
G04 #@! TD.AperFunction*
G04 #@! TA.AperFunction,SMDPad,CuDef*
G36*
G01*
X148049800Y-86381000D02*
X148049800Y-85831000D01*
G75*
G02*
X148249800Y-85631000I200000J0D01*
G01*
X148649800Y-85631000D01*
G75*
G02*
X148849800Y-85831000I0J-200000D01*
G01*
X148849800Y-86381000D01*
G75*
G02*
X148649800Y-86581000I-200000J0D01*
G01*
X148249800Y-86581000D01*
G75*
G02*
X148049800Y-86381000I0J200000D01*
G01*
G37*
G04 #@! TD.AperFunction*
G04 #@! TA.AperFunction,SMDPad,CuDef*
G36*
G01*
X146399800Y-86381000D02*
X146399800Y-85831000D01*
G75*
G02*
X146599800Y-85631000I200000J0D01*
G01*
X146999800Y-85631000D01*
G75*
G02*
X147199800Y-85831000I0J-200000D01*
G01*
X147199800Y-86381000D01*
G75*
G02*
X146999800Y-86581000I-200000J0D01*
G01*
X146599800Y-86581000D01*
G75*
G02*
X146399800Y-86381000I0J200000D01*
G01*
G37*
G04 #@! TD.AperFunction*
G04 #@! TA.AperFunction,SMDPad,CuDef*
G36*
G01*
X148049800Y-92477000D02*
X148049800Y-91927000D01*
G75*
G02*
X148249800Y-91727000I200000J0D01*
G01*
X148649800Y-91727000D01*
G75*
G02*
X148849800Y-91927000I0J-200000D01*
G01*
X148849800Y-92477000D01*
G75*
G02*
X148649800Y-92677000I-200000J0D01*
G01*
X148249800Y-92677000D01*
G75*
G02*
X148049800Y-92477000I0J200000D01*
G01*
G37*
G04 #@! TD.AperFunction*
G04 #@! TA.AperFunction,SMDPad,CuDef*
G36*
G01*
X146399800Y-92477000D02*
X146399800Y-91927000D01*
G75*
G02*
X146599800Y-91727000I200000J0D01*
G01*
X146999800Y-91727000D01*
G75*
G02*
X147199800Y-91927000I0J-200000D01*
G01*
X147199800Y-92477000D01*
G75*
G02*
X146999800Y-92677000I-200000J0D01*
G01*
X146599800Y-92677000D01*
G75*
G02*
X146399800Y-92477000I0J200000D01*
G01*
G37*
G04 #@! TD.AperFunction*
G04 #@! TA.AperFunction,SMDPad,CuDef*
G36*
G01*
X148049800Y-90953000D02*
X148049800Y-90403000D01*
G75*
G02*
X148249800Y-90203000I200000J0D01*
G01*
X148649800Y-90203000D01*
G75*
G02*
X148849800Y-90403000I0J-200000D01*
G01*
X148849800Y-90953000D01*
G75*
G02*
X148649800Y-91153000I-200000J0D01*
G01*
X148249800Y-91153000D01*
G75*
G02*
X148049800Y-90953000I0J200000D01*
G01*
G37*
G04 #@! TD.AperFunction*
G04 #@! TA.AperFunction,SMDPad,CuDef*
G36*
G01*
X146399800Y-90953000D02*
X146399800Y-90403000D01*
G75*
G02*
X146599800Y-90203000I200000J0D01*
G01*
X146999800Y-90203000D01*
G75*
G02*
X147199800Y-90403000I0J-200000D01*
G01*
X147199800Y-90953000D01*
G75*
G02*
X146999800Y-91153000I-200000J0D01*
G01*
X146599800Y-91153000D01*
G75*
G02*
X146399800Y-90953000I0J200000D01*
G01*
G37*
G04 #@! TD.AperFunction*
D21*
X145034000Y-75946000D03*
X142494000Y-75946000D03*
X139954000Y-75946000D03*
X137414000Y-75946000D03*
X134874000Y-75946000D03*
X132334000Y-75946000D03*
X129794000Y-75946000D03*
X127254000Y-75946000D03*
X124714000Y-75946000D03*
X122174000Y-75946000D03*
G04 #@! TA.AperFunction,SMDPad,CuDef*
G36*
G01*
X161875600Y-109192200D02*
X161875600Y-108892200D01*
G75*
G02*
X162025600Y-108742200I150000J0D01*
G01*
X163675600Y-108742200D01*
G75*
G02*
X163825600Y-108892200I0J-150000D01*
G01*
X163825600Y-109192200D01*
G75*
G02*
X163675600Y-109342200I-150000J0D01*
G01*
X162025600Y-109342200D01*
G75*
G02*
X161875600Y-109192200I0J150000D01*
G01*
G37*
G04 #@! TD.AperFunction*
G04 #@! TA.AperFunction,SMDPad,CuDef*
G36*
G01*
X161875600Y-110462200D02*
X161875600Y-110162200D01*
G75*
G02*
X162025600Y-110012200I150000J0D01*
G01*
X163675600Y-110012200D01*
G75*
G02*
X163825600Y-110162200I0J-150000D01*
G01*
X163825600Y-110462200D01*
G75*
G02*
X163675600Y-110612200I-150000J0D01*
G01*
X162025600Y-110612200D01*
G75*
G02*
X161875600Y-110462200I0J150000D01*
G01*
G37*
G04 #@! TD.AperFunction*
G04 #@! TA.AperFunction,SMDPad,CuDef*
G36*
G01*
X161875600Y-111732200D02*
X161875600Y-111432200D01*
G75*
G02*
X162025600Y-111282200I150000J0D01*
G01*
X163675600Y-111282200D01*
G75*
G02*
X163825600Y-111432200I0J-150000D01*
G01*
X163825600Y-111732200D01*
G75*
G02*
X163675600Y-111882200I-150000J0D01*
G01*
X162025600Y-111882200D01*
G75*
G02*
X161875600Y-111732200I0J150000D01*
G01*
G37*
G04 #@! TD.AperFunction*
G04 #@! TA.AperFunction,SMDPad,CuDef*
G36*
G01*
X161875600Y-113002200D02*
X161875600Y-112702200D01*
G75*
G02*
X162025600Y-112552200I150000J0D01*
G01*
X163675600Y-112552200D01*
G75*
G02*
X163825600Y-112702200I0J-150000D01*
G01*
X163825600Y-113002200D01*
G75*
G02*
X163675600Y-113152200I-150000J0D01*
G01*
X162025600Y-113152200D01*
G75*
G02*
X161875600Y-113002200I0J150000D01*
G01*
G37*
G04 #@! TD.AperFunction*
G04 #@! TA.AperFunction,SMDPad,CuDef*
G36*
G01*
X156925600Y-113002200D02*
X156925600Y-112702200D01*
G75*
G02*
X157075600Y-112552200I150000J0D01*
G01*
X158725600Y-112552200D01*
G75*
G02*
X158875600Y-112702200I0J-150000D01*
G01*
X158875600Y-113002200D01*
G75*
G02*
X158725600Y-113152200I-150000J0D01*
G01*
X157075600Y-113152200D01*
G75*
G02*
X156925600Y-113002200I0J150000D01*
G01*
G37*
G04 #@! TD.AperFunction*
G04 #@! TA.AperFunction,SMDPad,CuDef*
G36*
G01*
X156925600Y-111732200D02*
X156925600Y-111432200D01*
G75*
G02*
X157075600Y-111282200I150000J0D01*
G01*
X158725600Y-111282200D01*
G75*
G02*
X158875600Y-111432200I0J-150000D01*
G01*
X158875600Y-111732200D01*
G75*
G02*
X158725600Y-111882200I-150000J0D01*
G01*
X157075600Y-111882200D01*
G75*
G02*
X156925600Y-111732200I0J150000D01*
G01*
G37*
G04 #@! TD.AperFunction*
G04 #@! TA.AperFunction,SMDPad,CuDef*
G36*
G01*
X156925600Y-110462200D02*
X156925600Y-110162200D01*
G75*
G02*
X157075600Y-110012200I150000J0D01*
G01*
X158725600Y-110012200D01*
G75*
G02*
X158875600Y-110162200I0J-150000D01*
G01*
X158875600Y-110462200D01*
G75*
G02*
X158725600Y-110612200I-150000J0D01*
G01*
X157075600Y-110612200D01*
G75*
G02*
X156925600Y-110462200I0J150000D01*
G01*
G37*
G04 #@! TD.AperFunction*
G04 #@! TA.AperFunction,SMDPad,CuDef*
G36*
G01*
X156925600Y-109192200D02*
X156925600Y-108892200D01*
G75*
G02*
X157075600Y-108742200I150000J0D01*
G01*
X158725600Y-108742200D01*
G75*
G02*
X158875600Y-108892200I0J-150000D01*
G01*
X158875600Y-109192200D01*
G75*
G02*
X158725600Y-109342200I-150000J0D01*
G01*
X157075600Y-109342200D01*
G75*
G02*
X156925600Y-109192200I0J150000D01*
G01*
G37*
G04 #@! TD.AperFunction*
G04 #@! TA.AperFunction,SMDPad,CuDef*
G36*
G01*
X160766880Y-107186920D02*
X160766880Y-107686920D01*
G75*
G02*
X160541880Y-107911920I-225000J0D01*
G01*
X160091880Y-107911920D01*
G75*
G02*
X159866880Y-107686920I0J225000D01*
G01*
X159866880Y-107186920D01*
G75*
G02*
X160091880Y-106961920I225000J0D01*
G01*
X160541880Y-106961920D01*
G75*
G02*
X160766880Y-107186920I0J-225000D01*
G01*
G37*
G04 #@! TD.AperFunction*
G04 #@! TA.AperFunction,SMDPad,CuDef*
G36*
G01*
X162316880Y-107186920D02*
X162316880Y-107686920D01*
G75*
G02*
X162091880Y-107911920I-225000J0D01*
G01*
X161641880Y-107911920D01*
G75*
G02*
X161416880Y-107686920I0J225000D01*
G01*
X161416880Y-107186920D01*
G75*
G02*
X161641880Y-106961920I225000J0D01*
G01*
X162091880Y-106961920D01*
G75*
G02*
X162316880Y-107186920I0J-225000D01*
G01*
G37*
G04 #@! TD.AperFunction*
D22*
X167897175Y-101702870D03*
X168397301Y-101702870D03*
X168897427Y-101702870D03*
X169397553Y-101702870D03*
X169897679Y-101702870D03*
X170397805Y-101702870D03*
X170897931Y-101702870D03*
X171398057Y-101702870D03*
X171898183Y-101702870D03*
X172398309Y-101702870D03*
X172898435Y-101702870D03*
X173398561Y-101702870D03*
X173898687Y-101702870D03*
X174398813Y-101702870D03*
X174898939Y-101702870D03*
X175399065Y-101702870D03*
X175899191Y-101702870D03*
X176399317Y-101702870D03*
X176899443Y-101702870D03*
X177399569Y-101702870D03*
X177899695Y-101702870D03*
X178399821Y-101702870D03*
X178899947Y-101702870D03*
X179400073Y-101702870D03*
X179900199Y-101702870D03*
X180400325Y-101702870D03*
X180900451Y-101702870D03*
X181400577Y-101702870D03*
X181900703Y-101702870D03*
X182400829Y-101702870D03*
X182900955Y-101702870D03*
X183401081Y-101702870D03*
X183901207Y-101702870D03*
X184401333Y-101702870D03*
X184901459Y-101702870D03*
X185401585Y-101702870D03*
D23*
X187425330Y-99679125D03*
X187425330Y-99178999D03*
X187425330Y-98678873D03*
X187425330Y-98178747D03*
X187425330Y-97678621D03*
X187425330Y-97178495D03*
X187425330Y-96678369D03*
X187425330Y-96178243D03*
X187425330Y-95678117D03*
X187425330Y-95177991D03*
X187425330Y-94677865D03*
X187425330Y-94177739D03*
X187425330Y-93677613D03*
X187425330Y-93177487D03*
X187425330Y-92677361D03*
X187425330Y-92177235D03*
X187425330Y-91677109D03*
X187425330Y-91176983D03*
X187425330Y-90676857D03*
X187425330Y-90176731D03*
X187425330Y-89676605D03*
X187425330Y-89176479D03*
X187425330Y-88676353D03*
X187425330Y-88176227D03*
X187425330Y-87676101D03*
X187425330Y-87175975D03*
X187425330Y-86675849D03*
X187425330Y-86175723D03*
X187425330Y-85675597D03*
X187425330Y-85175471D03*
X187425330Y-84675345D03*
X187425330Y-84175219D03*
X187425330Y-83675093D03*
X187425330Y-83174967D03*
X187425330Y-82674841D03*
X187425330Y-82174715D03*
D22*
X185401585Y-80150970D03*
X184901459Y-80150970D03*
X184401333Y-80150970D03*
X183901207Y-80150970D03*
X183401081Y-80150970D03*
X182900955Y-80150970D03*
X182400829Y-80150970D03*
X181900703Y-80150970D03*
X181400577Y-80150970D03*
X180900451Y-80150970D03*
X180400325Y-80150970D03*
X179900199Y-80150970D03*
X179400073Y-80150970D03*
X178899947Y-80150970D03*
X178399821Y-80150970D03*
X177899695Y-80150970D03*
X177399569Y-80150970D03*
X176899443Y-80150970D03*
X176399317Y-80150970D03*
X175899191Y-80150970D03*
X175399065Y-80150970D03*
X174898939Y-80150970D03*
X174398813Y-80150970D03*
X173898687Y-80150970D03*
X173398561Y-80150970D03*
X172898435Y-80150970D03*
X172398309Y-80150970D03*
X171898183Y-80150970D03*
X171398057Y-80150970D03*
X170897931Y-80150970D03*
X170397805Y-80150970D03*
X169897679Y-80150970D03*
X169397553Y-80150970D03*
X168897427Y-80150970D03*
X168397301Y-80150970D03*
X167897175Y-80150970D03*
D23*
X165873430Y-82174715D03*
X165873430Y-82674841D03*
X165873430Y-83174967D03*
X165873430Y-83675093D03*
X165873430Y-84175219D03*
X165873430Y-84675345D03*
X165873430Y-85175471D03*
X165873430Y-85675597D03*
X165873430Y-86175723D03*
X165873430Y-86675849D03*
X165873430Y-87175975D03*
X165873430Y-87676101D03*
X165873430Y-88176227D03*
X165873430Y-88676353D03*
X165873430Y-89176479D03*
X165873430Y-89676605D03*
X165873430Y-90176731D03*
X165873430Y-90676857D03*
X165873430Y-91176983D03*
X165873430Y-91677109D03*
X165873430Y-92177235D03*
X165873430Y-92677361D03*
X165873430Y-93177487D03*
X165873430Y-93677613D03*
X165873430Y-94177739D03*
X165873430Y-94677865D03*
X165873430Y-95177991D03*
X165873430Y-95678117D03*
X165873430Y-96178243D03*
X165873430Y-96678369D03*
X165873430Y-97178495D03*
X165873430Y-97678621D03*
X165873430Y-98178747D03*
X165873430Y-98678873D03*
X165873430Y-99178999D03*
X165873430Y-99679125D03*
G04 #@! TA.AperFunction,SMDPad,CuDef*
G36*
G01*
X164814800Y-109110920D02*
X164814800Y-108810920D01*
G75*
G02*
X164964800Y-108660920I150000J0D01*
G01*
X166264800Y-108660920D01*
G75*
G02*
X166414800Y-108810920I0J-150000D01*
G01*
X166414800Y-109110920D01*
G75*
G02*
X166264800Y-109260920I-150000J0D01*
G01*
X164964800Y-109260920D01*
G75*
G02*
X164814800Y-109110920I0J150000D01*
G01*
G37*
G04 #@! TD.AperFunction*
G04 #@! TA.AperFunction,SMDPad,CuDef*
G36*
G01*
X164814800Y-110380920D02*
X164814800Y-110080920D01*
G75*
G02*
X164964800Y-109930920I150000J0D01*
G01*
X166264800Y-109930920D01*
G75*
G02*
X166414800Y-110080920I0J-150000D01*
G01*
X166414800Y-110380920D01*
G75*
G02*
X166264800Y-110530920I-150000J0D01*
G01*
X164964800Y-110530920D01*
G75*
G02*
X164814800Y-110380920I0J150000D01*
G01*
G37*
G04 #@! TD.AperFunction*
G04 #@! TA.AperFunction,SMDPad,CuDef*
G36*
G01*
X164814800Y-111650920D02*
X164814800Y-111350920D01*
G75*
G02*
X164964800Y-111200920I150000J0D01*
G01*
X166264800Y-111200920D01*
G75*
G02*
X166414800Y-111350920I0J-150000D01*
G01*
X166414800Y-111650920D01*
G75*
G02*
X166264800Y-111800920I-150000J0D01*
G01*
X164964800Y-111800920D01*
G75*
G02*
X164814800Y-111650920I0J150000D01*
G01*
G37*
G04 #@! TD.AperFunction*
G04 #@! TA.AperFunction,SMDPad,CuDef*
G36*
G01*
X164814800Y-112920920D02*
X164814800Y-112620920D01*
G75*
G02*
X164964800Y-112470920I150000J0D01*
G01*
X166264800Y-112470920D01*
G75*
G02*
X166414800Y-112620920I0J-150000D01*
G01*
X166414800Y-112920920D01*
G75*
G02*
X166264800Y-113070920I-150000J0D01*
G01*
X164964800Y-113070920D01*
G75*
G02*
X164814800Y-112920920I0J150000D01*
G01*
G37*
G04 #@! TD.AperFunction*
G04 #@! TA.AperFunction,SMDPad,CuDef*
G36*
G01*
X172014800Y-112920920D02*
X172014800Y-112620920D01*
G75*
G02*
X172164800Y-112470920I150000J0D01*
G01*
X173464800Y-112470920D01*
G75*
G02*
X173614800Y-112620920I0J-150000D01*
G01*
X173614800Y-112920920D01*
G75*
G02*
X173464800Y-113070920I-150000J0D01*
G01*
X172164800Y-113070920D01*
G75*
G02*
X172014800Y-112920920I0J150000D01*
G01*
G37*
G04 #@! TD.AperFunction*
G04 #@! TA.AperFunction,SMDPad,CuDef*
G36*
G01*
X172014800Y-111650920D02*
X172014800Y-111350920D01*
G75*
G02*
X172164800Y-111200920I150000J0D01*
G01*
X173464800Y-111200920D01*
G75*
G02*
X173614800Y-111350920I0J-150000D01*
G01*
X173614800Y-111650920D01*
G75*
G02*
X173464800Y-111800920I-150000J0D01*
G01*
X172164800Y-111800920D01*
G75*
G02*
X172014800Y-111650920I0J150000D01*
G01*
G37*
G04 #@! TD.AperFunction*
G04 #@! TA.AperFunction,SMDPad,CuDef*
G36*
G01*
X172014800Y-110380920D02*
X172014800Y-110080920D01*
G75*
G02*
X172164800Y-109930920I150000J0D01*
G01*
X173464800Y-109930920D01*
G75*
G02*
X173614800Y-110080920I0J-150000D01*
G01*
X173614800Y-110380920D01*
G75*
G02*
X173464800Y-110530920I-150000J0D01*
G01*
X172164800Y-110530920D01*
G75*
G02*
X172014800Y-110380920I0J150000D01*
G01*
G37*
G04 #@! TD.AperFunction*
G04 #@! TA.AperFunction,SMDPad,CuDef*
G36*
G01*
X172014800Y-109110920D02*
X172014800Y-108810920D01*
G75*
G02*
X172164800Y-108660920I150000J0D01*
G01*
X173464800Y-108660920D01*
G75*
G02*
X173614800Y-108810920I0J-150000D01*
G01*
X173614800Y-109110920D01*
G75*
G02*
X173464800Y-109260920I-150000J0D01*
G01*
X172164800Y-109260920D01*
G75*
G02*
X172014800Y-109110920I0J150000D01*
G01*
G37*
G04 #@! TD.AperFunction*
G04 #@! TA.AperFunction,SMDPad,CuDef*
G36*
G01*
X181860380Y-103113120D02*
X182360380Y-103113120D01*
G75*
G02*
X182585380Y-103338120I0J-225000D01*
G01*
X182585380Y-103788120D01*
G75*
G02*
X182360380Y-104013120I-225000J0D01*
G01*
X181860380Y-104013120D01*
G75*
G02*
X181635380Y-103788120I0J225000D01*
G01*
X181635380Y-103338120D01*
G75*
G02*
X181860380Y-103113120I225000J0D01*
G01*
G37*
G04 #@! TD.AperFunction*
G04 #@! TA.AperFunction,SMDPad,CuDef*
G36*
G01*
X181860380Y-104663120D02*
X182360380Y-104663120D01*
G75*
G02*
X182585380Y-104888120I0J-225000D01*
G01*
X182585380Y-105338120D01*
G75*
G02*
X182360380Y-105563120I-225000J0D01*
G01*
X181860380Y-105563120D01*
G75*
G02*
X181635380Y-105338120I0J225000D01*
G01*
X181635380Y-104888120D01*
G75*
G02*
X181860380Y-104663120I225000J0D01*
G01*
G37*
G04 #@! TD.AperFunction*
G04 #@! TA.AperFunction,SMDPad,CuDef*
G36*
G01*
X180175980Y-78334320D02*
X179675980Y-78334320D01*
G75*
G02*
X179450980Y-78109320I0J225000D01*
G01*
X179450980Y-77659320D01*
G75*
G02*
X179675980Y-77434320I225000J0D01*
G01*
X180175980Y-77434320D01*
G75*
G02*
X180400980Y-77659320I0J-225000D01*
G01*
X180400980Y-78109320D01*
G75*
G02*
X180175980Y-78334320I-225000J0D01*
G01*
G37*
G04 #@! TD.AperFunction*
G04 #@! TA.AperFunction,SMDPad,CuDef*
G36*
G01*
X180175980Y-76784320D02*
X179675980Y-76784320D01*
G75*
G02*
X179450980Y-76559320I0J225000D01*
G01*
X179450980Y-76109320D01*
G75*
G02*
X179675980Y-75884320I225000J0D01*
G01*
X180175980Y-75884320D01*
G75*
G02*
X180400980Y-76109320I0J-225000D01*
G01*
X180400980Y-76559320D01*
G75*
G02*
X180175980Y-76784320I-225000J0D01*
G01*
G37*
G04 #@! TD.AperFunction*
G04 #@! TA.AperFunction,SMDPad,CuDef*
G36*
G01*
X174664180Y-78359720D02*
X174164180Y-78359720D01*
G75*
G02*
X173939180Y-78134720I0J225000D01*
G01*
X173939180Y-77684720D01*
G75*
G02*
X174164180Y-77459720I225000J0D01*
G01*
X174664180Y-77459720D01*
G75*
G02*
X174889180Y-77684720I0J-225000D01*
G01*
X174889180Y-78134720D01*
G75*
G02*
X174664180Y-78359720I-225000J0D01*
G01*
G37*
G04 #@! TD.AperFunction*
G04 #@! TA.AperFunction,SMDPad,CuDef*
G36*
G01*
X174664180Y-76809720D02*
X174164180Y-76809720D01*
G75*
G02*
X173939180Y-76584720I0J225000D01*
G01*
X173939180Y-76134720D01*
G75*
G02*
X174164180Y-75909720I225000J0D01*
G01*
X174664180Y-75909720D01*
G75*
G02*
X174889180Y-76134720I0J-225000D01*
G01*
X174889180Y-76584720D01*
G75*
G02*
X174664180Y-76809720I-225000J0D01*
G01*
G37*
G04 #@! TD.AperFunction*
G04 #@! TA.AperFunction,SMDPad,CuDef*
G36*
G01*
X188962580Y-87417720D02*
X188962580Y-86917720D01*
G75*
G02*
X189187580Y-86692720I225000J0D01*
G01*
X189637580Y-86692720D01*
G75*
G02*
X189862580Y-86917720I0J-225000D01*
G01*
X189862580Y-87417720D01*
G75*
G02*
X189637580Y-87642720I-225000J0D01*
G01*
X189187580Y-87642720D01*
G75*
G02*
X188962580Y-87417720I0J225000D01*
G01*
G37*
G04 #@! TD.AperFunction*
G04 #@! TA.AperFunction,SMDPad,CuDef*
G36*
G01*
X190512580Y-87417720D02*
X190512580Y-86917720D01*
G75*
G02*
X190737580Y-86692720I225000J0D01*
G01*
X191187580Y-86692720D01*
G75*
G02*
X191412580Y-86917720I0J-225000D01*
G01*
X191412580Y-87417720D01*
G75*
G02*
X191187580Y-87642720I-225000J0D01*
G01*
X190737580Y-87642720D01*
G75*
G02*
X190512580Y-87417720I0J225000D01*
G01*
G37*
G04 #@! TD.AperFunction*
G04 #@! TA.AperFunction,SMDPad,CuDef*
G36*
G01*
X164310780Y-87959120D02*
X164310780Y-88459120D01*
G75*
G02*
X164085780Y-88684120I-225000J0D01*
G01*
X163635780Y-88684120D01*
G75*
G02*
X163410780Y-88459120I0J225000D01*
G01*
X163410780Y-87959120D01*
G75*
G02*
X163635780Y-87734120I225000J0D01*
G01*
X164085780Y-87734120D01*
G75*
G02*
X164310780Y-87959120I0J-225000D01*
G01*
G37*
G04 #@! TD.AperFunction*
G04 #@! TA.AperFunction,SMDPad,CuDef*
G36*
G01*
X162760780Y-87959120D02*
X162760780Y-88459120D01*
G75*
G02*
X162535780Y-88684120I-225000J0D01*
G01*
X162085780Y-88684120D01*
G75*
G02*
X161860780Y-88459120I0J225000D01*
G01*
X161860780Y-87959120D01*
G75*
G02*
X162085780Y-87734120I225000J0D01*
G01*
X162535780Y-87734120D01*
G75*
G02*
X162760780Y-87959120I0J-225000D01*
G01*
G37*
G04 #@! TD.AperFunction*
G04 #@! TA.AperFunction,SMDPad,CuDef*
G36*
G01*
X188975580Y-92396120D02*
X188975580Y-91896120D01*
G75*
G02*
X189200580Y-91671120I225000J0D01*
G01*
X189650580Y-91671120D01*
G75*
G02*
X189875580Y-91896120I0J-225000D01*
G01*
X189875580Y-92396120D01*
G75*
G02*
X189650580Y-92621120I-225000J0D01*
G01*
X189200580Y-92621120D01*
G75*
G02*
X188975580Y-92396120I0J225000D01*
G01*
G37*
G04 #@! TD.AperFunction*
G04 #@! TA.AperFunction,SMDPad,CuDef*
G36*
G01*
X190525580Y-92396120D02*
X190525580Y-91896120D01*
G75*
G02*
X190750580Y-91671120I225000J0D01*
G01*
X191200580Y-91671120D01*
G75*
G02*
X191425580Y-91896120I0J-225000D01*
G01*
X191425580Y-92396120D01*
G75*
G02*
X191200580Y-92621120I-225000J0D01*
G01*
X190750580Y-92621120D01*
G75*
G02*
X190525580Y-92396120I0J225000D01*
G01*
G37*
G04 #@! TD.AperFunction*
G04 #@! TA.AperFunction,SMDPad,CuDef*
G36*
G01*
X164323180Y-92962920D02*
X164323180Y-93462920D01*
G75*
G02*
X164098180Y-93687920I-225000J0D01*
G01*
X163648180Y-93687920D01*
G75*
G02*
X163423180Y-93462920I0J225000D01*
G01*
X163423180Y-92962920D01*
G75*
G02*
X163648180Y-92737920I225000J0D01*
G01*
X164098180Y-92737920D01*
G75*
G02*
X164323180Y-92962920I0J-225000D01*
G01*
G37*
G04 #@! TD.AperFunction*
G04 #@! TA.AperFunction,SMDPad,CuDef*
G36*
G01*
X162773180Y-92962920D02*
X162773180Y-93462920D01*
G75*
G02*
X162548180Y-93687920I-225000J0D01*
G01*
X162098180Y-93687920D01*
G75*
G02*
X161873180Y-93462920I0J225000D01*
G01*
X161873180Y-92962920D01*
G75*
G02*
X162098180Y-92737920I225000J0D01*
G01*
X162548180Y-92737920D01*
G75*
G02*
X162773180Y-92962920I0J-225000D01*
G01*
G37*
G04 #@! TD.AperFunction*
G04 #@! TA.AperFunction,SMDPad,CuDef*
G36*
G01*
X161911580Y-96993120D02*
X161911580Y-96443120D01*
G75*
G02*
X162111580Y-96243120I200000J0D01*
G01*
X162511580Y-96243120D01*
G75*
G02*
X162711580Y-96443120I0J-200000D01*
G01*
X162711580Y-96993120D01*
G75*
G02*
X162511580Y-97193120I-200000J0D01*
G01*
X162111580Y-97193120D01*
G75*
G02*
X161911580Y-96993120I0J200000D01*
G01*
G37*
G04 #@! TD.AperFunction*
G04 #@! TA.AperFunction,SMDPad,CuDef*
G36*
G01*
X163561580Y-96993120D02*
X163561580Y-96443120D01*
G75*
G02*
X163761580Y-96243120I200000J0D01*
G01*
X164161580Y-96243120D01*
G75*
G02*
X164361580Y-96443120I0J-200000D01*
G01*
X164361580Y-96993120D01*
G75*
G02*
X164161580Y-97193120I-200000J0D01*
G01*
X163761580Y-97193120D01*
G75*
G02*
X163561580Y-96993120I0J200000D01*
G01*
G37*
G04 #@! TD.AperFunction*
D19*
X202577700Y-113995200D03*
D20*
X202577700Y-111455200D03*
G04 #@! TA.AperFunction,SMDPad,CuDef*
G36*
G01*
X153589400Y-115399000D02*
X153039400Y-115399000D01*
G75*
G02*
X152839400Y-115199000I0J200000D01*
G01*
X152839400Y-114799000D01*
G75*
G02*
X153039400Y-114599000I200000J0D01*
G01*
X153589400Y-114599000D01*
G75*
G02*
X153789400Y-114799000I0J-200000D01*
G01*
X153789400Y-115199000D01*
G75*
G02*
X153589400Y-115399000I-200000J0D01*
G01*
G37*
G04 #@! TD.AperFunction*
G04 #@! TA.AperFunction,SMDPad,CuDef*
G36*
G01*
X153589400Y-117049000D02*
X153039400Y-117049000D01*
G75*
G02*
X152839400Y-116849000I0J200000D01*
G01*
X152839400Y-116449000D01*
G75*
G02*
X153039400Y-116249000I200000J0D01*
G01*
X153589400Y-116249000D01*
G75*
G02*
X153789400Y-116449000I0J-200000D01*
G01*
X153789400Y-116849000D01*
G75*
G02*
X153589400Y-117049000I-200000J0D01*
G01*
G37*
G04 #@! TD.AperFunction*
G04 #@! TA.AperFunction,SMDPad,CuDef*
G36*
G01*
X151381750Y-116224800D02*
X151894250Y-116224800D01*
G75*
G02*
X152113000Y-116443550I0J-218750D01*
G01*
X152113000Y-116881050D01*
G75*
G02*
X151894250Y-117099800I-218750J0D01*
G01*
X151381750Y-117099800D01*
G75*
G02*
X151163000Y-116881050I0J218750D01*
G01*
X151163000Y-116443550D01*
G75*
G02*
X151381750Y-116224800I218750J0D01*
G01*
G37*
G04 #@! TD.AperFunction*
G04 #@! TA.AperFunction,SMDPad,CuDef*
G36*
G01*
X151381750Y-114649800D02*
X151894250Y-114649800D01*
G75*
G02*
X152113000Y-114868550I0J-218750D01*
G01*
X152113000Y-115306050D01*
G75*
G02*
X151894250Y-115524800I-218750J0D01*
G01*
X151381750Y-115524800D01*
G75*
G02*
X151163000Y-115306050I0J218750D01*
G01*
X151163000Y-114868550D01*
G75*
G02*
X151381750Y-114649800I218750J0D01*
G01*
G37*
G04 #@! TD.AperFunction*
D14*
X133383200Y-109108200D03*
X133383200Y-111008200D03*
X131183200Y-111008200D03*
X131183200Y-110058200D03*
X131183200Y-109108200D03*
G04 #@! TA.AperFunction,SMDPad,CuDef*
G36*
G01*
X128405700Y-112654200D02*
X127905700Y-112654200D01*
G75*
G02*
X127680700Y-112429200I0J225000D01*
G01*
X127680700Y-111979200D01*
G75*
G02*
X127905700Y-111754200I225000J0D01*
G01*
X128405700Y-111754200D01*
G75*
G02*
X128630700Y-111979200I0J-225000D01*
G01*
X128630700Y-112429200D01*
G75*
G02*
X128405700Y-112654200I-225000J0D01*
G01*
G37*
G04 #@! TD.AperFunction*
G04 #@! TA.AperFunction,SMDPad,CuDef*
G36*
G01*
X128405700Y-114204200D02*
X127905700Y-114204200D01*
G75*
G02*
X127680700Y-113979200I0J225000D01*
G01*
X127680700Y-113529200D01*
G75*
G02*
X127905700Y-113304200I225000J0D01*
G01*
X128405700Y-113304200D01*
G75*
G02*
X128630700Y-113529200I0J-225000D01*
G01*
X128630700Y-113979200D01*
G75*
G02*
X128405700Y-114204200I-225000J0D01*
G01*
G37*
G04 #@! TD.AperFunction*
G04 #@! TA.AperFunction,SMDPad,CuDef*
G36*
G01*
X115212150Y-70860400D02*
X115724650Y-70860400D01*
G75*
G02*
X115943400Y-71079150I0J-218750D01*
G01*
X115943400Y-71516650D01*
G75*
G02*
X115724650Y-71735400I-218750J0D01*
G01*
X115212150Y-71735400D01*
G75*
G02*
X114993400Y-71516650I0J218750D01*
G01*
X114993400Y-71079150D01*
G75*
G02*
X115212150Y-70860400I218750J0D01*
G01*
G37*
G04 #@! TD.AperFunction*
G04 #@! TA.AperFunction,SMDPad,CuDef*
G36*
G01*
X115212150Y-69285400D02*
X115724650Y-69285400D01*
G75*
G02*
X115943400Y-69504150I0J-218750D01*
G01*
X115943400Y-69941650D01*
G75*
G02*
X115724650Y-70160400I-218750J0D01*
G01*
X115212150Y-70160400D01*
G75*
G02*
X114993400Y-69941650I0J218750D01*
G01*
X114993400Y-69504150D01*
G75*
G02*
X115212150Y-69285400I218750J0D01*
G01*
G37*
G04 #@! TD.AperFunction*
G04 #@! TA.AperFunction,SMDPad,CuDef*
G36*
G01*
X116971400Y-112794600D02*
X117521400Y-112794600D01*
G75*
G02*
X117721400Y-112994600I0J-200000D01*
G01*
X117721400Y-113394600D01*
G75*
G02*
X117521400Y-113594600I-200000J0D01*
G01*
X116971400Y-113594600D01*
G75*
G02*
X116771400Y-113394600I0J200000D01*
G01*
X116771400Y-112994600D01*
G75*
G02*
X116971400Y-112794600I200000J0D01*
G01*
G37*
G04 #@! TD.AperFunction*
G04 #@! TA.AperFunction,SMDPad,CuDef*
G36*
G01*
X116971400Y-111144600D02*
X117521400Y-111144600D01*
G75*
G02*
X117721400Y-111344600I0J-200000D01*
G01*
X117721400Y-111744600D01*
G75*
G02*
X117521400Y-111944600I-200000J0D01*
G01*
X116971400Y-111944600D01*
G75*
G02*
X116771400Y-111744600I0J200000D01*
G01*
X116771400Y-111344600D01*
G75*
G02*
X116971400Y-111144600I200000J0D01*
G01*
G37*
G04 #@! TD.AperFunction*
G04 #@! TA.AperFunction,SMDPad,CuDef*
G36*
G01*
X115472800Y-112794600D02*
X116022800Y-112794600D01*
G75*
G02*
X116222800Y-112994600I0J-200000D01*
G01*
X116222800Y-113394600D01*
G75*
G02*
X116022800Y-113594600I-200000J0D01*
G01*
X115472800Y-113594600D01*
G75*
G02*
X115272800Y-113394600I0J200000D01*
G01*
X115272800Y-112994600D01*
G75*
G02*
X115472800Y-112794600I200000J0D01*
G01*
G37*
G04 #@! TD.AperFunction*
G04 #@! TA.AperFunction,SMDPad,CuDef*
G36*
G01*
X115472800Y-111144600D02*
X116022800Y-111144600D01*
G75*
G02*
X116222800Y-111344600I0J-200000D01*
G01*
X116222800Y-111744600D01*
G75*
G02*
X116022800Y-111944600I-200000J0D01*
G01*
X115472800Y-111944600D01*
G75*
G02*
X115272800Y-111744600I0J200000D01*
G01*
X115272800Y-111344600D01*
G75*
G02*
X115472800Y-111144600I200000J0D01*
G01*
G37*
G04 #@! TD.AperFunction*
D24*
X111974400Y-111516200D03*
D25*
X113884400Y-112896200D03*
X113884400Y-113396200D03*
X113884400Y-113896200D03*
X113884400Y-114396200D03*
X113884400Y-114896200D03*
X113884400Y-115396200D03*
X113884400Y-115896200D03*
X113884400Y-118396200D03*
X113884400Y-117396200D03*
X113884400Y-116896200D03*
X113884400Y-116396200D03*
X113884400Y-117896200D03*
X112184400Y-118146200D03*
D24*
X111974400Y-119776200D03*
X106024400Y-120136200D03*
X106024400Y-111156200D03*
D25*
X112184400Y-117646200D03*
X112184400Y-117146200D03*
X112184400Y-116646200D03*
X112184400Y-116146200D03*
X112184400Y-115646200D03*
X112184400Y-115146200D03*
X112184400Y-114646200D03*
X112184400Y-114146200D03*
X112184400Y-113646200D03*
X112184400Y-113146200D03*
X112184400Y-112646200D03*
D26*
X122539000Y-112471200D03*
X120539000Y-113421200D03*
X120539000Y-111521200D03*
D27*
X114220400Y-72522800D03*
X114220400Y-76712800D03*
D28*
X109790400Y-69401800D03*
D29*
X112975400Y-69401800D03*
X113545400Y-80051800D03*
D30*
X110935400Y-80051800D03*
D31*
X109665400Y-80036800D03*
D32*
X106985400Y-70576800D03*
X106985400Y-71676800D03*
X106985400Y-72776800D03*
X106985400Y-73876800D03*
X106985400Y-74976800D03*
X106985400Y-76076800D03*
X106985400Y-77176800D03*
X106985400Y-78276800D03*
G04 #@! TA.AperFunction,SMDPad,CuDef*
G36*
G01*
X109138600Y-81733200D02*
X109138600Y-81233200D01*
G75*
G02*
X109363600Y-81008200I225000J0D01*
G01*
X109813600Y-81008200D01*
G75*
G02*
X110038600Y-81233200I0J-225000D01*
G01*
X110038600Y-81733200D01*
G75*
G02*
X109813600Y-81958200I-225000J0D01*
G01*
X109363600Y-81958200D01*
G75*
G02*
X109138600Y-81733200I0J225000D01*
G01*
G37*
G04 #@! TD.AperFunction*
G04 #@! TA.AperFunction,SMDPad,CuDef*
G36*
G01*
X107588600Y-81733200D02*
X107588600Y-81233200D01*
G75*
G02*
X107813600Y-81008200I225000J0D01*
G01*
X108263600Y-81008200D01*
G75*
G02*
X108488600Y-81233200I0J-225000D01*
G01*
X108488600Y-81733200D01*
G75*
G02*
X108263600Y-81958200I-225000J0D01*
G01*
X107813600Y-81958200D01*
G75*
G02*
X107588600Y-81733200I0J225000D01*
G01*
G37*
G04 #@! TD.AperFunction*
D33*
X105708600Y-106960000D03*
D34*
X105708600Y-104260000D03*
D35*
X105708600Y-108785000D03*
X105708600Y-102035000D03*
D36*
X108283600Y-107897500D03*
X108283600Y-102922500D03*
D37*
X108368600Y-106710000D03*
X108368600Y-106060000D03*
X108368600Y-105410000D03*
X108368600Y-104760000D03*
X108368600Y-104110000D03*
G04 #@! TA.AperFunction,SMDPad,CuDef*
G36*
G01*
X145563000Y-88068600D02*
X145013000Y-88068600D01*
G75*
G02*
X144813000Y-87868600I0J200000D01*
G01*
X144813000Y-87468600D01*
G75*
G02*
X145013000Y-87268600I200000J0D01*
G01*
X145563000Y-87268600D01*
G75*
G02*
X145763000Y-87468600I0J-200000D01*
G01*
X145763000Y-87868600D01*
G75*
G02*
X145563000Y-88068600I-200000J0D01*
G01*
G37*
G04 #@! TD.AperFunction*
G04 #@! TA.AperFunction,SMDPad,CuDef*
G36*
G01*
X145563000Y-89718600D02*
X145013000Y-89718600D01*
G75*
G02*
X144813000Y-89518600I0J200000D01*
G01*
X144813000Y-89118600D01*
G75*
G02*
X145013000Y-88918600I200000J0D01*
G01*
X145563000Y-88918600D01*
G75*
G02*
X145763000Y-89118600I0J-200000D01*
G01*
X145763000Y-89518600D01*
G75*
G02*
X145563000Y-89718600I-200000J0D01*
G01*
G37*
G04 #@! TD.AperFunction*
D38*
X168762680Y-107127360D03*
X168762680Y-104627360D03*
D39*
X128148400Y-116483600D03*
D40*
X126898400Y-118973600D03*
X122398400Y-118973600D03*
D39*
X121138400Y-116483600D03*
G04 #@! TA.AperFunction,SMDPad,CuDef*
G36*
G01*
X115193400Y-76371000D02*
X115743400Y-76371000D01*
G75*
G02*
X115943400Y-76571000I0J-200000D01*
G01*
X115943400Y-76971000D01*
G75*
G02*
X115743400Y-77171000I-200000J0D01*
G01*
X115193400Y-77171000D01*
G75*
G02*
X114993400Y-76971000I0J200000D01*
G01*
X114993400Y-76571000D01*
G75*
G02*
X115193400Y-76371000I200000J0D01*
G01*
G37*
G04 #@! TD.AperFunction*
G04 #@! TA.AperFunction,SMDPad,CuDef*
G36*
G01*
X115193400Y-74721000D02*
X115743400Y-74721000D01*
G75*
G02*
X115943400Y-74921000I0J-200000D01*
G01*
X115943400Y-75321000D01*
G75*
G02*
X115743400Y-75521000I-200000J0D01*
G01*
X115193400Y-75521000D01*
G75*
G02*
X114993400Y-75321000I0J200000D01*
G01*
X114993400Y-74921000D01*
G75*
G02*
X115193400Y-74721000I200000J0D01*
G01*
G37*
G04 #@! TD.AperFunction*
G04 #@! TA.AperFunction,SMDPad,CuDef*
G36*
G01*
X136900600Y-90728900D02*
X136900600Y-90728900D01*
G75*
G02*
X136750600Y-90578900I0J150000D01*
G01*
X136750600Y-90028900D01*
G75*
G02*
X136900600Y-89878900I150000J0D01*
G01*
X136900600Y-89878900D01*
G75*
G02*
X137050600Y-90028900I0J-150000D01*
G01*
X137050600Y-90578900D01*
G75*
G02*
X136900600Y-90728900I-150000J0D01*
G01*
G37*
G04 #@! TD.AperFunction*
G04 #@! TA.AperFunction,SMDPad,CuDef*
G36*
G01*
X137400600Y-90728900D02*
X137400600Y-90728900D01*
G75*
G02*
X137250600Y-90578900I0J150000D01*
G01*
X137250600Y-90028900D01*
G75*
G02*
X137400600Y-89878900I150000J0D01*
G01*
X137400600Y-89878900D01*
G75*
G02*
X137550600Y-90028900I0J-150000D01*
G01*
X137550600Y-90578900D01*
G75*
G02*
X137400600Y-90728900I-150000J0D01*
G01*
G37*
G04 #@! TD.AperFunction*
G04 #@! TA.AperFunction,SMDPad,CuDef*
G36*
G01*
X137900600Y-90728900D02*
X137900600Y-90728900D01*
G75*
G02*
X137750600Y-90578900I0J150000D01*
G01*
X137750600Y-90028900D01*
G75*
G02*
X137900600Y-89878900I150000J0D01*
G01*
X137900600Y-89878900D01*
G75*
G02*
X138050600Y-90028900I0J-150000D01*
G01*
X138050600Y-90578900D01*
G75*
G02*
X137900600Y-90728900I-150000J0D01*
G01*
G37*
G04 #@! TD.AperFunction*
G04 #@! TA.AperFunction,SMDPad,CuDef*
G36*
G01*
X138400600Y-90728900D02*
X138400600Y-90728900D01*
G75*
G02*
X138250600Y-90578900I0J150000D01*
G01*
X138250600Y-90028900D01*
G75*
G02*
X138400600Y-89878900I150000J0D01*
G01*
X138400600Y-89878900D01*
G75*
G02*
X138550600Y-90028900I0J-150000D01*
G01*
X138550600Y-90578900D01*
G75*
G02*
X138400600Y-90728900I-150000J0D01*
G01*
G37*
G04 #@! TD.AperFunction*
G04 #@! TA.AperFunction,SMDPad,CuDef*
G36*
G01*
X138900600Y-90728900D02*
X138900600Y-90728900D01*
G75*
G02*
X138750600Y-90578900I0J150000D01*
G01*
X138750600Y-90028900D01*
G75*
G02*
X138900600Y-89878900I150000J0D01*
G01*
X138900600Y-89878900D01*
G75*
G02*
X139050600Y-90028900I0J-150000D01*
G01*
X139050600Y-90578900D01*
G75*
G02*
X138900600Y-90728900I-150000J0D01*
G01*
G37*
G04 #@! TD.AperFunction*
G04 #@! TA.AperFunction,SMDPad,CuDef*
G36*
G01*
X139400600Y-90728900D02*
X139400600Y-90728900D01*
G75*
G02*
X139250600Y-90578900I0J150000D01*
G01*
X139250600Y-90028900D01*
G75*
G02*
X139400600Y-89878900I150000J0D01*
G01*
X139400600Y-89878900D01*
G75*
G02*
X139550600Y-90028900I0J-150000D01*
G01*
X139550600Y-90578900D01*
G75*
G02*
X139400600Y-90728900I-150000J0D01*
G01*
G37*
G04 #@! TD.AperFunction*
G04 #@! TA.AperFunction,SMDPad,CuDef*
G36*
G01*
X140375600Y-89753900D02*
X139825600Y-89753900D01*
G75*
G02*
X139675600Y-89603900I0J150000D01*
G01*
X139675600Y-89603900D01*
G75*
G02*
X139825600Y-89453900I150000J0D01*
G01*
X140375600Y-89453900D01*
G75*
G02*
X140525600Y-89603900I0J-150000D01*
G01*
X140525600Y-89603900D01*
G75*
G02*
X140375600Y-89753900I-150000J0D01*
G01*
G37*
G04 #@! TD.AperFunction*
G04 #@! TA.AperFunction,SMDPad,CuDef*
G36*
G01*
X140375600Y-89253900D02*
X139825600Y-89253900D01*
G75*
G02*
X139675600Y-89103900I0J150000D01*
G01*
X139675600Y-89103900D01*
G75*
G02*
X139825600Y-88953900I150000J0D01*
G01*
X140375600Y-88953900D01*
G75*
G02*
X140525600Y-89103900I0J-150000D01*
G01*
X140525600Y-89103900D01*
G75*
G02*
X140375600Y-89253900I-150000J0D01*
G01*
G37*
G04 #@! TD.AperFunction*
G04 #@! TA.AperFunction,SMDPad,CuDef*
G36*
G01*
X140375600Y-88753900D02*
X139825600Y-88753900D01*
G75*
G02*
X139675600Y-88603900I0J150000D01*
G01*
X139675600Y-88603900D01*
G75*
G02*
X139825600Y-88453900I150000J0D01*
G01*
X140375600Y-88453900D01*
G75*
G02*
X140525600Y-88603900I0J-150000D01*
G01*
X140525600Y-88603900D01*
G75*
G02*
X140375600Y-88753900I-150000J0D01*
G01*
G37*
G04 #@! TD.AperFunction*
G04 #@! TA.AperFunction,SMDPad,CuDef*
G36*
G01*
X140375600Y-88253900D02*
X139825600Y-88253900D01*
G75*
G02*
X139675600Y-88103900I0J150000D01*
G01*
X139675600Y-88103900D01*
G75*
G02*
X139825600Y-87953900I150000J0D01*
G01*
X140375600Y-87953900D01*
G75*
G02*
X140525600Y-88103900I0J-150000D01*
G01*
X140525600Y-88103900D01*
G75*
G02*
X140375600Y-88253900I-150000J0D01*
G01*
G37*
G04 #@! TD.AperFunction*
G04 #@! TA.AperFunction,SMDPad,CuDef*
G36*
G01*
X140375600Y-87753900D02*
X139825600Y-87753900D01*
G75*
G02*
X139675600Y-87603900I0J150000D01*
G01*
X139675600Y-87603900D01*
G75*
G02*
X139825600Y-87453900I150000J0D01*
G01*
X140375600Y-87453900D01*
G75*
G02*
X140525600Y-87603900I0J-150000D01*
G01*
X140525600Y-87603900D01*
G75*
G02*
X140375600Y-87753900I-150000J0D01*
G01*
G37*
G04 #@! TD.AperFunction*
G04 #@! TA.AperFunction,SMDPad,CuDef*
G36*
G01*
X140375600Y-87253900D02*
X139825600Y-87253900D01*
G75*
G02*
X139675600Y-87103900I0J150000D01*
G01*
X139675600Y-87103900D01*
G75*
G02*
X139825600Y-86953900I150000J0D01*
G01*
X140375600Y-86953900D01*
G75*
G02*
X140525600Y-87103900I0J-150000D01*
G01*
X140525600Y-87103900D01*
G75*
G02*
X140375600Y-87253900I-150000J0D01*
G01*
G37*
G04 #@! TD.AperFunction*
G04 #@! TA.AperFunction,SMDPad,CuDef*
G36*
G01*
X139400600Y-86828900D02*
X139400600Y-86828900D01*
G75*
G02*
X139250600Y-86678900I0J150000D01*
G01*
X139250600Y-86128900D01*
G75*
G02*
X139400600Y-85978900I150000J0D01*
G01*
X139400600Y-85978900D01*
G75*
G02*
X139550600Y-86128900I0J-150000D01*
G01*
X139550600Y-86678900D01*
G75*
G02*
X139400600Y-86828900I-150000J0D01*
G01*
G37*
G04 #@! TD.AperFunction*
G04 #@! TA.AperFunction,SMDPad,CuDef*
G36*
G01*
X138900600Y-86828900D02*
X138900600Y-86828900D01*
G75*
G02*
X138750600Y-86678900I0J150000D01*
G01*
X138750600Y-86128900D01*
G75*
G02*
X138900600Y-85978900I150000J0D01*
G01*
X138900600Y-85978900D01*
G75*
G02*
X139050600Y-86128900I0J-150000D01*
G01*
X139050600Y-86678900D01*
G75*
G02*
X138900600Y-86828900I-150000J0D01*
G01*
G37*
G04 #@! TD.AperFunction*
G04 #@! TA.AperFunction,SMDPad,CuDef*
G36*
G01*
X138400600Y-86828900D02*
X138400600Y-86828900D01*
G75*
G02*
X138250600Y-86678900I0J150000D01*
G01*
X138250600Y-86128900D01*
G75*
G02*
X138400600Y-85978900I150000J0D01*
G01*
X138400600Y-85978900D01*
G75*
G02*
X138550600Y-86128900I0J-150000D01*
G01*
X138550600Y-86678900D01*
G75*
G02*
X138400600Y-86828900I-150000J0D01*
G01*
G37*
G04 #@! TD.AperFunction*
G04 #@! TA.AperFunction,SMDPad,CuDef*
G36*
G01*
X137900600Y-86828900D02*
X137900600Y-86828900D01*
G75*
G02*
X137750600Y-86678900I0J150000D01*
G01*
X137750600Y-86128900D01*
G75*
G02*
X137900600Y-85978900I150000J0D01*
G01*
X137900600Y-85978900D01*
G75*
G02*
X138050600Y-86128900I0J-150000D01*
G01*
X138050600Y-86678900D01*
G75*
G02*
X137900600Y-86828900I-150000J0D01*
G01*
G37*
G04 #@! TD.AperFunction*
G04 #@! TA.AperFunction,SMDPad,CuDef*
G36*
G01*
X137400600Y-86828900D02*
X137400600Y-86828900D01*
G75*
G02*
X137250600Y-86678900I0J150000D01*
G01*
X137250600Y-86128900D01*
G75*
G02*
X137400600Y-85978900I150000J0D01*
G01*
X137400600Y-85978900D01*
G75*
G02*
X137550600Y-86128900I0J-150000D01*
G01*
X137550600Y-86678900D01*
G75*
G02*
X137400600Y-86828900I-150000J0D01*
G01*
G37*
G04 #@! TD.AperFunction*
G04 #@! TA.AperFunction,SMDPad,CuDef*
G36*
G01*
X136900600Y-86828900D02*
X136900600Y-86828900D01*
G75*
G02*
X136750600Y-86678900I0J150000D01*
G01*
X136750600Y-86128900D01*
G75*
G02*
X136900600Y-85978900I150000J0D01*
G01*
X136900600Y-85978900D01*
G75*
G02*
X137050600Y-86128900I0J-150000D01*
G01*
X137050600Y-86678900D01*
G75*
G02*
X136900600Y-86828900I-150000J0D01*
G01*
G37*
G04 #@! TD.AperFunction*
G04 #@! TA.AperFunction,SMDPad,CuDef*
G36*
G01*
X136475600Y-87253900D02*
X135925600Y-87253900D01*
G75*
G02*
X135775600Y-87103900I0J150000D01*
G01*
X135775600Y-87103900D01*
G75*
G02*
X135925600Y-86953900I150000J0D01*
G01*
X136475600Y-86953900D01*
G75*
G02*
X136625600Y-87103900I0J-150000D01*
G01*
X136625600Y-87103900D01*
G75*
G02*
X136475600Y-87253900I-150000J0D01*
G01*
G37*
G04 #@! TD.AperFunction*
G04 #@! TA.AperFunction,SMDPad,CuDef*
G36*
G01*
X136475600Y-87753900D02*
X135925600Y-87753900D01*
G75*
G02*
X135775600Y-87603900I0J150000D01*
G01*
X135775600Y-87603900D01*
G75*
G02*
X135925600Y-87453900I150000J0D01*
G01*
X136475600Y-87453900D01*
G75*
G02*
X136625600Y-87603900I0J-150000D01*
G01*
X136625600Y-87603900D01*
G75*
G02*
X136475600Y-87753900I-150000J0D01*
G01*
G37*
G04 #@! TD.AperFunction*
G04 #@! TA.AperFunction,SMDPad,CuDef*
G36*
G01*
X136475600Y-88253900D02*
X135925600Y-88253900D01*
G75*
G02*
X135775600Y-88103900I0J150000D01*
G01*
X135775600Y-88103900D01*
G75*
G02*
X135925600Y-87953900I150000J0D01*
G01*
X136475600Y-87953900D01*
G75*
G02*
X136625600Y-88103900I0J-150000D01*
G01*
X136625600Y-88103900D01*
G75*
G02*
X136475600Y-88253900I-150000J0D01*
G01*
G37*
G04 #@! TD.AperFunction*
G04 #@! TA.AperFunction,SMDPad,CuDef*
G36*
G01*
X136475600Y-88753900D02*
X135925600Y-88753900D01*
G75*
G02*
X135775600Y-88603900I0J150000D01*
G01*
X135775600Y-88603900D01*
G75*
G02*
X135925600Y-88453900I150000J0D01*
G01*
X136475600Y-88453900D01*
G75*
G02*
X136625600Y-88603900I0J-150000D01*
G01*
X136625600Y-88603900D01*
G75*
G02*
X136475600Y-88753900I-150000J0D01*
G01*
G37*
G04 #@! TD.AperFunction*
G04 #@! TA.AperFunction,SMDPad,CuDef*
G36*
G01*
X136475600Y-89253900D02*
X135925600Y-89253900D01*
G75*
G02*
X135775600Y-89103900I0J150000D01*
G01*
X135775600Y-89103900D01*
G75*
G02*
X135925600Y-88953900I150000J0D01*
G01*
X136475600Y-88953900D01*
G75*
G02*
X136625600Y-89103900I0J-150000D01*
G01*
X136625600Y-89103900D01*
G75*
G02*
X136475600Y-89253900I-150000J0D01*
G01*
G37*
G04 #@! TD.AperFunction*
G04 #@! TA.AperFunction,SMDPad,CuDef*
G36*
G01*
X136475600Y-89753900D02*
X135925600Y-89753900D01*
G75*
G02*
X135775600Y-89603900I0J150000D01*
G01*
X135775600Y-89603900D01*
G75*
G02*
X135925600Y-89453900I150000J0D01*
G01*
X136475600Y-89453900D01*
G75*
G02*
X136625600Y-89603900I0J-150000D01*
G01*
X136625600Y-89603900D01*
G75*
G02*
X136475600Y-89753900I-150000J0D01*
G01*
G37*
G04 #@! TD.AperFunction*
D41*
X138150600Y-88353900D03*
D12*
X137150600Y-89353900D03*
X138150600Y-89353900D03*
X139150600Y-89353900D03*
X137150600Y-88353900D03*
X138150600Y-88353900D03*
X139150600Y-88353900D03*
X137150600Y-87353900D03*
X138150600Y-87353900D03*
X139150600Y-87353900D03*
D39*
X119916400Y-82561100D03*
X118516400Y-98871100D03*
D42*
X125246400Y-85636100D03*
X127786400Y-86652100D03*
X125246400Y-87668100D03*
X127786400Y-88684100D03*
X125246400Y-89700100D03*
D43*
X111276400Y-97741100D03*
X108736400Y-97741100D03*
X111276400Y-83691100D03*
X108736400Y-83691100D03*
D42*
X127786400Y-84620100D03*
G04 #@! TA.AperFunction,SMDPad,CuDef*
G36*
G01*
X130943800Y-94797200D02*
X130943800Y-95347200D01*
G75*
G02*
X130743800Y-95547200I-200000J0D01*
G01*
X130343800Y-95547200D01*
G75*
G02*
X130143800Y-95347200I0J200000D01*
G01*
X130143800Y-94797200D01*
G75*
G02*
X130343800Y-94597200I200000J0D01*
G01*
X130743800Y-94597200D01*
G75*
G02*
X130943800Y-94797200I0J-200000D01*
G01*
G37*
G04 #@! TD.AperFunction*
G04 #@! TA.AperFunction,SMDPad,CuDef*
G36*
G01*
X132593800Y-94797200D02*
X132593800Y-95347200D01*
G75*
G02*
X132393800Y-95547200I-200000J0D01*
G01*
X131993800Y-95547200D01*
G75*
G02*
X131793800Y-95347200I0J200000D01*
G01*
X131793800Y-94797200D01*
G75*
G02*
X131993800Y-94597200I200000J0D01*
G01*
X132393800Y-94597200D01*
G75*
G02*
X132593800Y-94797200I0J-200000D01*
G01*
G37*
G04 #@! TD.AperFunction*
G04 #@! TA.AperFunction,SMDPad,CuDef*
G36*
G01*
X130943800Y-97870600D02*
X130943800Y-98420600D01*
G75*
G02*
X130743800Y-98620600I-200000J0D01*
G01*
X130343800Y-98620600D01*
G75*
G02*
X130143800Y-98420600I0J200000D01*
G01*
X130143800Y-97870600D01*
G75*
G02*
X130343800Y-97670600I200000J0D01*
G01*
X130743800Y-97670600D01*
G75*
G02*
X130943800Y-97870600I0J-200000D01*
G01*
G37*
G04 #@! TD.AperFunction*
G04 #@! TA.AperFunction,SMDPad,CuDef*
G36*
G01*
X132593800Y-97870600D02*
X132593800Y-98420600D01*
G75*
G02*
X132393800Y-98620600I-200000J0D01*
G01*
X131993800Y-98620600D01*
G75*
G02*
X131793800Y-98420600I0J200000D01*
G01*
X131793800Y-97870600D01*
G75*
G02*
X131993800Y-97670600I200000J0D01*
G01*
X132393800Y-97670600D01*
G75*
G02*
X132593800Y-97870600I0J-200000D01*
G01*
G37*
G04 #@! TD.AperFunction*
G04 #@! TA.AperFunction,SMDPad,CuDef*
G36*
G01*
X130943800Y-96397400D02*
X130943800Y-96947400D01*
G75*
G02*
X130743800Y-97147400I-200000J0D01*
G01*
X130343800Y-97147400D01*
G75*
G02*
X130143800Y-96947400I0J200000D01*
G01*
X130143800Y-96397400D01*
G75*
G02*
X130343800Y-96197400I200000J0D01*
G01*
X130743800Y-96197400D01*
G75*
G02*
X130943800Y-96397400I0J-200000D01*
G01*
G37*
G04 #@! TD.AperFunction*
G04 #@! TA.AperFunction,SMDPad,CuDef*
G36*
G01*
X132593800Y-96397400D02*
X132593800Y-96947400D01*
G75*
G02*
X132393800Y-97147400I-200000J0D01*
G01*
X131993800Y-97147400D01*
G75*
G02*
X131793800Y-96947400I0J200000D01*
G01*
X131793800Y-96397400D01*
G75*
G02*
X131993800Y-96197400I200000J0D01*
G01*
X132393800Y-96197400D01*
G75*
G02*
X132593800Y-96397400I0J-200000D01*
G01*
G37*
G04 #@! TD.AperFunction*
G04 #@! TA.AperFunction,SMDPad,CuDef*
G36*
G01*
X132174800Y-89708400D02*
X132174800Y-89158400D01*
G75*
G02*
X132374800Y-88958400I200000J0D01*
G01*
X132774800Y-88958400D01*
G75*
G02*
X132974800Y-89158400I0J-200000D01*
G01*
X132974800Y-89708400D01*
G75*
G02*
X132774800Y-89908400I-200000J0D01*
G01*
X132374800Y-89908400D01*
G75*
G02*
X132174800Y-89708400I0J200000D01*
G01*
G37*
G04 #@! TD.AperFunction*
G04 #@! TA.AperFunction,SMDPad,CuDef*
G36*
G01*
X130524800Y-89708400D02*
X130524800Y-89158400D01*
G75*
G02*
X130724800Y-88958400I200000J0D01*
G01*
X131124800Y-88958400D01*
G75*
G02*
X131324800Y-89158400I0J-200000D01*
G01*
X131324800Y-89708400D01*
G75*
G02*
X131124800Y-89908400I-200000J0D01*
G01*
X130724800Y-89908400D01*
G75*
G02*
X130524800Y-89708400I0J200000D01*
G01*
G37*
G04 #@! TD.AperFunction*
G04 #@! TA.AperFunction,SMDPad,CuDef*
G36*
G01*
X132098600Y-91689600D02*
X132098600Y-91139600D01*
G75*
G02*
X132298600Y-90939600I200000J0D01*
G01*
X132698600Y-90939600D01*
G75*
G02*
X132898600Y-91139600I0J-200000D01*
G01*
X132898600Y-91689600D01*
G75*
G02*
X132698600Y-91889600I-200000J0D01*
G01*
X132298600Y-91889600D01*
G75*
G02*
X132098600Y-91689600I0J200000D01*
G01*
G37*
G04 #@! TD.AperFunction*
G04 #@! TA.AperFunction,SMDPad,CuDef*
G36*
G01*
X130448600Y-91689600D02*
X130448600Y-91139600D01*
G75*
G02*
X130648600Y-90939600I200000J0D01*
G01*
X131048600Y-90939600D01*
G75*
G02*
X131248600Y-91139600I0J-200000D01*
G01*
X131248600Y-91689600D01*
G75*
G02*
X131048600Y-91889600I-200000J0D01*
G01*
X130648600Y-91889600D01*
G75*
G02*
X130448600Y-91689600I0J200000D01*
G01*
G37*
G04 #@! TD.AperFunction*
G04 #@! TA.AperFunction,SMDPad,CuDef*
G36*
G01*
X132174800Y-82799600D02*
X132174800Y-82249600D01*
G75*
G02*
X132374800Y-82049600I200000J0D01*
G01*
X132774800Y-82049600D01*
G75*
G02*
X132974800Y-82249600I0J-200000D01*
G01*
X132974800Y-82799600D01*
G75*
G02*
X132774800Y-82999600I-200000J0D01*
G01*
X132374800Y-82999600D01*
G75*
G02*
X132174800Y-82799600I0J200000D01*
G01*
G37*
G04 #@! TD.AperFunction*
G04 #@! TA.AperFunction,SMDPad,CuDef*
G36*
G01*
X130524800Y-82799600D02*
X130524800Y-82249600D01*
G75*
G02*
X130724800Y-82049600I200000J0D01*
G01*
X131124800Y-82049600D01*
G75*
G02*
X131324800Y-82249600I0J-200000D01*
G01*
X131324800Y-82799600D01*
G75*
G02*
X131124800Y-82999600I-200000J0D01*
G01*
X130724800Y-82999600D01*
G75*
G02*
X130524800Y-82799600I0J200000D01*
G01*
G37*
G04 #@! TD.AperFunction*
G04 #@! TA.AperFunction,SMDPad,CuDef*
G36*
G01*
X133875100Y-93223900D02*
X134425100Y-93223900D01*
G75*
G02*
X134625100Y-93423900I0J-200000D01*
G01*
X134625100Y-93823900D01*
G75*
G02*
X134425100Y-94023900I-200000J0D01*
G01*
X133875100Y-94023900D01*
G75*
G02*
X133675100Y-93823900I0J200000D01*
G01*
X133675100Y-93423900D01*
G75*
G02*
X133875100Y-93223900I200000J0D01*
G01*
G37*
G04 #@! TD.AperFunction*
G04 #@! TA.AperFunction,SMDPad,CuDef*
G36*
G01*
X133875100Y-91573900D02*
X134425100Y-91573900D01*
G75*
G02*
X134625100Y-91773900I0J-200000D01*
G01*
X134625100Y-92173900D01*
G75*
G02*
X134425100Y-92373900I-200000J0D01*
G01*
X133875100Y-92373900D01*
G75*
G02*
X133675100Y-92173900I0J200000D01*
G01*
X133675100Y-91773900D01*
G75*
G02*
X133875100Y-91573900I200000J0D01*
G01*
G37*
G04 #@! TD.AperFunction*
G04 #@! TA.AperFunction,SMDPad,CuDef*
G36*
G01*
X132174800Y-84780800D02*
X132174800Y-84230800D01*
G75*
G02*
X132374800Y-84030800I200000J0D01*
G01*
X132774800Y-84030800D01*
G75*
G02*
X132974800Y-84230800I0J-200000D01*
G01*
X132974800Y-84780800D01*
G75*
G02*
X132774800Y-84980800I-200000J0D01*
G01*
X132374800Y-84980800D01*
G75*
G02*
X132174800Y-84780800I0J200000D01*
G01*
G37*
G04 #@! TD.AperFunction*
G04 #@! TA.AperFunction,SMDPad,CuDef*
G36*
G01*
X130524800Y-84780800D02*
X130524800Y-84230800D01*
G75*
G02*
X130724800Y-84030800I200000J0D01*
G01*
X131124800Y-84030800D01*
G75*
G02*
X131324800Y-84230800I0J-200000D01*
G01*
X131324800Y-84780800D01*
G75*
G02*
X131124800Y-84980800I-200000J0D01*
G01*
X130724800Y-84980800D01*
G75*
G02*
X130524800Y-84780800I0J200000D01*
G01*
G37*
G04 #@! TD.AperFunction*
G04 #@! TA.AperFunction,SMDPad,CuDef*
G36*
G01*
X139138950Y-83877900D02*
X139651450Y-83877900D01*
G75*
G02*
X139870200Y-84096650I0J-218750D01*
G01*
X139870200Y-84534150D01*
G75*
G02*
X139651450Y-84752900I-218750J0D01*
G01*
X139138950Y-84752900D01*
G75*
G02*
X138920200Y-84534150I0J218750D01*
G01*
X138920200Y-84096650D01*
G75*
G02*
X139138950Y-83877900I218750J0D01*
G01*
G37*
G04 #@! TD.AperFunction*
G04 #@! TA.AperFunction,SMDPad,CuDef*
G36*
G01*
X139138950Y-82302900D02*
X139651450Y-82302900D01*
G75*
G02*
X139870200Y-82521650I0J-218750D01*
G01*
X139870200Y-82959150D01*
G75*
G02*
X139651450Y-83177900I-218750J0D01*
G01*
X139138950Y-83177900D01*
G75*
G02*
X138920200Y-82959150I0J218750D01*
G01*
X138920200Y-82521650D01*
G75*
G02*
X139138950Y-82302900I218750J0D01*
G01*
G37*
G04 #@! TD.AperFunction*
G04 #@! TA.AperFunction,SMDPad,CuDef*
G36*
G01*
X132074800Y-86419500D02*
X132074800Y-85919500D01*
G75*
G02*
X132299800Y-85694500I225000J0D01*
G01*
X132749800Y-85694500D01*
G75*
G02*
X132974800Y-85919500I0J-225000D01*
G01*
X132974800Y-86419500D01*
G75*
G02*
X132749800Y-86644500I-225000J0D01*
G01*
X132299800Y-86644500D01*
G75*
G02*
X132074800Y-86419500I0J225000D01*
G01*
G37*
G04 #@! TD.AperFunction*
G04 #@! TA.AperFunction,SMDPad,CuDef*
G36*
G01*
X130524800Y-86419500D02*
X130524800Y-85919500D01*
G75*
G02*
X130749800Y-85694500I225000J0D01*
G01*
X131199800Y-85694500D01*
G75*
G02*
X131424800Y-85919500I0J-225000D01*
G01*
X131424800Y-86419500D01*
G75*
G02*
X131199800Y-86644500I-225000J0D01*
G01*
X130749800Y-86644500D01*
G75*
G02*
X130524800Y-86419500I0J225000D01*
G01*
G37*
G04 #@! TD.AperFunction*
G04 #@! TA.AperFunction,SMDPad,CuDef*
G36*
G01*
X132074800Y-87943500D02*
X132074800Y-87443500D01*
G75*
G02*
X132299800Y-87218500I225000J0D01*
G01*
X132749800Y-87218500D01*
G75*
G02*
X132974800Y-87443500I0J-225000D01*
G01*
X132974800Y-87943500D01*
G75*
G02*
X132749800Y-88168500I-225000J0D01*
G01*
X132299800Y-88168500D01*
G75*
G02*
X132074800Y-87943500I0J225000D01*
G01*
G37*
G04 #@! TD.AperFunction*
G04 #@! TA.AperFunction,SMDPad,CuDef*
G36*
G01*
X130524800Y-87943500D02*
X130524800Y-87443500D01*
G75*
G02*
X130749800Y-87218500I225000J0D01*
G01*
X131199800Y-87218500D01*
G75*
G02*
X131424800Y-87443500I0J-225000D01*
G01*
X131424800Y-87943500D01*
G75*
G02*
X131199800Y-88168500I-225000J0D01*
G01*
X130749800Y-88168500D01*
G75*
G02*
X130524800Y-87943500I0J225000D01*
G01*
G37*
G04 #@! TD.AperFunction*
G04 #@! TA.AperFunction,SMDPad,CuDef*
G36*
G01*
X136597200Y-83202900D02*
X136097200Y-83202900D01*
G75*
G02*
X135872200Y-82977900I0J225000D01*
G01*
X135872200Y-82527900D01*
G75*
G02*
X136097200Y-82302900I225000J0D01*
G01*
X136597200Y-82302900D01*
G75*
G02*
X136822200Y-82527900I0J-225000D01*
G01*
X136822200Y-82977900D01*
G75*
G02*
X136597200Y-83202900I-225000J0D01*
G01*
G37*
G04 #@! TD.AperFunction*
G04 #@! TA.AperFunction,SMDPad,CuDef*
G36*
G01*
X136597200Y-84752900D02*
X136097200Y-84752900D01*
G75*
G02*
X135872200Y-84527900I0J225000D01*
G01*
X135872200Y-84077900D01*
G75*
G02*
X136097200Y-83852900I225000J0D01*
G01*
X136597200Y-83852900D01*
G75*
G02*
X136822200Y-84077900I0J-225000D01*
G01*
X136822200Y-84527900D01*
G75*
G02*
X136597200Y-84752900I-225000J0D01*
G01*
G37*
G04 #@! TD.AperFunction*
G04 #@! TA.AperFunction,SMDPad,CuDef*
G36*
G01*
X135449500Y-93123900D02*
X135949500Y-93123900D01*
G75*
G02*
X136174500Y-93348900I0J-225000D01*
G01*
X136174500Y-93798900D01*
G75*
G02*
X135949500Y-94023900I-225000J0D01*
G01*
X135449500Y-94023900D01*
G75*
G02*
X135224500Y-93798900I0J225000D01*
G01*
X135224500Y-93348900D01*
G75*
G02*
X135449500Y-93123900I225000J0D01*
G01*
G37*
G04 #@! TD.AperFunction*
G04 #@! TA.AperFunction,SMDPad,CuDef*
G36*
G01*
X135449500Y-91573900D02*
X135949500Y-91573900D01*
G75*
G02*
X136174500Y-91798900I0J-225000D01*
G01*
X136174500Y-92248900D01*
G75*
G02*
X135949500Y-92473900I-225000J0D01*
G01*
X135449500Y-92473900D01*
G75*
G02*
X135224500Y-92248900I0J225000D01*
G01*
X135224500Y-91798900D01*
G75*
G02*
X135449500Y-91573900I225000J0D01*
G01*
G37*
G04 #@! TD.AperFunction*
G04 #@! TA.AperFunction,SMDPad,CuDef*
G36*
G01*
X144809400Y-93708100D02*
X145309400Y-93708100D01*
G75*
G02*
X145534400Y-93933100I0J-225000D01*
G01*
X145534400Y-94383100D01*
G75*
G02*
X145309400Y-94608100I-225000J0D01*
G01*
X144809400Y-94608100D01*
G75*
G02*
X144584400Y-94383100I0J225000D01*
G01*
X144584400Y-93933100D01*
G75*
G02*
X144809400Y-93708100I225000J0D01*
G01*
G37*
G04 #@! TD.AperFunction*
G04 #@! TA.AperFunction,SMDPad,CuDef*
G36*
G01*
X144809400Y-92158100D02*
X145309400Y-92158100D01*
G75*
G02*
X145534400Y-92383100I0J-225000D01*
G01*
X145534400Y-92833100D01*
G75*
G02*
X145309400Y-93058100I-225000J0D01*
G01*
X144809400Y-93058100D01*
G75*
G02*
X144584400Y-92833100I0J225000D01*
G01*
X144584400Y-92383100D01*
G75*
G02*
X144809400Y-92158100I225000J0D01*
G01*
G37*
G04 #@! TD.AperFunction*
G04 #@! TA.AperFunction,SMDPad,CuDef*
G36*
G01*
X138121200Y-83202900D02*
X137621200Y-83202900D01*
G75*
G02*
X137396200Y-82977900I0J225000D01*
G01*
X137396200Y-82527900D01*
G75*
G02*
X137621200Y-82302900I225000J0D01*
G01*
X138121200Y-82302900D01*
G75*
G02*
X138346200Y-82527900I0J-225000D01*
G01*
X138346200Y-82977900D01*
G75*
G02*
X138121200Y-83202900I-225000J0D01*
G01*
G37*
G04 #@! TD.AperFunction*
G04 #@! TA.AperFunction,SMDPad,CuDef*
G36*
G01*
X138121200Y-84752900D02*
X137621200Y-84752900D01*
G75*
G02*
X137396200Y-84527900I0J225000D01*
G01*
X137396200Y-84077900D01*
G75*
G02*
X137621200Y-83852900I225000J0D01*
G01*
X138121200Y-83852900D01*
G75*
G02*
X138346200Y-84077900I0J-225000D01*
G01*
X138346200Y-84527900D01*
G75*
G02*
X138121200Y-84752900I-225000J0D01*
G01*
G37*
G04 #@! TD.AperFunction*
G04 #@! TA.AperFunction,SMDPad,CuDef*
G36*
G01*
X143247300Y-93708100D02*
X143747300Y-93708100D01*
G75*
G02*
X143972300Y-93933100I0J-225000D01*
G01*
X143972300Y-94383100D01*
G75*
G02*
X143747300Y-94608100I-225000J0D01*
G01*
X143247300Y-94608100D01*
G75*
G02*
X143022300Y-94383100I0J225000D01*
G01*
X143022300Y-93933100D01*
G75*
G02*
X143247300Y-93708100I225000J0D01*
G01*
G37*
G04 #@! TD.AperFunction*
G04 #@! TA.AperFunction,SMDPad,CuDef*
G36*
G01*
X143247300Y-92158100D02*
X143747300Y-92158100D01*
G75*
G02*
X143972300Y-92383100I0J-225000D01*
G01*
X143972300Y-92833100D01*
G75*
G02*
X143747300Y-93058100I-225000J0D01*
G01*
X143247300Y-93058100D01*
G75*
G02*
X143022300Y-92833100I0J225000D01*
G01*
X143022300Y-92383100D01*
G75*
G02*
X143247300Y-92158100I225000J0D01*
G01*
G37*
G04 #@! TD.AperFunction*
G04 #@! TA.AperFunction,SMDPad,CuDef*
G36*
G01*
X143327000Y-88045100D02*
X143327000Y-87545100D01*
G75*
G02*
X143552000Y-87320100I225000J0D01*
G01*
X144002000Y-87320100D01*
G75*
G02*
X144227000Y-87545100I0J-225000D01*
G01*
X144227000Y-88045100D01*
G75*
G02*
X144002000Y-88270100I-225000J0D01*
G01*
X143552000Y-88270100D01*
G75*
G02*
X143327000Y-88045100I0J225000D01*
G01*
G37*
G04 #@! TD.AperFunction*
G04 #@! TA.AperFunction,SMDPad,CuDef*
G36*
G01*
X141777000Y-88045100D02*
X141777000Y-87545100D01*
G75*
G02*
X142002000Y-87320100I225000J0D01*
G01*
X142452000Y-87320100D01*
G75*
G02*
X142677000Y-87545100I0J-225000D01*
G01*
X142677000Y-88045100D01*
G75*
G02*
X142452000Y-88270100I-225000J0D01*
G01*
X142002000Y-88270100D01*
G75*
G02*
X141777000Y-88045100I0J225000D01*
G01*
G37*
G04 #@! TD.AperFunction*
G04 #@! TA.AperFunction,SMDPad,CuDef*
G36*
G01*
X143327000Y-89569100D02*
X143327000Y-89069100D01*
G75*
G02*
X143552000Y-88844100I225000J0D01*
G01*
X144002000Y-88844100D01*
G75*
G02*
X144227000Y-89069100I0J-225000D01*
G01*
X144227000Y-89569100D01*
G75*
G02*
X144002000Y-89794100I-225000J0D01*
G01*
X143552000Y-89794100D01*
G75*
G02*
X143327000Y-89569100I0J225000D01*
G01*
G37*
G04 #@! TD.AperFunction*
G04 #@! TA.AperFunction,SMDPad,CuDef*
G36*
G01*
X141777000Y-89569100D02*
X141777000Y-89069100D01*
G75*
G02*
X142002000Y-88844100I225000J0D01*
G01*
X142452000Y-88844100D01*
G75*
G02*
X142677000Y-89069100I0J-225000D01*
G01*
X142677000Y-89569100D01*
G75*
G02*
X142452000Y-89794100I-225000J0D01*
G01*
X142002000Y-89794100D01*
G75*
G02*
X141777000Y-89569100I0J225000D01*
G01*
G37*
G04 #@! TD.AperFunction*
G04 #@! TA.AperFunction,SMDPad,CuDef*
G36*
G01*
X137749400Y-96320800D02*
X137749400Y-96820800D01*
G75*
G02*
X137524400Y-97045800I-225000J0D01*
G01*
X137074400Y-97045800D01*
G75*
G02*
X136849400Y-96820800I0J225000D01*
G01*
X136849400Y-96320800D01*
G75*
G02*
X137074400Y-96095800I225000J0D01*
G01*
X137524400Y-96095800D01*
G75*
G02*
X137749400Y-96320800I0J-225000D01*
G01*
G37*
G04 #@! TD.AperFunction*
G04 #@! TA.AperFunction,SMDPad,CuDef*
G36*
G01*
X139299400Y-96320800D02*
X139299400Y-96820800D01*
G75*
G02*
X139074400Y-97045800I-225000J0D01*
G01*
X138624400Y-97045800D01*
G75*
G02*
X138399400Y-96820800I0J225000D01*
G01*
X138399400Y-96320800D01*
G75*
G02*
X138624400Y-96095800I225000J0D01*
G01*
X139074400Y-96095800D01*
G75*
G02*
X139299400Y-96320800I0J-225000D01*
G01*
G37*
G04 #@! TD.AperFunction*
G04 #@! TA.AperFunction,SMDPad,CuDef*
G36*
G01*
X141447400Y-96820800D02*
X141447400Y-96320800D01*
G75*
G02*
X141672400Y-96095800I225000J0D01*
G01*
X142122400Y-96095800D01*
G75*
G02*
X142347400Y-96320800I0J-225000D01*
G01*
X142347400Y-96820800D01*
G75*
G02*
X142122400Y-97045800I-225000J0D01*
G01*
X141672400Y-97045800D01*
G75*
G02*
X141447400Y-96820800I0J225000D01*
G01*
G37*
G04 #@! TD.AperFunction*
G04 #@! TA.AperFunction,SMDPad,CuDef*
G36*
G01*
X139897400Y-96820800D02*
X139897400Y-96320800D01*
G75*
G02*
X140122400Y-96095800I225000J0D01*
G01*
X140572400Y-96095800D01*
G75*
G02*
X140797400Y-96320800I0J-225000D01*
G01*
X140797400Y-96820800D01*
G75*
G02*
X140572400Y-97045800I-225000J0D01*
G01*
X140122400Y-97045800D01*
G75*
G02*
X139897400Y-96820800I0J225000D01*
G01*
G37*
G04 #@! TD.AperFunction*
G04 #@! TA.AperFunction,SMDPad,CuDef*
G36*
G01*
X117305800Y-108031800D02*
X117305800Y-108231800D01*
G75*
G02*
X117205800Y-108331800I-100000J0D01*
G01*
X115930800Y-108331800D01*
G75*
G02*
X115830800Y-108231800I0J100000D01*
G01*
X115830800Y-108031800D01*
G75*
G02*
X115930800Y-107931800I100000J0D01*
G01*
X117205800Y-107931800D01*
G75*
G02*
X117305800Y-108031800I0J-100000D01*
G01*
G37*
G04 #@! TD.AperFunction*
G04 #@! TA.AperFunction,SMDPad,CuDef*
G36*
G01*
X117305800Y-107381800D02*
X117305800Y-107581800D01*
G75*
G02*
X117205800Y-107681800I-100000J0D01*
G01*
X115930800Y-107681800D01*
G75*
G02*
X115830800Y-107581800I0J100000D01*
G01*
X115830800Y-107381800D01*
G75*
G02*
X115930800Y-107281800I100000J0D01*
G01*
X117205800Y-107281800D01*
G75*
G02*
X117305800Y-107381800I0J-100000D01*
G01*
G37*
G04 #@! TD.AperFunction*
G04 #@! TA.AperFunction,SMDPad,CuDef*
G36*
G01*
X117305800Y-106731800D02*
X117305800Y-106931800D01*
G75*
G02*
X117205800Y-107031800I-100000J0D01*
G01*
X115930800Y-107031800D01*
G75*
G02*
X115830800Y-106931800I0J100000D01*
G01*
X115830800Y-106731800D01*
G75*
G02*
X115930800Y-106631800I100000J0D01*
G01*
X117205800Y-106631800D01*
G75*
G02*
X117305800Y-106731800I0J-100000D01*
G01*
G37*
G04 #@! TD.AperFunction*
G04 #@! TA.AperFunction,SMDPad,CuDef*
G36*
G01*
X117305800Y-106081800D02*
X117305800Y-106281800D01*
G75*
G02*
X117205800Y-106381800I-100000J0D01*
G01*
X115930800Y-106381800D01*
G75*
G02*
X115830800Y-106281800I0J100000D01*
G01*
X115830800Y-106081800D01*
G75*
G02*
X115930800Y-105981800I100000J0D01*
G01*
X117205800Y-105981800D01*
G75*
G02*
X117305800Y-106081800I0J-100000D01*
G01*
G37*
G04 #@! TD.AperFunction*
G04 #@! TA.AperFunction,SMDPad,CuDef*
G36*
G01*
X117305800Y-105431800D02*
X117305800Y-105631800D01*
G75*
G02*
X117205800Y-105731800I-100000J0D01*
G01*
X115930800Y-105731800D01*
G75*
G02*
X115830800Y-105631800I0J100000D01*
G01*
X115830800Y-105431800D01*
G75*
G02*
X115930800Y-105331800I100000J0D01*
G01*
X117205800Y-105331800D01*
G75*
G02*
X117305800Y-105431800I0J-100000D01*
G01*
G37*
G04 #@! TD.AperFunction*
G04 #@! TA.AperFunction,SMDPad,CuDef*
G36*
G01*
X117305800Y-104781800D02*
X117305800Y-104981800D01*
G75*
G02*
X117205800Y-105081800I-100000J0D01*
G01*
X115930800Y-105081800D01*
G75*
G02*
X115830800Y-104981800I0J100000D01*
G01*
X115830800Y-104781800D01*
G75*
G02*
X115930800Y-104681800I100000J0D01*
G01*
X117205800Y-104681800D01*
G75*
G02*
X117305800Y-104781800I0J-100000D01*
G01*
G37*
G04 #@! TD.AperFunction*
G04 #@! TA.AperFunction,SMDPad,CuDef*
G36*
G01*
X117305800Y-104131800D02*
X117305800Y-104331800D01*
G75*
G02*
X117205800Y-104431800I-100000J0D01*
G01*
X115930800Y-104431800D01*
G75*
G02*
X115830800Y-104331800I0J100000D01*
G01*
X115830800Y-104131800D01*
G75*
G02*
X115930800Y-104031800I100000J0D01*
G01*
X117205800Y-104031800D01*
G75*
G02*
X117305800Y-104131800I0J-100000D01*
G01*
G37*
G04 #@! TD.AperFunction*
G04 #@! TA.AperFunction,SMDPad,CuDef*
G36*
G01*
X117305800Y-103481800D02*
X117305800Y-103681800D01*
G75*
G02*
X117205800Y-103781800I-100000J0D01*
G01*
X115930800Y-103781800D01*
G75*
G02*
X115830800Y-103681800I0J100000D01*
G01*
X115830800Y-103481800D01*
G75*
G02*
X115930800Y-103381800I100000J0D01*
G01*
X117205800Y-103381800D01*
G75*
G02*
X117305800Y-103481800I0J-100000D01*
G01*
G37*
G04 #@! TD.AperFunction*
G04 #@! TA.AperFunction,SMDPad,CuDef*
G36*
G01*
X117305800Y-102831800D02*
X117305800Y-103031800D01*
G75*
G02*
X117205800Y-103131800I-100000J0D01*
G01*
X115930800Y-103131800D01*
G75*
G02*
X115830800Y-103031800I0J100000D01*
G01*
X115830800Y-102831800D01*
G75*
G02*
X115930800Y-102731800I100000J0D01*
G01*
X117205800Y-102731800D01*
G75*
G02*
X117305800Y-102831800I0J-100000D01*
G01*
G37*
G04 #@! TD.AperFunction*
G04 #@! TA.AperFunction,SMDPad,CuDef*
G36*
G01*
X117305800Y-102181800D02*
X117305800Y-102381800D01*
G75*
G02*
X117205800Y-102481800I-100000J0D01*
G01*
X115930800Y-102481800D01*
G75*
G02*
X115830800Y-102381800I0J100000D01*
G01*
X115830800Y-102181800D01*
G75*
G02*
X115930800Y-102081800I100000J0D01*
G01*
X117205800Y-102081800D01*
G75*
G02*
X117305800Y-102181800I0J-100000D01*
G01*
G37*
G04 #@! TD.AperFunction*
G04 #@! TA.AperFunction,SMDPad,CuDef*
G36*
G01*
X123030800Y-102181800D02*
X123030800Y-102381800D01*
G75*
G02*
X122930800Y-102481800I-100000J0D01*
G01*
X121655800Y-102481800D01*
G75*
G02*
X121555800Y-102381800I0J100000D01*
G01*
X121555800Y-102181800D01*
G75*
G02*
X121655800Y-102081800I100000J0D01*
G01*
X122930800Y-102081800D01*
G75*
G02*
X123030800Y-102181800I0J-100000D01*
G01*
G37*
G04 #@! TD.AperFunction*
G04 #@! TA.AperFunction,SMDPad,CuDef*
G36*
G01*
X123030800Y-102831800D02*
X123030800Y-103031800D01*
G75*
G02*
X122930800Y-103131800I-100000J0D01*
G01*
X121655800Y-103131800D01*
G75*
G02*
X121555800Y-103031800I0J100000D01*
G01*
X121555800Y-102831800D01*
G75*
G02*
X121655800Y-102731800I100000J0D01*
G01*
X122930800Y-102731800D01*
G75*
G02*
X123030800Y-102831800I0J-100000D01*
G01*
G37*
G04 #@! TD.AperFunction*
G04 #@! TA.AperFunction,SMDPad,CuDef*
G36*
G01*
X123030800Y-103481800D02*
X123030800Y-103681800D01*
G75*
G02*
X122930800Y-103781800I-100000J0D01*
G01*
X121655800Y-103781800D01*
G75*
G02*
X121555800Y-103681800I0J100000D01*
G01*
X121555800Y-103481800D01*
G75*
G02*
X121655800Y-103381800I100000J0D01*
G01*
X122930800Y-103381800D01*
G75*
G02*
X123030800Y-103481800I0J-100000D01*
G01*
G37*
G04 #@! TD.AperFunction*
G04 #@! TA.AperFunction,SMDPad,CuDef*
G36*
G01*
X123030800Y-104131800D02*
X123030800Y-104331800D01*
G75*
G02*
X122930800Y-104431800I-100000J0D01*
G01*
X121655800Y-104431800D01*
G75*
G02*
X121555800Y-104331800I0J100000D01*
G01*
X121555800Y-104131800D01*
G75*
G02*
X121655800Y-104031800I100000J0D01*
G01*
X122930800Y-104031800D01*
G75*
G02*
X123030800Y-104131800I0J-100000D01*
G01*
G37*
G04 #@! TD.AperFunction*
G04 #@! TA.AperFunction,SMDPad,CuDef*
G36*
G01*
X123030800Y-104781800D02*
X123030800Y-104981800D01*
G75*
G02*
X122930800Y-105081800I-100000J0D01*
G01*
X121655800Y-105081800D01*
G75*
G02*
X121555800Y-104981800I0J100000D01*
G01*
X121555800Y-104781800D01*
G75*
G02*
X121655800Y-104681800I100000J0D01*
G01*
X122930800Y-104681800D01*
G75*
G02*
X123030800Y-104781800I0J-100000D01*
G01*
G37*
G04 #@! TD.AperFunction*
G04 #@! TA.AperFunction,SMDPad,CuDef*
G36*
G01*
X123030800Y-105431800D02*
X123030800Y-105631800D01*
G75*
G02*
X122930800Y-105731800I-100000J0D01*
G01*
X121655800Y-105731800D01*
G75*
G02*
X121555800Y-105631800I0J100000D01*
G01*
X121555800Y-105431800D01*
G75*
G02*
X121655800Y-105331800I100000J0D01*
G01*
X122930800Y-105331800D01*
G75*
G02*
X123030800Y-105431800I0J-100000D01*
G01*
G37*
G04 #@! TD.AperFunction*
G04 #@! TA.AperFunction,SMDPad,CuDef*
G36*
G01*
X123030800Y-106081800D02*
X123030800Y-106281800D01*
G75*
G02*
X122930800Y-106381800I-100000J0D01*
G01*
X121655800Y-106381800D01*
G75*
G02*
X121555800Y-106281800I0J100000D01*
G01*
X121555800Y-106081800D01*
G75*
G02*
X121655800Y-105981800I100000J0D01*
G01*
X122930800Y-105981800D01*
G75*
G02*
X123030800Y-106081800I0J-100000D01*
G01*
G37*
G04 #@! TD.AperFunction*
G04 #@! TA.AperFunction,SMDPad,CuDef*
G36*
G01*
X123030800Y-106731800D02*
X123030800Y-106931800D01*
G75*
G02*
X122930800Y-107031800I-100000J0D01*
G01*
X121655800Y-107031800D01*
G75*
G02*
X121555800Y-106931800I0J100000D01*
G01*
X121555800Y-106731800D01*
G75*
G02*
X121655800Y-106631800I100000J0D01*
G01*
X122930800Y-106631800D01*
G75*
G02*
X123030800Y-106731800I0J-100000D01*
G01*
G37*
G04 #@! TD.AperFunction*
G04 #@! TA.AperFunction,SMDPad,CuDef*
G36*
G01*
X123030800Y-107381800D02*
X123030800Y-107581800D01*
G75*
G02*
X122930800Y-107681800I-100000J0D01*
G01*
X121655800Y-107681800D01*
G75*
G02*
X121555800Y-107581800I0J100000D01*
G01*
X121555800Y-107381800D01*
G75*
G02*
X121655800Y-107281800I100000J0D01*
G01*
X122930800Y-107281800D01*
G75*
G02*
X123030800Y-107381800I0J-100000D01*
G01*
G37*
G04 #@! TD.AperFunction*
G04 #@! TA.AperFunction,SMDPad,CuDef*
G36*
G01*
X123030800Y-108031800D02*
X123030800Y-108231800D01*
G75*
G02*
X122930800Y-108331800I-100000J0D01*
G01*
X121655800Y-108331800D01*
G75*
G02*
X121555800Y-108231800I0J100000D01*
G01*
X121555800Y-108031800D01*
G75*
G02*
X121655800Y-107931800I100000J0D01*
G01*
X122930800Y-107931800D01*
G75*
G02*
X123030800Y-108031800I0J-100000D01*
G01*
G37*
G04 #@! TD.AperFunction*
G04 #@! TA.AperFunction,SMDPad,CuDef*
G36*
G01*
X125455000Y-107663800D02*
X126005000Y-107663800D01*
G75*
G02*
X126205000Y-107863800I0J-200000D01*
G01*
X126205000Y-108263800D01*
G75*
G02*
X126005000Y-108463800I-200000J0D01*
G01*
X125455000Y-108463800D01*
G75*
G02*
X125255000Y-108263800I0J200000D01*
G01*
X125255000Y-107863800D01*
G75*
G02*
X125455000Y-107663800I200000J0D01*
G01*
G37*
G04 #@! TD.AperFunction*
G04 #@! TA.AperFunction,SMDPad,CuDef*
G36*
G01*
X125455000Y-106013800D02*
X126005000Y-106013800D01*
G75*
G02*
X126205000Y-106213800I0J-200000D01*
G01*
X126205000Y-106613800D01*
G75*
G02*
X126005000Y-106813800I-200000J0D01*
G01*
X125455000Y-106813800D01*
G75*
G02*
X125255000Y-106613800I0J200000D01*
G01*
X125255000Y-106213800D01*
G75*
G02*
X125455000Y-106013800I200000J0D01*
G01*
G37*
G04 #@! TD.AperFunction*
D44*
X112217200Y-108619800D03*
X111267200Y-106619800D03*
X113167200Y-106619800D03*
G04 #@! TA.AperFunction,SMDPad,CuDef*
G36*
G01*
X123943300Y-107563800D02*
X124443300Y-107563800D01*
G75*
G02*
X124668300Y-107788800I0J-225000D01*
G01*
X124668300Y-108238800D01*
G75*
G02*
X124443300Y-108463800I-225000J0D01*
G01*
X123943300Y-108463800D01*
G75*
G02*
X123718300Y-108238800I0J225000D01*
G01*
X123718300Y-107788800D01*
G75*
G02*
X123943300Y-107563800I225000J0D01*
G01*
G37*
G04 #@! TD.AperFunction*
G04 #@! TA.AperFunction,SMDPad,CuDef*
G36*
G01*
X123943300Y-106013800D02*
X124443300Y-106013800D01*
G75*
G02*
X124668300Y-106238800I0J-225000D01*
G01*
X124668300Y-106688800D01*
G75*
G02*
X124443300Y-106913800I-225000J0D01*
G01*
X123943300Y-106913800D01*
G75*
G02*
X123718300Y-106688800I0J225000D01*
G01*
X123718300Y-106238800D01*
G75*
G02*
X123943300Y-106013800I225000J0D01*
G01*
G37*
G04 #@! TD.AperFunction*
G04 #@! TA.AperFunction,SMDPad,CuDef*
G36*
G01*
X115032600Y-103408600D02*
X114532600Y-103408600D01*
G75*
G02*
X114307600Y-103183600I0J225000D01*
G01*
X114307600Y-102733600D01*
G75*
G02*
X114532600Y-102508600I225000J0D01*
G01*
X115032600Y-102508600D01*
G75*
G02*
X115257600Y-102733600I0J-225000D01*
G01*
X115257600Y-103183600D01*
G75*
G02*
X115032600Y-103408600I-225000J0D01*
G01*
G37*
G04 #@! TD.AperFunction*
G04 #@! TA.AperFunction,SMDPad,CuDef*
G36*
G01*
X115032600Y-104958600D02*
X114532600Y-104958600D01*
G75*
G02*
X114307600Y-104733600I0J225000D01*
G01*
X114307600Y-104283600D01*
G75*
G02*
X114532600Y-104058600I225000J0D01*
G01*
X115032600Y-104058600D01*
G75*
G02*
X115257600Y-104283600I0J-225000D01*
G01*
X115257600Y-104733600D01*
G75*
G02*
X115032600Y-104958600I-225000J0D01*
G01*
G37*
G04 #@! TD.AperFunction*
G04 #@! TA.AperFunction,SMDPad,CuDef*
G36*
G01*
X120185300Y-109262100D02*
X120185300Y-109762100D01*
G75*
G02*
X119960300Y-109987100I-225000J0D01*
G01*
X119510300Y-109987100D01*
G75*
G02*
X119285300Y-109762100I0J225000D01*
G01*
X119285300Y-109262100D01*
G75*
G02*
X119510300Y-109037100I225000J0D01*
G01*
X119960300Y-109037100D01*
G75*
G02*
X120185300Y-109262100I0J-225000D01*
G01*
G37*
G04 #@! TD.AperFunction*
G04 #@! TA.AperFunction,SMDPad,CuDef*
G36*
G01*
X121735300Y-109262100D02*
X121735300Y-109762100D01*
G75*
G02*
X121510300Y-109987100I-225000J0D01*
G01*
X121060300Y-109987100D01*
G75*
G02*
X120835300Y-109762100I0J225000D01*
G01*
X120835300Y-109262100D01*
G75*
G02*
X121060300Y-109037100I225000J0D01*
G01*
X121510300Y-109037100D01*
G75*
G02*
X121735300Y-109262100I0J-225000D01*
G01*
G37*
G04 #@! TD.AperFunction*
D14*
X135272600Y-114691200D03*
X135272600Y-112791200D03*
X137472600Y-112791200D03*
X137472600Y-113741200D03*
X137472600Y-114691200D03*
X133383200Y-112765800D03*
X133383200Y-114665800D03*
X131183200Y-114665800D03*
X131183200Y-113715800D03*
X131183200Y-112765800D03*
G04 #@! TA.AperFunction,SMDPad,CuDef*
G36*
G01*
X141093000Y-113695600D02*
X140593000Y-113695600D01*
G75*
G02*
X140368000Y-113470600I0J225000D01*
G01*
X140368000Y-113020600D01*
G75*
G02*
X140593000Y-112795600I225000J0D01*
G01*
X141093000Y-112795600D01*
G75*
G02*
X141318000Y-113020600I0J-225000D01*
G01*
X141318000Y-113470600D01*
G75*
G02*
X141093000Y-113695600I-225000J0D01*
G01*
G37*
G04 #@! TD.AperFunction*
G04 #@! TA.AperFunction,SMDPad,CuDef*
G36*
G01*
X141093000Y-115245600D02*
X140593000Y-115245600D01*
G75*
G02*
X140368000Y-115020600I0J225000D01*
G01*
X140368000Y-114570600D01*
G75*
G02*
X140593000Y-114345600I225000J0D01*
G01*
X141093000Y-114345600D01*
G75*
G02*
X141318000Y-114570600I0J-225000D01*
G01*
X141318000Y-115020600D01*
G75*
G02*
X141093000Y-115245600I-225000J0D01*
G01*
G37*
G04 #@! TD.AperFunction*
G04 #@! TA.AperFunction,SMDPad,CuDef*
G36*
G01*
X150211600Y-113670200D02*
X149711600Y-113670200D01*
G75*
G02*
X149486600Y-113445200I0J225000D01*
G01*
X149486600Y-112995200D01*
G75*
G02*
X149711600Y-112770200I225000J0D01*
G01*
X150211600Y-112770200D01*
G75*
G02*
X150436600Y-112995200I0J-225000D01*
G01*
X150436600Y-113445200D01*
G75*
G02*
X150211600Y-113670200I-225000J0D01*
G01*
G37*
G04 #@! TD.AperFunction*
G04 #@! TA.AperFunction,SMDPad,CuDef*
G36*
G01*
X150211600Y-115220200D02*
X149711600Y-115220200D01*
G75*
G02*
X149486600Y-114995200I0J225000D01*
G01*
X149486600Y-114545200D01*
G75*
G02*
X149711600Y-114320200I225000J0D01*
G01*
X150211600Y-114320200D01*
G75*
G02*
X150436600Y-114545200I0J-225000D01*
G01*
X150436600Y-114995200D01*
G75*
G02*
X150211600Y-115220200I-225000J0D01*
G01*
G37*
G04 #@! TD.AperFunction*
G04 #@! TA.AperFunction,SMDPad,CuDef*
G36*
G01*
X146401600Y-107777400D02*
X145901600Y-107777400D01*
G75*
G02*
X145676600Y-107552400I0J225000D01*
G01*
X145676600Y-107102400D01*
G75*
G02*
X145901600Y-106877400I225000J0D01*
G01*
X146401600Y-106877400D01*
G75*
G02*
X146626600Y-107102400I0J-225000D01*
G01*
X146626600Y-107552400D01*
G75*
G02*
X146401600Y-107777400I-225000J0D01*
G01*
G37*
G04 #@! TD.AperFunction*
G04 #@! TA.AperFunction,SMDPad,CuDef*
G36*
G01*
X146401600Y-109327400D02*
X145901600Y-109327400D01*
G75*
G02*
X145676600Y-109102400I0J225000D01*
G01*
X145676600Y-108652400D01*
G75*
G02*
X145901600Y-108427400I225000J0D01*
G01*
X146401600Y-108427400D01*
G75*
G02*
X146626600Y-108652400I0J-225000D01*
G01*
X146626600Y-109102400D01*
G75*
G02*
X146401600Y-109327400I-225000J0D01*
G01*
G37*
G04 #@! TD.AperFunction*
G04 #@! TA.AperFunction,SMDPad,CuDef*
G36*
G01*
X136681400Y-108478200D02*
X137181400Y-108478200D01*
G75*
G02*
X137406400Y-108703200I0J-225000D01*
G01*
X137406400Y-109153200D01*
G75*
G02*
X137181400Y-109378200I-225000J0D01*
G01*
X136681400Y-109378200D01*
G75*
G02*
X136456400Y-109153200I0J225000D01*
G01*
X136456400Y-108703200D01*
G75*
G02*
X136681400Y-108478200I225000J0D01*
G01*
G37*
G04 #@! TD.AperFunction*
G04 #@! TA.AperFunction,SMDPad,CuDef*
G36*
G01*
X136681400Y-106928200D02*
X137181400Y-106928200D01*
G75*
G02*
X137406400Y-107153200I0J-225000D01*
G01*
X137406400Y-107603200D01*
G75*
G02*
X137181400Y-107828200I-225000J0D01*
G01*
X136681400Y-107828200D01*
G75*
G02*
X136456400Y-107603200I0J225000D01*
G01*
X136456400Y-107153200D01*
G75*
G02*
X136681400Y-106928200I225000J0D01*
G01*
G37*
G04 #@! TD.AperFunction*
G04 #@! TA.AperFunction,SMDPad,CuDef*
G36*
G01*
X174557880Y-108518240D02*
X175057880Y-108518240D01*
G75*
G02*
X175282880Y-108743240I0J-225000D01*
G01*
X175282880Y-109193240D01*
G75*
G02*
X175057880Y-109418240I-225000J0D01*
G01*
X174557880Y-109418240D01*
G75*
G02*
X174332880Y-109193240I0J225000D01*
G01*
X174332880Y-108743240D01*
G75*
G02*
X174557880Y-108518240I225000J0D01*
G01*
G37*
G04 #@! TD.AperFunction*
G04 #@! TA.AperFunction,SMDPad,CuDef*
G36*
G01*
X174557880Y-110068240D02*
X175057880Y-110068240D01*
G75*
G02*
X175282880Y-110293240I0J-225000D01*
G01*
X175282880Y-110743240D01*
G75*
G02*
X175057880Y-110968240I-225000J0D01*
G01*
X174557880Y-110968240D01*
G75*
G02*
X174332880Y-110743240I0J225000D01*
G01*
X174332880Y-110293240D01*
G75*
G02*
X174557880Y-110068240I225000J0D01*
G01*
G37*
G04 #@! TD.AperFunction*
G04 #@! TA.AperFunction,SMDPad,CuDef*
G36*
G01*
X188910680Y-104843870D02*
X188910680Y-105356370D01*
G75*
G02*
X188691930Y-105575120I-218750J0D01*
G01*
X188254430Y-105575120D01*
G75*
G02*
X188035680Y-105356370I0J218750D01*
G01*
X188035680Y-104843870D01*
G75*
G02*
X188254430Y-104625120I218750J0D01*
G01*
X188691930Y-104625120D01*
G75*
G02*
X188910680Y-104843870I0J-218750D01*
G01*
G37*
G04 #@! TD.AperFunction*
G04 #@! TA.AperFunction,SMDPad,CuDef*
G36*
G01*
X187335680Y-104843870D02*
X187335680Y-105356370D01*
G75*
G02*
X187116930Y-105575120I-218750J0D01*
G01*
X186679430Y-105575120D01*
G75*
G02*
X186460680Y-105356370I0J218750D01*
G01*
X186460680Y-104843870D01*
G75*
G02*
X186679430Y-104625120I218750J0D01*
G01*
X187116930Y-104625120D01*
G75*
G02*
X187335680Y-104843870I0J-218750D01*
G01*
G37*
G04 #@! TD.AperFunction*
G04 #@! TA.AperFunction,SMDPad,CuDef*
G36*
G01*
X188910680Y-103256370D02*
X188910680Y-103768870D01*
G75*
G02*
X188691930Y-103987620I-218750J0D01*
G01*
X188254430Y-103987620D01*
G75*
G02*
X188035680Y-103768870I0J218750D01*
G01*
X188035680Y-103256370D01*
G75*
G02*
X188254430Y-103037620I218750J0D01*
G01*
X188691930Y-103037620D01*
G75*
G02*
X188910680Y-103256370I0J-218750D01*
G01*
G37*
G04 #@! TD.AperFunction*
G04 #@! TA.AperFunction,SMDPad,CuDef*
G36*
G01*
X187335680Y-103256370D02*
X187335680Y-103768870D01*
G75*
G02*
X187116930Y-103987620I-218750J0D01*
G01*
X186679430Y-103987620D01*
G75*
G02*
X186460680Y-103768870I0J218750D01*
G01*
X186460680Y-103256370D01*
G75*
G02*
X186679430Y-103037620I218750J0D01*
G01*
X187116930Y-103037620D01*
G75*
G02*
X187335680Y-103256370I0J-218750D01*
G01*
G37*
G04 #@! TD.AperFunction*
G04 #@! TA.AperFunction,SMDPad,CuDef*
G36*
G01*
X169190480Y-78347020D02*
X168690480Y-78347020D01*
G75*
G02*
X168465480Y-78122020I0J225000D01*
G01*
X168465480Y-77672020D01*
G75*
G02*
X168690480Y-77447020I225000J0D01*
G01*
X169190480Y-77447020D01*
G75*
G02*
X169415480Y-77672020I0J-225000D01*
G01*
X169415480Y-78122020D01*
G75*
G02*
X169190480Y-78347020I-225000J0D01*
G01*
G37*
G04 #@! TD.AperFunction*
G04 #@! TA.AperFunction,SMDPad,CuDef*
G36*
G01*
X169190480Y-76797020D02*
X168690480Y-76797020D01*
G75*
G02*
X168465480Y-76572020I0J225000D01*
G01*
X168465480Y-76122020D01*
G75*
G02*
X168690480Y-75897020I225000J0D01*
G01*
X169190480Y-75897020D01*
G75*
G02*
X169415480Y-76122020I0J-225000D01*
G01*
X169415480Y-76572020D01*
G75*
G02*
X169190480Y-76797020I-225000J0D01*
G01*
G37*
G04 #@! TD.AperFunction*
G04 #@! TA.AperFunction,SMDPad,CuDef*
G36*
G01*
X189000680Y-82350420D02*
X189000680Y-81850420D01*
G75*
G02*
X189225680Y-81625420I225000J0D01*
G01*
X189675680Y-81625420D01*
G75*
G02*
X189900680Y-81850420I0J-225000D01*
G01*
X189900680Y-82350420D01*
G75*
G02*
X189675680Y-82575420I-225000J0D01*
G01*
X189225680Y-82575420D01*
G75*
G02*
X189000680Y-82350420I0J225000D01*
G01*
G37*
G04 #@! TD.AperFunction*
G04 #@! TA.AperFunction,SMDPad,CuDef*
G36*
G01*
X190550680Y-82350420D02*
X190550680Y-81850420D01*
G75*
G02*
X190775680Y-81625420I225000J0D01*
G01*
X191225680Y-81625420D01*
G75*
G02*
X191450680Y-81850420I0J-225000D01*
G01*
X191450680Y-82350420D01*
G75*
G02*
X191225680Y-82575420I-225000J0D01*
G01*
X190775680Y-82575420D01*
G75*
G02*
X190550680Y-82350420I0J225000D01*
G01*
G37*
G04 #@! TD.AperFunction*
G04 #@! TA.AperFunction,SMDPad,CuDef*
G36*
G01*
X131350600Y-116582000D02*
X131350600Y-116082000D01*
G75*
G02*
X131575600Y-115857000I225000J0D01*
G01*
X132025600Y-115857000D01*
G75*
G02*
X132250600Y-116082000I0J-225000D01*
G01*
X132250600Y-116582000D01*
G75*
G02*
X132025600Y-116807000I-225000J0D01*
G01*
X131575600Y-116807000D01*
G75*
G02*
X131350600Y-116582000I0J225000D01*
G01*
G37*
G04 #@! TD.AperFunction*
G04 #@! TA.AperFunction,SMDPad,CuDef*
G36*
G01*
X129800600Y-116582000D02*
X129800600Y-116082000D01*
G75*
G02*
X130025600Y-115857000I225000J0D01*
G01*
X130475600Y-115857000D01*
G75*
G02*
X130700600Y-116082000I0J-225000D01*
G01*
X130700600Y-116582000D01*
G75*
G02*
X130475600Y-116807000I-225000J0D01*
G01*
X130025600Y-116807000D01*
G75*
G02*
X129800600Y-116582000I0J225000D01*
G01*
G37*
G04 #@! TD.AperFunction*
G04 #@! TA.AperFunction,SMDPad,CuDef*
G36*
G01*
X184357200Y-108401400D02*
X184857200Y-108401400D01*
G75*
G02*
X185082200Y-108626400I0J-225000D01*
G01*
X185082200Y-109076400D01*
G75*
G02*
X184857200Y-109301400I-225000J0D01*
G01*
X184357200Y-109301400D01*
G75*
G02*
X184132200Y-109076400I0J225000D01*
G01*
X184132200Y-108626400D01*
G75*
G02*
X184357200Y-108401400I225000J0D01*
G01*
G37*
G04 #@! TD.AperFunction*
G04 #@! TA.AperFunction,SMDPad,CuDef*
G36*
G01*
X184357200Y-109951400D02*
X184857200Y-109951400D01*
G75*
G02*
X185082200Y-110176400I0J-225000D01*
G01*
X185082200Y-110626400D01*
G75*
G02*
X184857200Y-110851400I-225000J0D01*
G01*
X184357200Y-110851400D01*
G75*
G02*
X184132200Y-110626400I0J225000D01*
G01*
X184132200Y-110176400D01*
G75*
G02*
X184357200Y-109951400I225000J0D01*
G01*
G37*
G04 #@! TD.AperFunction*
G04 #@! TA.AperFunction,SMDPad,CuDef*
G36*
G01*
X164807180Y-104920860D02*
X164807180Y-104420860D01*
G75*
G02*
X165032180Y-104195860I225000J0D01*
G01*
X165482180Y-104195860D01*
G75*
G02*
X165707180Y-104420860I0J-225000D01*
G01*
X165707180Y-104920860D01*
G75*
G02*
X165482180Y-105145860I-225000J0D01*
G01*
X165032180Y-105145860D01*
G75*
G02*
X164807180Y-104920860I0J225000D01*
G01*
G37*
G04 #@! TD.AperFunction*
G04 #@! TA.AperFunction,SMDPad,CuDef*
G36*
G01*
X166357180Y-104920860D02*
X166357180Y-104420860D01*
G75*
G02*
X166582180Y-104195860I225000J0D01*
G01*
X167032180Y-104195860D01*
G75*
G02*
X167257180Y-104420860I0J-225000D01*
G01*
X167257180Y-104920860D01*
G75*
G02*
X167032180Y-105145860I-225000J0D01*
G01*
X166582180Y-105145860D01*
G75*
G02*
X166357180Y-104920860I0J225000D01*
G01*
G37*
G04 #@! TD.AperFunction*
G04 #@! TA.AperFunction,SMDPad,CuDef*
G36*
G01*
X184857200Y-113899400D02*
X184357200Y-113899400D01*
G75*
G02*
X184132200Y-113674400I0J225000D01*
G01*
X184132200Y-113224400D01*
G75*
G02*
X184357200Y-112999400I225000J0D01*
G01*
X184857200Y-112999400D01*
G75*
G02*
X185082200Y-113224400I0J-225000D01*
G01*
X185082200Y-113674400D01*
G75*
G02*
X184857200Y-113899400I-225000J0D01*
G01*
G37*
G04 #@! TD.AperFunction*
G04 #@! TA.AperFunction,SMDPad,CuDef*
G36*
G01*
X184857200Y-112349400D02*
X184357200Y-112349400D01*
G75*
G02*
X184132200Y-112124400I0J225000D01*
G01*
X184132200Y-111674400D01*
G75*
G02*
X184357200Y-111449400I225000J0D01*
G01*
X184857200Y-111449400D01*
G75*
G02*
X185082200Y-111674400I0J-225000D01*
G01*
X185082200Y-112124400D01*
G75*
G02*
X184857200Y-112349400I-225000J0D01*
G01*
G37*
G04 #@! TD.AperFunction*
G04 #@! TA.AperFunction,SMDPad,CuDef*
G36*
G01*
X164807180Y-107397360D02*
X164807180Y-106897360D01*
G75*
G02*
X165032180Y-106672360I225000J0D01*
G01*
X165482180Y-106672360D01*
G75*
G02*
X165707180Y-106897360I0J-225000D01*
G01*
X165707180Y-107397360D01*
G75*
G02*
X165482180Y-107622360I-225000J0D01*
G01*
X165032180Y-107622360D01*
G75*
G02*
X164807180Y-107397360I0J225000D01*
G01*
G37*
G04 #@! TD.AperFunction*
G04 #@! TA.AperFunction,SMDPad,CuDef*
G36*
G01*
X166357180Y-107397360D02*
X166357180Y-106897360D01*
G75*
G02*
X166582180Y-106672360I225000J0D01*
G01*
X167032180Y-106672360D01*
G75*
G02*
X167257180Y-106897360I0J-225000D01*
G01*
X167257180Y-107397360D01*
G75*
G02*
X167032180Y-107622360I-225000J0D01*
G01*
X166582180Y-107622360D01*
G75*
G02*
X166357180Y-107397360I0J225000D01*
G01*
G37*
G04 #@! TD.AperFunction*
G04 #@! TA.AperFunction,SMDPad,CuDef*
G36*
G01*
X185149680Y-103113120D02*
X185649680Y-103113120D01*
G75*
G02*
X185874680Y-103338120I0J-225000D01*
G01*
X185874680Y-103788120D01*
G75*
G02*
X185649680Y-104013120I-225000J0D01*
G01*
X185149680Y-104013120D01*
G75*
G02*
X184924680Y-103788120I0J225000D01*
G01*
X184924680Y-103338120D01*
G75*
G02*
X185149680Y-103113120I225000J0D01*
G01*
G37*
G04 #@! TD.AperFunction*
G04 #@! TA.AperFunction,SMDPad,CuDef*
G36*
G01*
X185149680Y-104663120D02*
X185649680Y-104663120D01*
G75*
G02*
X185874680Y-104888120I0J-225000D01*
G01*
X185874680Y-105338120D01*
G75*
G02*
X185649680Y-105563120I-225000J0D01*
G01*
X185149680Y-105563120D01*
G75*
G02*
X184924680Y-105338120I0J225000D01*
G01*
X184924680Y-104888120D01*
G75*
G02*
X185149680Y-104663120I225000J0D01*
G01*
G37*
G04 #@! TD.AperFunction*
G04 #@! TA.AperFunction,SMDPad,CuDef*
G36*
G01*
X183625680Y-103113120D02*
X184125680Y-103113120D01*
G75*
G02*
X184350680Y-103338120I0J-225000D01*
G01*
X184350680Y-103788120D01*
G75*
G02*
X184125680Y-104013120I-225000J0D01*
G01*
X183625680Y-104013120D01*
G75*
G02*
X183400680Y-103788120I0J225000D01*
G01*
X183400680Y-103338120D01*
G75*
G02*
X183625680Y-103113120I225000J0D01*
G01*
G37*
G04 #@! TD.AperFunction*
G04 #@! TA.AperFunction,SMDPad,CuDef*
G36*
G01*
X183625680Y-104663120D02*
X184125680Y-104663120D01*
G75*
G02*
X184350680Y-104888120I0J-225000D01*
G01*
X184350680Y-105338120D01*
G75*
G02*
X184125680Y-105563120I-225000J0D01*
G01*
X183625680Y-105563120D01*
G75*
G02*
X183400680Y-105338120I0J225000D01*
G01*
X183400680Y-104888120D01*
G75*
G02*
X183625680Y-104663120I225000J0D01*
G01*
G37*
G04 #@! TD.AperFunction*
G04 #@! TA.AperFunction,SMDPad,CuDef*
G36*
G01*
X175662780Y-103316320D02*
X176162780Y-103316320D01*
G75*
G02*
X176387780Y-103541320I0J-225000D01*
G01*
X176387780Y-103991320D01*
G75*
G02*
X176162780Y-104216320I-225000J0D01*
G01*
X175662780Y-104216320D01*
G75*
G02*
X175437780Y-103991320I0J225000D01*
G01*
X175437780Y-103541320D01*
G75*
G02*
X175662780Y-103316320I225000J0D01*
G01*
G37*
G04 #@! TD.AperFunction*
G04 #@! TA.AperFunction,SMDPad,CuDef*
G36*
G01*
X175662780Y-104866320D02*
X176162780Y-104866320D01*
G75*
G02*
X176387780Y-105091320I0J-225000D01*
G01*
X176387780Y-105541320D01*
G75*
G02*
X176162780Y-105766320I-225000J0D01*
G01*
X175662780Y-105766320D01*
G75*
G02*
X175437780Y-105541320I0J225000D01*
G01*
X175437780Y-105091320D01*
G75*
G02*
X175662780Y-104866320I225000J0D01*
G01*
G37*
G04 #@! TD.AperFunction*
G04 #@! TA.AperFunction,SMDPad,CuDef*
G36*
G01*
X189048580Y-99303120D02*
X189548580Y-99303120D01*
G75*
G02*
X189773580Y-99528120I0J-225000D01*
G01*
X189773580Y-99978120D01*
G75*
G02*
X189548580Y-100203120I-225000J0D01*
G01*
X189048580Y-100203120D01*
G75*
G02*
X188823580Y-99978120I0J225000D01*
G01*
X188823580Y-99528120D01*
G75*
G02*
X189048580Y-99303120I225000J0D01*
G01*
G37*
G04 #@! TD.AperFunction*
G04 #@! TA.AperFunction,SMDPad,CuDef*
G36*
G01*
X189048580Y-100853120D02*
X189548580Y-100853120D01*
G75*
G02*
X189773580Y-101078120I0J-225000D01*
G01*
X189773580Y-101528120D01*
G75*
G02*
X189548580Y-101753120I-225000J0D01*
G01*
X189048580Y-101753120D01*
G75*
G02*
X188823580Y-101528120I0J225000D01*
G01*
X188823580Y-101078120D01*
G75*
G02*
X189048580Y-100853120I225000J0D01*
G01*
G37*
G04 #@! TD.AperFunction*
G04 #@! TA.AperFunction,SMDPad,CuDef*
G36*
G01*
X164399680Y-99401820D02*
X164399680Y-99901820D01*
G75*
G02*
X164174680Y-100126820I-225000J0D01*
G01*
X163724680Y-100126820D01*
G75*
G02*
X163499680Y-99901820I0J225000D01*
G01*
X163499680Y-99401820D01*
G75*
G02*
X163724680Y-99176820I225000J0D01*
G01*
X164174680Y-99176820D01*
G75*
G02*
X164399680Y-99401820I0J-225000D01*
G01*
G37*
G04 #@! TD.AperFunction*
G04 #@! TA.AperFunction,SMDPad,CuDef*
G36*
G01*
X162849680Y-99401820D02*
X162849680Y-99901820D01*
G75*
G02*
X162624680Y-100126820I-225000J0D01*
G01*
X162174680Y-100126820D01*
G75*
G02*
X161949680Y-99901820I0J225000D01*
G01*
X161949680Y-99401820D01*
G75*
G02*
X162174680Y-99176820I225000J0D01*
G01*
X162624680Y-99176820D01*
G75*
G02*
X162849680Y-99401820I0J-225000D01*
G01*
G37*
G04 #@! TD.AperFunction*
G04 #@! TA.AperFunction,SMDPad,CuDef*
G36*
G01*
X167666480Y-78334020D02*
X167166480Y-78334020D01*
G75*
G02*
X166941480Y-78109020I0J225000D01*
G01*
X166941480Y-77659020D01*
G75*
G02*
X167166480Y-77434020I225000J0D01*
G01*
X167666480Y-77434020D01*
G75*
G02*
X167891480Y-77659020I0J-225000D01*
G01*
X167891480Y-78109020D01*
G75*
G02*
X167666480Y-78334020I-225000J0D01*
G01*
G37*
G04 #@! TD.AperFunction*
G04 #@! TA.AperFunction,SMDPad,CuDef*
G36*
G01*
X167666480Y-76784020D02*
X167166480Y-76784020D01*
G75*
G02*
X166941480Y-76559020I0J225000D01*
G01*
X166941480Y-76109020D01*
G75*
G02*
X167166480Y-75884020I225000J0D01*
G01*
X167666480Y-75884020D01*
G75*
G02*
X167891480Y-76109020I0J-225000D01*
G01*
X167891480Y-76559020D01*
G75*
G02*
X167666480Y-76784020I-225000J0D01*
G01*
G37*
G04 #@! TD.AperFunction*
G04 #@! TA.AperFunction,SMDPad,CuDef*
G36*
G01*
X189000680Y-80813720D02*
X189000680Y-80313720D01*
G75*
G02*
X189225680Y-80088720I225000J0D01*
G01*
X189675680Y-80088720D01*
G75*
G02*
X189900680Y-80313720I0J-225000D01*
G01*
X189900680Y-80813720D01*
G75*
G02*
X189675680Y-81038720I-225000J0D01*
G01*
X189225680Y-81038720D01*
G75*
G02*
X189000680Y-80813720I0J225000D01*
G01*
G37*
G04 #@! TD.AperFunction*
G04 #@! TA.AperFunction,SMDPad,CuDef*
G36*
G01*
X190550680Y-80813720D02*
X190550680Y-80313720D01*
G75*
G02*
X190775680Y-80088720I225000J0D01*
G01*
X191225680Y-80088720D01*
G75*
G02*
X191450680Y-80313720I0J-225000D01*
G01*
X191450680Y-80813720D01*
G75*
G02*
X191225680Y-81038720I-225000J0D01*
G01*
X190775680Y-81038720D01*
G75*
G02*
X190550680Y-80813720I0J225000D01*
G01*
G37*
G04 #@! TD.AperFunction*
G04 #@! TA.AperFunction,SMDPad,CuDef*
G36*
G01*
X164399680Y-100989320D02*
X164399680Y-101489320D01*
G75*
G02*
X164174680Y-101714320I-225000J0D01*
G01*
X163724680Y-101714320D01*
G75*
G02*
X163499680Y-101489320I0J225000D01*
G01*
X163499680Y-100989320D01*
G75*
G02*
X163724680Y-100764320I225000J0D01*
G01*
X164174680Y-100764320D01*
G75*
G02*
X164399680Y-100989320I0J-225000D01*
G01*
G37*
G04 #@! TD.AperFunction*
G04 #@! TA.AperFunction,SMDPad,CuDef*
G36*
G01*
X162849680Y-100989320D02*
X162849680Y-101489320D01*
G75*
G02*
X162624680Y-101714320I-225000J0D01*
G01*
X162174680Y-101714320D01*
G75*
G02*
X161949680Y-101489320I0J225000D01*
G01*
X161949680Y-100989320D01*
G75*
G02*
X162174680Y-100764320I225000J0D01*
G01*
X162624680Y-100764320D01*
G75*
G02*
X162849680Y-100989320I0J-225000D01*
G01*
G37*
G04 #@! TD.AperFunction*
D45*
X199898000Y-70866000D03*
X197358000Y-70866000D03*
X199898000Y-73406000D03*
X197358000Y-73406000D03*
X199898000Y-75946000D03*
X197358000Y-75946000D03*
X199898000Y-78486000D03*
X197358000Y-78486000D03*
X199898000Y-81026000D03*
X197358000Y-81026000D03*
X199898000Y-83566000D03*
X197358000Y-83566000D03*
X199898000Y-86106000D03*
X197358000Y-86106000D03*
X199898000Y-88646000D03*
X197358000Y-88646000D03*
X199898000Y-91186000D03*
X197358000Y-91186000D03*
X199898000Y-93726000D03*
X197358000Y-93726000D03*
X199898000Y-96266000D03*
X197358000Y-96266000D03*
X199898000Y-98806000D03*
X197358000Y-98806000D03*
X199898000Y-101346000D03*
X197358000Y-101346000D03*
X199898000Y-103886000D03*
X197358000Y-103886000D03*
X199898000Y-106426000D03*
X197358000Y-106426000D03*
X199898000Y-108966000D03*
X197358000Y-108966000D03*
X199898000Y-111506000D03*
X197358000Y-111506000D03*
X199898000Y-114046000D03*
D46*
X197358000Y-114046000D03*
D21*
X149098000Y-119126000D03*
X146558000Y-119126000D03*
X144018000Y-119126000D03*
X141478000Y-119126000D03*
X138938000Y-119126000D03*
X136398000Y-119126000D03*
X133858000Y-119126000D03*
X131318000Y-119126000D03*
X171958000Y-119126000D03*
X169418000Y-119126000D03*
X166878000Y-119126000D03*
X164338000Y-119126000D03*
X161798000Y-119126000D03*
X159258000Y-119126000D03*
X156718000Y-119126000D03*
X154178000Y-119126000D03*
X194818000Y-119126000D03*
X192278000Y-119126000D03*
X189738000Y-119126000D03*
X187198000Y-119126000D03*
X184658000Y-119126000D03*
X182118000Y-119126000D03*
X179578000Y-119126000D03*
X177038000Y-119126000D03*
X145034000Y-70866000D03*
X142494000Y-70866000D03*
X139954000Y-70866000D03*
X137414000Y-70866000D03*
X134874000Y-70866000D03*
X132334000Y-70866000D03*
X129794000Y-70866000D03*
X127254000Y-70866000D03*
X124714000Y-70866000D03*
X122174000Y-70866000D03*
X166878000Y-70866000D03*
X164338000Y-70866000D03*
X161798000Y-70866000D03*
X159258000Y-70866000D03*
X156718000Y-70866000D03*
X154178000Y-70866000D03*
X151638000Y-70866000D03*
X149098000Y-70866000D03*
X189738000Y-70866000D03*
X187198000Y-70866000D03*
X184658000Y-70866000D03*
X182118000Y-70866000D03*
X179578000Y-70866000D03*
X177038000Y-70866000D03*
X174498000Y-70866000D03*
X171958000Y-70866000D03*
D47*
X117348000Y-119126000D03*
X199898000Y-119126000D03*
X118618000Y-70866000D03*
X193548000Y-70866000D03*
D48*
X189298580Y-105100120D03*
X161510980Y-96718120D03*
X161460180Y-88209120D03*
X174414180Y-75509120D03*
X179925980Y-75483720D03*
X191736980Y-87167720D03*
X191813180Y-92146120D03*
X188409580Y-101315520D03*
X186326780Y-87675720D03*
X186352180Y-92679520D03*
X186377580Y-99181920D03*
X175379380Y-100629720D03*
X168394380Y-81224120D03*
X162399680Y-100426220D03*
X174896780Y-81224120D03*
X180383180Y-81224120D03*
X165257480Y-105839260D03*
X191000680Y-81326020D03*
X143777000Y-88556800D03*
X144348500Y-94158100D03*
X134899100Y-93573900D03*
X137109500Y-82752900D03*
X132524800Y-86931200D03*
X112217200Y-107759500D03*
X121691400Y-112496600D03*
X132080000Y-110083600D03*
X132118100Y-113728500D03*
X132105400Y-106426000D03*
X117716300Y-104889300D03*
X124198000Y-108851700D03*
X118884700Y-109512100D03*
X114782600Y-102108000D03*
X129324100Y-112204500D03*
X140081300Y-113245600D03*
X138353800Y-113487200D03*
X132727700Y-116293900D03*
X109474000Y-106730800D03*
X109435900Y-102946200D03*
X166890700Y-112783620D03*
X174818040Y-111328200D03*
X160324800Y-108437680D03*
X159405320Y-112862360D03*
X166959280Y-92684600D03*
X175950880Y-106197400D03*
X182102760Y-105968800D03*
X166913560Y-87685880D03*
X111321960Y-69401800D03*
X112068720Y-69401800D03*
X113253810Y-70409090D03*
X113253810Y-78290532D03*
X113253810Y-74203850D03*
X113253810Y-72197250D03*
X113253810Y-76047890D03*
X111781480Y-80051800D03*
X112523160Y-80051800D03*
X113545400Y-79158880D03*
X108041440Y-72771000D03*
X161524625Y-93173871D03*
X168193059Y-76374599D03*
X133045200Y-96723200D03*
X110490000Y-81483200D03*
X157530804Y-97028000D03*
X142341600Y-102463600D03*
X144881600Y-102463600D03*
X180086000Y-107848400D03*
X185711800Y-110401400D03*
X185724800Y-111963200D03*
X180086000Y-114757200D03*
X139598400Y-96570800D03*
X151638000Y-114096800D03*
X148539200Y-107340400D03*
X147841000Y-107327400D03*
X147028200Y-107327400D03*
X149961600Y-112318800D03*
X174414180Y-79039720D03*
X167429180Y-78887320D03*
X164701347Y-93177487D03*
X164754687Y-88176227D03*
X175899191Y-102876731D03*
X170400980Y-100705920D03*
X188561980Y-80589120D03*
X188544835Y-87175975D03*
X188587380Y-92146120D03*
X179900199Y-79039339D03*
X189323980Y-103525320D03*
X188612780Y-98673920D03*
X163949680Y-100452220D03*
X142227000Y-88532000D03*
X114782600Y-105549700D03*
X124198000Y-105524300D03*
X182427880Y-100756720D03*
X173969680Y-108960920D03*
X162864800Y-108254800D03*
X139395198Y-81889600D03*
X149352000Y-93675200D03*
X148437600Y-88392000D03*
X149301200Y-84582000D03*
X107137200Y-81432400D03*
X115468400Y-77724000D03*
X157632400Y-102209600D03*
X139801600Y-102412800D03*
X148539200Y-108864400D03*
X147116800Y-108864400D03*
X147815000Y-108877400D03*
X118668800Y-110642400D03*
X123703080Y-102265480D03*
X170261280Y-99334320D03*
X155854400Y-102666800D03*
X162692080Y-103535480D03*
X163687760Y-106410760D03*
X111067855Y-115722400D03*
X114963002Y-115320000D03*
X114963002Y-115972400D03*
X118262400Y-106324400D03*
X120243600Y-108356400D03*
X130250799Y-105753679D03*
X130250799Y-107047521D03*
X130250798Y-106413300D03*
X112966500Y-104114600D03*
X111086900Y-104114600D03*
X111696500Y-104114600D03*
X112318800Y-104114600D03*
X125095000Y-104917240D03*
X167350440Y-99052031D03*
X154609800Y-102692200D03*
X124454920Y-104241600D03*
X168087040Y-98573421D03*
X153111200Y-102717600D03*
X169992040Y-98643440D03*
X125153178Y-103537778D03*
X124454920Y-102936040D03*
X170774360Y-98689160D03*
X140874898Y-86097232D03*
X175768000Y-93831590D03*
X176357280Y-93421200D03*
X149250400Y-83058000D03*
X177007520Y-94005400D03*
X145796000Y-84582000D03*
X177871120Y-94488000D03*
X149352000Y-86106000D03*
X178455320Y-94970600D03*
X149402800Y-90678000D03*
X179517649Y-95183351D03*
X149402800Y-92202000D03*
X138201400Y-85420200D03*
X164327853Y-90667853D03*
X137388600Y-85369400D03*
X168211500Y-91699080D03*
X136626600Y-85420200D03*
X168402000Y-92519500D03*
X135686800Y-91059000D03*
X135559800Y-85852000D03*
X130962400Y-86918800D03*
X130949700Y-92456000D03*
X130048000Y-82550000D03*
X137441857Y-91599945D03*
X133045200Y-98145600D03*
X136785050Y-91579908D03*
X133146800Y-95097600D03*
X138879402Y-85437802D03*
X167833040Y-93278960D03*
X160528000Y-102171500D03*
X159877967Y-102115835D03*
X120904000Y-73152000D03*
X108066840Y-71668640D03*
X120904000Y-73850500D03*
X107970320Y-73853040D03*
X121666000Y-73935410D03*
X107950000Y-76098400D03*
X110978900Y-116420900D03*
X117221000Y-114185700D03*
X167137080Y-96733360D03*
X161401760Y-111566960D03*
X169732960Y-111550930D03*
X161472880Y-110291880D03*
X169905680Y-110352840D03*
X159329120Y-111607600D03*
X168290607Y-111044087D03*
X159349440Y-110393480D03*
X168498520Y-109494320D03*
X167627447Y-82645714D03*
X166956359Y-82674841D03*
X169311320Y-82534762D03*
X168447720Y-82621120D03*
X175915320Y-83601560D03*
X175397160Y-83078320D03*
X176824640Y-83586320D03*
X176420843Y-82991960D03*
X178502978Y-84793422D03*
X177421095Y-83980021D03*
X179517040Y-85130640D03*
X169926000Y-103271320D03*
X169026840Y-103251000D03*
X168188640Y-103275310D03*
X167137080Y-103327200D03*
X175558224Y-88972261D03*
X174577873Y-89814400D03*
X175536164Y-90542065D03*
X175003695Y-91020665D03*
X175478440Y-91535440D03*
X174889160Y-92014040D03*
X175126983Y-85107921D03*
X175596913Y-85560478D03*
X175514000Y-86207600D03*
X175412400Y-86918800D03*
X175310800Y-87680804D03*
X175364977Y-88330960D03*
X170703240Y-84165440D03*
X169829480Y-84333078D03*
X168465500Y-96901000D03*
X164211000Y-105664000D03*
X168569638Y-72311260D03*
X169070020Y-72925940D03*
D49*
X188473180Y-105100120D02*
X189298580Y-105100120D01*
X162399680Y-101239320D02*
X162399680Y-100426220D01*
X162311580Y-96718120D02*
X161510980Y-96718120D01*
X162310780Y-88209120D02*
X161460180Y-88209120D01*
X174414180Y-76359720D02*
X174414180Y-75509120D01*
X179925980Y-76334320D02*
X179925980Y-75483720D01*
X191000680Y-80563720D02*
X191000680Y-81326020D01*
X190962580Y-87167720D02*
X191736980Y-87167720D01*
X190975580Y-92146120D02*
X191813180Y-92146120D01*
X188421980Y-101303120D02*
X188409580Y-101315520D01*
X189298580Y-101303120D02*
X188421980Y-101303120D01*
D50*
X186327161Y-87676101D02*
X186326780Y-87675720D01*
X187425330Y-87676101D02*
X186327161Y-87676101D01*
X186354339Y-92677361D02*
X186352180Y-92679520D01*
X187425330Y-92677361D02*
X186354339Y-92677361D01*
X186380501Y-99178999D02*
X186377580Y-99181920D01*
X187425330Y-99178999D02*
X186380501Y-99178999D01*
X175399065Y-100649405D02*
X175379380Y-100629720D01*
X175399065Y-101702870D02*
X175399065Y-100649405D01*
X168397301Y-81221199D02*
X168394380Y-81224120D01*
X168397301Y-80150970D02*
X168397301Y-81221199D01*
D49*
X162399680Y-100426220D02*
X162399680Y-99651820D01*
D50*
X174898939Y-81221961D02*
X174896780Y-81224120D01*
X174898939Y-80150970D02*
X174898939Y-81221961D01*
X180400325Y-81206975D02*
X180383180Y-81224120D01*
X180400325Y-80150970D02*
X180400325Y-81206975D01*
D49*
X165257180Y-105838960D02*
X165257480Y-105839260D01*
X165257180Y-107147360D02*
X165257180Y-105838960D01*
X165257180Y-105838960D02*
X165257180Y-104670860D01*
X191000680Y-81326020D02*
X191000680Y-82100420D01*
D51*
X143777000Y-87795100D02*
X143777000Y-88556800D01*
X143777000Y-88556800D02*
X143777000Y-89319100D01*
X145059400Y-94158100D02*
X144348500Y-94158100D01*
X144348500Y-94158100D02*
X143497300Y-94158100D01*
X134200100Y-93573900D02*
X134150100Y-93623900D01*
X135699500Y-93573900D02*
X134899100Y-93573900D01*
X134899100Y-93573900D02*
X134200100Y-93573900D01*
X136347200Y-82752900D02*
X137109500Y-82752900D01*
X137109500Y-82752900D02*
X137871200Y-82752900D01*
X132524800Y-86169500D02*
X132524800Y-86931200D01*
X132524800Y-86931200D02*
X132524800Y-87693500D01*
D52*
X113884400Y-118396200D02*
X113227300Y-118396200D01*
X112977300Y-118146200D02*
X112184400Y-118146200D01*
X113227300Y-118396200D02*
X112977300Y-118146200D01*
X111974400Y-119776200D02*
X111974400Y-118937000D01*
X112184400Y-118727000D02*
X112184400Y-118146200D01*
X111974400Y-118937000D02*
X112184400Y-118727000D01*
X113884400Y-112896200D02*
X113048600Y-112896200D01*
X112798600Y-112646200D02*
X112184400Y-112646200D01*
X113048600Y-112896200D02*
X112798600Y-112646200D01*
X111974400Y-111516200D02*
X111974400Y-112152200D01*
X112184400Y-112362200D02*
X112184400Y-112646200D01*
X111974400Y-112152200D02*
X112184400Y-112362200D01*
X113884400Y-112896200D02*
X114433800Y-112896200D01*
X114433800Y-112896200D02*
X114808000Y-112522000D01*
X114808000Y-112522000D02*
X114808000Y-111810800D01*
X115074200Y-111544600D02*
X115747800Y-111544600D01*
X114808000Y-111810800D02*
X115074200Y-111544600D01*
X117246400Y-111544600D02*
X115747800Y-111544600D01*
D51*
X112217200Y-108619800D02*
X112217200Y-107759500D01*
X121716800Y-112471200D02*
X121691400Y-112496600D01*
X122539000Y-112471200D02*
X121716800Y-112471200D01*
X132054600Y-110058200D02*
X132080000Y-110083600D01*
X131183200Y-110058200D02*
X132054600Y-110058200D01*
X132105400Y-113715800D02*
X132118100Y-113728500D01*
X131183200Y-113715800D02*
X132105400Y-113715800D01*
X132080000Y-106400600D02*
X132105400Y-106426000D01*
X131183200Y-106400600D02*
X132080000Y-106400600D01*
X108283600Y-102922500D02*
X107418300Y-102922500D01*
X106530800Y-102035000D02*
X105708600Y-102035000D01*
X107418300Y-102922500D02*
X106530800Y-102035000D01*
X105708600Y-104260000D02*
X105708600Y-102035000D01*
X105708600Y-104260000D02*
X105708600Y-106960000D01*
X105708600Y-106960000D02*
X105708600Y-108785000D01*
X108283600Y-107897500D02*
X107392900Y-107897500D01*
X106505400Y-108785000D02*
X105708600Y-108785000D01*
X107392900Y-107897500D02*
X106505400Y-108785000D01*
D52*
X117708800Y-104881800D02*
X117716300Y-104889300D01*
X116568300Y-104881800D02*
X117708800Y-104881800D01*
D51*
X124193300Y-108847000D02*
X124198000Y-108851700D01*
X124193300Y-108013800D02*
X124193300Y-108847000D01*
D53*
X119735300Y-109512100D02*
X118884700Y-109512100D01*
X114782600Y-102958600D02*
X114782600Y-102108000D01*
X129323800Y-112204200D02*
X129324100Y-112204500D01*
X128155700Y-112204200D02*
X129323800Y-112204200D01*
X136931400Y-109816900D02*
X136944100Y-109829600D01*
X136931400Y-109728000D02*
X136931400Y-109816900D01*
X136931400Y-108928200D02*
X136931400Y-109728000D01*
X139319000Y-113245600D02*
X140081300Y-113245600D01*
X137472600Y-113741200D02*
X138099800Y-113741200D01*
X138595400Y-113245600D02*
X139319000Y-113245600D01*
X140081300Y-113245600D02*
X140843000Y-113245600D01*
X138099800Y-113741200D02*
X138353800Y-113487200D01*
X138353800Y-113487200D02*
X138595400Y-113245600D01*
X136944100Y-110629700D02*
X136944100Y-109829600D01*
X138595400Y-112281000D02*
X136944100Y-110629700D01*
X138595400Y-113245600D02*
X138595400Y-112281000D01*
X132689600Y-116332000D02*
X132727700Y-116293900D01*
X131800600Y-116332000D02*
X132689600Y-116332000D01*
D54*
X108368600Y-106060000D02*
X108368600Y-106710000D01*
X108368600Y-107812500D02*
X108283600Y-107897500D01*
X108368600Y-106710000D02*
X108368600Y-107812500D01*
X109453200Y-106710000D02*
X109474000Y-106730800D01*
X108368600Y-106710000D02*
X109453200Y-106710000D01*
X109412200Y-102922500D02*
X109435900Y-102946200D01*
X108283600Y-102922500D02*
X109412200Y-102922500D01*
D53*
X166878000Y-112770920D02*
X166890700Y-112783620D01*
X165614800Y-112770920D02*
X166878000Y-112770920D01*
X174807880Y-110518240D02*
X174807880Y-111318040D01*
X174807880Y-111318040D02*
X174818040Y-111328200D01*
X160316880Y-108429760D02*
X160324800Y-108437680D01*
X160316880Y-107436920D02*
X160316880Y-108429760D01*
X159395160Y-112852200D02*
X159405320Y-112862360D01*
X157900600Y-112852200D02*
X159395160Y-112852200D01*
D50*
X165873430Y-92677361D02*
X166952041Y-92677361D01*
X166952041Y-92677361D02*
X166959280Y-92684600D01*
D49*
X175912780Y-105316320D02*
X175912780Y-106159300D01*
X175912780Y-106159300D02*
X175950880Y-106197400D01*
X182110380Y-105113120D02*
X182110380Y-105961180D01*
X182110380Y-105961180D02*
X182102760Y-105968800D01*
D52*
X166903781Y-87676101D02*
X166913560Y-87685880D01*
X165873430Y-87676101D02*
X166903781Y-87676101D01*
D53*
X110920400Y-80036800D02*
X110935400Y-80051800D01*
X109665400Y-80036800D02*
X110920400Y-80036800D01*
X110935400Y-80051800D02*
X111781480Y-80051800D01*
X113253810Y-69680210D02*
X112975400Y-69401800D01*
X113253810Y-78290532D02*
X113253810Y-76047890D01*
X113545400Y-78582122D02*
X113253810Y-78290532D01*
X113545400Y-80051800D02*
X113545400Y-79158880D01*
X112975400Y-69401800D02*
X112068720Y-69401800D01*
X111321960Y-69401800D02*
X109790400Y-69401800D01*
X112068720Y-69401800D02*
X111321960Y-69401800D01*
X113253810Y-70409090D02*
X113253810Y-69680210D01*
X113253810Y-78290532D02*
X113253810Y-78290532D01*
X113253810Y-74203850D02*
X113253810Y-72197250D01*
X113253810Y-72197250D02*
X113253810Y-70409090D01*
X113253810Y-76047890D02*
X113253810Y-74203850D01*
X111781480Y-80051800D02*
X112523160Y-80051800D01*
X112523160Y-80051800D02*
X113545400Y-80051800D01*
X113545400Y-79158880D02*
X113545400Y-78582122D01*
D51*
X108035640Y-72776800D02*
X108041440Y-72771000D01*
X106985400Y-72776800D02*
X108035640Y-72776800D01*
D49*
X162323180Y-93212920D02*
X161563674Y-93212920D01*
X161563674Y-93212920D02*
X161524625Y-93173871D01*
D51*
X145287500Y-89319100D02*
X145288000Y-89318600D01*
X143777000Y-89319100D02*
X145287500Y-89319100D01*
D49*
X167416480Y-76334020D02*
X168152480Y-76334020D01*
X168220638Y-76347020D02*
X168193059Y-76374599D01*
X168940480Y-76347020D02*
X168220638Y-76347020D01*
X168152480Y-76334020D02*
X168193059Y-76374599D01*
D51*
X132994400Y-96672400D02*
X133045200Y-96723200D01*
X132193800Y-96672400D02*
X132994400Y-96672400D01*
D55*
X115468400Y-69722900D02*
X114325300Y-69722900D01*
X114004200Y-69401800D02*
X112975400Y-69401800D01*
X114325300Y-69722900D02*
X114004200Y-69401800D01*
X109588600Y-81483200D02*
X110490000Y-81483200D01*
X109665400Y-80036800D02*
X109665400Y-80631400D01*
X109588600Y-80708200D02*
X109588600Y-81483200D01*
X109665400Y-80631400D02*
X109588600Y-80708200D01*
D51*
X155467600Y-99669600D02*
X155467600Y-98399600D01*
X155467600Y-98399600D02*
X156921200Y-98399600D01*
X156921200Y-98399600D02*
X157530800Y-97790000D01*
X157124400Y-95859600D02*
X155467600Y-95859600D01*
X157530800Y-96266000D02*
X157124400Y-95859600D01*
X157530800Y-97790000D02*
X157530800Y-97028000D01*
X157530800Y-97028000D02*
X157530800Y-96266000D01*
X157530800Y-97028000D02*
X157530804Y-97028000D01*
D54*
X141071600Y-100355400D02*
X142341600Y-101625400D01*
X142341600Y-101625400D02*
X142341600Y-102463600D01*
X144881600Y-101625400D02*
X144881600Y-102463600D01*
D49*
X184607200Y-111899400D02*
X184607200Y-110401400D01*
D53*
X185368799Y-107847999D02*
X180086401Y-107847999D01*
X185826400Y-108305600D02*
X185368799Y-107847999D01*
X180086401Y-107847999D02*
X180086000Y-107848400D01*
X185826400Y-110286800D02*
X185826400Y-108305600D01*
X184607200Y-110401400D02*
X185711800Y-110401400D01*
X185826400Y-110286800D02*
X185711800Y-110401400D01*
X185661000Y-111899400D02*
X185724800Y-111963200D01*
X184607200Y-111899400D02*
X185661000Y-111899400D01*
X185724800Y-111963200D02*
X185724800Y-114096800D01*
X185724800Y-114096800D02*
X185064400Y-114757200D01*
X185064400Y-114757200D02*
X180086000Y-114757200D01*
X138849400Y-96570800D02*
X139598400Y-96570800D01*
X139598400Y-96570800D02*
X140347400Y-96570800D01*
D54*
X151638000Y-115087300D02*
X151638000Y-114096800D01*
D50*
X148473200Y-113296000D02*
X149136800Y-113296000D01*
X149212600Y-113220200D02*
X149961600Y-113220200D01*
X149136800Y-113296000D02*
X149212600Y-113220200D01*
X147523200Y-114350000D02*
X147523200Y-114046000D01*
X147969200Y-114796000D02*
X147523200Y-114350000D01*
X148473200Y-114796000D02*
X147969200Y-114796000D01*
X147969200Y-113296000D02*
X147523200Y-113742000D01*
X148473200Y-113296000D02*
X147969200Y-113296000D01*
X147523200Y-113742000D02*
X147523200Y-114046000D01*
X147077200Y-113296000D02*
X147523200Y-113742000D01*
X146573200Y-113296000D02*
X147077200Y-113296000D01*
X139450000Y-108795200D02*
X139700000Y-108545200D01*
X138750000Y-108795200D02*
X139450000Y-108795200D01*
X136931400Y-108928200D02*
X137756600Y-108928200D01*
X137889600Y-108795200D02*
X138750000Y-108795200D01*
X137756600Y-108928200D02*
X137889600Y-108795200D01*
X139700000Y-107741200D02*
X139700000Y-108045200D01*
X139254000Y-107295200D02*
X139700000Y-107741200D01*
X138750000Y-107295200D02*
X139254000Y-107295200D01*
X139700000Y-108349200D02*
X139700000Y-108045200D01*
X140146000Y-108795200D02*
X139700000Y-108349200D01*
X140650000Y-108795200D02*
X140146000Y-108795200D01*
D51*
X148526200Y-107327400D02*
X148539200Y-107340400D01*
X146151600Y-107327400D02*
X147028200Y-107327400D01*
X147841000Y-107327400D02*
X148526200Y-107327400D01*
X147028200Y-107327400D02*
X147841000Y-107327400D01*
X146151600Y-107327400D02*
X146151600Y-106273600D01*
X146151600Y-106273600D02*
X145846800Y-105968800D01*
X145846800Y-105968800D02*
X140106400Y-105968800D01*
X139700000Y-106375200D02*
X139700000Y-107545200D01*
X140106400Y-105968800D02*
X139700000Y-106375200D01*
X140843000Y-113245600D02*
X140843000Y-112699800D01*
X140843000Y-112699800D02*
X141630400Y-111912400D01*
X141630400Y-111912400D02*
X146964400Y-111912400D01*
X147523200Y-112471200D02*
X147523200Y-114046000D01*
X146964400Y-111912400D02*
X147523200Y-112471200D01*
X149961600Y-113220200D02*
X149961600Y-112318800D01*
D53*
X133383200Y-112765800D02*
X133383200Y-113393400D01*
X133383200Y-113393400D02*
X133667500Y-113677700D01*
X133667500Y-113677700D02*
X135039100Y-113677700D01*
X135272600Y-113911200D02*
X135272600Y-114691200D01*
X135039100Y-113677700D02*
X135272600Y-113911200D01*
X134635200Y-105450600D02*
X133383200Y-105450600D01*
X135204200Y-106019600D02*
X134635200Y-105450600D01*
X134823200Y-111887000D02*
X135204200Y-111506000D01*
X133642100Y-111887000D02*
X134823200Y-111887000D01*
X133383200Y-112145900D02*
X133642100Y-111887000D01*
X133383200Y-112765800D02*
X133383200Y-112145900D01*
X135201700Y-109108200D02*
X135204200Y-109105700D01*
X133383200Y-109108200D02*
X135201700Y-109108200D01*
X135204200Y-111506000D02*
X135204200Y-109105700D01*
X135268000Y-107378200D02*
X135204200Y-107442000D01*
X136931400Y-107378200D02*
X135268000Y-107378200D01*
X135204200Y-107442000D02*
X135204200Y-106019600D01*
X135204200Y-109105700D02*
X135204200Y-107442000D01*
X135966200Y-116382800D02*
X135272600Y-115689200D01*
X135272600Y-115689200D02*
X135272600Y-114691200D01*
X140589000Y-116382800D02*
X135966200Y-116382800D01*
X141478000Y-117271800D02*
X140589000Y-116382800D01*
X141478000Y-119126000D02*
X141478000Y-117271800D01*
D50*
X138750000Y-108295200D02*
X138750000Y-107795200D01*
X138750000Y-107795200D02*
X138173600Y-107795200D01*
X137756600Y-107378200D02*
X136931400Y-107378200D01*
X138173600Y-107795200D02*
X137756600Y-107378200D01*
X174398813Y-77925087D02*
X174414180Y-77909720D01*
X174398813Y-79055087D02*
X174414180Y-79039720D01*
X174398813Y-80150970D02*
X174398813Y-79055087D01*
X174398813Y-79055087D02*
X174398813Y-77925087D01*
X167897175Y-79355315D02*
X167429180Y-78887320D01*
X167897175Y-80150970D02*
X167897175Y-79355315D01*
X167416480Y-78874620D02*
X167429180Y-78887320D01*
X167416480Y-77884020D02*
X167416480Y-78874620D01*
X163893673Y-88176227D02*
X163860780Y-88209120D01*
X165873430Y-88176227D02*
X164754687Y-88176227D01*
X163908613Y-93177487D02*
X163873180Y-93212920D01*
X165873430Y-93177487D02*
X164701347Y-93177487D01*
X164701347Y-93177487D02*
X163908613Y-93177487D01*
X164754687Y-88176227D02*
X163893673Y-88176227D01*
X163976985Y-99679125D02*
X163949680Y-99651820D01*
X165873430Y-99679125D02*
X164725985Y-99679125D01*
X164725985Y-99679125D02*
X163976985Y-99679125D01*
X164725985Y-99679125D02*
X164725985Y-99319715D01*
X164866701Y-99178999D02*
X165873430Y-99178999D01*
X164725985Y-99319715D02*
X164866701Y-99178999D01*
X175899191Y-103752731D02*
X175912780Y-103766320D01*
X175899191Y-101702870D02*
X175899191Y-102876731D01*
X175899191Y-102876731D02*
X175899191Y-103752731D01*
X170397805Y-100709095D02*
X170400980Y-100705920D01*
X170397805Y-101702870D02*
X170397805Y-100709095D01*
X188587380Y-80563720D02*
X188561980Y-80589120D01*
X189450680Y-80563720D02*
X188587380Y-80563720D01*
X187425330Y-82174715D02*
X188205035Y-82174715D01*
X188561980Y-81817770D02*
X188561980Y-80589120D01*
X188205035Y-82174715D02*
X188561980Y-81817770D01*
X189404325Y-87175975D02*
X189412580Y-87167720D01*
X187425330Y-87175975D02*
X188544835Y-87175975D01*
X188544835Y-87175975D02*
X189404325Y-87175975D01*
X187456445Y-92146120D02*
X187425330Y-92177235D01*
X189425580Y-92146120D02*
X188587380Y-92146120D01*
X188587380Y-92146120D02*
X187456445Y-92146120D01*
X179900199Y-77910101D02*
X179925980Y-77884320D01*
X179900199Y-80150970D02*
X179900199Y-79039339D01*
X179900199Y-79039339D02*
X179900199Y-77910101D01*
D49*
X189311280Y-103512620D02*
X189323980Y-103525320D01*
X188473180Y-103512620D02*
X189311280Y-103512620D01*
X163949680Y-99651820D02*
X163949680Y-100452220D01*
D50*
X188607827Y-98678873D02*
X188612780Y-98673920D01*
X187425330Y-98678873D02*
X188607827Y-98678873D01*
X189298580Y-99753120D02*
X189298580Y-98902520D01*
X189069980Y-98673920D02*
X188612780Y-98673920D01*
X189298580Y-98902520D02*
X189069980Y-98673920D01*
D49*
X163949680Y-100452220D02*
X163949680Y-101239320D01*
D50*
X182400829Y-102498978D02*
X182123828Y-102775979D01*
X182400829Y-101702870D02*
X182400829Y-102498978D01*
X182110380Y-102789427D02*
X182123828Y-102775979D01*
X182110380Y-103563120D02*
X182110380Y-102789427D01*
D52*
X140100600Y-88603900D02*
X142205900Y-88603900D01*
D51*
X142227000Y-87795100D02*
X142227000Y-88532000D01*
X142227000Y-88532000D02*
X142227000Y-89319100D01*
D52*
X114800500Y-105531800D02*
X114782600Y-105549700D01*
X116568300Y-105531800D02*
X114800500Y-105531800D01*
X124190500Y-105531800D02*
X124198000Y-105524300D01*
X122293300Y-105531800D02*
X124190500Y-105531800D01*
D53*
X125680000Y-106463800D02*
X125730000Y-106413800D01*
X124193300Y-106463800D02*
X125680000Y-106463800D01*
X124198000Y-106459100D02*
X124193300Y-106463800D01*
X124198000Y-105524300D02*
X124198000Y-106459100D01*
X114782600Y-104508600D02*
X114782600Y-105549700D01*
D50*
X182400829Y-100783771D02*
X182427880Y-100756720D01*
X182400829Y-101702870D02*
X182400829Y-100783771D01*
D54*
X174800560Y-108960920D02*
X174807880Y-108968240D01*
X172814800Y-108960920D02*
X173969680Y-108960920D01*
X173969680Y-108960920D02*
X174800560Y-108960920D01*
D52*
X162850600Y-108269000D02*
X162864800Y-108254800D01*
X162850600Y-109042200D02*
X162850600Y-108269000D01*
X161866880Y-107436920D02*
X162519360Y-107436920D01*
X162864800Y-107782360D02*
X162864800Y-108254800D01*
X162519360Y-107436920D02*
X162864800Y-107782360D01*
D51*
X139395200Y-82740400D02*
X139395200Y-81889602D01*
X139395200Y-81889602D02*
X139395198Y-81889600D01*
X149301200Y-93726000D02*
X149352000Y-93675200D01*
X148449800Y-93726000D02*
X149301200Y-93726000D01*
X148449800Y-88379800D02*
X148437600Y-88392000D01*
X148449800Y-89154000D02*
X148449800Y-88379800D01*
X148449800Y-88379800D02*
X148449800Y-87630000D01*
X148449800Y-84582000D02*
X149301200Y-84582000D01*
D55*
X106129799Y-75542319D02*
X106129799Y-80424999D01*
X106695318Y-74976800D02*
X106129799Y-75542319D01*
X106129799Y-80424999D02*
X107137200Y-81432400D01*
X106985400Y-74976800D02*
X106695318Y-74976800D01*
X107188000Y-81483200D02*
X107137200Y-81432400D01*
X108038600Y-81483200D02*
X107188000Y-81483200D01*
X115468400Y-76771000D02*
X115468400Y-77724000D01*
D51*
X155467600Y-100939600D02*
X157327600Y-100939600D01*
X157632400Y-101244400D02*
X157632400Y-102209600D01*
X157327600Y-100939600D02*
X157632400Y-101244400D01*
D54*
X139801600Y-101625400D02*
X139801600Y-102412800D01*
D50*
X141154000Y-108295200D02*
X142028000Y-109169200D01*
X140650000Y-108295200D02*
X141154000Y-108295200D01*
X143441600Y-109169200D02*
X143459200Y-109151600D01*
X142028000Y-109169200D02*
X143441600Y-109169200D01*
D51*
X143459200Y-109151600D02*
X145254800Y-109151600D01*
X145529000Y-108877400D02*
X146151600Y-108877400D01*
X145254800Y-109151600D02*
X145529000Y-108877400D01*
X148526200Y-108877400D02*
X148539200Y-108864400D01*
X147103800Y-108877400D02*
X147116800Y-108864400D01*
X147079000Y-108877400D02*
X147103800Y-108877400D01*
X146151600Y-108877400D02*
X147079000Y-108877400D01*
X147079000Y-108877400D02*
X147815000Y-108877400D01*
X147815000Y-108877400D02*
X148526200Y-108877400D01*
D50*
X182900955Y-101702870D02*
X182900955Y-104773095D01*
X183240980Y-105113120D02*
X183875680Y-105113120D01*
X182900955Y-104773095D02*
X183240980Y-105113120D01*
D49*
X185412680Y-105100120D02*
X185399680Y-105113120D01*
X186898180Y-105100120D02*
X185412680Y-105100120D01*
X185399680Y-105113120D02*
X183875680Y-105113120D01*
D50*
X183901207Y-103537593D02*
X183875680Y-103563120D01*
X183401081Y-101702870D02*
X183401081Y-102657021D01*
X183494553Y-102750493D02*
X183901207Y-102750493D01*
X183401081Y-102657021D02*
X183494553Y-102750493D01*
X183901207Y-102750493D02*
X183901207Y-103537593D01*
X183901207Y-101702870D02*
X183901207Y-102750493D01*
D49*
X183875680Y-103563120D02*
X185399680Y-103563120D01*
X185450180Y-103512620D02*
X185399680Y-103563120D01*
X186898180Y-103512620D02*
X185450180Y-103512620D01*
X168742680Y-107147360D02*
X168762680Y-107127360D01*
X166807180Y-107147360D02*
X168742680Y-107147360D01*
D56*
X171898183Y-103021257D02*
X171898183Y-101702870D01*
X170077666Y-106065320D02*
X170886120Y-105256866D01*
X170886120Y-105256866D02*
X170886120Y-104033320D01*
X169164000Y-106065320D02*
X170077666Y-106065320D01*
X168762680Y-106466640D02*
X169164000Y-106065320D01*
X170886120Y-104033320D02*
X171898183Y-103021257D01*
X168762680Y-107127360D02*
X168762680Y-106466640D01*
X181864000Y-111963200D02*
X181864000Y-113000400D01*
X181254400Y-111353600D02*
X181864000Y-111963200D01*
X179628800Y-111353600D02*
X181254400Y-111353600D01*
X178899947Y-110624747D02*
X179628800Y-111353600D01*
X178899947Y-101702870D02*
X178899947Y-110624747D01*
D49*
X184607200Y-113449400D02*
X183909000Y-113449400D01*
X183460000Y-113000400D02*
X181864000Y-113000400D01*
X183909000Y-113449400D02*
X183460000Y-113000400D01*
X166850680Y-104627360D02*
X166807180Y-104670860D01*
X168762680Y-104627360D02*
X166850680Y-104627360D01*
D56*
X168762680Y-104627360D02*
X168762680Y-105430320D01*
X168762680Y-105430320D02*
X169016680Y-105684320D01*
X169016680Y-105684320D02*
X170027600Y-105684320D01*
X170027600Y-105684320D02*
X170581310Y-105130610D01*
X170581310Y-105130610D02*
X170581310Y-103880930D01*
X171398057Y-103064183D02*
X171398057Y-101702870D01*
X170581310Y-103880930D02*
X171398057Y-103064183D01*
X179400073Y-110413673D02*
X179400073Y-101702870D01*
X179933600Y-110947200D02*
X179400073Y-110413673D01*
X181254400Y-110947200D02*
X179933600Y-110947200D01*
X181864000Y-110337600D02*
X181254400Y-110947200D01*
X181864000Y-109300400D02*
X181864000Y-110337600D01*
D49*
X181864000Y-109300400D02*
X183307600Y-109300400D01*
X183756600Y-108851400D02*
X184607200Y-108851400D01*
X183307600Y-109300400D02*
X183756600Y-108851400D01*
D53*
X126445989Y-114926011D02*
X122398400Y-118973600D01*
X129319611Y-114926011D02*
X126445989Y-114926011D01*
X130250600Y-115857000D02*
X129319611Y-114926011D01*
X130250600Y-116332000D02*
X130250600Y-115857000D01*
X136398000Y-117843300D02*
X136398000Y-119126000D01*
X135814110Y-117259410D02*
X136398000Y-117843300D01*
X130581710Y-117259410D02*
X135814110Y-117259410D01*
X130250600Y-116928300D02*
X130581710Y-117259410D01*
X130250600Y-116332000D02*
X130250600Y-116928300D01*
D56*
X123686760Y-102281800D02*
X123703080Y-102265480D01*
X122293300Y-102281800D02*
X123686760Y-102281800D01*
X179900199Y-100408359D02*
X178826160Y-99334320D01*
X179900199Y-101702870D02*
X179900199Y-100408359D01*
X178826160Y-99334320D02*
X170261280Y-99334320D01*
X155854400Y-102666800D02*
X155244800Y-102057200D01*
X155244800Y-102057200D02*
X154127200Y-102057200D01*
X154127200Y-102057200D02*
X153771600Y-101701600D01*
X153771600Y-101701600D02*
X153771600Y-96469200D01*
X153162000Y-95859600D02*
X151567600Y-95859600D01*
X153771600Y-96469200D02*
X153162000Y-95859600D01*
D52*
X120396000Y-103327200D02*
X121441400Y-102281800D01*
X120396000Y-106984800D02*
X120396000Y-103327200D01*
X118033800Y-109347000D02*
X120396000Y-106984800D01*
X118033800Y-110007400D02*
X118033800Y-109347000D01*
X121441400Y-102281800D02*
X122293300Y-102281800D01*
X118668800Y-110642400D02*
X118033800Y-110007400D01*
D50*
X187425330Y-82674841D02*
X188279659Y-82674841D01*
X188854080Y-82100420D02*
X189450680Y-82100420D01*
X188279659Y-82674841D02*
X188854080Y-82100420D01*
X168897427Y-77940073D02*
X168940480Y-77897020D01*
X168897427Y-80150970D02*
X168897427Y-77940073D01*
X148473200Y-114296000D02*
X148992400Y-114296000D01*
X149466600Y-114770200D02*
X149961600Y-114770200D01*
X148992400Y-114296000D02*
X149466600Y-114770200D01*
X148473200Y-113796000D02*
X148473200Y-114296000D01*
D51*
X149961600Y-114770200D02*
X149961600Y-115468400D01*
X149098000Y-116332000D02*
X149098000Y-119126000D01*
X149961600Y-115468400D02*
X149098000Y-116332000D01*
D56*
X165614800Y-108960920D02*
X163687760Y-107033880D01*
X163687760Y-107033880D02*
X163687760Y-106410760D01*
X163535360Y-102651560D02*
X162692080Y-103494840D01*
X164056553Y-102651560D02*
X163535360Y-102651560D01*
X166781481Y-99926632D02*
X164056553Y-102651560D01*
X166781481Y-98191319D02*
X166781481Y-99926632D01*
X162692080Y-103494840D02*
X162692080Y-103535480D01*
X167817800Y-97155000D02*
X166781481Y-98191319D01*
X167817800Y-96367600D02*
X167817800Y-97155000D01*
X167128317Y-95678117D02*
X167817800Y-96367600D01*
X165873430Y-95678117D02*
X167128317Y-95678117D01*
X111241655Y-115548600D02*
X111067855Y-115722400D01*
X111561799Y-115548600D02*
X111241655Y-115548600D01*
X111659399Y-115646200D02*
X111561799Y-115548600D01*
X112184400Y-115646200D02*
X111659399Y-115646200D01*
X114789202Y-115493800D02*
X114963002Y-115320000D01*
X114507001Y-115493800D02*
X114789202Y-115493800D01*
X114409401Y-115396200D02*
X114507001Y-115493800D01*
X113884400Y-115396200D02*
X114409401Y-115396200D01*
X114963002Y-115320000D02*
X115136802Y-115493800D01*
X115136802Y-115493800D02*
X117686192Y-115493800D01*
X117686192Y-115493800D02*
X118358920Y-114821072D01*
X118358920Y-114821072D02*
X118358920Y-112829712D01*
X119863999Y-111521200D02*
X120539000Y-111521200D01*
X119066399Y-112318800D02*
X119863999Y-111521200D01*
X118869832Y-112318800D02*
X119066399Y-112318800D01*
X118358920Y-112829712D02*
X118869832Y-112318800D01*
X123171881Y-111842599D02*
X121535400Y-111842599D01*
X129126352Y-104221280D02*
X127756920Y-105590712D01*
X172689520Y-94755072D02*
X163223312Y-104221280D01*
X169995342Y-81158470D02*
X172689520Y-83852648D01*
X169995342Y-80788383D02*
X169995342Y-81158470D01*
X169897679Y-80690720D02*
X169995342Y-80788383D01*
X169897679Y-80150970D02*
X169897679Y-80690720D01*
X163223312Y-104221280D02*
X129126352Y-104221280D01*
X123648082Y-112318800D02*
X123171881Y-111842599D01*
X127756920Y-105590712D02*
X127756920Y-109690272D01*
X127756920Y-109690272D02*
X125128392Y-112318800D01*
X121535400Y-111842599D02*
X121214001Y-111521200D01*
X121214001Y-111521200D02*
X120539000Y-111521200D01*
X172689520Y-83852648D02*
X172689520Y-94755072D01*
X125128392Y-112318800D02*
X123648082Y-112318800D01*
X113884400Y-115896200D02*
X113445100Y-115896200D01*
X112695100Y-115146200D02*
X112184400Y-115146200D01*
X113445100Y-115896200D02*
X112695100Y-115146200D01*
X114789202Y-115798600D02*
X114963002Y-115972400D01*
X114507001Y-115798600D02*
X114789202Y-115798600D01*
X114409401Y-115896200D02*
X114507001Y-115798600D01*
X113884400Y-115896200D02*
X114409401Y-115896200D01*
X114963002Y-115972400D02*
X115136802Y-115798600D01*
X115136802Y-115798600D02*
X117812448Y-115798600D01*
X117812448Y-115798600D02*
X118663720Y-114947328D01*
X118663720Y-114947328D02*
X118663720Y-112955968D01*
X119863999Y-113421200D02*
X120539000Y-113421200D01*
X119066399Y-112623600D02*
X119863999Y-113421200D01*
X118996088Y-112623600D02*
X119066399Y-112623600D01*
X118663720Y-112955968D02*
X118996088Y-112623600D01*
X172994320Y-83726392D02*
X172994320Y-94881328D01*
X129252608Y-104526080D02*
X128061720Y-105716968D01*
X170397805Y-80690720D02*
X170300142Y-80788383D01*
X121214001Y-113421200D02*
X120539000Y-113421200D01*
X170397805Y-80150970D02*
X170397805Y-80690720D01*
X125254648Y-112623600D02*
X123648082Y-112623600D01*
X172994320Y-94881328D02*
X163349568Y-104526080D01*
X128061720Y-105716968D02*
X128061720Y-109816528D01*
X128061720Y-109816528D02*
X125254648Y-112623600D01*
X170300142Y-80788383D02*
X170300142Y-81032214D01*
X163349568Y-104526080D02*
X129252608Y-104526080D01*
X170300142Y-81032214D02*
X172994320Y-83726392D01*
X123648082Y-112623600D02*
X123171881Y-113099801D01*
X123171881Y-113099801D02*
X121535400Y-113099801D01*
X121535400Y-113099801D02*
X121214001Y-113421200D01*
D52*
X113884400Y-116896200D02*
X113213200Y-116896200D01*
X112963200Y-116646200D02*
X112184400Y-116646200D01*
X113213200Y-116896200D02*
X112963200Y-116646200D01*
X112184400Y-114146200D02*
X112927000Y-114146200D01*
X113177000Y-114396200D02*
X113884400Y-114396200D01*
X112927000Y-114146200D02*
X113177000Y-114396200D01*
X110618400Y-114146200D02*
X112184400Y-114146200D01*
X110032800Y-114731800D02*
X110618400Y-114146200D01*
X110032800Y-116446300D02*
X110032800Y-114731800D01*
X111258350Y-117106700D02*
X110693200Y-117106700D01*
X110693200Y-117106700D02*
X110032800Y-116446300D01*
X111718850Y-116646200D02*
X111258350Y-117106700D01*
X112184400Y-116646200D02*
X111718850Y-116646200D01*
D51*
X131183200Y-114665800D02*
X130324900Y-114665800D01*
X130553878Y-109108200D02*
X131183200Y-109108200D01*
X130250799Y-109411279D02*
X130553878Y-109108200D01*
X130324900Y-114665800D02*
X130250799Y-114591699D01*
X130413800Y-112765800D02*
X130250799Y-112928801D01*
X130250799Y-112928801D02*
X130250799Y-109411279D01*
X131183200Y-112765800D02*
X130413800Y-112765800D01*
X130250799Y-113766199D02*
X128167699Y-113766199D01*
X128167699Y-113766199D02*
X128155700Y-113754200D01*
X130250799Y-114591699D02*
X130250799Y-113766199D01*
X130250799Y-113766199D02*
X130250799Y-112928801D01*
D52*
X113884400Y-116896200D02*
X114915000Y-116896200D01*
X114915000Y-116896200D02*
X114935000Y-116916200D01*
D51*
X114935000Y-116916200D02*
X114528600Y-116916200D01*
X115681760Y-116916200D02*
X114935000Y-116916200D01*
X116108480Y-116489480D02*
X115681760Y-116916200D01*
X118333520Y-116489480D02*
X116108480Y-116489480D01*
X120599399Y-114223601D02*
X118333520Y-116489480D01*
X126860499Y-114223601D02*
X120599399Y-114223601D01*
X127329900Y-113754200D02*
X126860499Y-114223601D01*
X128155700Y-113754200D02*
X127329900Y-113754200D01*
D53*
X136753278Y-114691200D02*
X137472600Y-114691200D01*
X136490199Y-114428121D02*
X136753278Y-114691200D01*
X136753278Y-112791200D02*
X136490199Y-113054279D01*
X136490199Y-113054279D02*
X136490199Y-114428121D01*
X137472600Y-112791200D02*
X136753278Y-112791200D01*
X137472600Y-114691200D02*
X138364000Y-114691200D01*
X138468400Y-114795600D02*
X139319000Y-114795600D01*
X138364000Y-114691200D02*
X138468400Y-114795600D01*
X139319000Y-114795600D02*
X140843000Y-114795600D01*
D50*
X146069200Y-113796000D02*
X145897600Y-113624400D01*
X146573200Y-113796000D02*
X146069200Y-113796000D01*
X145897600Y-113624400D02*
X145897600Y-113233200D01*
X145610400Y-112946000D02*
X144068800Y-112946000D01*
X145897600Y-113233200D02*
X145610400Y-112946000D01*
D51*
X140843000Y-114795600D02*
X141541200Y-114795600D01*
X141541200Y-114795600D02*
X141986000Y-114350800D01*
X141986000Y-114350800D02*
X141986000Y-113233200D01*
X142273200Y-112946000D02*
X144068800Y-112946000D01*
X141986000Y-113233200D02*
X142273200Y-112946000D01*
D52*
X121555800Y-106181800D02*
X122293300Y-106181800D01*
X121253390Y-106484210D02*
X121555800Y-106181800D01*
X121285300Y-109512100D02*
X121253390Y-109480190D01*
D57*
X139801600Y-100355400D02*
X138864990Y-99418790D01*
X138864990Y-99418790D02*
X128673210Y-99418790D01*
X128673210Y-99418790D02*
X127711200Y-100380800D01*
X127711200Y-100380800D02*
X121056400Y-100380800D01*
X121056400Y-100380800D02*
X118719600Y-102717600D01*
X118719600Y-105867200D02*
X118262400Y-106324400D01*
X118719600Y-102717600D02*
X118719600Y-105867200D01*
X121145580Y-108356400D02*
X121253390Y-108248590D01*
X120243600Y-108356400D02*
X121145580Y-108356400D01*
D52*
X121253390Y-108248590D02*
X121253390Y-106484210D01*
X121253390Y-109480190D02*
X121253390Y-108248590D01*
D56*
X109576201Y-104932600D02*
X111739428Y-104932600D01*
X109403601Y-104760000D02*
X109576201Y-104932600D01*
X108368600Y-104760000D02*
X109403601Y-104760000D01*
X113167200Y-106569800D02*
X113167200Y-106619800D01*
X112369600Y-105772200D02*
X113167200Y-106569800D01*
X112369600Y-105562772D02*
X112369600Y-105772200D01*
X111739428Y-104932600D02*
X112369600Y-105562772D01*
X113167200Y-107294801D02*
X112845801Y-107616200D01*
X112845801Y-107616200D02*
X112845801Y-109252681D01*
X113167200Y-106619800D02*
X113167200Y-107294801D01*
X112369600Y-109880772D02*
X112483528Y-109994700D01*
X112483528Y-109994700D02*
X113932072Y-109994700D01*
X113932072Y-109994700D02*
X114439700Y-109487072D01*
X114439700Y-109487072D02*
X114439700Y-106858172D01*
X114439700Y-106858172D02*
X114943472Y-106354400D01*
X116568300Y-106181800D02*
X115547500Y-106181800D01*
X115547500Y-106181800D02*
X115374900Y-106354400D01*
X114943472Y-106354400D02*
X115374900Y-106354400D01*
X112369600Y-109728882D02*
X112845801Y-109252681D01*
X112369600Y-109880772D02*
X112369600Y-109728882D01*
X109576201Y-105237400D02*
X111613172Y-105237400D01*
X109403601Y-105410000D02*
X109576201Y-105237400D01*
X108368600Y-105410000D02*
X109403601Y-105410000D01*
X111267200Y-106569800D02*
X111267200Y-106619800D01*
X112064800Y-105772200D02*
X111267200Y-106569800D01*
X112064800Y-105689028D02*
X112064800Y-105772200D01*
X111613172Y-105237400D02*
X112064800Y-105689028D01*
X111588599Y-107616200D02*
X111267200Y-107294801D01*
X111588599Y-109252681D02*
X111588599Y-107616200D01*
X112064800Y-109728882D02*
X111588599Y-109252681D01*
X112357272Y-110299500D02*
X112064800Y-110007028D01*
X114744500Y-109613328D02*
X114058328Y-110299500D01*
X114058328Y-110299500D02*
X112357272Y-110299500D01*
X114744500Y-106984428D02*
X114744500Y-109613328D01*
X111267200Y-107294801D02*
X111267200Y-106619800D01*
X115069728Y-106659200D02*
X114744500Y-106984428D01*
X112064800Y-110007028D02*
X112064800Y-109728882D01*
X115374900Y-106659200D02*
X115069728Y-106659200D01*
X115547500Y-106831800D02*
X115374900Y-106659200D01*
X116568300Y-106831800D02*
X115547500Y-106831800D01*
D51*
X130250799Y-105753679D02*
X130553878Y-105450600D01*
X130553878Y-105450600D02*
X131183200Y-105450600D01*
X130553878Y-107350600D02*
X130250799Y-107047521D01*
X131183200Y-107350600D02*
X130553878Y-107350600D01*
X130250799Y-106413301D02*
X130250798Y-106413300D01*
X130250799Y-106413701D02*
X130250799Y-106413301D01*
X130250799Y-107047521D02*
X130250799Y-106413701D01*
X130250799Y-106413701D02*
X130250799Y-105753679D01*
X112971100Y-104110000D02*
X112966500Y-104114600D01*
X111082300Y-104110000D02*
X111086900Y-104114600D01*
X108368600Y-104110000D02*
X111082300Y-104110000D01*
X111691900Y-104110000D02*
X111696500Y-104114600D01*
X111688400Y-104110000D02*
X111691900Y-104110000D01*
X111082300Y-104110000D02*
X111688400Y-104110000D01*
X112326900Y-104110000D02*
X112323400Y-104110000D01*
X112323400Y-104110000D02*
X112318800Y-104114600D01*
X111688400Y-104110000D02*
X112326900Y-104110000D01*
X112326900Y-104110000D02*
X112971100Y-104110000D01*
D52*
X122293300Y-108131800D02*
X122293300Y-109021800D01*
X122293300Y-109021800D02*
X122694700Y-109423200D01*
X122694700Y-109423200D02*
X125056900Y-109423200D01*
X125730000Y-108750100D02*
X125730000Y-108063800D01*
X125056900Y-109423200D02*
X125730000Y-108750100D01*
D57*
X125730000Y-108063800D02*
X126479800Y-108063800D01*
X126479800Y-108063800D02*
X126847600Y-107696000D01*
X126847600Y-107696000D02*
X126847600Y-104495600D01*
X129387600Y-101955600D02*
X131572000Y-101955600D01*
X126847600Y-104495600D02*
X129387600Y-101955600D01*
D56*
X125059560Y-104881800D02*
X125095000Y-104917240D01*
X122293300Y-104881800D02*
X125059560Y-104881800D01*
X167674454Y-97824454D02*
X167350440Y-98148468D01*
X166705280Y-82174715D02*
X166997380Y-81882615D01*
X165873430Y-82174715D02*
X166705280Y-82174715D01*
X172074840Y-94143294D02*
X168393680Y-97824454D01*
X169548175Y-81882615D02*
X172074840Y-84409280D01*
X168393680Y-97824454D02*
X167674454Y-97824454D01*
X167350440Y-98148468D02*
X167350440Y-99052031D01*
X166997380Y-81882615D02*
X169548175Y-81882615D01*
X172074840Y-84409280D02*
X172074840Y-94143294D01*
X154609800Y-102692200D02*
X154000200Y-102692200D01*
X154000200Y-102692200D02*
X153314400Y-102006400D01*
X153314400Y-102006400D02*
X153314400Y-99974400D01*
X153009600Y-99669600D02*
X151567600Y-99669600D01*
X153314400Y-99974400D02*
X153009600Y-99669600D01*
X124445120Y-104231800D02*
X124454920Y-104241600D01*
X122293300Y-104231800D02*
X124445120Y-104231800D01*
X169397553Y-81295113D02*
X172379651Y-84277211D01*
X172379651Y-94280810D02*
X168087040Y-98573421D01*
X169397553Y-80150970D02*
X169397553Y-81295113D01*
X172379651Y-84277211D02*
X172379651Y-94280810D01*
X151567600Y-100939600D02*
X151567600Y-102088400D01*
X152196800Y-102717600D02*
X153111200Y-102717600D01*
X151567600Y-102088400D02*
X152196800Y-102717600D01*
X122293300Y-103581800D02*
X125109156Y-103581800D01*
X125109156Y-103581800D02*
X125153178Y-103537778D01*
X173370230Y-95265250D02*
X169992040Y-98643440D01*
X173370230Y-83455119D02*
X173370230Y-95265250D01*
X170897931Y-80982820D02*
X173370230Y-83455119D01*
X170897931Y-80150970D02*
X170897931Y-80982820D01*
X124450680Y-102931800D02*
X124454920Y-102936040D01*
X122293300Y-102931800D02*
X124450680Y-102931800D01*
X173675040Y-95788480D02*
X170774360Y-98689160D01*
X173675040Y-83328863D02*
X173675040Y-95788480D01*
X171398057Y-81051880D02*
X173675040Y-83328863D01*
X171398057Y-80150970D02*
X171398057Y-81051880D01*
X140380768Y-86097232D02*
X140074100Y-86403900D01*
X140874898Y-86097232D02*
X140380768Y-86097232D01*
X139400600Y-86403900D02*
X140074100Y-86403900D01*
X180900451Y-100644170D02*
X175768000Y-95511719D01*
X175768000Y-95511719D02*
X175768000Y-93831590D01*
X180900451Y-101702870D02*
X180900451Y-100644170D01*
X176357280Y-95250000D02*
X176357280Y-93421200D01*
X184901459Y-101702870D02*
X184901459Y-100537899D01*
X184901459Y-100537899D02*
X181950360Y-97586800D01*
X181950360Y-97586800D02*
X178694080Y-97586800D01*
X178694080Y-97586800D02*
X176357280Y-95250000D01*
D51*
X148449800Y-83058000D02*
X149250400Y-83058000D01*
D56*
X185401585Y-100292011D02*
X182208694Y-97099120D01*
X185401585Y-101702870D02*
X185401585Y-100292011D01*
X182208694Y-97099120D02*
X179061887Y-97099120D01*
X179061887Y-97099120D02*
X177007520Y-95044753D01*
X177007520Y-95044753D02*
X177007520Y-94005400D01*
X140100600Y-87103900D02*
X140939566Y-87103900D01*
X140939566Y-87103900D02*
X141581886Y-86461580D01*
X141581886Y-86461580D02*
X143916420Y-86461580D01*
X145796000Y-84582000D02*
X146799800Y-84582000D01*
X143916420Y-86461580D02*
X145796000Y-84582000D01*
X187425330Y-96678369D02*
X179184696Y-96678369D01*
X179184696Y-96678369D02*
X177871120Y-95364793D01*
X177871120Y-95364793D02*
X177871120Y-94488000D01*
D51*
X148449800Y-86106000D02*
X149352000Y-86106000D01*
D56*
X179662963Y-96178243D02*
X178455320Y-94970600D01*
X187425330Y-96178243D02*
X179662963Y-96178243D01*
D51*
X148449800Y-90678000D02*
X149402800Y-90678000D01*
D56*
X180012415Y-95678117D02*
X179517649Y-95183351D01*
X187425330Y-95678117D02*
X180012415Y-95678117D01*
D51*
X148449800Y-92202000D02*
X149402800Y-92202000D01*
D56*
X137900600Y-86403900D02*
X137900600Y-85721000D01*
X137900600Y-85721000D02*
X138201400Y-85420200D01*
X164336857Y-90676857D02*
X164327853Y-90667853D01*
X165873430Y-90676857D02*
X164336857Y-90676857D01*
X137400600Y-86403900D02*
X137400600Y-85381400D01*
X137400600Y-85381400D02*
X137388600Y-85369400D01*
X165873430Y-91677109D02*
X168189529Y-91677109D01*
X168189529Y-91677109D02*
X168211500Y-91699080D01*
X136900600Y-85694200D02*
X136626600Y-85420200D01*
X136900600Y-86403900D02*
X136900600Y-85694200D01*
X167414903Y-92177235D02*
X167757168Y-92519500D01*
X165873430Y-92177235D02*
X167414903Y-92177235D01*
X167757168Y-92519500D02*
X168402000Y-92519500D01*
X139903200Y-92229434D02*
X139903200Y-93370400D01*
X140360400Y-93827600D02*
X141448400Y-93827600D01*
X138900600Y-91226834D02*
X139903200Y-92229434D01*
X139903200Y-93370400D02*
X140360400Y-93827600D01*
X138900600Y-90303900D02*
X138900600Y-91226834D01*
D53*
X141448400Y-93827600D02*
X141448400Y-95322000D01*
X141897400Y-95771000D02*
X141897400Y-96570800D01*
X141448400Y-95322000D02*
X141897400Y-95771000D01*
D56*
X138400600Y-90303900D02*
X138400600Y-91157900D01*
X138400600Y-91157900D02*
X139242800Y-92000100D01*
X139242800Y-92000100D02*
X139242800Y-93370400D01*
X138785600Y-93827600D02*
X137748400Y-93827600D01*
X139242800Y-93370400D02*
X138785600Y-93827600D01*
D53*
X137748400Y-93827600D02*
X137748400Y-95220400D01*
X137299400Y-95669400D02*
X137299400Y-96570800D01*
X137748400Y-95220400D02*
X137299400Y-95669400D01*
D51*
X145059400Y-92608100D02*
X143497300Y-92608100D01*
D52*
X143497300Y-91884500D02*
X143497300Y-92608100D01*
X139750800Y-91541600D02*
X143154400Y-91541600D01*
X143154400Y-91541600D02*
X143497300Y-91884500D01*
X139400600Y-91191400D02*
X139750800Y-91541600D01*
X139400600Y-90303900D02*
X139400600Y-91191400D01*
X136200600Y-87103900D02*
X135694100Y-87103900D01*
X135694100Y-87103900D02*
X135559800Y-86969600D01*
X136900600Y-90303900D02*
X136900600Y-90759600D01*
X136601200Y-91059000D02*
X135686800Y-91059000D01*
X136900600Y-90759600D02*
X136601200Y-91059000D01*
X135559800Y-86969600D02*
X135559800Y-85852000D01*
D51*
X135699500Y-91071700D02*
X135686800Y-91059000D01*
X135699500Y-92023900D02*
X135699500Y-91071700D01*
X137883700Y-84315400D02*
X137871200Y-84302900D01*
X139395200Y-84315400D02*
X137883700Y-84315400D01*
X137871200Y-84302900D02*
X136347200Y-84302900D01*
X135559800Y-84480400D02*
X135737300Y-84302900D01*
X135559800Y-85852000D02*
X135559800Y-84480400D01*
X135737300Y-84302900D02*
X136347200Y-84302900D01*
X130974800Y-86931200D02*
X130962400Y-86918800D01*
X130974800Y-87693500D02*
X130974800Y-86931200D01*
X130974800Y-86931200D02*
X130974800Y-86169500D01*
X130924800Y-86119500D02*
X130974800Y-86169500D01*
X130924800Y-84505800D02*
X130924800Y-86119500D01*
X130924800Y-87743500D02*
X130974800Y-87693500D01*
X130924800Y-89433400D02*
X130924800Y-87743500D01*
X130848100Y-91415100D02*
X130848600Y-91414600D01*
X130848100Y-92354400D02*
X130848100Y-91415100D01*
X130949700Y-92456000D02*
X130848100Y-92354400D01*
X130924800Y-82524600D02*
X130073400Y-82524600D01*
X130073400Y-82524600D02*
X130048000Y-82550000D01*
D56*
X137900600Y-91141202D02*
X137441857Y-91599945D01*
X137900600Y-90303900D02*
X137900600Y-91141202D01*
X133045200Y-98145600D02*
X132193800Y-98145600D01*
D57*
X136200600Y-88603900D02*
X136175600Y-88628900D01*
X136175600Y-88628900D02*
X135309500Y-88628900D01*
X135309500Y-88628900D02*
X133777500Y-90160900D01*
X133302300Y-90160900D02*
X132574800Y-89433400D01*
X133777500Y-90160900D02*
X133302300Y-90160900D01*
X126304690Y-86694390D02*
X125246400Y-85636100D01*
X126304690Y-87700773D02*
X126304690Y-86694390D01*
X126591221Y-87987303D02*
X126304690Y-87700773D01*
X126591221Y-89240521D02*
X126591221Y-87987303D01*
X127587800Y-90237100D02*
X126591221Y-89240521D01*
X131771100Y-90237100D02*
X127587800Y-90237100D01*
X132574800Y-89433400D02*
X131771100Y-90237100D01*
X136175600Y-89078900D02*
X135495900Y-89078900D01*
X136200600Y-89103900D02*
X136175600Y-89078900D01*
X133302300Y-90610900D02*
X132498600Y-91414600D01*
X133963900Y-90610900D02*
X133302300Y-90610900D01*
X135495900Y-89078900D02*
X133963900Y-90610900D01*
X129815500Y-90687100D02*
X131771100Y-90687100D01*
X129748743Y-90694621D02*
X129815500Y-90687100D01*
X129628453Y-90752550D02*
X129685334Y-90716809D01*
X128380950Y-90800053D02*
X128428453Y-90752550D01*
X128345209Y-90856934D02*
X128380950Y-90800053D01*
X128250049Y-91565748D02*
X128285790Y-91508867D01*
X128323021Y-90920343D02*
X128345209Y-90856934D01*
X128915500Y-90987100D02*
X128915500Y-91378702D01*
X128082256Y-91671180D02*
X128145665Y-91648992D01*
X129450049Y-91565748D02*
X129485790Y-91508867D01*
X129580950Y-90800053D02*
X129628453Y-90752550D01*
X127948743Y-91671180D02*
X128015500Y-91678702D01*
X127745209Y-91508867D02*
X127780950Y-91565748D01*
X129148743Y-91671180D02*
X129215500Y-91678702D01*
X131771100Y-90687100D02*
X132498600Y-91414600D01*
X129515500Y-91378702D02*
X129515500Y-90987100D01*
X127885334Y-91648992D02*
X127948743Y-91671180D01*
X129507978Y-91445458D02*
X129515500Y-91378702D01*
X127828453Y-91613251D02*
X127885334Y-91648992D01*
X128915500Y-91378702D02*
X128923021Y-91445458D01*
X128980950Y-91565748D02*
X129028453Y-91613251D01*
X129515500Y-90987100D02*
X129523021Y-90920343D01*
X128145665Y-91648992D02*
X128202546Y-91613251D01*
X127780950Y-91565748D02*
X127828453Y-91613251D01*
X129345665Y-91648992D02*
X129402546Y-91613251D01*
X125246400Y-89700100D02*
X126428500Y-89700100D01*
X126428500Y-89700100D02*
X127415500Y-90687100D01*
X128202546Y-91613251D02*
X128250049Y-91565748D01*
X127685790Y-90856934D02*
X127707978Y-90920343D01*
X127415500Y-90687100D02*
X127482256Y-90694621D01*
X127482256Y-90694621D02*
X127545665Y-90716809D01*
X128315500Y-90987100D02*
X128323021Y-90920343D01*
X129282256Y-91671180D02*
X129345665Y-91648992D01*
X127723021Y-91445458D02*
X127745209Y-91508867D01*
X129485790Y-91508867D02*
X129507978Y-91445458D01*
X127602546Y-90752550D02*
X127650049Y-90800053D01*
X129215500Y-91678702D02*
X129282256Y-91671180D01*
X127650049Y-90800053D02*
X127685790Y-90856934D01*
X127545665Y-90716809D02*
X127602546Y-90752550D01*
X128307978Y-91445458D02*
X128315500Y-91378702D01*
X128285790Y-91508867D02*
X128307978Y-91445458D01*
X127707978Y-90920343D02*
X127715500Y-90987100D01*
X128015500Y-91678702D02*
X128082256Y-91671180D01*
X127715500Y-90987100D02*
X127715500Y-91378702D01*
X128428453Y-90752550D02*
X128485334Y-90716809D01*
X128485334Y-90716809D02*
X128548743Y-90694621D01*
X128548743Y-90694621D02*
X128615500Y-90687100D01*
X128615500Y-90687100D02*
X128682256Y-90694621D01*
X128682256Y-90694621D02*
X128745665Y-90716809D01*
X128850049Y-90800053D02*
X128885790Y-90856934D01*
X128745665Y-90716809D02*
X128802546Y-90752550D01*
X128945209Y-91508867D02*
X128980950Y-91565748D01*
X128802546Y-90752550D02*
X128850049Y-90800053D01*
X128885790Y-90856934D02*
X128907978Y-90920343D01*
X129685334Y-90716809D02*
X129748743Y-90694621D01*
X128907978Y-90920343D02*
X128915500Y-90987100D01*
X129545209Y-90856934D02*
X129580950Y-90800053D01*
X128923021Y-91445458D02*
X128945209Y-91508867D01*
X127715500Y-91378702D02*
X127723021Y-91445458D01*
X129028453Y-91613251D02*
X129085334Y-91648992D01*
X129085334Y-91648992D02*
X129148743Y-91671180D01*
X129523021Y-90920343D02*
X129545209Y-90856934D01*
X128315500Y-91378702D02*
X128315500Y-90987100D01*
X129402546Y-91613251D02*
X129450049Y-91565748D01*
X136200600Y-87603900D02*
X136175600Y-87628900D01*
X136175600Y-87628900D02*
X135292700Y-87628900D01*
X135292700Y-87628900D02*
X134743400Y-87079600D01*
X134743400Y-87079600D02*
X134743400Y-83955400D01*
X134078200Y-83290200D02*
X133340400Y-83290200D01*
X134743400Y-83955400D02*
X134078200Y-83290200D01*
X133340400Y-83290200D02*
X132574800Y-82524600D01*
X126657100Y-85191600D02*
X126657100Y-87554800D01*
X126190800Y-84725300D02*
X126657100Y-85191600D01*
X126190800Y-83434700D02*
X126190800Y-84725300D01*
X126657100Y-87554800D02*
X127786400Y-88684100D01*
X126843300Y-82782200D02*
X126190800Y-83434700D01*
X128299000Y-82782200D02*
X126843300Y-82782200D01*
X128807000Y-83290200D02*
X128299000Y-82782200D01*
X131809200Y-83290200D02*
X128807000Y-83290200D01*
X132574800Y-82524600D02*
X131809200Y-83290200D01*
X136200600Y-88103900D02*
X136175600Y-88078900D01*
X136175600Y-88078900D02*
X135106300Y-88078900D01*
X135106300Y-88078900D02*
X134293400Y-87266000D01*
X134293400Y-87266000D02*
X134293400Y-84141800D01*
X133340400Y-83740200D02*
X132574800Y-84505800D01*
X133891800Y-83740200D02*
X133340400Y-83740200D01*
X134293400Y-84141800D02*
X133891800Y-83740200D01*
X130201400Y-83740200D02*
X131809200Y-83740200D01*
X130129080Y-83748348D02*
X130201400Y-83740200D01*
X130060387Y-83772385D02*
X130129080Y-83748348D01*
X129998765Y-83811104D02*
X130060387Y-83772385D01*
X129947304Y-83862565D02*
X129998765Y-83811104D01*
X129908585Y-83924187D02*
X129947304Y-83862565D01*
X129884548Y-83992880D02*
X129908585Y-83924187D01*
X129297304Y-86146793D02*
X129348765Y-86198254D01*
X129104034Y-83811104D02*
X129155495Y-83862565D01*
X129876400Y-85944159D02*
X129876400Y-84065200D01*
X129042412Y-83772385D02*
X129104034Y-83811104D01*
X131809200Y-83740200D02*
X132574800Y-84505800D01*
X126640800Y-83621100D02*
X127029700Y-83232200D01*
X129876400Y-84065200D02*
X129884548Y-83992880D01*
X129155495Y-83862565D02*
X129194214Y-83924187D01*
X129692412Y-86236973D02*
X129754034Y-86198254D01*
X129218251Y-83992880D02*
X129226400Y-84065200D01*
X129623719Y-86261010D02*
X129692412Y-86236973D01*
X129844214Y-86085171D02*
X129868251Y-86016478D01*
X128603800Y-83740200D02*
X128901400Y-83740200D01*
X129194214Y-83924187D02*
X129218251Y-83992880D01*
X126640800Y-84328609D02*
X126640800Y-83621100D01*
X129805495Y-86146793D02*
X129844214Y-86085171D01*
X126932291Y-84620100D02*
X126640800Y-84328609D01*
X127029700Y-83232200D02*
X128095800Y-83232200D01*
X127786400Y-84620100D02*
X126932291Y-84620100D01*
X129226400Y-84065200D02*
X129226400Y-85944159D01*
X129226400Y-85944159D02*
X129234548Y-86016478D01*
X128973719Y-83748348D02*
X129042412Y-83772385D01*
X129234548Y-86016478D02*
X129258585Y-86085171D01*
X128095800Y-83232200D02*
X128603800Y-83740200D01*
X129258585Y-86085171D02*
X129297304Y-86146793D01*
X128901400Y-83740200D02*
X128973719Y-83748348D01*
X129348765Y-86198254D02*
X129410387Y-86236973D01*
X129410387Y-86236973D02*
X129479080Y-86261010D01*
X129479080Y-86261010D02*
X129551400Y-86269159D01*
X129551400Y-86269159D02*
X129623719Y-86261010D01*
X129868251Y-86016478D02*
X129876400Y-85944159D01*
X129754034Y-86198254D02*
X129805495Y-86146793D01*
D52*
X132144000Y-95072200D02*
X130543800Y-96672400D01*
X132193800Y-95072200D02*
X132144000Y-95072200D01*
D56*
X137400600Y-90964358D02*
X136785050Y-91579908D01*
X137400600Y-90303900D02*
X137400600Y-90964358D01*
X133146800Y-95097600D02*
X132219200Y-95097600D01*
X132219200Y-95097600D02*
X132193800Y-95072200D01*
D52*
X135567100Y-89603900D02*
X136200600Y-89603900D01*
X134150100Y-91020900D02*
X135567100Y-89603900D01*
X134150100Y-91973900D02*
X134150100Y-91020900D01*
X125171200Y-98145600D02*
X130543800Y-98145600D01*
X109042200Y-96418400D02*
X123444000Y-96418400D01*
X108736400Y-96724200D02*
X109042200Y-96418400D01*
X123444000Y-96418400D02*
X125171200Y-98145600D01*
X108736400Y-97741100D02*
X108736400Y-96724200D01*
X108736400Y-83691100D02*
X108736400Y-84885800D01*
X108736400Y-84885800D02*
X108940600Y-85090000D01*
X108940600Y-85090000D02*
X123215400Y-85090000D01*
X123215400Y-85090000D02*
X123850400Y-85725000D01*
X123850400Y-85725000D02*
X123850400Y-93802200D01*
X125120400Y-95072200D02*
X130543800Y-95072200D01*
X123850400Y-93802200D02*
X125120400Y-95072200D01*
D56*
X138879402Y-85496200D02*
X138879402Y-85437802D01*
X138400600Y-85975002D02*
X138879402Y-85496200D01*
X138400600Y-86403900D02*
X138400600Y-85975002D01*
X165873430Y-93677613D02*
X167434387Y-93677613D01*
X167434387Y-93677613D02*
X167833040Y-93278960D01*
D55*
X115468400Y-75121000D02*
X115468400Y-71297900D01*
D56*
X181101960Y-106320014D02*
X181101960Y-102833337D01*
X187452011Y-113918256D02*
X187452011Y-108585744D01*
X185139856Y-116230411D02*
X187452011Y-113918256D01*
X181101960Y-102833337D02*
X181400577Y-102534720D01*
X171958000Y-119126000D02*
X174183040Y-119126000D01*
X185851056Y-106984789D02*
X181766735Y-106984789D01*
X181766735Y-106984789D02*
X181101960Y-106320014D01*
X181400577Y-102534720D02*
X181400577Y-101702870D01*
X177078629Y-116230411D02*
X185139856Y-116230411D01*
X174183040Y-119126000D02*
X177078629Y-116230411D01*
X187452011Y-108585744D02*
X185851056Y-106984789D01*
X180400325Y-106049445D02*
X180400325Y-101702870D01*
X181640480Y-107289600D02*
X180400325Y-106049445D01*
X185013600Y-115925600D02*
X187147200Y-113792000D01*
X176952374Y-115925600D02*
X185013600Y-115925600D01*
X171709080Y-116834920D02*
X176043054Y-116834920D01*
X169418000Y-119126000D02*
X171709080Y-116834920D01*
X176043054Y-116834920D02*
X176952374Y-115925600D01*
X187147200Y-113792000D02*
X187147200Y-108712000D01*
X187147200Y-108712000D02*
X185724800Y-107289600D01*
X185724800Y-107289600D02*
X181640480Y-107289600D01*
X178399821Y-112360465D02*
X178399821Y-101702870D01*
X175373120Y-115387166D02*
X178399821Y-112360465D01*
X170616834Y-115387166D02*
X175373120Y-115387166D01*
X166878000Y-119126000D02*
X170616834Y-115387166D01*
X177899695Y-112429527D02*
X177899695Y-101702870D01*
X175246865Y-115082357D02*
X177899695Y-112429527D01*
X168381643Y-115082357D02*
X175246865Y-115082357D01*
X164338000Y-119126000D02*
X168381643Y-115082357D01*
X177399569Y-112498587D02*
X177399569Y-101702870D01*
X175120608Y-114777548D02*
X177399569Y-112498587D01*
X166146452Y-114777548D02*
X175120608Y-114777548D01*
X161798000Y-119126000D02*
X166146452Y-114777548D01*
X176899443Y-103061643D02*
X176899443Y-101702870D01*
X176921200Y-112545892D02*
X176921200Y-103083400D01*
X174994353Y-114472739D02*
X176921200Y-112545892D01*
X163911260Y-114472740D02*
X174994353Y-114472739D01*
X176921200Y-103083400D02*
X176899443Y-103061643D01*
X159258000Y-119126000D02*
X163911260Y-114472740D01*
X176616390Y-103353428D02*
X176399317Y-103136355D01*
X176616390Y-112419636D02*
X176616390Y-103353428D01*
X174868096Y-114167930D02*
X176616390Y-112419636D01*
X161676070Y-114167930D02*
X174868096Y-114167930D01*
X176399317Y-103136355D02*
X176399317Y-101702870D01*
X156718000Y-119126000D02*
X161676070Y-114167930D01*
X174898939Y-101702870D02*
X174898939Y-107197779D01*
X174898939Y-107197779D02*
X175818800Y-108117640D01*
X175818800Y-108117640D02*
X175818800Y-112786160D01*
X175818800Y-112786160D02*
X174741840Y-113863120D01*
X159440880Y-113863120D02*
X154178000Y-119126000D01*
X174741840Y-113863120D02*
X159440880Y-113863120D01*
X145186400Y-87071200D02*
X145288000Y-87172800D01*
X141834398Y-87071200D02*
X145186400Y-87071200D01*
X140801698Y-88103900D02*
X141834398Y-87071200D01*
X145288000Y-87172800D02*
X145288000Y-87668600D01*
X140100600Y-88103900D02*
X140801698Y-88103900D01*
X161734500Y-97790000D02*
X160528000Y-98996500D01*
X160528000Y-98996500D02*
X160528000Y-102171500D01*
X164502218Y-97790000D02*
X161734500Y-97790000D01*
X164613597Y-97678621D02*
X164502218Y-97790000D01*
X165873430Y-97678621D02*
X164613597Y-97678621D01*
X165873430Y-97178495D02*
X164682657Y-97178495D01*
X164682657Y-97178495D02*
X164375962Y-97485189D01*
X164375962Y-97485189D02*
X161608244Y-97485189D01*
X161608244Y-97485189D02*
X159877967Y-99215466D01*
X159877967Y-99215466D02*
X159877967Y-102115835D01*
X168148000Y-69357240D02*
X163535360Y-69357240D01*
X172898435Y-80150970D02*
X172898435Y-74107675D01*
X172898435Y-74107675D02*
X168148000Y-69357240D01*
X163535360Y-69357240D02*
X163103560Y-69789040D01*
X162250120Y-73152000D02*
X163103560Y-72298560D01*
X120904000Y-73152000D02*
X162250120Y-73152000D01*
X163103560Y-69789040D02*
X163103560Y-72298560D01*
X108066840Y-71668640D02*
X106993560Y-71668640D01*
X106993560Y-71668640D02*
X106985400Y-71676800D01*
X106985400Y-73876800D02*
X107946560Y-73876800D01*
X107946560Y-73876800D02*
X107970320Y-73853040D01*
X121153999Y-73600501D02*
X120904000Y-73850500D01*
X121297690Y-73456810D02*
X121153999Y-73600501D01*
X158038419Y-84175219D02*
X147320010Y-73456810D01*
X165873430Y-84175219D02*
X158038419Y-84175219D01*
X147320010Y-73456810D02*
X121297690Y-73456810D01*
X107950000Y-76098400D02*
X107007000Y-76098400D01*
X107007000Y-76098400D02*
X106985400Y-76076800D01*
X121666000Y-73935410D02*
X147367544Y-73935410D01*
X147367544Y-73935410D02*
X159107731Y-85675597D01*
X159107731Y-85675597D02*
X165873430Y-85675597D01*
D52*
X114317976Y-114896200D02*
X114774476Y-114439700D01*
X113884400Y-114896200D02*
X114317976Y-114896200D01*
X114774476Y-114439700D02*
X115138200Y-114439700D01*
X115747800Y-113830100D02*
X115747800Y-113194600D01*
X115138200Y-114439700D02*
X115747800Y-113830100D01*
X111224852Y-116420900D02*
X110978900Y-116420900D01*
X111499552Y-116146200D02*
X111224852Y-116420900D01*
X112184400Y-116146200D02*
X111499552Y-116146200D01*
X117246400Y-114160300D02*
X117221000Y-114185700D01*
X117246400Y-113194600D02*
X117246400Y-114160300D01*
D54*
X151651300Y-116649000D02*
X151638000Y-116662300D01*
X153314400Y-116649000D02*
X151651300Y-116649000D01*
D56*
X164578570Y-104232968D02*
X164940778Y-103870760D01*
X170897931Y-103005509D02*
X170897931Y-101702870D01*
X164578570Y-104305830D02*
X164578570Y-104232968D01*
X170032680Y-103870760D02*
X170897931Y-103005509D01*
X164940778Y-103870760D02*
X170032680Y-103870760D01*
X163570920Y-105313480D02*
X164578570Y-104305830D01*
X157876240Y-105313480D02*
X163570920Y-105313480D01*
X153263600Y-109926120D02*
X157876240Y-105313480D01*
X153263600Y-114948200D02*
X153314400Y-114999000D01*
X153263600Y-109926120D02*
X153263600Y-114948200D01*
X167082089Y-96678369D02*
X167137080Y-96733360D01*
X165873430Y-96678369D02*
X167082089Y-96678369D01*
X164001331Y-96678369D02*
X163961580Y-96718120D01*
X165873430Y-96678369D02*
X164001331Y-96678369D01*
X161417000Y-111582200D02*
X161401760Y-111566960D01*
X162850600Y-111582200D02*
X161417000Y-111582200D01*
X172764790Y-111550930D02*
X172814800Y-111500920D01*
X169732960Y-111550930D02*
X172764790Y-111550930D01*
X174398813Y-106041471D02*
X174398813Y-102534720D01*
X172814800Y-111500920D02*
X173852840Y-111500920D01*
X173852840Y-111500920D02*
X173984920Y-111368840D01*
X174398813Y-102534720D02*
X174398813Y-101702870D01*
X171749720Y-109590840D02*
X171749720Y-108690564D01*
X173984920Y-111368840D02*
X173984920Y-109753400D01*
X171749720Y-108690564D02*
X174398813Y-106041471D01*
X173984920Y-109753400D02*
X173822360Y-109590840D01*
X173822360Y-109590840D02*
X171749720Y-109590840D01*
X171714160Y-110230920D02*
X172814800Y-110230920D01*
X161493200Y-110312200D02*
X161472880Y-110291880D01*
X162850600Y-110312200D02*
X161493200Y-110312200D01*
X171592240Y-110352840D02*
X171714160Y-110230920D01*
X169905680Y-110352840D02*
X171592240Y-110352840D01*
X173898687Y-106110530D02*
X171267120Y-108742097D01*
X171267120Y-109783880D02*
X171714160Y-110230920D01*
X171267120Y-108742097D02*
X171267120Y-109783880D01*
X173898687Y-101702870D02*
X173898687Y-106110530D01*
X165614800Y-111500920D02*
X167833774Y-111500920D01*
X159303720Y-111582200D02*
X159329120Y-111607600D01*
X157900600Y-111582200D02*
X159303720Y-111582200D01*
X167833774Y-111500920D02*
X168290607Y-111044087D01*
X173398561Y-102534720D02*
X173398561Y-101702870D01*
X173398561Y-105936133D02*
X173398561Y-102534720D01*
X168290607Y-111044087D02*
X173398561Y-105936133D01*
X159268160Y-110312200D02*
X159349440Y-110393480D01*
X157900600Y-110312200D02*
X159268160Y-110312200D01*
X167761920Y-110230920D02*
X168498520Y-109494320D01*
X165614800Y-110230920D02*
X167761920Y-110230920D01*
X172898435Y-102534720D02*
X172898435Y-101702870D01*
X168498520Y-109494320D02*
X169389261Y-109494320D01*
X169389261Y-109494320D02*
X172898435Y-105985146D01*
X172898435Y-105985146D02*
X172898435Y-102534720D01*
X164807974Y-112029530D02*
X164586190Y-111807746D01*
X172073410Y-112029530D02*
X164807974Y-112029530D01*
X172814800Y-112770920D02*
X172073410Y-112029530D01*
X162850600Y-112852200D02*
X164261800Y-112852200D01*
X164261800Y-112852200D02*
X164368480Y-112745520D01*
X164368480Y-112025456D02*
X164586190Y-111807746D01*
X164368480Y-112745520D02*
X164368480Y-112025456D01*
X172398309Y-102534720D02*
X172398309Y-101702870D01*
X167566012Y-109616240D02*
X168646970Y-108535282D01*
X169917232Y-108535282D02*
X172398309Y-106054205D01*
X164586190Y-111807746D02*
X164586190Y-109924094D01*
X164586190Y-109924094D02*
X164894044Y-109616240D01*
X168646970Y-108535282D02*
X169917232Y-108535282D01*
X164894044Y-109616240D02*
X167566012Y-109616240D01*
X172398309Y-106054205D02*
X172398309Y-102534720D01*
X166619883Y-84675345D02*
X167627447Y-83667781D01*
X165873430Y-84675345D02*
X166619883Y-84675345D01*
X167627447Y-83667781D02*
X167627447Y-82645714D01*
X165873430Y-82674841D02*
X166956359Y-82674841D01*
X169311320Y-83797633D02*
X169311320Y-82534762D01*
X165873430Y-86175723D02*
X166933230Y-86175723D01*
X166933230Y-86175723D02*
X169311320Y-83797633D01*
X168447720Y-83433031D02*
X168447720Y-82621120D01*
X165873430Y-85175471D02*
X166705280Y-85175471D01*
X166705280Y-85175471D02*
X168447720Y-83433031D01*
X175899191Y-83585431D02*
X175915320Y-83601560D01*
X175899191Y-80150970D02*
X175899191Y-83585431D01*
X175399065Y-80150970D02*
X175399065Y-80951705D01*
X175399065Y-80951705D02*
X175594381Y-81147021D01*
X175594381Y-82881099D02*
X175397160Y-83078320D01*
X175594381Y-81147021D02*
X175594381Y-82881099D01*
X176899443Y-83511517D02*
X176824640Y-83586320D01*
X176899443Y-80150970D02*
X176899443Y-83511517D01*
X176399317Y-82970434D02*
X176420843Y-82991960D01*
X176399317Y-80150970D02*
X176399317Y-82970434D01*
X177899695Y-84190139D02*
X178502978Y-84793422D01*
X177899695Y-80150970D02*
X177899695Y-84190139D01*
X177399569Y-83958495D02*
X177421095Y-83980021D01*
X177399569Y-80150970D02*
X177399569Y-83958495D01*
X181900703Y-79323057D02*
X181900703Y-80150970D01*
X183682685Y-77541075D02*
X181900703Y-79323057D01*
X191249863Y-77541075D02*
X183682685Y-77541075D01*
X194929798Y-86492118D02*
X194929797Y-81221007D01*
X195844160Y-87406480D02*
X194929798Y-86492118D01*
X194929797Y-81221007D02*
X191249863Y-77541075D01*
X198597520Y-87406480D02*
X195844160Y-87406480D01*
X199898000Y-86106000D02*
X198597520Y-87406480D01*
X178399821Y-84013421D02*
X179517040Y-85130640D01*
X178399821Y-80150970D02*
X178399821Y-84013421D01*
X199898000Y-88646000D02*
X198587360Y-89956640D01*
X198587360Y-89956640D02*
X195370252Y-89956640D01*
X195370252Y-89956640D02*
X194320180Y-88906568D01*
X190997351Y-78150693D02*
X184017947Y-78150693D01*
X194320179Y-81473519D02*
X190997351Y-78150693D01*
X194320180Y-88906568D02*
X194320179Y-81473519D01*
X182900955Y-79267685D02*
X182900955Y-80150970D01*
X184017947Y-78150693D02*
X182900955Y-79267685D01*
X182400829Y-79319120D02*
X183874066Y-77845883D01*
X182400829Y-80150970D02*
X182400829Y-79319120D01*
X191123608Y-77845884D02*
X194624988Y-81347264D01*
X183874066Y-77845883D02*
X191123608Y-77845884D01*
X194624988Y-81347264D02*
X194624988Y-87650348D01*
X195620640Y-88646000D02*
X197358000Y-88646000D01*
X194624988Y-87650348D02*
X195620640Y-88646000D01*
X196265800Y-92389960D02*
X198694040Y-92389960D01*
X195778130Y-91902290D02*
X196265800Y-92389960D01*
X195778130Y-91226650D02*
X195778130Y-91902290D01*
X184901459Y-80150970D02*
X184901459Y-79319120D01*
X184901459Y-79319120D02*
X185460269Y-78760310D01*
X193710560Y-81726032D02*
X193710560Y-89159080D01*
X190744839Y-78760311D02*
X193710560Y-81726032D01*
X193710560Y-89159080D02*
X195778130Y-91226650D01*
X185460269Y-78760310D02*
X190744839Y-78760311D01*
X198694040Y-92389960D02*
X199898000Y-91186000D01*
X183401081Y-79319120D02*
X184264700Y-78455501D01*
X183401081Y-80150970D02*
X183401081Y-79319120D01*
X190871096Y-78455502D02*
X194015370Y-81599776D01*
X184264700Y-78455501D02*
X190871096Y-78455502D01*
X194015370Y-81599776D02*
X194015370Y-89032824D01*
X194015370Y-89032824D02*
X196102506Y-91119960D01*
X197291960Y-91119960D02*
X197358000Y-91186000D01*
X196102506Y-91119960D02*
X197291960Y-91119960D01*
X193034898Y-86714518D02*
X193034898Y-89345551D01*
X195117730Y-94071450D02*
X196027040Y-94980760D01*
X187425330Y-85175471D02*
X191495851Y-85175471D01*
X198643240Y-94980760D02*
X199898000Y-93726000D01*
X191495851Y-85175471D02*
X193034898Y-86714518D01*
X193034898Y-89345551D02*
X195117730Y-91428383D01*
X196027040Y-94980760D02*
X198643240Y-94980760D01*
X195117730Y-91428383D02*
X195117730Y-94071450D01*
X197358000Y-93726000D02*
X195955920Y-93726000D01*
X190618583Y-79065121D02*
X186487434Y-79065121D01*
X186487434Y-79065121D02*
X185401585Y-80150970D01*
X193339709Y-81786247D02*
X190618583Y-79065121D01*
X195473320Y-93243400D02*
X195473319Y-91352906D01*
X193339709Y-89219296D02*
X193339709Y-81786247D01*
X195473319Y-91352906D02*
X193339709Y-89219296D01*
X195955920Y-93726000D02*
X195473320Y-93243400D01*
X191922358Y-86464110D02*
X192425276Y-86967028D01*
X187425330Y-86675849D02*
X188787949Y-86675849D01*
X192425276Y-89598063D02*
X194477686Y-91650473D01*
X198628000Y-97536000D02*
X199898000Y-96266000D01*
X188787949Y-86675849D02*
X188999688Y-86464110D01*
X195488560Y-97536000D02*
X198628000Y-97536000D01*
X194477686Y-96525126D02*
X195488560Y-97536000D01*
X194477686Y-91650473D02*
X194477686Y-96525126D01*
X192425276Y-86967028D02*
X192425276Y-89598063D01*
X188999688Y-86464110D02*
X191922358Y-86464110D01*
X195757800Y-96266000D02*
X194812920Y-95321120D01*
X197358000Y-96266000D02*
X195757800Y-96266000D01*
X192730087Y-89471807D02*
X192730087Y-86840773D01*
X194812919Y-91554639D02*
X192730087Y-89471807D01*
X191564911Y-85675597D02*
X187425330Y-85675597D01*
X194812920Y-95321120D02*
X194812919Y-91554639D01*
X192730087Y-86840773D02*
X191564911Y-85675597D01*
X191025723Y-89176479D02*
X193868068Y-92018824D01*
X187425330Y-89176479D02*
X191025723Y-89176479D01*
X193868068Y-92018824D02*
X193868068Y-99110828D01*
X193868068Y-99110828D02*
X194736720Y-99979480D01*
X198724520Y-99979480D02*
X199898000Y-98806000D01*
X194736720Y-99979480D02*
X198724520Y-99979480D01*
X197358000Y-98806000D02*
X194980598Y-98806000D01*
X194980598Y-98806000D02*
X194172878Y-97998280D01*
X190456537Y-88176227D02*
X187425330Y-88176227D01*
X194172877Y-91892567D02*
X190456537Y-88176227D01*
X194172878Y-97998280D02*
X194172877Y-91892567D01*
X191163845Y-90176731D02*
X193258450Y-92271336D01*
X187425330Y-90176731D02*
X191163845Y-90176731D01*
X193258450Y-92271336D02*
X193258450Y-101432370D01*
X193258450Y-101432370D02*
X194426840Y-102600760D01*
X198643240Y-102600760D02*
X199898000Y-101346000D01*
X194426840Y-102600760D02*
X198643240Y-102600760D01*
X197358000Y-101346000D02*
X194624960Y-101346000D01*
X194624960Y-101346000D02*
X193563260Y-100284300D01*
X191094785Y-89676605D02*
X187425330Y-89676605D01*
X193563259Y-92145079D02*
X191094785Y-89676605D01*
X193563260Y-100284300D02*
X193563259Y-92145079D01*
X188792005Y-94177739D02*
X192608200Y-97993934D01*
X187425330Y-94177739D02*
X188792005Y-94177739D01*
X192608200Y-97993934D02*
X192608200Y-104058720D01*
X192608200Y-104058720D02*
X193715640Y-105166160D01*
X198617840Y-105166160D02*
X199898000Y-103886000D01*
X193715640Y-105166160D02*
X198617840Y-105166160D01*
X197358000Y-103886000D02*
X193812160Y-103886000D01*
X193812160Y-103886000D02*
X192953640Y-103027480D01*
X191232905Y-90676857D02*
X187425330Y-90676857D01*
X192953640Y-92397592D02*
X191232905Y-90676857D01*
X192953640Y-103027480D02*
X192953640Y-92397592D01*
X198658480Y-107665520D02*
X199898000Y-106426000D01*
X191785240Y-104998520D02*
X194452240Y-107665520D01*
X191785240Y-98033106D02*
X191785240Y-104998520D01*
X188930125Y-95177991D02*
X191785240Y-98033106D01*
X194452240Y-107665520D02*
X198658480Y-107665520D01*
X187425330Y-95177991D02*
X188930125Y-95177991D01*
X197358000Y-106426000D02*
X193893440Y-106426000D01*
X193893440Y-106426000D02*
X192298320Y-104830880D01*
X192298320Y-104830880D02*
X192298320Y-98115120D01*
X188861065Y-94677865D02*
X187425330Y-94677865D01*
X192298320Y-98115120D02*
X188861065Y-94677865D01*
X169897679Y-103242999D02*
X169926000Y-103271320D01*
X169897679Y-101702870D02*
X169897679Y-103242999D01*
X169397553Y-102880287D02*
X169026840Y-103251000D01*
X169397553Y-101702870D02*
X169397553Y-102880287D01*
X168897427Y-101702870D02*
X168897427Y-102566523D01*
X168897427Y-102566523D02*
X168188640Y-103275310D01*
X167897175Y-102567105D02*
X167137080Y-103327200D01*
X167897175Y-101702870D02*
X167897175Y-102567105D01*
X188939595Y-97178495D02*
X187425330Y-97178495D01*
X191185790Y-119375228D02*
X191185790Y-99424690D01*
X190190408Y-120370610D02*
X191185790Y-119375228D01*
X185902610Y-120370610D02*
X190190408Y-120370610D01*
X191185790Y-99424690D02*
X188939595Y-97178495D01*
X184658000Y-119126000D02*
X185902610Y-120370610D01*
X187817751Y-102306111D02*
X187425330Y-101913690D01*
X189424826Y-102306112D02*
X187817751Y-102306111D01*
X187425330Y-101913690D02*
X187425330Y-99679125D01*
X190257399Y-103138685D02*
X189424826Y-102306112D01*
X190257399Y-113729801D02*
X190257399Y-103138685D01*
X183794400Y-117449600D02*
X182118000Y-119126000D01*
X186537600Y-117449600D02*
X183794400Y-117449600D01*
X186537600Y-117449600D02*
X190257399Y-113729801D01*
X184401333Y-102534720D02*
X184401333Y-101702870D01*
X184477534Y-102610921D02*
X184401333Y-102534720D01*
X189952589Y-103264941D02*
X189298569Y-102610921D01*
X189298569Y-102610921D02*
X184477534Y-102610921D01*
X189952589Y-113577411D02*
X189952589Y-103264941D01*
X181660800Y-117043200D02*
X179578000Y-119126000D01*
X186486800Y-117043200D02*
X181660800Y-117043200D01*
X186486800Y-117043200D02*
X189952589Y-113577411D01*
X179628778Y-116535222D02*
X185266112Y-116535222D01*
X187756822Y-114044512D02*
X187756822Y-108459488D01*
X177038000Y-119126000D02*
X179628778Y-116535222D01*
X185266112Y-116535222D02*
X187756822Y-114044512D01*
X181406771Y-102990128D02*
X181900703Y-102496196D01*
X185977312Y-106679978D02*
X181892990Y-106679978D01*
X181406771Y-106193759D02*
X181406771Y-102990128D01*
X181900703Y-102496196D02*
X181900703Y-101702870D01*
X187756822Y-108459488D02*
X185977312Y-106679978D01*
X181892990Y-106679978D02*
X181406771Y-106193759D01*
X176197984Y-88332501D02*
X175558224Y-88972261D01*
X187425330Y-86175723D02*
X186533917Y-86175723D01*
X186533917Y-86175723D02*
X184377139Y-88332501D01*
X184377139Y-88332501D02*
X176197984Y-88332501D01*
X176562464Y-88676353D02*
X175424417Y-89814400D01*
X187425330Y-88676353D02*
X176562464Y-88676353D01*
X175424417Y-89814400D02*
X174577873Y-89814400D01*
X187425330Y-91176983D02*
X178583463Y-91176983D01*
X177948545Y-90542065D02*
X175536164Y-90542065D01*
X178583463Y-91176983D02*
X177948545Y-90542065D01*
X187425330Y-91677109D02*
X178585749Y-91677109D01*
X177929305Y-91020665D02*
X175003695Y-91020665D01*
X178585749Y-91677109D02*
X177929305Y-91020665D01*
X187425330Y-93177487D02*
X179557073Y-93177487D01*
X177915026Y-91535440D02*
X175478440Y-91535440D01*
X179557073Y-93177487D02*
X177915026Y-91535440D01*
X187425330Y-93677613D02*
X179626133Y-93677613D01*
X177962560Y-92014040D02*
X174889160Y-92014040D01*
X179626133Y-93677613D02*
X177962560Y-92014040D01*
X165873430Y-83174967D02*
X165041580Y-83174967D01*
X165041580Y-83174967D02*
X164642811Y-82776198D01*
X164642811Y-82776198D02*
X164642811Y-74269589D01*
X164642811Y-74269589D02*
X166878000Y-72034400D01*
X166878000Y-72034400D02*
X166878000Y-70866000D01*
X164338000Y-82905600D02*
X164338000Y-72964040D01*
X164338000Y-72964040D02*
X164338000Y-70866000D01*
X165107493Y-83675093D02*
X164338000Y-82905600D01*
X165873430Y-83675093D02*
X165107493Y-83675093D01*
X183901207Y-80150970D02*
X183901207Y-84704527D01*
X183901207Y-84704527D02*
X182225425Y-86380309D01*
X182225425Y-86380309D02*
X177437109Y-86380309D01*
X175376982Y-84857922D02*
X175126983Y-85107921D01*
X177437109Y-86380309D02*
X175914722Y-84857922D01*
X175914722Y-84857922D02*
X175376982Y-84857922D01*
X184401333Y-84635467D02*
X182351680Y-86685120D01*
X176186211Y-85560478D02*
X175596913Y-85560478D01*
X177310853Y-86685120D02*
X176186211Y-85560478D01*
X182351680Y-86685120D02*
X177310853Y-86685120D01*
X184401333Y-80150970D02*
X184401333Y-84635467D01*
X176402266Y-86207600D02*
X175514000Y-86207600D01*
X186583193Y-83174967D02*
X182768229Y-86989931D01*
X182768229Y-86989931D02*
X177184597Y-86989931D01*
X177184597Y-86989931D02*
X176402266Y-86207600D01*
X187425330Y-83174967D02*
X186583193Y-83174967D01*
X176657000Y-86918800D02*
X175412400Y-86918800D01*
X182973831Y-87294742D02*
X177032942Y-87294742D01*
X186593480Y-83675093D02*
X182973831Y-87294742D01*
X177032942Y-87294742D02*
X176657000Y-86918800D01*
X187425330Y-83675093D02*
X186593480Y-83675093D01*
X187425330Y-84175219D02*
X186593480Y-84175219D01*
X183087895Y-87680804D02*
X175310800Y-87680804D01*
X186593480Y-84175219D02*
X183087895Y-87680804D01*
X175680936Y-88015001D02*
X175364977Y-88330960D01*
X187425330Y-84675345D02*
X186593480Y-84675345D01*
X186593480Y-84675345D02*
X183253824Y-88015001D01*
X183253824Y-88015001D02*
X175680936Y-88015001D01*
X181400577Y-80150970D02*
X181400577Y-79392117D01*
X189738000Y-71054694D02*
X189738000Y-70866000D01*
X181400577Y-79392117D02*
X189738000Y-71054694D01*
X180900451Y-80150970D02*
X180900451Y-79461177D01*
X187198000Y-73163628D02*
X187198000Y-70866000D01*
X180900451Y-79461177D02*
X187198000Y-73163628D01*
X179222370Y-75298342D02*
X179671992Y-74848720D01*
X179222370Y-78297212D02*
X179222370Y-75298342D01*
X179400073Y-78474915D02*
X179222370Y-78297212D01*
X179400073Y-80150970D02*
X179400073Y-78474915D01*
X179671992Y-74848720D02*
X182483760Y-74848720D01*
X184658000Y-72674480D02*
X184658000Y-70866000D01*
X182483760Y-74848720D02*
X184658000Y-72674480D01*
X178899947Y-75189699D02*
X179545736Y-74543910D01*
X178899947Y-80150970D02*
X178899947Y-75189699D01*
X179545736Y-74543910D02*
X180609250Y-74543910D01*
X182118000Y-73035160D02*
X182118000Y-70866000D01*
X180609250Y-74543910D02*
X182118000Y-73035160D01*
X173398561Y-80150970D02*
X173398561Y-75204685D01*
X173398561Y-75204685D02*
X175788320Y-72814926D01*
X175788320Y-72814926D02*
X175788320Y-69951600D01*
X175788320Y-69951600D02*
X176372520Y-69367400D01*
X176372520Y-69367400D02*
X179303680Y-69367400D01*
X179578000Y-69641720D02*
X179578000Y-70866000D01*
X179303680Y-69367400D02*
X179578000Y-69641720D01*
X173898687Y-78510729D02*
X173898687Y-80150970D01*
X173710570Y-78322612D02*
X173898687Y-78510729D01*
X173710570Y-75323742D02*
X173710570Y-78322612D01*
X177038000Y-71996312D02*
X173710570Y-75323742D01*
X177038000Y-70866000D02*
X177038000Y-71996312D01*
X165873430Y-88676353D02*
X166705280Y-88676353D01*
X166705280Y-88676353D02*
X170703240Y-84678393D01*
X170703240Y-84678393D02*
X170703240Y-84165440D01*
X169829480Y-84973160D02*
X169829480Y-84333078D01*
X167626665Y-87175975D02*
X169829480Y-84973160D01*
X165873430Y-87175975D02*
X167626665Y-87175975D01*
X160020000Y-105664000D02*
X157900600Y-107783400D01*
X157900600Y-107783400D02*
X157900600Y-109042200D01*
X164211000Y-105664000D02*
X160020000Y-105664000D01*
X169027983Y-96338517D02*
X168465500Y-96901000D01*
X169027983Y-91639517D02*
X169027983Y-96338517D01*
X168565449Y-91176983D02*
X169027983Y-91639517D01*
X165873430Y-91176983D02*
X168565449Y-91176983D01*
X168397301Y-100871020D02*
X168397301Y-101702870D01*
X168262681Y-100736400D02*
X168397301Y-100871020D01*
X167255507Y-101124965D02*
X167255507Y-101113907D01*
X167633014Y-100736400D02*
X168262681Y-100736400D01*
X163371802Y-105008670D02*
X167255507Y-101124965D01*
X134802890Y-104830890D02*
X134980670Y-105008670D01*
X134980670Y-105008670D02*
X163371802Y-105008670D01*
X132736428Y-104830890D02*
X134802890Y-104830890D01*
X167255507Y-101113907D02*
X167633014Y-100736400D01*
X132624599Y-104942719D02*
X132736428Y-104830890D01*
X132624599Y-110831399D02*
X132624599Y-104942719D01*
X132801400Y-111008200D02*
X132624599Y-110831399D01*
X133383200Y-111008200D02*
X132801400Y-111008200D01*
X189738000Y-116535200D02*
X189738000Y-119126000D01*
X190867019Y-115406181D02*
X189738000Y-116535200D01*
X190867019Y-99536984D02*
X190867019Y-115406181D01*
X189008656Y-97678621D02*
X190867019Y-99536984D01*
X187425330Y-97678621D02*
X189008656Y-97678621D01*
X190562208Y-114542592D02*
X190562208Y-99663240D01*
X187198000Y-117906800D02*
X190562208Y-114542592D01*
X187198000Y-119126000D02*
X187198000Y-117906800D01*
X189077715Y-98178747D02*
X187425330Y-98178747D01*
X190562208Y-99663240D02*
X189077715Y-98178747D01*
X171898183Y-80150970D02*
X171898183Y-76437363D01*
X171898183Y-76437363D02*
X168569638Y-73108818D01*
X168569638Y-73108818D02*
X168569638Y-72311260D01*
X172398309Y-76442923D02*
X169070020Y-73114634D01*
X172398309Y-80150970D02*
X172398309Y-76442923D01*
X169070020Y-73114634D02*
X169070020Y-72925940D01*
X145034000Y-75946000D02*
X148947068Y-75946000D01*
X148947068Y-75946000D02*
X159676915Y-86675849D01*
X159676915Y-86675849D02*
X165041580Y-86675849D01*
X165041580Y-86675849D02*
X165873430Y-86675849D01*
X143916312Y-77368312D02*
X142494000Y-75946000D01*
X149587348Y-77368312D02*
X143916312Y-77368312D01*
X160807487Y-88588451D02*
X149587348Y-77368312D01*
X161395515Y-89176479D02*
X160807487Y-88588451D01*
X165873430Y-89176479D02*
X161395515Y-89176479D01*
X139954000Y-75946000D02*
X141681123Y-77673123D01*
X149461093Y-77673123D02*
X161464574Y-89676605D01*
X161464574Y-89676605D02*
X165873430Y-89676605D01*
X141681123Y-77673123D02*
X149461093Y-77673123D01*
X165873430Y-90176731D02*
X161533633Y-90176731D01*
X161533633Y-90176731D02*
X149334838Y-77977934D01*
X149334838Y-77977934D02*
X139445934Y-77977934D01*
X139445934Y-77977934D02*
X137414000Y-75946000D01*
X159893055Y-92650220D02*
X159893055Y-88967219D01*
X161420574Y-94177739D02*
X159893055Y-92650220D01*
X159893055Y-88967219D02*
X149208583Y-78282745D01*
X137210745Y-78282745D02*
X134874000Y-75946000D01*
X165873430Y-94177739D02*
X161420574Y-94177739D01*
X149208583Y-78282745D02*
X137210745Y-78282745D01*
X161489633Y-94677865D02*
X165873430Y-94677865D01*
X149082328Y-78587556D02*
X159588244Y-89093474D01*
X134975556Y-78587556D02*
X149082328Y-78587556D01*
X132334000Y-75946000D02*
X134975556Y-78587556D01*
X159588244Y-92776476D02*
X161489633Y-94677865D01*
X159588244Y-89093474D02*
X159588244Y-92776476D01*
X159283433Y-92902732D02*
X159283433Y-89219729D01*
X161558692Y-95177991D02*
X159283433Y-92902732D01*
X165873430Y-95177991D02*
X161558692Y-95177991D01*
X132740367Y-78892367D02*
X129794000Y-75946000D01*
X148956073Y-78892367D02*
X132740367Y-78892367D01*
X159283433Y-89219729D02*
X148956073Y-78892367D01*
X164877847Y-96014510D02*
X165041580Y-96178243D01*
X165041580Y-96178243D02*
X165873430Y-96178243D01*
X158978622Y-89345984D02*
X158978622Y-93028988D01*
X148829818Y-79197178D02*
X158978622Y-89345984D01*
X130505178Y-79197178D02*
X148829818Y-79197178D01*
X161964144Y-96014510D02*
X164877847Y-96014510D01*
X127254000Y-75946000D02*
X130505178Y-79197178D01*
X158978622Y-93028988D02*
X161964144Y-96014510D01*
X161353500Y-102883434D02*
X160782745Y-103454189D01*
X159066755Y-103454189D02*
X158673811Y-103061245D01*
X161353500Y-99098100D02*
X161353500Y-102883434D01*
X128269989Y-79501989D02*
X124714000Y-75946000D01*
X158673811Y-89472239D02*
X148703563Y-79501989D01*
X162272853Y-98178747D02*
X161353500Y-99098100D01*
X158673811Y-103061245D02*
X158673811Y-89472239D01*
X165873430Y-98178747D02*
X162272853Y-98178747D01*
X160782745Y-103454189D02*
X159066755Y-103454189D01*
X148703563Y-79501989D02*
X128269989Y-79501989D01*
X122174000Y-75946000D02*
X126034800Y-79806800D01*
X148577308Y-79806800D02*
X158369000Y-89598494D01*
X160909001Y-103759000D02*
X161721070Y-102946930D01*
X158369000Y-89598494D02*
X158369000Y-103187501D01*
X158940499Y-103759000D02*
X160909001Y-103759000D01*
X158369000Y-103187501D02*
X158940499Y-103759000D01*
X161721070Y-99213928D02*
X162256125Y-98678873D01*
X162256125Y-98678873D02*
X165873430Y-98678873D01*
X126034800Y-79806800D02*
X148577308Y-79806800D01*
X161721070Y-102946930D02*
X161721070Y-99213928D01*
X140100600Y-89103900D02*
X140895298Y-89103900D01*
X142469398Y-90678000D02*
X146799800Y-90678000D01*
X140895298Y-89103900D02*
X142469398Y-90678000D01*
D51*
X146799800Y-90678000D02*
X146799800Y-89154000D01*
D56*
X140100600Y-89603900D02*
X140964232Y-89603900D01*
X140964232Y-89603900D02*
X142343142Y-90982810D01*
X142343142Y-90982810D02*
X144881610Y-90982810D01*
X146100800Y-92202000D02*
X146799800Y-92202000D01*
X144881610Y-90982810D02*
X146100800Y-92202000D01*
D51*
X146799800Y-93726000D02*
X146799800Y-92202000D01*
D56*
X140100600Y-87603900D02*
X140870632Y-87603900D01*
X140870632Y-87603900D02*
X141708142Y-86766390D01*
X141708142Y-86766390D02*
X144881610Y-86766390D01*
X145542000Y-86106000D02*
X146799800Y-86106000D01*
X144881610Y-86766390D02*
X145542000Y-86106000D01*
D51*
X146799800Y-87630000D02*
X146799800Y-86106000D01*
D56*
X138900600Y-86403900D02*
X138900600Y-86093463D01*
X138900600Y-86093463D02*
X139573863Y-85420200D01*
X139573863Y-85420200D02*
X143535400Y-85420200D01*
X145897600Y-83058000D02*
X146799800Y-83058000D01*
X143535400Y-85420200D02*
X145897600Y-83058000D01*
D57*
X116568300Y-108131800D02*
X118334600Y-108131800D01*
X118334600Y-108131800D02*
X119684800Y-106781600D01*
X119684800Y-106781600D02*
X119684800Y-103174800D01*
X119684800Y-103174800D02*
X121513600Y-101346000D01*
X121513600Y-101346000D02*
X128168400Y-101346000D01*
X128168400Y-101346000D02*
X129184400Y-100330000D01*
X129184400Y-100330000D02*
X134721600Y-100330000D01*
X134721600Y-100330000D02*
X137972800Y-103581200D01*
X137972800Y-103581200D02*
X142240000Y-103581200D01*
X143611600Y-102209600D02*
X143611600Y-101625400D01*
X142240000Y-103581200D02*
X143611600Y-102209600D01*
X141071600Y-101625400D02*
X141071600Y-102412800D01*
X141071600Y-102412800D02*
X140462000Y-103022400D01*
X140462000Y-103022400D02*
X138226800Y-103022400D01*
X138226800Y-103022400D02*
X134975600Y-99771200D01*
X134975600Y-99771200D02*
X128930400Y-99771200D01*
X128930400Y-99771200D02*
X127812800Y-100888800D01*
X127812800Y-100888800D02*
X121259600Y-100888800D01*
X121259600Y-100888800D02*
X119227600Y-102920800D01*
X119227600Y-102920800D02*
X119227600Y-106578400D01*
X118324200Y-107481800D02*
X116568300Y-107481800D01*
X119227600Y-106578400D02*
X118324200Y-107481800D01*
D50*
X140650000Y-107795200D02*
X141074000Y-107795200D01*
X141917600Y-106951600D02*
X143459200Y-106951600D01*
X141074000Y-107795200D02*
X141917600Y-106951600D01*
X146573200Y-114296000D02*
X146155600Y-114296000D01*
X146155600Y-114296000D02*
X145897600Y-114554000D01*
X145897600Y-114554000D02*
X145897600Y-114960400D01*
X145712000Y-115146000D02*
X144068800Y-115146000D01*
X145897600Y-114960400D02*
X145712000Y-115146000D01*
M02*
