G04 #@! TF.GenerationSoftware,KiCad,Pcbnew,5.1.7-a382d34a8~88~ubuntu20.04.1*
G04 #@! TF.CreationDate,2021-03-24T14:30:28-03:00*
G04 #@! TF.ProjectId,h730duino,68373330-6475-4696-9e6f-2e6b69636164,rev?*
G04 #@! TF.SameCoordinates,Original*
G04 #@! TF.FileFunction,Copper,L1,Top*
G04 #@! TF.FilePolarity,Positive*
%FSLAX46Y46*%
G04 Gerber Fmt 4.6, Leading zero omitted, Abs format (unit mm)*
G04 Created by KiCad (PCBNEW 5.1.7-a382d34a8~88~ubuntu20.04.1) date 2021-03-24 14:30:28*
%MOMM*%
%LPD*%
G01*
G04 APERTURE LIST*
G04 #@! TA.AperFunction,ComponentPad*
%ADD10C,0.500000*%
G04 #@! TD*
G04 #@! TA.AperFunction,SMDPad,CuDef*
%ADD11R,2.600000X2.600000*%
G04 #@! TD*
G04 #@! TA.AperFunction,SMDPad,CuDef*
%ADD12C,0.100000*%
G04 #@! TD*
G04 #@! TA.AperFunction,ComponentPad*
%ADD13O,1.700000X1.700000*%
G04 #@! TD*
G04 #@! TA.AperFunction,ComponentPad*
%ADD14R,1.700000X1.700000*%
G04 #@! TD*
G04 #@! TA.AperFunction,SMDPad,CuDef*
%ADD15R,0.279400X1.358900*%
G04 #@! TD*
G04 #@! TA.AperFunction,SMDPad,CuDef*
%ADD16R,1.358900X0.279400*%
G04 #@! TD*
G04 #@! TA.AperFunction,SMDPad,CuDef*
%ADD17R,0.250000X0.500000*%
G04 #@! TD*
G04 #@! TA.AperFunction,SMDPad,CuDef*
%ADD18R,1.600000X0.900000*%
G04 #@! TD*
G04 #@! TA.AperFunction,ComponentPad*
%ADD19C,0.600000*%
G04 #@! TD*
G04 #@! TA.AperFunction,SMDPad,CuDef*
%ADD20R,0.800000X2.700000*%
G04 #@! TD*
G04 #@! TA.AperFunction,SMDPad,CuDef*
%ADD21R,1.060000X0.650000*%
G04 #@! TD*
G04 #@! TA.AperFunction,SMDPad,CuDef*
%ADD22R,2.400000X2.000000*%
G04 #@! TD*
G04 #@! TA.AperFunction,ConnectorPad*
%ADD23C,0.787400*%
G04 #@! TD*
G04 #@! TA.AperFunction,SMDPad,CuDef*
%ADD24R,2.400000X0.740000*%
G04 #@! TD*
G04 #@! TA.AperFunction,ComponentPad*
%ADD25O,1.400000X0.800000*%
G04 #@! TD*
G04 #@! TA.AperFunction,SMDPad,CuDef*
%ADD26R,0.700000X0.300000*%
G04 #@! TD*
G04 #@! TA.AperFunction,SMDPad,CuDef*
%ADD27R,0.900000X0.800000*%
G04 #@! TD*
G04 #@! TA.AperFunction,SMDPad,CuDef*
%ADD28R,0.550000X2.910000*%
G04 #@! TD*
G04 #@! TA.AperFunction,SMDPad,CuDef*
%ADD29R,2.390000X1.050000*%
G04 #@! TD*
G04 #@! TA.AperFunction,SMDPad,CuDef*
%ADD30R,1.200000X1.050000*%
G04 #@! TD*
G04 #@! TA.AperFunction,SMDPad,CuDef*
%ADD31R,1.080000X1.050000*%
G04 #@! TD*
G04 #@! TA.AperFunction,SMDPad,CuDef*
%ADD32R,0.780000X0.720000*%
G04 #@! TD*
G04 #@! TA.AperFunction,SMDPad,CuDef*
%ADD33R,1.000000X0.500000*%
G04 #@! TD*
G04 #@! TA.AperFunction,SMDPad,CuDef*
%ADD34R,1.900000X1.000000*%
G04 #@! TD*
G04 #@! TA.AperFunction,SMDPad,CuDef*
%ADD35R,1.900000X1.800000*%
G04 #@! TD*
G04 #@! TA.AperFunction,SMDPad,CuDef*
%ADD36R,1.300000X1.650000*%
G04 #@! TD*
G04 #@! TA.AperFunction,SMDPad,CuDef*
%ADD37R,1.550000X1.425000*%
G04 #@! TD*
G04 #@! TA.AperFunction,SMDPad,CuDef*
%ADD38R,1.380000X0.450000*%
G04 #@! TD*
G04 #@! TA.AperFunction,SMDPad,CuDef*
%ADD39R,1.800000X1.000000*%
G04 #@! TD*
G04 #@! TA.AperFunction,ComponentPad*
%ADD40C,2.100000*%
G04 #@! TD*
G04 #@! TA.AperFunction,ComponentPad*
%ADD41C,1.750000*%
G04 #@! TD*
G04 #@! TA.AperFunction,ComponentPad*
%ADD42C,1.530000*%
G04 #@! TD*
G04 #@! TA.AperFunction,ComponentPad*
%ADD43C,1.725000*%
G04 #@! TD*
G04 #@! TA.AperFunction,SMDPad,CuDef*
%ADD44R,0.800000X0.900000*%
G04 #@! TD*
G04 #@! TA.AperFunction,ComponentPad*
%ADD45O,1.727200X1.727200*%
G04 #@! TD*
G04 #@! TA.AperFunction,ComponentPad*
%ADD46C,1.727200*%
G04 #@! TD*
G04 #@! TA.AperFunction,ComponentPad*
%ADD47O,1.727200X2.032000*%
G04 #@! TD*
G04 #@! TA.AperFunction,ComponentPad*
%ADD48C,4.064000*%
G04 #@! TD*
G04 #@! TA.AperFunction,ViaPad*
%ADD49C,0.500000*%
G04 #@! TD*
G04 #@! TA.AperFunction,Conductor*
%ADD50C,0.800000*%
G04 #@! TD*
G04 #@! TA.AperFunction,Conductor*
%ADD51C,0.254000*%
G04 #@! TD*
G04 #@! TA.AperFunction,Conductor*
%ADD52C,0.500000*%
G04 #@! TD*
G04 #@! TA.AperFunction,Conductor*
%ADD53C,0.300000*%
G04 #@! TD*
G04 #@! TA.AperFunction,Conductor*
%ADD54C,0.600000*%
G04 #@! TD*
G04 #@! TA.AperFunction,Conductor*
%ADD55C,0.400000*%
G04 #@! TD*
G04 #@! TA.AperFunction,Conductor*
%ADD56C,0.406400*%
G04 #@! TD*
G04 #@! TA.AperFunction,Conductor*
%ADD57C,0.152400*%
G04 #@! TD*
G04 #@! TA.AperFunction,Conductor*
%ADD58C,0.203200*%
G04 #@! TD*
G04 #@! TA.AperFunction,Conductor*
%ADD59C,0.200000*%
G04 #@! TD*
G04 #@! TA.AperFunction,Conductor*
%ADD60C,0.127000*%
G04 #@! TD*
G04 APERTURE END LIST*
D10*
X139200600Y-89403900D03*
X138150600Y-89403900D03*
X137100600Y-89403900D03*
X139200600Y-88353900D03*
X138150600Y-88353900D03*
X137100600Y-88353900D03*
X139200600Y-87303900D03*
X138150600Y-87303900D03*
X137100600Y-87303900D03*
D11*
X138150600Y-88353900D03*
G04 #@! TA.AperFunction,SMDPad,CuDef*
G36*
G01*
X136775600Y-86766400D02*
X136775600Y-86066400D01*
G75*
G02*
X136838100Y-86003900I62500J0D01*
G01*
X136963100Y-86003900D01*
G75*
G02*
X137025600Y-86066400I0J-62500D01*
G01*
X137025600Y-86766400D01*
G75*
G02*
X136963100Y-86828900I-62500J0D01*
G01*
X136838100Y-86828900D01*
G75*
G02*
X136775600Y-86766400I0J62500D01*
G01*
G37*
G04 #@! TD.AperFunction*
G04 #@! TA.AperFunction,SMDPad,CuDef*
G36*
G01*
X137275600Y-86766400D02*
X137275600Y-86066400D01*
G75*
G02*
X137338100Y-86003900I62500J0D01*
G01*
X137463100Y-86003900D01*
G75*
G02*
X137525600Y-86066400I0J-62500D01*
G01*
X137525600Y-86766400D01*
G75*
G02*
X137463100Y-86828900I-62500J0D01*
G01*
X137338100Y-86828900D01*
G75*
G02*
X137275600Y-86766400I0J62500D01*
G01*
G37*
G04 #@! TD.AperFunction*
G04 #@! TA.AperFunction,SMDPad,CuDef*
G36*
G01*
X137775600Y-86766400D02*
X137775600Y-86066400D01*
G75*
G02*
X137838100Y-86003900I62500J0D01*
G01*
X137963100Y-86003900D01*
G75*
G02*
X138025600Y-86066400I0J-62500D01*
G01*
X138025600Y-86766400D01*
G75*
G02*
X137963100Y-86828900I-62500J0D01*
G01*
X137838100Y-86828900D01*
G75*
G02*
X137775600Y-86766400I0J62500D01*
G01*
G37*
G04 #@! TD.AperFunction*
G04 #@! TA.AperFunction,SMDPad,CuDef*
G36*
G01*
X138275600Y-86766400D02*
X138275600Y-86066400D01*
G75*
G02*
X138338100Y-86003900I62500J0D01*
G01*
X138463100Y-86003900D01*
G75*
G02*
X138525600Y-86066400I0J-62500D01*
G01*
X138525600Y-86766400D01*
G75*
G02*
X138463100Y-86828900I-62500J0D01*
G01*
X138338100Y-86828900D01*
G75*
G02*
X138275600Y-86766400I0J62500D01*
G01*
G37*
G04 #@! TD.AperFunction*
G04 #@! TA.AperFunction,SMDPad,CuDef*
G36*
G01*
X138775600Y-86766400D02*
X138775600Y-86066400D01*
G75*
G02*
X138838100Y-86003900I62500J0D01*
G01*
X138963100Y-86003900D01*
G75*
G02*
X139025600Y-86066400I0J-62500D01*
G01*
X139025600Y-86766400D01*
G75*
G02*
X138963100Y-86828900I-62500J0D01*
G01*
X138838100Y-86828900D01*
G75*
G02*
X138775600Y-86766400I0J62500D01*
G01*
G37*
G04 #@! TD.AperFunction*
G04 #@! TA.AperFunction,SMDPad,CuDef*
G36*
G01*
X139275600Y-86766400D02*
X139275600Y-86066400D01*
G75*
G02*
X139338100Y-86003900I62500J0D01*
G01*
X139463100Y-86003900D01*
G75*
G02*
X139525600Y-86066400I0J-62500D01*
G01*
X139525600Y-86766400D01*
G75*
G02*
X139463100Y-86828900I-62500J0D01*
G01*
X139338100Y-86828900D01*
G75*
G02*
X139275600Y-86766400I0J62500D01*
G01*
G37*
G04 #@! TD.AperFunction*
G04 #@! TA.AperFunction,SMDPad,CuDef*
G36*
G01*
X139675600Y-87166400D02*
X139675600Y-87041400D01*
G75*
G02*
X139738100Y-86978900I62500J0D01*
G01*
X140438100Y-86978900D01*
G75*
G02*
X140500600Y-87041400I0J-62500D01*
G01*
X140500600Y-87166400D01*
G75*
G02*
X140438100Y-87228900I-62500J0D01*
G01*
X139738100Y-87228900D01*
G75*
G02*
X139675600Y-87166400I0J62500D01*
G01*
G37*
G04 #@! TD.AperFunction*
G04 #@! TA.AperFunction,SMDPad,CuDef*
G36*
G01*
X139675600Y-87666400D02*
X139675600Y-87541400D01*
G75*
G02*
X139738100Y-87478900I62500J0D01*
G01*
X140438100Y-87478900D01*
G75*
G02*
X140500600Y-87541400I0J-62500D01*
G01*
X140500600Y-87666400D01*
G75*
G02*
X140438100Y-87728900I-62500J0D01*
G01*
X139738100Y-87728900D01*
G75*
G02*
X139675600Y-87666400I0J62500D01*
G01*
G37*
G04 #@! TD.AperFunction*
G04 #@! TA.AperFunction,SMDPad,CuDef*
G36*
G01*
X139675600Y-88166400D02*
X139675600Y-88041400D01*
G75*
G02*
X139738100Y-87978900I62500J0D01*
G01*
X140438100Y-87978900D01*
G75*
G02*
X140500600Y-88041400I0J-62500D01*
G01*
X140500600Y-88166400D01*
G75*
G02*
X140438100Y-88228900I-62500J0D01*
G01*
X139738100Y-88228900D01*
G75*
G02*
X139675600Y-88166400I0J62500D01*
G01*
G37*
G04 #@! TD.AperFunction*
G04 #@! TA.AperFunction,SMDPad,CuDef*
G36*
G01*
X139675600Y-88666400D02*
X139675600Y-88541400D01*
G75*
G02*
X139738100Y-88478900I62500J0D01*
G01*
X140438100Y-88478900D01*
G75*
G02*
X140500600Y-88541400I0J-62500D01*
G01*
X140500600Y-88666400D01*
G75*
G02*
X140438100Y-88728900I-62500J0D01*
G01*
X139738100Y-88728900D01*
G75*
G02*
X139675600Y-88666400I0J62500D01*
G01*
G37*
G04 #@! TD.AperFunction*
G04 #@! TA.AperFunction,SMDPad,CuDef*
G36*
G01*
X139675600Y-89166400D02*
X139675600Y-89041400D01*
G75*
G02*
X139738100Y-88978900I62500J0D01*
G01*
X140438100Y-88978900D01*
G75*
G02*
X140500600Y-89041400I0J-62500D01*
G01*
X140500600Y-89166400D01*
G75*
G02*
X140438100Y-89228900I-62500J0D01*
G01*
X139738100Y-89228900D01*
G75*
G02*
X139675600Y-89166400I0J62500D01*
G01*
G37*
G04 #@! TD.AperFunction*
G04 #@! TA.AperFunction,SMDPad,CuDef*
G36*
G01*
X139675600Y-89666400D02*
X139675600Y-89541400D01*
G75*
G02*
X139738100Y-89478900I62500J0D01*
G01*
X140438100Y-89478900D01*
G75*
G02*
X140500600Y-89541400I0J-62500D01*
G01*
X140500600Y-89666400D01*
G75*
G02*
X140438100Y-89728900I-62500J0D01*
G01*
X139738100Y-89728900D01*
G75*
G02*
X139675600Y-89666400I0J62500D01*
G01*
G37*
G04 #@! TD.AperFunction*
G04 #@! TA.AperFunction,SMDPad,CuDef*
G36*
G01*
X139275600Y-90641400D02*
X139275600Y-89941400D01*
G75*
G02*
X139338100Y-89878900I62500J0D01*
G01*
X139463100Y-89878900D01*
G75*
G02*
X139525600Y-89941400I0J-62500D01*
G01*
X139525600Y-90641400D01*
G75*
G02*
X139463100Y-90703900I-62500J0D01*
G01*
X139338100Y-90703900D01*
G75*
G02*
X139275600Y-90641400I0J62500D01*
G01*
G37*
G04 #@! TD.AperFunction*
G04 #@! TA.AperFunction,SMDPad,CuDef*
G36*
G01*
X138775600Y-90641400D02*
X138775600Y-89941400D01*
G75*
G02*
X138838100Y-89878900I62500J0D01*
G01*
X138963100Y-89878900D01*
G75*
G02*
X139025600Y-89941400I0J-62500D01*
G01*
X139025600Y-90641400D01*
G75*
G02*
X138963100Y-90703900I-62500J0D01*
G01*
X138838100Y-90703900D01*
G75*
G02*
X138775600Y-90641400I0J62500D01*
G01*
G37*
G04 #@! TD.AperFunction*
G04 #@! TA.AperFunction,SMDPad,CuDef*
G36*
G01*
X138275600Y-90641400D02*
X138275600Y-89941400D01*
G75*
G02*
X138338100Y-89878900I62500J0D01*
G01*
X138463100Y-89878900D01*
G75*
G02*
X138525600Y-89941400I0J-62500D01*
G01*
X138525600Y-90641400D01*
G75*
G02*
X138463100Y-90703900I-62500J0D01*
G01*
X138338100Y-90703900D01*
G75*
G02*
X138275600Y-90641400I0J62500D01*
G01*
G37*
G04 #@! TD.AperFunction*
G04 #@! TA.AperFunction,SMDPad,CuDef*
G36*
G01*
X137775600Y-90641400D02*
X137775600Y-89941400D01*
G75*
G02*
X137838100Y-89878900I62500J0D01*
G01*
X137963100Y-89878900D01*
G75*
G02*
X138025600Y-89941400I0J-62500D01*
G01*
X138025600Y-90641400D01*
G75*
G02*
X137963100Y-90703900I-62500J0D01*
G01*
X137838100Y-90703900D01*
G75*
G02*
X137775600Y-90641400I0J62500D01*
G01*
G37*
G04 #@! TD.AperFunction*
G04 #@! TA.AperFunction,SMDPad,CuDef*
G36*
G01*
X137275600Y-90641400D02*
X137275600Y-89941400D01*
G75*
G02*
X137338100Y-89878900I62500J0D01*
G01*
X137463100Y-89878900D01*
G75*
G02*
X137525600Y-89941400I0J-62500D01*
G01*
X137525600Y-90641400D01*
G75*
G02*
X137463100Y-90703900I-62500J0D01*
G01*
X137338100Y-90703900D01*
G75*
G02*
X137275600Y-90641400I0J62500D01*
G01*
G37*
G04 #@! TD.AperFunction*
G04 #@! TA.AperFunction,SMDPad,CuDef*
G36*
G01*
X136775600Y-90641400D02*
X136775600Y-89941400D01*
G75*
G02*
X136838100Y-89878900I62500J0D01*
G01*
X136963100Y-89878900D01*
G75*
G02*
X137025600Y-89941400I0J-62500D01*
G01*
X137025600Y-90641400D01*
G75*
G02*
X136963100Y-90703900I-62500J0D01*
G01*
X136838100Y-90703900D01*
G75*
G02*
X136775600Y-90641400I0J62500D01*
G01*
G37*
G04 #@! TD.AperFunction*
G04 #@! TA.AperFunction,SMDPad,CuDef*
G36*
G01*
X135800600Y-89666400D02*
X135800600Y-89541400D01*
G75*
G02*
X135863100Y-89478900I62500J0D01*
G01*
X136563100Y-89478900D01*
G75*
G02*
X136625600Y-89541400I0J-62500D01*
G01*
X136625600Y-89666400D01*
G75*
G02*
X136563100Y-89728900I-62500J0D01*
G01*
X135863100Y-89728900D01*
G75*
G02*
X135800600Y-89666400I0J62500D01*
G01*
G37*
G04 #@! TD.AperFunction*
G04 #@! TA.AperFunction,SMDPad,CuDef*
G36*
G01*
X135800600Y-89166400D02*
X135800600Y-89041400D01*
G75*
G02*
X135863100Y-88978900I62500J0D01*
G01*
X136563100Y-88978900D01*
G75*
G02*
X136625600Y-89041400I0J-62500D01*
G01*
X136625600Y-89166400D01*
G75*
G02*
X136563100Y-89228900I-62500J0D01*
G01*
X135863100Y-89228900D01*
G75*
G02*
X135800600Y-89166400I0J62500D01*
G01*
G37*
G04 #@! TD.AperFunction*
G04 #@! TA.AperFunction,SMDPad,CuDef*
G36*
G01*
X135800600Y-88666400D02*
X135800600Y-88541400D01*
G75*
G02*
X135863100Y-88478900I62500J0D01*
G01*
X136563100Y-88478900D01*
G75*
G02*
X136625600Y-88541400I0J-62500D01*
G01*
X136625600Y-88666400D01*
G75*
G02*
X136563100Y-88728900I-62500J0D01*
G01*
X135863100Y-88728900D01*
G75*
G02*
X135800600Y-88666400I0J62500D01*
G01*
G37*
G04 #@! TD.AperFunction*
G04 #@! TA.AperFunction,SMDPad,CuDef*
G36*
G01*
X135800600Y-88166400D02*
X135800600Y-88041400D01*
G75*
G02*
X135863100Y-87978900I62500J0D01*
G01*
X136563100Y-87978900D01*
G75*
G02*
X136625600Y-88041400I0J-62500D01*
G01*
X136625600Y-88166400D01*
G75*
G02*
X136563100Y-88228900I-62500J0D01*
G01*
X135863100Y-88228900D01*
G75*
G02*
X135800600Y-88166400I0J62500D01*
G01*
G37*
G04 #@! TD.AperFunction*
G04 #@! TA.AperFunction,SMDPad,CuDef*
G36*
G01*
X135800600Y-87666400D02*
X135800600Y-87541400D01*
G75*
G02*
X135863100Y-87478900I62500J0D01*
G01*
X136563100Y-87478900D01*
G75*
G02*
X136625600Y-87541400I0J-62500D01*
G01*
X136625600Y-87666400D01*
G75*
G02*
X136563100Y-87728900I-62500J0D01*
G01*
X135863100Y-87728900D01*
G75*
G02*
X135800600Y-87666400I0J62500D01*
G01*
G37*
G04 #@! TD.AperFunction*
G04 #@! TA.AperFunction,SMDPad,CuDef*
G36*
G01*
X135800600Y-87166400D02*
X135800600Y-87041400D01*
G75*
G02*
X135863100Y-86978900I62500J0D01*
G01*
X136563100Y-86978900D01*
G75*
G02*
X136625600Y-87041400I0J-62500D01*
G01*
X136625600Y-87166400D01*
G75*
G02*
X136563100Y-87228900I-62500J0D01*
G01*
X135863100Y-87228900D01*
G75*
G02*
X135800600Y-87166400I0J62500D01*
G01*
G37*
G04 #@! TD.AperFunction*
G04 #@! TA.AperFunction,SMDPad,CuDef*
G36*
G01*
X114575140Y-102197580D02*
X114575140Y-101647580D01*
G75*
G02*
X114775140Y-101447580I200000J0D01*
G01*
X115175140Y-101447580D01*
G75*
G02*
X115375140Y-101647580I0J-200000D01*
G01*
X115375140Y-102197580D01*
G75*
G02*
X115175140Y-102397580I-200000J0D01*
G01*
X114775140Y-102397580D01*
G75*
G02*
X114575140Y-102197580I0J200000D01*
G01*
G37*
G04 #@! TD.AperFunction*
G04 #@! TA.AperFunction,SMDPad,CuDef*
G36*
G01*
X112925140Y-102197580D02*
X112925140Y-101647580D01*
G75*
G02*
X113125140Y-101447580I200000J0D01*
G01*
X113525140Y-101447580D01*
G75*
G02*
X113725140Y-101647580I0J-200000D01*
G01*
X113725140Y-102197580D01*
G75*
G02*
X113525140Y-102397580I-200000J0D01*
G01*
X113125140Y-102397580D01*
G75*
G02*
X112925140Y-102197580I0J200000D01*
G01*
G37*
G04 #@! TD.AperFunction*
G04 #@! TA.AperFunction,SMDPad,CuDef*
D12*
G36*
X119775221Y-107017055D02*
G01*
X119766779Y-107014495D01*
X119758999Y-107010336D01*
X119752180Y-107004740D01*
X119746584Y-106997921D01*
X119742425Y-106990141D01*
X119739865Y-106981699D01*
X119739000Y-106972920D01*
X119739000Y-106307920D01*
X119739865Y-106299141D01*
X119742425Y-106290699D01*
X119746584Y-106282919D01*
X119752180Y-106276100D01*
X119758999Y-106270504D01*
X119766779Y-106266345D01*
X119775221Y-106263785D01*
X119784000Y-106262920D01*
X119810360Y-106262920D01*
X119819139Y-106263785D01*
X119827581Y-106266345D01*
X119835361Y-106270504D01*
X119842180Y-106276100D01*
X119975820Y-106409740D01*
X119981416Y-106416559D01*
X119985575Y-106424339D01*
X119988135Y-106432781D01*
X119989000Y-106441560D01*
X119989000Y-106972920D01*
X119988135Y-106981699D01*
X119985575Y-106990141D01*
X119981416Y-106997921D01*
X119975820Y-107004740D01*
X119969001Y-107010336D01*
X119961221Y-107014495D01*
X119952779Y-107017055D01*
X119944000Y-107017920D01*
X119784000Y-107017920D01*
X119775221Y-107017055D01*
G37*
G04 #@! TD.AperFunction*
G04 #@! TA.AperFunction,SMDPad,CuDef*
G36*
G01*
X119489000Y-106205420D02*
X119489000Y-106955420D01*
G75*
G02*
X119426500Y-107017920I-62500J0D01*
G01*
X119301500Y-107017920D01*
G75*
G02*
X119239000Y-106955420I0J62500D01*
G01*
X119239000Y-106205420D01*
G75*
G02*
X119301500Y-106142920I62500J0D01*
G01*
X119426500Y-106142920D01*
G75*
G02*
X119489000Y-106205420I0J-62500D01*
G01*
G37*
G04 #@! TD.AperFunction*
G04 #@! TA.AperFunction,SMDPad,CuDef*
G36*
G01*
X118989000Y-106205420D02*
X118989000Y-106955420D01*
G75*
G02*
X118926500Y-107017920I-62500J0D01*
G01*
X118801500Y-107017920D01*
G75*
G02*
X118739000Y-106955420I0J62500D01*
G01*
X118739000Y-106205420D01*
G75*
G02*
X118801500Y-106142920I62500J0D01*
G01*
X118926500Y-106142920D01*
G75*
G02*
X118989000Y-106205420I0J-62500D01*
G01*
G37*
G04 #@! TD.AperFunction*
G04 #@! TA.AperFunction,SMDPad,CuDef*
G36*
G01*
X118489000Y-106205420D02*
X118489000Y-106955420D01*
G75*
G02*
X118426500Y-107017920I-62500J0D01*
G01*
X118301500Y-107017920D01*
G75*
G02*
X118239000Y-106955420I0J62500D01*
G01*
X118239000Y-106205420D01*
G75*
G02*
X118301500Y-106142920I62500J0D01*
G01*
X118426500Y-106142920D01*
G75*
G02*
X118489000Y-106205420I0J-62500D01*
G01*
G37*
G04 #@! TD.AperFunction*
G04 #@! TA.AperFunction,SMDPad,CuDef*
G36*
G01*
X117989000Y-106205420D02*
X117989000Y-106955420D01*
G75*
G02*
X117926500Y-107017920I-62500J0D01*
G01*
X117801500Y-107017920D01*
G75*
G02*
X117739000Y-106955420I0J62500D01*
G01*
X117739000Y-106205420D01*
G75*
G02*
X117801500Y-106142920I62500J0D01*
G01*
X117926500Y-106142920D01*
G75*
G02*
X117989000Y-106205420I0J-62500D01*
G01*
G37*
G04 #@! TD.AperFunction*
G04 #@! TA.AperFunction,SMDPad,CuDef*
G36*
G01*
X117489000Y-106205420D02*
X117489000Y-106955420D01*
G75*
G02*
X117426500Y-107017920I-62500J0D01*
G01*
X117301500Y-107017920D01*
G75*
G02*
X117239000Y-106955420I0J62500D01*
G01*
X117239000Y-106205420D01*
G75*
G02*
X117301500Y-106142920I62500J0D01*
G01*
X117426500Y-106142920D01*
G75*
G02*
X117489000Y-106205420I0J-62500D01*
G01*
G37*
G04 #@! TD.AperFunction*
G04 #@! TA.AperFunction,SMDPad,CuDef*
G36*
X116775221Y-107017055D02*
G01*
X116766779Y-107014495D01*
X116758999Y-107010336D01*
X116752180Y-107004740D01*
X116746584Y-106997921D01*
X116742425Y-106990141D01*
X116739865Y-106981699D01*
X116739000Y-106972920D01*
X116739000Y-106441560D01*
X116739865Y-106432781D01*
X116742425Y-106424339D01*
X116746584Y-106416559D01*
X116752180Y-106409740D01*
X116885820Y-106276100D01*
X116892639Y-106270504D01*
X116900419Y-106266345D01*
X116908861Y-106263785D01*
X116917640Y-106262920D01*
X116944000Y-106262920D01*
X116952779Y-106263785D01*
X116961221Y-106266345D01*
X116969001Y-106270504D01*
X116975820Y-106276100D01*
X116981416Y-106282919D01*
X116985575Y-106290699D01*
X116988135Y-106299141D01*
X116989000Y-106307920D01*
X116989000Y-106972920D01*
X116988135Y-106981699D01*
X116985575Y-106990141D01*
X116981416Y-106997921D01*
X116975820Y-107004740D01*
X116969001Y-107010336D01*
X116961221Y-107014495D01*
X116952779Y-107017055D01*
X116944000Y-107017920D01*
X116784000Y-107017920D01*
X116775221Y-107017055D01*
G37*
G04 #@! TD.AperFunction*
G04 #@! TA.AperFunction,SMDPad,CuDef*
G36*
X116025221Y-106267055D02*
G01*
X116016779Y-106264495D01*
X116008999Y-106260336D01*
X116002180Y-106254740D01*
X115996584Y-106247921D01*
X115992425Y-106240141D01*
X115989865Y-106231699D01*
X115989000Y-106222920D01*
X115989000Y-106062920D01*
X115989865Y-106054141D01*
X115992425Y-106045699D01*
X115996584Y-106037919D01*
X116002180Y-106031100D01*
X116008999Y-106025504D01*
X116016779Y-106021345D01*
X116025221Y-106018785D01*
X116034000Y-106017920D01*
X116699000Y-106017920D01*
X116707779Y-106018785D01*
X116716221Y-106021345D01*
X116724001Y-106025504D01*
X116730820Y-106031100D01*
X116736416Y-106037919D01*
X116740575Y-106045699D01*
X116743135Y-106054141D01*
X116744000Y-106062920D01*
X116744000Y-106089280D01*
X116743135Y-106098059D01*
X116740575Y-106106501D01*
X116736416Y-106114281D01*
X116730820Y-106121100D01*
X116597180Y-106254740D01*
X116590361Y-106260336D01*
X116582581Y-106264495D01*
X116574139Y-106267055D01*
X116565360Y-106267920D01*
X116034000Y-106267920D01*
X116025221Y-106267055D01*
G37*
G04 #@! TD.AperFunction*
G04 #@! TA.AperFunction,SMDPad,CuDef*
G36*
G01*
X116864000Y-105580420D02*
X116864000Y-105705420D01*
G75*
G02*
X116801500Y-105767920I-62500J0D01*
G01*
X116051500Y-105767920D01*
G75*
G02*
X115989000Y-105705420I0J62500D01*
G01*
X115989000Y-105580420D01*
G75*
G02*
X116051500Y-105517920I62500J0D01*
G01*
X116801500Y-105517920D01*
G75*
G02*
X116864000Y-105580420I0J-62500D01*
G01*
G37*
G04 #@! TD.AperFunction*
G04 #@! TA.AperFunction,SMDPad,CuDef*
G36*
G01*
X116864000Y-105080420D02*
X116864000Y-105205420D01*
G75*
G02*
X116801500Y-105267920I-62500J0D01*
G01*
X116051500Y-105267920D01*
G75*
G02*
X115989000Y-105205420I0J62500D01*
G01*
X115989000Y-105080420D01*
G75*
G02*
X116051500Y-105017920I62500J0D01*
G01*
X116801500Y-105017920D01*
G75*
G02*
X116864000Y-105080420I0J-62500D01*
G01*
G37*
G04 #@! TD.AperFunction*
G04 #@! TA.AperFunction,SMDPad,CuDef*
G36*
G01*
X116864000Y-104580420D02*
X116864000Y-104705420D01*
G75*
G02*
X116801500Y-104767920I-62500J0D01*
G01*
X116051500Y-104767920D01*
G75*
G02*
X115989000Y-104705420I0J62500D01*
G01*
X115989000Y-104580420D01*
G75*
G02*
X116051500Y-104517920I62500J0D01*
G01*
X116801500Y-104517920D01*
G75*
G02*
X116864000Y-104580420I0J-62500D01*
G01*
G37*
G04 #@! TD.AperFunction*
G04 #@! TA.AperFunction,SMDPad,CuDef*
G36*
G01*
X116864000Y-104080420D02*
X116864000Y-104205420D01*
G75*
G02*
X116801500Y-104267920I-62500J0D01*
G01*
X116051500Y-104267920D01*
G75*
G02*
X115989000Y-104205420I0J62500D01*
G01*
X115989000Y-104080420D01*
G75*
G02*
X116051500Y-104017920I62500J0D01*
G01*
X116801500Y-104017920D01*
G75*
G02*
X116864000Y-104080420I0J-62500D01*
G01*
G37*
G04 #@! TD.AperFunction*
G04 #@! TA.AperFunction,SMDPad,CuDef*
G36*
G01*
X116864000Y-103580420D02*
X116864000Y-103705420D01*
G75*
G02*
X116801500Y-103767920I-62500J0D01*
G01*
X116051500Y-103767920D01*
G75*
G02*
X115989000Y-103705420I0J62500D01*
G01*
X115989000Y-103580420D01*
G75*
G02*
X116051500Y-103517920I62500J0D01*
G01*
X116801500Y-103517920D01*
G75*
G02*
X116864000Y-103580420I0J-62500D01*
G01*
G37*
G04 #@! TD.AperFunction*
G04 #@! TA.AperFunction,SMDPad,CuDef*
G36*
X116025221Y-103267055D02*
G01*
X116016779Y-103264495D01*
X116008999Y-103260336D01*
X116002180Y-103254740D01*
X115996584Y-103247921D01*
X115992425Y-103240141D01*
X115989865Y-103231699D01*
X115989000Y-103222920D01*
X115989000Y-103062920D01*
X115989865Y-103054141D01*
X115992425Y-103045699D01*
X115996584Y-103037919D01*
X116002180Y-103031100D01*
X116008999Y-103025504D01*
X116016779Y-103021345D01*
X116025221Y-103018785D01*
X116034000Y-103017920D01*
X116565360Y-103017920D01*
X116574139Y-103018785D01*
X116582581Y-103021345D01*
X116590361Y-103025504D01*
X116597180Y-103031100D01*
X116730820Y-103164740D01*
X116736416Y-103171559D01*
X116740575Y-103179339D01*
X116743135Y-103187781D01*
X116744000Y-103196560D01*
X116744000Y-103222920D01*
X116743135Y-103231699D01*
X116740575Y-103240141D01*
X116736416Y-103247921D01*
X116730820Y-103254740D01*
X116724001Y-103260336D01*
X116716221Y-103264495D01*
X116707779Y-103267055D01*
X116699000Y-103267920D01*
X116034000Y-103267920D01*
X116025221Y-103267055D01*
G37*
G04 #@! TD.AperFunction*
G04 #@! TA.AperFunction,SMDPad,CuDef*
G36*
X116908861Y-103022055D02*
G01*
X116900419Y-103019495D01*
X116892639Y-103015336D01*
X116885820Y-103009740D01*
X116752180Y-102876100D01*
X116746584Y-102869281D01*
X116742425Y-102861501D01*
X116739865Y-102853059D01*
X116739000Y-102844280D01*
X116739000Y-102312920D01*
X116739865Y-102304141D01*
X116742425Y-102295699D01*
X116746584Y-102287919D01*
X116752180Y-102281100D01*
X116758999Y-102275504D01*
X116766779Y-102271345D01*
X116775221Y-102268785D01*
X116784000Y-102267920D01*
X116944000Y-102267920D01*
X116952779Y-102268785D01*
X116961221Y-102271345D01*
X116969001Y-102275504D01*
X116975820Y-102281100D01*
X116981416Y-102287919D01*
X116985575Y-102295699D01*
X116988135Y-102304141D01*
X116989000Y-102312920D01*
X116989000Y-102977920D01*
X116988135Y-102986699D01*
X116985575Y-102995141D01*
X116981416Y-103002921D01*
X116975820Y-103009740D01*
X116969001Y-103015336D01*
X116961221Y-103019495D01*
X116952779Y-103022055D01*
X116944000Y-103022920D01*
X116917640Y-103022920D01*
X116908861Y-103022055D01*
G37*
G04 #@! TD.AperFunction*
G04 #@! TA.AperFunction,SMDPad,CuDef*
G36*
G01*
X117489000Y-102330420D02*
X117489000Y-103080420D01*
G75*
G02*
X117426500Y-103142920I-62500J0D01*
G01*
X117301500Y-103142920D01*
G75*
G02*
X117239000Y-103080420I0J62500D01*
G01*
X117239000Y-102330420D01*
G75*
G02*
X117301500Y-102267920I62500J0D01*
G01*
X117426500Y-102267920D01*
G75*
G02*
X117489000Y-102330420I0J-62500D01*
G01*
G37*
G04 #@! TD.AperFunction*
G04 #@! TA.AperFunction,SMDPad,CuDef*
G36*
G01*
X117989000Y-102330420D02*
X117989000Y-103080420D01*
G75*
G02*
X117926500Y-103142920I-62500J0D01*
G01*
X117801500Y-103142920D01*
G75*
G02*
X117739000Y-103080420I0J62500D01*
G01*
X117739000Y-102330420D01*
G75*
G02*
X117801500Y-102267920I62500J0D01*
G01*
X117926500Y-102267920D01*
G75*
G02*
X117989000Y-102330420I0J-62500D01*
G01*
G37*
G04 #@! TD.AperFunction*
G04 #@! TA.AperFunction,SMDPad,CuDef*
G36*
G01*
X118489000Y-102330420D02*
X118489000Y-103080420D01*
G75*
G02*
X118426500Y-103142920I-62500J0D01*
G01*
X118301500Y-103142920D01*
G75*
G02*
X118239000Y-103080420I0J62500D01*
G01*
X118239000Y-102330420D01*
G75*
G02*
X118301500Y-102267920I62500J0D01*
G01*
X118426500Y-102267920D01*
G75*
G02*
X118489000Y-102330420I0J-62500D01*
G01*
G37*
G04 #@! TD.AperFunction*
G04 #@! TA.AperFunction,SMDPad,CuDef*
G36*
G01*
X118989000Y-102330420D02*
X118989000Y-103080420D01*
G75*
G02*
X118926500Y-103142920I-62500J0D01*
G01*
X118801500Y-103142920D01*
G75*
G02*
X118739000Y-103080420I0J62500D01*
G01*
X118739000Y-102330420D01*
G75*
G02*
X118801500Y-102267920I62500J0D01*
G01*
X118926500Y-102267920D01*
G75*
G02*
X118989000Y-102330420I0J-62500D01*
G01*
G37*
G04 #@! TD.AperFunction*
G04 #@! TA.AperFunction,SMDPad,CuDef*
G36*
G01*
X119489000Y-102330420D02*
X119489000Y-103080420D01*
G75*
G02*
X119426500Y-103142920I-62500J0D01*
G01*
X119301500Y-103142920D01*
G75*
G02*
X119239000Y-103080420I0J62500D01*
G01*
X119239000Y-102330420D01*
G75*
G02*
X119301500Y-102267920I62500J0D01*
G01*
X119426500Y-102267920D01*
G75*
G02*
X119489000Y-102330420I0J-62500D01*
G01*
G37*
G04 #@! TD.AperFunction*
G04 #@! TA.AperFunction,SMDPad,CuDef*
G36*
X119775221Y-103022055D02*
G01*
X119766779Y-103019495D01*
X119758999Y-103015336D01*
X119752180Y-103009740D01*
X119746584Y-103002921D01*
X119742425Y-102995141D01*
X119739865Y-102986699D01*
X119739000Y-102977920D01*
X119739000Y-102312920D01*
X119739865Y-102304141D01*
X119742425Y-102295699D01*
X119746584Y-102287919D01*
X119752180Y-102281100D01*
X119758999Y-102275504D01*
X119766779Y-102271345D01*
X119775221Y-102268785D01*
X119784000Y-102267920D01*
X119944000Y-102267920D01*
X119952779Y-102268785D01*
X119961221Y-102271345D01*
X119969001Y-102275504D01*
X119975820Y-102281100D01*
X119981416Y-102287919D01*
X119985575Y-102295699D01*
X119988135Y-102304141D01*
X119989000Y-102312920D01*
X119989000Y-102844280D01*
X119988135Y-102853059D01*
X119985575Y-102861501D01*
X119981416Y-102869281D01*
X119975820Y-102876100D01*
X119842180Y-103009740D01*
X119835361Y-103015336D01*
X119827581Y-103019495D01*
X119819139Y-103022055D01*
X119810360Y-103022920D01*
X119784000Y-103022920D01*
X119775221Y-103022055D01*
G37*
G04 #@! TD.AperFunction*
G04 #@! TA.AperFunction,SMDPad,CuDef*
G36*
X120020221Y-103267055D02*
G01*
X120011779Y-103264495D01*
X120003999Y-103260336D01*
X119997180Y-103254740D01*
X119991584Y-103247921D01*
X119987425Y-103240141D01*
X119984865Y-103231699D01*
X119984000Y-103222920D01*
X119984000Y-103196560D01*
X119984865Y-103187781D01*
X119987425Y-103179339D01*
X119991584Y-103171559D01*
X119997180Y-103164740D01*
X120130820Y-103031100D01*
X120137639Y-103025504D01*
X120145419Y-103021345D01*
X120153861Y-103018785D01*
X120162640Y-103017920D01*
X120694000Y-103017920D01*
X120702779Y-103018785D01*
X120711221Y-103021345D01*
X120719001Y-103025504D01*
X120725820Y-103031100D01*
X120731416Y-103037919D01*
X120735575Y-103045699D01*
X120738135Y-103054141D01*
X120739000Y-103062920D01*
X120739000Y-103222920D01*
X120738135Y-103231699D01*
X120735575Y-103240141D01*
X120731416Y-103247921D01*
X120725820Y-103254740D01*
X120719001Y-103260336D01*
X120711221Y-103264495D01*
X120702779Y-103267055D01*
X120694000Y-103267920D01*
X120029000Y-103267920D01*
X120020221Y-103267055D01*
G37*
G04 #@! TD.AperFunction*
G04 #@! TA.AperFunction,SMDPad,CuDef*
G36*
G01*
X120739000Y-103580420D02*
X120739000Y-103705420D01*
G75*
G02*
X120676500Y-103767920I-62500J0D01*
G01*
X119926500Y-103767920D01*
G75*
G02*
X119864000Y-103705420I0J62500D01*
G01*
X119864000Y-103580420D01*
G75*
G02*
X119926500Y-103517920I62500J0D01*
G01*
X120676500Y-103517920D01*
G75*
G02*
X120739000Y-103580420I0J-62500D01*
G01*
G37*
G04 #@! TD.AperFunction*
G04 #@! TA.AperFunction,SMDPad,CuDef*
G36*
G01*
X120739000Y-104080420D02*
X120739000Y-104205420D01*
G75*
G02*
X120676500Y-104267920I-62500J0D01*
G01*
X119926500Y-104267920D01*
G75*
G02*
X119864000Y-104205420I0J62500D01*
G01*
X119864000Y-104080420D01*
G75*
G02*
X119926500Y-104017920I62500J0D01*
G01*
X120676500Y-104017920D01*
G75*
G02*
X120739000Y-104080420I0J-62500D01*
G01*
G37*
G04 #@! TD.AperFunction*
G04 #@! TA.AperFunction,SMDPad,CuDef*
G36*
G01*
X120739000Y-104580420D02*
X120739000Y-104705420D01*
G75*
G02*
X120676500Y-104767920I-62500J0D01*
G01*
X119926500Y-104767920D01*
G75*
G02*
X119864000Y-104705420I0J62500D01*
G01*
X119864000Y-104580420D01*
G75*
G02*
X119926500Y-104517920I62500J0D01*
G01*
X120676500Y-104517920D01*
G75*
G02*
X120739000Y-104580420I0J-62500D01*
G01*
G37*
G04 #@! TD.AperFunction*
G04 #@! TA.AperFunction,SMDPad,CuDef*
G36*
G01*
X120739000Y-105080420D02*
X120739000Y-105205420D01*
G75*
G02*
X120676500Y-105267920I-62500J0D01*
G01*
X119926500Y-105267920D01*
G75*
G02*
X119864000Y-105205420I0J62500D01*
G01*
X119864000Y-105080420D01*
G75*
G02*
X119926500Y-105017920I62500J0D01*
G01*
X120676500Y-105017920D01*
G75*
G02*
X120739000Y-105080420I0J-62500D01*
G01*
G37*
G04 #@! TD.AperFunction*
G04 #@! TA.AperFunction,SMDPad,CuDef*
G36*
G01*
X120739000Y-105580420D02*
X120739000Y-105705420D01*
G75*
G02*
X120676500Y-105767920I-62500J0D01*
G01*
X119926500Y-105767920D01*
G75*
G02*
X119864000Y-105705420I0J62500D01*
G01*
X119864000Y-105580420D01*
G75*
G02*
X119926500Y-105517920I62500J0D01*
G01*
X120676500Y-105517920D01*
G75*
G02*
X120739000Y-105580420I0J-62500D01*
G01*
G37*
G04 #@! TD.AperFunction*
G04 #@! TA.AperFunction,SMDPad,CuDef*
G36*
X120153861Y-106267055D02*
G01*
X120145419Y-106264495D01*
X120137639Y-106260336D01*
X120130820Y-106254740D01*
X119997180Y-106121100D01*
X119991584Y-106114281D01*
X119987425Y-106106501D01*
X119984865Y-106098059D01*
X119984000Y-106089280D01*
X119984000Y-106062920D01*
X119984865Y-106054141D01*
X119987425Y-106045699D01*
X119991584Y-106037919D01*
X119997180Y-106031100D01*
X120003999Y-106025504D01*
X120011779Y-106021345D01*
X120020221Y-106018785D01*
X120029000Y-106017920D01*
X120694000Y-106017920D01*
X120702779Y-106018785D01*
X120711221Y-106021345D01*
X120719001Y-106025504D01*
X120725820Y-106031100D01*
X120731416Y-106037919D01*
X120735575Y-106045699D01*
X120738135Y-106054141D01*
X120739000Y-106062920D01*
X120739000Y-106222920D01*
X120738135Y-106231699D01*
X120735575Y-106240141D01*
X120731416Y-106247921D01*
X120725820Y-106254740D01*
X120719001Y-106260336D01*
X120711221Y-106264495D01*
X120702779Y-106267055D01*
X120694000Y-106267920D01*
X120162640Y-106267920D01*
X120153861Y-106267055D01*
G37*
G04 #@! TD.AperFunction*
G04 #@! TA.AperFunction,SMDPad,CuDef*
G36*
G01*
X121495000Y-79354000D02*
X121495000Y-79904000D01*
G75*
G02*
X121295000Y-80104000I-200000J0D01*
G01*
X120895000Y-80104000D01*
G75*
G02*
X120695000Y-79904000I0J200000D01*
G01*
X120695000Y-79354000D01*
G75*
G02*
X120895000Y-79154000I200000J0D01*
G01*
X121295000Y-79154000D01*
G75*
G02*
X121495000Y-79354000I0J-200000D01*
G01*
G37*
G04 #@! TD.AperFunction*
G04 #@! TA.AperFunction,SMDPad,CuDef*
G36*
G01*
X123145000Y-79354000D02*
X123145000Y-79904000D01*
G75*
G02*
X122945000Y-80104000I-200000J0D01*
G01*
X122545000Y-80104000D01*
G75*
G02*
X122345000Y-79904000I0J200000D01*
G01*
X122345000Y-79354000D01*
G75*
G02*
X122545000Y-79154000I200000J0D01*
G01*
X122945000Y-79154000D01*
G75*
G02*
X123145000Y-79354000I0J-200000D01*
G01*
G37*
G04 #@! TD.AperFunction*
G04 #@! TA.AperFunction,SMDPad,CuDef*
G36*
G01*
X121495000Y-77830000D02*
X121495000Y-78380000D01*
G75*
G02*
X121295000Y-78580000I-200000J0D01*
G01*
X120895000Y-78580000D01*
G75*
G02*
X120695000Y-78380000I0J200000D01*
G01*
X120695000Y-77830000D01*
G75*
G02*
X120895000Y-77630000I200000J0D01*
G01*
X121295000Y-77630000D01*
G75*
G02*
X121495000Y-77830000I0J-200000D01*
G01*
G37*
G04 #@! TD.AperFunction*
G04 #@! TA.AperFunction,SMDPad,CuDef*
G36*
G01*
X123145000Y-77830000D02*
X123145000Y-78380000D01*
G75*
G02*
X122945000Y-78580000I-200000J0D01*
G01*
X122545000Y-78580000D01*
G75*
G02*
X122345000Y-78380000I0J200000D01*
G01*
X122345000Y-77830000D01*
G75*
G02*
X122545000Y-77630000I200000J0D01*
G01*
X122945000Y-77630000D01*
G75*
G02*
X123145000Y-77830000I0J-200000D01*
G01*
G37*
G04 #@! TD.AperFunction*
G04 #@! TA.AperFunction,SMDPad,CuDef*
G36*
G01*
X121495000Y-76306000D02*
X121495000Y-76856000D01*
G75*
G02*
X121295000Y-77056000I-200000J0D01*
G01*
X120895000Y-77056000D01*
G75*
G02*
X120695000Y-76856000I0J200000D01*
G01*
X120695000Y-76306000D01*
G75*
G02*
X120895000Y-76106000I200000J0D01*
G01*
X121295000Y-76106000D01*
G75*
G02*
X121495000Y-76306000I0J-200000D01*
G01*
G37*
G04 #@! TD.AperFunction*
G04 #@! TA.AperFunction,SMDPad,CuDef*
G36*
G01*
X123145000Y-76306000D02*
X123145000Y-76856000D01*
G75*
G02*
X122945000Y-77056000I-200000J0D01*
G01*
X122545000Y-77056000D01*
G75*
G02*
X122345000Y-76856000I0J200000D01*
G01*
X122345000Y-76306000D01*
G75*
G02*
X122545000Y-76106000I200000J0D01*
G01*
X122945000Y-76106000D01*
G75*
G02*
X123145000Y-76306000I0J-200000D01*
G01*
G37*
G04 #@! TD.AperFunction*
G04 #@! TA.AperFunction,SMDPad,CuDef*
G36*
G01*
X121510240Y-73273240D02*
X121510240Y-73823240D01*
G75*
G02*
X121310240Y-74023240I-200000J0D01*
G01*
X120910240Y-74023240D01*
G75*
G02*
X120710240Y-73823240I0J200000D01*
G01*
X120710240Y-73273240D01*
G75*
G02*
X120910240Y-73073240I200000J0D01*
G01*
X121310240Y-73073240D01*
G75*
G02*
X121510240Y-73273240I0J-200000D01*
G01*
G37*
G04 #@! TD.AperFunction*
G04 #@! TA.AperFunction,SMDPad,CuDef*
G36*
G01*
X123160240Y-73273240D02*
X123160240Y-73823240D01*
G75*
G02*
X122960240Y-74023240I-200000J0D01*
G01*
X122560240Y-74023240D01*
G75*
G02*
X122360240Y-73823240I0J200000D01*
G01*
X122360240Y-73273240D01*
G75*
G02*
X122560240Y-73073240I200000J0D01*
G01*
X122960240Y-73073240D01*
G75*
G02*
X123160240Y-73273240I0J-200000D01*
G01*
G37*
G04 #@! TD.AperFunction*
G04 #@! TA.AperFunction,SMDPad,CuDef*
G36*
G01*
X121495000Y-74782000D02*
X121495000Y-75332000D01*
G75*
G02*
X121295000Y-75532000I-200000J0D01*
G01*
X120895000Y-75532000D01*
G75*
G02*
X120695000Y-75332000I0J200000D01*
G01*
X120695000Y-74782000D01*
G75*
G02*
X120895000Y-74582000I200000J0D01*
G01*
X121295000Y-74582000D01*
G75*
G02*
X121495000Y-74782000I0J-200000D01*
G01*
G37*
G04 #@! TD.AperFunction*
G04 #@! TA.AperFunction,SMDPad,CuDef*
G36*
G01*
X123145000Y-74782000D02*
X123145000Y-75332000D01*
G75*
G02*
X122945000Y-75532000I-200000J0D01*
G01*
X122545000Y-75532000D01*
G75*
G02*
X122345000Y-75332000I0J200000D01*
G01*
X122345000Y-74782000D01*
G75*
G02*
X122545000Y-74582000I200000J0D01*
G01*
X122945000Y-74582000D01*
G75*
G02*
X123145000Y-74782000I0J-200000D01*
G01*
G37*
G04 #@! TD.AperFunction*
D13*
X156690060Y-83820000D03*
X159230060Y-83820000D03*
X156690060Y-86360000D03*
X159230060Y-86360000D03*
X156690060Y-88900000D03*
D14*
X159230060Y-88900000D03*
D15*
X167897175Y-101702870D03*
X168397301Y-101702870D03*
X168897427Y-101702870D03*
X169397553Y-101702870D03*
X169897679Y-101702870D03*
X170397805Y-101702870D03*
X170897931Y-101702870D03*
X171398057Y-101702870D03*
X171898183Y-101702870D03*
X172398309Y-101702870D03*
X172898435Y-101702870D03*
X173398561Y-101702870D03*
X173898687Y-101702870D03*
X174398813Y-101702870D03*
X174898939Y-101702870D03*
X175399065Y-101702870D03*
X175899191Y-101702870D03*
X176399317Y-101702870D03*
X176899443Y-101702870D03*
X177399569Y-101702870D03*
X177899695Y-101702870D03*
X178399821Y-101702870D03*
X178899947Y-101702870D03*
X179400073Y-101702870D03*
X179900199Y-101702870D03*
X180400325Y-101702870D03*
X180900451Y-101702870D03*
X181400577Y-101702870D03*
X181900703Y-101702870D03*
X182400829Y-101702870D03*
X182900955Y-101702870D03*
X183401081Y-101702870D03*
X183901207Y-101702870D03*
X184401333Y-101702870D03*
X184901459Y-101702870D03*
X185401585Y-101702870D03*
D16*
X187425330Y-99679125D03*
X187425330Y-99178999D03*
X187425330Y-98678873D03*
X187425330Y-98178747D03*
X187425330Y-97678621D03*
X187425330Y-97178495D03*
X187425330Y-96678369D03*
X187425330Y-96178243D03*
X187425330Y-95678117D03*
X187425330Y-95177991D03*
X187425330Y-94677865D03*
X187425330Y-94177739D03*
X187425330Y-93677613D03*
X187425330Y-93177487D03*
X187425330Y-92677361D03*
X187425330Y-92177235D03*
X187425330Y-91677109D03*
X187425330Y-91176983D03*
X187425330Y-90676857D03*
X187425330Y-90176731D03*
X187425330Y-89676605D03*
X187425330Y-89176479D03*
X187425330Y-88676353D03*
X187425330Y-88176227D03*
X187425330Y-87676101D03*
X187425330Y-87175975D03*
X187425330Y-86675849D03*
X187425330Y-86175723D03*
X187425330Y-85675597D03*
X187425330Y-85175471D03*
X187425330Y-84675345D03*
X187425330Y-84175219D03*
X187425330Y-83675093D03*
X187425330Y-83174967D03*
X187425330Y-82674841D03*
X187425330Y-82174715D03*
D15*
X185401585Y-80150970D03*
X184901459Y-80150970D03*
X184401333Y-80150970D03*
X183901207Y-80150970D03*
X183401081Y-80150970D03*
X182900955Y-80150970D03*
X182400829Y-80150970D03*
X181900703Y-80150970D03*
X181400577Y-80150970D03*
X180900451Y-80150970D03*
X180400325Y-80150970D03*
X179900199Y-80150970D03*
X179400073Y-80150970D03*
X178899947Y-80150970D03*
X178399821Y-80150970D03*
X177899695Y-80150970D03*
X177399569Y-80150970D03*
X176899443Y-80150970D03*
X176399317Y-80150970D03*
X175899191Y-80150970D03*
X175399065Y-80150970D03*
X174898939Y-80150970D03*
X174398813Y-80150970D03*
X173898687Y-80150970D03*
X173398561Y-80150970D03*
X172898435Y-80150970D03*
X172398309Y-80150970D03*
X171898183Y-80150970D03*
X171398057Y-80150970D03*
X170897931Y-80150970D03*
X170397805Y-80150970D03*
X169897679Y-80150970D03*
X169397553Y-80150970D03*
X168897427Y-80150970D03*
X168397301Y-80150970D03*
X167897175Y-80150970D03*
D16*
X165873430Y-82174715D03*
X165873430Y-82674841D03*
X165873430Y-83174967D03*
X165873430Y-83675093D03*
X165873430Y-84175219D03*
X165873430Y-84675345D03*
X165873430Y-85175471D03*
X165873430Y-85675597D03*
X165873430Y-86175723D03*
X165873430Y-86675849D03*
X165873430Y-87175975D03*
X165873430Y-87676101D03*
X165873430Y-88176227D03*
X165873430Y-88676353D03*
X165873430Y-89176479D03*
X165873430Y-89676605D03*
X165873430Y-90176731D03*
X165873430Y-90676857D03*
X165873430Y-91176983D03*
X165873430Y-91677109D03*
X165873430Y-92177235D03*
X165873430Y-92677361D03*
X165873430Y-93177487D03*
X165873430Y-93677613D03*
X165873430Y-94177739D03*
X165873430Y-94677865D03*
X165873430Y-95177991D03*
X165873430Y-95678117D03*
X165873430Y-96178243D03*
X165873430Y-96678369D03*
X165873430Y-97178495D03*
X165873430Y-97678621D03*
X165873430Y-98178747D03*
X165873430Y-98678873D03*
X165873430Y-99178999D03*
X165873430Y-99679125D03*
G04 #@! TA.AperFunction,SMDPad,CuDef*
G36*
G01*
X164807180Y-107397360D02*
X164807180Y-106897360D01*
G75*
G02*
X165032180Y-106672360I225000J0D01*
G01*
X165482180Y-106672360D01*
G75*
G02*
X165707180Y-106897360I0J-225000D01*
G01*
X165707180Y-107397360D01*
G75*
G02*
X165482180Y-107622360I-225000J0D01*
G01*
X165032180Y-107622360D01*
G75*
G02*
X164807180Y-107397360I0J225000D01*
G01*
G37*
G04 #@! TD.AperFunction*
G04 #@! TA.AperFunction,SMDPad,CuDef*
G36*
G01*
X166357180Y-107397360D02*
X166357180Y-106897360D01*
G75*
G02*
X166582180Y-106672360I225000J0D01*
G01*
X167032180Y-106672360D01*
G75*
G02*
X167257180Y-106897360I0J-225000D01*
G01*
X167257180Y-107397360D01*
G75*
G02*
X167032180Y-107622360I-225000J0D01*
G01*
X166582180Y-107622360D01*
G75*
G02*
X166357180Y-107397360I0J225000D01*
G01*
G37*
G04 #@! TD.AperFunction*
G04 #@! TA.AperFunction,SMDPad,CuDef*
G36*
G01*
X147993920Y-101161260D02*
X147993920Y-100611260D01*
G75*
G02*
X148193920Y-100411260I200000J0D01*
G01*
X148593920Y-100411260D01*
G75*
G02*
X148793920Y-100611260I0J-200000D01*
G01*
X148793920Y-101161260D01*
G75*
G02*
X148593920Y-101361260I-200000J0D01*
G01*
X148193920Y-101361260D01*
G75*
G02*
X147993920Y-101161260I0J200000D01*
G01*
G37*
G04 #@! TD.AperFunction*
G04 #@! TA.AperFunction,SMDPad,CuDef*
G36*
G01*
X146343920Y-101161260D02*
X146343920Y-100611260D01*
G75*
G02*
X146543920Y-100411260I200000J0D01*
G01*
X146943920Y-100411260D01*
G75*
G02*
X147143920Y-100611260I0J-200000D01*
G01*
X147143920Y-101161260D01*
G75*
G02*
X146943920Y-101361260I-200000J0D01*
G01*
X146543920Y-101361260D01*
G75*
G02*
X146343920Y-101161260I0J200000D01*
G01*
G37*
G04 #@! TD.AperFunction*
G04 #@! TA.AperFunction,SMDPad,CuDef*
G36*
G01*
X147993920Y-99677900D02*
X147993920Y-99127900D01*
G75*
G02*
X148193920Y-98927900I200000J0D01*
G01*
X148593920Y-98927900D01*
G75*
G02*
X148793920Y-99127900I0J-200000D01*
G01*
X148793920Y-99677900D01*
G75*
G02*
X148593920Y-99877900I-200000J0D01*
G01*
X148193920Y-99877900D01*
G75*
G02*
X147993920Y-99677900I0J200000D01*
G01*
G37*
G04 #@! TD.AperFunction*
G04 #@! TA.AperFunction,SMDPad,CuDef*
G36*
G01*
X146343920Y-99677900D02*
X146343920Y-99127900D01*
G75*
G02*
X146543920Y-98927900I200000J0D01*
G01*
X146943920Y-98927900D01*
G75*
G02*
X147143920Y-99127900I0J-200000D01*
G01*
X147143920Y-99677900D01*
G75*
G02*
X146943920Y-99877900I-200000J0D01*
G01*
X146543920Y-99877900D01*
G75*
G02*
X146343920Y-99677900I0J200000D01*
G01*
G37*
G04 #@! TD.AperFunction*
G04 #@! TA.AperFunction,SMDPad,CuDef*
G36*
G01*
X132950400Y-116234800D02*
X132950400Y-116784800D01*
G75*
G02*
X132750400Y-116984800I-200000J0D01*
G01*
X132350400Y-116984800D01*
G75*
G02*
X132150400Y-116784800I0J200000D01*
G01*
X132150400Y-116234800D01*
G75*
G02*
X132350400Y-116034800I200000J0D01*
G01*
X132750400Y-116034800D01*
G75*
G02*
X132950400Y-116234800I0J-200000D01*
G01*
G37*
G04 #@! TD.AperFunction*
G04 #@! TA.AperFunction,SMDPad,CuDef*
G36*
G01*
X134600400Y-116234800D02*
X134600400Y-116784800D01*
G75*
G02*
X134400400Y-116984800I-200000J0D01*
G01*
X134000400Y-116984800D01*
G75*
G02*
X133800400Y-116784800I0J200000D01*
G01*
X133800400Y-116234800D01*
G75*
G02*
X134000400Y-116034800I200000J0D01*
G01*
X134400400Y-116034800D01*
G75*
G02*
X134600400Y-116234800I0J-200000D01*
G01*
G37*
G04 #@! TD.AperFunction*
D17*
X150110000Y-112994400D03*
X150610000Y-112994400D03*
X150610000Y-114894400D03*
X149610000Y-114894400D03*
X149110000Y-114894400D03*
D18*
X149860000Y-113944400D03*
D19*
X150360000Y-113944400D03*
X149360000Y-113944400D03*
D17*
X149110000Y-112994400D03*
X149610000Y-112994400D03*
X150110000Y-114894400D03*
X145074400Y-112994400D03*
X145574400Y-112994400D03*
X145574400Y-114894400D03*
X144574400Y-114894400D03*
X144074400Y-114894400D03*
D18*
X144824400Y-113944400D03*
D19*
X145324400Y-113944400D03*
X144324400Y-113944400D03*
D17*
X144074400Y-112994400D03*
X144574400Y-112994400D03*
X145074400Y-114894400D03*
D20*
X150960000Y-110490000D03*
X148760000Y-110490000D03*
X145930800Y-110490000D03*
X143730800Y-110490000D03*
D21*
X140952400Y-106974600D03*
X140952400Y-108874600D03*
X138752400Y-108874600D03*
X138752400Y-107924600D03*
X138752400Y-106974600D03*
D22*
X134594600Y-92333200D03*
X134594600Y-96033200D03*
X181864000Y-113000400D03*
X181864000Y-109300400D03*
D23*
X132323840Y-109204760D03*
X131053840Y-109204760D03*
X129783840Y-109204760D03*
X128513840Y-109204760D03*
X127243840Y-109204760D03*
X127243840Y-107934760D03*
X128513840Y-107934760D03*
X129783840Y-107934760D03*
X131053840Y-107934760D03*
X132323840Y-107934760D03*
D24*
X151567600Y-95859600D03*
X155467600Y-95859600D03*
X151567600Y-97129600D03*
X155467600Y-97129600D03*
X151567600Y-98399600D03*
X155467600Y-98399600D03*
X151567600Y-99669600D03*
X155467600Y-99669600D03*
X151567600Y-100939600D03*
X155467600Y-100939600D03*
D13*
X130589020Y-104231440D03*
D14*
X128049020Y-104231440D03*
G04 #@! TA.AperFunction,SMDPad,CuDef*
G36*
G01*
X139171000Y-94303400D02*
X139721000Y-94303400D01*
G75*
G02*
X139921000Y-94503400I0J-200000D01*
G01*
X139921000Y-94903400D01*
G75*
G02*
X139721000Y-95103400I-200000J0D01*
G01*
X139171000Y-95103400D01*
G75*
G02*
X138971000Y-94903400I0J200000D01*
G01*
X138971000Y-94503400D01*
G75*
G02*
X139171000Y-94303400I200000J0D01*
G01*
G37*
G04 #@! TD.AperFunction*
G04 #@! TA.AperFunction,SMDPad,CuDef*
G36*
G01*
X139171000Y-92653400D02*
X139721000Y-92653400D01*
G75*
G02*
X139921000Y-92853400I0J-200000D01*
G01*
X139921000Y-93253400D01*
G75*
G02*
X139721000Y-93453400I-200000J0D01*
G01*
X139171000Y-93453400D01*
G75*
G02*
X138971000Y-93253400I0J200000D01*
G01*
X138971000Y-92853400D01*
G75*
G02*
X139171000Y-92653400I200000J0D01*
G01*
G37*
G04 #@! TD.AperFunction*
G04 #@! TA.AperFunction,SMDPad,CuDef*
G36*
G01*
X142323000Y-83697400D02*
X142323000Y-84247400D01*
G75*
G02*
X142123000Y-84447400I-200000J0D01*
G01*
X141723000Y-84447400D01*
G75*
G02*
X141523000Y-84247400I0J200000D01*
G01*
X141523000Y-83697400D01*
G75*
G02*
X141723000Y-83497400I200000J0D01*
G01*
X142123000Y-83497400D01*
G75*
G02*
X142323000Y-83697400I0J-200000D01*
G01*
G37*
G04 #@! TD.AperFunction*
G04 #@! TA.AperFunction,SMDPad,CuDef*
G36*
G01*
X143973000Y-83697400D02*
X143973000Y-84247400D01*
G75*
G02*
X143773000Y-84447400I-200000J0D01*
G01*
X143373000Y-84447400D01*
G75*
G02*
X143173000Y-84247400I0J200000D01*
G01*
X143173000Y-83697400D01*
G75*
G02*
X143373000Y-83497400I200000J0D01*
G01*
X143773000Y-83497400D01*
G75*
G02*
X143973000Y-83697400I0J-200000D01*
G01*
G37*
G04 #@! TD.AperFunction*
G04 #@! TA.AperFunction,SMDPad,CuDef*
G36*
G01*
X143173000Y-87371600D02*
X143173000Y-86821600D01*
G75*
G02*
X143373000Y-86621600I200000J0D01*
G01*
X143773000Y-86621600D01*
G75*
G02*
X143973000Y-86821600I0J-200000D01*
G01*
X143973000Y-87371600D01*
G75*
G02*
X143773000Y-87571600I-200000J0D01*
G01*
X143373000Y-87571600D01*
G75*
G02*
X143173000Y-87371600I0J200000D01*
G01*
G37*
G04 #@! TD.AperFunction*
G04 #@! TA.AperFunction,SMDPad,CuDef*
G36*
G01*
X141523000Y-87371600D02*
X141523000Y-86821600D01*
G75*
G02*
X141723000Y-86621600I200000J0D01*
G01*
X142123000Y-86621600D01*
G75*
G02*
X142323000Y-86821600I0J-200000D01*
G01*
X142323000Y-87371600D01*
G75*
G02*
X142123000Y-87571600I-200000J0D01*
G01*
X141723000Y-87571600D01*
G75*
G02*
X141523000Y-87371600I0J200000D01*
G01*
G37*
G04 #@! TD.AperFunction*
G04 #@! TA.AperFunction,SMDPad,CuDef*
G36*
G01*
X143173000Y-88895600D02*
X143173000Y-88345600D01*
G75*
G02*
X143373000Y-88145600I200000J0D01*
G01*
X143773000Y-88145600D01*
G75*
G02*
X143973000Y-88345600I0J-200000D01*
G01*
X143973000Y-88895600D01*
G75*
G02*
X143773000Y-89095600I-200000J0D01*
G01*
X143373000Y-89095600D01*
G75*
G02*
X143173000Y-88895600I0J200000D01*
G01*
G37*
G04 #@! TD.AperFunction*
G04 #@! TA.AperFunction,SMDPad,CuDef*
G36*
G01*
X141523000Y-88895600D02*
X141523000Y-88345600D01*
G75*
G02*
X141723000Y-88145600I200000J0D01*
G01*
X142123000Y-88145600D01*
G75*
G02*
X142323000Y-88345600I0J-200000D01*
G01*
X142323000Y-88895600D01*
G75*
G02*
X142123000Y-89095600I-200000J0D01*
G01*
X141723000Y-89095600D01*
G75*
G02*
X141523000Y-88895600I0J200000D01*
G01*
G37*
G04 #@! TD.AperFunction*
G04 #@! TA.AperFunction,SMDPad,CuDef*
G36*
G01*
X143198400Y-94991600D02*
X143198400Y-94441600D01*
G75*
G02*
X143398400Y-94241600I200000J0D01*
G01*
X143798400Y-94241600D01*
G75*
G02*
X143998400Y-94441600I0J-200000D01*
G01*
X143998400Y-94991600D01*
G75*
G02*
X143798400Y-95191600I-200000J0D01*
G01*
X143398400Y-95191600D01*
G75*
G02*
X143198400Y-94991600I0J200000D01*
G01*
G37*
G04 #@! TD.AperFunction*
G04 #@! TA.AperFunction,SMDPad,CuDef*
G36*
G01*
X141548400Y-94991600D02*
X141548400Y-94441600D01*
G75*
G02*
X141748400Y-94241600I200000J0D01*
G01*
X142148400Y-94241600D01*
G75*
G02*
X142348400Y-94441600I0J-200000D01*
G01*
X142348400Y-94991600D01*
G75*
G02*
X142148400Y-95191600I-200000J0D01*
G01*
X141748400Y-95191600D01*
G75*
G02*
X141548400Y-94991600I0J200000D01*
G01*
G37*
G04 #@! TD.AperFunction*
G04 #@! TA.AperFunction,SMDPad,CuDef*
G36*
G01*
X143185200Y-93442200D02*
X143185200Y-92892200D01*
G75*
G02*
X143385200Y-92692200I200000J0D01*
G01*
X143785200Y-92692200D01*
G75*
G02*
X143985200Y-92892200I0J-200000D01*
G01*
X143985200Y-93442200D01*
G75*
G02*
X143785200Y-93642200I-200000J0D01*
G01*
X143385200Y-93642200D01*
G75*
G02*
X143185200Y-93442200I0J200000D01*
G01*
G37*
G04 #@! TD.AperFunction*
G04 #@! TA.AperFunction,SMDPad,CuDef*
G36*
G01*
X141535200Y-93442200D02*
X141535200Y-92892200D01*
G75*
G02*
X141735200Y-92692200I200000J0D01*
G01*
X142135200Y-92692200D01*
G75*
G02*
X142335200Y-92892200I0J-200000D01*
G01*
X142335200Y-93442200D01*
G75*
G02*
X142135200Y-93642200I-200000J0D01*
G01*
X141735200Y-93642200D01*
G75*
G02*
X141535200Y-93442200I0J200000D01*
G01*
G37*
G04 #@! TD.AperFunction*
G04 #@! TA.AperFunction,SMDPad,CuDef*
G36*
G01*
X194566400Y-94591000D02*
X194866400Y-94591000D01*
G75*
G02*
X195016400Y-94741000I0J-150000D01*
G01*
X195016400Y-96391000D01*
G75*
G02*
X194866400Y-96541000I-150000J0D01*
G01*
X194566400Y-96541000D01*
G75*
G02*
X194416400Y-96391000I0J150000D01*
G01*
X194416400Y-94741000D01*
G75*
G02*
X194566400Y-94591000I150000J0D01*
G01*
G37*
G04 #@! TD.AperFunction*
G04 #@! TA.AperFunction,SMDPad,CuDef*
G36*
G01*
X193296400Y-94591000D02*
X193596400Y-94591000D01*
G75*
G02*
X193746400Y-94741000I0J-150000D01*
G01*
X193746400Y-96391000D01*
G75*
G02*
X193596400Y-96541000I-150000J0D01*
G01*
X193296400Y-96541000D01*
G75*
G02*
X193146400Y-96391000I0J150000D01*
G01*
X193146400Y-94741000D01*
G75*
G02*
X193296400Y-94591000I150000J0D01*
G01*
G37*
G04 #@! TD.AperFunction*
G04 #@! TA.AperFunction,SMDPad,CuDef*
G36*
G01*
X192026400Y-94591000D02*
X192326400Y-94591000D01*
G75*
G02*
X192476400Y-94741000I0J-150000D01*
G01*
X192476400Y-96391000D01*
G75*
G02*
X192326400Y-96541000I-150000J0D01*
G01*
X192026400Y-96541000D01*
G75*
G02*
X191876400Y-96391000I0J150000D01*
G01*
X191876400Y-94741000D01*
G75*
G02*
X192026400Y-94591000I150000J0D01*
G01*
G37*
G04 #@! TD.AperFunction*
G04 #@! TA.AperFunction,SMDPad,CuDef*
G36*
G01*
X190756400Y-94591000D02*
X191056400Y-94591000D01*
G75*
G02*
X191206400Y-94741000I0J-150000D01*
G01*
X191206400Y-96391000D01*
G75*
G02*
X191056400Y-96541000I-150000J0D01*
G01*
X190756400Y-96541000D01*
G75*
G02*
X190606400Y-96391000I0J150000D01*
G01*
X190606400Y-94741000D01*
G75*
G02*
X190756400Y-94591000I150000J0D01*
G01*
G37*
G04 #@! TD.AperFunction*
G04 #@! TA.AperFunction,SMDPad,CuDef*
G36*
G01*
X190756400Y-89641000D02*
X191056400Y-89641000D01*
G75*
G02*
X191206400Y-89791000I0J-150000D01*
G01*
X191206400Y-91441000D01*
G75*
G02*
X191056400Y-91591000I-150000J0D01*
G01*
X190756400Y-91591000D01*
G75*
G02*
X190606400Y-91441000I0J150000D01*
G01*
X190606400Y-89791000D01*
G75*
G02*
X190756400Y-89641000I150000J0D01*
G01*
G37*
G04 #@! TD.AperFunction*
G04 #@! TA.AperFunction,SMDPad,CuDef*
G36*
G01*
X192026400Y-89641000D02*
X192326400Y-89641000D01*
G75*
G02*
X192476400Y-89791000I0J-150000D01*
G01*
X192476400Y-91441000D01*
G75*
G02*
X192326400Y-91591000I-150000J0D01*
G01*
X192026400Y-91591000D01*
G75*
G02*
X191876400Y-91441000I0J150000D01*
G01*
X191876400Y-89791000D01*
G75*
G02*
X192026400Y-89641000I150000J0D01*
G01*
G37*
G04 #@! TD.AperFunction*
G04 #@! TA.AperFunction,SMDPad,CuDef*
G36*
G01*
X193296400Y-89641000D02*
X193596400Y-89641000D01*
G75*
G02*
X193746400Y-89791000I0J-150000D01*
G01*
X193746400Y-91441000D01*
G75*
G02*
X193596400Y-91591000I-150000J0D01*
G01*
X193296400Y-91591000D01*
G75*
G02*
X193146400Y-91441000I0J150000D01*
G01*
X193146400Y-89791000D01*
G75*
G02*
X193296400Y-89641000I150000J0D01*
G01*
G37*
G04 #@! TD.AperFunction*
G04 #@! TA.AperFunction,SMDPad,CuDef*
G36*
G01*
X194566400Y-89641000D02*
X194866400Y-89641000D01*
G75*
G02*
X195016400Y-89791000I0J-150000D01*
G01*
X195016400Y-91441000D01*
G75*
G02*
X194866400Y-91591000I-150000J0D01*
G01*
X194566400Y-91591000D01*
G75*
G02*
X194416400Y-91441000I0J150000D01*
G01*
X194416400Y-89791000D01*
G75*
G02*
X194566400Y-89641000I150000J0D01*
G01*
G37*
G04 #@! TD.AperFunction*
G04 #@! TA.AperFunction,SMDPad,CuDef*
G36*
G01*
X193604000Y-97590800D02*
X193604000Y-98090800D01*
G75*
G02*
X193379000Y-98315800I-225000J0D01*
G01*
X192929000Y-98315800D01*
G75*
G02*
X192704000Y-98090800I0J225000D01*
G01*
X192704000Y-97590800D01*
G75*
G02*
X192929000Y-97365800I225000J0D01*
G01*
X193379000Y-97365800D01*
G75*
G02*
X193604000Y-97590800I0J-225000D01*
G01*
G37*
G04 #@! TD.AperFunction*
G04 #@! TA.AperFunction,SMDPad,CuDef*
G36*
G01*
X195154000Y-97590800D02*
X195154000Y-98090800D01*
G75*
G02*
X194929000Y-98315800I-225000J0D01*
G01*
X194479000Y-98315800D01*
G75*
G02*
X194254000Y-98090800I0J225000D01*
G01*
X194254000Y-97590800D01*
G75*
G02*
X194479000Y-97365800I225000J0D01*
G01*
X194929000Y-97365800D01*
G75*
G02*
X195154000Y-97590800I0J-225000D01*
G01*
G37*
G04 #@! TD.AperFunction*
G04 #@! TA.AperFunction,SMDPad,CuDef*
G36*
G01*
X164814800Y-109110920D02*
X164814800Y-108810920D01*
G75*
G02*
X164964800Y-108660920I150000J0D01*
G01*
X166264800Y-108660920D01*
G75*
G02*
X166414800Y-108810920I0J-150000D01*
G01*
X166414800Y-109110920D01*
G75*
G02*
X166264800Y-109260920I-150000J0D01*
G01*
X164964800Y-109260920D01*
G75*
G02*
X164814800Y-109110920I0J150000D01*
G01*
G37*
G04 #@! TD.AperFunction*
G04 #@! TA.AperFunction,SMDPad,CuDef*
G36*
G01*
X164814800Y-110380920D02*
X164814800Y-110080920D01*
G75*
G02*
X164964800Y-109930920I150000J0D01*
G01*
X166264800Y-109930920D01*
G75*
G02*
X166414800Y-110080920I0J-150000D01*
G01*
X166414800Y-110380920D01*
G75*
G02*
X166264800Y-110530920I-150000J0D01*
G01*
X164964800Y-110530920D01*
G75*
G02*
X164814800Y-110380920I0J150000D01*
G01*
G37*
G04 #@! TD.AperFunction*
G04 #@! TA.AperFunction,SMDPad,CuDef*
G36*
G01*
X164814800Y-111650920D02*
X164814800Y-111350920D01*
G75*
G02*
X164964800Y-111200920I150000J0D01*
G01*
X166264800Y-111200920D01*
G75*
G02*
X166414800Y-111350920I0J-150000D01*
G01*
X166414800Y-111650920D01*
G75*
G02*
X166264800Y-111800920I-150000J0D01*
G01*
X164964800Y-111800920D01*
G75*
G02*
X164814800Y-111650920I0J150000D01*
G01*
G37*
G04 #@! TD.AperFunction*
G04 #@! TA.AperFunction,SMDPad,CuDef*
G36*
G01*
X164814800Y-112920920D02*
X164814800Y-112620920D01*
G75*
G02*
X164964800Y-112470920I150000J0D01*
G01*
X166264800Y-112470920D01*
G75*
G02*
X166414800Y-112620920I0J-150000D01*
G01*
X166414800Y-112920920D01*
G75*
G02*
X166264800Y-113070920I-150000J0D01*
G01*
X164964800Y-113070920D01*
G75*
G02*
X164814800Y-112920920I0J150000D01*
G01*
G37*
G04 #@! TD.AperFunction*
G04 #@! TA.AperFunction,SMDPad,CuDef*
G36*
G01*
X172014800Y-112920920D02*
X172014800Y-112620920D01*
G75*
G02*
X172164800Y-112470920I150000J0D01*
G01*
X173464800Y-112470920D01*
G75*
G02*
X173614800Y-112620920I0J-150000D01*
G01*
X173614800Y-112920920D01*
G75*
G02*
X173464800Y-113070920I-150000J0D01*
G01*
X172164800Y-113070920D01*
G75*
G02*
X172014800Y-112920920I0J150000D01*
G01*
G37*
G04 #@! TD.AperFunction*
G04 #@! TA.AperFunction,SMDPad,CuDef*
G36*
G01*
X172014800Y-111650920D02*
X172014800Y-111350920D01*
G75*
G02*
X172164800Y-111200920I150000J0D01*
G01*
X173464800Y-111200920D01*
G75*
G02*
X173614800Y-111350920I0J-150000D01*
G01*
X173614800Y-111650920D01*
G75*
G02*
X173464800Y-111800920I-150000J0D01*
G01*
X172164800Y-111800920D01*
G75*
G02*
X172014800Y-111650920I0J150000D01*
G01*
G37*
G04 #@! TD.AperFunction*
G04 #@! TA.AperFunction,SMDPad,CuDef*
G36*
G01*
X172014800Y-110380920D02*
X172014800Y-110080920D01*
G75*
G02*
X172164800Y-109930920I150000J0D01*
G01*
X173464800Y-109930920D01*
G75*
G02*
X173614800Y-110080920I0J-150000D01*
G01*
X173614800Y-110380920D01*
G75*
G02*
X173464800Y-110530920I-150000J0D01*
G01*
X172164800Y-110530920D01*
G75*
G02*
X172014800Y-110380920I0J150000D01*
G01*
G37*
G04 #@! TD.AperFunction*
G04 #@! TA.AperFunction,SMDPad,CuDef*
G36*
G01*
X172014800Y-109110920D02*
X172014800Y-108810920D01*
G75*
G02*
X172164800Y-108660920I150000J0D01*
G01*
X173464800Y-108660920D01*
G75*
G02*
X173614800Y-108810920I0J-150000D01*
G01*
X173614800Y-109110920D01*
G75*
G02*
X173464800Y-109260920I-150000J0D01*
G01*
X172164800Y-109260920D01*
G75*
G02*
X172014800Y-109110920I0J150000D01*
G01*
G37*
G04 #@! TD.AperFunction*
G04 #@! TA.AperFunction,SMDPad,CuDef*
G36*
G01*
X181860380Y-103113120D02*
X182360380Y-103113120D01*
G75*
G02*
X182585380Y-103338120I0J-225000D01*
G01*
X182585380Y-103788120D01*
G75*
G02*
X182360380Y-104013120I-225000J0D01*
G01*
X181860380Y-104013120D01*
G75*
G02*
X181635380Y-103788120I0J225000D01*
G01*
X181635380Y-103338120D01*
G75*
G02*
X181860380Y-103113120I225000J0D01*
G01*
G37*
G04 #@! TD.AperFunction*
G04 #@! TA.AperFunction,SMDPad,CuDef*
G36*
G01*
X181860380Y-104663120D02*
X182360380Y-104663120D01*
G75*
G02*
X182585380Y-104888120I0J-225000D01*
G01*
X182585380Y-105338120D01*
G75*
G02*
X182360380Y-105563120I-225000J0D01*
G01*
X181860380Y-105563120D01*
G75*
G02*
X181635380Y-105338120I0J225000D01*
G01*
X181635380Y-104888120D01*
G75*
G02*
X181860380Y-104663120I225000J0D01*
G01*
G37*
G04 #@! TD.AperFunction*
G04 #@! TA.AperFunction,SMDPad,CuDef*
G36*
G01*
X180175980Y-78334320D02*
X179675980Y-78334320D01*
G75*
G02*
X179450980Y-78109320I0J225000D01*
G01*
X179450980Y-77659320D01*
G75*
G02*
X179675980Y-77434320I225000J0D01*
G01*
X180175980Y-77434320D01*
G75*
G02*
X180400980Y-77659320I0J-225000D01*
G01*
X180400980Y-78109320D01*
G75*
G02*
X180175980Y-78334320I-225000J0D01*
G01*
G37*
G04 #@! TD.AperFunction*
G04 #@! TA.AperFunction,SMDPad,CuDef*
G36*
G01*
X180175980Y-76784320D02*
X179675980Y-76784320D01*
G75*
G02*
X179450980Y-76559320I0J225000D01*
G01*
X179450980Y-76109320D01*
G75*
G02*
X179675980Y-75884320I225000J0D01*
G01*
X180175980Y-75884320D01*
G75*
G02*
X180400980Y-76109320I0J-225000D01*
G01*
X180400980Y-76559320D01*
G75*
G02*
X180175980Y-76784320I-225000J0D01*
G01*
G37*
G04 #@! TD.AperFunction*
G04 #@! TA.AperFunction,SMDPad,CuDef*
G36*
G01*
X174664180Y-78359720D02*
X174164180Y-78359720D01*
G75*
G02*
X173939180Y-78134720I0J225000D01*
G01*
X173939180Y-77684720D01*
G75*
G02*
X174164180Y-77459720I225000J0D01*
G01*
X174664180Y-77459720D01*
G75*
G02*
X174889180Y-77684720I0J-225000D01*
G01*
X174889180Y-78134720D01*
G75*
G02*
X174664180Y-78359720I-225000J0D01*
G01*
G37*
G04 #@! TD.AperFunction*
G04 #@! TA.AperFunction,SMDPad,CuDef*
G36*
G01*
X174664180Y-76809720D02*
X174164180Y-76809720D01*
G75*
G02*
X173939180Y-76584720I0J225000D01*
G01*
X173939180Y-76134720D01*
G75*
G02*
X174164180Y-75909720I225000J0D01*
G01*
X174664180Y-75909720D01*
G75*
G02*
X174889180Y-76134720I0J-225000D01*
G01*
X174889180Y-76584720D01*
G75*
G02*
X174664180Y-76809720I-225000J0D01*
G01*
G37*
G04 #@! TD.AperFunction*
G04 #@! TA.AperFunction,SMDPad,CuDef*
G36*
G01*
X188962580Y-87417720D02*
X188962580Y-86917720D01*
G75*
G02*
X189187580Y-86692720I225000J0D01*
G01*
X189637580Y-86692720D01*
G75*
G02*
X189862580Y-86917720I0J-225000D01*
G01*
X189862580Y-87417720D01*
G75*
G02*
X189637580Y-87642720I-225000J0D01*
G01*
X189187580Y-87642720D01*
G75*
G02*
X188962580Y-87417720I0J225000D01*
G01*
G37*
G04 #@! TD.AperFunction*
G04 #@! TA.AperFunction,SMDPad,CuDef*
G36*
G01*
X190512580Y-87417720D02*
X190512580Y-86917720D01*
G75*
G02*
X190737580Y-86692720I225000J0D01*
G01*
X191187580Y-86692720D01*
G75*
G02*
X191412580Y-86917720I0J-225000D01*
G01*
X191412580Y-87417720D01*
G75*
G02*
X191187580Y-87642720I-225000J0D01*
G01*
X190737580Y-87642720D01*
G75*
G02*
X190512580Y-87417720I0J225000D01*
G01*
G37*
G04 #@! TD.AperFunction*
G04 #@! TA.AperFunction,SMDPad,CuDef*
G36*
G01*
X164310780Y-87959120D02*
X164310780Y-88459120D01*
G75*
G02*
X164085780Y-88684120I-225000J0D01*
G01*
X163635780Y-88684120D01*
G75*
G02*
X163410780Y-88459120I0J225000D01*
G01*
X163410780Y-87959120D01*
G75*
G02*
X163635780Y-87734120I225000J0D01*
G01*
X164085780Y-87734120D01*
G75*
G02*
X164310780Y-87959120I0J-225000D01*
G01*
G37*
G04 #@! TD.AperFunction*
G04 #@! TA.AperFunction,SMDPad,CuDef*
G36*
G01*
X162760780Y-87959120D02*
X162760780Y-88459120D01*
G75*
G02*
X162535780Y-88684120I-225000J0D01*
G01*
X162085780Y-88684120D01*
G75*
G02*
X161860780Y-88459120I0J225000D01*
G01*
X161860780Y-87959120D01*
G75*
G02*
X162085780Y-87734120I225000J0D01*
G01*
X162535780Y-87734120D01*
G75*
G02*
X162760780Y-87959120I0J-225000D01*
G01*
G37*
G04 #@! TD.AperFunction*
G04 #@! TA.AperFunction,SMDPad,CuDef*
G36*
G01*
X188934280Y-91718980D02*
X189434280Y-91718980D01*
G75*
G02*
X189659280Y-91943980I0J-225000D01*
G01*
X189659280Y-92393980D01*
G75*
G02*
X189434280Y-92618980I-225000J0D01*
G01*
X188934280Y-92618980D01*
G75*
G02*
X188709280Y-92393980I0J225000D01*
G01*
X188709280Y-91943980D01*
G75*
G02*
X188934280Y-91718980I225000J0D01*
G01*
G37*
G04 #@! TD.AperFunction*
G04 #@! TA.AperFunction,SMDPad,CuDef*
G36*
G01*
X188934280Y-93268980D02*
X189434280Y-93268980D01*
G75*
G02*
X189659280Y-93493980I0J-225000D01*
G01*
X189659280Y-93943980D01*
G75*
G02*
X189434280Y-94168980I-225000J0D01*
G01*
X188934280Y-94168980D01*
G75*
G02*
X188709280Y-93943980I0J225000D01*
G01*
X188709280Y-93493980D01*
G75*
G02*
X188934280Y-93268980I225000J0D01*
G01*
G37*
G04 #@! TD.AperFunction*
G04 #@! TA.AperFunction,SMDPad,CuDef*
G36*
G01*
X164323180Y-92962920D02*
X164323180Y-93462920D01*
G75*
G02*
X164098180Y-93687920I-225000J0D01*
G01*
X163648180Y-93687920D01*
G75*
G02*
X163423180Y-93462920I0J225000D01*
G01*
X163423180Y-92962920D01*
G75*
G02*
X163648180Y-92737920I225000J0D01*
G01*
X164098180Y-92737920D01*
G75*
G02*
X164323180Y-92962920I0J-225000D01*
G01*
G37*
G04 #@! TD.AperFunction*
G04 #@! TA.AperFunction,SMDPad,CuDef*
G36*
G01*
X162773180Y-92962920D02*
X162773180Y-93462920D01*
G75*
G02*
X162548180Y-93687920I-225000J0D01*
G01*
X162098180Y-93687920D01*
G75*
G02*
X161873180Y-93462920I0J225000D01*
G01*
X161873180Y-92962920D01*
G75*
G02*
X162098180Y-92737920I225000J0D01*
G01*
X162548180Y-92737920D01*
G75*
G02*
X162773180Y-92962920I0J-225000D01*
G01*
G37*
G04 #@! TD.AperFunction*
G04 #@! TA.AperFunction,SMDPad,CuDef*
G36*
G01*
X161911580Y-96993120D02*
X161911580Y-96443120D01*
G75*
G02*
X162111580Y-96243120I200000J0D01*
G01*
X162511580Y-96243120D01*
G75*
G02*
X162711580Y-96443120I0J-200000D01*
G01*
X162711580Y-96993120D01*
G75*
G02*
X162511580Y-97193120I-200000J0D01*
G01*
X162111580Y-97193120D01*
G75*
G02*
X161911580Y-96993120I0J200000D01*
G01*
G37*
G04 #@! TD.AperFunction*
G04 #@! TA.AperFunction,SMDPad,CuDef*
G36*
G01*
X163561580Y-96993120D02*
X163561580Y-96443120D01*
G75*
G02*
X163761580Y-96243120I200000J0D01*
G01*
X164161580Y-96243120D01*
G75*
G02*
X164361580Y-96443120I0J-200000D01*
G01*
X164361580Y-96993120D01*
G75*
G02*
X164161580Y-97193120I-200000J0D01*
G01*
X163761580Y-97193120D01*
G75*
G02*
X163561580Y-96993120I0J200000D01*
G01*
G37*
G04 #@! TD.AperFunction*
D13*
X202577700Y-113995200D03*
D14*
X202577700Y-111455200D03*
G04 #@! TA.AperFunction,SMDPad,CuDef*
G36*
G01*
X202366200Y-105936600D02*
X202916200Y-105936600D01*
G75*
G02*
X203116200Y-106136600I0J-200000D01*
G01*
X203116200Y-106536600D01*
G75*
G02*
X202916200Y-106736600I-200000J0D01*
G01*
X202366200Y-106736600D01*
G75*
G02*
X202166200Y-106536600I0J200000D01*
G01*
X202166200Y-106136600D01*
G75*
G02*
X202366200Y-105936600I200000J0D01*
G01*
G37*
G04 #@! TD.AperFunction*
G04 #@! TA.AperFunction,SMDPad,CuDef*
G36*
G01*
X202366200Y-104286600D02*
X202916200Y-104286600D01*
G75*
G02*
X203116200Y-104486600I0J-200000D01*
G01*
X203116200Y-104886600D01*
G75*
G02*
X202916200Y-105086600I-200000J0D01*
G01*
X202366200Y-105086600D01*
G75*
G02*
X202166200Y-104886600I0J200000D01*
G01*
X202166200Y-104486600D01*
G75*
G02*
X202366200Y-104286600I200000J0D01*
G01*
G37*
G04 #@! TD.AperFunction*
G04 #@! TA.AperFunction,SMDPad,CuDef*
G36*
G01*
X202384950Y-102813600D02*
X202897450Y-102813600D01*
G75*
G02*
X203116200Y-103032350I0J-218750D01*
G01*
X203116200Y-103469850D01*
G75*
G02*
X202897450Y-103688600I-218750J0D01*
G01*
X202384950Y-103688600D01*
G75*
G02*
X202166200Y-103469850I0J218750D01*
G01*
X202166200Y-103032350D01*
G75*
G02*
X202384950Y-102813600I218750J0D01*
G01*
G37*
G04 #@! TD.AperFunction*
G04 #@! TA.AperFunction,SMDPad,CuDef*
G36*
G01*
X202384950Y-101238600D02*
X202897450Y-101238600D01*
G75*
G02*
X203116200Y-101457350I0J-218750D01*
G01*
X203116200Y-101894850D01*
G75*
G02*
X202897450Y-102113600I-218750J0D01*
G01*
X202384950Y-102113600D01*
G75*
G02*
X202166200Y-101894850I0J218750D01*
G01*
X202166200Y-101457350D01*
G75*
G02*
X202384950Y-101238600I218750J0D01*
G01*
G37*
G04 #@! TD.AperFunction*
D21*
X140952400Y-110632200D03*
X140952400Y-112532200D03*
X138752400Y-112532200D03*
X138752400Y-111582200D03*
X138752400Y-110632200D03*
G04 #@! TA.AperFunction,SMDPad,CuDef*
G36*
G01*
X135974900Y-114178200D02*
X135474900Y-114178200D01*
G75*
G02*
X135249900Y-113953200I0J225000D01*
G01*
X135249900Y-113503200D01*
G75*
G02*
X135474900Y-113278200I225000J0D01*
G01*
X135974900Y-113278200D01*
G75*
G02*
X136199900Y-113503200I0J-225000D01*
G01*
X136199900Y-113953200D01*
G75*
G02*
X135974900Y-114178200I-225000J0D01*
G01*
G37*
G04 #@! TD.AperFunction*
G04 #@! TA.AperFunction,SMDPad,CuDef*
G36*
G01*
X135974900Y-115728200D02*
X135474900Y-115728200D01*
G75*
G02*
X135249900Y-115503200I0J225000D01*
G01*
X135249900Y-115053200D01*
G75*
G02*
X135474900Y-114828200I225000J0D01*
G01*
X135974900Y-114828200D01*
G75*
G02*
X136199900Y-115053200I0J-225000D01*
G01*
X136199900Y-115503200D01*
G75*
G02*
X135974900Y-115728200I-225000J0D01*
G01*
G37*
G04 #@! TD.AperFunction*
G04 #@! TA.AperFunction,SMDPad,CuDef*
G36*
G01*
X115212150Y-70860400D02*
X115724650Y-70860400D01*
G75*
G02*
X115943400Y-71079150I0J-218750D01*
G01*
X115943400Y-71516650D01*
G75*
G02*
X115724650Y-71735400I-218750J0D01*
G01*
X115212150Y-71735400D01*
G75*
G02*
X114993400Y-71516650I0J218750D01*
G01*
X114993400Y-71079150D01*
G75*
G02*
X115212150Y-70860400I218750J0D01*
G01*
G37*
G04 #@! TD.AperFunction*
G04 #@! TA.AperFunction,SMDPad,CuDef*
G36*
G01*
X115212150Y-69285400D02*
X115724650Y-69285400D01*
G75*
G02*
X115943400Y-69504150I0J-218750D01*
G01*
X115943400Y-69941650D01*
G75*
G02*
X115724650Y-70160400I-218750J0D01*
G01*
X115212150Y-70160400D01*
G75*
G02*
X114993400Y-69941650I0J218750D01*
G01*
X114993400Y-69504150D01*
G75*
G02*
X115212150Y-69285400I218750J0D01*
G01*
G37*
G04 #@! TD.AperFunction*
G04 #@! TA.AperFunction,SMDPad,CuDef*
G36*
G01*
X116971400Y-112794600D02*
X117521400Y-112794600D01*
G75*
G02*
X117721400Y-112994600I0J-200000D01*
G01*
X117721400Y-113394600D01*
G75*
G02*
X117521400Y-113594600I-200000J0D01*
G01*
X116971400Y-113594600D01*
G75*
G02*
X116771400Y-113394600I0J200000D01*
G01*
X116771400Y-112994600D01*
G75*
G02*
X116971400Y-112794600I200000J0D01*
G01*
G37*
G04 #@! TD.AperFunction*
G04 #@! TA.AperFunction,SMDPad,CuDef*
G36*
G01*
X116971400Y-111144600D02*
X117521400Y-111144600D01*
G75*
G02*
X117721400Y-111344600I0J-200000D01*
G01*
X117721400Y-111744600D01*
G75*
G02*
X117521400Y-111944600I-200000J0D01*
G01*
X116971400Y-111944600D01*
G75*
G02*
X116771400Y-111744600I0J200000D01*
G01*
X116771400Y-111344600D01*
G75*
G02*
X116971400Y-111144600I200000J0D01*
G01*
G37*
G04 #@! TD.AperFunction*
G04 #@! TA.AperFunction,SMDPad,CuDef*
G36*
G01*
X115472800Y-112794600D02*
X116022800Y-112794600D01*
G75*
G02*
X116222800Y-112994600I0J-200000D01*
G01*
X116222800Y-113394600D01*
G75*
G02*
X116022800Y-113594600I-200000J0D01*
G01*
X115472800Y-113594600D01*
G75*
G02*
X115272800Y-113394600I0J200000D01*
G01*
X115272800Y-112994600D01*
G75*
G02*
X115472800Y-112794600I200000J0D01*
G01*
G37*
G04 #@! TD.AperFunction*
G04 #@! TA.AperFunction,SMDPad,CuDef*
G36*
G01*
X115472800Y-111144600D02*
X116022800Y-111144600D01*
G75*
G02*
X116222800Y-111344600I0J-200000D01*
G01*
X116222800Y-111744600D01*
G75*
G02*
X116022800Y-111944600I-200000J0D01*
G01*
X115472800Y-111944600D01*
G75*
G02*
X115272800Y-111744600I0J200000D01*
G01*
X115272800Y-111344600D01*
G75*
G02*
X115472800Y-111144600I200000J0D01*
G01*
G37*
G04 #@! TD.AperFunction*
D25*
X111974400Y-111516200D03*
D26*
X113884400Y-112896200D03*
X113884400Y-113396200D03*
X113884400Y-113896200D03*
X113884400Y-114396200D03*
X113884400Y-114896200D03*
X113884400Y-115396200D03*
X113884400Y-115896200D03*
X113884400Y-118396200D03*
X113884400Y-117396200D03*
X113884400Y-116896200D03*
X113884400Y-116396200D03*
X113884400Y-117896200D03*
X112184400Y-118146200D03*
D25*
X111974400Y-119776200D03*
X106024400Y-120136200D03*
X106024400Y-111156200D03*
D26*
X112184400Y-117646200D03*
X112184400Y-117146200D03*
X112184400Y-116646200D03*
X112184400Y-116146200D03*
X112184400Y-115646200D03*
X112184400Y-115146200D03*
X112184400Y-114646200D03*
X112184400Y-114146200D03*
X112184400Y-113646200D03*
X112184400Y-113146200D03*
X112184400Y-112646200D03*
D27*
X122539000Y-112471200D03*
X120539000Y-113421200D03*
X120539000Y-111521200D03*
D28*
X114220400Y-72522800D03*
X114220400Y-76712800D03*
D29*
X109790400Y-69401800D03*
D30*
X112975400Y-69401800D03*
X113545400Y-80051800D03*
D31*
X110935400Y-80051800D03*
D32*
X109665400Y-80036800D03*
D33*
X106985400Y-70576800D03*
X106985400Y-71676800D03*
X106985400Y-72776800D03*
X106985400Y-73876800D03*
X106985400Y-74976800D03*
X106985400Y-76076800D03*
X106985400Y-77176800D03*
X106985400Y-78276800D03*
G04 #@! TA.AperFunction,SMDPad,CuDef*
G36*
G01*
X109138600Y-81733200D02*
X109138600Y-81233200D01*
G75*
G02*
X109363600Y-81008200I225000J0D01*
G01*
X109813600Y-81008200D01*
G75*
G02*
X110038600Y-81233200I0J-225000D01*
G01*
X110038600Y-81733200D01*
G75*
G02*
X109813600Y-81958200I-225000J0D01*
G01*
X109363600Y-81958200D01*
G75*
G02*
X109138600Y-81733200I0J225000D01*
G01*
G37*
G04 #@! TD.AperFunction*
G04 #@! TA.AperFunction,SMDPad,CuDef*
G36*
G01*
X107588600Y-81733200D02*
X107588600Y-81233200D01*
G75*
G02*
X107813600Y-81008200I225000J0D01*
G01*
X108263600Y-81008200D01*
G75*
G02*
X108488600Y-81233200I0J-225000D01*
G01*
X108488600Y-81733200D01*
G75*
G02*
X108263600Y-81958200I-225000J0D01*
G01*
X107813600Y-81958200D01*
G75*
G02*
X107588600Y-81733200I0J225000D01*
G01*
G37*
G04 #@! TD.AperFunction*
D34*
X105708600Y-106960000D03*
D35*
X105708600Y-104260000D03*
D36*
X105708600Y-108785000D03*
X105708600Y-102035000D03*
D37*
X108283600Y-107897500D03*
X108283600Y-102922500D03*
D38*
X108368600Y-106710000D03*
X108368600Y-106060000D03*
X108368600Y-105410000D03*
X108368600Y-104760000D03*
X108368600Y-104110000D03*
G04 #@! TA.AperFunction,SMDPad,CuDef*
G36*
G01*
X142323000Y-85272200D02*
X142323000Y-85822200D01*
G75*
G02*
X142123000Y-86022200I-200000J0D01*
G01*
X141723000Y-86022200D01*
G75*
G02*
X141523000Y-85822200I0J200000D01*
G01*
X141523000Y-85272200D01*
G75*
G02*
X141723000Y-85072200I200000J0D01*
G01*
X142123000Y-85072200D01*
G75*
G02*
X142323000Y-85272200I0J-200000D01*
G01*
G37*
G04 #@! TD.AperFunction*
G04 #@! TA.AperFunction,SMDPad,CuDef*
G36*
G01*
X143973000Y-85272200D02*
X143973000Y-85822200D01*
G75*
G02*
X143773000Y-86022200I-200000J0D01*
G01*
X143373000Y-86022200D01*
G75*
G02*
X143173000Y-85822200I0J200000D01*
G01*
X143173000Y-85272200D01*
G75*
G02*
X143373000Y-85072200I200000J0D01*
G01*
X143773000Y-85072200D01*
G75*
G02*
X143973000Y-85272200I0J-200000D01*
G01*
G37*
G04 #@! TD.AperFunction*
D39*
X168762680Y-107127360D03*
X168762680Y-104627360D03*
D40*
X128148400Y-116483600D03*
D41*
X126898400Y-118973600D03*
X122398400Y-118973600D03*
D40*
X121138400Y-116483600D03*
G04 #@! TA.AperFunction,SMDPad,CuDef*
G36*
G01*
X115193400Y-76371000D02*
X115743400Y-76371000D01*
G75*
G02*
X115943400Y-76571000I0J-200000D01*
G01*
X115943400Y-76971000D01*
G75*
G02*
X115743400Y-77171000I-200000J0D01*
G01*
X115193400Y-77171000D01*
G75*
G02*
X114993400Y-76971000I0J200000D01*
G01*
X114993400Y-76571000D01*
G75*
G02*
X115193400Y-76371000I200000J0D01*
G01*
G37*
G04 #@! TD.AperFunction*
G04 #@! TA.AperFunction,SMDPad,CuDef*
G36*
G01*
X115193400Y-74721000D02*
X115743400Y-74721000D01*
G75*
G02*
X115943400Y-74921000I0J-200000D01*
G01*
X115943400Y-75321000D01*
G75*
G02*
X115743400Y-75521000I-200000J0D01*
G01*
X115193400Y-75521000D01*
G75*
G02*
X114993400Y-75321000I0J200000D01*
G01*
X114993400Y-74921000D01*
G75*
G02*
X115193400Y-74721000I200000J0D01*
G01*
G37*
G04 #@! TD.AperFunction*
X119916400Y-82561100D03*
X118516400Y-98871100D03*
D42*
X125246400Y-85636100D03*
X127786400Y-86652100D03*
X125246400Y-87668100D03*
X127786400Y-88684100D03*
X125246400Y-89700100D03*
D43*
X111276400Y-97741100D03*
X108736400Y-97741100D03*
X111276400Y-83691100D03*
X108736400Y-83691100D03*
D42*
X127786400Y-84620100D03*
G04 #@! TA.AperFunction,SMDPad,CuDef*
G36*
G01*
X130740600Y-81792400D02*
X130740600Y-82342400D01*
G75*
G02*
X130540600Y-82542400I-200000J0D01*
G01*
X130140600Y-82542400D01*
G75*
G02*
X129940600Y-82342400I0J200000D01*
G01*
X129940600Y-81792400D01*
G75*
G02*
X130140600Y-81592400I200000J0D01*
G01*
X130540600Y-81592400D01*
G75*
G02*
X130740600Y-81792400I0J-200000D01*
G01*
G37*
G04 #@! TD.AperFunction*
G04 #@! TA.AperFunction,SMDPad,CuDef*
G36*
G01*
X132390600Y-81792400D02*
X132390600Y-82342400D01*
G75*
G02*
X132190600Y-82542400I-200000J0D01*
G01*
X131790600Y-82542400D01*
G75*
G02*
X131590600Y-82342400I0J200000D01*
G01*
X131590600Y-81792400D01*
G75*
G02*
X131790600Y-81592400I200000J0D01*
G01*
X132190600Y-81592400D01*
G75*
G02*
X132390600Y-81792400I0J-200000D01*
G01*
G37*
G04 #@! TD.AperFunction*
G04 #@! TA.AperFunction,SMDPad,CuDef*
G36*
G01*
X130740600Y-80293800D02*
X130740600Y-80843800D01*
G75*
G02*
X130540600Y-81043800I-200000J0D01*
G01*
X130140600Y-81043800D01*
G75*
G02*
X129940600Y-80843800I0J200000D01*
G01*
X129940600Y-80293800D01*
G75*
G02*
X130140600Y-80093800I200000J0D01*
G01*
X130540600Y-80093800D01*
G75*
G02*
X130740600Y-80293800I0J-200000D01*
G01*
G37*
G04 #@! TD.AperFunction*
G04 #@! TA.AperFunction,SMDPad,CuDef*
G36*
G01*
X132390600Y-80293800D02*
X132390600Y-80843800D01*
G75*
G02*
X132190600Y-81043800I-200000J0D01*
G01*
X131790600Y-81043800D01*
G75*
G02*
X131590600Y-80843800I0J200000D01*
G01*
X131590600Y-80293800D01*
G75*
G02*
X131790600Y-80093800I200000J0D01*
G01*
X132190600Y-80093800D01*
G75*
G02*
X132390600Y-80293800I0J-200000D01*
G01*
G37*
G04 #@! TD.AperFunction*
G04 #@! TA.AperFunction,SMDPad,CuDef*
G36*
G01*
X137621600Y-94303400D02*
X138171600Y-94303400D01*
G75*
G02*
X138371600Y-94503400I0J-200000D01*
G01*
X138371600Y-94903400D01*
G75*
G02*
X138171600Y-95103400I-200000J0D01*
G01*
X137621600Y-95103400D01*
G75*
G02*
X137421600Y-94903400I0J200000D01*
G01*
X137421600Y-94503400D01*
G75*
G02*
X137621600Y-94303400I200000J0D01*
G01*
G37*
G04 #@! TD.AperFunction*
G04 #@! TA.AperFunction,SMDPad,CuDef*
G36*
G01*
X137621600Y-92653400D02*
X138171600Y-92653400D01*
G75*
G02*
X138371600Y-92853400I0J-200000D01*
G01*
X138371600Y-93253400D01*
G75*
G02*
X138171600Y-93453400I-200000J0D01*
G01*
X137621600Y-93453400D01*
G75*
G02*
X137421600Y-93253400I0J200000D01*
G01*
X137421600Y-92853400D01*
G75*
G02*
X137621600Y-92653400I200000J0D01*
G01*
G37*
G04 #@! TD.AperFunction*
G04 #@! TA.AperFunction,SMDPad,CuDef*
G36*
G01*
X134447800Y-80845950D02*
X134447800Y-81358450D01*
G75*
G02*
X134229050Y-81577200I-218750J0D01*
G01*
X133791550Y-81577200D01*
G75*
G02*
X133572800Y-81358450I0J218750D01*
G01*
X133572800Y-80845950D01*
G75*
G02*
X133791550Y-80627200I218750J0D01*
G01*
X134229050Y-80627200D01*
G75*
G02*
X134447800Y-80845950I0J-218750D01*
G01*
G37*
G04 #@! TD.AperFunction*
G04 #@! TA.AperFunction,SMDPad,CuDef*
G36*
G01*
X136022800Y-80845950D02*
X136022800Y-81358450D01*
G75*
G02*
X135804050Y-81577200I-218750J0D01*
G01*
X135366550Y-81577200D01*
G75*
G02*
X135147800Y-81358450I0J218750D01*
G01*
X135147800Y-80845950D01*
G75*
G02*
X135366550Y-80627200I218750J0D01*
G01*
X135804050Y-80627200D01*
G75*
G02*
X136022800Y-80845950I0J-218750D01*
G01*
G37*
G04 #@! TD.AperFunction*
G04 #@! TA.AperFunction,SMDPad,CuDef*
G36*
G01*
X131554100Y-88959500D02*
X131554100Y-88459500D01*
G75*
G02*
X131779100Y-88234500I225000J0D01*
G01*
X132229100Y-88234500D01*
G75*
G02*
X132454100Y-88459500I0J-225000D01*
G01*
X132454100Y-88959500D01*
G75*
G02*
X132229100Y-89184500I-225000J0D01*
G01*
X131779100Y-89184500D01*
G75*
G02*
X131554100Y-88959500I0J225000D01*
G01*
G37*
G04 #@! TD.AperFunction*
G04 #@! TA.AperFunction,SMDPad,CuDef*
G36*
G01*
X130004100Y-88959500D02*
X130004100Y-88459500D01*
G75*
G02*
X130229100Y-88234500I225000J0D01*
G01*
X130679100Y-88234500D01*
G75*
G02*
X130904100Y-88459500I0J-225000D01*
G01*
X130904100Y-88959500D01*
G75*
G02*
X130679100Y-89184500I-225000J0D01*
G01*
X130229100Y-89184500D01*
G75*
G02*
X130004100Y-88959500I0J225000D01*
G01*
G37*
G04 #@! TD.AperFunction*
G04 #@! TA.AperFunction,SMDPad,CuDef*
G36*
G01*
X130904100Y-89983500D02*
X130904100Y-90483500D01*
G75*
G02*
X130679100Y-90708500I-225000J0D01*
G01*
X130229100Y-90708500D01*
G75*
G02*
X130004100Y-90483500I0J225000D01*
G01*
X130004100Y-89983500D01*
G75*
G02*
X130229100Y-89758500I225000J0D01*
G01*
X130679100Y-89758500D01*
G75*
G02*
X130904100Y-89983500I0J-225000D01*
G01*
G37*
G04 #@! TD.AperFunction*
G04 #@! TA.AperFunction,SMDPad,CuDef*
G36*
G01*
X132454100Y-89983500D02*
X132454100Y-90483500D01*
G75*
G02*
X132229100Y-90708500I-225000J0D01*
G01*
X131779100Y-90708500D01*
G75*
G02*
X131554100Y-90483500I0J225000D01*
G01*
X131554100Y-89983500D01*
G75*
G02*
X131779100Y-89758500I225000J0D01*
G01*
X132229100Y-89758500D01*
G75*
G02*
X132454100Y-89983500I0J-225000D01*
G01*
G37*
G04 #@! TD.AperFunction*
G04 #@! TA.AperFunction,SMDPad,CuDef*
G36*
G01*
X135809800Y-83037800D02*
X135309800Y-83037800D01*
G75*
G02*
X135084800Y-82812800I0J225000D01*
G01*
X135084800Y-82362800D01*
G75*
G02*
X135309800Y-82137800I225000J0D01*
G01*
X135809800Y-82137800D01*
G75*
G02*
X136034800Y-82362800I0J-225000D01*
G01*
X136034800Y-82812800D01*
G75*
G02*
X135809800Y-83037800I-225000J0D01*
G01*
G37*
G04 #@! TD.AperFunction*
G04 #@! TA.AperFunction,SMDPad,CuDef*
G36*
G01*
X135809800Y-84587800D02*
X135309800Y-84587800D01*
G75*
G02*
X135084800Y-84362800I0J225000D01*
G01*
X135084800Y-83912800D01*
G75*
G02*
X135309800Y-83687800I225000J0D01*
G01*
X135809800Y-83687800D01*
G75*
G02*
X136034800Y-83912800I0J-225000D01*
G01*
X136034800Y-84362800D01*
G75*
G02*
X135809800Y-84587800I-225000J0D01*
G01*
G37*
G04 #@! TD.AperFunction*
G04 #@! TA.AperFunction,SMDPad,CuDef*
G36*
G01*
X134260400Y-83037800D02*
X133760400Y-83037800D01*
G75*
G02*
X133535400Y-82812800I0J225000D01*
G01*
X133535400Y-82362800D01*
G75*
G02*
X133760400Y-82137800I225000J0D01*
G01*
X134260400Y-82137800D01*
G75*
G02*
X134485400Y-82362800I0J-225000D01*
G01*
X134485400Y-82812800D01*
G75*
G02*
X134260400Y-83037800I-225000J0D01*
G01*
G37*
G04 #@! TD.AperFunction*
G04 #@! TA.AperFunction,SMDPad,CuDef*
G36*
G01*
X134260400Y-84587800D02*
X133760400Y-84587800D01*
G75*
G02*
X133535400Y-84362800I0J225000D01*
G01*
X133535400Y-83912800D01*
G75*
G02*
X133760400Y-83687800I225000J0D01*
G01*
X134260400Y-83687800D01*
G75*
G02*
X134485400Y-83912800I0J-225000D01*
G01*
X134485400Y-84362800D01*
G75*
G02*
X134260400Y-84587800I-225000J0D01*
G01*
G37*
G04 #@! TD.AperFunction*
G04 #@! TA.AperFunction,SMDPad,CuDef*
G36*
G01*
X137333800Y-83025100D02*
X136833800Y-83025100D01*
G75*
G02*
X136608800Y-82800100I0J225000D01*
G01*
X136608800Y-82350100D01*
G75*
G02*
X136833800Y-82125100I225000J0D01*
G01*
X137333800Y-82125100D01*
G75*
G02*
X137558800Y-82350100I0J-225000D01*
G01*
X137558800Y-82800100D01*
G75*
G02*
X137333800Y-83025100I-225000J0D01*
G01*
G37*
G04 #@! TD.AperFunction*
G04 #@! TA.AperFunction,SMDPad,CuDef*
G36*
G01*
X137333800Y-84575100D02*
X136833800Y-84575100D01*
G75*
G02*
X136608800Y-84350100I0J225000D01*
G01*
X136608800Y-83900100D01*
G75*
G02*
X136833800Y-83675100I225000J0D01*
G01*
X137333800Y-83675100D01*
G75*
G02*
X137558800Y-83900100I0J-225000D01*
G01*
X137558800Y-84350100D01*
G75*
G02*
X137333800Y-84575100I-225000J0D01*
G01*
G37*
G04 #@! TD.AperFunction*
G04 #@! TA.AperFunction,SMDPad,CuDef*
G36*
G01*
X138895900Y-83025100D02*
X138395900Y-83025100D01*
G75*
G02*
X138170900Y-82800100I0J225000D01*
G01*
X138170900Y-82350100D01*
G75*
G02*
X138395900Y-82125100I225000J0D01*
G01*
X138895900Y-82125100D01*
G75*
G02*
X139120900Y-82350100I0J-225000D01*
G01*
X139120900Y-82800100D01*
G75*
G02*
X138895900Y-83025100I-225000J0D01*
G01*
G37*
G04 #@! TD.AperFunction*
G04 #@! TA.AperFunction,SMDPad,CuDef*
G36*
G01*
X138895900Y-84575100D02*
X138395900Y-84575100D01*
G75*
G02*
X138170900Y-84350100I0J225000D01*
G01*
X138170900Y-83900100D01*
G75*
G02*
X138395900Y-83675100I225000J0D01*
G01*
X138895900Y-83675100D01*
G75*
G02*
X139120900Y-83900100I0J-225000D01*
G01*
X139120900Y-84350100D01*
G75*
G02*
X138895900Y-84575100I-225000J0D01*
G01*
G37*
G04 #@! TD.AperFunction*
G04 #@! TA.AperFunction,SMDPad,CuDef*
G36*
G01*
X143272700Y-91206200D02*
X143772700Y-91206200D01*
G75*
G02*
X143997700Y-91431200I0J-225000D01*
G01*
X143997700Y-91881200D01*
G75*
G02*
X143772700Y-92106200I-225000J0D01*
G01*
X143272700Y-92106200D01*
G75*
G02*
X143047700Y-91881200I0J225000D01*
G01*
X143047700Y-91431200D01*
G75*
G02*
X143272700Y-91206200I225000J0D01*
G01*
G37*
G04 #@! TD.AperFunction*
G04 #@! TA.AperFunction,SMDPad,CuDef*
G36*
G01*
X143272700Y-89656200D02*
X143772700Y-89656200D01*
G75*
G02*
X143997700Y-89881200I0J-225000D01*
G01*
X143997700Y-90331200D01*
G75*
G02*
X143772700Y-90556200I-225000J0D01*
G01*
X143272700Y-90556200D01*
G75*
G02*
X143047700Y-90331200I0J225000D01*
G01*
X143047700Y-89881200D01*
G75*
G02*
X143272700Y-89656200I225000J0D01*
G01*
G37*
G04 #@! TD.AperFunction*
G04 #@! TA.AperFunction,SMDPad,CuDef*
G36*
G01*
X141748700Y-91206200D02*
X142248700Y-91206200D01*
G75*
G02*
X142473700Y-91431200I0J-225000D01*
G01*
X142473700Y-91881200D01*
G75*
G02*
X142248700Y-92106200I-225000J0D01*
G01*
X141748700Y-92106200D01*
G75*
G02*
X141523700Y-91881200I0J225000D01*
G01*
X141523700Y-91431200D01*
G75*
G02*
X141748700Y-91206200I225000J0D01*
G01*
G37*
G04 #@! TD.AperFunction*
G04 #@! TA.AperFunction,SMDPad,CuDef*
G36*
G01*
X141748700Y-89656200D02*
X142248700Y-89656200D01*
G75*
G02*
X142473700Y-89881200I0J-225000D01*
G01*
X142473700Y-90331200D01*
G75*
G02*
X142248700Y-90556200I-225000J0D01*
G01*
X141748700Y-90556200D01*
G75*
G02*
X141523700Y-90331200I0J225000D01*
G01*
X141523700Y-89881200D01*
G75*
G02*
X141748700Y-89656200I225000J0D01*
G01*
G37*
G04 #@! TD.AperFunction*
G04 #@! TA.AperFunction,SMDPad,CuDef*
G36*
G01*
X131475360Y-92589160D02*
X131475360Y-92089160D01*
G75*
G02*
X131700360Y-91864160I225000J0D01*
G01*
X132150360Y-91864160D01*
G75*
G02*
X132375360Y-92089160I0J-225000D01*
G01*
X132375360Y-92589160D01*
G75*
G02*
X132150360Y-92814160I-225000J0D01*
G01*
X131700360Y-92814160D01*
G75*
G02*
X131475360Y-92589160I0J225000D01*
G01*
G37*
G04 #@! TD.AperFunction*
G04 #@! TA.AperFunction,SMDPad,CuDef*
G36*
G01*
X129925360Y-92589160D02*
X129925360Y-92089160D01*
G75*
G02*
X130150360Y-91864160I225000J0D01*
G01*
X130600360Y-91864160D01*
G75*
G02*
X130825360Y-92089160I0J-225000D01*
G01*
X130825360Y-92589160D01*
G75*
G02*
X130600360Y-92814160I-225000J0D01*
G01*
X130150360Y-92814160D01*
G75*
G02*
X129925360Y-92589160I0J225000D01*
G01*
G37*
G04 #@! TD.AperFunction*
G04 #@! TA.AperFunction,SMDPad,CuDef*
G36*
G01*
X131480440Y-96267080D02*
X131480440Y-95767080D01*
G75*
G02*
X131705440Y-95542080I225000J0D01*
G01*
X132155440Y-95542080D01*
G75*
G02*
X132380440Y-95767080I0J-225000D01*
G01*
X132380440Y-96267080D01*
G75*
G02*
X132155440Y-96492080I-225000J0D01*
G01*
X131705440Y-96492080D01*
G75*
G02*
X131480440Y-96267080I0J225000D01*
G01*
G37*
G04 #@! TD.AperFunction*
G04 #@! TA.AperFunction,SMDPad,CuDef*
G36*
G01*
X129930440Y-96267080D02*
X129930440Y-95767080D01*
G75*
G02*
X130155440Y-95542080I225000J0D01*
G01*
X130605440Y-95542080D01*
G75*
G02*
X130830440Y-95767080I0J-225000D01*
G01*
X130830440Y-96267080D01*
G75*
G02*
X130605440Y-96492080I-225000J0D01*
G01*
X130155440Y-96492080D01*
G75*
G02*
X129930440Y-96267080I0J225000D01*
G01*
G37*
G04 #@! TD.AperFunction*
G04 #@! TA.AperFunction,SMDPad,CuDef*
G36*
G01*
X119947240Y-108352000D02*
X119947240Y-107802000D01*
G75*
G02*
X120147240Y-107602000I200000J0D01*
G01*
X120547240Y-107602000D01*
G75*
G02*
X120747240Y-107802000I0J-200000D01*
G01*
X120747240Y-108352000D01*
G75*
G02*
X120547240Y-108552000I-200000J0D01*
G01*
X120147240Y-108552000D01*
G75*
G02*
X119947240Y-108352000I0J200000D01*
G01*
G37*
G04 #@! TD.AperFunction*
G04 #@! TA.AperFunction,SMDPad,CuDef*
G36*
G01*
X118297240Y-108352000D02*
X118297240Y-107802000D01*
G75*
G02*
X118497240Y-107602000I200000J0D01*
G01*
X118897240Y-107602000D01*
G75*
G02*
X119097240Y-107802000I0J-200000D01*
G01*
X119097240Y-108352000D01*
G75*
G02*
X118897240Y-108552000I-200000J0D01*
G01*
X118497240Y-108552000D01*
G75*
G02*
X118297240Y-108352000I0J200000D01*
G01*
G37*
G04 #@! TD.AperFunction*
D44*
X112217200Y-108619800D03*
X111267200Y-106619800D03*
X113167200Y-106619800D03*
G04 #@! TA.AperFunction,SMDPad,CuDef*
G36*
G01*
X122048460Y-105242240D02*
X122548460Y-105242240D01*
G75*
G02*
X122773460Y-105467240I0J-225000D01*
G01*
X122773460Y-105917240D01*
G75*
G02*
X122548460Y-106142240I-225000J0D01*
G01*
X122048460Y-106142240D01*
G75*
G02*
X121823460Y-105917240I0J225000D01*
G01*
X121823460Y-105467240D01*
G75*
G02*
X122048460Y-105242240I225000J0D01*
G01*
G37*
G04 #@! TD.AperFunction*
G04 #@! TA.AperFunction,SMDPad,CuDef*
G36*
G01*
X122048460Y-103692240D02*
X122548460Y-103692240D01*
G75*
G02*
X122773460Y-103917240I0J-225000D01*
G01*
X122773460Y-104367240D01*
G75*
G02*
X122548460Y-104592240I-225000J0D01*
G01*
X122048460Y-104592240D01*
G75*
G02*
X121823460Y-104367240I0J225000D01*
G01*
X121823460Y-103917240D01*
G75*
G02*
X122048460Y-103692240I225000J0D01*
G01*
G37*
G04 #@! TD.AperFunction*
G04 #@! TA.AperFunction,SMDPad,CuDef*
G36*
G01*
X114560160Y-103906440D02*
X114060160Y-103906440D01*
G75*
G02*
X113835160Y-103681440I0J225000D01*
G01*
X113835160Y-103231440D01*
G75*
G02*
X114060160Y-103006440I225000J0D01*
G01*
X114560160Y-103006440D01*
G75*
G02*
X114785160Y-103231440I0J-225000D01*
G01*
X114785160Y-103681440D01*
G75*
G02*
X114560160Y-103906440I-225000J0D01*
G01*
G37*
G04 #@! TD.AperFunction*
G04 #@! TA.AperFunction,SMDPad,CuDef*
G36*
G01*
X114560160Y-105456440D02*
X114060160Y-105456440D01*
G75*
G02*
X113835160Y-105231440I0J225000D01*
G01*
X113835160Y-104781440D01*
G75*
G02*
X114060160Y-104556440I225000J0D01*
G01*
X114560160Y-104556440D01*
G75*
G02*
X114785160Y-104781440I0J-225000D01*
G01*
X114785160Y-105231440D01*
G75*
G02*
X114560160Y-105456440I-225000J0D01*
G01*
G37*
G04 #@! TD.AperFunction*
G04 #@! TA.AperFunction,SMDPad,CuDef*
G36*
G01*
X124092780Y-104579540D02*
X123592780Y-104579540D01*
G75*
G02*
X123367780Y-104354540I0J225000D01*
G01*
X123367780Y-103904540D01*
G75*
G02*
X123592780Y-103679540I225000J0D01*
G01*
X124092780Y-103679540D01*
G75*
G02*
X124317780Y-103904540I0J-225000D01*
G01*
X124317780Y-104354540D01*
G75*
G02*
X124092780Y-104579540I-225000J0D01*
G01*
G37*
G04 #@! TD.AperFunction*
G04 #@! TA.AperFunction,SMDPad,CuDef*
G36*
G01*
X124092780Y-106129540D02*
X123592780Y-106129540D01*
G75*
G02*
X123367780Y-105904540I0J225000D01*
G01*
X123367780Y-105454540D01*
G75*
G02*
X123592780Y-105229540I225000J0D01*
G01*
X124092780Y-105229540D01*
G75*
G02*
X124317780Y-105454540I0J-225000D01*
G01*
X124317780Y-105904540D01*
G75*
G02*
X124092780Y-106129540I-225000J0D01*
G01*
G37*
G04 #@! TD.AperFunction*
D21*
X154871600Y-109489200D03*
X154871600Y-111389200D03*
X152671600Y-111389200D03*
X152671600Y-110439200D03*
X152671600Y-109489200D03*
X140952400Y-114289800D03*
X140952400Y-116189800D03*
X138752400Y-116189800D03*
X138752400Y-115239800D03*
X138752400Y-114289800D03*
G04 #@! TA.AperFunction,SMDPad,CuDef*
G36*
G01*
X151692800Y-114269400D02*
X152192800Y-114269400D01*
G75*
G02*
X152417800Y-114494400I0J-225000D01*
G01*
X152417800Y-114944400D01*
G75*
G02*
X152192800Y-115169400I-225000J0D01*
G01*
X151692800Y-115169400D01*
G75*
G02*
X151467800Y-114944400I0J225000D01*
G01*
X151467800Y-114494400D01*
G75*
G02*
X151692800Y-114269400I225000J0D01*
G01*
G37*
G04 #@! TD.AperFunction*
G04 #@! TA.AperFunction,SMDPad,CuDef*
G36*
G01*
X151692800Y-112719400D02*
X152192800Y-112719400D01*
G75*
G02*
X152417800Y-112944400I0J-225000D01*
G01*
X152417800Y-113394400D01*
G75*
G02*
X152192800Y-113619400I-225000J0D01*
G01*
X151692800Y-113619400D01*
G75*
G02*
X151467800Y-113394400I0J225000D01*
G01*
X151467800Y-112944400D01*
G75*
G02*
X151692800Y-112719400I225000J0D01*
G01*
G37*
G04 #@! TD.AperFunction*
G04 #@! TA.AperFunction,SMDPad,CuDef*
G36*
G01*
X150235800Y-116632800D02*
X150235800Y-116132800D01*
G75*
G02*
X150460800Y-115907800I225000J0D01*
G01*
X150910800Y-115907800D01*
G75*
G02*
X151135800Y-116132800I0J-225000D01*
G01*
X151135800Y-116632800D01*
G75*
G02*
X150910800Y-116857800I-225000J0D01*
G01*
X150460800Y-116857800D01*
G75*
G02*
X150235800Y-116632800I0J225000D01*
G01*
G37*
G04 #@! TD.AperFunction*
G04 #@! TA.AperFunction,SMDPad,CuDef*
G36*
G01*
X148685800Y-116632800D02*
X148685800Y-116132800D01*
G75*
G02*
X148910800Y-115907800I225000J0D01*
G01*
X149360800Y-115907800D01*
G75*
G02*
X149585800Y-116132800I0J-225000D01*
G01*
X149585800Y-116632800D01*
G75*
G02*
X149360800Y-116857800I-225000J0D01*
G01*
X148910800Y-116857800D01*
G75*
G02*
X148685800Y-116632800I0J225000D01*
G01*
G37*
G04 #@! TD.AperFunction*
G04 #@! TA.AperFunction,SMDPad,CuDef*
G36*
G01*
X146663600Y-114269400D02*
X147163600Y-114269400D01*
G75*
G02*
X147388600Y-114494400I0J-225000D01*
G01*
X147388600Y-114944400D01*
G75*
G02*
X147163600Y-115169400I-225000J0D01*
G01*
X146663600Y-115169400D01*
G75*
G02*
X146438600Y-114944400I0J225000D01*
G01*
X146438600Y-114494400D01*
G75*
G02*
X146663600Y-114269400I225000J0D01*
G01*
G37*
G04 #@! TD.AperFunction*
G04 #@! TA.AperFunction,SMDPad,CuDef*
G36*
G01*
X146663600Y-112719400D02*
X147163600Y-112719400D01*
G75*
G02*
X147388600Y-112944400I0J-225000D01*
G01*
X147388600Y-113394400D01*
G75*
G02*
X147163600Y-113619400I-225000J0D01*
G01*
X146663600Y-113619400D01*
G75*
G02*
X146438600Y-113394400I0J225000D01*
G01*
X146438600Y-112944400D01*
G75*
G02*
X146663600Y-112719400I225000J0D01*
G01*
G37*
G04 #@! TD.AperFunction*
G04 #@! TA.AperFunction,SMDPad,CuDef*
G36*
G01*
X145206600Y-116582000D02*
X145206600Y-116082000D01*
G75*
G02*
X145431600Y-115857000I225000J0D01*
G01*
X145881600Y-115857000D01*
G75*
G02*
X146106600Y-116082000I0J-225000D01*
G01*
X146106600Y-116582000D01*
G75*
G02*
X145881600Y-116807000I-225000J0D01*
G01*
X145431600Y-116807000D01*
G75*
G02*
X145206600Y-116582000I0J225000D01*
G01*
G37*
G04 #@! TD.AperFunction*
G04 #@! TA.AperFunction,SMDPad,CuDef*
G36*
G01*
X143656600Y-116582000D02*
X143656600Y-116082000D01*
G75*
G02*
X143881600Y-115857000I225000J0D01*
G01*
X144331600Y-115857000D01*
G75*
G02*
X144556600Y-116082000I0J-225000D01*
G01*
X144556600Y-116582000D01*
G75*
G02*
X144331600Y-116807000I-225000J0D01*
G01*
X143881600Y-116807000D01*
G75*
G02*
X143656600Y-116582000I0J225000D01*
G01*
G37*
G04 #@! TD.AperFunction*
G04 #@! TA.AperFunction,SMDPad,CuDef*
G36*
G01*
X174557880Y-108518240D02*
X175057880Y-108518240D01*
G75*
G02*
X175282880Y-108743240I0J-225000D01*
G01*
X175282880Y-109193240D01*
G75*
G02*
X175057880Y-109418240I-225000J0D01*
G01*
X174557880Y-109418240D01*
G75*
G02*
X174332880Y-109193240I0J225000D01*
G01*
X174332880Y-108743240D01*
G75*
G02*
X174557880Y-108518240I225000J0D01*
G01*
G37*
G04 #@! TD.AperFunction*
G04 #@! TA.AperFunction,SMDPad,CuDef*
G36*
G01*
X174557880Y-110068240D02*
X175057880Y-110068240D01*
G75*
G02*
X175282880Y-110293240I0J-225000D01*
G01*
X175282880Y-110743240D01*
G75*
G02*
X175057880Y-110968240I-225000J0D01*
G01*
X174557880Y-110968240D01*
G75*
G02*
X174332880Y-110743240I0J225000D01*
G01*
X174332880Y-110293240D01*
G75*
G02*
X174557880Y-110068240I225000J0D01*
G01*
G37*
G04 #@! TD.AperFunction*
G04 #@! TA.AperFunction,SMDPad,CuDef*
G36*
G01*
X188910680Y-103256370D02*
X188910680Y-103768870D01*
G75*
G02*
X188691930Y-103987620I-218750J0D01*
G01*
X188254430Y-103987620D01*
G75*
G02*
X188035680Y-103768870I0J218750D01*
G01*
X188035680Y-103256370D01*
G75*
G02*
X188254430Y-103037620I218750J0D01*
G01*
X188691930Y-103037620D01*
G75*
G02*
X188910680Y-103256370I0J-218750D01*
G01*
G37*
G04 #@! TD.AperFunction*
G04 #@! TA.AperFunction,SMDPad,CuDef*
G36*
G01*
X187335680Y-103256370D02*
X187335680Y-103768870D01*
G75*
G02*
X187116930Y-103987620I-218750J0D01*
G01*
X186679430Y-103987620D01*
G75*
G02*
X186460680Y-103768870I0J218750D01*
G01*
X186460680Y-103256370D01*
G75*
G02*
X186679430Y-103037620I218750J0D01*
G01*
X187116930Y-103037620D01*
G75*
G02*
X187335680Y-103256370I0J-218750D01*
G01*
G37*
G04 #@! TD.AperFunction*
G04 #@! TA.AperFunction,SMDPad,CuDef*
G36*
G01*
X169190480Y-78347020D02*
X168690480Y-78347020D01*
G75*
G02*
X168465480Y-78122020I0J225000D01*
G01*
X168465480Y-77672020D01*
G75*
G02*
X168690480Y-77447020I225000J0D01*
G01*
X169190480Y-77447020D01*
G75*
G02*
X169415480Y-77672020I0J-225000D01*
G01*
X169415480Y-78122020D01*
G75*
G02*
X169190480Y-78347020I-225000J0D01*
G01*
G37*
G04 #@! TD.AperFunction*
G04 #@! TA.AperFunction,SMDPad,CuDef*
G36*
G01*
X169190480Y-76797020D02*
X168690480Y-76797020D01*
G75*
G02*
X168465480Y-76572020I0J225000D01*
G01*
X168465480Y-76122020D01*
G75*
G02*
X168690480Y-75897020I225000J0D01*
G01*
X169190480Y-75897020D01*
G75*
G02*
X169415480Y-76122020I0J-225000D01*
G01*
X169415480Y-76572020D01*
G75*
G02*
X169190480Y-76797020I-225000J0D01*
G01*
G37*
G04 #@! TD.AperFunction*
G04 #@! TA.AperFunction,SMDPad,CuDef*
G36*
G01*
X189000680Y-82350420D02*
X189000680Y-81850420D01*
G75*
G02*
X189225680Y-81625420I225000J0D01*
G01*
X189675680Y-81625420D01*
G75*
G02*
X189900680Y-81850420I0J-225000D01*
G01*
X189900680Y-82350420D01*
G75*
G02*
X189675680Y-82575420I-225000J0D01*
G01*
X189225680Y-82575420D01*
G75*
G02*
X189000680Y-82350420I0J225000D01*
G01*
G37*
G04 #@! TD.AperFunction*
G04 #@! TA.AperFunction,SMDPad,CuDef*
G36*
G01*
X190550680Y-82350420D02*
X190550680Y-81850420D01*
G75*
G02*
X190775680Y-81625420I225000J0D01*
G01*
X191225680Y-81625420D01*
G75*
G02*
X191450680Y-81850420I0J-225000D01*
G01*
X191450680Y-82350420D01*
G75*
G02*
X191225680Y-82575420I-225000J0D01*
G01*
X190775680Y-82575420D01*
G75*
G02*
X190550680Y-82350420I0J225000D01*
G01*
G37*
G04 #@! TD.AperFunction*
G04 #@! TA.AperFunction,SMDPad,CuDef*
G36*
G01*
X124746600Y-115820000D02*
X124746600Y-115320000D01*
G75*
G02*
X124971600Y-115095000I225000J0D01*
G01*
X125421600Y-115095000D01*
G75*
G02*
X125646600Y-115320000I0J-225000D01*
G01*
X125646600Y-115820000D01*
G75*
G02*
X125421600Y-116045000I-225000J0D01*
G01*
X124971600Y-116045000D01*
G75*
G02*
X124746600Y-115820000I0J225000D01*
G01*
G37*
G04 #@! TD.AperFunction*
G04 #@! TA.AperFunction,SMDPad,CuDef*
G36*
G01*
X123196600Y-115820000D02*
X123196600Y-115320000D01*
G75*
G02*
X123421600Y-115095000I225000J0D01*
G01*
X123871600Y-115095000D01*
G75*
G02*
X124096600Y-115320000I0J-225000D01*
G01*
X124096600Y-115820000D01*
G75*
G02*
X123871600Y-116045000I-225000J0D01*
G01*
X123421600Y-116045000D01*
G75*
G02*
X123196600Y-115820000I0J225000D01*
G01*
G37*
G04 #@! TD.AperFunction*
G04 #@! TA.AperFunction,SMDPad,CuDef*
G36*
G01*
X184357200Y-108401400D02*
X184857200Y-108401400D01*
G75*
G02*
X185082200Y-108626400I0J-225000D01*
G01*
X185082200Y-109076400D01*
G75*
G02*
X184857200Y-109301400I-225000J0D01*
G01*
X184357200Y-109301400D01*
G75*
G02*
X184132200Y-109076400I0J225000D01*
G01*
X184132200Y-108626400D01*
G75*
G02*
X184357200Y-108401400I225000J0D01*
G01*
G37*
G04 #@! TD.AperFunction*
G04 #@! TA.AperFunction,SMDPad,CuDef*
G36*
G01*
X184357200Y-109951400D02*
X184857200Y-109951400D01*
G75*
G02*
X185082200Y-110176400I0J-225000D01*
G01*
X185082200Y-110626400D01*
G75*
G02*
X184857200Y-110851400I-225000J0D01*
G01*
X184357200Y-110851400D01*
G75*
G02*
X184132200Y-110626400I0J225000D01*
G01*
X184132200Y-110176400D01*
G75*
G02*
X184357200Y-109951400I225000J0D01*
G01*
G37*
G04 #@! TD.AperFunction*
G04 #@! TA.AperFunction,SMDPad,CuDef*
G36*
G01*
X164807180Y-104920860D02*
X164807180Y-104420860D01*
G75*
G02*
X165032180Y-104195860I225000J0D01*
G01*
X165482180Y-104195860D01*
G75*
G02*
X165707180Y-104420860I0J-225000D01*
G01*
X165707180Y-104920860D01*
G75*
G02*
X165482180Y-105145860I-225000J0D01*
G01*
X165032180Y-105145860D01*
G75*
G02*
X164807180Y-104920860I0J225000D01*
G01*
G37*
G04 #@! TD.AperFunction*
G04 #@! TA.AperFunction,SMDPad,CuDef*
G36*
G01*
X166357180Y-104920860D02*
X166357180Y-104420860D01*
G75*
G02*
X166582180Y-104195860I225000J0D01*
G01*
X167032180Y-104195860D01*
G75*
G02*
X167257180Y-104420860I0J-225000D01*
G01*
X167257180Y-104920860D01*
G75*
G02*
X167032180Y-105145860I-225000J0D01*
G01*
X166582180Y-105145860D01*
G75*
G02*
X166357180Y-104920860I0J225000D01*
G01*
G37*
G04 #@! TD.AperFunction*
G04 #@! TA.AperFunction,SMDPad,CuDef*
G36*
G01*
X184857200Y-113899400D02*
X184357200Y-113899400D01*
G75*
G02*
X184132200Y-113674400I0J225000D01*
G01*
X184132200Y-113224400D01*
G75*
G02*
X184357200Y-112999400I225000J0D01*
G01*
X184857200Y-112999400D01*
G75*
G02*
X185082200Y-113224400I0J-225000D01*
G01*
X185082200Y-113674400D01*
G75*
G02*
X184857200Y-113899400I-225000J0D01*
G01*
G37*
G04 #@! TD.AperFunction*
G04 #@! TA.AperFunction,SMDPad,CuDef*
G36*
G01*
X184857200Y-112349400D02*
X184357200Y-112349400D01*
G75*
G02*
X184132200Y-112124400I0J225000D01*
G01*
X184132200Y-111674400D01*
G75*
G02*
X184357200Y-111449400I225000J0D01*
G01*
X184857200Y-111449400D01*
G75*
G02*
X185082200Y-111674400I0J-225000D01*
G01*
X185082200Y-112124400D01*
G75*
G02*
X184857200Y-112349400I-225000J0D01*
G01*
G37*
G04 #@! TD.AperFunction*
G04 #@! TA.AperFunction,SMDPad,CuDef*
G36*
G01*
X185149680Y-103113120D02*
X185649680Y-103113120D01*
G75*
G02*
X185874680Y-103338120I0J-225000D01*
G01*
X185874680Y-103788120D01*
G75*
G02*
X185649680Y-104013120I-225000J0D01*
G01*
X185149680Y-104013120D01*
G75*
G02*
X184924680Y-103788120I0J225000D01*
G01*
X184924680Y-103338120D01*
G75*
G02*
X185149680Y-103113120I225000J0D01*
G01*
G37*
G04 #@! TD.AperFunction*
G04 #@! TA.AperFunction,SMDPad,CuDef*
G36*
G01*
X185149680Y-104663120D02*
X185649680Y-104663120D01*
G75*
G02*
X185874680Y-104888120I0J-225000D01*
G01*
X185874680Y-105338120D01*
G75*
G02*
X185649680Y-105563120I-225000J0D01*
G01*
X185149680Y-105563120D01*
G75*
G02*
X184924680Y-105338120I0J225000D01*
G01*
X184924680Y-104888120D01*
G75*
G02*
X185149680Y-104663120I225000J0D01*
G01*
G37*
G04 #@! TD.AperFunction*
G04 #@! TA.AperFunction,SMDPad,CuDef*
G36*
G01*
X183625680Y-103113120D02*
X184125680Y-103113120D01*
G75*
G02*
X184350680Y-103338120I0J-225000D01*
G01*
X184350680Y-103788120D01*
G75*
G02*
X184125680Y-104013120I-225000J0D01*
G01*
X183625680Y-104013120D01*
G75*
G02*
X183400680Y-103788120I0J225000D01*
G01*
X183400680Y-103338120D01*
G75*
G02*
X183625680Y-103113120I225000J0D01*
G01*
G37*
G04 #@! TD.AperFunction*
G04 #@! TA.AperFunction,SMDPad,CuDef*
G36*
G01*
X183625680Y-104663120D02*
X184125680Y-104663120D01*
G75*
G02*
X184350680Y-104888120I0J-225000D01*
G01*
X184350680Y-105338120D01*
G75*
G02*
X184125680Y-105563120I-225000J0D01*
G01*
X183625680Y-105563120D01*
G75*
G02*
X183400680Y-105338120I0J225000D01*
G01*
X183400680Y-104888120D01*
G75*
G02*
X183625680Y-104663120I225000J0D01*
G01*
G37*
G04 #@! TD.AperFunction*
G04 #@! TA.AperFunction,SMDPad,CuDef*
G36*
G01*
X175662780Y-103316320D02*
X176162780Y-103316320D01*
G75*
G02*
X176387780Y-103541320I0J-225000D01*
G01*
X176387780Y-103991320D01*
G75*
G02*
X176162780Y-104216320I-225000J0D01*
G01*
X175662780Y-104216320D01*
G75*
G02*
X175437780Y-103991320I0J225000D01*
G01*
X175437780Y-103541320D01*
G75*
G02*
X175662780Y-103316320I225000J0D01*
G01*
G37*
G04 #@! TD.AperFunction*
G04 #@! TA.AperFunction,SMDPad,CuDef*
G36*
G01*
X175662780Y-104866320D02*
X176162780Y-104866320D01*
G75*
G02*
X176387780Y-105091320I0J-225000D01*
G01*
X176387780Y-105541320D01*
G75*
G02*
X176162780Y-105766320I-225000J0D01*
G01*
X175662780Y-105766320D01*
G75*
G02*
X175437780Y-105541320I0J225000D01*
G01*
X175437780Y-105091320D01*
G75*
G02*
X175662780Y-104866320I225000J0D01*
G01*
G37*
G04 #@! TD.AperFunction*
G04 #@! TA.AperFunction,SMDPad,CuDef*
G36*
G01*
X189048580Y-99303120D02*
X189548580Y-99303120D01*
G75*
G02*
X189773580Y-99528120I0J-225000D01*
G01*
X189773580Y-99978120D01*
G75*
G02*
X189548580Y-100203120I-225000J0D01*
G01*
X189048580Y-100203120D01*
G75*
G02*
X188823580Y-99978120I0J225000D01*
G01*
X188823580Y-99528120D01*
G75*
G02*
X189048580Y-99303120I225000J0D01*
G01*
G37*
G04 #@! TD.AperFunction*
G04 #@! TA.AperFunction,SMDPad,CuDef*
G36*
G01*
X189048580Y-100853120D02*
X189548580Y-100853120D01*
G75*
G02*
X189773580Y-101078120I0J-225000D01*
G01*
X189773580Y-101528120D01*
G75*
G02*
X189548580Y-101753120I-225000J0D01*
G01*
X189048580Y-101753120D01*
G75*
G02*
X188823580Y-101528120I0J225000D01*
G01*
X188823580Y-101078120D01*
G75*
G02*
X189048580Y-100853120I225000J0D01*
G01*
G37*
G04 #@! TD.AperFunction*
G04 #@! TA.AperFunction,SMDPad,CuDef*
G36*
G01*
X164399680Y-99401820D02*
X164399680Y-99901820D01*
G75*
G02*
X164174680Y-100126820I-225000J0D01*
G01*
X163724680Y-100126820D01*
G75*
G02*
X163499680Y-99901820I0J225000D01*
G01*
X163499680Y-99401820D01*
G75*
G02*
X163724680Y-99176820I225000J0D01*
G01*
X164174680Y-99176820D01*
G75*
G02*
X164399680Y-99401820I0J-225000D01*
G01*
G37*
G04 #@! TD.AperFunction*
G04 #@! TA.AperFunction,SMDPad,CuDef*
G36*
G01*
X162849680Y-99401820D02*
X162849680Y-99901820D01*
G75*
G02*
X162624680Y-100126820I-225000J0D01*
G01*
X162174680Y-100126820D01*
G75*
G02*
X161949680Y-99901820I0J225000D01*
G01*
X161949680Y-99401820D01*
G75*
G02*
X162174680Y-99176820I225000J0D01*
G01*
X162624680Y-99176820D01*
G75*
G02*
X162849680Y-99401820I0J-225000D01*
G01*
G37*
G04 #@! TD.AperFunction*
G04 #@! TA.AperFunction,SMDPad,CuDef*
G36*
G01*
X167666480Y-78334020D02*
X167166480Y-78334020D01*
G75*
G02*
X166941480Y-78109020I0J225000D01*
G01*
X166941480Y-77659020D01*
G75*
G02*
X167166480Y-77434020I225000J0D01*
G01*
X167666480Y-77434020D01*
G75*
G02*
X167891480Y-77659020I0J-225000D01*
G01*
X167891480Y-78109020D01*
G75*
G02*
X167666480Y-78334020I-225000J0D01*
G01*
G37*
G04 #@! TD.AperFunction*
G04 #@! TA.AperFunction,SMDPad,CuDef*
G36*
G01*
X167666480Y-76784020D02*
X167166480Y-76784020D01*
G75*
G02*
X166941480Y-76559020I0J225000D01*
G01*
X166941480Y-76109020D01*
G75*
G02*
X167166480Y-75884020I225000J0D01*
G01*
X167666480Y-75884020D01*
G75*
G02*
X167891480Y-76109020I0J-225000D01*
G01*
X167891480Y-76559020D01*
G75*
G02*
X167666480Y-76784020I-225000J0D01*
G01*
G37*
G04 #@! TD.AperFunction*
G04 #@! TA.AperFunction,SMDPad,CuDef*
G36*
G01*
X189000680Y-80813720D02*
X189000680Y-80313720D01*
G75*
G02*
X189225680Y-80088720I225000J0D01*
G01*
X189675680Y-80088720D01*
G75*
G02*
X189900680Y-80313720I0J-225000D01*
G01*
X189900680Y-80813720D01*
G75*
G02*
X189675680Y-81038720I-225000J0D01*
G01*
X189225680Y-81038720D01*
G75*
G02*
X189000680Y-80813720I0J225000D01*
G01*
G37*
G04 #@! TD.AperFunction*
G04 #@! TA.AperFunction,SMDPad,CuDef*
G36*
G01*
X190550680Y-80813720D02*
X190550680Y-80313720D01*
G75*
G02*
X190775680Y-80088720I225000J0D01*
G01*
X191225680Y-80088720D01*
G75*
G02*
X191450680Y-80313720I0J-225000D01*
G01*
X191450680Y-80813720D01*
G75*
G02*
X191225680Y-81038720I-225000J0D01*
G01*
X190775680Y-81038720D01*
G75*
G02*
X190550680Y-80813720I0J225000D01*
G01*
G37*
G04 #@! TD.AperFunction*
G04 #@! TA.AperFunction,SMDPad,CuDef*
G36*
G01*
X164399680Y-100989320D02*
X164399680Y-101489320D01*
G75*
G02*
X164174680Y-101714320I-225000J0D01*
G01*
X163724680Y-101714320D01*
G75*
G02*
X163499680Y-101489320I0J225000D01*
G01*
X163499680Y-100989320D01*
G75*
G02*
X163724680Y-100764320I225000J0D01*
G01*
X164174680Y-100764320D01*
G75*
G02*
X164399680Y-100989320I0J-225000D01*
G01*
G37*
G04 #@! TD.AperFunction*
G04 #@! TA.AperFunction,SMDPad,CuDef*
G36*
G01*
X162849680Y-100989320D02*
X162849680Y-101489320D01*
G75*
G02*
X162624680Y-101714320I-225000J0D01*
G01*
X162174680Y-101714320D01*
G75*
G02*
X161949680Y-101489320I0J225000D01*
G01*
X161949680Y-100989320D01*
G75*
G02*
X162174680Y-100764320I225000J0D01*
G01*
X162624680Y-100764320D01*
G75*
G02*
X162849680Y-100989320I0J-225000D01*
G01*
G37*
G04 #@! TD.AperFunction*
D45*
X199898000Y-70866000D03*
X197358000Y-70866000D03*
X199898000Y-73406000D03*
X197358000Y-73406000D03*
X199898000Y-75946000D03*
X197358000Y-75946000D03*
X199898000Y-78486000D03*
X197358000Y-78486000D03*
X199898000Y-81026000D03*
X197358000Y-81026000D03*
X199898000Y-83566000D03*
X197358000Y-83566000D03*
X199898000Y-86106000D03*
X197358000Y-86106000D03*
X199898000Y-88646000D03*
X197358000Y-88646000D03*
X199898000Y-91186000D03*
X197358000Y-91186000D03*
X199898000Y-93726000D03*
X197358000Y-93726000D03*
X199898000Y-96266000D03*
X197358000Y-96266000D03*
X199898000Y-98806000D03*
X197358000Y-98806000D03*
X199898000Y-101346000D03*
X197358000Y-101346000D03*
X199898000Y-103886000D03*
X197358000Y-103886000D03*
X199898000Y-106426000D03*
X197358000Y-106426000D03*
X199898000Y-108966000D03*
X197358000Y-108966000D03*
X199898000Y-111506000D03*
X197358000Y-111506000D03*
X199898000Y-114046000D03*
D46*
X197358000Y-114046000D03*
D47*
X149098000Y-119126000D03*
X146558000Y-119126000D03*
X144018000Y-119126000D03*
X141478000Y-119126000D03*
X138938000Y-119126000D03*
X136398000Y-119126000D03*
X133858000Y-119126000D03*
X131318000Y-119126000D03*
X171958000Y-119126000D03*
X169418000Y-119126000D03*
X166878000Y-119126000D03*
X164338000Y-119126000D03*
X161798000Y-119126000D03*
X159258000Y-119126000D03*
X156718000Y-119126000D03*
X154178000Y-119126000D03*
X194818000Y-119126000D03*
X192278000Y-119126000D03*
X189738000Y-119126000D03*
X187198000Y-119126000D03*
X184658000Y-119126000D03*
X182118000Y-119126000D03*
X179578000Y-119126000D03*
X177038000Y-119126000D03*
X145034000Y-70866000D03*
X142494000Y-70866000D03*
X139954000Y-70866000D03*
X137414000Y-70866000D03*
X134874000Y-70866000D03*
X132334000Y-70866000D03*
X129794000Y-70866000D03*
X127254000Y-70866000D03*
X124714000Y-70866000D03*
X122174000Y-70866000D03*
X166878000Y-70866000D03*
X164338000Y-70866000D03*
X161798000Y-70866000D03*
X159258000Y-70866000D03*
X156718000Y-70866000D03*
X154178000Y-70866000D03*
X151638000Y-70866000D03*
X149098000Y-70866000D03*
X189738000Y-70866000D03*
X187198000Y-70866000D03*
X184658000Y-70866000D03*
X182118000Y-70866000D03*
X179578000Y-70866000D03*
X177038000Y-70866000D03*
X174498000Y-70866000D03*
X171958000Y-70866000D03*
D48*
X117348000Y-119126000D03*
X199898000Y-119126000D03*
X118618000Y-70866000D03*
X193548000Y-70866000D03*
D49*
X161510980Y-96718120D03*
X174414180Y-75509120D03*
X179925980Y-75483720D03*
X191736980Y-87167720D03*
X188409580Y-101315520D03*
X186326780Y-87675720D03*
X186352180Y-92679520D03*
X186377580Y-99181920D03*
X175379380Y-100629720D03*
X168394380Y-81224120D03*
X162399680Y-100426220D03*
X174896780Y-81224120D03*
X180383180Y-81224120D03*
X165257480Y-105839260D03*
X191000680Y-81326020D03*
X142761000Y-91656200D03*
X112217200Y-107759500D03*
X121691400Y-112496600D03*
X139649200Y-111607600D03*
X139687300Y-115252500D03*
X139674600Y-107950000D03*
X122303160Y-106530140D03*
X136893300Y-113728500D03*
X109474000Y-106730800D03*
X109435900Y-102946200D03*
X166890700Y-112783620D03*
X166959280Y-92684600D03*
X175950880Y-106197400D03*
X166913560Y-87685880D03*
X111321960Y-69401800D03*
X112068720Y-69401800D03*
X113253810Y-70409090D03*
X113253810Y-78290532D03*
X113253810Y-74203850D03*
X113253810Y-72197250D03*
X113253810Y-76047890D03*
X111781480Y-80051800D03*
X112523160Y-80051800D03*
X113545400Y-79158880D03*
X108041440Y-72771000D03*
X161524625Y-93173871D03*
X110490000Y-81483200D03*
X180086000Y-107848400D03*
X185711800Y-110401400D03*
X185724800Y-111963200D03*
X180086000Y-114757200D03*
X151587200Y-116382800D03*
X153670000Y-110439200D03*
X202641200Y-100279200D03*
X186898180Y-105100120D03*
X182880000Y-102768400D03*
X182880000Y-105105202D03*
X174828200Y-111328200D03*
X192285620Y-97845880D03*
X190931800Y-91973400D03*
X190068200Y-93726000D03*
X132004100Y-89471200D03*
X137896600Y-95580200D03*
X137871500Y-82575100D03*
X136296700Y-82575100D03*
X134721900Y-82575100D03*
X144510760Y-85557360D03*
X130375360Y-93195440D03*
X130375360Y-95212200D03*
X162306000Y-87335360D03*
X131053840Y-110022640D03*
X127485140Y-107000040D03*
X129552700Y-107000040D03*
X157530800Y-96598740D03*
X115224260Y-103456440D03*
X168217009Y-76444241D03*
X174414180Y-79039720D03*
X167429180Y-78887320D03*
X164701347Y-93177487D03*
X164754687Y-88176227D03*
X175899191Y-102876731D03*
X170400980Y-100705920D03*
X188561980Y-80589120D03*
X188544835Y-87175975D03*
X179900199Y-79039339D03*
X188612780Y-98673920D03*
X163949680Y-100452220D03*
X182427880Y-100756720D03*
X107137200Y-81432400D03*
X115468400Y-77724000D03*
X146913600Y-110845600D03*
X146913600Y-112268000D03*
X146913600Y-111556800D03*
X173995080Y-108960920D03*
X188493400Y-104495600D03*
X194716400Y-97002600D03*
X188417200Y-92176600D03*
X139446000Y-95605600D03*
X142785800Y-90106200D03*
X136550400Y-81102200D03*
X129540000Y-80568800D03*
X144581880Y-83972400D03*
X121259600Y-104160320D03*
X117957600Y-108066840D03*
X132920740Y-107381040D03*
X146743920Y-100128840D03*
X115435380Y-104632760D03*
X112547400Y-101899720D03*
X157327598Y-100939598D03*
X153163270Y-95860870D03*
X178757580Y-97995740D03*
X138699240Y-100756720D03*
X111067855Y-115722400D03*
X114963002Y-115320000D03*
X114963002Y-115972400D03*
X137819999Y-107277679D03*
X137819999Y-108571521D03*
X137819998Y-107937300D03*
X112966500Y-104114600D03*
X111086900Y-104114600D03*
X111696500Y-104114600D03*
X112318800Y-104114600D03*
X168737280Y-97417710D03*
X153332180Y-99644200D03*
X169219880Y-96939100D03*
X149860004Y-100939600D03*
X172413212Y-96091448D03*
X143733520Y-100042980D03*
X172984160Y-95775780D03*
X142003780Y-100426520D03*
X139268200Y-91414600D03*
X177269140Y-94142560D03*
X183047640Y-97012760D03*
X146588480Y-88940640D03*
X139090400Y-92100400D03*
X178775357Y-94691197D03*
X176128680Y-93207840D03*
X145465800Y-89763600D03*
X144399000Y-93167200D03*
X174758159Y-92708919D03*
X144424400Y-94716600D03*
X173248320Y-92191840D03*
X139750800Y-85445600D03*
X153832560Y-88229440D03*
X138912600Y-85521800D03*
X153115455Y-88260745D03*
X138390678Y-85130359D03*
X153146760Y-89021920D03*
X136550400Y-85594000D03*
X152354280Y-88986360D03*
X160327340Y-98524060D03*
X159608520Y-98485960D03*
X108026200Y-71704200D03*
X172923200Y-86182200D03*
X120142000Y-73533000D03*
X163499800Y-82854800D03*
X108127800Y-73863200D03*
X108153200Y-76098400D03*
X119761000Y-77152500D03*
X164348160Y-86060280D03*
X110978900Y-116420900D03*
X117221000Y-114185700D03*
X172770800Y-100431600D03*
X191800480Y-105948480D03*
X167137080Y-96733360D03*
X168273728Y-83260723D03*
X168884600Y-83489800D03*
X175920400Y-74418010D03*
X169810250Y-83032600D03*
X176403000Y-75742800D03*
X175920400Y-75107800D03*
X177393600Y-76860400D03*
X176911000Y-76301600D03*
X178421347Y-77978000D03*
X177876200Y-77470000D03*
X187579000Y-77020800D03*
X188188600Y-76551687D03*
X187629800Y-77978000D03*
X188188600Y-77508899D03*
X187604400Y-78944721D03*
X188147231Y-78466111D03*
X188569600Y-83642200D03*
X186258200Y-82727800D03*
X186309000Y-84531200D03*
X188696600Y-90170000D03*
X186359800Y-89662000D03*
X189204600Y-91186000D03*
X186055000Y-90698383D03*
X170621960Y-103809800D03*
X170037760Y-103212900D03*
X168907460Y-103568502D03*
X167886380Y-102961440D03*
X180502560Y-88328500D03*
X181279800Y-89992202D03*
X179153820Y-89016840D03*
X161894520Y-75082400D03*
X162546931Y-75082346D03*
X178206400Y-84201000D03*
X179961540Y-84886800D03*
X160705800Y-77241400D03*
X161533840Y-76672440D03*
X167055800Y-108966000D03*
X167398700Y-98704400D03*
X154914600Y-74295000D03*
X154178000Y-73812400D03*
X147974230Y-85379560D03*
X147289520Y-85267800D03*
X108077000Y-70612000D03*
X116586000Y-72898000D03*
X108204000Y-77216000D03*
X117983000Y-78740000D03*
X108331000Y-78232000D03*
X119888000Y-79629000D03*
X137363200Y-85496400D03*
X131953000Y-83210400D03*
D50*
X162399680Y-101239320D02*
X162399680Y-100426220D01*
X162311580Y-96718120D02*
X161510980Y-96718120D01*
X174414180Y-76359720D02*
X174414180Y-75509120D01*
X179925980Y-76334320D02*
X179925980Y-75483720D01*
X191000680Y-80563720D02*
X191000680Y-81326020D01*
X190962580Y-87167720D02*
X191736980Y-87167720D01*
X188421980Y-101303120D02*
X188409580Y-101315520D01*
X189298580Y-101303120D02*
X188421980Y-101303120D01*
D51*
X186327161Y-87676101D02*
X186326780Y-87675720D01*
X187425330Y-87676101D02*
X186327161Y-87676101D01*
X186354339Y-92677361D02*
X186352180Y-92679520D01*
X187425330Y-92677361D02*
X186354339Y-92677361D01*
X186380501Y-99178999D02*
X186377580Y-99181920D01*
X187425330Y-99178999D02*
X186380501Y-99178999D01*
X175399065Y-100649405D02*
X175379380Y-100629720D01*
X175399065Y-101702870D02*
X175399065Y-100649405D01*
X168397301Y-81221199D02*
X168394380Y-81224120D01*
X168397301Y-80150970D02*
X168397301Y-81221199D01*
D50*
X162399680Y-100426220D02*
X162399680Y-99651820D01*
D51*
X174898939Y-81221961D02*
X174896780Y-81224120D01*
X174898939Y-80150970D02*
X174898939Y-81221961D01*
X180400325Y-81206975D02*
X180383180Y-81224120D01*
X180400325Y-80150970D02*
X180400325Y-81206975D01*
D50*
X165257180Y-105838960D02*
X165257480Y-105839260D01*
X165257180Y-107147360D02*
X165257180Y-105838960D01*
X165257180Y-105838960D02*
X165257180Y-104670860D01*
X191000680Y-81326020D02*
X191000680Y-82100420D01*
D52*
X143522700Y-91656200D02*
X142761000Y-91656200D01*
X142761000Y-91656200D02*
X141998700Y-91656200D01*
X132004100Y-88709500D02*
X132004100Y-89471200D01*
X132004100Y-89471200D02*
X132004100Y-90233500D01*
D53*
X113884400Y-118396200D02*
X113227300Y-118396200D01*
X112977300Y-118146200D02*
X112184400Y-118146200D01*
X113227300Y-118396200D02*
X112977300Y-118146200D01*
X111974400Y-119776200D02*
X111974400Y-118937000D01*
X112184400Y-118727000D02*
X112184400Y-118146200D01*
X111974400Y-118937000D02*
X112184400Y-118727000D01*
X113884400Y-112896200D02*
X113048600Y-112896200D01*
X112798600Y-112646200D02*
X112184400Y-112646200D01*
X113048600Y-112896200D02*
X112798600Y-112646200D01*
X111974400Y-111516200D02*
X111974400Y-112152200D01*
X112184400Y-112362200D02*
X112184400Y-112646200D01*
X111974400Y-112152200D02*
X112184400Y-112362200D01*
X113884400Y-112896200D02*
X114433800Y-112896200D01*
X114433800Y-112896200D02*
X114808000Y-112522000D01*
X114808000Y-112522000D02*
X114808000Y-111810800D01*
X115074200Y-111544600D02*
X115747800Y-111544600D01*
X114808000Y-111810800D02*
X115074200Y-111544600D01*
X117246400Y-111544600D02*
X115747800Y-111544600D01*
D52*
X112217200Y-108619800D02*
X112217200Y-107759500D01*
X121716800Y-112471200D02*
X121691400Y-112496600D01*
X122539000Y-112471200D02*
X121716800Y-112471200D01*
X139623800Y-111582200D02*
X139649200Y-111607600D01*
X138752400Y-111582200D02*
X139623800Y-111582200D01*
X139674600Y-115239800D02*
X139687300Y-115252500D01*
X138752400Y-115239800D02*
X139674600Y-115239800D01*
X139649200Y-107924600D02*
X139674600Y-107950000D01*
X138752400Y-107924600D02*
X139649200Y-107924600D01*
X108283600Y-102922500D02*
X107418300Y-102922500D01*
X106530800Y-102035000D02*
X105708600Y-102035000D01*
X107418300Y-102922500D02*
X106530800Y-102035000D01*
X105708600Y-104260000D02*
X105708600Y-102035000D01*
X105708600Y-104260000D02*
X105708600Y-106960000D01*
X105708600Y-106960000D02*
X105708600Y-108785000D01*
X108283600Y-107897500D02*
X107392900Y-107897500D01*
X106505400Y-108785000D02*
X105708600Y-108785000D01*
X107392900Y-107897500D02*
X106505400Y-108785000D01*
X122298460Y-106525440D02*
X122303160Y-106530140D01*
X122298460Y-105692240D02*
X122298460Y-106525440D01*
D54*
X136893000Y-113728200D02*
X136893300Y-113728500D01*
X135724900Y-113728200D02*
X136893000Y-113728200D01*
D55*
X108368600Y-106060000D02*
X108368600Y-106710000D01*
X108368600Y-107812500D02*
X108283600Y-107897500D01*
X108368600Y-106710000D02*
X108368600Y-107812500D01*
X109453200Y-106710000D02*
X109474000Y-106730800D01*
X108368600Y-106710000D02*
X109453200Y-106710000D01*
X109412200Y-102922500D02*
X109435900Y-102946200D01*
X108283600Y-102922500D02*
X109412200Y-102922500D01*
D54*
X166878000Y-112770920D02*
X166890700Y-112783620D01*
X165614800Y-112770920D02*
X166878000Y-112770920D01*
D51*
X165873430Y-92677361D02*
X166952041Y-92677361D01*
X166952041Y-92677361D02*
X166959280Y-92684600D01*
D50*
X175912780Y-105316320D02*
X175912780Y-106159300D01*
X175912780Y-106159300D02*
X175950880Y-106197400D01*
D53*
X166903781Y-87676101D02*
X166913560Y-87685880D01*
X165873430Y-87676101D02*
X166903781Y-87676101D01*
D54*
X110920400Y-80036800D02*
X110935400Y-80051800D01*
X109665400Y-80036800D02*
X110920400Y-80036800D01*
X110935400Y-80051800D02*
X111781480Y-80051800D01*
X113253810Y-69680210D02*
X112975400Y-69401800D01*
X113253810Y-78290532D02*
X113253810Y-76047890D01*
X113545400Y-78582122D02*
X113253810Y-78290532D01*
X113545400Y-80051800D02*
X113545400Y-79158880D01*
X112975400Y-69401800D02*
X112068720Y-69401800D01*
X111321960Y-69401800D02*
X109790400Y-69401800D01*
X112068720Y-69401800D02*
X111321960Y-69401800D01*
X113253810Y-70409090D02*
X113253810Y-69680210D01*
X113253810Y-78290532D02*
X113253810Y-78290532D01*
X113253810Y-74203850D02*
X113253810Y-72197250D01*
X113253810Y-72197250D02*
X113253810Y-70409090D01*
X113253810Y-76047890D02*
X113253810Y-74203850D01*
X111781480Y-80051800D02*
X112523160Y-80051800D01*
X112523160Y-80051800D02*
X113545400Y-80051800D01*
X113545400Y-79158880D02*
X113545400Y-78582122D01*
D52*
X108035640Y-72776800D02*
X108041440Y-72771000D01*
X106985400Y-72776800D02*
X108035640Y-72776800D01*
D50*
X162323180Y-93212920D02*
X161563674Y-93212920D01*
X161563674Y-93212920D02*
X161524625Y-93173871D01*
D56*
X115468400Y-69722900D02*
X114325300Y-69722900D01*
X114004200Y-69401800D02*
X112975400Y-69401800D01*
X114325300Y-69722900D02*
X114004200Y-69401800D01*
X109588600Y-81483200D02*
X110490000Y-81483200D01*
X109665400Y-80036800D02*
X109665400Y-80631400D01*
X109588600Y-80708200D02*
X109588600Y-81483200D01*
X109665400Y-80631400D02*
X109588600Y-80708200D01*
D52*
X155467600Y-99669600D02*
X155467600Y-98399600D01*
X155467600Y-98399600D02*
X156921200Y-98399600D01*
X156921200Y-98399600D02*
X157530800Y-97790000D01*
X157124400Y-95859600D02*
X155467600Y-95859600D01*
X157530800Y-96266000D02*
X157124400Y-95859600D01*
X157530800Y-97790000D02*
X157530800Y-97028000D01*
X157530800Y-97028000D02*
X157530800Y-96266000D01*
D50*
X184607200Y-111899400D02*
X184607200Y-110401400D01*
D54*
X185368799Y-107847999D02*
X180086401Y-107847999D01*
X185826400Y-108305600D02*
X185368799Y-107847999D01*
X180086401Y-107847999D02*
X180086000Y-107848400D01*
X185826400Y-110286800D02*
X185826400Y-108305600D01*
X184607200Y-110401400D02*
X185711800Y-110401400D01*
X185826400Y-110286800D02*
X185711800Y-110401400D01*
X185661000Y-111899400D02*
X185724800Y-111963200D01*
X184607200Y-111899400D02*
X185661000Y-111899400D01*
X185724800Y-111963200D02*
X185724800Y-114096800D01*
X185724800Y-114096800D02*
X185064400Y-114757200D01*
X185064400Y-114757200D02*
X180086000Y-114757200D01*
D51*
X150610000Y-114894400D02*
X150610000Y-115558000D01*
X150685800Y-115633800D02*
X150685800Y-116382800D01*
X150610000Y-115558000D02*
X150685800Y-115633800D01*
X149556000Y-113944400D02*
X149860000Y-113944400D01*
X149110000Y-114390400D02*
X149556000Y-113944400D01*
X149110000Y-114894400D02*
X149110000Y-114390400D01*
X150610000Y-114390400D02*
X150164000Y-113944400D01*
X150610000Y-114894400D02*
X150610000Y-114390400D01*
X150164000Y-113944400D02*
X149860000Y-113944400D01*
X150610000Y-113498400D02*
X150164000Y-113944400D01*
X150610000Y-112994400D02*
X150610000Y-113498400D01*
X145574400Y-114194400D02*
X145324400Y-113944400D01*
X145574400Y-114894400D02*
X145574400Y-114194400D01*
X144520400Y-113944400D02*
X144824400Y-113944400D01*
X144074400Y-114390400D02*
X144520400Y-113944400D01*
X144074400Y-114894400D02*
X144074400Y-114390400D01*
X145128400Y-113944400D02*
X144824400Y-113944400D01*
X145574400Y-113498400D02*
X145128400Y-113944400D01*
X145574400Y-112994400D02*
X145574400Y-113498400D01*
D52*
X150685800Y-116382800D02*
X151587200Y-116382800D01*
D54*
X125780800Y-118973600D02*
X126898400Y-118973600D01*
X125196600Y-118389400D02*
X125780800Y-118973600D01*
X125196600Y-115570000D02*
X125196600Y-118389400D01*
X151942800Y-116027200D02*
X151587200Y-116382800D01*
X151942800Y-114719400D02*
X151942800Y-116027200D01*
X152671600Y-110439200D02*
X153670000Y-110439200D01*
X146913600Y-114719400D02*
X146913600Y-115874800D01*
X146456400Y-116332000D02*
X145656600Y-116332000D01*
X146913600Y-115874800D02*
X146456400Y-116332000D01*
X146558000Y-119126000D02*
X146558000Y-118211600D01*
X145656600Y-117310200D02*
X145656600Y-116332000D01*
X146558000Y-118211600D02*
X145656600Y-117310200D01*
X144018000Y-119126000D02*
X144018000Y-117957600D01*
X144665400Y-117310200D02*
X145656600Y-117310200D01*
X144018000Y-117957600D02*
X144665400Y-117310200D01*
D52*
X202641200Y-101676100D02*
X202641200Y-100279200D01*
D50*
X185412680Y-105100120D02*
X185399680Y-105113120D01*
X186898180Y-105100120D02*
X186898180Y-105100120D01*
X185399680Y-105113120D02*
X183875680Y-105113120D01*
X186898180Y-105100120D02*
X185412680Y-105100120D01*
D57*
X182900955Y-102747445D02*
X182880000Y-102768400D01*
X182900955Y-101702870D02*
X182900955Y-102747445D01*
D50*
X182110380Y-105113120D02*
X182872082Y-105113120D01*
X182887918Y-105113120D02*
X182880000Y-105105202D01*
X183875680Y-105113120D02*
X182887918Y-105113120D01*
D52*
X174807880Y-111307880D02*
X174828200Y-111328200D01*
X174807880Y-110518240D02*
X174807880Y-111307880D01*
D50*
X193123220Y-97845880D02*
X192285620Y-97845880D01*
D52*
X190906400Y-91948000D02*
X190931800Y-91973400D01*
X190906400Y-90616000D02*
X190906400Y-91948000D01*
D50*
X189184280Y-93718980D02*
X190061180Y-93718980D01*
X190061180Y-93718980D02*
X190068200Y-93726000D01*
D54*
X137896600Y-94703400D02*
X137896600Y-95580200D01*
X134023100Y-82575100D02*
X134010400Y-82587800D01*
X138645900Y-82575100D02*
X137871500Y-82575100D01*
X138150600Y-88353900D02*
X138150600Y-88341200D01*
D57*
X137900600Y-88103900D02*
X138150600Y-88353900D01*
X137900600Y-86416400D02*
X137900600Y-88103900D01*
D54*
X137871500Y-82575100D02*
X136296700Y-82575100D01*
X136296700Y-82575100D02*
X134721900Y-82575100D01*
X134721900Y-82575100D02*
X134023100Y-82575100D01*
D52*
X144500600Y-85547200D02*
X144510760Y-85557360D01*
X143573000Y-85547200D02*
X144500600Y-85547200D01*
X130375360Y-96012000D02*
X130380440Y-96017080D01*
X130375360Y-92339160D02*
X130375360Y-93195440D01*
X130375360Y-93195440D02*
X130375360Y-95212200D01*
X130375360Y-95212200D02*
X130375360Y-96012000D01*
D50*
X162310780Y-87340140D02*
X162306000Y-87335360D01*
X162310780Y-88209120D02*
X162310780Y-87340140D01*
D56*
X122298460Y-105673860D02*
X123842780Y-104129540D01*
X122298460Y-105692240D02*
X122298460Y-105673860D01*
D52*
X127243840Y-107934760D02*
X127243840Y-107241340D01*
X127243840Y-107241340D02*
X127485140Y-107000040D01*
X127485140Y-107000040D02*
X129552700Y-107000040D01*
X129783840Y-107231180D02*
X129783840Y-107934760D01*
X129552700Y-107000040D02*
X129783840Y-107231180D01*
X131053840Y-109204760D02*
X131053840Y-110022640D01*
X157530800Y-97028000D02*
X157530800Y-96598740D01*
D51*
X114310160Y-103456440D02*
X115224260Y-103456440D01*
X115585960Y-103456440D02*
X115772440Y-103642920D01*
X115224260Y-103456440D02*
X115585960Y-103456440D01*
X116426500Y-103642920D02*
X115772440Y-103642920D01*
D50*
X168314230Y-76347020D02*
X168217009Y-76444241D01*
X168940480Y-76347020D02*
X168314230Y-76347020D01*
X167416480Y-76334020D02*
X168106788Y-76334020D01*
X168106788Y-76334020D02*
X168217009Y-76444241D01*
D54*
X142204400Y-106974600D02*
X140952400Y-106974600D01*
X142773400Y-107543600D02*
X142204400Y-106974600D01*
X142392400Y-113411000D02*
X142773400Y-113030000D01*
X141211300Y-113411000D02*
X142392400Y-113411000D01*
X140952400Y-113669900D02*
X141211300Y-113411000D01*
X140952400Y-114289800D02*
X140952400Y-113669900D01*
X142770900Y-110632200D02*
X142773400Y-110629700D01*
X140952400Y-110632200D02*
X142770900Y-110632200D01*
X142773400Y-113030000D02*
X142773400Y-110629700D01*
X142773400Y-108966000D02*
X142773400Y-107543600D01*
X142773400Y-110629700D02*
X142773400Y-108966000D01*
D51*
X145074400Y-114894400D02*
X144574400Y-114894400D01*
D54*
X142773400Y-113030000D02*
X142773400Y-116103400D01*
X143002000Y-116332000D02*
X144106600Y-116332000D01*
X142773400Y-116103400D02*
X143002000Y-116332000D01*
X141478000Y-117856000D02*
X143002000Y-116332000D01*
X141478000Y-119126000D02*
X141478000Y-117856000D01*
D58*
X144574400Y-114894400D02*
X144574400Y-115166000D01*
X144106600Y-115633800D02*
X144106600Y-116332000D01*
X144574400Y-115166000D02*
X144106600Y-115633800D01*
D54*
X154228800Y-107543600D02*
X154871600Y-108186400D01*
X154871600Y-108186400D02*
X154871600Y-109489200D01*
X142773400Y-107543600D02*
X154228800Y-107543600D01*
D51*
X174398813Y-77925087D02*
X174414180Y-77909720D01*
X174398813Y-79055087D02*
X174414180Y-79039720D01*
X174398813Y-80150970D02*
X174398813Y-79055087D01*
X174398813Y-79055087D02*
X174398813Y-77925087D01*
X167897175Y-79355315D02*
X167429180Y-78887320D01*
X167897175Y-80150970D02*
X167897175Y-79355315D01*
X167416480Y-78874620D02*
X167429180Y-78887320D01*
X167416480Y-77884020D02*
X167416480Y-78874620D01*
X163893673Y-88176227D02*
X163860780Y-88209120D01*
X165873430Y-88176227D02*
X164754687Y-88176227D01*
X163908613Y-93177487D02*
X163873180Y-93212920D01*
X165873430Y-93177487D02*
X164701347Y-93177487D01*
X164701347Y-93177487D02*
X163908613Y-93177487D01*
X164754687Y-88176227D02*
X163893673Y-88176227D01*
X163976985Y-99679125D02*
X163949680Y-99651820D01*
X165873430Y-99679125D02*
X164725985Y-99679125D01*
X164725985Y-99679125D02*
X163976985Y-99679125D01*
X164725985Y-99679125D02*
X164725985Y-99319715D01*
X164866701Y-99178999D02*
X165873430Y-99178999D01*
X164725985Y-99319715D02*
X164866701Y-99178999D01*
X175899191Y-103752731D02*
X175912780Y-103766320D01*
X175899191Y-101702870D02*
X175899191Y-102876731D01*
X175899191Y-102876731D02*
X175899191Y-103752731D01*
X170397805Y-100709095D02*
X170400980Y-100705920D01*
X170397805Y-101702870D02*
X170397805Y-100709095D01*
X188587380Y-80563720D02*
X188561980Y-80589120D01*
X189450680Y-80563720D02*
X188587380Y-80563720D01*
X187425330Y-82174715D02*
X188205035Y-82174715D01*
X188561980Y-81817770D02*
X188561980Y-80589120D01*
X188205035Y-82174715D02*
X188561980Y-81817770D01*
X189404325Y-87175975D02*
X189412580Y-87167720D01*
X187425330Y-87175975D02*
X188544835Y-87175975D01*
X188544835Y-87175975D02*
X189404325Y-87175975D01*
X179900199Y-77910101D02*
X179925980Y-77884320D01*
X179900199Y-80150970D02*
X179900199Y-79039339D01*
X179900199Y-79039339D02*
X179900199Y-77910101D01*
D50*
X163949680Y-99651820D02*
X163949680Y-100452220D01*
D51*
X188607827Y-98678873D02*
X188612780Y-98673920D01*
X187425330Y-98678873D02*
X188607827Y-98678873D01*
X189298580Y-99753120D02*
X189298580Y-98902520D01*
X189069980Y-98673920D02*
X188612780Y-98673920D01*
X189298580Y-98902520D02*
X189069980Y-98673920D01*
D50*
X163949680Y-100452220D02*
X163949680Y-101239320D01*
D51*
X182400829Y-102498978D02*
X182123828Y-102775979D01*
X182400829Y-101702870D02*
X182400829Y-102498978D01*
X182110380Y-102789427D02*
X182123828Y-102775979D01*
X182110380Y-103563120D02*
X182110380Y-102789427D01*
D52*
X143522700Y-90106200D02*
X142785800Y-90106200D01*
X142785800Y-90106200D02*
X141998700Y-90106200D01*
D51*
X182400829Y-100783771D02*
X182427880Y-100756720D01*
X182400829Y-101702870D02*
X182400829Y-100783771D01*
D56*
X106129799Y-75542319D02*
X106129799Y-80424999D01*
X106695318Y-74976800D02*
X106129799Y-75542319D01*
X106129799Y-80424999D02*
X107137200Y-81432400D01*
X106985400Y-74976800D02*
X106695318Y-74976800D01*
X107188000Y-81483200D02*
X107137200Y-81432400D01*
X108038600Y-81483200D02*
X107188000Y-81483200D01*
X115468400Y-76771000D02*
X115468400Y-77724000D01*
D54*
X146913600Y-113169400D02*
X146913600Y-112268000D01*
X146710400Y-110490000D02*
X145930800Y-110490000D01*
X146913600Y-110693200D02*
X146710400Y-110490000D01*
X146913600Y-110845600D02*
X146913600Y-110693200D01*
X146913600Y-112268000D02*
X146913600Y-111556800D01*
X146913600Y-111556800D02*
X146913600Y-110845600D01*
D58*
X145074400Y-112994400D02*
X145074400Y-112481600D01*
X145074400Y-112481600D02*
X145237200Y-112318800D01*
X145237200Y-112318800D02*
X145592800Y-112318800D01*
X145930800Y-111980800D02*
X145930800Y-110490000D01*
X145592800Y-112318800D02*
X145930800Y-111980800D01*
D57*
X133858000Y-119126000D02*
X133858000Y-118033800D01*
X133858000Y-118033800D02*
X133375400Y-117551200D01*
X133375400Y-117551200D02*
X132816600Y-117551200D01*
X132550400Y-117285000D02*
X132550400Y-116509800D01*
X132816600Y-117551200D02*
X132550400Y-117285000D01*
D52*
X174800560Y-108960920D02*
X174807880Y-108968240D01*
X172814800Y-108960920D02*
X173995080Y-108960920D01*
X173995080Y-108960920D02*
X174800560Y-108960920D01*
D50*
X188473180Y-103512620D02*
X188473180Y-104475380D01*
X188473180Y-104475380D02*
X188493400Y-104495600D01*
D52*
X194716400Y-97828400D02*
X194704000Y-97840800D01*
X194716400Y-95566000D02*
X194716400Y-97002600D01*
X194716400Y-97002600D02*
X194716400Y-97828400D01*
D51*
X189176025Y-92177235D02*
X189184280Y-92168980D01*
X188416565Y-92177235D02*
X188417200Y-92176600D01*
X188365765Y-92177235D02*
X188416565Y-92177235D01*
X187425330Y-92177235D02*
X188365765Y-92177235D01*
X188365765Y-92177235D02*
X189176025Y-92177235D01*
D54*
X122745000Y-73563480D02*
X122760240Y-73548240D01*
X122745000Y-79629000D02*
X122745000Y-73563480D01*
X122760240Y-73548240D02*
X126095760Y-73548240D01*
X127254000Y-72390000D02*
X127254000Y-70866000D01*
X126095760Y-73548240D02*
X127254000Y-72390000D01*
D51*
X140996400Y-89103900D02*
X141998700Y-90106200D01*
X140088100Y-89103900D02*
X140996400Y-89103900D01*
D54*
X139446000Y-94703400D02*
X139446000Y-95605600D01*
D52*
X142785800Y-90106200D02*
X142785800Y-90106200D01*
D54*
X135585300Y-81102200D02*
X136550400Y-81102200D01*
X130340600Y-80568800D02*
X129540000Y-80568800D01*
D52*
X143573000Y-83972400D02*
X144581880Y-83972400D01*
D51*
X120301500Y-104142920D02*
X116426500Y-104142920D01*
X116426420Y-104142840D02*
X116426500Y-104142920D01*
X122297780Y-104142920D02*
X122298460Y-104142240D01*
X120301500Y-104142920D02*
X121277000Y-104142920D01*
X121277000Y-104142920D02*
X121259600Y-104160320D01*
X121277000Y-104142920D02*
X122297780Y-104142920D01*
X117967760Y-108077000D02*
X117957600Y-108066840D01*
X118697240Y-108077000D02*
X117967760Y-108077000D01*
D52*
X132367020Y-107934760D02*
X132920740Y-107381040D01*
X132323840Y-107934760D02*
X132367020Y-107934760D01*
D56*
X146743920Y-100886260D02*
X146743920Y-100128840D01*
X146743920Y-100128840D02*
X146743920Y-99402900D01*
D51*
X116426500Y-104142920D02*
X115866800Y-104142920D01*
X115866800Y-104172074D02*
X115866800Y-104142920D01*
X114310160Y-105006440D02*
X115032434Y-105006440D01*
X115420747Y-104618127D02*
X115435380Y-104632760D01*
X115032434Y-105006440D02*
X115420747Y-104618127D01*
X115420747Y-104618127D02*
X115866800Y-104172074D01*
X116416340Y-104632760D02*
X116426500Y-104642920D01*
X115435380Y-104632760D02*
X116416340Y-104632760D01*
X112570260Y-101922580D02*
X112547400Y-101899720D01*
X113325140Y-101922580D02*
X112570260Y-101922580D01*
D52*
X155467600Y-100939600D02*
X157327596Y-100939600D01*
X157327596Y-100939600D02*
X157327598Y-100939598D01*
D51*
X183901207Y-103537593D02*
X183875680Y-103563120D01*
X183401081Y-101702870D02*
X183401081Y-102657021D01*
X183494553Y-102750493D02*
X183901207Y-102750493D01*
X183401081Y-102657021D02*
X183494553Y-102750493D01*
X183901207Y-102750493D02*
X183901207Y-103537593D01*
X183901207Y-101702870D02*
X183901207Y-102750493D01*
D50*
X183875680Y-103563120D02*
X185399680Y-103563120D01*
X185450180Y-103512620D02*
X185399680Y-103563120D01*
X186898180Y-103512620D02*
X185450180Y-103512620D01*
X168742680Y-107147360D02*
X168762680Y-107127360D01*
X166807180Y-107147360D02*
X168742680Y-107147360D01*
D57*
X168981120Y-106248200D02*
X170129200Y-106248200D01*
X171898183Y-104479217D02*
X171898183Y-101702870D01*
X170129200Y-106248200D02*
X171898183Y-104479217D01*
X168762680Y-106466640D02*
X168981120Y-106248200D01*
X168762680Y-107127360D02*
X168762680Y-106466640D01*
X181864000Y-111963200D02*
X181864000Y-113000400D01*
X181254400Y-111353600D02*
X181864000Y-111963200D01*
X179628800Y-111353600D02*
X181254400Y-111353600D01*
X178899947Y-110624747D02*
X179628800Y-111353600D01*
X178899947Y-101702870D02*
X178899947Y-110624747D01*
D50*
X184607200Y-113449400D02*
X183909000Y-113449400D01*
X183460000Y-113000400D02*
X181864000Y-113000400D01*
X183909000Y-113449400D02*
X183460000Y-113000400D01*
X166850680Y-104627360D02*
X166807180Y-104670860D01*
X168762680Y-104627360D02*
X166850680Y-104627360D01*
D57*
X171398057Y-104313863D02*
X171398057Y-101702870D01*
X169016680Y-105684320D02*
X170027600Y-105684320D01*
X168762680Y-105430320D02*
X169016680Y-105684320D01*
X170027600Y-105684320D02*
X171398057Y-104313863D01*
X168762680Y-104627360D02*
X168762680Y-105430320D01*
X179400073Y-110413673D02*
X179400073Y-101702870D01*
X179933600Y-110947200D02*
X179400073Y-110413673D01*
X181254400Y-110947200D02*
X179933600Y-110947200D01*
X181864000Y-110337600D02*
X181254400Y-110947200D01*
X181864000Y-109300400D02*
X181864000Y-110337600D01*
D50*
X181864000Y-109300400D02*
X183307600Y-109300400D01*
X183756600Y-108851400D02*
X184607200Y-108851400D01*
X183307600Y-109300400D02*
X183756600Y-108851400D01*
D52*
X123646600Y-117725400D02*
X123646600Y-115570000D01*
X122398400Y-118973600D02*
X123646600Y-117725400D01*
D57*
X134200400Y-116509800D02*
X135204200Y-116509800D01*
X136398000Y-117703600D02*
X136398000Y-119126000D01*
X135204200Y-116509800D02*
X136398000Y-117703600D01*
X153162000Y-95859600D02*
X153163270Y-95860870D01*
X151567600Y-95859600D02*
X153162000Y-95859600D01*
D58*
X179900199Y-99138359D02*
X179900199Y-101702870D01*
X178757580Y-97995740D02*
X179900199Y-99138359D01*
D57*
X119885460Y-100756720D02*
X138699240Y-100756720D01*
X118864000Y-102705420D02*
X118864000Y-101778180D01*
X118864000Y-101778180D02*
X119885460Y-100756720D01*
X139547600Y-100756720D02*
X138699240Y-100756720D01*
X144444720Y-95859600D02*
X139547600Y-100756720D01*
X151567600Y-95859600D02*
X144444720Y-95859600D01*
D51*
X187425330Y-82674841D02*
X188279659Y-82674841D01*
X188854080Y-82100420D02*
X189450680Y-82100420D01*
X188279659Y-82674841D02*
X188854080Y-82100420D01*
X168897427Y-77940073D02*
X168940480Y-77897020D01*
X168897427Y-80150970D02*
X168897427Y-77940073D01*
X149610000Y-114894400D02*
X149610000Y-115413600D01*
X149135800Y-115887800D02*
X149135800Y-116382800D01*
X149610000Y-115413600D02*
X149135800Y-115887800D01*
X150110000Y-114894400D02*
X149610000Y-114894400D01*
D54*
X149098000Y-116420600D02*
X149135800Y-116382800D01*
X149098000Y-119126000D02*
X149098000Y-116420600D01*
D57*
X194716400Y-90616000D02*
X194716400Y-87934800D01*
X194716400Y-87934800D02*
X192862200Y-86080600D01*
X192862200Y-86080600D02*
X188823600Y-86080600D01*
X188728477Y-86175723D02*
X187425330Y-86175723D01*
X188823600Y-86080600D02*
X188728477Y-86175723D01*
X111241655Y-115548600D02*
X111067855Y-115722400D01*
X111561799Y-115548600D02*
X111241655Y-115548600D01*
X111659399Y-115646200D02*
X111561799Y-115548600D01*
X112184400Y-115646200D02*
X111659399Y-115646200D01*
X114789202Y-115493800D02*
X114963002Y-115320000D01*
X114507001Y-115493800D02*
X114789202Y-115493800D01*
X114409401Y-115396200D02*
X114507001Y-115493800D01*
X113884400Y-115396200D02*
X114409401Y-115396200D01*
X114963002Y-115320000D02*
X115136802Y-115493800D01*
X115136802Y-115493800D02*
X117686192Y-115493800D01*
X117686192Y-115493800D02*
X118358920Y-114821072D01*
X118358920Y-114821072D02*
X118358920Y-112829712D01*
X119863999Y-111521200D02*
X120539000Y-111521200D01*
X119066399Y-112318800D02*
X119863999Y-111521200D01*
X118869832Y-112318800D02*
X119066399Y-112318800D01*
X118358920Y-112829712D02*
X118869832Y-112318800D01*
X171221389Y-82384528D02*
X171221389Y-96223193D01*
X169989500Y-80921860D02*
X169989500Y-81152639D01*
X169897679Y-80830039D02*
X169989500Y-80921860D01*
X171221389Y-96223193D02*
X163223313Y-104221269D01*
X169989500Y-81152639D02*
X171221389Y-82384528D01*
X169897679Y-80150970D02*
X169897679Y-80830039D01*
X133363072Y-112318800D02*
X135501380Y-110180492D01*
X123171881Y-111842599D02*
X123648082Y-112318800D01*
X121535400Y-111842599D02*
X123171881Y-111842599D01*
X121214001Y-111521200D02*
X121535400Y-111842599D01*
X120539000Y-111521200D02*
X121214001Y-111521200D01*
X123648082Y-112318800D02*
X133363072Y-112318800D01*
X135501380Y-110180492D02*
X135501380Y-106400972D01*
X137681083Y-104221269D02*
X163223313Y-104221269D01*
X135501380Y-106400972D02*
X137681083Y-104221269D01*
X113884400Y-115896200D02*
X113445100Y-115896200D01*
X112695100Y-115146200D02*
X112184400Y-115146200D01*
X113445100Y-115896200D02*
X112695100Y-115146200D01*
X114789202Y-115798600D02*
X114963002Y-115972400D01*
X114507001Y-115798600D02*
X114789202Y-115798600D01*
X114409401Y-115896200D02*
X114507001Y-115798600D01*
X113884400Y-115896200D02*
X114409401Y-115896200D01*
X114963002Y-115972400D02*
X115136802Y-115798600D01*
X115136802Y-115798600D02*
X117812448Y-115798600D01*
X117812448Y-115798600D02*
X118663720Y-114947328D01*
X118663720Y-114947328D02*
X118663720Y-112955968D01*
X119863999Y-113421200D02*
X120539000Y-113421200D01*
X119066399Y-112623600D02*
X119863999Y-113421200D01*
X118996088Y-112623600D02*
X119066399Y-112623600D01*
X118663720Y-112955968D02*
X118996088Y-112623600D01*
X171526200Y-96349448D02*
X163349568Y-104526080D01*
X171526200Y-82258272D02*
X171526200Y-96349448D01*
X170309540Y-81041612D02*
X171526200Y-82258272D01*
X170309540Y-80916780D02*
X170309540Y-81041612D01*
X170397805Y-80828515D02*
X170309540Y-80916780D01*
X170397805Y-80150970D02*
X170397805Y-80828515D01*
X133489328Y-112623600D02*
X135806180Y-110306748D01*
X123648082Y-112623600D02*
X133489328Y-112623600D01*
X121535400Y-113099801D02*
X123171881Y-113099801D01*
X121214001Y-113421200D02*
X121535400Y-113099801D01*
X123171881Y-113099801D02*
X123648082Y-112623600D01*
X120539000Y-113421200D02*
X121214001Y-113421200D01*
X135806180Y-110306748D02*
X135806180Y-106527228D01*
X137807328Y-104526080D02*
X163349568Y-104526080D01*
X135806180Y-106527228D02*
X137807328Y-104526080D01*
D53*
X113884400Y-116896200D02*
X113213200Y-116896200D01*
X112963200Y-116646200D02*
X112184400Y-116646200D01*
X113213200Y-116896200D02*
X112963200Y-116646200D01*
X112184400Y-114146200D02*
X112927000Y-114146200D01*
X113177000Y-114396200D02*
X113884400Y-114396200D01*
X112927000Y-114146200D02*
X113177000Y-114396200D01*
X110618400Y-114146200D02*
X112184400Y-114146200D01*
X110032800Y-114731800D02*
X110618400Y-114146200D01*
X110032800Y-116446300D02*
X110032800Y-114731800D01*
X111258350Y-117106700D02*
X110693200Y-117106700D01*
X110693200Y-117106700D02*
X110032800Y-116446300D01*
X111718850Y-116646200D02*
X111258350Y-117106700D01*
X112184400Y-116646200D02*
X111718850Y-116646200D01*
D52*
X138752400Y-116189800D02*
X137894100Y-116189800D01*
X138123078Y-110632200D02*
X138752400Y-110632200D01*
X137819999Y-110935279D02*
X138123078Y-110632200D01*
X137894100Y-116189800D02*
X137819999Y-116115699D01*
X137983000Y-114289800D02*
X137819999Y-114452801D01*
X137819999Y-114452801D02*
X137819999Y-110935279D01*
X138752400Y-114289800D02*
X137983000Y-114289800D01*
X137819999Y-115290199D02*
X135736899Y-115290199D01*
X135736899Y-115290199D02*
X135724900Y-115278200D01*
X137819999Y-116115699D02*
X137819999Y-115290199D01*
X137819999Y-115290199D02*
X137819999Y-114452801D01*
D53*
X113884400Y-116896200D02*
X114915000Y-116896200D01*
X114915000Y-116896200D02*
X114935000Y-116916200D01*
D52*
X114935000Y-116916200D02*
X114528600Y-116916200D01*
X115681760Y-116916200D02*
X114935000Y-116916200D01*
X116108480Y-116489480D02*
X115681760Y-116916200D01*
X118333520Y-116489480D02*
X116108480Y-116489480D01*
X120599399Y-114223601D02*
X118333520Y-116489480D01*
X120599399Y-114223601D02*
X129362001Y-114223601D01*
X130416600Y-115278200D02*
X135724900Y-115278200D01*
X129362001Y-114223601D02*
X130416600Y-115278200D01*
D51*
X150110000Y-112490400D02*
X150281600Y-112318800D01*
X150110000Y-112994400D02*
X150110000Y-112490400D01*
X150281600Y-112318800D02*
X150672800Y-112318800D01*
X150672800Y-112318800D02*
X150977600Y-112014000D01*
X150960000Y-111996400D02*
X150960000Y-110490000D01*
X150977600Y-112014000D02*
X150960000Y-111996400D01*
D54*
X152671600Y-111640800D02*
X151942800Y-112369600D01*
X151942800Y-112369600D02*
X151942800Y-113169400D01*
X152671600Y-111389200D02*
X152671600Y-111640800D01*
X152671600Y-111389200D02*
X151043600Y-111389200D01*
X152671600Y-109489200D02*
X150960000Y-109489200D01*
X150960000Y-109489200D02*
X150960000Y-110490000D01*
D51*
X123842780Y-106606340D02*
X123842780Y-105679540D01*
X122016520Y-107208320D02*
X123240800Y-107208320D01*
X121493280Y-106685080D02*
X122016520Y-107208320D01*
X121493280Y-105397200D02*
X121493280Y-106685080D01*
X120739000Y-104642920D02*
X121493280Y-105397200D01*
X123240800Y-107208320D02*
X123842780Y-106606340D01*
X120301500Y-104642920D02*
X120739000Y-104642920D01*
D57*
X124873720Y-105679540D02*
X123842780Y-105679540D01*
X125275340Y-105277920D02*
X124873720Y-105679540D01*
X126451360Y-102809040D02*
X125275340Y-103985060D01*
X131071620Y-102809040D02*
X126451360Y-102809040D01*
X132049520Y-103786940D02*
X131071620Y-102809040D01*
X132049520Y-106568240D02*
X132049520Y-103786940D01*
X125275340Y-103985060D02*
X125275340Y-105277920D01*
X131701539Y-106916221D02*
X132049520Y-106568240D01*
X131701539Y-108582459D02*
X131701539Y-106916221D01*
X132323840Y-109204760D02*
X131701539Y-108582459D01*
X109576201Y-104932600D02*
X111739428Y-104932600D01*
X109403601Y-104760000D02*
X109576201Y-104932600D01*
X108368600Y-104760000D02*
X109403601Y-104760000D01*
X113167200Y-106569800D02*
X113167200Y-106619800D01*
X112369600Y-105772200D02*
X113167200Y-106569800D01*
X112369600Y-105562772D02*
X112369600Y-105772200D01*
X111739428Y-104932600D02*
X112369600Y-105562772D01*
D59*
X112442200Y-109322201D02*
X112442200Y-109695760D01*
X112819121Y-109322201D02*
X112442200Y-109322201D01*
X112869601Y-109271721D02*
X112819121Y-109322201D01*
X112869601Y-107592400D02*
X112869601Y-109271721D01*
X113167200Y-107294801D02*
X112869601Y-107592400D01*
X113167200Y-106619800D02*
X113167200Y-107294801D01*
X112442200Y-109695760D02*
X112615200Y-109868760D01*
X112615200Y-109868760D02*
X113518460Y-109868760D01*
X113518460Y-109868760D02*
X114621100Y-108766120D01*
X114621100Y-108766120D02*
X114621100Y-105954340D01*
X116401500Y-105167920D02*
X116426500Y-105142920D01*
X115407520Y-105167920D02*
X116401500Y-105167920D01*
X114621100Y-105954340D02*
X115407520Y-105167920D01*
D57*
X109576201Y-105237400D02*
X111613172Y-105237400D01*
X109403601Y-105410000D02*
X109576201Y-105237400D01*
X108368600Y-105410000D02*
X109403601Y-105410000D01*
X111267200Y-106569800D02*
X111267200Y-106619800D01*
X112064800Y-105772200D02*
X111267200Y-106569800D01*
X112064800Y-105689028D02*
X112064800Y-105772200D01*
X111613172Y-105237400D02*
X112064800Y-105689028D01*
D59*
X111992200Y-109322201D02*
X111992200Y-109882160D01*
X111615279Y-109322201D02*
X111992200Y-109322201D01*
X111564799Y-109271721D02*
X111615279Y-109322201D01*
X111564799Y-107592400D02*
X111564799Y-109271721D01*
X111267200Y-107294801D02*
X111564799Y-107592400D01*
X111267200Y-106619800D02*
X111267200Y-107294801D01*
X111992200Y-109882160D02*
X112428800Y-110318760D01*
X112428800Y-110318760D02*
X113704860Y-110318760D01*
X113704860Y-110318760D02*
X115071100Y-108952520D01*
X115071100Y-108952520D02*
X115071100Y-106140740D01*
X116401500Y-105617920D02*
X116426500Y-105642920D01*
X115593920Y-105617920D02*
X116401500Y-105617920D01*
X115071100Y-106140740D02*
X115593920Y-105617920D01*
D52*
X137819999Y-107277679D02*
X138123078Y-106974600D01*
X138123078Y-106974600D02*
X138752400Y-106974600D01*
X138123078Y-108874600D02*
X137819999Y-108571521D01*
X138752400Y-108874600D02*
X138123078Y-108874600D01*
X137819999Y-107937301D02*
X137819998Y-107937300D01*
X137819999Y-107937701D02*
X137819999Y-107937301D01*
X137819999Y-108571521D02*
X137819999Y-107937701D01*
X137819999Y-107937701D02*
X137819999Y-107277679D01*
X112971100Y-104110000D02*
X112966500Y-104114600D01*
X111082300Y-104110000D02*
X111086900Y-104114600D01*
X108368600Y-104110000D02*
X111082300Y-104110000D01*
X111691900Y-104110000D02*
X111696500Y-104114600D01*
X111688400Y-104110000D02*
X111691900Y-104110000D01*
X111082300Y-104110000D02*
X111688400Y-104110000D01*
X112326900Y-104110000D02*
X112323400Y-104110000D01*
X112323400Y-104110000D02*
X112318800Y-104114600D01*
X111688400Y-104110000D02*
X112326900Y-104110000D01*
X112326900Y-104110000D02*
X112971100Y-104110000D01*
D51*
X120361500Y-106142920D02*
X120910470Y-106142920D01*
X121086870Y-106319320D02*
X121086870Y-107812850D01*
X120910470Y-106142920D02*
X121086870Y-106319320D01*
X120822720Y-108077000D02*
X120347240Y-108077000D01*
X121086870Y-107812850D02*
X120822720Y-108077000D01*
D52*
X120347240Y-108077000D02*
X123708160Y-108077000D01*
X123708160Y-108077000D02*
X125877320Y-105907840D01*
X125877320Y-105907840D02*
X125877320Y-104790240D01*
X126436120Y-104231440D02*
X128049020Y-104231440D01*
X125877320Y-104790240D02*
X126436120Y-104231440D01*
D57*
X165873430Y-82174715D02*
X169840275Y-82174715D01*
X170510189Y-94955699D02*
X168737280Y-96728608D01*
X168737280Y-96728608D02*
X168737280Y-97417710D01*
X169840275Y-82174715D02*
X170510189Y-82844629D01*
X170510189Y-82844629D02*
X170510189Y-94955699D01*
X151567600Y-99669600D02*
X149649180Y-99669600D01*
X149382480Y-99402900D02*
X148393920Y-99402900D01*
X149649180Y-99669600D02*
X149382480Y-99402900D01*
X153306780Y-99669600D02*
X153332180Y-99644200D01*
X153332180Y-101209333D02*
X153332180Y-99644200D01*
X151567600Y-99669600D02*
X153306780Y-99669600D01*
X120301500Y-103642920D02*
X121459500Y-103642920D01*
X121459500Y-103642920D02*
X122664220Y-102438200D01*
X122664220Y-102438200D02*
X152103313Y-102438200D01*
X152103313Y-102438200D02*
X153332180Y-101209333D01*
X169397553Y-81295113D02*
X170815000Y-82712560D01*
X169397553Y-80150970D02*
X169397553Y-81295113D01*
X170815000Y-95343980D02*
X169219880Y-96939100D01*
X170815000Y-82712560D02*
X170815000Y-95343980D01*
X121271160Y-103142920D02*
X120361500Y-103142920D01*
X122341640Y-102072440D02*
X121271160Y-103142920D01*
X148005800Y-102072440D02*
X122341640Y-102072440D01*
X148393920Y-101684320D02*
X148005800Y-102072440D01*
X148393920Y-100886260D02*
X148393920Y-101684320D01*
X149278340Y-100939600D02*
X149225000Y-100886260D01*
X149225000Y-100886260D02*
X148393920Y-100886260D01*
X151567600Y-100939600D02*
X149278340Y-100939600D01*
X170897931Y-80982820D02*
X171907189Y-81992078D01*
X170897931Y-80150970D02*
X170897931Y-80982820D01*
X171907189Y-95585425D02*
X171907189Y-95183949D01*
X172413212Y-96091448D02*
X171907189Y-95585425D01*
X171907189Y-81992078D02*
X171907189Y-95183949D01*
X119864000Y-102645420D02*
X120787500Y-101721920D01*
X120787500Y-101721920D02*
X142054580Y-101721920D01*
X142054580Y-101721920D02*
X143733520Y-100042980D01*
X171398057Y-81051880D02*
X172212000Y-81865823D01*
X171398057Y-80150970D02*
X171398057Y-81051880D01*
X172984160Y-95775780D02*
X172212000Y-95003620D01*
X172212000Y-95003620D02*
X172212000Y-94681040D01*
X172212000Y-81865823D02*
X172212000Y-94681040D01*
X119364000Y-102705420D02*
X119364000Y-101918260D01*
X119364000Y-101918260D02*
X119870220Y-101412040D01*
X119870220Y-101412040D02*
X141018260Y-101412040D01*
X141018260Y-101412040D02*
X142003780Y-100426520D01*
X138900600Y-91047000D02*
X139268200Y-91414600D01*
X138900600Y-90291400D02*
X138900600Y-91047000D01*
X180900451Y-101702870D02*
X180900451Y-97773871D01*
X180900451Y-97773871D02*
X177269140Y-94142560D01*
X184901459Y-98866579D02*
X183047640Y-97012760D01*
X184901459Y-101702870D02*
X184901459Y-98866579D01*
X143573000Y-87096600D02*
X144744440Y-87096600D01*
X144744440Y-87096600D02*
X146588480Y-88940640D01*
X138400600Y-90291400D02*
X138400600Y-91410600D01*
X139446000Y-92456000D02*
X139446000Y-93053400D01*
X138400600Y-91410600D02*
X139090400Y-92100400D01*
X139090400Y-92100400D02*
X139446000Y-92456000D01*
X185401585Y-97952255D02*
X182140527Y-94691197D01*
X182140527Y-94691197D02*
X178775357Y-94691197D01*
X185401585Y-101702870D02*
X185401585Y-97952255D01*
X143573000Y-88620600D02*
X144322800Y-88620600D01*
X144322800Y-88620600D02*
X145465800Y-89763600D01*
X181437280Y-93207840D02*
X176128680Y-93207840D01*
X184907809Y-96678369D02*
X181437280Y-93207840D01*
X187425330Y-96678369D02*
X184907809Y-96678369D01*
X143585200Y-93167200D02*
X144399000Y-93167200D01*
X181680039Y-92708919D02*
X174758159Y-92708919D01*
X185149363Y-96178243D02*
X181680039Y-92708919D01*
X187425330Y-96178243D02*
X185149363Y-96178243D01*
X143598400Y-94716600D02*
X144424400Y-94716600D01*
X187425330Y-95678117D02*
X185304557Y-95678117D01*
X185304557Y-95678117D02*
X181818280Y-92191840D01*
X181818280Y-92191840D02*
X173248320Y-92191840D01*
X139400600Y-85795800D02*
X139750800Y-85445600D01*
X139400600Y-86416400D02*
X139400600Y-85795800D01*
X156279977Y-90676857D02*
X153832560Y-88229440D01*
X165873430Y-90676857D02*
X156279977Y-90676857D01*
X138900600Y-85533800D02*
X138912600Y-85521800D01*
X138900600Y-86416400D02*
X138900600Y-85533800D01*
X165873430Y-91677109D02*
X156531819Y-91677109D01*
X156531819Y-91677109D02*
X153115455Y-88260745D01*
X138400600Y-85140281D02*
X138390678Y-85130359D01*
X138400600Y-86416400D02*
X138400600Y-85140281D01*
X165873430Y-92177235D02*
X156302075Y-92177235D01*
X156302075Y-92177235D02*
X153146760Y-89021920D01*
D51*
X137400600Y-90291400D02*
X137400600Y-91783600D01*
X137400600Y-91783600D02*
X136931400Y-92252800D01*
X136931400Y-92252800D02*
X136931400Y-94005400D01*
X136931400Y-94005400D02*
X136347200Y-94589600D01*
X136347200Y-94589600D02*
X134797800Y-94589600D01*
X134594600Y-94792800D02*
X134594600Y-96033200D01*
X134797800Y-94589600D02*
X134594600Y-94792800D01*
D52*
X134578480Y-96017080D02*
X134594600Y-96033200D01*
X131930440Y-96017080D02*
X134578480Y-96017080D01*
D51*
X134950200Y-93853000D02*
X134594600Y-93497400D01*
X136271000Y-93853000D02*
X134950200Y-93853000D01*
X136525000Y-93599000D02*
X136271000Y-93853000D01*
X134594600Y-93497400D02*
X134594600Y-92333200D01*
X136525000Y-91973400D02*
X136525000Y-93599000D01*
X136900600Y-91597800D02*
X136525000Y-91973400D01*
X136900600Y-90291400D02*
X136900600Y-91597800D01*
D52*
X134588640Y-92339160D02*
X134594600Y-92333200D01*
X131925360Y-92339160D02*
X134588640Y-92339160D01*
D51*
X136213100Y-87103900D02*
X135719500Y-87103900D01*
X135719500Y-87103900D02*
X135610600Y-86995000D01*
X135610600Y-86995000D02*
X135610600Y-85674200D01*
X135610600Y-85674200D02*
X136220200Y-85064600D01*
X136220200Y-85064600D02*
X136804400Y-85064600D01*
X137083800Y-84785200D02*
X137083800Y-84125100D01*
X136804400Y-85064600D02*
X137083800Y-84785200D01*
D54*
X137083800Y-84125100D02*
X138645900Y-84125100D01*
D60*
X125564818Y-84098300D02*
X124396418Y-84098300D01*
X124396418Y-84098300D02*
X123696900Y-84797818D01*
X123696900Y-84797818D02*
X123696900Y-85572955D01*
X123696900Y-85572955D02*
X123698355Y-85572955D01*
X123698355Y-85572955D02*
X124079000Y-85953600D01*
X124079000Y-88532700D02*
X125246400Y-89700100D01*
X124079000Y-85953600D02*
X124079000Y-88532700D01*
X125564818Y-84098300D02*
X125779700Y-83883418D01*
X125779700Y-83883418D02*
X125779700Y-83197618D01*
X125779700Y-83197618D02*
X126784018Y-82193300D01*
X126784018Y-82193300D02*
X129044782Y-82193300D01*
X129044782Y-82193300D02*
X131192100Y-84340618D01*
X131192100Y-84340618D02*
X131192100Y-85763018D01*
X131192100Y-85763018D02*
X131711782Y-86282700D01*
X131711782Y-86282700D02*
X134384666Y-86282700D01*
X134384666Y-86282700D02*
X134719060Y-86617094D01*
X134719060Y-86617094D02*
X134719060Y-88146174D01*
X134719060Y-88146174D02*
X134787086Y-88214200D01*
X135598980Y-88103900D02*
X135488680Y-88214200D01*
X136213100Y-88103900D02*
X135598980Y-88103900D01*
X134787086Y-88214200D02*
X135488680Y-88214200D01*
X124194209Y-85636100D02*
X125246400Y-85636100D01*
X124003900Y-84924982D02*
X124003900Y-85445791D01*
X124523582Y-84405300D02*
X124003900Y-84924982D01*
X126086700Y-84010582D02*
X125691982Y-84405300D01*
X126086700Y-83324782D02*
X126086700Y-84010582D01*
X126911182Y-82500300D02*
X126086700Y-83324782D01*
X128917618Y-82500300D02*
X126911182Y-82500300D01*
X130885100Y-84467782D02*
X128917618Y-82500300D01*
X130885100Y-85890182D02*
X130885100Y-84467782D01*
X131584618Y-86589700D02*
X130885100Y-85890182D01*
X133308794Y-86592885D02*
X133280534Y-86589700D01*
X133335637Y-86602277D02*
X133308794Y-86592885D01*
X133359717Y-86617408D02*
X133335637Y-86602277D01*
X133379826Y-86637517D02*
X133359717Y-86617408D01*
X133404349Y-86688440D02*
X133394957Y-86661597D01*
X133407534Y-86716700D02*
X133404349Y-86688440D01*
X134439660Y-86732826D02*
X134296534Y-86589700D01*
X133987430Y-88335923D02*
X133963350Y-88320792D01*
X133733430Y-86602277D02*
X133709350Y-86617408D01*
X134042534Y-88348499D02*
X134014273Y-88345315D01*
X134097637Y-88335923D02*
X134070794Y-88345315D01*
X133788534Y-86589700D02*
X133760273Y-86592885D01*
X134166349Y-88249760D02*
X134156957Y-88276603D01*
X133589637Y-87085923D02*
X133562794Y-87095315D01*
X133280534Y-86589700D02*
X131584618Y-86589700D01*
X134169534Y-86716700D02*
X134169534Y-88221499D01*
X134197241Y-86637517D02*
X134182110Y-86661597D01*
X133963350Y-88320792D02*
X133943241Y-88300683D01*
X135624380Y-88603900D02*
X135514080Y-88493600D01*
X133912349Y-86688440D02*
X133902957Y-86661597D01*
X124003900Y-85445791D02*
X124194209Y-85636100D01*
X133410718Y-86999760D02*
X133407534Y-86971499D01*
X135514080Y-88493600D02*
X134671354Y-88493600D01*
X133915534Y-86716700D02*
X133912349Y-86688440D01*
X134014273Y-88345315D02*
X133987430Y-88335923D01*
X133661534Y-86971499D02*
X133658349Y-86999760D01*
X136213100Y-88603900D02*
X135624380Y-88603900D01*
X134156957Y-88276603D02*
X134141826Y-88300683D01*
X134169534Y-88221499D02*
X134166349Y-88249760D01*
X133394957Y-86661597D02*
X133379826Y-86637517D01*
X133664718Y-86688440D02*
X133661534Y-86716700D01*
X133943241Y-88300683D02*
X133928110Y-88276603D01*
X134182110Y-86661597D02*
X134172718Y-86688440D01*
X133760273Y-86592885D02*
X133733430Y-86602277D01*
X133506273Y-87095315D02*
X133479430Y-87085923D01*
X133674110Y-86661597D02*
X133664718Y-86688440D01*
X134268273Y-86592885D02*
X134241430Y-86602277D01*
X133867717Y-86617408D02*
X133843637Y-86602277D01*
X134296534Y-86589700D02*
X134268273Y-86592885D01*
X125691982Y-84405300D02*
X124523582Y-84405300D01*
X134439660Y-88261906D02*
X134439660Y-86732826D01*
X134241430Y-86602277D02*
X134217350Y-86617408D01*
X133915534Y-88221499D02*
X133915534Y-86716700D01*
X134141826Y-88300683D02*
X134121717Y-88320792D01*
X133918718Y-88249760D02*
X133915534Y-88221499D01*
X134070794Y-88345315D02*
X134042534Y-88348499D01*
X134217350Y-86617408D02*
X134197241Y-86637517D01*
X134671354Y-88493600D02*
X134439660Y-88261906D01*
X134172718Y-86688440D02*
X134169534Y-86716700D01*
X133816794Y-86592885D02*
X133788534Y-86589700D01*
X133928110Y-88276603D02*
X133918718Y-88249760D01*
X133902957Y-86661597D02*
X133887826Y-86637517D01*
X133843637Y-86602277D02*
X133816794Y-86592885D01*
X133420110Y-87026603D02*
X133410718Y-86999760D01*
X133709350Y-86617408D02*
X133689241Y-86637517D01*
X133661534Y-86716700D02*
X133661534Y-86971499D01*
X133689241Y-86637517D02*
X133674110Y-86661597D01*
X133658349Y-86999760D02*
X133648957Y-87026603D01*
X134121717Y-88320792D02*
X134097637Y-88335923D01*
X133648957Y-87026603D02*
X133633826Y-87050683D01*
X133633826Y-87050683D02*
X133613717Y-87070792D01*
X133613717Y-87070792D02*
X133589637Y-87085923D01*
X133562794Y-87095315D02*
X133534534Y-87098499D01*
X133534534Y-87098499D02*
X133506273Y-87095315D01*
X133479430Y-87085923D02*
X133455350Y-87070792D01*
X133455350Y-87070792D02*
X133435241Y-87050683D01*
X133435241Y-87050683D02*
X133420110Y-87026603D01*
X133887826Y-86637517D02*
X133867717Y-86617408D01*
X133407534Y-86971499D02*
X133407534Y-86716700D01*
X126619000Y-87516700D02*
X127786400Y-88684100D01*
X126619000Y-84785200D02*
X126619000Y-87516700D01*
X126414700Y-84580900D02*
X126619000Y-84785200D01*
X136213100Y-89103900D02*
X135645460Y-89103900D01*
X135645460Y-89103900D02*
X135535160Y-89214200D01*
X133413500Y-89101214D02*
X133413500Y-87857418D01*
X135535160Y-89214200D02*
X133526486Y-89214200D01*
X133526486Y-89214200D02*
X133413500Y-89101214D01*
X130252300Y-86652018D02*
X130252300Y-84696218D01*
X133413500Y-87857418D02*
X132803982Y-87247900D01*
X132803982Y-87247900D02*
X130848182Y-87247900D01*
X130848182Y-87247900D02*
X130252300Y-86652018D01*
X128663782Y-83107700D02*
X126936418Y-83107700D01*
X130252300Y-84696218D02*
X128663782Y-83107700D01*
X126936418Y-83107700D02*
X126414700Y-83629418D01*
X126414700Y-83629418D02*
X126414700Y-84580900D01*
X135664260Y-89603900D02*
X136213100Y-89603900D01*
X134982016Y-89521307D02*
X135006096Y-89506176D01*
X134934200Y-90185281D02*
X134934200Y-89620600D01*
X134931015Y-90213541D02*
X134934200Y-90185281D01*
X134921623Y-90240384D02*
X134931015Y-90213541D01*
X134862303Y-90299704D02*
X134886383Y-90284573D01*
X134835460Y-90309096D02*
X134862303Y-90299704D01*
X134807200Y-90312281D02*
X134835460Y-90309096D01*
X134778939Y-90309096D02*
X134807200Y-90312281D01*
X134752096Y-90299704D02*
X134778939Y-90309096D01*
X134683384Y-90213541D02*
X134692776Y-90240384D01*
X134680200Y-90185281D02*
X134683384Y-90213541D01*
X134632383Y-89521307D02*
X134652492Y-89541416D01*
X134961907Y-89541416D02*
X134982016Y-89521307D01*
X134553200Y-89493600D02*
X134581460Y-89496784D01*
X134524939Y-89496784D02*
X134553200Y-89493600D01*
X134498096Y-89506176D02*
X134524939Y-89496784D01*
X134474016Y-89521307D02*
X134498096Y-89506176D01*
X134453907Y-89541416D02*
X134474016Y-89521307D01*
X134438776Y-89565496D02*
X134453907Y-89541416D01*
X134398492Y-90264464D02*
X134413623Y-90240384D01*
X134378383Y-90284573D02*
X134398492Y-90264464D01*
X134354303Y-90299704D02*
X134378383Y-90284573D01*
X134728016Y-90284573D02*
X134752096Y-90299704D01*
X134327460Y-90309096D02*
X134354303Y-90299704D01*
X133712016Y-90284573D02*
X133736096Y-90299704D01*
X133661015Y-89592339D02*
X133664200Y-89620600D01*
X133636492Y-89541416D02*
X133651623Y-89565496D01*
X129945300Y-86779182D02*
X130721018Y-87554900D01*
X133667384Y-90213541D02*
X133676776Y-90240384D01*
X133592303Y-89506176D02*
X133616383Y-89521307D01*
X133565460Y-89496784D02*
X133592303Y-89506176D01*
X135032939Y-89496784D02*
X135061200Y-89493600D01*
X134677015Y-89592339D02*
X134680200Y-89620600D01*
X133905623Y-90240384D02*
X133915015Y-90213541D01*
X133736096Y-90299704D02*
X133762939Y-90309096D01*
X126721700Y-84376860D02*
X126721700Y-83756582D01*
X133945907Y-89541416D02*
X133966016Y-89521307D01*
X134946776Y-89565496D02*
X134961907Y-89541416D01*
X134608303Y-89506176D02*
X134632383Y-89521307D01*
X133537200Y-89493600D02*
X133565460Y-89496784D01*
X127063582Y-83414700D02*
X128536618Y-83414700D01*
X134934200Y-89620600D02*
X134937384Y-89592339D01*
X127786400Y-84620100D02*
X126964940Y-84620100D01*
X129945300Y-84823382D02*
X129945300Y-86779182D01*
X133691907Y-90264464D02*
X133712016Y-90284573D01*
X134172200Y-90185281D02*
X134175384Y-90213541D01*
X133791200Y-90312281D02*
X133819460Y-90309096D01*
X133819460Y-90309096D02*
X133846303Y-90299704D01*
X133676776Y-90240384D02*
X133691907Y-90264464D01*
X133410754Y-89493600D02*
X133537200Y-89493600D01*
X128536618Y-83414700D02*
X129945300Y-84823382D01*
X133616383Y-89521307D02*
X133636492Y-89541416D01*
X135553960Y-89493600D02*
X135664260Y-89603900D01*
X126721700Y-83756582D02*
X127063582Y-83414700D01*
X133664200Y-90185281D02*
X133667384Y-90213541D01*
X134886383Y-90284573D02*
X134906492Y-90264464D01*
X133651623Y-89565496D02*
X133661015Y-89592339D01*
X135006096Y-89506176D02*
X135032939Y-89496784D01*
X134667623Y-89565496D02*
X134677015Y-89592339D01*
X130721018Y-87554900D02*
X132676818Y-87554900D01*
X133134100Y-89216946D02*
X133410754Y-89493600D01*
X134652492Y-89541416D02*
X134667623Y-89565496D01*
X126964940Y-84620100D02*
X126721700Y-84376860D01*
X133134100Y-88012182D02*
X133134100Y-89216946D01*
X132676818Y-87554900D02*
X133134100Y-88012182D01*
X133846303Y-90299704D02*
X133870383Y-90284573D01*
X133870383Y-90284573D02*
X133890492Y-90264464D01*
X134937384Y-89592339D02*
X134946776Y-89565496D01*
X133890492Y-90264464D02*
X133905623Y-90240384D01*
X133915015Y-90213541D02*
X133918200Y-90185281D01*
X133918200Y-89620600D02*
X133921384Y-89592339D01*
X134299200Y-90312281D02*
X134327460Y-90309096D01*
X133921384Y-89592339D02*
X133930776Y-89565496D01*
X134906492Y-90264464D02*
X134921623Y-90240384D01*
X133930776Y-89565496D02*
X133945907Y-89541416D01*
X133966016Y-89521307D02*
X133990096Y-89506176D01*
X134581460Y-89496784D02*
X134608303Y-89506176D01*
X134184776Y-90240384D02*
X134199907Y-90264464D01*
X134220016Y-90284573D02*
X134244096Y-90299704D01*
X134073460Y-89496784D02*
X134100303Y-89506176D01*
X134100303Y-89506176D02*
X134124383Y-89521307D01*
X135061200Y-89493600D02*
X135553960Y-89493600D01*
X134680200Y-89620600D02*
X134680200Y-90185281D01*
X134413623Y-90240384D02*
X134423015Y-90213541D01*
X133664200Y-89620600D02*
X133664200Y-90185281D01*
X134124383Y-89521307D02*
X134144492Y-89541416D01*
X134692776Y-90240384D02*
X134707907Y-90264464D01*
X134426200Y-90185281D02*
X134426200Y-89620600D01*
X133990096Y-89506176D02*
X134016939Y-89496784D01*
X134159623Y-89565496D02*
X134169015Y-89592339D01*
X134423015Y-90213541D02*
X134426200Y-90185281D01*
X133918200Y-90185281D02*
X133918200Y-89620600D01*
X134144492Y-89541416D02*
X134159623Y-89565496D01*
X134707907Y-90264464D02*
X134728016Y-90284573D01*
X134426200Y-89620600D02*
X134429384Y-89592339D01*
X134016939Y-89496784D02*
X134045200Y-89493600D01*
X134169015Y-89592339D02*
X134172200Y-89620600D01*
X134429384Y-89592339D02*
X134438776Y-89565496D01*
X134045200Y-89493600D02*
X134073460Y-89496784D01*
X134172200Y-89620600D02*
X134172200Y-90185281D01*
X134175384Y-90213541D02*
X134184776Y-90240384D01*
X134199907Y-90264464D02*
X134220016Y-90284573D01*
X134244096Y-90299704D02*
X134270939Y-90309096D01*
X133762939Y-90309096D02*
X133791200Y-90312281D01*
X134270939Y-90309096D02*
X134299200Y-90312281D01*
D51*
X137900600Y-93049400D02*
X137896600Y-93053400D01*
X137900600Y-90291400D02*
X137900600Y-93049400D01*
D57*
X136900600Y-85944200D02*
X136550400Y-85594000D01*
X136900600Y-86416400D02*
X136900600Y-85944200D01*
X159497405Y-92482045D02*
X155849965Y-92482045D01*
X155849965Y-92482045D02*
X152354280Y-88986360D01*
X160931890Y-93916530D02*
X159497405Y-92482045D01*
X164286072Y-93916530D02*
X160931890Y-93916530D01*
X164524989Y-93677613D02*
X164286072Y-93916530D01*
X165873430Y-93677613D02*
X164524989Y-93677613D01*
D56*
X115468400Y-75121000D02*
X115468400Y-71297900D01*
D57*
X181101960Y-102833337D02*
X181400577Y-102534720D01*
X181101960Y-105690094D02*
X181101960Y-102833337D01*
X181761655Y-106349789D02*
X181101960Y-105690094D01*
X187452011Y-113918256D02*
X187452011Y-108585744D01*
X185139856Y-116230411D02*
X187452011Y-113918256D01*
X187452011Y-108585744D02*
X185216056Y-106349789D01*
X176164240Y-117144800D02*
X177078629Y-116230411D01*
X181400577Y-102534720D02*
X181400577Y-101702870D01*
X173939200Y-117144800D02*
X176164240Y-117144800D01*
X185216056Y-106349789D02*
X181761655Y-106349789D01*
X177078629Y-116230411D02*
X185139856Y-116230411D01*
X171958000Y-119126000D02*
X173939200Y-117144800D01*
X181635400Y-106654600D02*
X180400325Y-105419525D01*
X180400325Y-105419525D02*
X180400325Y-101702870D01*
X171709080Y-116834920D02*
X176043054Y-116834920D01*
X176043054Y-116834920D02*
X176952374Y-115925600D01*
X169418000Y-119126000D02*
X171709080Y-116834920D01*
X176952374Y-115925600D02*
X185013600Y-115925600D01*
X185013600Y-115925600D02*
X187147200Y-113792000D01*
X187147200Y-113792000D02*
X187147200Y-108712000D01*
X187147200Y-108712000D02*
X185089800Y-106654600D01*
X185089800Y-106654600D02*
X181635400Y-106654600D01*
X166878000Y-119126000D02*
X169519545Y-116484455D01*
X169519545Y-116484455D02*
X175815080Y-116484455D01*
X178399821Y-113899714D02*
X178399821Y-101702870D01*
X175815080Y-116484455D02*
X178399821Y-113899714D01*
X177899695Y-102534720D02*
X177899695Y-101702870D01*
X175688824Y-116179644D02*
X178028644Y-113839824D01*
X167284356Y-116179644D02*
X175688824Y-116179644D01*
X178028644Y-113839824D02*
X178028644Y-102663669D01*
X178028644Y-102663669D02*
X177899695Y-102534720D01*
X164338000Y-119126000D02*
X167284356Y-116179644D01*
X175562568Y-115874833D02*
X177723833Y-113713568D01*
X177723833Y-102858984D02*
X177399569Y-102534720D01*
X177399569Y-102534720D02*
X177399569Y-101702870D01*
X161798000Y-119126000D02*
X165049167Y-115874833D01*
X165049167Y-115874833D02*
X175562568Y-115874833D01*
X177723833Y-113713568D02*
X177723833Y-102858984D01*
X159258000Y-119126000D02*
X162813978Y-115570022D01*
X177419022Y-103054299D02*
X176899443Y-102534720D01*
X175436312Y-115570022D02*
X177419022Y-113587312D01*
X176899443Y-102534720D02*
X176899443Y-101702870D01*
X162813978Y-115570022D02*
X175436312Y-115570022D01*
X177419022Y-113587312D02*
X177419022Y-103054299D01*
X177114211Y-103249614D02*
X176399317Y-102534720D01*
X176399317Y-102534720D02*
X176399317Y-101702870D01*
X175310056Y-115265211D02*
X177114211Y-113461056D01*
X177114211Y-113461056D02*
X177114211Y-103249614D01*
X156718000Y-119126000D02*
X160578789Y-115265211D01*
X160578789Y-115265211D02*
X175310056Y-115265211D01*
X176809410Y-113334790D02*
X175183800Y-114960400D01*
X176809410Y-108051610D02*
X176809410Y-113334790D01*
X175183800Y-103479600D02*
X175183800Y-106426000D01*
X175183800Y-106426000D02*
X176809410Y-108051610D01*
X174898939Y-103194739D02*
X175183800Y-103479600D01*
X158343600Y-114960400D02*
X154178000Y-119126000D01*
X175183800Y-114960400D02*
X158343600Y-114960400D01*
X174898939Y-101702870D02*
X174898939Y-103194739D01*
X141351000Y-85547200D02*
X141923000Y-85547200D01*
X141046200Y-85852000D02*
X141351000Y-85547200D01*
X141046200Y-87350600D02*
X141046200Y-85852000D01*
X140792900Y-87603900D02*
X141046200Y-87350600D01*
X140088100Y-87603900D02*
X140792900Y-87603900D01*
X165873430Y-97678621D02*
X165762051Y-97790000D01*
X165762051Y-97790000D02*
X161061400Y-97790000D01*
X161061400Y-97790000D02*
X160327340Y-98524060D01*
X160609291Y-97485189D02*
X159608520Y-98485960D01*
X165873430Y-97178495D02*
X164682657Y-97178495D01*
X164682657Y-97178495D02*
X164375962Y-97485189D01*
X164375962Y-97485189D02*
X160609291Y-97485189D01*
X107998800Y-71676800D02*
X108026200Y-71704200D01*
X106985400Y-71676800D02*
X107998800Y-71676800D01*
X172898435Y-80150970D02*
X172898435Y-86157435D01*
X172898435Y-86157435D02*
X172923200Y-86182200D01*
X121095000Y-73533000D02*
X121110240Y-73548240D01*
X120142000Y-73533000D02*
X121095000Y-73533000D01*
X164820219Y-84175219D02*
X163499800Y-82854800D01*
X165873430Y-84175219D02*
X164820219Y-84175219D01*
X106999000Y-73863200D02*
X106985400Y-73876800D01*
X108127800Y-73863200D02*
X106999000Y-73863200D01*
X108131600Y-76076800D02*
X108153200Y-76098400D01*
X106985400Y-76076800D02*
X108131600Y-76076800D01*
X120015000Y-76581000D02*
X119761000Y-76835000D01*
X119761000Y-76835000D02*
X119761000Y-77152500D01*
X121095000Y-76581000D02*
X120015000Y-76581000D01*
X164732843Y-85675597D02*
X164348160Y-86060280D01*
X165873430Y-85675597D02*
X164732843Y-85675597D01*
D53*
X114317976Y-114896200D02*
X114774476Y-114439700D01*
X113884400Y-114896200D02*
X114317976Y-114896200D01*
X114774476Y-114439700D02*
X115138200Y-114439700D01*
X115747800Y-113830100D02*
X115747800Y-113194600D01*
X115138200Y-114439700D02*
X115747800Y-113830100D01*
X111224852Y-116420900D02*
X110978900Y-116420900D01*
X111499552Y-116146200D02*
X111224852Y-116420900D01*
X112184400Y-116146200D02*
X111499552Y-116146200D01*
X117246400Y-114160300D02*
X117221000Y-114185700D01*
X117246400Y-113194600D02*
X117246400Y-114160300D01*
D52*
X202641200Y-104686600D02*
X202641200Y-103251100D01*
D58*
X171286551Y-100431600D02*
X172770800Y-100431600D01*
X170897931Y-100820220D02*
X171286551Y-100431600D01*
X170897931Y-101702870D02*
X170897931Y-100820220D01*
X200558400Y-110236000D02*
X196088000Y-110236000D01*
X202641200Y-106336600D02*
X202641200Y-108153200D01*
X202641200Y-108153200D02*
X200558400Y-110236000D01*
X196088000Y-110236000D02*
X191800480Y-105948480D01*
D57*
X164001331Y-96678369D02*
X163961580Y-96718120D01*
X165873430Y-96678369D02*
X164001331Y-96678369D01*
X167082089Y-96678369D02*
X167137080Y-96733360D01*
X165873430Y-96678369D02*
X167082089Y-96678369D01*
X172814800Y-111500920D02*
X173781720Y-111500920D01*
X173781720Y-111500920D02*
X174421800Y-112141000D01*
X174421800Y-112141000D02*
X175133000Y-112141000D01*
X175133000Y-112141000D02*
X175895000Y-111379000D01*
X175895000Y-111379000D02*
X175895000Y-108280200D01*
X174398813Y-106784013D02*
X174398813Y-101702870D01*
X175895000Y-108280200D02*
X174398813Y-106784013D01*
X171775120Y-110230920D02*
X172814800Y-110230920D01*
X171348400Y-109804200D02*
X171775120Y-110230920D01*
X171348400Y-108864400D02*
X171348400Y-109804200D01*
X173898687Y-106314113D02*
X171348400Y-108864400D01*
X173898687Y-101702870D02*
X173898687Y-106314113D01*
X168000680Y-111500920D02*
X173398561Y-106103039D01*
X173398561Y-106103039D02*
X173398561Y-101702870D01*
X165614800Y-111500920D02*
X168000680Y-111500920D01*
X168483280Y-110230920D02*
X165614800Y-110230920D01*
X172898435Y-105815765D02*
X168483280Y-110230920D01*
X172898435Y-101702870D02*
X172898435Y-105815765D01*
X169870120Y-112770920D02*
X172814800Y-112770920D01*
X169214800Y-112115600D02*
X169870120Y-112770920D01*
X164503100Y-111853980D02*
X164764720Y-112115600D01*
X164764720Y-112115600D02*
X169214800Y-112115600D01*
X164503100Y-109948980D02*
X164503100Y-111853980D01*
X168427400Y-109601000D02*
X164851080Y-109601000D01*
X164851080Y-109601000D02*
X164503100Y-109948980D01*
X172398309Y-105630091D02*
X168427400Y-109601000D01*
X172398309Y-101702870D02*
X172398309Y-105630091D01*
X168273728Y-84607275D02*
X168273728Y-83260723D01*
X166705280Y-86175723D02*
X168273728Y-84607275D01*
X165873430Y-86175723D02*
X166705280Y-86175723D01*
X168884600Y-84759800D02*
X168884600Y-83489800D01*
X166968551Y-86675849D02*
X168884600Y-84759800D01*
X165873430Y-86675849D02*
X166968551Y-86675849D01*
X175399065Y-74939345D02*
X175920400Y-74418010D01*
X175399065Y-80150970D02*
X175399065Y-74939345D01*
X165873430Y-82674841D02*
X169452491Y-82674841D01*
X169452491Y-82674841D02*
X169810250Y-83032600D01*
X176399317Y-75746483D02*
X176403000Y-75742800D01*
X176399317Y-80150970D02*
X176399317Y-75746483D01*
X175920400Y-80129761D02*
X175899191Y-80150970D01*
X175920400Y-75107800D02*
X175920400Y-80129761D01*
X177393600Y-80145001D02*
X177399569Y-80150970D01*
X177393600Y-76860400D02*
X177393600Y-80145001D01*
X176911000Y-80139413D02*
X176899443Y-80150970D01*
X176911000Y-76301600D02*
X176911000Y-80139413D01*
X178421347Y-80129444D02*
X178399821Y-80150970D01*
X178421347Y-77978000D02*
X178421347Y-80129444D01*
X177899695Y-77493495D02*
X177876200Y-77470000D01*
X177899695Y-80150970D02*
X177899695Y-77493495D01*
X182400829Y-79388180D02*
X182400829Y-80150970D01*
X184768209Y-77020800D02*
X182400829Y-79388180D01*
X187579000Y-77020800D02*
X184768209Y-77020800D01*
X187938601Y-76301688D02*
X188188600Y-76551687D01*
X185019479Y-76301688D02*
X187938601Y-76301688D01*
X181900703Y-80150970D02*
X181900703Y-79420464D01*
X181900703Y-79420464D02*
X185019479Y-76301688D01*
X183401081Y-79319120D02*
X183401081Y-80150970D01*
X184742201Y-77978000D02*
X183401081Y-79319120D01*
X187629800Y-77978000D02*
X184742201Y-77978000D01*
X182900955Y-80150970D02*
X182900955Y-79319120D01*
X184720675Y-77499400D02*
X188179101Y-77499400D01*
X182900955Y-79319120D02*
X184720675Y-77499400D01*
X188179101Y-77499400D02*
X188188600Y-77508899D01*
X185401585Y-80150970D02*
X185401585Y-79266415D01*
X185723279Y-78944721D02*
X187604400Y-78944721D01*
X185401585Y-79266415D02*
X185723279Y-78944721D01*
X184901459Y-80150970D02*
X184901459Y-79284675D01*
X185720023Y-78466111D02*
X188147231Y-78466111D01*
X184901459Y-79284675D02*
X185720023Y-78466111D01*
X188536707Y-83675093D02*
X188569600Y-83642200D01*
X187425330Y-83675093D02*
X188536707Y-83675093D01*
X187425330Y-83174967D02*
X186705367Y-83174967D01*
X186705367Y-83174967D02*
X186258200Y-82727800D01*
X199898000Y-96266000D02*
X198628000Y-97536000D01*
X198628000Y-97536000D02*
X196697600Y-97536000D01*
X196697600Y-97536000D02*
X195992228Y-96830628D01*
X195992228Y-87917430D02*
X192750143Y-84675345D01*
X192750143Y-84675345D02*
X187425330Y-84675345D01*
X195992228Y-96830628D02*
X195992228Y-87917430D01*
X186664981Y-84175219D02*
X186309000Y-84531200D01*
X187425330Y-84175219D02*
X186664981Y-84175219D01*
X198602600Y-100101400D02*
X199898000Y-98806000D01*
X196494400Y-100101400D02*
X198602600Y-100101400D01*
X195382610Y-98989610D02*
X196494400Y-100101400D01*
X195382610Y-88169944D02*
X195382610Y-98989610D01*
X192888263Y-85675597D02*
X195382610Y-88169944D01*
X187425330Y-85675597D02*
X192888263Y-85675597D01*
X197358000Y-98806000D02*
X195687420Y-97135420D01*
X192819203Y-85175471D02*
X187425330Y-85175471D01*
X195687419Y-88043687D02*
X192819203Y-85175471D01*
X195687420Y-97135420D02*
X195687419Y-88043687D01*
X188689869Y-90176731D02*
X188696600Y-90170000D01*
X187425330Y-90176731D02*
X188689869Y-90176731D01*
X186374405Y-89676605D02*
X186359800Y-89662000D01*
X187425330Y-89676605D02*
X186374405Y-89676605D01*
X189195583Y-91176983D02*
X189204600Y-91186000D01*
X187425330Y-91176983D02*
X189195583Y-91176983D01*
X186076526Y-90676857D02*
X186055000Y-90698383D01*
X187425330Y-90676857D02*
X186076526Y-90676857D01*
X195808600Y-107721400D02*
X198602600Y-107721400D01*
X194386200Y-102194034D02*
X194386200Y-106299000D01*
X198602600Y-107721400D02*
X199898000Y-106426000D01*
X189204600Y-97012434D02*
X194386200Y-102194034D01*
X194386200Y-106299000D02*
X195808600Y-107721400D01*
X187425330Y-95177991D02*
X188155836Y-95177991D01*
X189204600Y-96226755D02*
X189204600Y-97012434D01*
X188155836Y-95177991D02*
X189204600Y-96226755D01*
X196494401Y-105562401D02*
X197358000Y-106426000D01*
X194716400Y-102093168D02*
X194716400Y-103784400D01*
X193446400Y-100823168D02*
X194716400Y-102093168D01*
X193446400Y-100787200D02*
X193446400Y-100823168D01*
X189509411Y-96850211D02*
X193446400Y-100787200D01*
X188257180Y-94677865D02*
X189509411Y-95930096D01*
X187425330Y-94677865D02*
X188257180Y-94677865D01*
X194716400Y-103784400D02*
X196494401Y-105562401D01*
X189509411Y-95930096D02*
X189509411Y-96850211D01*
X169897679Y-101702870D02*
X169897679Y-102364487D01*
X169897679Y-102364487D02*
X170621960Y-103088768D01*
X170621960Y-103088768D02*
X170621960Y-103809800D01*
X169397553Y-102572693D02*
X170037760Y-103212900D01*
X169397553Y-101702870D02*
X169397553Y-102572693D01*
X168897427Y-101702870D02*
X168897427Y-103558469D01*
X168897427Y-103558469D02*
X168907460Y-103568502D01*
X167897175Y-102950645D02*
X167886380Y-102961440D01*
X167897175Y-101702870D02*
X167897175Y-102950645D01*
X190703200Y-104113134D02*
X190703167Y-104113101D01*
X190703200Y-116382800D02*
X190703200Y-104113134D01*
X191008000Y-116687600D02*
X190703200Y-116382800D01*
X191008000Y-120142000D02*
X191008000Y-116687600D01*
X190703167Y-98942067D02*
X188939595Y-97178495D01*
X190703167Y-104113101D02*
X190703167Y-98942067D01*
X190500000Y-120650000D02*
X191008000Y-120142000D01*
X186182000Y-120650000D02*
X190500000Y-120650000D01*
X184658000Y-119126000D02*
X186182000Y-120650000D01*
X188939595Y-97178495D02*
X187425330Y-97178495D01*
X187425330Y-101913690D02*
X187425330Y-99679125D01*
X187817751Y-102306111D02*
X187425330Y-101913690D01*
X188843911Y-102306111D02*
X187817751Y-102306111D01*
X183794400Y-117449600D02*
X186537600Y-117449600D01*
X186537600Y-117449600D02*
X189509400Y-114477800D01*
X182118000Y-119126000D02*
X183794400Y-117449600D01*
X189509400Y-114477800D02*
X189509400Y-102971600D01*
X189509400Y-102971600D02*
X188843911Y-102306111D01*
X184477534Y-102610921D02*
X184401333Y-102534720D01*
X189204589Y-103097855D02*
X188717656Y-102610922D01*
X189204589Y-114325411D02*
X189204589Y-103097855D01*
X186486800Y-117043200D02*
X189204589Y-114325411D01*
X181660800Y-117043200D02*
X186486800Y-117043200D01*
X179578000Y-119126000D02*
X181660800Y-117043200D01*
X188717656Y-102610922D02*
X184477534Y-102610921D01*
X184401333Y-102534720D02*
X184401333Y-101702870D01*
X177038000Y-119126000D02*
X179628778Y-116535222D01*
X185266112Y-116535222D02*
X187756822Y-114044512D01*
X181406771Y-105563839D02*
X181406771Y-102990128D01*
X179628778Y-116535222D02*
X185266112Y-116535222D01*
X181406771Y-102990128D02*
X181900703Y-102496196D01*
X181887910Y-106044978D02*
X181406771Y-105563839D01*
X185342312Y-106044978D02*
X181887910Y-106044978D01*
X181900703Y-102496196D02*
X181900703Y-101702870D01*
X187756822Y-108459488D02*
X185342312Y-106044978D01*
X187756822Y-114044512D02*
X187756822Y-108459488D01*
X150215600Y-78049120D02*
X145034000Y-72867520D01*
X153304262Y-93726022D02*
X150215600Y-90637360D01*
X157456089Y-93726022D02*
X153304262Y-93726022D01*
X145034000Y-72867520D02*
X145034000Y-70866000D01*
X150215600Y-90637360D02*
X150215600Y-78049120D01*
X158908058Y-95177991D02*
X157456089Y-93726022D01*
X165873430Y-95177991D02*
X158908058Y-95177991D01*
X158977117Y-95678117D02*
X165873430Y-95678117D01*
X152364473Y-94030833D02*
X157329833Y-94030833D01*
X149448520Y-91114880D02*
X152364473Y-94030833D01*
X149448520Y-79842360D02*
X149448520Y-91114880D01*
X142494000Y-72887840D02*
X149448520Y-79842360D01*
X157329833Y-94030833D02*
X158977117Y-95678117D01*
X142494000Y-70866000D02*
X142494000Y-72887840D01*
X139954000Y-72791320D02*
X139954000Y-70866000D01*
X148757640Y-81594960D02*
X139954000Y-72791320D01*
X148757640Y-91475560D02*
X148757640Y-81594960D01*
X151617724Y-94335644D02*
X148757640Y-91475560D01*
X164693601Y-95982928D02*
X158850861Y-95982928D01*
X164888916Y-96178243D02*
X164693601Y-95982928D01*
X157203577Y-94335644D02*
X151617724Y-94335644D01*
X158850861Y-95982928D02*
X157203577Y-94335644D01*
X165873430Y-96178243D02*
X164888916Y-96178243D01*
X187425330Y-91677109D02*
X183851169Y-91677109D01*
X183851169Y-91677109D02*
X180502560Y-88328500D01*
X184465085Y-93177487D02*
X181279800Y-89992202D01*
X187425330Y-93177487D02*
X184465085Y-93177487D01*
X187425330Y-93677613D02*
X183814593Y-93677613D01*
X183814593Y-93677613D02*
X179153820Y-89016840D01*
X161894520Y-75681840D02*
X161894520Y-75082400D01*
X162224720Y-76012040D02*
X161894520Y-75681840D01*
X163610671Y-85175471D02*
X162224720Y-83789520D01*
X162224720Y-83789520D02*
X162224720Y-76012040D01*
X165873430Y-85175471D02*
X163610671Y-85175471D01*
X162546931Y-83608811D02*
X162546931Y-75082346D01*
X163613465Y-84675345D02*
X162546931Y-83608811D01*
X165873430Y-84675345D02*
X163613465Y-84675345D01*
X183901207Y-80150970D02*
X183901207Y-80982820D01*
X183901207Y-80982820D02*
X180683027Y-84201000D01*
X180683027Y-84201000D02*
X178206400Y-84201000D01*
X180883560Y-84886800D02*
X179961540Y-84886800D01*
X184401333Y-80150970D02*
X184401333Y-81369027D01*
X184401333Y-81369027D02*
X180883560Y-84886800D01*
X156718000Y-70866000D02*
X156718000Y-72034400D01*
X156718000Y-72034400D02*
X157530800Y-72847200D01*
X157530800Y-72847200D02*
X168732200Y-72847200D01*
X168732200Y-72847200D02*
X172398309Y-76513309D01*
X172398309Y-76513309D02*
X172398309Y-80150970D01*
X154178000Y-72263000D02*
X154178000Y-70866000D01*
X155270200Y-73355200D02*
X154178000Y-72263000D01*
X168021000Y-73355200D02*
X155270200Y-73355200D01*
X171898183Y-77232383D02*
X168021000Y-73355200D01*
X171898183Y-80150970D02*
X171898183Y-77232383D01*
X151638000Y-89722960D02*
X151638000Y-74447400D01*
X155031440Y-93116400D02*
X151638000Y-89722960D01*
X157708601Y-93116400D02*
X155031440Y-93116400D01*
X158943041Y-94350840D02*
X157708601Y-93116400D01*
X164508062Y-94350840D02*
X158943041Y-94350840D01*
X164681163Y-94177739D02*
X164508062Y-94350840D01*
X151638000Y-74447400D02*
X151638000Y-70866000D01*
X165873430Y-94177739D02*
X164681163Y-94177739D01*
X149098000Y-71556880D02*
X149098000Y-70866000D01*
X149098000Y-74142600D02*
X149098000Y-71556880D01*
X150942040Y-75986640D02*
X149098000Y-74142600D01*
X150942040Y-90159840D02*
X150942040Y-75986640D01*
X154203411Y-93421211D02*
X150942040Y-90159840D01*
X157582345Y-93421211D02*
X154203411Y-93421211D01*
X158838999Y-94677865D02*
X157582345Y-93421211D01*
X165873430Y-94677865D02*
X158838999Y-94677865D01*
X181400577Y-80150970D02*
X181400577Y-78570963D01*
X187384690Y-72586850D02*
X189198250Y-72586850D01*
X181400577Y-78570963D02*
X187384690Y-72586850D01*
X189738000Y-72047100D02*
X189738000Y-70866000D01*
X189198250Y-72586850D02*
X189738000Y-72047100D01*
X187198000Y-72049640D02*
X187198000Y-70866000D01*
X180900451Y-78347189D02*
X187198000Y-72049640D01*
X180900451Y-80150970D02*
X180900451Y-78347189D01*
X179222370Y-75298342D02*
X179671992Y-74848720D01*
X179222370Y-78297212D02*
X179222370Y-75298342D01*
X179400073Y-78474915D02*
X179222370Y-78297212D01*
X179400073Y-80150970D02*
X179400073Y-78474915D01*
X179671992Y-74848720D02*
X182483760Y-74848720D01*
X184658000Y-72674480D02*
X184658000Y-70866000D01*
X182483760Y-74848720D02*
X184658000Y-72674480D01*
X178899947Y-75189699D02*
X179545736Y-74543910D01*
X178899947Y-80150970D02*
X178899947Y-75189699D01*
X179545736Y-74543910D02*
X180609250Y-74543910D01*
X182118000Y-73035160D02*
X182118000Y-70866000D01*
X180609250Y-74543910D02*
X182118000Y-73035160D01*
X173398561Y-80150970D02*
X173398561Y-75204685D01*
X173398561Y-75204685D02*
X175788320Y-72814926D01*
X175788320Y-72814926D02*
X175788320Y-69951600D01*
X175788320Y-69951600D02*
X176372520Y-69367400D01*
X176372520Y-69367400D02*
X179303680Y-69367400D01*
X179578000Y-69641720D02*
X179578000Y-70866000D01*
X179303680Y-69367400D02*
X179578000Y-69641720D01*
X173898687Y-78510729D02*
X173898687Y-80150970D01*
X173710570Y-78322612D02*
X173898687Y-78510729D01*
X173710570Y-75323742D02*
X173710570Y-78322612D01*
X176132496Y-72901816D02*
X176556664Y-72901816D01*
X176132496Y-72901816D02*
X173710570Y-75323742D01*
X177038000Y-72420480D02*
X177038000Y-70866000D01*
X176556664Y-72901816D02*
X177038000Y-72420480D01*
X160705800Y-78369160D02*
X160705800Y-77241400D01*
X160903920Y-85506560D02*
X160903920Y-78567280D01*
X161508440Y-86111080D02*
X160903920Y-85506560D01*
X160903920Y-78567280D02*
X160705800Y-78369160D01*
X161508440Y-88615520D02*
X161508440Y-86111080D01*
X161945320Y-89052400D02*
X161508440Y-88615520D01*
X164617400Y-89052400D02*
X161945320Y-89052400D01*
X164993447Y-88676353D02*
X164617400Y-89052400D01*
X165873430Y-88676353D02*
X164993447Y-88676353D01*
X161533840Y-85023960D02*
X161533840Y-76672440D01*
X163685855Y-87175975D02*
X161533840Y-85023960D01*
X165873430Y-87175975D02*
X163685855Y-87175975D01*
X167050720Y-108960920D02*
X167055800Y-108966000D01*
X165614800Y-108960920D02*
X167050720Y-108960920D01*
X168046400Y-98056700D02*
X167398700Y-98704400D01*
X168046400Y-92326460D02*
X168046400Y-98056700D01*
X166896923Y-91176983D02*
X168046400Y-92326460D01*
X165873430Y-91176983D02*
X166896923Y-91176983D01*
X140193799Y-106135401D02*
X140193799Y-112355399D01*
X162905440Y-105945940D02*
X140383260Y-105945940D01*
X164578570Y-104272810D02*
X162905440Y-105945940D01*
X164578570Y-104232968D02*
X164578570Y-104272810D01*
X164844288Y-103967250D02*
X164578570Y-104232968D01*
X164884130Y-103967250D02*
X164844288Y-103967250D01*
X140193799Y-112355399D02*
X140370600Y-112532200D01*
X165125400Y-103725980D02*
X164884130Y-103967250D01*
X168031160Y-103725980D02*
X165125400Y-103725980D01*
X140383260Y-105945940D02*
X140193799Y-106135401D01*
X168397301Y-103359839D02*
X168031160Y-103725980D01*
X140370600Y-112532200D02*
X140952400Y-112532200D01*
X168397301Y-101702870D02*
X168397301Y-103359839D01*
X189738000Y-117957600D02*
X189738000Y-119126000D01*
X190398389Y-104239390D02*
X190398389Y-117297211D01*
X187425330Y-97678621D02*
X189008655Y-97678621D01*
X190398389Y-117297211D02*
X189738000Y-117957600D01*
X189008655Y-97678621D02*
X190398356Y-99068322D01*
X190398356Y-99068322D02*
X190398356Y-104239357D01*
X190398356Y-104239357D02*
X190398389Y-104239390D01*
X190093578Y-115011222D02*
X190093578Y-104365646D01*
X187198000Y-119126000D02*
X187198000Y-117906800D01*
X190093545Y-104365613D02*
X190093545Y-99194577D01*
X187198000Y-117906800D02*
X190093578Y-115011222D01*
X190093578Y-104365646D02*
X190093545Y-104365613D01*
X190093545Y-99194577D02*
X189077715Y-98178747D01*
X189077715Y-98178747D02*
X187425330Y-98178747D01*
X164231320Y-82864833D02*
X165041580Y-83675093D01*
X164231320Y-75356720D02*
X164231320Y-82864833D01*
X163169600Y-74295000D02*
X164231320Y-75356720D01*
X165041580Y-83675093D02*
X165873430Y-83675093D01*
X154914600Y-74295000D02*
X163169600Y-74295000D01*
X163515040Y-73812400D02*
X154178000Y-73812400D01*
X164673280Y-74970640D02*
X163515040Y-73812400D01*
X164673280Y-82806667D02*
X164673280Y-74970640D01*
X165041580Y-83174967D02*
X164673280Y-82806667D01*
X165873430Y-83174967D02*
X165041580Y-83174967D01*
X141147800Y-94716600D02*
X141948400Y-94716600D01*
X140385800Y-93954600D02*
X141147800Y-94716600D01*
X140385800Y-91784800D02*
X140385800Y-93954600D01*
X139400600Y-90799600D02*
X140385800Y-91784800D01*
X139400600Y-90291400D02*
X139400600Y-90799600D01*
X141906300Y-88603900D02*
X141923000Y-88620600D01*
X140088100Y-88603900D02*
X141906300Y-88603900D01*
X141503400Y-87096600D02*
X141923000Y-87096600D01*
X141351000Y-87249000D02*
X141503400Y-87096600D01*
X140927900Y-88103900D02*
X141351000Y-87680800D01*
X141351000Y-87680800D02*
X141351000Y-87249000D01*
X140088100Y-88103900D02*
X140927900Y-88103900D01*
X127891539Y-108557061D02*
X127891539Y-109918501D01*
X128513840Y-107934760D02*
X127891539Y-108557061D01*
X127891539Y-109918501D02*
X127297180Y-110512860D01*
X127297180Y-110512860D02*
X118328440Y-110512860D01*
X116864000Y-109048420D02*
X116864000Y-106640420D01*
X118328440Y-110512860D02*
X116864000Y-109048420D01*
X115564920Y-106332020D02*
X115754020Y-106142920D01*
X115564920Y-108889800D02*
X115564920Y-106332020D01*
X117576600Y-110901480D02*
X115564920Y-108889800D01*
X119897238Y-110901480D02*
X117576600Y-110901480D01*
X119906119Y-110892599D02*
X119897238Y-110901480D01*
X121171881Y-110892599D02*
X119906119Y-110892599D01*
X121180762Y-110901480D02*
X121171881Y-110892599D01*
X129486660Y-110901480D02*
X121180762Y-110901480D01*
X130431539Y-109956601D02*
X129486660Y-110901480D01*
X130431539Y-108557061D02*
X130431539Y-109956601D01*
X115754020Y-106142920D02*
X116366500Y-106142920D01*
X131053840Y-107934760D02*
X130431539Y-108557061D01*
D58*
X144574400Y-112994400D02*
X144574400Y-112418000D01*
X144574400Y-112418000D02*
X144424400Y-112268000D01*
X144424400Y-112268000D02*
X143967200Y-112268000D01*
X143730800Y-112031600D02*
X143730800Y-110490000D01*
X143967200Y-112268000D02*
X143730800Y-112031600D01*
D51*
X149610000Y-112994400D02*
X149610000Y-112576800D01*
X149610000Y-112576800D02*
X149352000Y-112318800D01*
X149352000Y-112318800D02*
X148945600Y-112318800D01*
X148760000Y-112133200D02*
X148760000Y-110490000D01*
X148945600Y-112318800D02*
X148760000Y-112133200D01*
D57*
X187425330Y-94177739D02*
X188208539Y-94177739D01*
X188208539Y-94177739D02*
X190068200Y-96037400D01*
X190068200Y-96037400D02*
X190068200Y-96596200D01*
X190068200Y-96596200D02*
X190398400Y-96926400D01*
X190398400Y-96926400D02*
X191973200Y-96926400D01*
X192176400Y-96723200D02*
X192176400Y-95566000D01*
X191973200Y-96926400D02*
X192176400Y-96723200D01*
X190931800Y-95540600D02*
X190906400Y-95566000D01*
X190931800Y-93167200D02*
X190931800Y-95540600D01*
X190144400Y-92379800D02*
X190931800Y-93167200D01*
X189430279Y-89176479D02*
X190144400Y-89890600D01*
X190144400Y-89890600D02*
X190144400Y-92379800D01*
X187425330Y-89176479D02*
X189430279Y-89176479D01*
X187425330Y-88676353D02*
X191012953Y-88676353D01*
X191012953Y-88676353D02*
X191541400Y-89204800D01*
X191541400Y-89204800D02*
X191541400Y-91795600D01*
X191541400Y-91795600D02*
X191897000Y-92151200D01*
X191897000Y-92151200D02*
X193268600Y-92151200D01*
X193446400Y-91973400D02*
X193446400Y-90616000D01*
X193268600Y-92151200D02*
X193446400Y-91973400D01*
X187425330Y-88176227D02*
X191274827Y-88176227D01*
X192176400Y-89077800D02*
X192176400Y-90616000D01*
X191274827Y-88176227D02*
X192176400Y-89077800D01*
X188999688Y-86464110D02*
X192382110Y-86464110D01*
X188787949Y-86675849D02*
X188999688Y-86464110D01*
X187425330Y-86675849D02*
X188787949Y-86675849D01*
X192382110Y-86464110D02*
X194106800Y-88188800D01*
X194106800Y-88188800D02*
X194106800Y-92659200D01*
X193446400Y-93319600D02*
X193446400Y-95566000D01*
X194106800Y-92659200D02*
X193446400Y-93319600D01*
X160522920Y-86360000D02*
X159230060Y-86360000D01*
X160934400Y-86771480D02*
X160522920Y-86360000D01*
X160934400Y-88803480D02*
X160934400Y-86771480D01*
X161488130Y-89357210D02*
X160934400Y-88803480D01*
X164743656Y-89357210D02*
X161488130Y-89357210D01*
X164924387Y-89176479D02*
X164743656Y-89357210D01*
X165873430Y-89176479D02*
X164924387Y-89176479D01*
X161116645Y-89676605D02*
X160340040Y-88900000D01*
X160340040Y-88900000D02*
X159230060Y-88900000D01*
X165873430Y-89676605D02*
X161116645Y-89676605D01*
X165873430Y-90176731D02*
X156978731Y-90176731D01*
X156690060Y-89888060D02*
X156690060Y-88900000D01*
X156978731Y-90176731D02*
X156690060Y-89888060D01*
X162041713Y-98178747D02*
X165873430Y-98178747D01*
X160863291Y-99357169D02*
X162041713Y-98178747D01*
X158803340Y-96420940D02*
X158803340Y-98839020D01*
X147974230Y-91530350D02*
X151084335Y-94640455D01*
X151084335Y-94640455D02*
X157022856Y-94640455D01*
X159321489Y-99357169D02*
X160863291Y-99357169D01*
X157022856Y-94640455D02*
X158803340Y-96420940D01*
X147974230Y-85379560D02*
X147974230Y-91530350D01*
X158803340Y-98839020D02*
X159321489Y-99357169D01*
X161972654Y-98678873D02*
X165873430Y-98678873D01*
X159195233Y-99661980D02*
X160989547Y-99661980D01*
X158457900Y-98924647D02*
X159195233Y-99661980D01*
X158457900Y-96506566D02*
X158457900Y-98924647D01*
X160989547Y-99661980D02*
X161972654Y-98678873D01*
X147289520Y-91688187D02*
X150546599Y-94945266D01*
X147289520Y-85267800D02*
X147289520Y-91688187D01*
X150546599Y-94945266D02*
X156896600Y-94945266D01*
X156896600Y-94945266D02*
X158457900Y-96506566D01*
X108041800Y-70576800D02*
X108077000Y-70612000D01*
X106985400Y-70576800D02*
X108041800Y-70576800D01*
X118745000Y-75057000D02*
X121095000Y-75057000D01*
X116586000Y-72898000D02*
X118745000Y-75057000D01*
X108164800Y-77176800D02*
X108204000Y-77216000D01*
X106985400Y-77176800D02*
X108164800Y-77176800D01*
X121095000Y-78105000D02*
X118618000Y-78105000D01*
X118618000Y-78105000D02*
X117983000Y-78740000D01*
X108286200Y-78276800D02*
X108331000Y-78232000D01*
X106985400Y-78276800D02*
X108286200Y-78276800D01*
X119888000Y-79629000D02*
X121095000Y-79629000D01*
D51*
X135551159Y-87510309D02*
X135128000Y-87087150D01*
X136202110Y-87510310D02*
X135551159Y-87510309D01*
X136213100Y-87521300D02*
X136202110Y-87510310D01*
X136213100Y-87603900D02*
X136213100Y-87521300D01*
X135128000Y-87087150D02*
X135128000Y-85445600D01*
X135559800Y-85013800D02*
X135559800Y-84137800D01*
X135128000Y-85445600D02*
X135559800Y-85013800D01*
D54*
X135559800Y-84137800D02*
X134010400Y-84137800D01*
X134010400Y-84137800D02*
X133413800Y-84137800D01*
X133413800Y-84137800D02*
X132994400Y-83718400D01*
X132994400Y-83718400D02*
X132994400Y-81483200D01*
X133375400Y-81102200D02*
X134010300Y-81102200D01*
X132994400Y-81483200D02*
X133375400Y-81102200D01*
D52*
X130454100Y-90233500D02*
X130454100Y-89471200D01*
X130454100Y-89471200D02*
X130454100Y-88709500D01*
X130454100Y-88709500D02*
X129598420Y-88709500D01*
X129598420Y-88709500D02*
X129189480Y-88300560D01*
X129189480Y-88300560D02*
X129189480Y-86878160D01*
X128963420Y-86652100D02*
X127786400Y-86652100D01*
X129189480Y-86878160D02*
X128963420Y-86652100D01*
X126512320Y-88193880D02*
X125986540Y-87668100D01*
X125986540Y-87668100D02*
X125246400Y-87668100D01*
X126512320Y-89448640D02*
X126512320Y-88193880D01*
X127297180Y-90233500D02*
X126512320Y-89448640D01*
X130454100Y-90233500D02*
X127297180Y-90233500D01*
X128315720Y-80721200D02*
X129661920Y-82067400D01*
X129661920Y-82067400D02*
X130340600Y-82067400D01*
X115895120Y-80721200D02*
X128315720Y-80721200D01*
X112925220Y-83691100D02*
X115895120Y-80721200D01*
X111276400Y-83691100D02*
X112925220Y-83691100D01*
D57*
X140088100Y-89603900D02*
X140683300Y-89603900D01*
X140683300Y-89603900D02*
X140995400Y-89916000D01*
X140995400Y-89916000D02*
X140995400Y-92786200D01*
X141376400Y-93167200D02*
X141935200Y-93167200D01*
X140995400Y-92786200D02*
X141376400Y-93167200D01*
X140088100Y-87103900D02*
X140581700Y-87103900D01*
X140581700Y-87103900D02*
X140716000Y-86969600D01*
X140716000Y-86969600D02*
X140716000Y-84683600D01*
X141427200Y-83972400D02*
X141923000Y-83972400D01*
X140716000Y-84683600D02*
X141427200Y-83972400D01*
D54*
X131990600Y-80568800D02*
X131990600Y-82067400D01*
D57*
X137400600Y-85533800D02*
X137363200Y-85496400D01*
X137400600Y-86416400D02*
X137400600Y-85533800D01*
X131953000Y-82105000D02*
X131990600Y-82067400D01*
X131953000Y-83210400D02*
X131953000Y-82105000D01*
D51*
X116366500Y-103142920D02*
X115941980Y-103142920D01*
X114975140Y-101922580D02*
X114975140Y-102635820D01*
X115166140Y-102826820D02*
X115625880Y-102826820D01*
X114975140Y-102635820D02*
X115166140Y-102826820D01*
X115941980Y-103142920D02*
X115625880Y-102826820D01*
M02*
