M48
; DRILL file {KiCad 5.1.7-a382d34a8~88~ubuntu20.04.1} date Sun Apr 18 14:41:36 2021
; FORMAT={-:-/ absolute / inch / decimal}
; #@! TF.CreationDate,2021-04-18T14:41:36-03:00
; #@! TF.GenerationSoftware,Kicad,Pcbnew,5.1.7-a382d34a8~88~ubuntu20.04.1
; #@! TF.FileFunction,Plated,1,4,PTH
FMAT,2
INCH
T1C0.0098
T2C0.0118
T3C0.0197
T4C0.0390
T5C0.0394
T6C0.0400
T7C0.0402
T8C0.0453
T9C0.0512
T10C0.0551
T11C0.1200
%
G90
G05
T1
X5.6821Y-4.486
X5.7214Y-4.486
X5.8803Y-4.486
X5.9197Y-4.486
T2
X4.253Y-2.823
X4.2536Y-2.865
X4.255Y-2.78
X4.257Y-2.908
X4.258Y-2.996
X4.26Y-3.04
X4.265Y-3.08
X4.3085Y-4.053
X4.31Y-4.202
X4.3692Y-4.5835
X4.3728Y-4.556
X4.3735Y-4.099
X4.3828Y-2.7324
X4.3975Y-4.099
X4.4008Y-3.1516
X4.4122Y-2.7324
X4.418Y-4.2425
X4.422Y-4.099
X4.43Y-3.1516
X4.431Y-4.0118
X4.4475Y-4.099
X4.4588Y-2.772
X4.4588Y-2.8424
X4.4588Y-2.9214
X4.4588Y-2.994
X4.4703Y-3.1165
X4.5218Y-3.1492
X4.5261Y-4.5402
X4.5261Y-4.5658
X4.5364Y-4.0731
X4.5447Y-4.1194
X4.5468Y-2.8566
X4.615Y-4.4955
X4.644Y-4.2546
X4.645Y-3.1
X4.6518Y-3.1492
X4.7121Y-3.0375
X4.72Y-3.135
X4.73Y-2.895
X4.774Y-4.1008
X4.791Y-4.429
X4.8151Y-4.1941
X5.0191Y-4.2126
X5.0978Y-3.6258
X5.1005Y-4.2126
X5.1355Y-3.4633
X5.1399Y-3.2637
X5.1596Y-4.3316
X5.1965Y-3.4621
X5.2095Y-4.219
X5.2286Y-3.8568
X5.3369Y-3.6667
X5.3507Y-3.3961
X5.355Y-4.403
X5.3652Y-3.5594
X5.3709Y-3.2299
X5.4114Y-3.3512
X5.426Y-4.2495
X5.426Y-4.2235
X5.426Y-4.2745
X5.43Y-3.3335
X5.4512Y-3.3526
X5.4627Y-3.1299
X5.4627Y-3.1597
X5.4627Y-3.1911
X5.47Y-3.3324
X5.4734Y-3.895
X5.498Y-4.394
X5.499Y-4.25
X5.4995Y-4.5375
X5.5576Y-3.166
X5.5596Y-3.656
X5.6689Y-3.4425
X5.6922Y-3.9742
X5.7299Y-3.4431
X5.7319Y-3.3787
X5.7644Y-3.593
X5.7648Y-3.713
X5.7684Y-3.2314
X5.7767Y-3.9389
X5.784Y-4.364
X5.784Y-4.392
X5.784Y-4.42
X5.8725Y-2.9642
X5.8735Y-2.9385
X5.8936Y-3.819
X5.8936Y-3.848
X5.9Y-3.974
X5.968Y-4.582
X6.0292Y-3.6048
X6.0301Y-3.774
X6.0367Y-3.923
X6.05Y-4.348
X6.0548Y-3.6296
X6.0596Y-3.5842
X6.1826Y-3.7042
X6.194Y-3.974
X6.202Y-3.8031
X6.2032Y-3.6856
X6.2244Y-3.5294
X6.2266Y-3.5036
X6.256Y-3.4726
X6.2628Y-3.5074
X6.327Y-3.0835
X6.349Y-3.0595
X6.3592Y-3.6683
X6.3702Y-4.022
X6.374Y-3.0407
X6.39Y-3.4384
X6.395Y-3.013
X6.3955Y-3.9238
X6.4118Y-4.0214
X6.436Y-3.279
X6.4565Y-3.9248
X6.4702Y-4.451
X6.4704Y-3.3882
X6.4843Y-3.6684
X6.4864Y-3.4715
X6.488Y-4.543
X6.5062Y-4.1669
X6.5302Y-4.4379
X6.5526Y-4.2846
X6.5714Y-3.4522
X6.5732Y-3.649
X6.5917Y-3.1058
X6.5928Y-3.8648
X6.597Y-3.393
X6.6097Y-4.0536
X6.618Y-3.413
X6.6187Y-3.486
X6.622Y-3.5115
X6.6227Y-3.0096
X6.6274Y-4.3844
X6.6276Y-3.8638
X6.6297Y-3.1978
X6.6326Y-4.3228
X6.6499Y-4.0775
X6.6572Y-3.8313
X6.676Y-4.4035
X6.6777Y-4.3634
X6.6852Y-3.8102
X6.69Y-3.4965
X6.6944Y-4.0635
X6.702Y-3.5295
X6.7087Y-3.9648
X6.7159Y-4.4032
X6.7174Y-4.087
X6.7347Y-4.5034
X6.754Y-4.3659
X6.754Y-4.187
X6.7737Y-4.5024
X6.7879Y-3.7831
X6.793Y-4.1498
X6.7935Y-4.3265
X6.802Y-3.954
X6.8069Y-3.3001
X6.8104Y-3.7707
X6.8208Y-3.6296
X6.836Y-4.223
X6.84Y-3.2205
X6.8435Y-3.2675
X6.864Y-3.2865
X6.866Y-3.1981
X6.866Y-3.245
X6.8667Y-2.9728
X6.8667Y-3.1118
X6.8802Y-3.65
X6.886Y-4.215
X6.889Y-4.307
X6.889Y-4.3454
X6.906Y-3.9536
X6.9182Y-4.1796
X6.9252Y-4.0503
X6.9342Y-3.6696
X6.9791Y-3.7064
X6.9835Y-3.0875
X7.003Y-3.013
X7.004Y-3.109
X7.0049Y-2.9747
X7.0206Y-3.0333
X7.0245Y-3.0838
X7.0245Y-2.9935
X7.0377Y-3.8581
X7.0384Y-3.728
X7.0822Y-4.0568
X7.0827Y-3.1118
X7.0837Y-2.9718
X7.089Y-4.2042
X7.09Y-4.246
X7.09Y-4.518
X7.1017Y-3.1978
X7.1808Y-3.9556
X7.2Y-4.046
X7.2Y-4.138
X7.2066Y-3.8194
X7.2615Y-3.55
X7.2615Y-3.588
X7.284Y-3.5305
X7.284Y-3.57
X7.284Y-3.6095
X7.2938Y-3.7026
X7.2995Y-4.171
X7.3115Y-4.3465
X7.312Y-4.408
X7.3198Y-3.3722
X7.321Y-3.3345
X7.321Y-3.7368
X7.3355Y-3.3131
X7.3357Y-3.4518
X7.3367Y-3.6488
X7.3377Y-3.9048
X7.3378Y-3.3539
X7.3575Y-4.172
X7.4177Y-3.9888
X7.418Y-3.629
X7.423Y-3.4321
X7.4237Y-3.1728
X7.4257Y-3.8848
X7.483Y-3.69
X7.489Y-3.5045
X7.4936Y-4.5354
X7.4968Y-4.5638
X7.515Y-4.5942
X7.5157Y-3.4631
X7.5197Y-3.2018
X7.5555Y-3.3315
X7.56Y-4.0826
X7.5612Y-4.583
X7.5678Y-3.8687
X7.5745Y-3.354
X7.5822Y-4.5582
X7.5836Y-4.1076
X7.5935Y-3.3755
X7.614Y-3.3985
X7.6188Y-4.2388
X7.637Y-3.413
X7.656Y-3.386
X7.6638Y-3.834
X7.978Y-3.948
X5.4208Y-3.4226
X5.4208Y-3.462
X5.4208Y-3.5014
X5.4602Y-3.4226
X5.4602Y-3.462
X5.4602Y-3.5014
X5.4996Y-3.4226
X5.4996Y-3.462
X5.4996Y-3.5014
T4
X4.8188Y-4.684
X4.996Y-4.684
T5
X5.0413Y-4.1036
X5.1413Y-4.1036
X6.288Y-3.9348
X6.288Y-4.0348
T6
X6.07Y-4.69
X6.17Y-4.69
X6.27Y-4.69
X6.37Y-4.69
X6.47Y-4.69
X6.57Y-4.69
X6.67Y-4.69
X6.77Y-4.69
X5.17Y-4.69
X5.27Y-4.69
X5.37Y-4.69
X5.47Y-4.69
X5.57Y-4.69
X5.67Y-4.69
X5.77Y-4.69
X5.87Y-4.69
X7.77Y-2.79
X7.77Y-2.89
X7.77Y-2.99
X7.77Y-3.09
X7.77Y-3.19
X7.77Y-3.29
X7.77Y-3.39
X7.77Y-3.49
X7.77Y-3.59
X7.77Y-3.69
X7.77Y-3.79
X7.77Y-3.89
X7.77Y-3.99
X7.77Y-4.09
X7.77Y-4.19
X7.77Y-4.29
X7.77Y-4.39
X7.77Y-4.49
X7.87Y-2.79
X7.87Y-2.89
X7.87Y-2.99
X7.87Y-3.09
X7.87Y-3.19
X7.87Y-3.29
X7.87Y-3.39
X7.87Y-3.49
X7.87Y-3.59
X7.87Y-3.69
X7.87Y-3.79
X7.87Y-3.89
X7.87Y-3.99
X7.87Y-4.09
X7.87Y-4.19
X7.87Y-4.29
X7.87Y-4.39
X7.87Y-4.49
X4.81Y-2.79
X4.91Y-2.79
X5.01Y-2.79
X5.11Y-2.79
X5.21Y-2.79
X5.31Y-2.79
X5.41Y-2.79
X5.51Y-2.79
X5.61Y-2.79
X5.71Y-2.79
X6.77Y-2.79
X6.87Y-2.79
X6.97Y-2.79
X7.07Y-2.79
X7.17Y-2.79
X7.27Y-2.79
X7.37Y-2.79
X7.47Y-2.79
X6.97Y-4.69
X7.07Y-4.69
X7.17Y-4.69
X7.27Y-4.69
X7.37Y-4.69
X7.47Y-4.69
X7.57Y-4.69
X7.67Y-4.69
X5.87Y-2.79
X5.97Y-2.79
X6.07Y-2.79
X6.17Y-2.79
X6.27Y-2.79
X6.37Y-2.79
X6.47Y-2.79
X6.57Y-2.79
T7
X4.931Y-3.3715
X4.931Y-3.4515
X4.931Y-3.5315
X5.031Y-3.3315
X5.031Y-3.4115
X5.031Y-3.4915
T8
X4.281Y-3.2949
X4.281Y-3.8481
X4.381Y-3.2949
X4.381Y-3.8481
T9
X4.7692Y-4.586
X5.0452Y-4.586
T10
X4.666Y-3.8926
X4.7211Y-3.2504
T11
X7.87Y-4.69
X4.67Y-2.79
X4.62Y-4.69
X7.62Y-2.79
T3
G00X4.186Y-4.3762
M15
G01X4.1624Y-4.3762
M16
G05
G00X4.186Y-4.7298
M15
G01X4.1624Y-4.7298
M16
G05
G00X4.4203Y-4.3904
M15
G01X4.3966Y-4.3904
M16
G05
G00X4.4203Y-4.7156
M15
G01X4.3966Y-4.7156
M16
G05
T0
M30
