<?xml version="1.0" standalone="no"?>
 <!DOCTYPE svg PUBLIC "-//W3C//DTD SVG 1.1//EN" 
 "http://www.w3.org/Graphics/SVG/1.1/DTD/svg11.dtd"> 
<svg
  xmlns:svg="http://www.w3.org/2000/svg"
  xmlns="http://www.w3.org/2000/svg"
  xmlns:xlink="http://www.w3.org/1999/xlink"
  version="1.1"
  width="29.700220cm" height="21.000720cm" viewBox="0 0 116930 82680">
<title>SVG Picture created as USB-OTG-USB_OTG.svg date 2021/04/05 16:32:58 </title>
  <desc>Picture generated by Eeschema-SVG </desc>
<g style="fill:#000000; fill-opacity:1;stroke:#000000; stroke-opacity:1;
stroke-linecap:round; stroke-linejoin:round;"
 transform="translate(0 0) scale(1 1)">
</g>
<g style="fill:#000000; fill-opacity:0.0; 
stroke:#000000; stroke-width:-10; stroke-opacity:1; 
stroke-linecap:round; stroke-linejoin:round;">
</g>
<g style="fill:#840000; fill-opacity:0.0; 
stroke:#840000; stroke-width:-10; stroke-opacity:1; 
stroke-linecap:round; stroke-linejoin:round;">
</g>
<g style="fill:#840000; fill-opacity:0.0; 
stroke:#840000; stroke-width:100; stroke-opacity:1; 
stroke-linecap:round; stroke-linejoin:round;">
</g>
<g style="fill:#840000; fill-opacity:0.0; 
stroke:#840000; stroke-width:60; stroke-opacity:1; 
stroke-linecap:round; stroke-linejoin:round;">
<rect x="69690" y="65360" width="42520" height="12600" rx="0" />
</g>
<g style="fill:#840000; fill-opacity:0.0; 
stroke:#840000; stroke-width:100; stroke-opacity:1; 
stroke-linecap:round; stroke-linejoin:round;">
</g>
<g style="fill:#840000; fill-opacity:0.0; 
stroke:#840000; stroke-width:60; stroke-opacity:1; 
stroke-linecap:round; stroke-linejoin:round;">
<rect x="3940" y="3940" width="109050" height="74800" rx="0" />
</g>
<g style="fill:#840000; fill-opacity:0.0; 
stroke:#840000; stroke-width:100; stroke-opacity:1; 
stroke-linecap:round; stroke-linejoin:round;">
</g>
<g style="fill:#840000; fill-opacity:0.0; 
stroke:#840000; stroke-width:60; stroke-opacity:1; 
stroke-linecap:round; stroke-linejoin:round;">
<rect x="4720" y="4720" width="107490" height="73240" rx="0" />
</g>
<g style="fill:#840000; fill-opacity:0.0; 
stroke:#840000; stroke-width:100; stroke-opacity:1; 
stroke-linecap:round; stroke-linejoin:round;">
</g>
<g style="fill:#840000; fill-opacity:0.0; 
stroke:#840000; stroke-width:60; stroke-opacity:1; 
stroke-linecap:round; stroke-linejoin:round;">
<path d="M23620 4720
L23620 3940
" />
</g>
<g style="fill:#840000; fill-opacity:0.0; 
stroke:#840000; stroke-width:100; stroke-opacity:1; 
stroke-linecap:round; stroke-linejoin:round;">
</g>
<g style="fill:#840000; fill-opacity:0.0; 
stroke:#840000; stroke-width:60; stroke-opacity:1; 
stroke-linecap:round; stroke-linejoin:round;">
<path d="M43310 4720
L43310 3940
" />
</g>
<g style="fill:#840000; fill-opacity:0.0; 
stroke:#840000; stroke-width:100; stroke-opacity:1; 
stroke-linecap:round; stroke-linejoin:round;">
</g>
<g style="fill:#840000; fill-opacity:0.0; 
stroke:#840000; stroke-width:60; stroke-opacity:1; 
stroke-linecap:round; stroke-linejoin:round;">
<path d="M62990 4720
L62990 3940
" />
</g>
<g style="fill:#840000; fill-opacity:0.0; 
stroke:#840000; stroke-width:100; stroke-opacity:1; 
stroke-linecap:round; stroke-linejoin:round;">
</g>
<g style="fill:#840000; fill-opacity:0.0; 
stroke:#840000; stroke-width:60; stroke-opacity:1; 
stroke-linecap:round; stroke-linejoin:round;">
<path d="M82680 4720
L82680 3940
" />
</g>
<g style="fill:#840000; fill-opacity:0.0; 
stroke:#840000; stroke-width:100; stroke-opacity:1; 
stroke-linecap:round; stroke-linejoin:round;">
</g>
<g style="fill:#840000; fill-opacity:0.0; 
stroke:#840000; stroke-width:60; stroke-opacity:1; 
stroke-linecap:round; stroke-linejoin:round;">
<path d="M102360 4720
L102360 3940
" />
</g>
<g style="fill:#840000; fill-opacity:0.0; 
stroke:#840000; stroke-width:100; stroke-opacity:1; 
stroke-linecap:round; stroke-linejoin:round;">
</g>
<g style="fill:#840000; fill-opacity:0.0; 
stroke:#840000; stroke-width:60; stroke-opacity:1; 
stroke-linecap:round; stroke-linejoin:round;">
<text x="13780" y="4580"
textLength="550" font-size="680" lengthAdjust="spacingAndGlyphs"
text-anchor="start" opacity="0">1</text>
<path d="M14190 4560
L13900 4560
" />
<path d="M14050 4560
L14050 4050
L14000 4120
L13950 4170
L13900 4190
" />
</g>
<g style="fill:#840000; fill-opacity:0.0; 
stroke:#840000; stroke-width:100; stroke-opacity:1; 
stroke-linecap:round; stroke-linejoin:round;">
</g>
<g style="fill:#840000; fill-opacity:0.0; 
stroke:#840000; stroke-width:60; stroke-opacity:1; 
stroke-linecap:round; stroke-linejoin:round;">
<text x="33460" y="4580"
textLength="550" font-size="680" lengthAdjust="spacingAndGlyphs"
text-anchor="start" opacity="0">2</text>
<path d="M33580 4090
L33610 4070
L33660 4050
L33780 4050
L33830 4070
L33850 4090
L33870 4140
L33870 4190
L33850 4260
L33560 4560
L33870 4560
" />
</g>
<g style="fill:#840000; fill-opacity:0.0; 
stroke:#840000; stroke-width:100; stroke-opacity:1; 
stroke-linecap:round; stroke-linejoin:round;">
</g>
<g style="fill:#840000; fill-opacity:0.0; 
stroke:#840000; stroke-width:60; stroke-opacity:1; 
stroke-linecap:round; stroke-linejoin:round;">
<text x="53150" y="4580"
textLength="550" font-size="680" lengthAdjust="spacingAndGlyphs"
text-anchor="start" opacity="0">3</text>
<path d="M53250 4050
L53560 4050
L53390 4240
L53470 4240
L53520 4260
L53540 4290
L53560 4340
L53560 4460
L53540 4510
L53520 4530
L53470 4560
L53320 4560
L53270 4530
L53250 4510
" />
</g>
<g style="fill:#840000; fill-opacity:0.0; 
stroke:#840000; stroke-width:100; stroke-opacity:1; 
stroke-linecap:round; stroke-linejoin:round;">
</g>
<g style="fill:#840000; fill-opacity:0.0; 
stroke:#840000; stroke-width:60; stroke-opacity:1; 
stroke-linecap:round; stroke-linejoin:round;">
<text x="72830" y="4580"
textLength="550" font-size="680" lengthAdjust="spacingAndGlyphs"
text-anchor="start" opacity="0">4</text>
<path d="M73200 4220
L73200 4560
" />
<path d="M73070 4020
L72950 4390
L73270 4390
" />
</g>
<g style="fill:#840000; fill-opacity:0.0; 
stroke:#840000; stroke-width:100; stroke-opacity:1; 
stroke-linecap:round; stroke-linejoin:round;">
</g>
<g style="fill:#840000; fill-opacity:0.0; 
stroke:#840000; stroke-width:60; stroke-opacity:1; 
stroke-linecap:round; stroke-linejoin:round;">
<text x="92520" y="4580"
textLength="550" font-size="680" lengthAdjust="spacingAndGlyphs"
text-anchor="start" opacity="0">5</text>
<path d="M92910 4050
L92670 4050
L92640 4290
L92670 4260
L92720 4240
L92840 4240
L92890 4260
L92910 4290
L92930 4340
L92930 4460
L92910 4510
L92890 4530
L92840 4560
L92720 4560
L92670 4530
L92640 4510
" />
</g>
<g style="fill:#840000; fill-opacity:0.0; 
stroke:#840000; stroke-width:100; stroke-opacity:1; 
stroke-linecap:round; stroke-linejoin:round;">
</g>
<g style="fill:#840000; fill-opacity:0.0; 
stroke:#840000; stroke-width:60; stroke-opacity:1; 
stroke-linecap:round; stroke-linejoin:round;">
<text x="112200" y="4580"
textLength="550" font-size="680" lengthAdjust="spacingAndGlyphs"
text-anchor="start" opacity="0">6</text>
<path d="M112570 4050
L112470 4050
L112420 4070
L112400 4090
L112350 4170
L112320 4260
L112320 4460
L112350 4510
L112370 4530
L112420 4560
L112520 4560
L112570 4530
L112590 4510
L112610 4460
L112610 4340
L112590 4290
L112570 4260
L112520 4240
L112420 4240
L112370 4260
L112350 4290
L112320 4340
" />
</g>
<g style="fill:#840000; fill-opacity:0.0; 
stroke:#840000; stroke-width:100; stroke-opacity:1; 
stroke-linecap:round; stroke-linejoin:round;">
</g>
<g style="fill:#840000; fill-opacity:0.0; 
stroke:#840000; stroke-width:60; stroke-opacity:1; 
stroke-linecap:round; stroke-linejoin:round;">
<path d="M23620 77960
L23620 78740
" />
</g>
<g style="fill:#840000; fill-opacity:0.0; 
stroke:#840000; stroke-width:100; stroke-opacity:1; 
stroke-linecap:round; stroke-linejoin:round;">
</g>
<g style="fill:#840000; fill-opacity:0.0; 
stroke:#840000; stroke-width:60; stroke-opacity:1; 
stroke-linecap:round; stroke-linejoin:round;">
<path d="M43310 77960
L43310 78740
" />
</g>
<g style="fill:#840000; fill-opacity:0.0; 
stroke:#840000; stroke-width:100; stroke-opacity:1; 
stroke-linecap:round; stroke-linejoin:round;">
</g>
<g style="fill:#840000; fill-opacity:0.0; 
stroke:#840000; stroke-width:60; stroke-opacity:1; 
stroke-linecap:round; stroke-linejoin:round;">
<path d="M62990 77960
L62990 78740
" />
</g>
<g style="fill:#840000; fill-opacity:0.0; 
stroke:#840000; stroke-width:100; stroke-opacity:1; 
stroke-linecap:round; stroke-linejoin:round;">
</g>
<g style="fill:#840000; fill-opacity:0.0; 
stroke:#840000; stroke-width:60; stroke-opacity:1; 
stroke-linecap:round; stroke-linejoin:round;">
<path d="M82680 77960
L82680 78740
" />
</g>
<g style="fill:#840000; fill-opacity:0.0; 
stroke:#840000; stroke-width:100; stroke-opacity:1; 
stroke-linecap:round; stroke-linejoin:round;">
</g>
<g style="fill:#840000; fill-opacity:0.0; 
stroke:#840000; stroke-width:60; stroke-opacity:1; 
stroke-linecap:round; stroke-linejoin:round;">
<path d="M102360 77960
L102360 78740
" />
</g>
<g style="fill:#840000; fill-opacity:0.0; 
stroke:#840000; stroke-width:100; stroke-opacity:1; 
stroke-linecap:round; stroke-linejoin:round;">
</g>
<g style="fill:#840000; fill-opacity:0.0; 
stroke:#840000; stroke-width:60; stroke-opacity:1; 
stroke-linecap:round; stroke-linejoin:round;">
<text x="13780" y="78600"
textLength="550" font-size="680" lengthAdjust="spacingAndGlyphs"
text-anchor="start" opacity="0">1</text>
<path d="M14190 78580
L13900 78580
" />
<path d="M14050 78580
L14050 78070
L14000 78140
L13950 78190
L13900 78210
" />
</g>
<g style="fill:#840000; fill-opacity:0.0; 
stroke:#840000; stroke-width:100; stroke-opacity:1; 
stroke-linecap:round; stroke-linejoin:round;">
</g>
<g style="fill:#840000; fill-opacity:0.0; 
stroke:#840000; stroke-width:60; stroke-opacity:1; 
stroke-linecap:round; stroke-linejoin:round;">
<text x="33460" y="78600"
textLength="550" font-size="680" lengthAdjust="spacingAndGlyphs"
text-anchor="start" opacity="0">2</text>
<path d="M33580 78110
L33610 78090
L33660 78070
L33780 78070
L33830 78090
L33850 78110
L33870 78160
L33870 78210
L33850 78280
L33560 78580
L33870 78580
" />
</g>
<g style="fill:#840000; fill-opacity:0.0; 
stroke:#840000; stroke-width:100; stroke-opacity:1; 
stroke-linecap:round; stroke-linejoin:round;">
</g>
<g style="fill:#840000; fill-opacity:0.0; 
stroke:#840000; stroke-width:60; stroke-opacity:1; 
stroke-linecap:round; stroke-linejoin:round;">
<text x="53150" y="78600"
textLength="550" font-size="680" lengthAdjust="spacingAndGlyphs"
text-anchor="start" opacity="0">3</text>
<path d="M53250 78070
L53560 78070
L53390 78260
L53470 78260
L53520 78280
L53540 78310
L53560 78360
L53560 78480
L53540 78530
L53520 78550
L53470 78580
L53320 78580
L53270 78550
L53250 78530
" />
</g>
<g style="fill:#840000; fill-opacity:0.0; 
stroke:#840000; stroke-width:100; stroke-opacity:1; 
stroke-linecap:round; stroke-linejoin:round;">
</g>
<g style="fill:#840000; fill-opacity:0.0; 
stroke:#840000; stroke-width:60; stroke-opacity:1; 
stroke-linecap:round; stroke-linejoin:round;">
<text x="72830" y="78600"
textLength="550" font-size="680" lengthAdjust="spacingAndGlyphs"
text-anchor="start" opacity="0">4</text>
<path d="M73200 78240
L73200 78580
" />
<path d="M73070 78040
L72950 78410
L73270 78410
" />
</g>
<g style="fill:#840000; fill-opacity:0.0; 
stroke:#840000; stroke-width:100; stroke-opacity:1; 
stroke-linecap:round; stroke-linejoin:round;">
</g>
<g style="fill:#840000; fill-opacity:0.0; 
stroke:#840000; stroke-width:60; stroke-opacity:1; 
stroke-linecap:round; stroke-linejoin:round;">
<text x="92520" y="78600"
textLength="550" font-size="680" lengthAdjust="spacingAndGlyphs"
text-anchor="start" opacity="0">5</text>
<path d="M92910 78070
L92670 78070
L92640 78310
L92670 78280
L92720 78260
L92840 78260
L92890 78280
L92910 78310
L92930 78360
L92930 78480
L92910 78530
L92890 78550
L92840 78580
L92720 78580
L92670 78550
L92640 78530
" />
</g>
<g style="fill:#840000; fill-opacity:0.0; 
stroke:#840000; stroke-width:100; stroke-opacity:1; 
stroke-linecap:round; stroke-linejoin:round;">
</g>
<g style="fill:#840000; fill-opacity:0.0; 
stroke:#840000; stroke-width:60; stroke-opacity:1; 
stroke-linecap:round; stroke-linejoin:round;">
<text x="112200" y="78600"
textLength="550" font-size="680" lengthAdjust="spacingAndGlyphs"
text-anchor="start" opacity="0">6</text>
<path d="M112570 78070
L112470 78070
L112420 78090
L112400 78110
L112350 78190
L112320 78280
L112320 78480
L112350 78530
L112370 78550
L112420 78580
L112520 78580
L112570 78550
L112590 78530
L112610 78480
L112610 78360
L112590 78310
L112570 78280
L112520 78260
L112420 78260
L112370 78280
L112350 78310
L112320 78360
" />
</g>
<g style="fill:#840000; fill-opacity:0.0; 
stroke:#840000; stroke-width:100; stroke-opacity:1; 
stroke-linecap:round; stroke-linejoin:round;">
</g>
<g style="fill:#840000; fill-opacity:0.0; 
stroke:#840000; stroke-width:60; stroke-opacity:1; 
stroke-linecap:round; stroke-linejoin:round;">
<path d="M3940 23620
L4720 23620
" />
</g>
<g style="fill:#840000; fill-opacity:0.0; 
stroke:#840000; stroke-width:100; stroke-opacity:1; 
stroke-linecap:round; stroke-linejoin:round;">
</g>
<g style="fill:#840000; fill-opacity:0.0; 
stroke:#840000; stroke-width:60; stroke-opacity:1; 
stroke-linecap:round; stroke-linejoin:round;">
<path d="M3940 43310
L4720 43310
" />
</g>
<g style="fill:#840000; fill-opacity:0.0; 
stroke:#840000; stroke-width:100; stroke-opacity:1; 
stroke-linecap:round; stroke-linejoin:round;">
</g>
<g style="fill:#840000; fill-opacity:0.0; 
stroke:#840000; stroke-width:60; stroke-opacity:1; 
stroke-linecap:round; stroke-linejoin:round;">
<path d="M3940 62990
L4720 62990
" />
</g>
<g style="fill:#840000; fill-opacity:0.0; 
stroke:#840000; stroke-width:100; stroke-opacity:1; 
stroke-linecap:round; stroke-linejoin:round;">
</g>
<g style="fill:#840000; fill-opacity:0.0; 
stroke:#840000; stroke-width:60; stroke-opacity:1; 
stroke-linecap:round; stroke-linejoin:round;">
<text x="4330" y="14030"
textLength="500" font-size="680" lengthAdjust="spacingAndGlyphs"
text-anchor="middle" opacity="0">A</text>
<path d="M4200 13860
L4450 13860
" />
<path d="M4160 14010
L4330 13500
L4500 14010
" />
</g>
<g style="fill:#840000; fill-opacity:0.0; 
stroke:#840000; stroke-width:100; stroke-opacity:1; 
stroke-linecap:round; stroke-linejoin:round;">
</g>
<g style="fill:#840000; fill-opacity:0.0; 
stroke:#840000; stroke-width:60; stroke-opacity:1; 
stroke-linecap:round; stroke-linejoin:round;">
<text x="4330" y="33710"
textLength="570" font-size="680" lengthAdjust="spacingAndGlyphs"
text-anchor="middle" opacity="0">B</text>
<path d="M4360 33420
L4430 33440
L4460 33470
L4480 33520
L4480 33590
L4460 33640
L4430 33660
L4390 33690
L4190 33690
L4190 33180
L4360 33180
L4410 33200
L4430 33220
L4460 33270
L4460 33320
L4430 33370
L4410 33390
L4360 33420
L4190 33420
" />
</g>
<g style="fill:#840000; fill-opacity:0.0; 
stroke:#840000; stroke-width:100; stroke-opacity:1; 
stroke-linecap:round; stroke-linejoin:round;">
</g>
<g style="fill:#840000; fill-opacity:0.0; 
stroke:#840000; stroke-width:60; stroke-opacity:1; 
stroke-linecap:round; stroke-linejoin:round;">
<text x="4330" y="53400"
textLength="570" font-size="680" lengthAdjust="spacingAndGlyphs"
text-anchor="middle" opacity="0">C</text>
<path d="M4480 53330
L4460 53350
L4390 53380
L4340 53380
L4260 53350
L4220 53300
L4190 53250
L4170 53160
L4170 53080
L4190 52990
L4220 52940
L4260 52890
L4340 52870
L4390 52870
L4460 52890
L4480 52910
" />
</g>
<g style="fill:#840000; fill-opacity:0.0; 
stroke:#840000; stroke-width:100; stroke-opacity:1; 
stroke-linecap:round; stroke-linejoin:round;">
</g>
<g style="fill:#840000; fill-opacity:0.0; 
stroke:#840000; stroke-width:60; stroke-opacity:1; 
stroke-linecap:round; stroke-linejoin:round;">
<text x="4330" y="73080"
textLength="570" font-size="680" lengthAdjust="spacingAndGlyphs"
text-anchor="middle" opacity="0">D</text>
<path d="M4190 73060
L4190 72550
L4310 72550
L4390 72570
L4430 72620
L4460 72670
L4480 72760
L4480 72840
L4460 72930
L4430 72980
L4390 73030
L4310 73060
L4190 73060
" />
</g>
<g style="fill:#840000; fill-opacity:0.0; 
stroke:#840000; stroke-width:100; stroke-opacity:1; 
stroke-linecap:round; stroke-linejoin:round;">
</g>
<g style="fill:#840000; fill-opacity:0.0; 
stroke:#840000; stroke-width:60; stroke-opacity:1; 
stroke-linecap:round; stroke-linejoin:round;">
<path d="M112990 23620
L112210 23620
" />
</g>
<g style="fill:#840000; fill-opacity:0.0; 
stroke:#840000; stroke-width:100; stroke-opacity:1; 
stroke-linecap:round; stroke-linejoin:round;">
</g>
<g style="fill:#840000; fill-opacity:0.0; 
stroke:#840000; stroke-width:60; stroke-opacity:1; 
stroke-linecap:round; stroke-linejoin:round;">
<path d="M112990 43310
L112210 43310
" />
</g>
<g style="fill:#840000; fill-opacity:0.0; 
stroke:#840000; stroke-width:100; stroke-opacity:1; 
stroke-linecap:round; stroke-linejoin:round;">
</g>
<g style="fill:#840000; fill-opacity:0.0; 
stroke:#840000; stroke-width:60; stroke-opacity:1; 
stroke-linecap:round; stroke-linejoin:round;">
<path d="M112990 62990
L112210 62990
" />
</g>
<g style="fill:#840000; fill-opacity:0.0; 
stroke:#840000; stroke-width:100; stroke-opacity:1; 
stroke-linecap:round; stroke-linejoin:round;">
</g>
<g style="fill:#840000; fill-opacity:0.0; 
stroke:#840000; stroke-width:60; stroke-opacity:1; 
stroke-linecap:round; stroke-linejoin:round;">
<text x="112600" y="14030"
textLength="500" font-size="680" lengthAdjust="spacingAndGlyphs"
text-anchor="middle" opacity="0">A</text>
<path d="M112470 13860
L112720 13860
" />
<path d="M112430 14010
L112600 13500
L112770 14010
" />
</g>
<g style="fill:#840000; fill-opacity:0.0; 
stroke:#840000; stroke-width:100; stroke-opacity:1; 
stroke-linecap:round; stroke-linejoin:round;">
</g>
<g style="fill:#840000; fill-opacity:0.0; 
stroke:#840000; stroke-width:60; stroke-opacity:1; 
stroke-linecap:round; stroke-linejoin:round;">
<text x="112600" y="33710"
textLength="570" font-size="680" lengthAdjust="spacingAndGlyphs"
text-anchor="middle" opacity="0">B</text>
<path d="M112630 33420
L112700 33440
L112730 33470
L112750 33520
L112750 33590
L112730 33640
L112700 33660
L112660 33690
L112460 33690
L112460 33180
L112630 33180
L112680 33200
L112700 33220
L112730 33270
L112730 33320
L112700 33370
L112680 33390
L112630 33420
L112460 33420
" />
</g>
<g style="fill:#840000; fill-opacity:0.0; 
stroke:#840000; stroke-width:100; stroke-opacity:1; 
stroke-linecap:round; stroke-linejoin:round;">
</g>
<g style="fill:#840000; fill-opacity:0.0; 
stroke:#840000; stroke-width:60; stroke-opacity:1; 
stroke-linecap:round; stroke-linejoin:round;">
<text x="112600" y="53400"
textLength="570" font-size="680" lengthAdjust="spacingAndGlyphs"
text-anchor="middle" opacity="0">C</text>
<path d="M112750 53330
L112730 53350
L112660 53380
L112610 53380
L112530 53350
L112490 53300
L112460 53250
L112440 53160
L112440 53080
L112460 52990
L112490 52940
L112530 52890
L112610 52870
L112660 52870
L112730 52890
L112750 52910
" />
</g>
<g style="fill:#840000; fill-opacity:0.0; 
stroke:#840000; stroke-width:100; stroke-opacity:1; 
stroke-linecap:round; stroke-linejoin:round;">
</g>
<g style="fill:#840000; fill-opacity:0.0; 
stroke:#840000; stroke-width:60; stroke-opacity:1; 
stroke-linecap:round; stroke-linejoin:round;">
<text x="112600" y="73080"
textLength="570" font-size="680" lengthAdjust="spacingAndGlyphs"
text-anchor="middle" opacity="0">D</text>
<path d="M112460 73060
L112460 72550
L112580 72550
L112660 72570
L112700 72620
L112730 72670
L112750 72760
L112750 72840
L112730 72930
L112700 72980
L112660 73030
L112580 73060
L112460 73060
" />
</g>
<g style="fill:#840000; fill-opacity:0.0; 
stroke:#840000; stroke-width:100; stroke-opacity:1; 
stroke-linecap:round; stroke-linejoin:round;">
</g>
<g style="fill:#840000; fill-opacity:0.0; 
stroke:#840000; stroke-width:60; stroke-opacity:1; 
stroke-linecap:round; stroke-linejoin:round;">
<text x="78740" y="76320"
textLength="2760" font-size="780" lengthAdjust="spacingAndGlyphs"
text-anchor="start" opacity="0">Date: </text>
<path d="M78910 76290
L78910 75700
L79050 75700
L79130 75730
L79190 75790
L79210 75840
L79240 75950
L79240 76040
L79210 76150
L79190 76210
L79130 76260
L79050 76290
L78910 76290
" />
<path d="M79750 76290
L79750 75980
L79720 75930
L79660 75900
L79550 75900
L79500 75930
" />
<path d="M79750 76260
L79690 76290
L79550 76290
L79500 76260
L79470 76210
L79470 76150
L79500 76100
L79550 76070
L79690 76070
L79750 76040
" />
<path d="M79950 75900
L80170 75900
" />
<path d="M80030 75700
L80030 76210
L80060 76260
L80110 76290
L80170 76290
" />
<path d="M80590 76260
L80540 76290
L80420 76290
L80370 76260
L80340 76210
L80340 75980
L80370 75930
L80420 75900
L80540 75900
L80590 75930
L80620 75980
L80620 76040
L80340 76100
" />
<path d="M80870 76240
L80900 76260
L80870 76290
L80840 76260
L80870 76240
L80870 76290
" />
<path d="M80870 75930
L80900 75950
L80870 75980
L80840 75950
L80870 75930
L80870 75980
" />
</g>
<g style="fill:#840000; fill-opacity:0.0; 
stroke:#840000; stroke-width:100; stroke-opacity:1; 
stroke-linecap:round; stroke-linejoin:round;">
</g>
<g style="fill:#840000; fill-opacity:0.0; 
stroke:#840000; stroke-width:60; stroke-opacity:1; 
stroke-linecap:round; stroke-linejoin:round;">
<path d="M69690 76580
L112210 76580
" />
</g>
<g style="fill:#840000; fill-opacity:0.0; 
stroke:#840000; stroke-width:100; stroke-opacity:1; 
stroke-linecap:round; stroke-linejoin:round;">
</g>
<g style="fill:#840000; fill-opacity:0.0; 
stroke:#840000; stroke-width:60; stroke-opacity:1; 
stroke-linecap:round; stroke-linejoin:round;">
<text x="70080" y="77420"
textLength="24640" font-size="780" lengthAdjust="spacingAndGlyphs"
text-anchor="start" opacity="0">KiCad E.D.A.  kicad 5.1.7-a382d34a8~88~ubuntu20.04.1</text>
<path d="M70250 77390
L70250 76800
" />
<path d="M70580 77390
L70330 77050
" />
<path d="M70580 76800
L70250 77140
" />
<path d="M70840 77390
L70840 77000
" />
<path d="M70840 76800
L70810 76830
L70840 76860
L70860 76830
L70840 76800
L70840 76860
" />
<path d="M71450 77340
L71430 77360
L71340 77390
L71290 77390
L71200 77360
L71140 77310
L71120 77250
L71090 77140
L71090 77050
L71120 76940
L71140 76890
L71200 76830
L71290 76800
L71340 76800
L71430 76830
L71450 76860
" />
<path d="M71960 77390
L71960 77080
L71930 77030
L71880 77000
L71760 77000
L71710 77030
" />
<path d="M71960 77360
L71900 77390
L71760 77390
L71710 77360
L71680 77310
L71680 77250
L71710 77200
L71760 77170
L71900 77170
L71960 77140
" />
<path d="M72490 77390
L72490 76800
" />
<path d="M72490 77360
L72440 77390
L72320 77390
L72270 77360
L72240 77340
L72210 77280
L72210 77110
L72240 77050
L72270 77030
L72320 77000
L72440 77000
L72490 77030
" />
<path d="M73220 77080
L73420 77080
" />
<path d="M73500 77390
L73220 77390
L73220 76800
L73500 76800
" />
<path d="M73760 77340
L73790 77360
L73760 77390
L73730 77360
L73760 77340
L73760 77390
" />
<path d="M74040 77390
L74040 76800
L74180 76800
L74260 76830
L74320 76890
L74350 76940
L74380 77050
L74380 77140
L74350 77250
L74320 77310
L74260 77360
L74180 77390
L74040 77390
" />
<path d="M74630 77340
L74660 77360
L74630 77390
L74600 77360
L74630 77340
L74630 77390
" />
<path d="M74880 77220
L75160 77220
" />
<path d="M74830 77390
L75020 76800
L75220 77390
" />
<path d="M75420 77340
L75440 77360
L75420 77390
L75390 77360
L75420 77340
L75420 77390
" />
<path d="M76600 77390
L76600 76800
" />
<path d="M76650 77170
L76820 77390
" />
<path d="M76820 77000
L76600 77220
" />
<path d="M77070 77390
L77070 77000
" />
<path d="M77070 76800
L77040 76830
L77070 76860
L77100 76830
L77070 76800
L77070 76860
" />
<path d="M77610 77360
L77550 77390
L77440 77390
L77380 77360
L77350 77340
L77330 77280
L77330 77110
L77350 77050
L77380 77030
L77440 77000
L77550 77000
L77610 77030
" />
<path d="M78110 77390
L78110 77080
L78080 77030
L78030 77000
L77920 77000
L77860 77030
" />
<path d="M78110 77360
L78060 77390
L77920 77390
L77860 77360
L77830 77310
L77830 77250
L77860 77200
L77920 77170
L78060 77170
L78110 77140
" />
<path d="M78650 77390
L78650 76800
" />
<path d="M78650 77360
L78590 77390
L78480 77390
L78420 77360
L78390 77340
L78370 77280
L78370 77110
L78390 77050
L78420 77030
L78480 77000
L78590 77000
L78650 77030
" />
<path d="M79660 76800
L79380 76800
L79350 77080
L79380 77050
L79430 77030
L79570 77030
L79630 77050
L79660 77080
L79690 77140
L79690 77280
L79660 77340
L79630 77360
L79570 77390
L79430 77390
L79380 77360
L79350 77340
" />
<path d="M79940 77340
L79970 77360
L79940 77390
L79910 77360
L79940 77340
L79940 77390
" />
<path d="M80530 77390
L80190 77390
" />
<path d="M80360 77390
L80360 76800
L80300 76890
L80250 76940
L80190 76970
" />
<path d="M80780 77340
L80810 77360
L80780 77390
L80750 77360
L80780 77340
L80780 77390
" />
<path d="M81010 76800
L81400 76800
L81150 77390
" />
<path d="M81620 77170
L82070 77170
" />
<path d="M82610 77390
L82610 77080
L82580 77030
L82520 77000
L82410 77000
L82350 77030
" />
<path d="M82610 77360
L82550 77390
L82410 77390
L82350 77360
L82330 77310
L82330 77250
L82350 77200
L82410 77170
L82550 77170
L82610 77140
" />
<path d="M82830 76800
L83200 76800
L83000 77030
L83090 77030
L83140 77050
L83170 77080
L83200 77140
L83200 77280
L83170 77340
L83140 77360
L83090 77390
L82920 77390
L82860 77360
L82830 77340
" />
<path d="M83530 77050
L83480 77030
L83450 77000
L83420 76940
L83420 76910
L83450 76860
L83480 76830
L83530 76800
L83650 76800
L83700 76830
L83730 76860
L83760 76910
L83760 76940
L83730 77000
L83700 77030
L83650 77050
L83530 77050
L83480 77080
L83450 77110
L83420 77170
L83420 77280
L83450 77340
L83480 77360
L83530 77390
L83650 77390
L83700 77360
L83730 77340
L83760 77280
L83760 77170
L83730 77110
L83700 77080
L83650 77050
" />
<path d="M83980 76860
L84010 76830
L84070 76800
L84210 76800
L84270 76830
L84290 76860
L84320 76910
L84320 76970
L84290 77050
L83960 77390
L84320 77390
" />
<path d="M84830 77390
L84830 76800
" />
<path d="M84830 77360
L84770 77390
L84660 77390
L84600 77360
L84570 77340
L84550 77280
L84550 77110
L84570 77050
L84600 77030
L84660 77000
L84770 77000
L84830 77030
" />
<path d="M85050 76800
L85420 76800
L85220 77030
L85300 77030
L85360 77050
L85390 77080
L85420 77140
L85420 77280
L85390 77340
L85360 77360
L85300 77390
L85140 77390
L85080 77360
L85050 77340
" />
<path d="M85920 77000
L85920 77390
" />
<path d="M85780 76770
L85640 77200
L86010 77200
" />
<path d="M86480 77390
L86480 77080
L86460 77030
L86400 77000
L86290 77000
L86230 77030
" />
<path d="M86480 77360
L86430 77390
L86290 77390
L86230 77360
L86200 77310
L86200 77250
L86230 77200
L86290 77170
L86430 77170
L86480 77140
" />
<path d="M86850 77050
L86790 77030
L86770 77000
L86740 76940
L86740 76910
L86770 76860
L86790 76830
L86850 76800
L86960 76800
L87020 76830
L87050 76860
L87070 76910
L87070 76940
L87050 77000
L87020 77030
L86960 77050
L86850 77050
L86790 77080
L86770 77110
L86740 77170
L86740 77280
L86770 77340
L86790 77360
L86850 77390
L86960 77390
L87020 77360
L87050 77340
L87070 77280
L87070 77170
L87050 77110
L87020 77080
L86960 77050
" />
<path d="M87190 76640
L87750 76640
" />
<path d="M87410 77050
L87360 77030
L87330 77000
L87300 76940
L87300 76910
L87330 76860
L87360 76830
L87410 76800
L87520 76800
L87580 76830
L87610 76860
L87640 76910
L87640 76940
L87610 77000
L87580 77030
L87520 77050
L87410 77050
L87360 77080
L87330 77110
L87300 77170
L87300 77280
L87330 77340
L87360 77360
L87410 77390
L87520 77390
L87580 77360
L87610 77340
L87640 77280
L87640 77170
L87610 77110
L87580 77080
L87520 77050
" />
<path d="M87750 76640
L88310 76640
" />
<path d="M87970 77050
L87920 77030
L87890 77000
L87860 76940
L87860 76910
L87890 76860
L87920 76830
L87970 76800
L88090 76800
L88140 76830
L88170 76860
L88200 76910
L88200 76940
L88170 77000
L88140 77030
L88090 77050
L87970 77050
L87920 77080
L87890 77110
L87860 77170
L87860 77280
L87890 77340
L87920 77360
L87970 77390
L88090 77390
L88140 77360
L88170 77340
L88200 77280
L88200 77170
L88170 77110
L88140 77080
L88090 77050
" />
<path d="M88700 77000
L88700 77390
" />
<path d="M88450 77000
L88450 77310
L88480 77360
L88540 77390
L88620 77390
L88680 77360
L88700 77340
" />
<path d="M88990 77390
L88990 76800
" />
<path d="M88990 77030
L89040 77000
L89150 77000
L89210 77030
L89240 77050
L89270 77110
L89270 77280
L89240 77340
L89210 77360
L89150 77390
L89040 77390
L88990 77360
" />
<path d="M89770 77000
L89770 77390
" />
<path d="M89520 77000
L89520 77310
L89550 77360
L89600 77390
L89690 77390
L89740 77360
L89770 77340
" />
<path d="M90050 77000
L90050 77390
" />
<path d="M90050 77050
L90080 77030
L90140 77000
L90220 77000
L90280 77030
L90310 77080
L90310 77390
" />
<path d="M90500 77000
L90730 77000
" />
<path d="M90590 76800
L90590 77310
L90610 77360
L90670 77390
L90730 77390
" />
<path d="M91180 77000
L91180 77390
" />
<path d="M90920 77000
L90920 77310
L90950 77360
L91010 77390
L91090 77390
L91150 77360
L91180 77340
" />
<path d="M91430 76860
L91460 76830
L91510 76800
L91650 76800
L91710 76830
L91740 76860
L91770 76910
L91770 76970
L91740 77050
L91400 77390
L91770 77390
" />
<path d="M92130 76800
L92190 76800
L92240 76830
L92270 76860
L92300 76910
L92330 77030
L92330 77170
L92300 77280
L92270 77340
L92240 77360
L92190 77390
L92130 77390
L92080 77360
L92050 77340
L92020 77280
L91990 77170
L91990 77030
L92020 76910
L92050 76860
L92080 76830
L92130 76800
" />
<path d="M92580 77340
L92610 77360
L92580 77390
L92550 77360
L92580 77340
L92580 77390
" />
<path d="M92970 76800
L93030 76800
L93090 76830
L93110 76860
L93140 76910
L93170 77030
L93170 77170
L93140 77280
L93110 77340
L93090 77360
L93030 77390
L92970 77390
L92920 77360
L92890 77340
L92860 77280
L92830 77170
L92830 77030
L92860 76910
L92890 76860
L92920 76830
L92970 76800
" />
<path d="M93680 77000
L93680 77390
" />
<path d="M93540 76770
L93400 77200
L93760 77200
" />
<path d="M93990 77340
L94010 77360
L93990 77390
L93960 77360
L93990 77340
L93990 77390
" />
<path d="M94580 77390
L94240 77390
" />
<path d="M94410 77390
L94410 76800
L94350 76890
L94290 76940
L94240 76970
" />
</g>
<g style="fill:#840000; fill-opacity:0.0; 
stroke:#840000; stroke-width:100; stroke-opacity:1; 
stroke-linecap:round; stroke-linejoin:round;">
</g>
<g style="fill:#840000; fill-opacity:0.0; 
stroke:#840000; stroke-width:60; stroke-opacity:1; 
stroke-linecap:round; stroke-linejoin:round;">
<path d="M69690 75400
L112210 75400
" />
</g>
<g style="fill:#840000; fill-opacity:0.0; 
stroke:#840000; stroke-width:100; stroke-opacity:1; 
stroke-linecap:round; stroke-linejoin:round;">
</g>
<g style="fill:#840000; fill-opacity:0.0; 
stroke:#840000; stroke-width:120; stroke-opacity:1; 
stroke-linecap:round; stroke-linejoin:round;">
<text x="103540" y="76320"
textLength="2340" font-size="780" lengthAdjust="spacingAndGlyphs"
text-anchor="start" opacity="0">Rev: </text>
<path d="M104090 76290
L103890 76010
" />
<path d="M103750 76290
L103750 75700
L103980 75700
L104030 75730
L104060 75760
L104090 75810
L104090 75900
L104060 75950
L104030 75980
L103980 76010
L103750 76010
" />
<path d="M104570 76260
L104510 76290
L104400 76290
L104340 76260
L104320 76210
L104320 75980
L104340 75930
L104400 75900
L104510 75900
L104570 75930
L104600 75980
L104600 76040
L104320 76100
" />
<path d="M104790 75900
L104930 76290
L105070 75900
" />
<path d="M105300 76240
L105330 76260
L105300 76290
L105270 76260
L105300 76240
L105300 76290
" />
<path d="M105300 75930
L105330 75950
L105300 75980
L105270 75950
L105300 75930
L105300 75980
" />
</g>
<g style="fill:#840000; fill-opacity:0.0; 
stroke:#840000; stroke-width:100; stroke-opacity:1; 
stroke-linecap:round; stroke-linejoin:round;">
</g>
<g style="fill:#840000; fill-opacity:0.0; 
stroke:#840000; stroke-width:60; stroke-opacity:1; 
stroke-linecap:round; stroke-linejoin:round;">
<text x="70080" y="76320"
textLength="3780" font-size="780" lengthAdjust="spacingAndGlyphs"
text-anchor="start" opacity="0">Size: A4</text>
<path d="M70220 76260
L70300 76290
L70440 76290
L70500 76260
L70530 76240
L70550 76180
L70550 76120
L70530 76070
L70500 76040
L70440 76010
L70330 75980
L70270 75950
L70250 75930
L70220 75870
L70220 75810
L70250 75760
L70270 75730
L70330 75700
L70470 75700
L70550 75730
" />
<path d="M70810 76290
L70810 75900
" />
<path d="M70810 75700
L70780 75730
L70810 75760
L70840 75730
L70810 75700
L70810 75760
" />
<path d="M71030 75900
L71340 75900
L71030 76290
L71340 76290
" />
<path d="M71790 76260
L71730 76290
L71620 76290
L71570 76260
L71540 76210
L71540 75980
L71570 75930
L71620 75900
L71730 75900
L71790 75930
L71820 75980
L71820 76040
L71540 76100
" />
<path d="M72070 76240
L72100 76260
L72070 76290
L72040 76260
L72070 76240
L72070 76290
" />
<path d="M72070 75930
L72100 75950
L72070 75980
L72040 75950
L72070 75930
L72070 75980
" />
<path d="M72770 76120
L73060 76120
" />
<path d="M72720 76290
L72910 75700
L73110 76290
" />
<path d="M73560 75900
L73560 76290
" />
<path d="M73420 75670
L73280 76100
L73650 76100
" />
</g>
<g style="fill:#840000; fill-opacity:0.0; 
stroke:#840000; stroke-width:100; stroke-opacity:1; 
stroke-linecap:round; stroke-linejoin:round;">
</g>
<g style="fill:#840000; fill-opacity:0.0; 
stroke:#840000; stroke-width:60; stroke-opacity:1; 
stroke-linecap:round; stroke-linejoin:round;">
<text x="103540" y="77420"
textLength="3350" font-size="780" lengthAdjust="spacingAndGlyphs"
text-anchor="start" opacity="0">Id: 4/4</text>
<path d="M103710 77390
L103710 76800
" />
<path d="M104240 77390
L104240 76800
" />
<path d="M104240 77360
L104180 77390
L104070 77390
L104010 77360
L103990 77340
L103960 77280
L103960 77110
L103990 77050
L104010 77030
L104070 77000
L104180 77000
L104240 77030
" />
<path d="M104520 77340
L104550 77360
L104520 77390
L104490 77360
L104520 77340
L104520 77390
" />
<path d="M104520 77030
L104550 77050
L104520 77080
L104490 77050
L104520 77030
L104520 77080
" />
<path d="M105500 77000
L105500 77390
" />
<path d="M105360 76770
L105220 77200
L105590 77200
" />
<path d="M106230 76770
L105730 77530
" />
<path d="M106680 77000
L106680 77390
" />
<path d="M106540 76770
L106400 77200
L106770 77200
" />
</g>
<g style="fill:#840000; fill-opacity:0.0; 
stroke:#840000; stroke-width:100; stroke-opacity:1; 
stroke-linecap:round; stroke-linejoin:round;">
</g>
<g style="fill:#840000; fill-opacity:0.0; 
stroke:#840000; stroke-width:60; stroke-opacity:1; 
stroke-linecap:round; stroke-linejoin:round;">
<path d="M69690 73820
L112210 73820
" />
</g>
<g style="fill:#840000; fill-opacity:0.0; 
stroke:#840000; stroke-width:100; stroke-opacity:1; 
stroke-linecap:round; stroke-linejoin:round;">
</g>
<g style="fill:#840000; fill-opacity:0.0; 
stroke:#840000; stroke-width:160; stroke-opacity:1; 
stroke-linecap:round; stroke-linejoin:round;">
<text x="70080" y="74920"
textLength="3710" font-size="1050" lengthAdjust="spacingAndGlyphs"
text-anchor="start" opacity="0">Title: </text>
<path d="M70360 74090
L70810 74090
" />
<path d="M70480 74880
L70580 74090
" />
<path d="M70970 74880
L71040 74360
" />
<path d="M71070 74090
L71030 74130
L71060 74170
L71110 74130
L71070 74090
L71060 74170
" />
<path d="M71300 74360
L71600 74360
" />
<path d="M71450 74090
L71360 74770
L71390 74840
L71460 74880
L71540 74880
" />
<path d="M71910 74880
L71840 74840
L71820 74770
L71900 74090
" />
<path d="M72520 74840
L72440 74880
L72290 74880
L72220 74840
L72190 74770
L72230 74470
L72280 74390
L72360 74360
L72510 74360
L72580 74390
L72610 74470
L72600 74540
L72210 74620
" />
<path d="M72900 74810
L72930 74840
L72890 74880
L72860 74840
L72900 74810
L72890 74880
" />
<path d="M72950 74390
L72990 74430
L72940 74470
L72910 74430
L72950 74390
L72940 74470
" />
</g>
<g style="fill:#840000; fill-opacity:0.0; 
stroke:#840000; stroke-width:100; stroke-opacity:1; 
stroke-linecap:round; stroke-linejoin:round;">
</g>
<g style="fill:#840000; fill-opacity:0.0; 
stroke:#840000; stroke-width:60; stroke-opacity:1; 
stroke-linecap:round; stroke-linejoin:round;">
<text x="70080" y="73400"
textLength="8500" font-size="780" lengthAdjust="spacingAndGlyphs"
text-anchor="start" opacity="0">File: USB-OTG.sch</text>
<path d="M70440 73060
L70250 73060
" />
<path d="M70250 73370
L70250 72780
L70530 72780
" />
<path d="M70750 73370
L70750 72980
" />
<path d="M70750 72780
L70720 72810
L70750 72840
L70780 72810
L70750 72780
L70750 72840
" />
<path d="M71120 73370
L71060 73340
L71030 73290
L71030 72780
" />
<path d="M71570 73340
L71510 73370
L71400 73370
L71340 73340
L71310 73290
L71310 73060
L71340 73010
L71400 72980
L71510 72980
L71570 73010
L71590 73060
L71590 73120
L71310 73180
" />
<path d="M71850 73320
L71880 73340
L71850 73370
L71820 73340
L71850 73320
L71850 73370
" />
<path d="M71850 73010
L71880 73030
L71850 73060
L71820 73030
L71850 73010
L71850 73060
" />
<path d="M72580 72780
L72580 73260
L72610 73320
L72630 73340
L72690 73370
L72800 73370
L72860 73340
L72890 73320
L72910 73260
L72910 72780
" />
<path d="M73170 73340
L73250 73370
L73390 73370
L73450 73340
L73480 73320
L73500 73260
L73500 73200
L73480 73150
L73450 73120
L73390 73090
L73280 73060
L73220 73030
L73200 73010
L73170 72950
L73170 72890
L73200 72840
L73220 72810
L73280 72780
L73420 72780
L73500 72810
" />
<path d="M73950 73060
L74040 73090
L74070 73120
L74090 73180
L74090 73260
L74070 73320
L74040 73340
L73980 73370
L73760 73370
L73760 72780
L73950 72780
L74010 72810
L74040 72840
L74070 72890
L74070 72950
L74040 73010
L74010 73030
L73950 73060
L73760 73060
" />
<path d="M74350 73150
L74800 73150
" />
<path d="M75190 72780
L75300 72780
L75360 72810
L75420 72870
L75440 72980
L75440 73180
L75420 73290
L75360 73340
L75300 73370
L75190 73370
L75130 73340
L75080 73290
L75050 73180
L75050 72980
L75080 72870
L75130 72810
L75190 72780
" />
<path d="M75610 72780
L75950 72780
" />
<path d="M75780 73370
L75780 72780
" />
<path d="M76450 72810
L76400 72780
L76310 72780
L76230 72810
L76170 72870
L76150 72920
L76120 73030
L76120 73120
L76150 73230
L76170 73290
L76230 73340
L76310 73370
L76370 73370
L76450 73340
L76480 73320
L76480 73120
L76370 73120
" />
<path d="M76740 73320
L76760 73340
L76740 73370
L76710 73340
L76740 73320
L76740 73370
" />
<path d="M76990 73340
L77040 73370
L77160 73370
L77210 73340
L77240 73290
L77240 73260
L77210 73200
L77160 73180
L77070 73180
L77020 73150
L76990 73090
L76990 73060
L77020 73010
L77070 72980
L77160 72980
L77210 73010
" />
<path d="M77750 73340
L77690 73370
L77580 73370
L77520 73340
L77490 73320
L77470 73260
L77470 73090
L77490 73030
L77520 73010
L77580 72980
L77690 72980
L77750 73010
" />
<path d="M78000 73370
L78000 72780
" />
<path d="M78250 73370
L78250 73060
L78220 73010
L78170 72980
L78080 72980
L78030 73010
L78000 73030
" />
</g>
<g style="fill:#840000; fill-opacity:0.0; 
stroke:#840000; stroke-width:100; stroke-opacity:1; 
stroke-linecap:round; stroke-linejoin:round;">
</g>
<g style="fill:#840000; fill-opacity:0.0; 
stroke:#840000; stroke-width:60; stroke-opacity:1; 
stroke-linecap:round; stroke-linejoin:round;">
<path d="M69690 71460
L112210 71460
" />
</g>
<g style="fill:#840000; fill-opacity:0.0; 
stroke:#840000; stroke-width:100; stroke-opacity:1; 
stroke-linecap:round; stroke-linejoin:round;">
</g>
<g style="fill:#840000; fill-opacity:0.0; 
stroke:#840000; stroke-width:60; stroke-opacity:1; 
stroke-linecap:round; stroke-linejoin:round;">
<text x="70080" y="72340"
textLength="8350" font-size="780" lengthAdjust="spacingAndGlyphs"
text-anchor="start" opacity="0">Sheet: /USB_OTG/</text>
<path d="M70220 72280
L70300 72310
L70440 72310
L70500 72280
L70530 72260
L70550 72200
L70550 72140
L70530 72090
L70500 72060
L70440 72030
L70330 72000
L70270 71970
L70250 71950
L70220 71890
L70220 71830
L70250 71780
L70270 71750
L70330 71720
L70470 71720
L70550 71750
" />
<path d="M70810 72310
L70810 71720
" />
<path d="M71060 72310
L71060 72000
L71030 71950
L70980 71920
L70890 71920
L70840 71950
L70810 71970
" />
<path d="M71570 72280
L71510 72310
L71400 72310
L71340 72280
L71310 72230
L71310 72000
L71340 71950
L71400 71920
L71510 71920
L71570 71950
L71590 72000
L71590 72060
L71310 72120
" />
<path d="M72070 72280
L72020 72310
L71900 72310
L71850 72280
L71820 72230
L71820 72000
L71850 71950
L71900 71920
L72020 71920
L72070 71950
L72100 72000
L72100 72060
L71820 72120
" />
<path d="M72270 71920
L72490 71920
" />
<path d="M72350 71720
L72350 72230
L72380 72280
L72440 72310
L72490 72310
" />
<path d="M72690 72260
L72720 72280
L72690 72310
L72660 72280
L72690 72260
L72690 72310
" />
<path d="M72690 71950
L72720 71970
L72690 72000
L72660 71970
L72690 71950
L72690 72000
" />
<path d="M73840 71690
L73340 72450
" />
<path d="M74040 71720
L74040 72200
L74070 72260
L74090 72280
L74150 72310
L74260 72310
L74320 72280
L74350 72260
L74380 72200
L74380 71720
" />
<path d="M74630 72280
L74710 72310
L74850 72310
L74910 72280
L74940 72260
L74970 72200
L74970 72140
L74940 72090
L74910 72060
L74850 72030
L74740 72000
L74680 71970
L74660 71950
L74630 71890
L74630 71830
L74660 71780
L74680 71750
L74740 71720
L74880 71720
L74970 71750
" />
<path d="M75420 72000
L75500 72030
L75530 72060
L75560 72120
L75560 72200
L75530 72260
L75500 72280
L75440 72310
L75220 72310
L75220 71720
L75420 71720
L75470 71750
L75500 71780
L75530 71830
L75530 71890
L75500 71950
L75470 71970
L75420 72000
L75220 72000
" />
<path d="M75670 72370
L76120 72370
" />
<path d="M76370 71720
L76480 71720
L76540 71750
L76600 71810
L76620 71920
L76620 72120
L76600 72230
L76540 72280
L76480 72310
L76370 72310
L76310 72280
L76260 72230
L76230 72120
L76230 71920
L76260 71810
L76310 71750
L76370 71720
" />
<path d="M76790 71720
L77130 71720
" />
<path d="M76960 72310
L76960 71720
" />
<path d="M77630 71750
L77580 71720
L77490 71720
L77410 71750
L77350 71810
L77330 71860
L77300 71970
L77300 72060
L77330 72170
L77350 72230
L77410 72280
L77490 72310
L77550 72310
L77630 72280
L77660 72260
L77660 72060
L77550 72060
" />
<path d="M78340 71690
L77830 72450
" />
</g>
<g style="fill:#840000; fill-opacity:0.0; 
stroke:#840000; stroke-width:100; stroke-opacity:1; 
stroke-linecap:round; stroke-linejoin:round;">
</g>
<g style="fill:#840000; fill-opacity:0.0; 
stroke:#840000; stroke-width:60; stroke-opacity:1; 
stroke-linecap:round; stroke-linejoin:round;">
<path d="M77560 75400
L77560 76580
" />
</g>
<g style="fill:#840000; fill-opacity:0.0; 
stroke:#840000; stroke-width:100; stroke-opacity:1; 
stroke-linecap:round; stroke-linejoin:round;">
</g>
<g style="fill:#840000; fill-opacity:0.0; 
stroke:#840000; stroke-width:60; stroke-opacity:1; 
stroke-linecap:round; stroke-linejoin:round;">
<path d="M102760 75400
L102760 77960
" />
</g>
<g style="fill:#840000; fill-opacity:0.0; 
stroke:#840000; stroke-width:0; stroke-opacity:1; 
stroke-linecap:round; stroke-linejoin:round;">
<g >
</g>
<g style="fill:#840000; fill-opacity:0.0; 
stroke:#840000; stroke-width:80; stroke-opacity:1; 
stroke-linecap:round; stroke-linejoin:round;">
<rect x="35300" y="27700" width="1400" height="600" rx="0" />
</g>
<g style="fill:#840000; fill-opacity:0.0; 
stroke:#840000; stroke-width:60; stroke-opacity:1; 
stroke-linecap:round; stroke-linejoin:round;">
<path d="M36700 28000
L37000 28000
" />
<path d="M35300 28000
L35000 28000
" />
</g>
<g style="fill:#008484; fill-opacity:0.0; 
stroke:#008484; stroke-width:60; stroke-opacity:1; 
stroke-linecap:round; stroke-linejoin:round;">
<text x="36000" y="30180"
textLength="1040" font-size="660" lengthAdjust="spacingAndGlyphs"
text-anchor="middle" opacity="0">R2</text>
<path d="M35910 30150
L35750 29910
" />
<path d="M35630 30150
L35630 29650
L35820 29650
L35860 29680
L35890 29700
L35910 29750
L35910 29820
L35890 29870
L35860 29890
L35820 29910
L35630 29910
" />
<path d="M36100 29700
L36130 29680
L36170 29650
L36290 29650
L36340 29680
L36360 29700
L36390 29750
L36390 29790
L36360 29870
L36080 30150
L36390 30150
" />
<text x="36000" y="29270"
textLength="1510" font-size="660" lengthAdjust="spacingAndGlyphs"
text-anchor="middle" opacity="0">1K5</text>
<path d="M35650 29240
L35360 29240
" />
<path d="M35510 29240
L35510 28740
L35460 28810
L35410 28860
L35360 28880
" />
<path d="M35860 29240
L35860 28740
" />
<path d="M36150 29240
L35940 28960
" />
<path d="M36150 28740
L35860 29030
" />
<path d="M36600 28740
L36360 28740
L36340 28980
L36360 28960
L36410 28930
L36530 28930
L36580 28960
L36600 28980
L36630 29030
L36630 29150
L36600 29190
L36580 29220
L36530 29240
L36410 29240
L36360 29220
L36340 29190
" />
</g>
</g>
<g style="fill:#008484; fill-opacity:0.0; 
stroke:#008484; stroke-width:0; stroke-opacity:1; 
stroke-linecap:round; stroke-linejoin:round;">
<g >
</g>
<g style="fill:#840000; fill-opacity:0.0; 
stroke:#840000; stroke-width:0; stroke-opacity:1; 
stroke-linecap:round; stroke-linejoin:round;">
</g>
<g style="fill:#840000; fill-opacity:0.0; 
stroke:#840000; stroke-width:60; stroke-opacity:1; 
stroke-linecap:round; stroke-linejoin:round;">
<path style="fill:#840000; fill-opacity:0.0; 
stroke:#840000; stroke-width:60; stroke-opacity:1; 
stroke-linecap:round; stroke-linejoin:round;fill:none"
d="M 25500,40000
26000,40000
26000,39500
26500,40000
26000,40500
26000,40000
" /> 
</g>
<g style="fill:#008484; fill-opacity:0.0; 
stroke:#008484; stroke-width:60; stroke-opacity:1; 
stroke-linecap:round; stroke-linejoin:round;">
<g transform="rotate(-90 27250 39950)">
<text x="27250" y="40200"
textLength="1580" font-size="660" lengthAdjust="spacingAndGlyphs"
text-anchor="middle" opacity="0">GND</text>
</g>
<path d="M27000 40330
L26970 40370
L26970 40450
L27000 40520
L27040 40560
L27090 40590
L27190 40610
L27260 40610
L27350 40590
L27400 40560
L27450 40520
L27470 40450
L27470 40400
L27450 40330
L27420 40300
L27260 40300
L27260 40400
" />
<path d="M27470 40090
L26970 40090
L27470 39800
L26970 39800
" />
<path d="M27470 39560
L26970 39560
L26970 39450
L27000 39370
L27040 39330
L27090 39300
L27190 39280
L27260 39280
L27350 39300
L27400 39330
L27450 39370
L27470 39450
L27470 39560
" />
</g>
</g>
<g style="fill:#008484; fill-opacity:0.0; 
stroke:#008484; stroke-width:0; stroke-opacity:1; 
stroke-linecap:round; stroke-linejoin:round;">
<g >
</g>
<g style="fill:#840000; fill-opacity:0.0; 
stroke:#840000; stroke-width:0; stroke-opacity:1; 
stroke-linecap:round; stroke-linejoin:round;">
</g>
<g style="fill:#FFFFC2; fill-opacity:0.0; 
stroke:#FFFFC2; stroke-width:0; stroke-opacity:1; 
stroke-linecap:round; stroke-linejoin:round;">
</g>
<g style="fill:#FFFFC2; fill-opacity:0.6; 
stroke:#FFFFC2; stroke-width:0; stroke-opacity:1; 
stroke-linecap:round; stroke-linejoin:round;">
<rect x="21500" y="24000" width="8000" height="14000" rx="0" />
</g>
<g style="fill:#840000; fill-opacity:0.6; 
stroke:#840000; stroke-width:0; stroke-opacity:1; 
stroke-linecap:round; stroke-linejoin:round;">
</g>
<g style="fill:#840000; fill-opacity:0.0; 
stroke:#840000; stroke-width:100; stroke-opacity:1; 
stroke-linecap:round; stroke-linejoin:round;">
<rect x="21500" y="24000" width="8000" height="14000" rx="0" />
</g>
<g style="fill:#840000; fill-opacity:0.0; 
stroke:#840000; stroke-width:200; stroke-opacity:1; 
stroke-linecap:round; stroke-linejoin:round;">
<path d="M22000 32501.3 A750 750 0.0 0 0 23500 32501.3" />
</g>
<g style="fill:#840000; fill-opacity:0.0; 
stroke:#840000; stroke-width:100; stroke-opacity:1; 
stroke-linecap:round; stroke-linejoin:round;">
<path d="M22500 32500.4 A250 250 0.0 0 0 23000 32500.4" />
</g>
<g style="fill:#840000; fill-opacity:1.0; 
stroke:#840000; stroke-width:0; stroke-opacity:1; 
stroke-linecap:round; stroke-linejoin:round;">
<path d="M22500 32500.4 A250 250 0.0 0 0 23000 32500.4 L 22750 32500 Z" />
</g>
<g style="fill:#840000; fill-opacity:0.0; 
stroke:#840000; stroke-width:100; stroke-opacity:1; 
stroke-linecap:round; stroke-linejoin:round;">
<path d="M22500 32500.4 A250 250 0.0 0 0 23000 32500.4" />
</g>
<g style="fill:#840000; fill-opacity:1.0; 
stroke:#840000; stroke-width:0; stroke-opacity:1; 
stroke-linecap:round; stroke-linejoin:round;">
<path d="M23000 29499.6 A250 250 0.0 0 0 22500 29499.6 L 22750 29500 Z" />
</g>
<g style="fill:#840000; fill-opacity:0.0; 
stroke:#840000; stroke-width:100; stroke-opacity:1; 
stroke-linecap:round; stroke-linejoin:round;">
<path d="M23000 29499.6 A250 250 0.0 0 0 22500 29499.6" />
<path d="M23000 29499.6 A250 250 0.0 0 0 22500 29499.6" />
</g>
<g style="fill:#840000; fill-opacity:0.0; 
stroke:#840000; stroke-width:200; stroke-opacity:1; 
stroke-linecap:round; stroke-linejoin:round;">
<path d="M23500 29498.7 A750 750 0.0 0 0 22000 29498.7" />
</g>
<g style="fill:#840000; fill-opacity:1.0; 
stroke:#840000; stroke-width:100; stroke-opacity:1; 
stroke-linecap:round; stroke-linejoin:round;">
<circle cx="24500" cy="30550" r="250" /> 
</g>
<g style="fill:#840000; fill-opacity:1.0; 
stroke:#840000; stroke-width:60; stroke-opacity:1; 
stroke-linecap:round; stroke-linejoin:round;">
<circle cx="25500" cy="33300" r="500" /> 
</g>
<g style="fill:#840000; fill-opacity:0.0; 
stroke:#840000; stroke-width:60; stroke-opacity:1; 
stroke-linecap:round; stroke-linejoin:round;">
<rect x="25400" y="37600" width="200" height="400" rx="0" />
<rect x="29100" y="36900" width="400" height="200" rx="0" />
<rect x="29100" y="35900" width="400" height="200" rx="0" />
<rect x="29100" y="32900" width="400" height="200" rx="0" />
<rect x="29100" y="31900" width="400" height="200" rx="0" />
<rect x="29100" y="30900" width="400" height="200" rx="0" />
<rect x="29100" y="29900" width="400" height="200" rx="0" />
<rect x="29100" y="27900" width="400" height="200" rx="0" />
<rect x="29100" y="26900" width="400" height="200" rx="0" />
<rect x="29100" y="24900" width="400" height="200" rx="0" />
</g>
<g style="fill:#840000; fill-opacity:0.0; 
stroke:#840000; stroke-width:100; stroke-opacity:1; 
stroke-linecap:round; stroke-linejoin:round;">
<rect x="21500" y="24000" width="8000" height="14000" rx="0" />
</g>
<g style="fill:#840000; fill-opacity:1.0; 
stroke:#840000; stroke-width:100; stroke-opacity:1; 
stroke-linecap:round; stroke-linejoin:round;">
<rect x="22500" y="29500" width="500" height="3000" rx="0" />
<rect x="26250" y="29800" width="500" height="500" rx="0" />
</g>
<g style="fill:#840000; fill-opacity:0.0; 
stroke:#840000; stroke-width:200; stroke-opacity:1; 
stroke-linecap:round; stroke-linejoin:round;">
<path style="fill:#840000; fill-opacity:0.0; 
stroke:#840000; stroke-width:200; stroke-opacity:1; 
stroke-linecap:round; stroke-linejoin:round;fill:none"
d="M 22000,32500
22000,29500
" /> 
<path style="fill:#840000; fill-opacity:0.0; 
stroke:#840000; stroke-width:200; stroke-opacity:1; 
stroke-linecap:round; stroke-linejoin:round;fill:none"
d="M 23500,29500
23500,32500
" /> 
<path style="fill:#840000; fill-opacity:0.0; 
stroke:#840000; stroke-width:200; stroke-opacity:1; 
stroke-linecap:round; stroke-linejoin:round;fill:none"
d="M 25500,33300
25500,29300
" /> 
<path style="fill:#840000; fill-opacity:0.0; 
stroke:#840000; stroke-width:200; stroke-opacity:1; 
stroke-linecap:round; stroke-linejoin:round;fill:none"
d="M 25500,32300
24500,31300
24500,30800
" /> 
<path style="fill:#840000; fill-opacity:0.0; 
stroke:#840000; stroke-width:200; stroke-opacity:1; 
stroke-linecap:round; stroke-linejoin:round;fill:none"
d="M 25500,31800
26500,30800
26500,30300
" /> 
</g>
<g style="fill:#840000; fill-opacity:1.0; 
stroke:#840000; stroke-width:100; stroke-opacity:1; 
stroke-linecap:round; stroke-linejoin:round;">
<path style="fill:#840000; fill-opacity:1.0; 
stroke:#840000; stroke-width:100; stroke-opacity:1; 
stroke-linecap:round; stroke-linejoin:round;fill-rule:evenodd;"
d="M 25000,29300
25500,28300
26000,29300
Z" /> 
</g>
<g style="fill:#840000; fill-opacity:1.0; 
stroke:#840000; stroke-width:60; stroke-opacity:1; 
stroke-linecap:round; stroke-linejoin:round;">
</g>
<g style="fill:#840000; fill-opacity:0.0; 
stroke:#840000; stroke-width:60; stroke-opacity:1; 
stroke-linecap:round; stroke-linejoin:round;">
<path d="M25500 38000
L25500 40000
" />
</g>
<g style="fill:#008484; fill-opacity:0.0; 
stroke:#008484; stroke-width:60; stroke-opacity:1; 
stroke-linecap:round; stroke-linejoin:round;">
<g transform="rotate(-90 25500 37600)">
<text x="25500" y="37850"
textLength="1580" font-size="660" lengthAdjust="spacingAndGlyphs"
text-anchor="start" opacity="0">GND</text>
</g>
<path d="M25250 37180
L25220 37230
L25220 37300
L25250 37370
L25290 37420
L25340 37450
L25440 37470
L25510 37470
L25600 37450
L25650 37420
L25700 37370
L25720 37300
L25720 37260
L25700 37180
L25670 37160
L25510 37160
L25510 37260
" />
<path d="M25720 36950
L25220 36950
L25720 36660
L25220 36660
" />
<path d="M25720 36420
L25220 36420
L25220 36300
L25250 36230
L25290 36180
L25340 36160
L25440 36140
L25510 36140
L25600 36160
L25650 36180
L25700 36230
L25720 36300
L25720 36420
" />
</g>
<g style="fill:#840000; fill-opacity:0.0; 
stroke:#840000; stroke-width:60; stroke-opacity:1; 
stroke-linecap:round; stroke-linejoin:round;">
<g transform="rotate(-90 25400 39000)">
<text x="25400" y="39000"
textLength="960" font-size="660" lengthAdjust="spacingAndGlyphs"
text-anchor="middle" opacity="0">A1</text>
</g>
<path d="M25230 39350
L25230 39110
" />
<path d="M25370 39400
L24870 39230
L25370 39070
" />
<path d="M25370 38640
L25370 38920
" />
<path d="M25370 38780
L24870 38780
L24940 38830
L24990 38880
L25010 38920
" />
<path d="M29500 25000
L31500 25000
" />
</g>
<g style="fill:#008484; fill-opacity:0.0; 
stroke:#008484; stroke-width:60; stroke-opacity:1; 
stroke-linecap:round; stroke-linejoin:round;">
<text x="29100" y="25250"
textLength="1990" font-size="660" lengthAdjust="spacingAndGlyphs"
text-anchor="end" opacity="0">VBUS</text>
<path d="M27180 24720
L27350 25220
L27520 24720
" />
<path d="M27850 24960
L27920 24980
L27950 25010
L27970 25050
L27970 25130
L27950 25170
L27920 25200
L27870 25220
L27680 25220
L27680 24720
L27850 24720
L27900 24750
L27920 24770
L27950 24820
L27950 24860
L27920 24910
L27900 24940
L27850 24960
L27680 24960
" />
<path d="M28180 24720
L28180 25130
L28210 25170
L28230 25200
L28280 25220
L28370 25220
L28420 25200
L28450 25170
L28470 25130
L28470 24720
" />
<path d="M28680 25200
L28760 25220
L28870 25220
L28920 25200
L28950 25170
L28970 25130
L28970 25080
L28950 25030
L28920 25010
L28870 24980
L28780 24960
L28730 24940
L28710 24910
L28680 24860
L28680 24820
L28710 24770
L28730 24750
L28780 24720
L28900 24720
L28970 24750
" />
</g>
<g style="fill:#840000; fill-opacity:0.0; 
stroke:#840000; stroke-width:60; stroke-opacity:1; 
stroke-linecap:round; stroke-linejoin:round;">
<text x="30500" y="24900"
textLength="960" font-size="660" lengthAdjust="spacingAndGlyphs"
text-anchor="middle" opacity="0">A4</text>
<path d="M30140 24730
L30380 24730
" />
<path d="M30090 24870
L30260 24370
L30420 24870
" />
<path d="M30800 24540
L30800 24870
" />
<path d="M30690 24350
L30570 24700
L30880 24700
" />
<path d="M29500 27000
L31500 27000
" />
</g>
<g style="fill:#008484; fill-opacity:0.0; 
stroke:#008484; stroke-width:60; stroke-opacity:1; 
stroke-linecap:round; stroke-linejoin:round;">
<text x="29100" y="27250"
textLength="1540" font-size="660" lengthAdjust="spacingAndGlyphs"
text-anchor="end" opacity="0">CC1</text>
<path d="M27990 27170
L27970 27200
L27900 27220
L27850 27220
L27780 27200
L27730 27150
L27710 27100
L27680 27010
L27680 26940
L27710 26840
L27730 26790
L27780 26750
L27850 26720
L27900 26720
L27970 26750
L27990 26770
" />
<path d="M28490 27170
L28470 27200
L28400 27220
L28350 27220
L28280 27200
L28230 27150
L28210 27100
L28180 27010
L28180 26940
L28210 26840
L28230 26790
L28280 26750
L28350 26720
L28400 26720
L28470 26750
L28490 26770
" />
<path d="M28970 27220
L28680 27220
" />
<path d="M28830 27220
L28830 26720
L28780 26790
L28730 26840
L28680 26860
" />
</g>
<g style="fill:#840000; fill-opacity:0.0; 
stroke:#840000; stroke-width:60; stroke-opacity:1; 
stroke-linecap:round; stroke-linejoin:round;">
<text x="30500" y="26900"
textLength="960" font-size="660" lengthAdjust="spacingAndGlyphs"
text-anchor="middle" opacity="0">A5</text>
<path d="M30140 26730
L30380 26730
" />
<path d="M30090 26870
L30260 26370
L30420 26870
" />
<path d="M30830 26370
L30590 26370
L30570 26610
L30590 26590
L30640 26560
L30760 26560
L30800 26590
L30830 26610
L30850 26660
L30850 26780
L30830 26820
L30800 26850
L30760 26870
L30640 26870
L30590 26850
L30570 26820
" />
<path d="M29500 32000
L31500 32000
" />
</g>
<g style="fill:#008484; fill-opacity:0.0; 
stroke:#008484; stroke-width:60; stroke-opacity:1; 
stroke-linecap:round; stroke-linejoin:round;">
<text x="29100" y="32250"
textLength="1180" font-size="660" lengthAdjust="spacingAndGlyphs"
text-anchor="end" opacity="0">D+</text>
<path d="M28070 32220
L28070 31720
L28180 31720
L28260 31750
L28300 31790
L28330 31840
L28350 31940
L28350 32010
L28330 32100
L28300 32150
L28260 32200
L28180 32220
L28070 32220
" />
<path d="M28570 32030
L28950 32030
" />
<path d="M28760 32220
L28760 31840
" />
</g>
<g style="fill:#840000; fill-opacity:0.0; 
stroke:#840000; stroke-width:60; stroke-opacity:1; 
stroke-linecap:round; stroke-linejoin:round;">
<text x="30500" y="31900"
textLength="960" font-size="660" lengthAdjust="spacingAndGlyphs"
text-anchor="middle" opacity="0">A6</text>
<path d="M30140 31730
L30380 31730
" />
<path d="M30090 31870
L30260 31370
L30420 31870
" />
<path d="M30800 31370
L30710 31370
L30660 31400
L30640 31420
L30590 31490
L30570 31590
L30570 31780
L30590 31820
L30610 31850
L30660 31870
L30760 31870
L30800 31850
L30830 31820
L30850 31780
L30850 31660
L30830 31610
L30800 31590
L30760 31560
L30660 31560
L30610 31590
L30590 31610
L30570 31660
" />
<path d="M29500 30000
L31500 30000
" />
</g>
<g style="fill:#008484; fill-opacity:0.0; 
stroke:#008484; stroke-width:60; stroke-opacity:1; 
stroke-linecap:round; stroke-linejoin:round;">
<text x="29100" y="30250"
textLength="1180" font-size="660" lengthAdjust="spacingAndGlyphs"
text-anchor="end" opacity="0">D-</text>
<path d="M28070 30220
L28070 29720
L28180 29720
L28260 29750
L28300 29790
L28330 29840
L28350 29940
L28350 30010
L28330 30100
L28300 30150
L28260 30200
L28180 30220
L28070 30220
" />
<path d="M28570 30030
L28950 30030
" />
</g>
<g style="fill:#840000; fill-opacity:0.0; 
stroke:#840000; stroke-width:60; stroke-opacity:1; 
stroke-linecap:round; stroke-linejoin:round;">
<text x="30500" y="29900"
textLength="960" font-size="660" lengthAdjust="spacingAndGlyphs"
text-anchor="middle" opacity="0">A7</text>
<path d="M30140 29730
L30380 29730
" />
<path d="M30090 29870
L30260 29370
L30420 29870
" />
<path d="M30540 29370
L30880 29370
L30660 29870
" />
<path d="M29500 36000
L31500 36000
" />
</g>
<g style="fill:#008484; fill-opacity:0.0; 
stroke:#008484; stroke-width:60; stroke-opacity:1; 
stroke-linecap:round; stroke-linejoin:round;">
<text x="29100" y="36250"
textLength="2040" font-size="660" lengthAdjust="spacingAndGlyphs"
text-anchor="end" opacity="0">SBU1</text>
<path d="M27180 36200
L27260 36220
L27370 36220
L27420 36200
L27450 36170
L27470 36130
L27470 36080
L27450 36030
L27420 36010
L27370 35980
L27280 35960
L27230 35940
L27210 35910
L27180 35860
L27180 35820
L27210 35770
L27230 35750
L27280 35720
L27400 35720
L27470 35750
" />
<path d="M27850 35960
L27920 35980
L27950 36010
L27970 36050
L27970 36130
L27950 36170
L27920 36200
L27870 36220
L27680 36220
L27680 35720
L27850 35720
L27900 35750
L27920 35770
L27950 35820
L27950 35860
L27920 35910
L27900 35940
L27850 35960
L27680 35960
" />
<path d="M28180 35720
L28180 36130
L28210 36170
L28230 36200
L28280 36220
L28370 36220
L28420 36200
L28450 36170
L28470 36130
L28470 35720
" />
<path d="M28970 36220
L28680 36220
" />
<path d="M28830 36220
L28830 35720
L28780 35790
L28730 35840
L28680 35860
" />
</g>
<g style="fill:#840000; fill-opacity:0.0; 
stroke:#840000; stroke-width:60; stroke-opacity:1; 
stroke-linecap:round; stroke-linejoin:round;">
<text x="30500" y="35900"
textLength="960" font-size="660" lengthAdjust="spacingAndGlyphs"
text-anchor="middle" opacity="0">A8</text>
<path d="M30140 35730
L30380 35730
" />
<path d="M30090 35870
L30260 35370
L30420 35870
" />
<path d="M30660 35590
L30610 35560
L30590 35540
L30570 35490
L30570 35470
L30590 35420
L30610 35400
L30660 35370
L30760 35370
L30800 35400
L30830 35420
L30850 35470
L30850 35490
L30830 35540
L30800 35560
L30760 35590
L30660 35590
L30610 35610
L30590 35630
L30570 35680
L30570 35780
L30590 35820
L30610 35850
L30660 35870
L30760 35870
L30800 35850
L30830 35820
L30850 35780
L30850 35680
L30830 35630
L30800 35610
L30760 35590
" />
<path d="M29500 28000
L31500 28000
" />
</g>
<g style="fill:#008484; fill-opacity:0.0; 
stroke:#008484; stroke-width:60; stroke-opacity:1; 
stroke-linecap:round; stroke-linejoin:round;">
<text x="29100" y="28250"
textLength="1540" font-size="660" lengthAdjust="spacingAndGlyphs"
text-anchor="end" opacity="0">CC2</text>
<path d="M27990 28170
L27970 28200
L27900 28220
L27850 28220
L27780 28200
L27730 28150
L27710 28100
L27680 28010
L27680 27940
L27710 27840
L27730 27790
L27780 27750
L27850 27720
L27900 27720
L27970 27750
L27990 27770
" />
<path d="M28490 28170
L28470 28200
L28400 28220
L28350 28220
L28280 28200
L28230 28150
L28210 28100
L28180 28010
L28180 27940
L28210 27840
L28230 27790
L28280 27750
L28350 27720
L28400 27720
L28470 27750
L28490 27770
" />
<path d="M28680 27770
L28710 27750
L28760 27720
L28870 27720
L28920 27750
L28950 27770
L28970 27820
L28970 27860
L28950 27940
L28660 28220
L28970 28220
" />
</g>
<g style="fill:#840000; fill-opacity:0.0; 
stroke:#840000; stroke-width:60; stroke-opacity:1; 
stroke-linecap:round; stroke-linejoin:round;">
<text x="30500" y="27900"
textLength="1040" font-size="660" lengthAdjust="spacingAndGlyphs"
text-anchor="middle" opacity="0">B5</text>
<path d="M30290 27610
L30360 27630
L30390 27660
L30410 27700
L30410 27780
L30390 27820
L30360 27850
L30320 27870
L30130 27870
L30130 27370
L30290 27370
L30340 27400
L30360 27420
L30390 27470
L30390 27510
L30360 27560
L30340 27590
L30290 27610
L30130 27610
" />
<path d="M30860 27370
L30630 27370
L30600 27610
L30630 27590
L30670 27560
L30790 27560
L30840 27590
L30860 27610
L30890 27660
L30890 27780
L30860 27820
L30840 27850
L30790 27870
L30670 27870
L30630 27850
L30600 27820
" />
<path d="M29500 33000
L31500 33000
" />
</g>
<g style="fill:#008484; fill-opacity:0.0; 
stroke:#008484; stroke-width:60; stroke-opacity:1; 
stroke-linecap:round; stroke-linejoin:round;">
<text x="29100" y="33250"
textLength="1180" font-size="660" lengthAdjust="spacingAndGlyphs"
text-anchor="end" opacity="0">D+</text>
<path d="M28070 33220
L28070 32720
L28180 32720
L28260 32750
L28300 32790
L28330 32840
L28350 32940
L28350 33010
L28330 33100
L28300 33150
L28260 33200
L28180 33220
L28070 33220
" />
<path d="M28570 33030
L28950 33030
" />
<path d="M28760 33220
L28760 32840
" />
</g>
<g style="fill:#840000; fill-opacity:0.0; 
stroke:#840000; stroke-width:60; stroke-opacity:1; 
stroke-linecap:round; stroke-linejoin:round;">
<text x="30500" y="32900"
textLength="1040" font-size="660" lengthAdjust="spacingAndGlyphs"
text-anchor="middle" opacity="0">B6</text>
<path d="M30290 32610
L30360 32630
L30390 32660
L30410 32700
L30410 32780
L30390 32820
L30360 32850
L30320 32870
L30130 32870
L30130 32370
L30290 32370
L30340 32400
L30360 32420
L30390 32470
L30390 32510
L30360 32560
L30340 32590
L30290 32610
L30130 32610
" />
<path d="M30840 32370
L30750 32370
L30700 32400
L30670 32420
L30630 32490
L30600 32590
L30600 32780
L30630 32820
L30650 32850
L30700 32870
L30790 32870
L30840 32850
L30860 32820
L30890 32780
L30890 32660
L30860 32610
L30840 32590
L30790 32560
L30700 32560
L30650 32590
L30630 32610
L30600 32660
" />
<path d="M29500 31000
L31500 31000
" />
</g>
<g style="fill:#008484; fill-opacity:0.0; 
stroke:#008484; stroke-width:60; stroke-opacity:1; 
stroke-linecap:round; stroke-linejoin:round;">
<text x="29100" y="31250"
textLength="1180" font-size="660" lengthAdjust="spacingAndGlyphs"
text-anchor="end" opacity="0">D-</text>
<path d="M28070 31220
L28070 30720
L28180 30720
L28260 30750
L28300 30790
L28330 30840
L28350 30940
L28350 31010
L28330 31100
L28300 31150
L28260 31200
L28180 31220
L28070 31220
" />
<path d="M28570 31030
L28950 31030
" />
</g>
<g style="fill:#840000; fill-opacity:0.0; 
stroke:#840000; stroke-width:60; stroke-opacity:1; 
stroke-linecap:round; stroke-linejoin:round;">
<text x="30500" y="30900"
textLength="1040" font-size="660" lengthAdjust="spacingAndGlyphs"
text-anchor="middle" opacity="0">B7</text>
<path d="M30290 30610
L30360 30630
L30390 30660
L30410 30700
L30410 30780
L30390 30820
L30360 30850
L30320 30870
L30130 30870
L30130 30370
L30290 30370
L30340 30400
L30360 30420
L30390 30470
L30390 30510
L30360 30560
L30340 30590
L30290 30610
L30130 30610
" />
<path d="M30580 30370
L30910 30370
L30700 30870
" />
<path d="M29500 37000
L31500 37000
" />
</g>
<g style="fill:#008484; fill-opacity:0.0; 
stroke:#008484; stroke-width:60; stroke-opacity:1; 
stroke-linecap:round; stroke-linejoin:round;">
<text x="29100" y="37250"
textLength="2040" font-size="660" lengthAdjust="spacingAndGlyphs"
text-anchor="end" opacity="0">SBU2</text>
<path d="M27180 37200
L27260 37220
L27370 37220
L27420 37200
L27450 37170
L27470 37130
L27470 37080
L27450 37030
L27420 37010
L27370 36980
L27280 36960
L27230 36940
L27210 36910
L27180 36860
L27180 36820
L27210 36770
L27230 36750
L27280 36720
L27400 36720
L27470 36750
" />
<path d="M27850 36960
L27920 36980
L27950 37010
L27970 37050
L27970 37130
L27950 37170
L27920 37200
L27870 37220
L27680 37220
L27680 36720
L27850 36720
L27900 36750
L27920 36770
L27950 36820
L27950 36860
L27920 36910
L27900 36940
L27850 36960
L27680 36960
" />
<path d="M28180 36720
L28180 37130
L28210 37170
L28230 37200
L28280 37220
L28370 37220
L28420 37200
L28450 37170
L28470 37130
L28470 36720
" />
<path d="M28680 36770
L28710 36750
L28760 36720
L28870 36720
L28920 36750
L28950 36770
L28970 36820
L28970 36860
L28950 36940
L28660 37220
L28970 37220
" />
</g>
<g style="fill:#840000; fill-opacity:0.0; 
stroke:#840000; stroke-width:60; stroke-opacity:1; 
stroke-linecap:round; stroke-linejoin:round;">
<text x="30500" y="36900"
textLength="1040" font-size="660" lengthAdjust="spacingAndGlyphs"
text-anchor="middle" opacity="0">B8</text>
<path d="M30290 36610
L30360 36630
L30390 36660
L30410 36700
L30410 36780
L30390 36820
L30360 36850
L30320 36870
L30130 36870
L30130 36370
L30290 36370
L30340 36400
L30360 36420
L30390 36470
L30390 36510
L30360 36560
L30340 36590
L30290 36610
L30130 36610
" />
<path d="M30700 36590
L30650 36560
L30630 36540
L30600 36490
L30600 36470
L30630 36420
L30650 36400
L30700 36370
L30790 36370
L30840 36400
L30860 36420
L30890 36470
L30890 36490
L30860 36540
L30840 36560
L30790 36590
L30700 36590
L30650 36610
L30630 36630
L30600 36680
L30600 36780
L30630 36820
L30650 36850
L30700 36870
L30790 36870
L30840 36850
L30860 36820
L30890 36780
L30890 36680
L30860 36630
L30840 36610
L30790 36590
" />
<path d="M22500 38000
L22500 40000
" />
</g>
<g style="fill:#008484; fill-opacity:0.0; 
stroke:#008484; stroke-width:60; stroke-opacity:1; 
stroke-linecap:round; stroke-linejoin:round;">
<g transform="rotate(-90 22500 37600)">
<text x="22500" y="37850"
textLength="2660" font-size="660" lengthAdjust="spacingAndGlyphs"
text-anchor="start" opacity="0">SHIELD</text>
</g>
<path d="M22700 37470
L22720 37400
L22720 37280
L22700 37230
L22670 37210
L22630 37180
L22580 37180
L22530 37210
L22510 37230
L22480 37280
L22460 37370
L22440 37420
L22410 37450
L22360 37470
L22320 37470
L22270 37450
L22250 37420
L22220 37370
L22220 37260
L22250 37180
" />
<path d="M22720 36970
L22220 36970
" />
<path d="M22460 36970
L22460 36680
" />
<path d="M22720 36680
L22220 36680
" />
<path d="M22720 36450
L22220 36450
" />
<path d="M22460 36210
L22460 36040
" />
<path d="M22720 35970
L22720 36210
L22220 36210
L22220 35970
" />
<path d="M22720 35520
L22720 35760
L22220 35760
" />
<path d="M22720 35350
L22220 35350
L22220 35230
L22250 35160
L22290 35110
L22340 35090
L22440 35070
L22510 35070
L22600 35090
L22650 35110
L22700 35160
L22720 35230
L22720 35350
" />
</g>
<g style="fill:#840000; fill-opacity:0.0; 
stroke:#840000; stroke-width:60; stroke-opacity:1; 
stroke-linecap:round; stroke-linejoin:round;">
<g transform="rotate(-90 22400 39000)">
<text x="22400" y="39000"
textLength="1010" font-size="660" lengthAdjust="spacingAndGlyphs"
text-anchor="middle" opacity="0">S1</text>
</g>
<path d="M22350 39380
L22370 39300
L22370 39190
L22350 39140
L22320 39110
L22280 39090
L22230 39090
L22180 39110
L22160 39140
L22130 39190
L22110 39280
L22090 39330
L22060 39350
L22010 39380
L21970 39380
L21920 39350
L21900 39330
L21870 39280
L21870 39160
L21900 39090
" />
<path d="M22370 38610
L22370 38900
" />
<path d="M22370 38760
L21870 38760
L21940 38800
L21990 38850
L22010 38900
" />
</g>
<g style="fill:#008484; fill-opacity:0.0; 
stroke:#008484; stroke-width:60; stroke-opacity:1; 
stroke-linecap:round; stroke-linejoin:round;">
<text x="26570" y="22600"
textLength="920" font-size="660" lengthAdjust="spacingAndGlyphs"
text-anchor="middle" opacity="0">J1</text>
<path d="M26400 22070
L26400 22430
L26370 22500
L26330 22550
L26260 22570
L26210 22570
" />
<path d="M26900 22570
L26610 22570
" />
<path d="M26760 22570
L26760 22070
L26710 22140
L26660 22190
L26610 22210
" />
<text x="26570" y="23510"
textLength="9990" font-size="660" lengthAdjust="spacingAndGlyphs"
text-anchor="middle" opacity="0">USB_C_Receptacle_USB2.0</text>
<path d="M21720 22980
L21720 23390
L21740 23430
L21770 23460
L21820 23480
L21910 23480
L21960 23460
L21980 23430
L22010 23390
L22010 22980
" />
<path d="M22220 23460
L22290 23480
L22410 23480
L22460 23460
L22480 23430
L22510 23390
L22510 23340
L22480 23290
L22460 23270
L22410 23240
L22320 23220
L22270 23200
L22240 23170
L22220 23120
L22220 23080
L22240 23030
L22270 23010
L22320 22980
L22430 22980
L22510 23010
" />
<path d="M22890 23220
L22960 23240
L22980 23270
L23010 23310
L23010 23390
L22980 23430
L22960 23460
L22910 23480
L22720 23480
L22720 22980
L22890 22980
L22930 23010
L22960 23030
L22980 23080
L22980 23120
L22960 23170
L22930 23200
L22890 23220
L22720 23220
" />
<path d="M23100 23530
L23480 23530
" />
<path d="M23890 23430
L23860 23460
L23790 23480
L23740 23480
L23670 23460
L23620 23410
L23600 23360
L23580 23270
L23580 23200
L23600 23100
L23620 23050
L23670 23010
L23740 22980
L23790 22980
L23860 23010
L23890 23030
" />
<path d="M23980 23530
L24360 23530
" />
<path d="M24770 23480
L24600 23240
" />
<path d="M24480 23480
L24480 22980
L24670 22980
L24720 23010
L24740 23030
L24770 23080
L24770 23150
L24740 23200
L24720 23220
L24670 23240
L24480 23240
" />
<path d="M25170 23460
L25120 23480
L25030 23480
L24980 23460
L24960 23410
L24960 23220
L24980 23170
L25030 23150
L25120 23150
L25170 23170
L25200 23220
L25200 23270
L24960 23310
" />
<path d="M25620 23460
L25580 23480
L25480 23480
L25430 23460
L25410 23430
L25390 23390
L25390 23240
L25410 23200
L25430 23170
L25480 23150
L25580 23150
L25620 23170
" />
<path d="M26030 23460
L25980 23480
L25890 23480
L25840 23460
L25820 23410
L25820 23220
L25840 23170
L25890 23150
L25980 23150
L26030 23170
L26050 23220
L26050 23270
L25820 23310
" />
<path d="M26270 23150
L26270 23650
" />
<path d="M26270 23170
L26320 23150
L26410 23150
L26460 23170
L26480 23200
L26510 23240
L26510 23390
L26480 23430
L26460 23460
L26410 23480
L26320 23480
L26270 23460
" />
<path d="M26650 23150
L26840 23150
" />
<path d="M26720 22980
L26720 23410
L26740 23460
L26790 23480
L26840 23480
" />
<path d="M27220 23480
L27220 23220
L27200 23170
L27150 23150
L27050 23150
L27010 23170
" />
<path d="M27220 23460
L27170 23480
L27050 23480
L27010 23460
L26980 23410
L26980 23360
L27010 23310
L27050 23290
L27170 23290
L27220 23270
" />
<path d="M27670 23460
L27620 23480
L27530 23480
L27480 23460
L27460 23430
L27430 23390
L27430 23240
L27460 23200
L27480 23170
L27530 23150
L27620 23150
L27670 23170
" />
<path d="M27960 23480
L27910 23460
L27890 23410
L27890 22980
" />
<path d="M28340 23460
L28290 23480
L28200 23480
L28150 23460
L28120 23410
L28120 23220
L28150 23170
L28200 23150
L28290 23150
L28340 23170
L28360 23220
L28360 23270
L28120 23310
" />
<path d="M28460 23530
L28840 23530
" />
<path d="M28960 22980
L28960 23390
L28980 23430
L29010 23460
L29050 23480
L29150 23480
L29200 23460
L29220 23430
L29240 23390
L29240 22980
" />
<path d="M29460 23460
L29530 23480
L29650 23480
L29700 23460
L29720 23430
L29740 23390
L29740 23340
L29720 23290
L29700 23270
L29650 23240
L29550 23220
L29510 23200
L29480 23170
L29460 23120
L29460 23080
L29480 23030
L29510 23010
L29550 22980
L29670 22980
L29740 23010
" />
<path d="M30120 23220
L30200 23240
L30220 23270
L30240 23310
L30240 23390
L30220 23430
L30200 23460
L30150 23480
L29960 23480
L29960 22980
L30120 22980
L30170 23010
L30200 23030
L30220 23080
L30220 23120
L30200 23170
L30170 23200
L30120 23220
L29960 23220
" />
<path d="M30430 23030
L30460 23010
L30510 22980
L30620 22980
L30670 23010
L30700 23030
L30720 23080
L30720 23120
L30700 23200
L30410 23480
L30720 23480
" />
<path d="M30930 23430
L30960 23460
L30930 23480
L30910 23460
L30930 23430
L30930 23480
" />
<path d="M31270 22980
L31310 22980
L31360 23010
L31390 23030
L31410 23080
L31430 23170
L31430 23290
L31410 23390
L31390 23430
L31360 23460
L31310 23480
L31270 23480
L31220 23460
L31200 23430
L31170 23390
L31150 23290
L31150 23170
L31170 23080
L31200 23030
L31220 23010
L31270 22980
" />
</g>
</g>
<g style="fill:#008484; fill-opacity:0.0; 
stroke:#008484; stroke-width:0; stroke-opacity:1; 
stroke-linecap:round; stroke-linejoin:round;">
<g >
</g>
<g style="fill:#840000; fill-opacity:0.0; 
stroke:#840000; stroke-width:0; stroke-opacity:1; 
stroke-linecap:round; stroke-linejoin:round;">
</g>
<g style="fill:#840000; fill-opacity:0.0; 
stroke:#840000; stroke-width:80; stroke-opacity:1; 
stroke-linecap:round; stroke-linejoin:round;">
<rect x="35300" y="26700" width="1400" height="600" rx="0" />
</g>
<g style="fill:#840000; fill-opacity:0.0; 
stroke:#840000; stroke-width:60; stroke-opacity:1; 
stroke-linecap:round; stroke-linejoin:round;">
<path d="M36700 27000
L37000 27000
" />
<path d="M35300 27000
L35000 27000
" />
</g>
<g style="fill:#008484; fill-opacity:0.0; 
stroke:#008484; stroke-width:60; stroke-opacity:1; 
stroke-linecap:round; stroke-linejoin:round;">
<text x="36000" y="25310"
textLength="1040" font-size="660" lengthAdjust="spacingAndGlyphs"
text-anchor="middle" opacity="0">R1</text>
<path d="M35910 25280
L35750 25040
" />
<path d="M35630 25280
L35630 24780
L35820 24780
L35860 24810
L35890 24830
L35910 24880
L35910 24950
L35890 25000
L35860 25020
L35820 25040
L35630 25040
" />
<path d="M36390 25280
L36100 25280
" />
<path d="M36250 25280
L36250 24780
L36200 24850
L36150 24900
L36100 24920
" />
<text x="36000" y="26220"
textLength="1510" font-size="660" lengthAdjust="spacingAndGlyphs"
text-anchor="middle" opacity="0">1K5</text>
<path d="M35650 26190
L35360 26190
" />
<path d="M35510 26190
L35510 25690
L35460 25760
L35410 25810
L35360 25830
" />
<path d="M35860 26190
L35860 25690
" />
<path d="M36150 26190
L35940 25910
" />
<path d="M36150 25690
L35860 25980
" />
<path d="M36600 25690
L36360 25690
L36340 25930
L36360 25910
L36410 25880
L36530 25880
L36580 25910
L36600 25930
L36630 25980
L36630 26100
L36600 26140
L36580 26170
L36530 26190
L36410 26190
L36360 26170
L36340 26140
" />
</g>
</g>
<g style="fill:#008484; fill-opacity:0.0; 
stroke:#008484; stroke-width:0; stroke-opacity:1; 
stroke-linecap:round; stroke-linejoin:round;">
<g >
</g>
<g style="fill:#840000; fill-opacity:0.0; 
stroke:#840000; stroke-width:0; stroke-opacity:1; 
stroke-linecap:round; stroke-linejoin:round;">
</g>
<g style="fill:#840000; fill-opacity:0.0; 
stroke:#840000; stroke-width:60; stroke-opacity:1; 
stroke-linecap:round; stroke-linejoin:round;">
<path style="fill:#840000; fill-opacity:0.0; 
stroke:#840000; stroke-width:60; stroke-opacity:1; 
stroke-linecap:round; stroke-linejoin:round;fill:none"
d="M 38000,27500
38500,27500
38500,27000
39000,27500
38500,28000
38500,27500
" /> 
</g>
<g style="fill:#008484; fill-opacity:0.0; 
stroke:#008484; stroke-width:60; stroke-opacity:1; 
stroke-linecap:round; stroke-linejoin:round;">
<g transform="rotate(-90 39750 27450)">
<text x="39750" y="27700"
textLength="1580" font-size="660" lengthAdjust="spacingAndGlyphs"
text-anchor="middle" opacity="0">GND</text>
</g>
<path d="M39500 27830
L39470 27870
L39470 27950
L39500 28020
L39540 28060
L39590 28090
L39690 28110
L39760 28110
L39850 28090
L39900 28060
L39950 28020
L39970 27950
L39970 27900
L39950 27830
L39920 27800
L39760 27800
L39760 27900
" />
<path d="M39970 27590
L39470 27590
L39970 27300
L39470 27300
" />
<path d="M39970 27060
L39470 27060
L39470 26950
L39500 26870
L39540 26830
L39590 26800
L39690 26780
L39760 26780
L39850 26800
L39900 26830
L39950 26870
L39970 26950
L39970 27060
" />
</g>
</g>
<g style="fill:#008484; fill-opacity:0.0; 
stroke:#008484; stroke-width:0; stroke-opacity:1; 
stroke-linecap:round; stroke-linejoin:round;">
<g >
</g>
<g style="fill:#840000; fill-opacity:0.0; 
stroke:#840000; stroke-width:0; stroke-opacity:1; 
stroke-linecap:round; stroke-linejoin:round;">
</g>
<g style="fill:#FFFFC2; fill-opacity:0.0; 
stroke:#FFFFC2; stroke-width:0; stroke-opacity:1; 
stroke-linecap:round; stroke-linejoin:round;">
</g>
<g style="fill:#FFFFC2; fill-opacity:0.6; 
stroke:#FFFFC2; stroke-width:0; stroke-opacity:1; 
stroke-linecap:round; stroke-linejoin:round;">
<rect x="35750" y="34000" width="3500" height="2000" rx="0" />
</g>
<g style="fill:#840000; fill-opacity:0.6; 
stroke:#840000; stroke-width:0; stroke-opacity:1; 
stroke-linecap:round; stroke-linejoin:round;">
</g>
<g style="fill:#840000; fill-opacity:0.0; 
stroke:#840000; stroke-width:100; stroke-opacity:1; 
stroke-linecap:round; stroke-linejoin:round;">
<rect x="35750" y="34000" width="3500" height="2000" rx="0" />
</g>
<g style="fill:#840000; fill-opacity:1.0; 
stroke:#840000; stroke-width:60; stroke-opacity:1; 
stroke-linecap:round; stroke-linejoin:round;">
<circle cx="37500" cy="35500" r="100" /> 
</g>
<g style="fill:#840000; fill-opacity:0.0; 
stroke:#840000; stroke-width:100; stroke-opacity:1; 
stroke-linecap:round; stroke-linejoin:round;">
<rect x="35750" y="34000" width="3500" height="2000" rx="0" />
</g>
<g style="fill:#840000; fill-opacity:0.0; 
stroke:#840000; stroke-width:60; stroke-opacity:1; 
stroke-linecap:round; stroke-linejoin:round;">
<path style="fill:#840000; fill-opacity:0.0; 
stroke:#840000; stroke-width:60; stroke-opacity:1; 
stroke-linecap:round; stroke-linejoin:round;fill:none"
d="M 36500,34000
36500,34500
" /> 
<path style="fill:#840000; fill-opacity:0.0; 
stroke:#840000; stroke-width:60; stroke-opacity:1; 
stroke-linecap:round; stroke-linejoin:round;fill:none"
d="M 37500,35500
37500,36000
" /> 
<path style="fill:#840000; fill-opacity:0.0; 
stroke:#840000; stroke-width:60; stroke-opacity:1; 
stroke-linecap:round; stroke-linejoin:round;fill:none"
d="M 38500,34000
38500,34500
" /> 
<path style="fill:#840000; fill-opacity:0.0; 
stroke:#840000; stroke-width:60; stroke-opacity:1; 
stroke-linecap:round; stroke-linejoin:round;fill:none"
d="M 36200,34600
36200,34500
36750,34500
36800,34500
" /> 
<path style="fill:#840000; fill-opacity:0.0; 
stroke:#840000; stroke-width:60; stroke-opacity:1; 
stroke-linecap:round; stroke-linejoin:round;fill:none"
d="M 36500,34500
36500,35500
38500,35500
38500,34500
" /> 
<path style="fill:#840000; fill-opacity:0.0; 
stroke:#840000; stroke-width:60; stroke-opacity:1; 
stroke-linecap:round; stroke-linejoin:round;fill:none"
d="M 36500,34500
36750,35000
36250,35000
Z" /> 
<path style="fill:#840000; fill-opacity:0.0; 
stroke:#840000; stroke-width:60; stroke-opacity:1; 
stroke-linecap:round; stroke-linejoin:round;fill:none"
d="M 38200,34600
38200,34500
38750,34500
38800,34500
" /> 
<path style="fill:#840000; fill-opacity:0.0; 
stroke:#840000; stroke-width:60; stroke-opacity:1; 
stroke-linecap:round; stroke-linejoin:round;fill:none"
d="M 38500,34500
38250,35000
38750,35000
Z" /> 
<path d="M37500 36000
L37500 37000
" />
<g transform="rotate(-90 37400 36500)">
<text x="37400" y="36500"
textLength="540" font-size="660" lengthAdjust="spacingAndGlyphs"
text-anchor="middle" opacity="0">3</text>
</g>
<path d="M36870 36660
L36870 36350
L37060 36520
L37060 36450
L37090 36400
L37110 36380
L37160 36350
L37280 36350
L37320 36380
L37350 36400
L37370 36450
L37370 36590
L37350 36640
L37320 36660
" />
<path d="M36500 34000
L36500 33000
" />
<g transform="rotate(-90 36400 33500)">
<text x="36400" y="33500"
textLength="540" font-size="660" lengthAdjust="spacingAndGlyphs"
text-anchor="middle" opacity="0">1</text>
</g>
<path d="M36370 33350
L36370 33640
" />
<path d="M36370 33500
L35870 33500
L35940 33540
L35990 33590
L36010 33640
" />
<path d="M38500 34000
L38500 33000
" />
<g transform="rotate(-90 38400 33500)">
<text x="38400" y="33500"
textLength="540" font-size="660" lengthAdjust="spacingAndGlyphs"
text-anchor="middle" opacity="0">2</text>
</g>
<path d="M37920 33640
L37900 33610
L37870 33570
L37870 33450
L37900 33400
L37920 33380
L37970 33350
L38010 33350
L38090 33380
L38370 33660
L38370 33350
" />
</g>
<g style="fill:#008484; fill-opacity:0.0; 
stroke:#008484; stroke-width:60; stroke-opacity:1; 
stroke-linecap:round; stroke-linejoin:round;">
<text x="40070" y="34810"
textLength="1040" font-size="660" lengthAdjust="spacingAndGlyphs"
text-anchor="middle" opacity="0">D1</text>
<path d="M39700 34780
L39700 34280
L39820 34280
L39890 34310
L39930 34350
L39960 34400
L39980 34500
L39980 34570
L39960 34660
L39930 34710
L39890 34760
L39820 34780
L39700 34780
" />
<path d="M40460 34780
L40170 34780
" />
<path d="M40320 34780
L40320 34280
L40270 34350
L40220 34400
L40170 34420
" />
<text x="41930" y="35720"
textLength="4770" font-size="660" lengthAdjust="spacingAndGlyphs"
text-anchor="middle" opacity="0">SP0502BAHT</text>
<path d="M39660 35670
L39730 35690
L39850 35690
L39900 35670
L39930 35640
L39950 35600
L39950 35550
L39930 35500
L39900 35480
L39850 35450
L39760 35430
L39710 35410
L39690 35380
L39660 35330
L39660 35290
L39690 35240
L39710 35220
L39760 35190
L39880 35190
L39950 35220
" />
<path d="M40160 35690
L40160 35190
L40350 35190
L40400 35220
L40430 35240
L40450 35290
L40450 35360
L40430 35410
L40400 35430
L40350 35450
L40160 35450
" />
<path d="M40760 35190
L40810 35190
L40850 35220
L40880 35240
L40900 35290
L40930 35380
L40930 35500
L40900 35600
L40880 35640
L40850 35670
L40810 35690
L40760 35690
L40710 35670
L40690 35640
L40660 35600
L40640 35500
L40640 35380
L40660 35290
L40690 35240
L40710 35220
L40760 35190
" />
<path d="M41380 35190
L41140 35190
L41120 35430
L41140 35410
L41190 35380
L41310 35380
L41350 35410
L41380 35430
L41400 35480
L41400 35600
L41380 35640
L41350 35670
L41310 35690
L41190 35690
L41140 35670
L41120 35640
" />
<path d="M41710 35190
L41760 35190
L41810 35220
L41830 35240
L41850 35290
L41880 35380
L41880 35500
L41850 35600
L41830 35640
L41810 35670
L41760 35690
L41710 35690
L41660 35670
L41640 35640
L41620 35600
L41590 35500
L41590 35380
L41620 35290
L41640 35240
L41660 35220
L41710 35190
" />
<path d="M42070 35240
L42090 35220
L42140 35190
L42260 35190
L42310 35220
L42330 35240
L42350 35290
L42350 35330
L42330 35410
L42040 35690
L42350 35690
" />
<path d="M42730 35430
L42810 35450
L42830 35480
L42850 35520
L42850 35600
L42830 35640
L42810 35670
L42760 35690
L42570 35690
L42570 35190
L42730 35190
L42780 35220
L42810 35240
L42830 35290
L42830 35330
L42810 35380
L42780 35410
L42730 35430
L42570 35430
" />
<path d="M43040 35550
L43280 35550
" />
<path d="M43000 35690
L43160 35190
L43330 35690
" />
<path d="M43500 35690
L43500 35190
" />
<path d="M43500 35430
L43780 35430
" />
<path d="M43780 35690
L43780 35190
" />
<path d="M43950 35190
L44230 35190
" />
<path d="M44090 35690
L44090 35190
" />
</g>
</g>
<g style="fill:#008484; fill-opacity:0.0; 
stroke:#008484; stroke-width:0; stroke-opacity:1; 
stroke-linecap:round; stroke-linejoin:round;">
<g >
</g>
<g style="fill:#840000; fill-opacity:0.0; 
stroke:#840000; stroke-width:0; stroke-opacity:1; 
stroke-linecap:round; stroke-linejoin:round;">
</g>
<g style="fill:#840000; fill-opacity:0.0; 
stroke:#840000; stroke-width:60; stroke-opacity:1; 
stroke-linecap:round; stroke-linejoin:round;">
<path style="fill:#840000; fill-opacity:0.0; 
stroke:#840000; stroke-width:60; stroke-opacity:1; 
stroke-linecap:round; stroke-linejoin:round;fill:none"
d="M 37500,37000
37500,37500
38000,37500
37500,38000
37000,37500
37500,37500
" /> 
</g>
<g style="fill:#008484; fill-opacity:0.0; 
stroke:#008484; stroke-width:60; stroke-opacity:1; 
stroke-linecap:round; stroke-linejoin:round;">
<text x="37550" y="39000"
textLength="1580" font-size="660" lengthAdjust="spacingAndGlyphs"
text-anchor="middle" opacity="0">GND</text>
<path d="M37160 38500
L37120 38470
L37050 38470
L36970 38500
L36930 38540
L36900 38590
L36880 38690
L36880 38760
L36900 38850
L36930 38900
L36970 38950
L37050 38970
L37090 38970
L37160 38950
L37190 38920
L37190 38760
L37090 38760
" />
<path d="M37400 38970
L37400 38470
L37690 38970
L37690 38470
" />
<path d="M37930 38970
L37930 38470
L38050 38470
L38120 38500
L38160 38540
L38190 38590
L38210 38690
L38210 38760
L38190 38850
L38160 38900
L38120 38950
L38050 38970
L37930 38970
" />
</g>
</g>
<g style="fill:#008484; fill-opacity:0.0; 
stroke:#008484; stroke-width:0; stroke-opacity:1; 
stroke-linecap:round; stroke-linejoin:round;">
<g >
</g>
<g style="fill:#840000; fill-opacity:0.0; 
stroke:#840000; stroke-width:0; stroke-opacity:1; 
stroke-linecap:round; stroke-linejoin:round;">
</g>
<g style="fill:#840000; fill-opacity:0.0; 
stroke:#840000; stroke-width:60; stroke-opacity:1; 
stroke-linecap:round; stroke-linejoin:round;">
<path style="fill:#840000; fill-opacity:0.0; 
stroke:#840000; stroke-width:60; stroke-opacity:1; 
stroke-linecap:round; stroke-linejoin:round;fill:none"
d="M 32200,24000
32500,23500
" /> 
<path style="fill:#840000; fill-opacity:0.0; 
stroke:#840000; stroke-width:60; stroke-opacity:1; 
stroke-linecap:round; stroke-linejoin:round;fill:none"
d="M 32500,24500
32500,23500
" /> 
<path style="fill:#840000; fill-opacity:0.0; 
stroke:#840000; stroke-width:60; stroke-opacity:1; 
stroke-linecap:round; stroke-linejoin:round;fill:none"
d="M 32500,23500
32800,24000
" /> 
</g>
<g style="fill:#008484; fill-opacity:0.0; 
stroke:#008484; stroke-width:60; stroke-opacity:1; 
stroke-linecap:round; stroke-linejoin:round;">
<text x="32650" y="23040"
textLength="1990" font-size="660" lengthAdjust="spacingAndGlyphs"
text-anchor="middle" opacity="0">VBUS</text>
<path d="M31730 22510
L31900 23010
L32060 22510
" />
<path d="M32400 22750
L32470 22770
L32490 22800
L32510 22840
L32510 22920
L32490 22960
L32470 22990
L32420 23010
L32230 23010
L32230 22510
L32400 22510
L32440 22540
L32470 22560
L32490 22610
L32490 22650
L32470 22700
L32440 22730
L32400 22750
L32230 22750
" />
<path d="M32730 22510
L32730 22920
L32750 22960
L32780 22990
L32820 23010
L32920 23010
L32970 22990
L32990 22960
L33010 22920
L33010 22510
" />
<path d="M33230 22990
L33300 23010
L33420 23010
L33470 22990
L33490 22960
L33510 22920
L33510 22870
L33490 22820
L33470 22800
L33420 22770
L33320 22750
L33280 22730
L33250 22700
L33230 22650
L33230 22610
L33250 22560
L33280 22540
L33320 22510
L33440 22510
L33510 22540
" />
</g>
</g>
<g style="fill:#008484; fill-opacity:0.0; 
stroke:#008484; stroke-width:60; stroke-opacity:1; 
stroke-linecap:round; stroke-linejoin:round;">
</g>
<g style="fill:#008400; fill-opacity:0.0; 
stroke:#008400; stroke-width:60; stroke-opacity:1; 
stroke-linecap:round; stroke-linejoin:round;">
<path d="M32500 30000
L34000 30000
" />
<path d="M31500 32000
L33000 32000
" />
<path d="M33000 32000
L33000 31000
" />
<path d="M31500 30000
L32500 30000
" />
<path d="M34000 30000
L34000 32000
" />
<path d="M31500 31000
L32500 31000
" />
<path d="M32500 31000
L32500 30000
" />
<path d="M38000 28000
L37000 28000
" />
<path d="M33000 33000
L33000 32000
" />
<path d="M31500 28000
L35000 28000
" />
<path d="M35000 27000
L31500 27000
" />
<path d="M38000 27500
L38000 28000
" />
<path d="M37000 27000
L38000 27000
" />
<path d="M38000 27000
L38000 27500
" />
<path d="M31500 33000
L33000 33000
" />
<path d="M33000 31000
L36500 31000
" />
<path d="M31500 25000
L32500 25000
" />
<path d="M32500 25000
L32500 24500
" />
<path d="M36500 31000
L36500 33000
" />
<path d="M22500 40000
L25500 40000
" />
<path d="M34000 32000
L38500 32000
" />
<path d="M38500 32000
L38500 33000
" />
<path d="M38500 32000
L41000 32000
" />
<path d="M41000 31000
L36500 31000
" />
</g>
<g style="fill:#848400; fill-opacity:0.0; 
stroke:#848400; stroke-width:60; stroke-opacity:1; 
stroke-linecap:round; stroke-linejoin:round;">
<text x="41600" y="32250"
textLength="5630" font-size="660" lengthAdjust="spacingAndGlyphs"
text-anchor="start" opacity="0">USB_OTG_HS_N</text>
<path d="M41740 31720
L41740 32130
L41770 32170
L41790 32200
L41840 32220
L41930 32220
L41980 32200
L42010 32170
L42030 32130
L42030 31720
" />
<path d="M42240 32200
L42320 32220
L42430 32220
L42480 32200
L42510 32170
L42530 32130
L42530 32080
L42510 32030
L42480 32010
L42430 31980
L42340 31960
L42290 31940
L42270 31910
L42240 31860
L42240 31820
L42270 31770
L42290 31750
L42340 31720
L42460 31720
L42530 31750
" />
<path d="M42910 31960
L42980 31980
L43010 32010
L43030 32050
L43030 32130
L43010 32170
L42980 32200
L42930 32220
L42740 32220
L42740 31720
L42910 31720
L42960 31750
L42980 31770
L43010 31820
L43010 31860
L42980 31910
L42960 31940
L42910 31960
L42740 31960
" />
<path d="M43130 32270
L43510 32270
" />
<path d="M43720 31720
L43820 31720
L43860 31750
L43910 31790
L43930 31890
L43930 32050
L43910 32150
L43860 32200
L43820 32220
L43720 32220
L43670 32200
L43630 32150
L43600 32050
L43600 31890
L43630 31790
L43670 31750
L43720 31720
" />
<path d="M44080 31720
L44360 31720
" />
<path d="M44220 32220
L44220 31720
" />
<path d="M44790 31750
L44740 31720
L44670 31720
L44600 31750
L44550 31790
L44530 31840
L44510 31940
L44510 32010
L44530 32100
L44550 32150
L44600 32200
L44670 32220
L44720 32220
L44790 32200
L44820 32170
L44820 32010
L44720 32010
" />
<path d="M44910 32270
L45290 32270
" />
<path d="M45410 32220
L45410 31720
" />
<path d="M45410 31960
L45700 31960
" />
<path d="M45700 32220
L45700 31720
" />
<path d="M45910 32200
L45980 32220
L46100 32220
L46150 32200
L46170 32170
L46200 32130
L46200 32080
L46170 32030
L46150 32010
L46100 31980
L46010 31960
L45960 31940
L45930 31910
L45910 31860
L45910 31820
L45930 31770
L45960 31750
L46010 31720
L46130 31720
L46200 31750
" />
<path d="M46290 32270
L46670 32270
" />
<path d="M46790 32220
L46790 31720
L47080 32220
L47080 31720
" />
</g>
<g style="fill:#848400; fill-opacity:0.0; 
stroke:#848400; stroke-width:100; stroke-opacity:1; 
stroke-linecap:round; stroke-linejoin:round;">
<path style="fill:#848400; fill-opacity:0.0; 
stroke:#848400; stroke-width:100; stroke-opacity:1; 
stroke-linecap:round; stroke-linejoin:round;fill:none"
d="M 41000,32000
41250,31750
41500,32000
41250,32250
Z" /> 
</g>
<g style="fill:#848400; fill-opacity:0.0; 
stroke:#848400; stroke-width:60; stroke-opacity:1; 
stroke-linecap:round; stroke-linejoin:round;">
<text x="41600" y="31250"
textLength="5610" font-size="660" lengthAdjust="spacingAndGlyphs"
text-anchor="start" opacity="0">USB_OTG_HS_P</text>
<path d="M41740 30720
L41740 31130
L41770 31170
L41790 31200
L41840 31220
L41930 31220
L41980 31200
L42010 31170
L42030 31130
L42030 30720
" />
<path d="M42240 31200
L42320 31220
L42430 31220
L42480 31200
L42510 31170
L42530 31130
L42530 31080
L42510 31030
L42480 31010
L42430 30980
L42340 30960
L42290 30940
L42270 30910
L42240 30860
L42240 30820
L42270 30770
L42290 30750
L42340 30720
L42460 30720
L42530 30750
" />
<path d="M42910 30960
L42980 30980
L43010 31010
L43030 31050
L43030 31130
L43010 31170
L42980 31200
L42930 31220
L42740 31220
L42740 30720
L42910 30720
L42960 30750
L42980 30770
L43010 30820
L43010 30860
L42980 30910
L42960 30940
L42910 30960
L42740 30960
" />
<path d="M43130 31270
L43510 31270
" />
<path d="M43720 30720
L43820 30720
L43860 30750
L43910 30790
L43930 30890
L43930 31050
L43910 31150
L43860 31200
L43820 31220
L43720 31220
L43670 31200
L43630 31150
L43600 31050
L43600 30890
L43630 30790
L43670 30750
L43720 30720
" />
<path d="M44080 30720
L44360 30720
" />
<path d="M44220 31220
L44220 30720
" />
<path d="M44790 30750
L44740 30720
L44670 30720
L44600 30750
L44550 30790
L44530 30840
L44510 30940
L44510 31010
L44530 31100
L44550 31150
L44600 31200
L44670 31220
L44720 31220
L44790 31200
L44820 31170
L44820 31010
L44720 31010
" />
<path d="M44910 31270
L45290 31270
" />
<path d="M45410 31220
L45410 30720
" />
<path d="M45410 30960
L45700 30960
" />
<path d="M45700 31220
L45700 30720
" />
<path d="M45910 31200
L45980 31220
L46100 31220
L46150 31200
L46170 31170
L46200 31130
L46200 31080
L46170 31030
L46150 31010
L46100 30980
L46010 30960
L45960 30940
L45930 30910
L45910 30860
L45910 30820
L45930 30770
L45960 30750
L46010 30720
L46130 30720
L46200 30750
" />
<path d="M46290 31270
L46670 31270
" />
<path d="M46790 31220
L46790 30720
L46980 30720
L47030 30750
L47050 30770
L47080 30820
L47080 30890
L47050 30940
L47030 30960
L46980 30980
L46790 30980
" />
</g>
<g style="fill:#848400; fill-opacity:0.0; 
stroke:#848400; stroke-width:100; stroke-opacity:1; 
stroke-linecap:round; stroke-linejoin:round;">
<path style="fill:#848400; fill-opacity:0.0; 
stroke:#848400; stroke-width:100; stroke-opacity:1; 
stroke-linecap:round; stroke-linejoin:round;fill:none"
d="M 41000,31000
41250,30750
41500,31000
41250,31250
Z" /> 
</g>
<g style="fill:#848400; fill-opacity:0.0; 
stroke:#848400; stroke-width:0; stroke-opacity:1; 
stroke-linecap:round; stroke-linejoin:round;">
</g>
<g style="fill:#008400; fill-opacity:0.0; 
stroke:#008400; stroke-width:0; stroke-opacity:1; 
stroke-linecap:round; stroke-linejoin:round;">
</g>
<g style="fill:#008400; fill-opacity:1.0; 
stroke:#008400; stroke-width:100; stroke-opacity:1; 
stroke-linecap:round; stroke-linejoin:round;">
<circle cx="38000" cy="27500" r="200" /> 
</g>
<g style="fill:#008400; fill-opacity:1.0; 
stroke:#008400; stroke-width:0; stroke-opacity:1; 
stroke-linecap:round; stroke-linejoin:round;">
</g>
<g style="fill:#008400; fill-opacity:1.0; 
stroke:#008400; stroke-width:100; stroke-opacity:1; 
stroke-linecap:round; stroke-linejoin:round;">
<circle cx="36500" cy="31000" r="200" /> 
</g>
<g style="fill:#008400; fill-opacity:1.0; 
stroke:#008400; stroke-width:0; stroke-opacity:1; 
stroke-linecap:round; stroke-linejoin:round;">
</g>
<g style="fill:#008400; fill-opacity:1.0; 
stroke:#008400; stroke-width:100; stroke-opacity:1; 
stroke-linecap:round; stroke-linejoin:round;">
<circle cx="38500" cy="32000" r="200" /> 
</g>
<g style="fill:#008400; fill-opacity:1.0; 
stroke:#008400; stroke-width:0; stroke-opacity:1; 
stroke-linecap:round; stroke-linejoin:round;">
</g>
<g style="fill:#008400; fill-opacity:1.0; 
stroke:#008400; stroke-width:100; stroke-opacity:1; 
stroke-linecap:round; stroke-linejoin:round;">
<circle cx="32500" cy="30000" r="200" /> 
</g>
<g style="fill:#008400; fill-opacity:1.0; 
stroke:#008400; stroke-width:0; stroke-opacity:1; 
stroke-linecap:round; stroke-linejoin:round;">
</g>
<g style="fill:#008400; fill-opacity:1.0; 
stroke:#008400; stroke-width:100; stroke-opacity:1; 
stroke-linecap:round; stroke-linejoin:round;">
<circle cx="25500" cy="40000" r="200" /> 
</g>
<g style="fill:#008400; fill-opacity:1.0; 
stroke:#008400; stroke-width:0; stroke-opacity:1; 
stroke-linecap:round; stroke-linejoin:round;">
</g>
<g style="fill:#008400; fill-opacity:1.0; 
stroke:#008400; stroke-width:100; stroke-opacity:1; 
stroke-linecap:round; stroke-linejoin:round;">
<circle cx="33000" cy="32000" r="200" /> 
</g>
<g style="fill:#008400; fill-opacity:1.0; 
stroke:#008400; stroke-width:60; stroke-opacity:1; 
stroke-linecap:round; stroke-linejoin:round;">
</g>
<g style="fill:#000084; fill-opacity:1.0; 
stroke:#000084; stroke-width:60; stroke-opacity:1; 
stroke-linecap:round; stroke-linejoin:round;">
</g>
<g style="fill:#000084; fill-opacity:0.0; 
stroke:#000084; stroke-width:60; stroke-opacity:1; 
stroke-linecap:round; stroke-linejoin:round;">
<path d="M31260 35760
L31740 36240
" />
<path d="M31740 35760
L31260 36240
" />
<path d="M31260 36760
L31740 37240
" />
<path d="M31740 36760
L31260 37240
" />
</g> 
</svg>
